M48
; DRILL file {KiCad 9.0.1} date 2025-04-16T14:05:33+0200
; FORMAT={-:-/ absolute / inch / decimal}
; #@! TF.CreationDate,2025-04-16T14:05:33+02:00
; #@! TF.GenerationSoftware,Kicad,Pcbnew,9.0.1
; #@! TF.FileFunction,NonPlated,1,2,NPTH
FMAT,2
INCH
; #@! TA.AperFunction,NonPlated,NPTH,ComponentDrill
T1C0.0276
%
G90
G05
T1
X2.5787Y-4.228
X2.5925Y-3.5217
X2.6181Y-4.228
X2.6319Y-3.5217
X2.6575Y-4.228
X2.6713Y-3.5217
X2.6969Y-4.228
X2.7106Y-3.5217
X2.7362Y-4.228
X2.75Y-3.5217
X2.7756Y-4.228
X2.7894Y-3.5217
X2.815Y-4.228
X2.8287Y-3.5217
X2.8681Y-3.5217
X2.9075Y-3.5217
X2.9409Y-4.2281
X2.9469Y-3.5217
X2.9803Y-4.2281
X2.9862Y-3.5217
X3.0197Y-4.2281
X3.0591Y-4.2281
X3.0984Y-4.2281
X3.124Y-3.5236
X3.1378Y-4.2281
X3.1634Y-3.5236
X3.1772Y-4.2281
X3.2028Y-3.5236
X3.2421Y-3.5236
X3.2815Y-3.5236
X3.3031Y-4.2281
X3.3209Y-3.5236
X3.3425Y-4.2281
X3.3602Y-3.5236
X3.3819Y-4.2281
X3.3996Y-3.5236
X3.4213Y-4.2281
X3.439Y-3.5236
X3.4606Y-4.2281
X3.4783Y-3.5236
X3.5Y-4.2281
X3.5177Y-3.5236
X3.5394Y-4.2281
X3.6634Y-3.5236
X3.6654Y-4.2283
X3.7028Y-3.5236
X3.7047Y-4.2283
X3.7421Y-3.5236
X3.7441Y-4.2283
X3.7815Y-3.5236
X3.7835Y-4.2283
X3.8209Y-3.5236
X3.8228Y-4.2283
X3.8602Y-3.5236
X3.8622Y-4.2283
X3.8996Y-3.5236
X3.9016Y-4.2283
X3.939Y-3.5236
X3.9783Y-3.5236
X4.0177Y-3.5236
X4.0276Y-4.2283
X4.0571Y-3.5236
X4.0669Y-4.2283
X4.1063Y-4.2283
X4.1457Y-4.2283
X4.185Y-4.2283
X4.2028Y-3.5236
X4.2244Y-4.2283
X4.2421Y-3.5236
X4.2638Y-4.2283
X4.2815Y-3.5236
X4.3209Y-3.5236
X4.3602Y-3.5236
X4.3898Y-4.0315
X4.3996Y-3.5236
X4.4291Y-4.0315
X4.439Y-3.5236
X4.4685Y-4.0315
X4.4783Y-3.5236
X4.5079Y-4.0315
X4.5177Y-3.5236
X4.5472Y-4.0315
X4.5571Y-3.5236
X4.5866Y-4.0315
X4.5965Y-3.5236
X4.626Y-4.0315
X4.7461Y-3.5236
X4.752Y-4.0315
X4.7854Y-3.5236
X4.7913Y-4.0315
X4.8248Y-3.5236
X4.8307Y-4.0315
X4.8642Y-3.5236
X4.8701Y-4.0315
X4.9035Y-3.5236
X4.9094Y-4.0315
X4.9429Y-3.5236
X4.9488Y-4.0315
X4.9823Y-3.5236
X4.9882Y-4.0315
X5.0217Y-3.5236
X5.061Y-3.5236
X5.1004Y-3.5236
X5.1142Y-4.0315
X5.1398Y-3.5236
X5.1535Y-4.0315
X5.1929Y-4.0315
X5.2323Y-4.0315
X5.2717Y-4.0315
X5.2913Y-3.3701
X5.311Y-4.0315
X5.3307Y-3.3701
X5.3504Y-4.0315
X5.3701Y-3.3701
X5.4094Y-3.3701
X5.4488Y-3.3701
X5.4764Y-4.0315
X5.5157Y-4.0315
X5.5551Y-4.0315
X5.5945Y-4.0315
X5.6063Y-3.3701
X5.6339Y-4.0315
X5.6457Y-3.3701
X5.6732Y-4.0315
X5.685Y-3.3701
X5.7126Y-4.0315
X5.7244Y-3.3701
X5.7638Y-3.3701
X5.8386Y-4.0315
X5.878Y-4.0315
X5.9173Y-4.0315
X5.9214Y-3.3702
X5.9567Y-4.0315
X5.9607Y-3.3702
X5.9961Y-4.0315
X6.0001Y-3.3702
X6.0354Y-4.0315
X6.0395Y-3.3702
X6.0748Y-4.0315
X6.0788Y-3.3702
X6.2047Y-4.311
X6.2363Y-3.3702
X6.252Y-4.311
X6.2757Y-3.3702
X6.3151Y-3.3702
X6.3544Y-3.3702
X6.3858Y-4.311
X6.3938Y-3.3702
X6.4331Y-4.311
X6.5513Y-3.3702
X6.5669Y-4.311
X6.5906Y-3.3702
X6.6142Y-4.311
X6.63Y-3.3702
X6.6694Y-3.3702
X6.7088Y-3.3702
X6.748Y-4.311
X6.7953Y-4.311
X6.9291Y-4.311
X6.9764Y-4.311
M30
