%TF.GenerationSoftware,KiCad,Pcbnew,9.0.1*%
%TF.CreationDate,2025-04-16T14:08:05+02:00*%
%TF.ProjectId,cq2-adapt,6371322d-6164-4617-9074-2e6b69636164,rev?*%
%TF.SameCoordinates,Original*%
%TF.FileFunction,Copper,L2,Bot*%
%TF.FilePolarity,Positive*%
%FSLAX46Y46*%
G04 Gerber Fmt 4.6, Leading zero omitted, Abs format (unit mm)*
G04 Created by KiCad (PCBNEW 9.0.1) date 2025-04-16 14:08:05*
%MOMM*%
%LPD*%
G01*
G04 APERTURE LIST*
G04 Aperture macros list*
%AMRoundRect*
0 Rectangle with rounded corners*
0 $1 Rounding radius*
0 $2 $3 $4 $5 $6 $7 $8 $9 X,Y pos of 4 corners*
0 Add a 4 corners polygon primitive as box body*
4,1,4,$2,$3,$4,$5,$6,$7,$8,$9,$2,$3,0*
0 Add four circle primitives for the rounded corners*
1,1,$1+$1,$2,$3*
1,1,$1+$1,$4,$5*
1,1,$1+$1,$6,$7*
1,1,$1+$1,$8,$9*
0 Add four rect primitives between the rounded corners*
20,1,$1+$1,$2,$3,$4,$5,0*
20,1,$1+$1,$4,$5,$6,$7,0*
20,1,$1+$1,$6,$7,$8,$9,0*
20,1,$1+$1,$8,$9,$2,$3,0*%
G04 Aperture macros list end*
%TA.AperFunction,ComponentPad*%
%ADD10C,0.600000*%
%TD*%
%TA.AperFunction,SMDPad,CuDef*%
%ADD11R,1.000000X2.650000*%
%TD*%
%TA.AperFunction,SMDPad,CuDef*%
%ADD12RoundRect,0.150000X-0.875000X-0.150000X0.875000X-0.150000X0.875000X0.150000X-0.875000X0.150000X0*%
%TD*%
%TA.AperFunction,SMDPad,CuDef*%
%ADD13RoundRect,0.075000X-0.350000X0.075000X-0.350000X-0.075000X0.350000X-0.075000X0.350000X0.075000X0*%
%TD*%
%TA.AperFunction,SMDPad,CuDef*%
%ADD14RoundRect,0.075000X-0.075000X-0.350000X0.075000X-0.350000X0.075000X0.350000X-0.075000X0.350000X0*%
%TD*%
%TA.AperFunction,SMDPad,CuDef*%
%ADD15RoundRect,0.075000X-0.075000X-0.300000X0.075000X-0.300000X0.075000X0.300000X-0.075000X0.300000X0*%
%TD*%
%TA.AperFunction,SMDPad,CuDef*%
%ADD16RoundRect,0.075000X-0.300000X0.075000X-0.300000X-0.075000X0.300000X-0.075000X0.300000X0.075000X0*%
%TD*%
%TA.AperFunction,SMDPad,CuDef*%
%ADD17R,2.800000X2.800000*%
%TD*%
%TA.AperFunction,SMDPad,CuDef*%
%ADD18RoundRect,0.170016X-0.864984X-0.159984X0.864984X-0.159984X0.864984X0.159984X-0.864984X0.159984X0*%
%TD*%
%TA.AperFunction,SMDPad,CuDef*%
%ADD19RoundRect,0.062500X-0.187500X-0.062500X0.187500X-0.062500X0.187500X0.062500X-0.187500X0.062500X0*%
%TD*%
%TA.AperFunction,ViaPad*%
%ADD20C,0.600000*%
%TD*%
%TA.AperFunction,ViaPad*%
%ADD21C,0.400000*%
%TD*%
%TA.AperFunction,Conductor*%
%ADD22C,0.120000*%
%TD*%
%TA.AperFunction,Conductor*%
%ADD23C,0.100000*%
%TD*%
G04 APERTURE END LIST*
D10*
%TO.P,UT2,EP,PAD*%
%TO.N,Net-(UB2-GND)*%
X176600000Y-110400000D03*
X176600000Y-111400000D03*
D11*
X176600000Y-111400000D03*
D10*
X176600000Y-112400000D03*
%TD*%
%TO.P,UT2,EP,PAD*%
%TO.N,Net-(UB2-GND)*%
X162800000Y-110400000D03*
X162800000Y-111400000D03*
D11*
X162800000Y-111400000D03*
D10*
X162800000Y-112400000D03*
%TD*%
D12*
%TO.P,UB1,1,VCC*%
%TO.N,Net-(UB1-VCC)*%
X120900000Y-79600000D03*
%TO.P,UB1,2,GND1*%
%TO.N,Net-(UB1-GND1-Pad2)*%
X120900000Y-80870000D03*
%TO.P,UB1,3,INA*%
%TO.N,Net-(UB1-INA)*%
X120900000Y-82140000D03*
%TO.P,UB1,4,INB*%
%TO.N,Net-(UB1-INB)*%
X120900000Y-83410000D03*
%TO.P,UB1,5,INC*%
%TO.N,Net-(UB1-INC)*%
X120900000Y-84680000D03*
%TO.P,UB1,6,OUTD*%
%TO.N,Net-(UB1-OUTD)*%
X120900000Y-85950000D03*
%TO.P,UB1,7,NC*%
%TO.N,Net-(UB1-NC)*%
X120900000Y-87220000D03*
%TO.P,UB1,8,GND1*%
%TO.N,Net-(UB1-GND1-Pad8)*%
X120900000Y-88490000D03*
%TO.P,UB1,9,GND2*%
%TO.N,Net-(UB1-GND2-Pad9)*%
X130200000Y-88490000D03*
%TO.P,UB1,10,SEL*%
%TO.N,unconnected-(UB1-SEL-Pad10)*%
X130200000Y-87220000D03*
%TO.P,UB1,11,IND*%
%TO.N,Net-(UB1-IND)*%
X130200000Y-85950000D03*
%TO.P,UB1,12,OUTC*%
%TO.N,Net-(UB1-OUTC)*%
X130200000Y-84680000D03*
%TO.P,UB1,13,OUTB*%
%TO.N,Net-(UB1-OUTB)*%
X130200000Y-83410000D03*
%TO.P,UB1,14,OUTA*%
%TO.N,Net-(UB1-OUTA)*%
X130200000Y-82140000D03*
%TO.P,UB1,15,GND2*%
%TO.N,Net-(UB1-GND2-Pad15)*%
X130200000Y-80870000D03*
%TO.P,UB1,16,VISO*%
%TO.N,Net-(UB1-VISO)*%
X130200000Y-79600000D03*
%TD*%
D13*
%TO.P,UB3,1,SLOPE*%
%TO.N,Net-(UB3-SLOPE)*%
X157952494Y-80552497D03*
%TO.P,UB3,2,COMP*%
%TO.N,Net-(UB3-COMP)*%
X157952494Y-81052497D03*
%TO.P,UB3,3,REF*%
%TO.N,Net-(UB3-REF)*%
X157952494Y-81552497D03*
%TO.P,UB3,4,RT*%
%TO.N,Net-(UB3-RT)*%
X157952494Y-82052497D03*
%TO.P,UB3,5,AGND*%
%TO.N,Net-(UB3-AGND)*%
X157952494Y-82552497D03*
%TO.P,UB3,6,RD1*%
%TO.N,Net-(UB3-RD1)*%
X157952494Y-83052497D03*
%TO.P,UB3,7,RD2*%
%TO.N,Net-(UB3-RD2)*%
X157952494Y-83552497D03*
D14*
%TO.P,UB3,8,RES*%
%TO.N,Net-(UB3-RES)*%
X158902494Y-84502497D03*
%TO.P,UB3,9,SS*%
%TO.N,Net-(UB3-SS)*%
X159402494Y-84502497D03*
%TO.P,UB3,10,SSSR*%
%TO.N,Net-(UB3-SSSR)*%
X159902494Y-84502497D03*
%TO.P,UB3,11,SS_OFF*%
%TO.N,Net-(UB3-SS_OFF)*%
X160402494Y-84502497D03*
%TO.P,UB3,12,HS2*%
%TO.N,Net-(UB3-HS2)*%
X160902494Y-84502497D03*
%TO.P,UB3,13,HO2*%
%TO.N,Net-(UB3-HO2)*%
X161402494Y-84502497D03*
D15*
%TO.P,UB3,14,BST2*%
%TO.N,Net-(UB3-BST2)*%
X161902494Y-84552497D03*
D16*
%TO.P,UB3,15,SR2*%
%TO.N,Net-(UB3-SR2)*%
X162902494Y-83552497D03*
D13*
%TO.P,UB3,16,LO2*%
%TO.N,Net-(UB3-LO2)*%
X162852494Y-83052497D03*
%TO.P,UB3,17,VCC*%
%TO.N,Net-(UB3-VCC)*%
X162852494Y-82552497D03*
%TO.P,UB3,18,PGND*%
%TO.N,Net-(UB3-PGND)*%
X162852494Y-82052497D03*
%TO.P,UB3,19,LO1*%
%TO.N,Net-(UB3-LO1)*%
X162852494Y-81552497D03*
%TO.P,UB3,20,SR1*%
%TO.N,Net-(UB3-SR1)*%
X162852494Y-81052497D03*
%TO.P,UB3,21,BST1*%
%TO.N,Net-(UB3-BST1)*%
X162852494Y-80552497D03*
D14*
%TO.P,UB3,22,HO1*%
%TO.N,Net-(UB3-HO1)*%
X161902494Y-79602497D03*
%TO.P,UB3,23,HS1*%
%TO.N,Net-(UB3-HS1)*%
X161402494Y-79602497D03*
%TO.P,UB3,24,VIN*%
%TO.N,Net-(UB3-VIN)*%
X160902494Y-79602497D03*
%TO.P,UB3,25,UVLO*%
%TO.N,Net-(UB3-UVLO)*%
X160402494Y-79602497D03*
%TO.P,UB3,26,OVP*%
%TO.N,Net-(UB3-OVP)*%
X159902494Y-79602497D03*
%TO.P,UB3,27,RAMP*%
%TO.N,Net-(UB3-RAMP)*%
X159402494Y-79602497D03*
%TO.P,UB3,28,CS*%
%TO.N,Net-(UB3-CS)*%
X158902494Y-79602497D03*
D10*
%TO.P,UB3,EP,EP*%
%TO.N,Net-(UB3-PadEP)*%
X159752494Y-81402497D03*
X159752494Y-82702497D03*
D17*
X160402494Y-82052497D03*
D10*
X161052494Y-81402497D03*
X161052494Y-82702497D03*
%TD*%
D18*
%TO.P,UTB6,1,RO*%
%TO.N,Net-(UT5-RO)*%
X75275000Y-108490000D03*
%TO.P,UTB6,2,~{RE}*%
%TO.N,unconnected-(UTB6-~{RE}-Pad2)*%
X75275000Y-109760000D03*
%TO.P,UTB6,3,DE*%
%TO.N,Net-(UT5-DE)*%
X75275000Y-111030000D03*
%TO.P,UTB6,4,DI*%
%TO.N,Net-(UT5-DI)*%
X75275000Y-112300000D03*
%TO.P,UTB6,5,GND*%
%TO.N,Net-(UT5-GND)*%
X80125000Y-112300000D03*
%TO.P,UTB6,6,A*%
%TO.N,Net-(UT5-A)*%
X80125000Y-111030000D03*
%TO.P,UTB6,7,B*%
%TO.N,Net-(UT5-B)*%
X80125000Y-109760000D03*
%TO.P,UTB6,8,VCC*%
%TO.N,Net-(UT5-VCC)*%
X80125000Y-108490000D03*
%TD*%
%TO.P,UB4,1,VDD1*%
%TO.N,Net-(UB4-VDD1)*%
X112100000Y-103400000D03*
%TO.P,UB4,2,GND1*%
%TO.N,Net-(UB4-GND1-Pad2)*%
X112100000Y-104670000D03*
%TO.P,UB4,3,A1*%
%TO.N,Net-(UB4-A1)*%
X112100000Y-105940000D03*
%TO.P,UB4,4,A2*%
%TO.N,Net-(UB4-A2)*%
X112100000Y-107210000D03*
%TO.P,UB4,5,A3*%
%TO.N,Net-(UB4-A3)*%
X112100000Y-108480000D03*
%TO.P,UB4,6,A4*%
%TO.N,Net-(UB4-A4)*%
X112100000Y-109750000D03*
%TO.P,UB4,7,EN1*%
%TO.N,Net-(UB4-EN1)*%
X112100000Y-111020000D03*
%TO.P,UB4,8,GND1*%
%TO.N,Net-(UB4-GND1-Pad2)*%
X112100000Y-112290000D03*
%TO.P,UB4,9,GND2*%
%TO.N,Net-(UB4-GND2-Pad15)*%
X116950000Y-112290000D03*
%TO.P,UB4,10,EN2*%
%TO.N,Net-(UB4-EN2)*%
X116950000Y-111020000D03*
%TO.P,UB4,11,B4*%
%TO.N,Net-(UB4-B4)*%
X116950000Y-109750000D03*
%TO.P,UB4,12,B3*%
%TO.N,Net-(UB4-B3)*%
X116950000Y-108480000D03*
%TO.P,UB4,13,B2*%
%TO.N,Net-(UB4-B2)*%
X116950000Y-107210000D03*
%TO.P,UB4,14,B1*%
%TO.N,Net-(UB4-B1)*%
X116950000Y-105940000D03*
%TO.P,UB4,15,GND2*%
%TO.N,Net-(UB4-GND2-Pad15)*%
X116950000Y-104670000D03*
%TO.P,UB4,16,VDD2*%
%TO.N,Net-(UB4-VDD2)*%
X116950000Y-103400000D03*
%TD*%
D10*
%TO.P,UT2,EP,PAD*%
%TO.N,Net-(UB2-GND)*%
X158200000Y-110400000D03*
X158200000Y-111400000D03*
D11*
X158200000Y-111400000D03*
D10*
X158200000Y-112400000D03*
%TD*%
%TO.P,UT3,EP,EP*%
%TO.N,Net-(UB3-PadEP)*%
X151752494Y-81402497D03*
X151752494Y-82702497D03*
X153052494Y-81402497D03*
X153052494Y-82702497D03*
%TD*%
D12*
%TO.P,UB1,1,VCC*%
%TO.N,Net-(UB1-VCC)*%
X93500000Y-79600000D03*
%TO.P,UB1,2,GND1*%
%TO.N,Net-(UB1-GND1-Pad2)*%
X93500000Y-80870000D03*
%TO.P,UB1,3,INA*%
%TO.N,Net-(UB1-INA)*%
X93500000Y-82140000D03*
%TO.P,UB1,4,INB*%
%TO.N,Net-(UB1-INB)*%
X93500000Y-83410000D03*
%TO.P,UB1,5,INC*%
%TO.N,Net-(UB1-INC)*%
X93500000Y-84680000D03*
%TO.P,UB1,6,OUTD*%
%TO.N,Net-(UB1-OUTD)*%
X93500000Y-85950000D03*
%TO.P,UB1,7,NC*%
%TO.N,Net-(UB1-NC)*%
X93500000Y-87220000D03*
%TO.P,UB1,8,GND1*%
%TO.N,Net-(UB1-GND1-Pad8)*%
X93500000Y-88490000D03*
%TO.P,UB1,9,GND2*%
%TO.N,Net-(UB1-GND2-Pad9)*%
X102800000Y-88490000D03*
%TO.P,UB1,10,SEL*%
%TO.N,unconnected-(UB1-SEL-Pad10)*%
X102800000Y-87220000D03*
%TO.P,UB1,11,IND*%
%TO.N,Net-(UB1-IND)*%
X102800000Y-85950000D03*
%TO.P,UB1,12,OUTC*%
%TO.N,Net-(UB1-OUTC)*%
X102800000Y-84680000D03*
%TO.P,UB1,13,OUTB*%
%TO.N,Net-(UB1-OUTB)*%
X102800000Y-83410000D03*
%TO.P,UB1,14,OUTA*%
%TO.N,Net-(UB1-OUTA)*%
X102800000Y-82140000D03*
%TO.P,UB1,15,GND2*%
%TO.N,Net-(UB1-GND2-Pad15)*%
X102800000Y-80870000D03*
%TO.P,UB1,16,VISO*%
%TO.N,Net-(UB1-VISO)*%
X102800000Y-79600000D03*
%TD*%
D19*
%TO.P,UB2,1,PGOOD*%
%TO.N,Net-(UB2-PGOOD)*%
X175650000Y-110150000D03*
%TO.P,UB2,2,FB+*%
%TO.N,Net-(UB2-FB+)*%
X175650000Y-110650000D03*
%TO.P,UB2,3,VIN*%
%TO.N,Net-(UB2-VIN)*%
X175650000Y-111150000D03*
%TO.P,UB2,4,GND*%
%TO.N,Net-(UB2-GND)*%
X175650000Y-111650000D03*
%TO.P,UB2,5,CP*%
%TO.N,Net-(UB2-CP)*%
X175650000Y-112150000D03*
%TO.P,UB2,6,OUT-*%
%TO.N,Net-(UB2-OUT-)*%
X175650000Y-112650000D03*
%TO.P,UB2,7,FB-*%
%TO.N,Net-(UB2-FB-)*%
X177550000Y-112650000D03*
%TO.P,UB2,8,EN-*%
%TO.N,unconnected-(UB2-EN--Pad8)*%
X177550000Y-112150000D03*
%TO.P,UB2,9,C-*%
%TO.N,Net-(UB2-C-)*%
X177550000Y-111650000D03*
%TO.P,UB2,10,C+*%
%TO.N,Net-(UB2-C+)*%
X177550000Y-111150000D03*
%TO.P,UB2,11,OUT+*%
%TO.N,Net-(UB2-OUT+)*%
X177550000Y-110650000D03*
%TO.P,UB2,12,EN+*%
%TO.N,Net-(UB2-EN+)*%
X177550000Y-110150000D03*
D10*
%TO.P,UB2,EP,PAD*%
%TO.N,Net-(UB2-GND)*%
X176600000Y-110400000D03*
X176600000Y-111400000D03*
D11*
X176600000Y-111400000D03*
D10*
X176600000Y-112400000D03*
%TD*%
%TO.P,UT3,EP,EP*%
%TO.N,Net-(UB3-PadEP)*%
X143750000Y-81400000D03*
X143750000Y-82700000D03*
X145050000Y-81400000D03*
X145050000Y-82700000D03*
%TD*%
D19*
%TO.P,UB2,1,PGOOD*%
%TO.N,Net-(UB2-PGOOD)*%
X166450000Y-110150000D03*
%TO.P,UB2,2,FB+*%
%TO.N,Net-(UB2-FB+)*%
X166450000Y-110650000D03*
%TO.P,UB2,3,VIN*%
%TO.N,Net-(UB2-VIN)*%
X166450000Y-111150000D03*
%TO.P,UB2,4,GND*%
%TO.N,Net-(UB2-GND)*%
X166450000Y-111650000D03*
%TO.P,UB2,5,CP*%
%TO.N,Net-(UB2-CP)*%
X166450000Y-112150000D03*
%TO.P,UB2,6,OUT-*%
%TO.N,Net-(UB2-OUT-)*%
X166450000Y-112650000D03*
%TO.P,UB2,7,FB-*%
%TO.N,Net-(UB2-FB-)*%
X168350000Y-112650000D03*
%TO.P,UB2,8,EN-*%
%TO.N,unconnected-(UB2-EN--Pad8)*%
X168350000Y-112150000D03*
%TO.P,UB2,9,C-*%
%TO.N,Net-(UB2-C-)*%
X168350000Y-111650000D03*
%TO.P,UB2,10,C+*%
%TO.N,Net-(UB2-C+)*%
X168350000Y-111150000D03*
%TO.P,UB2,11,OUT+*%
%TO.N,Net-(UB2-OUT+)*%
X168350000Y-110650000D03*
%TO.P,UB2,12,EN+*%
%TO.N,Net-(UB2-EN+)*%
X168350000Y-110150000D03*
D10*
%TO.P,UB2,EP,PAD*%
%TO.N,Net-(UB2-GND)*%
X167400000Y-110400000D03*
X167400000Y-111400000D03*
D11*
X167400000Y-111400000D03*
D10*
X167400000Y-112400000D03*
%TD*%
D12*
%TO.P,UB1,1,VCC*%
%TO.N,Net-(UB1-VCC)*%
X107200000Y-79600000D03*
%TO.P,UB1,2,GND1*%
%TO.N,Net-(UB1-GND1-Pad2)*%
X107200000Y-80870000D03*
%TO.P,UB1,3,INA*%
%TO.N,Net-(UB1-INA)*%
X107200000Y-82140000D03*
%TO.P,UB1,4,INB*%
%TO.N,Net-(UB1-INB)*%
X107200000Y-83410000D03*
%TO.P,UB1,5,INC*%
%TO.N,Net-(UB1-INC)*%
X107200000Y-84680000D03*
%TO.P,UB1,6,OUTD*%
%TO.N,Net-(UB1-OUTD)*%
X107200000Y-85950000D03*
%TO.P,UB1,7,NC*%
%TO.N,Net-(UB1-NC)*%
X107200000Y-87220000D03*
%TO.P,UB1,8,GND1*%
%TO.N,Net-(UB1-GND1-Pad8)*%
X107200000Y-88490000D03*
%TO.P,UB1,9,GND2*%
%TO.N,Net-(UB1-GND2-Pad9)*%
X116500000Y-88490000D03*
%TO.P,UB1,10,SEL*%
%TO.N,unconnected-(UB1-SEL-Pad10)*%
X116500000Y-87220000D03*
%TO.P,UB1,11,IND*%
%TO.N,Net-(UB1-IND)*%
X116500000Y-85950000D03*
%TO.P,UB1,12,OUTC*%
%TO.N,Net-(UB1-OUTC)*%
X116500000Y-84680000D03*
%TO.P,UB1,13,OUTB*%
%TO.N,Net-(UB1-OUTB)*%
X116500000Y-83410000D03*
%TO.P,UB1,14,OUTA*%
%TO.N,Net-(UB1-OUTA)*%
X116500000Y-82140000D03*
%TO.P,UB1,15,GND2*%
%TO.N,Net-(UB1-GND2-Pad15)*%
X116500000Y-80870000D03*
%TO.P,UB1,16,VISO*%
%TO.N,Net-(UB1-VISO)*%
X116500000Y-79600000D03*
%TD*%
D19*
%TO.P,UB2,1,PGOOD*%
%TO.N,Net-(UB2-PGOOD)*%
X157250000Y-110150000D03*
%TO.P,UB2,2,FB+*%
%TO.N,Net-(UB2-FB+)*%
X157250000Y-110650000D03*
%TO.P,UB2,3,VIN*%
%TO.N,Net-(UB2-VIN)*%
X157250000Y-111150000D03*
%TO.P,UB2,4,GND*%
%TO.N,Net-(UB2-GND)*%
X157250000Y-111650000D03*
%TO.P,UB2,5,CP*%
%TO.N,Net-(UB2-CP)*%
X157250000Y-112150000D03*
%TO.P,UB2,6,OUT-*%
%TO.N,Net-(UB2-OUT-)*%
X157250000Y-112650000D03*
%TO.P,UB2,7,FB-*%
%TO.N,Net-(UB2-FB-)*%
X159150000Y-112650000D03*
%TO.P,UB2,8,EN-*%
%TO.N,unconnected-(UB2-EN--Pad8)*%
X159150000Y-112150000D03*
%TO.P,UB2,9,C-*%
%TO.N,Net-(UB2-C-)*%
X159150000Y-111650000D03*
%TO.P,UB2,10,C+*%
%TO.N,Net-(UB2-C+)*%
X159150000Y-111150000D03*
%TO.P,UB2,11,OUT+*%
%TO.N,Net-(UB2-OUT+)*%
X159150000Y-110650000D03*
%TO.P,UB2,12,EN+*%
%TO.N,Net-(UB2-EN+)*%
X159150000Y-110150000D03*
D10*
%TO.P,UB2,EP,PAD*%
%TO.N,Net-(UB2-GND)*%
X158200000Y-110400000D03*
X158200000Y-111400000D03*
D11*
X158200000Y-111400000D03*
D10*
X158200000Y-112400000D03*
%TD*%
D12*
%TO.P,UB1,1,VCC*%
%TO.N,Net-(UB1-VCC)*%
X66100000Y-79600000D03*
%TO.P,UB1,2,GND1*%
%TO.N,Net-(UB1-GND1-Pad2)*%
X66100000Y-80870000D03*
%TO.P,UB1,3,INA*%
%TO.N,Net-(UB1-INA)*%
X66100000Y-82140000D03*
%TO.P,UB1,4,INB*%
%TO.N,Net-(UB1-INB)*%
X66100000Y-83410000D03*
%TO.P,UB1,5,INC*%
%TO.N,Net-(UB1-INC)*%
X66100000Y-84680000D03*
%TO.P,UB1,6,OUTD*%
%TO.N,Net-(UB1-OUTD)*%
X66100000Y-85950000D03*
%TO.P,UB1,7,NC*%
%TO.N,Net-(UB1-NC)*%
X66100000Y-87220000D03*
%TO.P,UB1,8,GND1*%
%TO.N,Net-(UB1-GND1-Pad8)*%
X66100000Y-88490000D03*
%TO.P,UB1,9,GND2*%
%TO.N,Net-(UB1-GND2-Pad9)*%
X75400000Y-88490000D03*
%TO.P,UB1,10,SEL*%
%TO.N,unconnected-(UB1-SEL-Pad10)*%
X75400000Y-87220000D03*
%TO.P,UB1,11,IND*%
%TO.N,Net-(UB1-IND)*%
X75400000Y-85950000D03*
%TO.P,UB1,12,OUTC*%
%TO.N,Net-(UB1-OUTC)*%
X75400000Y-84680000D03*
%TO.P,UB1,13,OUTB*%
%TO.N,Net-(UB1-OUTB)*%
X75400000Y-83410000D03*
%TO.P,UB1,14,OUTA*%
%TO.N,Net-(UB1-OUTA)*%
X75400000Y-82140000D03*
%TO.P,UB1,15,GND2*%
%TO.N,Net-(UB1-GND2-Pad15)*%
X75400000Y-80870000D03*
%TO.P,UB1,16,VISO*%
%TO.N,Net-(UB1-VISO)*%
X75400000Y-79600000D03*
%TD*%
D18*
%TO.P,UTB6,1,RO*%
%TO.N,Net-(UT5-RO)*%
X93675000Y-108495000D03*
%TO.P,UTB6,2,~{RE}*%
%TO.N,unconnected-(UTB6-~{RE}-Pad2)*%
X93675000Y-109765000D03*
%TO.P,UTB6,3,DE*%
%TO.N,Net-(UT5-DE)*%
X93675000Y-111035000D03*
%TO.P,UTB6,4,DI*%
%TO.N,Net-(UT5-DI)*%
X93675000Y-112305000D03*
%TO.P,UTB6,5,GND*%
%TO.N,Net-(UT5-GND)*%
X98525000Y-112305000D03*
%TO.P,UTB6,6,A*%
%TO.N,Net-(UT5-A)*%
X98525000Y-111035000D03*
%TO.P,UTB6,7,B*%
%TO.N,Net-(UT5-B)*%
X98525000Y-109765000D03*
%TO.P,UTB6,8,VCC*%
%TO.N,Net-(UT5-VCC)*%
X98525000Y-108495000D03*
%TD*%
%TO.P,UB4,1,VDD1*%
%TO.N,Net-(UB4-VDD1)*%
X139700000Y-103400000D03*
%TO.P,UB4,2,GND1*%
%TO.N,Net-(UB4-GND1-Pad2)*%
X139700000Y-104670000D03*
%TO.P,UB4,3,A1*%
%TO.N,Net-(UB4-A1)*%
X139700000Y-105940000D03*
%TO.P,UB4,4,A2*%
%TO.N,Net-(UB4-A2)*%
X139700000Y-107210000D03*
%TO.P,UB4,5,A3*%
%TO.N,Net-(UB4-A3)*%
X139700000Y-108480000D03*
%TO.P,UB4,6,A4*%
%TO.N,Net-(UB4-A4)*%
X139700000Y-109750000D03*
%TO.P,UB4,7,EN1*%
%TO.N,Net-(UB4-EN1)*%
X139700000Y-111020000D03*
%TO.P,UB4,8,GND1*%
%TO.N,Net-(UB4-GND1-Pad2)*%
X139700000Y-112290000D03*
%TO.P,UB4,9,GND2*%
%TO.N,Net-(UB4-GND2-Pad15)*%
X144550000Y-112290000D03*
%TO.P,UB4,10,EN2*%
%TO.N,Net-(UB4-EN2)*%
X144550000Y-111020000D03*
%TO.P,UB4,11,B4*%
%TO.N,Net-(UB4-B4)*%
X144550000Y-109750000D03*
%TO.P,UB4,12,B3*%
%TO.N,Net-(UB4-B3)*%
X144550000Y-108480000D03*
%TO.P,UB4,13,B2*%
%TO.N,Net-(UB4-B2)*%
X144550000Y-107210000D03*
%TO.P,UB4,14,B1*%
%TO.N,Net-(UB4-B1)*%
X144550000Y-105940000D03*
%TO.P,UB4,15,GND2*%
%TO.N,Net-(UB4-GND2-Pad15)*%
X144550000Y-104670000D03*
%TO.P,UB4,16,VDD2*%
%TO.N,Net-(UB4-VDD2)*%
X144550000Y-103400000D03*
%TD*%
D13*
%TO.P,UB3,1,SLOPE*%
%TO.N,Net-(UB3-SLOPE)*%
X165952494Y-80552497D03*
%TO.P,UB3,2,COMP*%
%TO.N,Net-(UB3-COMP)*%
X165952494Y-81052497D03*
%TO.P,UB3,3,REF*%
%TO.N,Net-(UB3-REF)*%
X165952494Y-81552497D03*
%TO.P,UB3,4,RT*%
%TO.N,Net-(UB3-RT)*%
X165952494Y-82052497D03*
%TO.P,UB3,5,AGND*%
%TO.N,Net-(UB3-AGND)*%
X165952494Y-82552497D03*
%TO.P,UB3,6,RD1*%
%TO.N,Net-(UB3-RD1)*%
X165952494Y-83052497D03*
%TO.P,UB3,7,RD2*%
%TO.N,Net-(UB3-RD2)*%
X165952494Y-83552497D03*
D14*
%TO.P,UB3,8,RES*%
%TO.N,Net-(UB3-RES)*%
X166902494Y-84502497D03*
%TO.P,UB3,9,SS*%
%TO.N,Net-(UB3-SS)*%
X167402494Y-84502497D03*
%TO.P,UB3,10,SSSR*%
%TO.N,Net-(UB3-SSSR)*%
X167902494Y-84502497D03*
%TO.P,UB3,11,SS_OFF*%
%TO.N,Net-(UB3-SS_OFF)*%
X168402494Y-84502497D03*
%TO.P,UB3,12,HS2*%
%TO.N,Net-(UB3-HS2)*%
X168902494Y-84502497D03*
%TO.P,UB3,13,HO2*%
%TO.N,Net-(UB3-HO2)*%
X169402494Y-84502497D03*
D15*
%TO.P,UB3,14,BST2*%
%TO.N,Net-(UB3-BST2)*%
X169902494Y-84552497D03*
D16*
%TO.P,UB3,15,SR2*%
%TO.N,Net-(UB3-SR2)*%
X170902494Y-83552497D03*
D13*
%TO.P,UB3,16,LO2*%
%TO.N,Net-(UB3-LO2)*%
X170852494Y-83052497D03*
%TO.P,UB3,17,VCC*%
%TO.N,Net-(UB3-VCC)*%
X170852494Y-82552497D03*
%TO.P,UB3,18,PGND*%
%TO.N,Net-(UB3-PGND)*%
X170852494Y-82052497D03*
%TO.P,UB3,19,LO1*%
%TO.N,Net-(UB3-LO1)*%
X170852494Y-81552497D03*
%TO.P,UB3,20,SR1*%
%TO.N,Net-(UB3-SR1)*%
X170852494Y-81052497D03*
%TO.P,UB3,21,BST1*%
%TO.N,Net-(UB3-BST1)*%
X170852494Y-80552497D03*
D14*
%TO.P,UB3,22,HO1*%
%TO.N,Net-(UB3-HO1)*%
X169902494Y-79602497D03*
%TO.P,UB3,23,HS1*%
%TO.N,Net-(UB3-HS1)*%
X169402494Y-79602497D03*
%TO.P,UB3,24,VIN*%
%TO.N,Net-(UB3-VIN)*%
X168902494Y-79602497D03*
%TO.P,UB3,25,UVLO*%
%TO.N,Net-(UB3-UVLO)*%
X168402494Y-79602497D03*
%TO.P,UB3,26,OVP*%
%TO.N,Net-(UB3-OVP)*%
X167902494Y-79602497D03*
%TO.P,UB3,27,RAMP*%
%TO.N,Net-(UB3-RAMP)*%
X167402494Y-79602497D03*
%TO.P,UB3,28,CS*%
%TO.N,Net-(UB3-CS)*%
X166902494Y-79602497D03*
D10*
%TO.P,UB3,EP,EP*%
%TO.N,Net-(UB3-PadEP)*%
X167752494Y-81402497D03*
X167752494Y-82702497D03*
D17*
X168402494Y-82052497D03*
D10*
X169052494Y-81402497D03*
X169052494Y-82702497D03*
%TD*%
D18*
%TO.P,UB4,1,VDD1*%
%TO.N,Net-(UB4-VDD1)*%
X148900000Y-103400000D03*
%TO.P,UB4,2,GND1*%
%TO.N,Net-(UB4-GND1-Pad2)*%
X148900000Y-104670000D03*
%TO.P,UB4,3,A1*%
%TO.N,Net-(UB4-A1)*%
X148900000Y-105940000D03*
%TO.P,UB4,4,A2*%
%TO.N,Net-(UB4-A2)*%
X148900000Y-107210000D03*
%TO.P,UB4,5,A3*%
%TO.N,Net-(UB4-A3)*%
X148900000Y-108480000D03*
%TO.P,UB4,6,A4*%
%TO.N,Net-(UB4-A4)*%
X148900000Y-109750000D03*
%TO.P,UB4,7,EN1*%
%TO.N,Net-(UB4-EN1)*%
X148900000Y-111020000D03*
%TO.P,UB4,8,GND1*%
%TO.N,Net-(UB4-GND1-Pad2)*%
X148900000Y-112290000D03*
%TO.P,UB4,9,GND2*%
%TO.N,Net-(UB4-GND2-Pad15)*%
X153750000Y-112290000D03*
%TO.P,UB4,10,EN2*%
%TO.N,Net-(UB4-EN2)*%
X153750000Y-111020000D03*
%TO.P,UB4,11,B4*%
%TO.N,Net-(UB4-B4)*%
X153750000Y-109750000D03*
%TO.P,UB4,12,B3*%
%TO.N,Net-(UB4-B3)*%
X153750000Y-108480000D03*
%TO.P,UB4,13,B2*%
%TO.N,Net-(UB4-B2)*%
X153750000Y-107210000D03*
%TO.P,UB4,14,B1*%
%TO.N,Net-(UB4-B1)*%
X153750000Y-105940000D03*
%TO.P,UB4,15,GND2*%
%TO.N,Net-(UB4-GND2-Pad15)*%
X153750000Y-104670000D03*
%TO.P,UB4,16,VDD2*%
%TO.N,Net-(UB4-VDD2)*%
X153750000Y-103400000D03*
%TD*%
D13*
%TO.P,UB3,1,SLOPE*%
%TO.N,Net-(UB3-SLOPE)*%
X141950000Y-80550000D03*
%TO.P,UB3,2,COMP*%
%TO.N,Net-(UB3-COMP)*%
X141950000Y-81050000D03*
%TO.P,UB3,3,REF*%
%TO.N,Net-(UB3-REF)*%
X141950000Y-81550000D03*
%TO.P,UB3,4,RT*%
%TO.N,Net-(UB3-RT)*%
X141950000Y-82050000D03*
%TO.P,UB3,5,AGND*%
%TO.N,Net-(UB3-AGND)*%
X141950000Y-82550000D03*
%TO.P,UB3,6,RD1*%
%TO.N,Net-(UB3-RD1)*%
X141950000Y-83050000D03*
%TO.P,UB3,7,RD2*%
%TO.N,Net-(UB3-RD2)*%
X141950000Y-83550000D03*
D14*
%TO.P,UB3,8,RES*%
%TO.N,Net-(UB3-RES)*%
X142900000Y-84500000D03*
%TO.P,UB3,9,SS*%
%TO.N,Net-(UB3-SS)*%
X143400000Y-84500000D03*
%TO.P,UB3,10,SSSR*%
%TO.N,Net-(UB3-SSSR)*%
X143900000Y-84500000D03*
%TO.P,UB3,11,SS_OFF*%
%TO.N,Net-(UB3-SS_OFF)*%
X144400000Y-84500000D03*
%TO.P,UB3,12,HS2*%
%TO.N,Net-(UB3-HS2)*%
X144900000Y-84500000D03*
%TO.P,UB3,13,HO2*%
%TO.N,Net-(UB3-HO2)*%
X145400000Y-84500000D03*
D15*
%TO.P,UB3,14,BST2*%
%TO.N,Net-(UB3-BST2)*%
X145900000Y-84550000D03*
D16*
%TO.P,UB3,15,SR2*%
%TO.N,Net-(UB3-SR2)*%
X146900000Y-83550000D03*
D13*
%TO.P,UB3,16,LO2*%
%TO.N,Net-(UB3-LO2)*%
X146850000Y-83050000D03*
%TO.P,UB3,17,VCC*%
%TO.N,Net-(UB3-VCC)*%
X146850000Y-82550000D03*
%TO.P,UB3,18,PGND*%
%TO.N,Net-(UB3-PGND)*%
X146850000Y-82050000D03*
%TO.P,UB3,19,LO1*%
%TO.N,Net-(UB3-LO1)*%
X146850000Y-81550000D03*
%TO.P,UB3,20,SR1*%
%TO.N,Net-(UB3-SR1)*%
X146850000Y-81050000D03*
%TO.P,UB3,21,BST1*%
%TO.N,Net-(UB3-BST1)*%
X146850000Y-80550000D03*
D14*
%TO.P,UB3,22,HO1*%
%TO.N,Net-(UB3-HO1)*%
X145900000Y-79600000D03*
%TO.P,UB3,23,HS1*%
%TO.N,Net-(UB3-HS1)*%
X145400000Y-79600000D03*
%TO.P,UB3,24,VIN*%
%TO.N,Net-(UB3-VIN)*%
X144900000Y-79600000D03*
%TO.P,UB3,25,UVLO*%
%TO.N,Net-(UB3-UVLO)*%
X144400000Y-79600000D03*
%TO.P,UB3,26,OVP*%
%TO.N,Net-(UB3-OVP)*%
X143900000Y-79600000D03*
%TO.P,UB3,27,RAMP*%
%TO.N,Net-(UB3-RAMP)*%
X143400000Y-79600000D03*
%TO.P,UB3,28,CS*%
%TO.N,Net-(UB3-CS)*%
X142900000Y-79600000D03*
D10*
%TO.P,UB3,EP,EP*%
%TO.N,Net-(UB3-PadEP)*%
X143750000Y-81400000D03*
X143750000Y-82700000D03*
D17*
X144400000Y-82050000D03*
D10*
X145050000Y-81400000D03*
X145050000Y-82700000D03*
%TD*%
%TO.P,UT3,EP,EP*%
%TO.N,Net-(UB3-PadEP)*%
X135750000Y-81400000D03*
X135750000Y-82700000D03*
X137050000Y-81400000D03*
X137050000Y-82700000D03*
%TD*%
%TO.P,UT3,EP,EP*%
%TO.N,Net-(UB3-PadEP)*%
X159752494Y-81402497D03*
X159752494Y-82702497D03*
X161052494Y-81402497D03*
X161052494Y-82702497D03*
%TD*%
D18*
%TO.P,UB4,1,VDD1*%
%TO.N,Net-(UB4-VDD1)*%
X130500000Y-103400000D03*
%TO.P,UB4,2,GND1*%
%TO.N,Net-(UB4-GND1-Pad2)*%
X130500000Y-104670000D03*
%TO.P,UB4,3,A1*%
%TO.N,Net-(UB4-A1)*%
X130500000Y-105940000D03*
%TO.P,UB4,4,A2*%
%TO.N,Net-(UB4-A2)*%
X130500000Y-107210000D03*
%TO.P,UB4,5,A3*%
%TO.N,Net-(UB4-A3)*%
X130500000Y-108480000D03*
%TO.P,UB4,6,A4*%
%TO.N,Net-(UB4-A4)*%
X130500000Y-109750000D03*
%TO.P,UB4,7,EN1*%
%TO.N,Net-(UB4-EN1)*%
X130500000Y-111020000D03*
%TO.P,UB4,8,GND1*%
%TO.N,Net-(UB4-GND1-Pad2)*%
X130500000Y-112290000D03*
%TO.P,UB4,9,GND2*%
%TO.N,Net-(UB4-GND2-Pad15)*%
X135350000Y-112290000D03*
%TO.P,UB4,10,EN2*%
%TO.N,Net-(UB4-EN2)*%
X135350000Y-111020000D03*
%TO.P,UB4,11,B4*%
%TO.N,Net-(UB4-B4)*%
X135350000Y-109750000D03*
%TO.P,UB4,12,B3*%
%TO.N,Net-(UB4-B3)*%
X135350000Y-108480000D03*
%TO.P,UB4,13,B2*%
%TO.N,Net-(UB4-B2)*%
X135350000Y-107210000D03*
%TO.P,UB4,14,B1*%
%TO.N,Net-(UB4-B1)*%
X135350000Y-105940000D03*
%TO.P,UB4,15,GND2*%
%TO.N,Net-(UB4-GND2-Pad15)*%
X135350000Y-104670000D03*
%TO.P,UB4,16,VDD2*%
%TO.N,Net-(UB4-VDD2)*%
X135350000Y-103400000D03*
%TD*%
%TO.P,UB4,1,VDD1*%
%TO.N,Net-(UB4-VDD1)*%
X121300000Y-103400000D03*
%TO.P,UB4,2,GND1*%
%TO.N,Net-(UB4-GND1-Pad2)*%
X121300000Y-104670000D03*
%TO.P,UB4,3,A1*%
%TO.N,Net-(UB4-A1)*%
X121300000Y-105940000D03*
%TO.P,UB4,4,A2*%
%TO.N,Net-(UB4-A2)*%
X121300000Y-107210000D03*
%TO.P,UB4,5,A3*%
%TO.N,Net-(UB4-A3)*%
X121300000Y-108480000D03*
%TO.P,UB4,6,A4*%
%TO.N,Net-(UB4-A4)*%
X121300000Y-109750000D03*
%TO.P,UB4,7,EN1*%
%TO.N,Net-(UB4-EN1)*%
X121300000Y-111020000D03*
%TO.P,UB4,8,GND1*%
%TO.N,Net-(UB4-GND1-Pad2)*%
X121300000Y-112290000D03*
%TO.P,UB4,9,GND2*%
%TO.N,Net-(UB4-GND2-Pad15)*%
X126150000Y-112290000D03*
%TO.P,UB4,10,EN2*%
%TO.N,Net-(UB4-EN2)*%
X126150000Y-111020000D03*
%TO.P,UB4,11,B4*%
%TO.N,Net-(UB4-B4)*%
X126150000Y-109750000D03*
%TO.P,UB4,12,B3*%
%TO.N,Net-(UB4-B3)*%
X126150000Y-108480000D03*
%TO.P,UB4,13,B2*%
%TO.N,Net-(UB4-B2)*%
X126150000Y-107210000D03*
%TO.P,UB4,14,B1*%
%TO.N,Net-(UB4-B1)*%
X126150000Y-105940000D03*
%TO.P,UB4,15,GND2*%
%TO.N,Net-(UB4-GND2-Pad15)*%
X126150000Y-104670000D03*
%TO.P,UB4,16,VDD2*%
%TO.N,Net-(UB4-VDD2)*%
X126150000Y-103400000D03*
%TD*%
D13*
%TO.P,UB3,1,SLOPE*%
%TO.N,Net-(UB3-SLOPE)*%
X133950000Y-80550000D03*
%TO.P,UB3,2,COMP*%
%TO.N,Net-(UB3-COMP)*%
X133950000Y-81050000D03*
%TO.P,UB3,3,REF*%
%TO.N,Net-(UB3-REF)*%
X133950000Y-81550000D03*
%TO.P,UB3,4,RT*%
%TO.N,Net-(UB3-RT)*%
X133950000Y-82050000D03*
%TO.P,UB3,5,AGND*%
%TO.N,Net-(UB3-AGND)*%
X133950000Y-82550000D03*
%TO.P,UB3,6,RD1*%
%TO.N,Net-(UB3-RD1)*%
X133950000Y-83050000D03*
%TO.P,UB3,7,RD2*%
%TO.N,Net-(UB3-RD2)*%
X133950000Y-83550000D03*
D14*
%TO.P,UB3,8,RES*%
%TO.N,Net-(UB3-RES)*%
X134900000Y-84500000D03*
%TO.P,UB3,9,SS*%
%TO.N,Net-(UB3-SS)*%
X135400000Y-84500000D03*
%TO.P,UB3,10,SSSR*%
%TO.N,Net-(UB3-SSSR)*%
X135900000Y-84500000D03*
%TO.P,UB3,11,SS_OFF*%
%TO.N,Net-(UB3-SS_OFF)*%
X136400000Y-84500000D03*
%TO.P,UB3,12,HS2*%
%TO.N,Net-(UB3-HS2)*%
X136900000Y-84500000D03*
%TO.P,UB3,13,HO2*%
%TO.N,Net-(UB3-HO2)*%
X137400000Y-84500000D03*
D15*
%TO.P,UB3,14,BST2*%
%TO.N,Net-(UB3-BST2)*%
X137900000Y-84550000D03*
D16*
%TO.P,UB3,15,SR2*%
%TO.N,Net-(UB3-SR2)*%
X138900000Y-83550000D03*
D13*
%TO.P,UB3,16,LO2*%
%TO.N,Net-(UB3-LO2)*%
X138850000Y-83050000D03*
%TO.P,UB3,17,VCC*%
%TO.N,Net-(UB3-VCC)*%
X138850000Y-82550000D03*
%TO.P,UB3,18,PGND*%
%TO.N,Net-(UB3-PGND)*%
X138850000Y-82050000D03*
%TO.P,UB3,19,LO1*%
%TO.N,Net-(UB3-LO1)*%
X138850000Y-81550000D03*
%TO.P,UB3,20,SR1*%
%TO.N,Net-(UB3-SR1)*%
X138850000Y-81050000D03*
%TO.P,UB3,21,BST1*%
%TO.N,Net-(UB3-BST1)*%
X138850000Y-80550000D03*
D14*
%TO.P,UB3,22,HO1*%
%TO.N,Net-(UB3-HO1)*%
X137900000Y-79600000D03*
%TO.P,UB3,23,HS1*%
%TO.N,Net-(UB3-HS1)*%
X137400000Y-79600000D03*
%TO.P,UB3,24,VIN*%
%TO.N,Net-(UB3-VIN)*%
X136900000Y-79600000D03*
%TO.P,UB3,25,UVLO*%
%TO.N,Net-(UB3-UVLO)*%
X136400000Y-79600000D03*
%TO.P,UB3,26,OVP*%
%TO.N,Net-(UB3-OVP)*%
X135900000Y-79600000D03*
%TO.P,UB3,27,RAMP*%
%TO.N,Net-(UB3-RAMP)*%
X135400000Y-79600000D03*
%TO.P,UB3,28,CS*%
%TO.N,Net-(UB3-CS)*%
X134900000Y-79600000D03*
D10*
%TO.P,UB3,EP,EP*%
%TO.N,Net-(UB3-PadEP)*%
X135750000Y-81400000D03*
X135750000Y-82700000D03*
D17*
X136400000Y-82050000D03*
D10*
X137050000Y-81400000D03*
X137050000Y-82700000D03*
%TD*%
D12*
%TO.P,UB1,1,VCC*%
%TO.N,Net-(UB1-VCC)*%
X79800000Y-79600000D03*
%TO.P,UB1,2,GND1*%
%TO.N,Net-(UB1-GND1-Pad2)*%
X79800000Y-80870000D03*
%TO.P,UB1,3,INA*%
%TO.N,Net-(UB1-INA)*%
X79800000Y-82140000D03*
%TO.P,UB1,4,INB*%
%TO.N,Net-(UB1-INB)*%
X79800000Y-83410000D03*
%TO.P,UB1,5,INC*%
%TO.N,Net-(UB1-INC)*%
X79800000Y-84680000D03*
%TO.P,UB1,6,OUTD*%
%TO.N,Net-(UB1-OUTD)*%
X79800000Y-85950000D03*
%TO.P,UB1,7,NC*%
%TO.N,Net-(UB1-NC)*%
X79800000Y-87220000D03*
%TO.P,UB1,8,GND1*%
%TO.N,Net-(UB1-GND1-Pad8)*%
X79800000Y-88490000D03*
%TO.P,UB1,9,GND2*%
%TO.N,Net-(UB1-GND2-Pad9)*%
X89100000Y-88490000D03*
%TO.P,UB1,10,SEL*%
%TO.N,unconnected-(UB1-SEL-Pad10)*%
X89100000Y-87220000D03*
%TO.P,UB1,11,IND*%
%TO.N,Net-(UB1-IND)*%
X89100000Y-85950000D03*
%TO.P,UB1,12,OUTC*%
%TO.N,Net-(UB1-OUTC)*%
X89100000Y-84680000D03*
%TO.P,UB1,13,OUTB*%
%TO.N,Net-(UB1-OUTB)*%
X89100000Y-83410000D03*
%TO.P,UB1,14,OUTA*%
%TO.N,Net-(UB1-OUTA)*%
X89100000Y-82140000D03*
%TO.P,UB1,15,GND2*%
%TO.N,Net-(UB1-GND2-Pad15)*%
X89100000Y-80870000D03*
%TO.P,UB1,16,VISO*%
%TO.N,Net-(UB1-VISO)*%
X89100000Y-79600000D03*
%TD*%
D13*
%TO.P,UB3,1,SLOPE*%
%TO.N,Net-(UB3-SLOPE)*%
X149952494Y-80552497D03*
%TO.P,UB3,2,COMP*%
%TO.N,Net-(UB3-COMP)*%
X149952494Y-81052497D03*
%TO.P,UB3,3,REF*%
%TO.N,Net-(UB3-REF)*%
X149952494Y-81552497D03*
%TO.P,UB3,4,RT*%
%TO.N,Net-(UB3-RT)*%
X149952494Y-82052497D03*
%TO.P,UB3,5,AGND*%
%TO.N,Net-(UB3-AGND)*%
X149952494Y-82552497D03*
%TO.P,UB3,6,RD1*%
%TO.N,Net-(UB3-RD1)*%
X149952494Y-83052497D03*
%TO.P,UB3,7,RD2*%
%TO.N,Net-(UB3-RD2)*%
X149952494Y-83552497D03*
D14*
%TO.P,UB3,8,RES*%
%TO.N,Net-(UB3-RES)*%
X150902494Y-84502497D03*
%TO.P,UB3,9,SS*%
%TO.N,Net-(UB3-SS)*%
X151402494Y-84502497D03*
%TO.P,UB3,10,SSSR*%
%TO.N,Net-(UB3-SSSR)*%
X151902494Y-84502497D03*
%TO.P,UB3,11,SS_OFF*%
%TO.N,Net-(UB3-SS_OFF)*%
X152402494Y-84502497D03*
%TO.P,UB3,12,HS2*%
%TO.N,Net-(UB3-HS2)*%
X152902494Y-84502497D03*
%TO.P,UB3,13,HO2*%
%TO.N,Net-(UB3-HO2)*%
X153402494Y-84502497D03*
D15*
%TO.P,UB3,14,BST2*%
%TO.N,Net-(UB3-BST2)*%
X153902494Y-84552497D03*
D16*
%TO.P,UB3,15,SR2*%
%TO.N,Net-(UB3-SR2)*%
X154902494Y-83552497D03*
D13*
%TO.P,UB3,16,LO2*%
%TO.N,Net-(UB3-LO2)*%
X154852494Y-83052497D03*
%TO.P,UB3,17,VCC*%
%TO.N,Net-(UB3-VCC)*%
X154852494Y-82552497D03*
%TO.P,UB3,18,PGND*%
%TO.N,Net-(UB3-PGND)*%
X154852494Y-82052497D03*
%TO.P,UB3,19,LO1*%
%TO.N,Net-(UB3-LO1)*%
X154852494Y-81552497D03*
%TO.P,UB3,20,SR1*%
%TO.N,Net-(UB3-SR1)*%
X154852494Y-81052497D03*
%TO.P,UB3,21,BST1*%
%TO.N,Net-(UB3-BST1)*%
X154852494Y-80552497D03*
D14*
%TO.P,UB3,22,HO1*%
%TO.N,Net-(UB3-HO1)*%
X153902494Y-79602497D03*
%TO.P,UB3,23,HS1*%
%TO.N,Net-(UB3-HS1)*%
X153402494Y-79602497D03*
%TO.P,UB3,24,VIN*%
%TO.N,Net-(UB3-VIN)*%
X152902494Y-79602497D03*
%TO.P,UB3,25,UVLO*%
%TO.N,Net-(UB3-UVLO)*%
X152402494Y-79602497D03*
%TO.P,UB3,26,OVP*%
%TO.N,Net-(UB3-OVP)*%
X151902494Y-79602497D03*
%TO.P,UB3,27,RAMP*%
%TO.N,Net-(UB3-RAMP)*%
X151402494Y-79602497D03*
%TO.P,UB3,28,CS*%
%TO.N,Net-(UB3-CS)*%
X150902494Y-79602497D03*
D10*
%TO.P,UB3,EP,EP*%
%TO.N,Net-(UB3-PadEP)*%
X151752494Y-81402497D03*
X151752494Y-82702497D03*
D17*
X152402494Y-82052497D03*
D10*
X153052494Y-81402497D03*
X153052494Y-82702497D03*
%TD*%
%TO.P,UT2,EP,PAD*%
%TO.N,Net-(UB2-GND)*%
X167400000Y-110400000D03*
X167400000Y-111400000D03*
D11*
X167400000Y-111400000D03*
D10*
X167400000Y-112400000D03*
%TD*%
D18*
%TO.P,UTB6,1,RO*%
%TO.N,Net-(UT5-RO)*%
X84475000Y-108490000D03*
%TO.P,UTB6,2,~{RE}*%
%TO.N,unconnected-(UTB6-~{RE}-Pad2)*%
X84475000Y-109760000D03*
%TO.P,UTB6,3,DE*%
%TO.N,Net-(UT5-DE)*%
X84475000Y-111030000D03*
%TO.P,UTB6,4,DI*%
%TO.N,Net-(UT5-DI)*%
X84475000Y-112300000D03*
%TO.P,UTB6,5,GND*%
%TO.N,Net-(UT5-GND)*%
X89325000Y-112300000D03*
%TO.P,UTB6,6,A*%
%TO.N,Net-(UT5-A)*%
X89325000Y-111030000D03*
%TO.P,UTB6,7,B*%
%TO.N,Net-(UT5-B)*%
X89325000Y-109760000D03*
%TO.P,UTB6,8,VCC*%
%TO.N,Net-(UT5-VCC)*%
X89325000Y-108490000D03*
%TD*%
%TO.P,UTB6,1,RO*%
%TO.N,Net-(UT5-RO)*%
X66075000Y-108485000D03*
%TO.P,UTB6,2,~{RE}*%
%TO.N,unconnected-(UTB6-~{RE}-Pad2)*%
X66075000Y-109755000D03*
%TO.P,UTB6,3,DE*%
%TO.N,Net-(UT5-DE)*%
X66075000Y-111025000D03*
%TO.P,UTB6,4,DI*%
%TO.N,Net-(UT5-DI)*%
X66075000Y-112295000D03*
%TO.P,UTB6,5,GND*%
%TO.N,Net-(UT5-GND)*%
X70925000Y-112295000D03*
%TO.P,UTB6,6,A*%
%TO.N,Net-(UT5-A)*%
X70925000Y-111025000D03*
%TO.P,UTB6,7,B*%
%TO.N,Net-(UT5-B)*%
X70925000Y-109755000D03*
%TO.P,UTB6,8,VCC*%
%TO.N,Net-(UT5-VCC)*%
X70925000Y-108485000D03*
%TD*%
D19*
%TO.P,UB2,1,PGOOD*%
%TO.N,Net-(UB2-PGOOD)*%
X171050000Y-110150000D03*
%TO.P,UB2,2,FB+*%
%TO.N,Net-(UB2-FB+)*%
X171050000Y-110650000D03*
%TO.P,UB2,3,VIN*%
%TO.N,Net-(UB2-VIN)*%
X171050000Y-111150000D03*
%TO.P,UB2,4,GND*%
%TO.N,Net-(UB2-GND)*%
X171050000Y-111650000D03*
%TO.P,UB2,5,CP*%
%TO.N,Net-(UB2-CP)*%
X171050000Y-112150000D03*
%TO.P,UB2,6,OUT-*%
%TO.N,Net-(UB2-OUT-)*%
X171050000Y-112650000D03*
%TO.P,UB2,7,FB-*%
%TO.N,Net-(UB2-FB-)*%
X172950000Y-112650000D03*
%TO.P,UB2,8,EN-*%
%TO.N,unconnected-(UB2-EN--Pad8)*%
X172950000Y-112150000D03*
%TO.P,UB2,9,C-*%
%TO.N,Net-(UB2-C-)*%
X172950000Y-111650000D03*
%TO.P,UB2,10,C+*%
%TO.N,Net-(UB2-C+)*%
X172950000Y-111150000D03*
%TO.P,UB2,11,OUT+*%
%TO.N,Net-(UB2-OUT+)*%
X172950000Y-110650000D03*
%TO.P,UB2,12,EN+*%
%TO.N,Net-(UB2-EN+)*%
X172950000Y-110150000D03*
D10*
%TO.P,UB2,EP,PAD*%
%TO.N,Net-(UB2-GND)*%
X172000000Y-110400000D03*
X172000000Y-111400000D03*
D11*
X172000000Y-111400000D03*
D10*
X172000000Y-112400000D03*
%TD*%
%TO.P,UT2,EP,PAD*%
%TO.N,Net-(UB2-GND)*%
X172000000Y-110400000D03*
X172000000Y-111400000D03*
D11*
X172000000Y-111400000D03*
D10*
X172000000Y-112400000D03*
%TD*%
%TO.P,UT3,EP,EP*%
%TO.N,Net-(UB3-PadEP)*%
X167752494Y-81402497D03*
X167752494Y-82702497D03*
X169052494Y-81402497D03*
X169052494Y-82702497D03*
%TD*%
D19*
%TO.P,UB2,1,PGOOD*%
%TO.N,Net-(UB2-PGOOD)*%
X161850000Y-110150000D03*
%TO.P,UB2,2,FB+*%
%TO.N,Net-(UB2-FB+)*%
X161850000Y-110650000D03*
%TO.P,UB2,3,VIN*%
%TO.N,Net-(UB2-VIN)*%
X161850000Y-111150000D03*
%TO.P,UB2,4,GND*%
%TO.N,Net-(UB2-GND)*%
X161850000Y-111650000D03*
%TO.P,UB2,5,CP*%
%TO.N,Net-(UB2-CP)*%
X161850000Y-112150000D03*
%TO.P,UB2,6,OUT-*%
%TO.N,Net-(UB2-OUT-)*%
X161850000Y-112650000D03*
%TO.P,UB2,7,FB-*%
%TO.N,Net-(UB2-FB-)*%
X163750000Y-112650000D03*
%TO.P,UB2,8,EN-*%
%TO.N,unconnected-(UB2-EN--Pad8)*%
X163750000Y-112150000D03*
%TO.P,UB2,9,C-*%
%TO.N,Net-(UB2-C-)*%
X163750000Y-111650000D03*
%TO.P,UB2,10,C+*%
%TO.N,Net-(UB2-C+)*%
X163750000Y-111150000D03*
%TO.P,UB2,11,OUT+*%
%TO.N,Net-(UB2-OUT+)*%
X163750000Y-110650000D03*
%TO.P,UB2,12,EN+*%
%TO.N,Net-(UB2-EN+)*%
X163750000Y-110150000D03*
D10*
%TO.P,UB2,EP,PAD*%
%TO.N,Net-(UB2-GND)*%
X162800000Y-110400000D03*
X162800000Y-111400000D03*
D11*
X162800000Y-111400000D03*
D10*
X162800000Y-112400000D03*
%TD*%
D18*
%TO.P,UTB6,1,RO*%
%TO.N,Net-(UT5-RO)*%
X102875000Y-108495000D03*
%TO.P,UTB6,2,~{RE}*%
%TO.N,unconnected-(UTB6-~{RE}-Pad2)*%
X102875000Y-109765000D03*
%TO.P,UTB6,3,DE*%
%TO.N,Net-(UT5-DE)*%
X102875000Y-111035000D03*
%TO.P,UTB6,4,DI*%
%TO.N,Net-(UT5-DI)*%
X102875000Y-112305000D03*
%TO.P,UTB6,5,GND*%
%TO.N,Net-(UT5-GND)*%
X107725000Y-112305000D03*
%TO.P,UTB6,6,A*%
%TO.N,Net-(UT5-A)*%
X107725000Y-111035000D03*
%TO.P,UTB6,7,B*%
%TO.N,Net-(UT5-B)*%
X107725000Y-109765000D03*
%TO.P,UTB6,8,VCC*%
%TO.N,Net-(UT5-VCC)*%
X107725000Y-108495000D03*
%TD*%
D20*
%TO.N,Net-(UB1-NC)*%
X122500000Y-87240000D03*
X108800000Y-87240000D03*
X95100000Y-87240000D03*
X67700000Y-87240000D03*
X81400000Y-87240000D03*
%TO.N,Net-(UB1-OUTC)*%
X128600000Y-84640000D03*
X73800000Y-84640000D03*
X87500000Y-84640000D03*
X101200000Y-84640000D03*
X114900000Y-84640000D03*
%TO.N,Net-(UB1-VISO)*%
X128600000Y-79540000D03*
X114900000Y-79540000D03*
X73800000Y-79540000D03*
X101200000Y-79540000D03*
X87500000Y-79540000D03*
%TO.N,Net-(UB1-OUTA)*%
X101200000Y-82140000D03*
X87500000Y-82140000D03*
X114900000Y-82140000D03*
X128600000Y-82140000D03*
X73800000Y-82140000D03*
%TO.N,Net-(UB1-GND1-Pad2)*%
X67700000Y-80840000D03*
X108800000Y-80840000D03*
X122500000Y-80840000D03*
X95100000Y-80840000D03*
X81400000Y-80840000D03*
%TO.N,Net-(UB1-OUTB)*%
X114900000Y-83410000D03*
X87500000Y-83410000D03*
X128600000Y-83410000D03*
X73800000Y-83410000D03*
X101200000Y-83410000D03*
%TO.N,Net-(UB1-INC)*%
X81400000Y-84640000D03*
X108800000Y-84640000D03*
X122500000Y-84640000D03*
X95100000Y-84640000D03*
X67700000Y-84640000D03*
%TO.N,Net-(UB1-GND2-Pad15)*%
X73800000Y-80870000D03*
X114900000Y-80870000D03*
X87500000Y-80870000D03*
X128600000Y-80870000D03*
X101200000Y-80870000D03*
%TO.N,Net-(UB1-OUTD)*%
X81400000Y-85940000D03*
X67700000Y-85940000D03*
X122500000Y-85940000D03*
X108800000Y-85940000D03*
X95100000Y-85940000D03*
%TO.N,Net-(UB1-IND)*%
X101200000Y-85940000D03*
X128600000Y-85940000D03*
X114900000Y-85940000D03*
X73800000Y-85940000D03*
X87500000Y-85940000D03*
%TO.N,Net-(UB1-GND2-Pad9)*%
X101200000Y-88440000D03*
X128600000Y-88440000D03*
X87500000Y-88440000D03*
X114900000Y-88440000D03*
X73800000Y-88440000D03*
%TO.N,Net-(UB1-GND1-Pad8)*%
X108800000Y-88540000D03*
X122500000Y-88540000D03*
X95100000Y-88540000D03*
X81400000Y-88540000D03*
X67700000Y-88540000D03*
%TO.N,Net-(UB1-VCC)*%
X122500000Y-79540000D03*
X67700000Y-79540000D03*
X95100000Y-79540000D03*
X81400000Y-79540000D03*
X108800000Y-79540000D03*
%TO.N,Net-(UB1-INA)*%
X67700000Y-82140000D03*
X108800000Y-82140000D03*
X95100000Y-82140000D03*
X122500000Y-82140000D03*
X81400000Y-82140000D03*
%TO.N,Net-(UB1-INB)*%
X108800000Y-83440000D03*
X67700000Y-83440000D03*
X95100000Y-83440000D03*
X122500000Y-83440000D03*
X81400000Y-83440000D03*
D21*
%TO.N,Net-(UB2-FB-)*%
X168350000Y-112650000D03*
X172950000Y-112650000D03*
X177550000Y-112650000D03*
X163750000Y-112650000D03*
X159150000Y-112650000D03*
%TO.N,Net-(UB2-CP)*%
X161849998Y-112150001D03*
X171049998Y-112150001D03*
X175649998Y-112150001D03*
X166449998Y-112150001D03*
X157249998Y-112150001D03*
%TO.N,Net-(UB2-FB+)*%
X175649998Y-110650000D03*
X166449998Y-110650000D03*
X157249998Y-110650000D03*
X161849998Y-110650000D03*
X171049998Y-110650000D03*
%TO.N,Net-(UB2-EN+)*%
X159150001Y-110150002D03*
X172950001Y-110150002D03*
X163750001Y-110150002D03*
X177550001Y-110150002D03*
X168350001Y-110150002D03*
%TO.N,Net-(UB2-C-)*%
X172950998Y-111650000D03*
X163750998Y-111650000D03*
X168350998Y-111650000D03*
X159150998Y-111650000D03*
X177550998Y-111650000D03*
%TO.N,Net-(UB2-PGOOD)*%
X166449998Y-110150000D03*
X161849998Y-110150000D03*
X171049998Y-110150000D03*
X157249998Y-110150000D03*
X175649998Y-110150000D03*
%TO.N,Net-(UB2-VIN)*%
X166449998Y-111149999D03*
X161849998Y-111149999D03*
X175649998Y-111149999D03*
X157249998Y-111149999D03*
X171049998Y-111149999D03*
%TO.N,Net-(UB2-OUT-)*%
X157249998Y-112650000D03*
X171049998Y-112650000D03*
X161849998Y-112650000D03*
X175649998Y-112650000D03*
X166449998Y-112650000D03*
%TO.N,Net-(UB2-C+)*%
X177550998Y-111150000D03*
X172950998Y-111150000D03*
X168350998Y-111150000D03*
X163750998Y-111150000D03*
X159150998Y-111150000D03*
%TO.N,Net-(UB2-OUT+)*%
X168350998Y-110650000D03*
X177550998Y-110650000D03*
X163750998Y-110650000D03*
X159150998Y-110650000D03*
X172950998Y-110650000D03*
%TO.N,Net-(UB3-COMP)*%
X134405000Y-81050000D03*
X158407494Y-81052497D03*
X166407494Y-81052497D03*
X150407494Y-81052497D03*
X142405000Y-81050000D03*
%TO.N,Net-(UB3-HO1)*%
X169901402Y-80134136D03*
X153901402Y-80134136D03*
X161901402Y-80134136D03*
X137898908Y-80131639D03*
X145898908Y-80131639D03*
%TO.N,Net-(UB3-SLOPE)*%
X166607494Y-80552497D03*
X150607494Y-80552497D03*
X142605000Y-80550000D03*
X158607494Y-80552497D03*
X134605000Y-80550000D03*
%TO.N,Net-(UB3-SS)*%
X135405000Y-83780002D03*
X151407494Y-83782499D03*
X143405000Y-83780002D03*
X159407494Y-83782499D03*
X167407494Y-83782499D03*
%TO.N,Net-(UB3-PGND)*%
X138130002Y-81955191D03*
X154132496Y-81957688D03*
X146130002Y-81955191D03*
X170132496Y-81957688D03*
X162132496Y-81957688D03*
%TO.N,Net-(UB3-UVLO)*%
X144405000Y-80319998D03*
X136405000Y-80319998D03*
X168407494Y-80322495D03*
X160407494Y-80322495D03*
X152407494Y-80322495D03*
%TO.N,Net-(UB3-SR2)*%
X147095000Y-84400000D03*
X163097494Y-84402497D03*
X139095000Y-84400000D03*
X155097494Y-84402497D03*
X171097494Y-84402497D03*
%TO.N,Net-(UB3-BST2)*%
X170756711Y-84768377D03*
X162756711Y-84768377D03*
X146754217Y-84765880D03*
X154756711Y-84768377D03*
X138754217Y-84765880D03*
%TO.N,Net-(UB3-LO2)*%
X154132494Y-83017693D03*
X162132494Y-83017693D03*
X170132494Y-83017693D03*
X146130000Y-83015196D03*
X138130000Y-83015196D03*
%TO.N,Net-(UB3-HO2)*%
X146375000Y-84440000D03*
X154377494Y-84442497D03*
X170377494Y-84442497D03*
X162377494Y-84442497D03*
X138375000Y-84440000D03*
%TO.N,Net-(UB3-LO1)*%
X138130002Y-81425188D03*
X162132496Y-81427685D03*
X154132496Y-81427685D03*
X170132496Y-81427685D03*
X146130002Y-81425188D03*
%TO.N,Net-(UB3-AGND)*%
X142595000Y-82550000D03*
X150597494Y-82552497D03*
X158597494Y-82552497D03*
X166597494Y-82552497D03*
X134595000Y-82550000D03*
%TO.N,Net-(UB3-BST1)*%
X154857494Y-80172497D03*
X162857494Y-80172497D03*
X146855000Y-80170000D03*
X138855000Y-80170000D03*
X170857494Y-80172497D03*
%TO.N,Net-(UB3-REF)*%
X158607494Y-81552497D03*
X134605000Y-81550000D03*
X142605000Y-81550000D03*
X150607494Y-81552497D03*
X166607494Y-81552497D03*
%TO.N,Net-(UB3-SR1)*%
X154132496Y-80897682D03*
X138130002Y-80895185D03*
X146130002Y-80895185D03*
X170132496Y-80897682D03*
X162132496Y-80897682D03*
%TO.N,Net-(UB3-SS_OFF)*%
X136405000Y-83780002D03*
X160407494Y-83782499D03*
X168407494Y-83782499D03*
X152407494Y-83782499D03*
X144405000Y-83780002D03*
%TO.N,Net-(UB3-HS1)*%
X145403503Y-80319992D03*
X169405997Y-80322489D03*
X153405997Y-80322489D03*
X161405997Y-80322489D03*
X137403503Y-80319992D03*
%TO.N,Net-(UB3-RT)*%
X134395000Y-82050000D03*
X166397494Y-82052497D03*
X142395000Y-82050000D03*
X150397494Y-82052497D03*
X158397494Y-82052497D03*
%TO.N,Net-(UB3-SSSR)*%
X151907494Y-83982497D03*
X143905000Y-83980000D03*
X167907494Y-83982497D03*
X135905000Y-83980000D03*
X159907494Y-83982497D03*
%TO.N,Net-(UB3-RD2)*%
X150597494Y-83552497D03*
X166597494Y-83552497D03*
X134595000Y-83550000D03*
X142595000Y-83550000D03*
X158597494Y-83552497D03*
%TO.N,Net-(UB3-RD1)*%
X150397494Y-83052497D03*
X158397494Y-83052497D03*
X142395000Y-83050000D03*
X166397494Y-83052497D03*
X134395000Y-83050000D03*
%TO.N,Net-(UB3-VIN)*%
X152907494Y-80142497D03*
X160907494Y-80142497D03*
X136905000Y-80140000D03*
X144905000Y-80140000D03*
X168907494Y-80142497D03*
%TO.N,Net-(UB3-OVP)*%
X167907494Y-80132497D03*
X159907494Y-80132497D03*
X143905000Y-80130000D03*
X135905000Y-80130000D03*
X151907494Y-80132497D03*
%TO.N,Net-(UB3-RES)*%
X166907494Y-83992497D03*
X158907494Y-83992497D03*
X150907494Y-83992497D03*
X134905000Y-83990000D03*
X142905000Y-83990000D03*
%TO.N,Net-(UB3-HS2)*%
X170707494Y-84005604D03*
X146705000Y-84003107D03*
X138705000Y-84003107D03*
X154707494Y-84005604D03*
X162707494Y-84005604D03*
%TO.N,Net-(UB3-CS)*%
X166903840Y-80113087D03*
X142901346Y-80110590D03*
X134901346Y-80110590D03*
X158903840Y-80113087D03*
X150903840Y-80113087D03*
%TO.N,Net-(UB3-RAMP)*%
X151397494Y-80322497D03*
X135395000Y-80320000D03*
X167397494Y-80322497D03*
X143395000Y-80320000D03*
X159397494Y-80322497D03*
%TO.N,Net-(UB3-VCC)*%
X146130002Y-82485194D03*
X170132496Y-82487691D03*
X154132496Y-82487691D03*
X162132496Y-82487691D03*
X138130002Y-82485194D03*
%TO.N,Net-(UB4-B4)*%
X115371000Y-105893265D03*
X124571000Y-105893265D03*
X142971000Y-105893265D03*
X133771000Y-105893265D03*
X152171000Y-105893265D03*
%TO.N,Net-(UB4-A2)*%
X114017000Y-109115002D03*
X123217000Y-109115002D03*
X132417000Y-109115002D03*
X150817000Y-109115002D03*
X141617000Y-109115002D03*
%TO.N,Net-(UB4-GND1-Pad2)*%
X132036000Y-112290000D03*
X132036000Y-104670000D03*
X150436000Y-104670000D03*
X113636000Y-104670000D03*
X113636000Y-112290000D03*
X141236000Y-104670000D03*
X122836000Y-104670000D03*
X122836000Y-112290000D03*
X141236000Y-112290000D03*
X150436000Y-112290000D03*
%TO.N,Net-(UB4-B2)*%
X124819000Y-106986268D03*
X134019000Y-106986268D03*
X152419000Y-106986268D03*
X143219000Y-106986268D03*
X115619000Y-106986268D03*
%TO.N,Net-(UB4-GND2-Pad15)*%
X114906000Y-112290000D03*
X133052000Y-104670000D03*
X151706000Y-112290000D03*
X142252000Y-104670000D03*
X133306000Y-112290000D03*
X114652000Y-104670000D03*
X151452000Y-104670000D03*
X142506000Y-112290000D03*
X124106000Y-112290000D03*
X123852000Y-104670000D03*
%TO.N,Net-(UB4-VDD2)*%
X115500000Y-103610000D03*
X152300000Y-103610000D03*
X124700000Y-103610000D03*
X143100000Y-103610000D03*
X133900000Y-103610000D03*
%TO.N,Net-(UB4-VDD1)*%
X122668000Y-103610000D03*
X141068000Y-103610000D03*
X150268000Y-103610000D03*
X113468000Y-103610000D03*
X131868000Y-103610000D03*
%TO.N,Net-(UB4-EN2)*%
X124741000Y-111020000D03*
X143141000Y-111020000D03*
X133941000Y-111020000D03*
X152341000Y-111020000D03*
X115541000Y-111020000D03*
%TO.N,Net-(UB4-B3)*%
X115702000Y-107669320D03*
X152502000Y-107669320D03*
X143302000Y-107669320D03*
X124902000Y-107669320D03*
X134102000Y-107669320D03*
%TO.N,Net-(UB4-A3)*%
X150436000Y-107464000D03*
X141236000Y-107464000D03*
X132036000Y-107464000D03*
X122836000Y-107464000D03*
X113636000Y-107464000D03*
%TO.N,Net-(UB4-B1)*%
X143141000Y-108480000D03*
X115541000Y-108480000D03*
X133941000Y-108480000D03*
X124741000Y-108480000D03*
X152341000Y-108480000D03*
%TO.N,Net-(UB4-A1)*%
X113763000Y-106448000D03*
X150563000Y-106448000D03*
X141363000Y-106448000D03*
X122963000Y-106448000D03*
X132163000Y-106448000D03*
%TO.N,Net-(UB4-A4)*%
X151071000Y-105940000D03*
X141871000Y-105940000D03*
X114271000Y-105940000D03*
X132671000Y-105940000D03*
X123471000Y-105940000D03*
%TO.N,Net-(UB4-EN1)*%
X113741000Y-111090000D03*
X141341000Y-111090000D03*
X150541000Y-111090000D03*
X122941000Y-111090000D03*
X132141000Y-111090000D03*
%TO.N,Net-(UT5-A)*%
X78589000Y-111030000D03*
X69389000Y-111025000D03*
X106189000Y-111035000D03*
X96989000Y-111035000D03*
X87789000Y-111030000D03*
%TO.N,Net-(UT5-DI)*%
X104538000Y-112305000D03*
X67738000Y-112295000D03*
X86138000Y-112300000D03*
X76938000Y-112300000D03*
X95338000Y-112305000D03*
%TO.N,Net-(UT5-GND)*%
X69389000Y-112295000D03*
X78589000Y-112300000D03*
X96989000Y-112305000D03*
X87789000Y-112300000D03*
X106189000Y-112305000D03*
%TO.N,Net-(UT5-B)*%
X69389000Y-109755000D03*
X78589000Y-109760000D03*
X87789000Y-109760000D03*
X106189000Y-109765000D03*
X96989000Y-109765000D03*
%TO.N,Net-(UT5-DE)*%
X86138000Y-111030000D03*
X104538000Y-111035000D03*
X95338000Y-111035000D03*
X76938000Y-111030000D03*
X67738000Y-111025000D03*
%TO.N,Net-(UT5-RO)*%
X104538000Y-108495000D03*
X76938000Y-108490000D03*
X67738000Y-108485000D03*
X95338000Y-108495000D03*
X86138000Y-108490000D03*
%TD*%
D22*
%TO.N,Net-(UB1-NC)*%
X107200000Y-87220000D02*
X108780000Y-87220000D01*
X122480000Y-87220000D02*
X122500000Y-87240000D01*
X95080000Y-87220000D02*
X95100000Y-87240000D01*
X66100000Y-87220000D02*
X67680000Y-87220000D01*
X79800000Y-87220000D02*
X81380000Y-87220000D01*
X81380000Y-87220000D02*
X81400000Y-87240000D01*
X120900000Y-87220000D02*
X122480000Y-87220000D01*
X67680000Y-87220000D02*
X67700000Y-87240000D01*
X93500000Y-87220000D02*
X95080000Y-87220000D01*
X108780000Y-87220000D02*
X108800000Y-87240000D01*
%TO.N,Net-(UB1-OUTC)*%
X87540000Y-84680000D02*
X87500000Y-84640000D01*
X116500000Y-84680000D02*
X114940000Y-84680000D01*
X75400000Y-84680000D02*
X73840000Y-84680000D01*
X102800000Y-84680000D02*
X101240000Y-84680000D01*
X114940000Y-84680000D02*
X114900000Y-84640000D01*
X89100000Y-84680000D02*
X87540000Y-84680000D01*
X128640000Y-84680000D02*
X128600000Y-84640000D01*
X101240000Y-84680000D02*
X101200000Y-84640000D01*
X130200000Y-84680000D02*
X128640000Y-84680000D01*
X73840000Y-84680000D02*
X73800000Y-84640000D01*
%TO.N,Net-(UB1-VISO)*%
X89100000Y-79600000D02*
X87560000Y-79600000D01*
X130200000Y-79600000D02*
X128660000Y-79600000D01*
X75400000Y-79600000D02*
X73860000Y-79600000D01*
X128660000Y-79600000D02*
X128600000Y-79540000D01*
X116500000Y-79600000D02*
X114960000Y-79600000D01*
X102800000Y-79600000D02*
X101260000Y-79600000D01*
X87560000Y-79600000D02*
X87500000Y-79540000D01*
X73860000Y-79600000D02*
X73800000Y-79540000D01*
X101260000Y-79600000D02*
X101200000Y-79540000D01*
X114960000Y-79600000D02*
X114900000Y-79540000D01*
%TO.N,Net-(UB1-OUTA)*%
X89100000Y-82140000D02*
X87500000Y-82140000D01*
X130200000Y-82140000D02*
X128600000Y-82140000D01*
X116500000Y-82140000D02*
X114900000Y-82140000D01*
X102800000Y-82140000D02*
X101200000Y-82140000D01*
X75400000Y-82140000D02*
X73800000Y-82140000D01*
%TO.N,Net-(UB1-GND1-Pad2)*%
X108300000Y-80840000D02*
X108270000Y-80870000D01*
X80870000Y-80870000D02*
X79800000Y-80870000D01*
X95100000Y-80840000D02*
X94600000Y-80840000D01*
X108270000Y-80870000D02*
X107200000Y-80870000D01*
X67700000Y-80840000D02*
X67200000Y-80840000D01*
X108800000Y-80840000D02*
X108300000Y-80840000D01*
X81400000Y-80840000D02*
X80900000Y-80840000D01*
X122000000Y-80840000D02*
X121970000Y-80870000D01*
X121970000Y-80870000D02*
X120900000Y-80870000D01*
X94570000Y-80870000D02*
X93500000Y-80870000D01*
X80900000Y-80840000D02*
X80870000Y-80870000D01*
X67200000Y-80840000D02*
X67170000Y-80870000D01*
X94600000Y-80840000D02*
X94570000Y-80870000D01*
X67170000Y-80870000D02*
X66100000Y-80870000D01*
X122500000Y-80840000D02*
X122000000Y-80840000D01*
%TO.N,Net-(UB1-OUTB)*%
X75400000Y-83410000D02*
X73800000Y-83410000D01*
X102800000Y-83410000D02*
X101200000Y-83410000D01*
X89100000Y-83410000D02*
X87500000Y-83410000D01*
X130200000Y-83410000D02*
X128600000Y-83410000D01*
X116500000Y-83410000D02*
X114900000Y-83410000D01*
%TO.N,Net-(UB1-INC)*%
X81360000Y-84680000D02*
X81400000Y-84640000D01*
X66100000Y-84680000D02*
X67660000Y-84680000D01*
X122460000Y-84680000D02*
X122500000Y-84640000D01*
X93500000Y-84680000D02*
X95060000Y-84680000D01*
X67660000Y-84680000D02*
X67700000Y-84640000D01*
X120900000Y-84680000D02*
X122460000Y-84680000D01*
X79800000Y-84680000D02*
X81360000Y-84680000D01*
X108760000Y-84680000D02*
X108800000Y-84640000D01*
X95060000Y-84680000D02*
X95100000Y-84640000D01*
X107200000Y-84680000D02*
X108760000Y-84680000D01*
%TO.N,Net-(UB1-GND2-Pad15)*%
X89100000Y-80870000D02*
X87500000Y-80870000D01*
X116500000Y-80870000D02*
X114900000Y-80870000D01*
X130200000Y-80870000D02*
X128600000Y-80870000D01*
X102800000Y-80870000D02*
X101200000Y-80870000D01*
X75400000Y-80870000D02*
X73800000Y-80870000D01*
%TO.N,Net-(UB1-OUTD)*%
X122490000Y-85950000D02*
X122500000Y-85940000D01*
X79800000Y-85950000D02*
X81390000Y-85950000D01*
X66100000Y-85950000D02*
X67690000Y-85950000D01*
X107200000Y-85950000D02*
X108790000Y-85950000D01*
X81390000Y-85950000D02*
X81400000Y-85940000D01*
X120900000Y-85950000D02*
X122490000Y-85950000D01*
X93500000Y-85950000D02*
X95090000Y-85950000D01*
X95090000Y-85950000D02*
X95100000Y-85940000D01*
X108790000Y-85950000D02*
X108800000Y-85940000D01*
X67690000Y-85950000D02*
X67700000Y-85940000D01*
%TO.N,Net-(UB1-IND)*%
X73810000Y-85950000D02*
X73800000Y-85940000D01*
X101210000Y-85950000D02*
X101200000Y-85940000D01*
X128610000Y-85950000D02*
X128600000Y-85940000D01*
X130200000Y-85950000D02*
X128610000Y-85950000D01*
X114910000Y-85950000D02*
X114900000Y-85940000D01*
X75400000Y-85950000D02*
X73810000Y-85950000D01*
X89100000Y-85950000D02*
X87510000Y-85950000D01*
X102800000Y-85950000D02*
X101210000Y-85950000D01*
X87510000Y-85950000D02*
X87500000Y-85940000D01*
X116500000Y-85950000D02*
X114910000Y-85950000D01*
%TO.N,Net-(UB1-GND2-Pad9)*%
X114950000Y-88490000D02*
X114900000Y-88440000D01*
X87550000Y-88490000D02*
X87500000Y-88440000D01*
X73850000Y-88490000D02*
X73800000Y-88440000D01*
X75400000Y-88490000D02*
X73850000Y-88490000D01*
X128650000Y-88490000D02*
X128600000Y-88440000D01*
X89100000Y-88490000D02*
X87550000Y-88490000D01*
X102800000Y-88490000D02*
X101250000Y-88490000D01*
X116500000Y-88490000D02*
X114950000Y-88490000D01*
X130200000Y-88490000D02*
X128650000Y-88490000D01*
X101250000Y-88490000D02*
X101200000Y-88440000D01*
%TO.N,Net-(UB1-GND1-Pad8)*%
X67650000Y-88490000D02*
X67700000Y-88540000D01*
X81350000Y-88490000D02*
X81400000Y-88540000D01*
X108750000Y-88490000D02*
X108800000Y-88540000D01*
X66100000Y-88490000D02*
X67650000Y-88490000D01*
X107200000Y-88490000D02*
X108750000Y-88490000D01*
X79800000Y-88490000D02*
X81350000Y-88490000D01*
X120900000Y-88490000D02*
X122450000Y-88490000D01*
X95050000Y-88490000D02*
X95100000Y-88540000D01*
X122450000Y-88490000D02*
X122500000Y-88540000D01*
X93500000Y-88490000D02*
X95050000Y-88490000D01*
%TO.N,Net-(UB1-VCC)*%
X95040000Y-79600000D02*
X95100000Y-79540000D01*
X107200000Y-79600000D02*
X108740000Y-79600000D01*
X120900000Y-79600000D02*
X122440000Y-79600000D01*
X67640000Y-79600000D02*
X67700000Y-79540000D01*
X93500000Y-79600000D02*
X95040000Y-79600000D01*
X81340000Y-79600000D02*
X81400000Y-79540000D01*
X79800000Y-79600000D02*
X81340000Y-79600000D01*
X108740000Y-79600000D02*
X108800000Y-79540000D01*
X122440000Y-79600000D02*
X122500000Y-79540000D01*
X66100000Y-79600000D02*
X67640000Y-79600000D01*
%TO.N,Net-(UB1-INA)*%
X66100000Y-82140000D02*
X67700000Y-82140000D01*
X107200000Y-82140000D02*
X108800000Y-82140000D01*
X79800000Y-82140000D02*
X81400000Y-82140000D01*
X93500000Y-82140000D02*
X95100000Y-82140000D01*
X120900000Y-82140000D02*
X122500000Y-82140000D01*
%TO.N,Net-(UB1-INB)*%
X93500000Y-83410000D02*
X95070000Y-83410000D01*
X108770000Y-83410000D02*
X108800000Y-83440000D01*
X67670000Y-83410000D02*
X67700000Y-83440000D01*
X81370000Y-83410000D02*
X81400000Y-83440000D01*
X79800000Y-83410000D02*
X81370000Y-83410000D01*
X120900000Y-83410000D02*
X122470000Y-83410000D01*
X66100000Y-83410000D02*
X67670000Y-83410000D01*
X107200000Y-83410000D02*
X108770000Y-83410000D01*
X95070000Y-83410000D02*
X95100000Y-83440000D01*
X122470000Y-83410000D02*
X122500000Y-83440000D01*
%TO.N,Net-(UB2-CP)*%
X157250000Y-112150000D02*
X157249998Y-112150001D01*
X166450000Y-112150000D02*
X166449998Y-112150001D01*
X175650000Y-112150000D02*
X175649998Y-112150001D01*
X161850000Y-112150000D02*
X161849998Y-112150001D01*
X171050000Y-112150000D02*
X171049998Y-112150001D01*
%TO.N,Net-(UB2-FB+)*%
X161850000Y-110650000D02*
X161849998Y-110650000D01*
X175650000Y-110650000D02*
X175649998Y-110650000D01*
X171050000Y-110650000D02*
X171049998Y-110650000D01*
X166450000Y-110650000D02*
X166449998Y-110650000D01*
X157250000Y-110650000D02*
X157249998Y-110650000D01*
%TO.N,Net-(UB2-PGOOD)*%
X175650000Y-110150000D02*
X175649998Y-110150000D01*
X171050000Y-110150000D02*
X171049998Y-110150000D01*
X157250000Y-110150000D02*
X157249998Y-110150000D01*
X161850000Y-110150000D02*
X161849998Y-110150000D01*
X166450000Y-110150000D02*
X166449998Y-110150000D01*
%TO.N,Net-(UB2-GND)*%
X171750000Y-111650000D02*
X172000000Y-111400000D01*
X166450000Y-111650000D02*
X167150000Y-111650000D01*
X157950000Y-111650000D02*
X158200000Y-111400000D01*
X167150000Y-111650000D02*
X167400000Y-111400000D01*
X157250000Y-111650000D02*
X157950000Y-111650000D01*
X162550000Y-111650000D02*
X162800000Y-111400000D01*
X175650000Y-111650000D02*
X176350000Y-111650000D01*
X161850000Y-111650000D02*
X162550000Y-111650000D01*
X171050000Y-111650000D02*
X171750000Y-111650000D01*
X176350000Y-111650000D02*
X176600000Y-111400000D01*
%TO.N,Net-(UB2-VIN)*%
X161850000Y-111150000D02*
X161849998Y-111149999D01*
X166450000Y-111150000D02*
X166449998Y-111149999D01*
X157250000Y-111150000D02*
X157249998Y-111149999D01*
X175650000Y-111150000D02*
X175649998Y-111149999D01*
X171050000Y-111150000D02*
X171049998Y-111149999D01*
%TO.N,Net-(UB2-OUT-)*%
X175649998Y-112650000D02*
X175650000Y-112650000D01*
X157249998Y-112650000D02*
X157250000Y-112650000D01*
X161849998Y-112650000D02*
X161850000Y-112650000D01*
X171049998Y-112650000D02*
X171050000Y-112650000D01*
X166449998Y-112650000D02*
X166450000Y-112650000D01*
%TO.N,Net-(UB3-COMP)*%
X134405000Y-81050000D02*
X133950000Y-81050000D01*
X142405000Y-81050000D02*
X141950000Y-81050000D01*
X150407494Y-81052497D02*
X149952494Y-81052497D01*
X158407494Y-81052497D02*
X157952494Y-81052497D01*
X166407494Y-81052497D02*
X165952494Y-81052497D01*
%TO.N,Net-(UB3-SLOPE)*%
X141950000Y-80550000D02*
X142605000Y-80550000D01*
X149952494Y-80552497D02*
X150607494Y-80552497D01*
X165952494Y-80552497D02*
X166607494Y-80552497D01*
X133950000Y-80550000D02*
X134605000Y-80550000D01*
X157952494Y-80552497D02*
X158607494Y-80552497D01*
%TO.N,Net-(UB3-SS)*%
X167402494Y-84502497D02*
X167402494Y-83787499D01*
X135400000Y-83785002D02*
X135405000Y-83780002D01*
X143400000Y-84500000D02*
X143400000Y-83785002D01*
X151402494Y-83787499D02*
X151407494Y-83782499D01*
X159402494Y-83787499D02*
X159407494Y-83782499D01*
X167402494Y-83787499D02*
X167407494Y-83782499D01*
X135400000Y-84500000D02*
X135400000Y-83785002D01*
X143400000Y-83785002D02*
X143405000Y-83780002D01*
X159402494Y-84502497D02*
X159402494Y-83787499D01*
X151402494Y-84502497D02*
X151402494Y-83787499D01*
%TO.N,Net-(UB3-PGND)*%
X146330192Y-81955191D02*
X146425001Y-82050000D01*
X162427495Y-82052497D02*
X162852494Y-82052497D01*
X162132496Y-81957688D02*
X162332686Y-81957688D01*
X138425001Y-82050000D02*
X138850000Y-82050000D01*
X154132496Y-81957688D02*
X154332686Y-81957688D01*
X170427495Y-82052497D02*
X170852494Y-82052497D01*
X146425001Y-82050000D02*
X146850000Y-82050000D01*
X146130002Y-81955191D02*
X146330192Y-81955191D01*
X138130002Y-81955191D02*
X138330192Y-81955191D01*
X154332686Y-81957688D02*
X154427495Y-82052497D01*
X162332686Y-81957688D02*
X162427495Y-82052497D01*
X170132496Y-81957688D02*
X170332686Y-81957688D01*
X138330192Y-81955191D02*
X138425001Y-82050000D01*
X170332686Y-81957688D02*
X170427495Y-82052497D01*
X154427495Y-82052497D02*
X154852494Y-82052497D01*
%TO.N,Net-(UB3-UVLO)*%
X144400000Y-79600000D02*
X144400000Y-80314998D01*
X152402494Y-79602497D02*
X152402494Y-80317495D01*
X160402494Y-80317495D02*
X160407494Y-80322495D01*
X136400000Y-79600000D02*
X136400000Y-80314998D01*
X168402494Y-80317495D02*
X168407494Y-80322495D01*
X152402494Y-80317495D02*
X152407494Y-80322495D01*
X144400000Y-80314998D02*
X144405000Y-80319998D01*
X168402494Y-79602497D02*
X168402494Y-80317495D01*
X136400000Y-80314998D02*
X136405000Y-80319998D01*
X160402494Y-79602497D02*
X160402494Y-80317495D01*
D23*
%TO.N,Net-(UB3-SR2)*%
X171057494Y-83707497D02*
X171057494Y-84362497D01*
X170902494Y-83552497D02*
X171057494Y-83707497D01*
X163057494Y-83707497D02*
X163057494Y-84362497D01*
X162902494Y-83552497D02*
X163057494Y-83707497D01*
X139055000Y-84360000D02*
X139095000Y-84400000D01*
X139055000Y-83705000D02*
X139055000Y-84360000D01*
X155057494Y-84362497D02*
X155097494Y-84402497D01*
X154902494Y-83552497D02*
X155057494Y-83707497D01*
X171057494Y-84362497D02*
X171097494Y-84402497D01*
X146900000Y-83550000D02*
X147055000Y-83705000D01*
X147055000Y-84360000D02*
X147095000Y-84400000D01*
X147055000Y-83705000D02*
X147055000Y-84360000D01*
X155057494Y-83707497D02*
X155057494Y-84362497D01*
X138900000Y-83550000D02*
X139055000Y-83705000D01*
X163057494Y-84362497D02*
X163097494Y-84402497D01*
%TO.N,Net-(UB3-BST2)*%
X146808246Y-84819909D02*
X146808246Y-84893284D01*
X162756711Y-84768377D02*
X162810740Y-84822406D01*
X138734962Y-84820000D02*
X138079792Y-84820000D01*
X170756711Y-84768377D02*
X170810740Y-84822406D01*
X145900000Y-84640208D02*
X145900000Y-84500000D01*
X162810740Y-84822406D02*
X162810740Y-84895781D01*
X146754217Y-84765880D02*
X146808246Y-84819909D01*
X170810740Y-84895781D02*
X170737456Y-84822497D01*
X154082286Y-84822497D02*
X153902494Y-84642705D01*
X170737456Y-84822497D02*
X170082286Y-84822497D01*
X137900000Y-84640208D02*
X137900000Y-84500000D01*
X146079792Y-84820000D02*
X145900000Y-84640208D01*
X162082286Y-84822497D02*
X161902494Y-84642705D01*
X170082286Y-84822497D02*
X169902494Y-84642705D01*
X169902494Y-84642705D02*
X169902494Y-84502497D01*
X161902494Y-84642705D02*
X161902494Y-84502497D01*
X170810740Y-84822406D02*
X170810740Y-84895781D01*
X154756711Y-84768377D02*
X154810740Y-84822406D01*
X154810740Y-84895781D02*
X154737456Y-84822497D01*
X153902494Y-84642705D02*
X153902494Y-84502497D01*
X154810740Y-84822406D02*
X154810740Y-84895781D01*
X138079792Y-84820000D02*
X137900000Y-84640208D01*
X162810740Y-84895781D02*
X162737456Y-84822497D01*
X146734962Y-84820000D02*
X146079792Y-84820000D01*
X146808246Y-84893284D02*
X146734962Y-84820000D01*
X154737456Y-84822497D02*
X154082286Y-84822497D01*
X162737456Y-84822497D02*
X162082286Y-84822497D01*
X138808246Y-84819909D02*
X138808246Y-84893284D01*
X138808246Y-84893284D02*
X138734962Y-84820000D01*
X138754217Y-84765880D02*
X138808246Y-84819909D01*
%TO.N,Net-(UB3-LO2)*%
X138279563Y-83050000D02*
X138850000Y-83050000D01*
X162247253Y-83017693D02*
X162282057Y-83052497D01*
X154247253Y-83017693D02*
X154282057Y-83052497D01*
X146279563Y-83050000D02*
X146850000Y-83050000D01*
X146130000Y-83015196D02*
X146244759Y-83015196D01*
X154132494Y-83017693D02*
X154247253Y-83017693D01*
X146244759Y-83015196D02*
X146279563Y-83050000D01*
X162282057Y-83052497D02*
X162852494Y-83052497D01*
X170282057Y-83052497D02*
X170852494Y-83052497D01*
X138130000Y-83015196D02*
X138244759Y-83015196D01*
X170247253Y-83017693D02*
X170282057Y-83052497D01*
X138244759Y-83015196D02*
X138279563Y-83050000D01*
X170132494Y-83017693D02*
X170247253Y-83017693D01*
X162132494Y-83017693D02*
X162247253Y-83017693D01*
X154282057Y-83052497D02*
X154852494Y-83052497D01*
%TO.N,Net-(UB3-HO2)*%
X145400000Y-84075001D02*
X145491001Y-83984000D01*
X170377494Y-84331548D02*
X170377494Y-84442497D01*
X138029949Y-83984000D02*
X138375000Y-84329051D01*
X145491001Y-83984000D02*
X146029949Y-83984000D01*
X146029949Y-83984000D02*
X146375000Y-84329051D01*
X153493495Y-83986497D02*
X154032443Y-83986497D01*
X146375000Y-84329051D02*
X146375000Y-84440000D01*
X169402494Y-84077498D02*
X169493495Y-83986497D01*
X169493495Y-83986497D02*
X170032443Y-83986497D01*
X154377494Y-84331548D02*
X154377494Y-84442497D01*
X153402494Y-84502497D02*
X153402494Y-84077498D01*
X161402494Y-84502497D02*
X161402494Y-84077498D01*
X170032443Y-83986497D02*
X170377494Y-84331548D01*
X145400000Y-84500000D02*
X145400000Y-84075001D01*
X153402494Y-84077498D02*
X153493495Y-83986497D01*
X169402494Y-84502497D02*
X169402494Y-84077498D01*
X138375000Y-84329051D02*
X138375000Y-84440000D01*
X162377494Y-84331548D02*
X162377494Y-84442497D01*
X137491001Y-83984000D02*
X138029949Y-83984000D01*
X154032443Y-83986497D02*
X154377494Y-84331548D01*
X161493495Y-83986497D02*
X162032443Y-83986497D01*
X162032443Y-83986497D02*
X162377494Y-84331548D01*
X161402494Y-84077498D02*
X161493495Y-83986497D01*
X137400000Y-84500000D02*
X137400000Y-84075001D01*
X137400000Y-84075001D02*
X137491001Y-83984000D01*
D22*
%TO.N,Net-(UB3-LO1)*%
X162132496Y-81427685D02*
X162242164Y-81427685D01*
X154242164Y-81427685D02*
X154271498Y-81457019D01*
X170271498Y-81457019D02*
X170757016Y-81457019D01*
X162757016Y-81457019D02*
X162852494Y-81552497D01*
X170242164Y-81427685D02*
X170271498Y-81457019D01*
X146130002Y-81425188D02*
X146239670Y-81425188D01*
X146239670Y-81425188D02*
X146269004Y-81454522D01*
X170132496Y-81427685D02*
X170242164Y-81427685D01*
X138239670Y-81425188D02*
X138269004Y-81454522D01*
X146269004Y-81454522D02*
X146754522Y-81454522D01*
X162242164Y-81427685D02*
X162271498Y-81457019D01*
X154757016Y-81457019D02*
X154852494Y-81552497D01*
X146754522Y-81454522D02*
X146850000Y-81550000D01*
X154132496Y-81427685D02*
X154242164Y-81427685D01*
X162271498Y-81457019D02*
X162757016Y-81457019D01*
X154271498Y-81457019D02*
X154757016Y-81457019D01*
X138130002Y-81425188D02*
X138239670Y-81425188D01*
X170757016Y-81457019D02*
X170852494Y-81552497D01*
X138269004Y-81454522D02*
X138754522Y-81454522D01*
X138754522Y-81454522D02*
X138850000Y-81550000D01*
%TO.N,Net-(UB3-AGND)*%
X165952494Y-82552497D02*
X166597494Y-82552497D01*
X157952494Y-82552497D02*
X158597494Y-82552497D01*
X141950000Y-82550000D02*
X142595000Y-82550000D01*
X149952494Y-82552497D02*
X150597494Y-82552497D01*
X133950000Y-82550000D02*
X134595000Y-82550000D01*
%TO.N,Net-(UB3-BST1)*%
X146850000Y-80550000D02*
X146850000Y-80175000D01*
X162852494Y-80177497D02*
X162857494Y-80172497D01*
X138850000Y-80550000D02*
X138850000Y-80175000D01*
X138850000Y-80175000D02*
X138855000Y-80170000D01*
X162852494Y-80552497D02*
X162852494Y-80177497D01*
X154852494Y-80177497D02*
X154857494Y-80172497D01*
X170852494Y-80177497D02*
X170857494Y-80172497D01*
X154852494Y-80552497D02*
X154852494Y-80177497D01*
X170852494Y-80552497D02*
X170852494Y-80177497D01*
X146850000Y-80175000D02*
X146855000Y-80170000D01*
%TO.N,Net-(UB3-REF)*%
X133950000Y-81550000D02*
X134605000Y-81550000D01*
X149952494Y-81552497D02*
X150607494Y-81552497D01*
X157952494Y-81552497D02*
X158607494Y-81552497D01*
X165952494Y-81552497D02*
X166607494Y-81552497D01*
X141950000Y-81550000D02*
X142605000Y-81550000D01*
%TO.N,Net-(UB3-SR1)*%
X138284817Y-81050000D02*
X138130002Y-80895185D01*
X154852494Y-81052497D02*
X154287311Y-81052497D01*
X162852494Y-81052497D02*
X162287311Y-81052497D01*
X162287311Y-81052497D02*
X162132496Y-80897682D01*
X170287311Y-81052497D02*
X170132496Y-80897682D01*
X138850000Y-81050000D02*
X138284817Y-81050000D01*
X146850000Y-81050000D02*
X146284817Y-81050000D01*
X170852494Y-81052497D02*
X170287311Y-81052497D01*
X146284817Y-81050000D02*
X146130002Y-80895185D01*
X154287311Y-81052497D02*
X154132496Y-80897682D01*
%TO.N,Net-(UB3-SS_OFF)*%
X160407494Y-83782499D02*
X160407494Y-84497497D01*
X136405000Y-83780002D02*
X136405000Y-84495000D01*
X152407494Y-83782499D02*
X152407494Y-84497497D01*
X168407494Y-84497497D02*
X168402494Y-84502497D01*
X160407494Y-84497497D02*
X160402494Y-84502497D01*
X144405000Y-83780002D02*
X144405000Y-84495000D01*
X152407494Y-84497497D02*
X152402494Y-84502497D01*
X136405000Y-84495000D02*
X136400000Y-84500000D01*
X168407494Y-83782499D02*
X168407494Y-84497497D01*
X144405000Y-84495000D02*
X144400000Y-84500000D01*
%TO.N,Net-(UB3-HS1)*%
X161402494Y-80318986D02*
X161405997Y-80322489D01*
X169402494Y-80318986D02*
X169405997Y-80322489D01*
X153402494Y-80318986D02*
X153405997Y-80322489D01*
X161402494Y-79602497D02*
X161402494Y-80318986D01*
X169402494Y-79602497D02*
X169402494Y-80318986D01*
X137400000Y-79600000D02*
X137400000Y-80316489D01*
X145400000Y-79600000D02*
X145400000Y-80316489D01*
X153402494Y-79602497D02*
X153402494Y-80318986D01*
X145400000Y-80316489D02*
X145403503Y-80319992D01*
X137400000Y-80316489D02*
X137403503Y-80319992D01*
%TO.N,Net-(UB3-SSSR)*%
X159907494Y-83982497D02*
X159907494Y-84497497D01*
X151907494Y-84497497D02*
X151902494Y-84502497D01*
X135905000Y-83980000D02*
X135905000Y-84495000D01*
X151907494Y-83982497D02*
X151907494Y-84497497D01*
X135905000Y-84495000D02*
X135900000Y-84500000D01*
X143905000Y-83980000D02*
X143905000Y-84495000D01*
X159907494Y-84497497D02*
X159902494Y-84502497D01*
X167907494Y-83982497D02*
X167907494Y-84497497D01*
X143905000Y-84495000D02*
X143900000Y-84500000D01*
X167907494Y-84497497D02*
X167902494Y-84502497D01*
%TO.N,Net-(UB3-RD2)*%
X150597494Y-83552497D02*
X149952494Y-83552497D01*
X134595000Y-83550000D02*
X133950000Y-83550000D01*
X158597494Y-83552497D02*
X157952494Y-83552497D01*
X142595000Y-83550000D02*
X141950000Y-83550000D01*
X166597494Y-83552497D02*
X165952494Y-83552497D01*
%TO.N,Net-(UB3-VIN)*%
X168907494Y-80142497D02*
X168907494Y-79607497D01*
X160907494Y-79607497D02*
X160902494Y-79602497D01*
X144905000Y-80140000D02*
X144905000Y-79605000D01*
X144905000Y-79605000D02*
X144900000Y-79600000D01*
X152907494Y-80142497D02*
X152907494Y-79607497D01*
X160907494Y-80142497D02*
X160907494Y-79607497D01*
X168907494Y-79607497D02*
X168902494Y-79602497D01*
X136905000Y-80140000D02*
X136905000Y-79605000D01*
X136905000Y-79605000D02*
X136900000Y-79600000D01*
X152907494Y-79607497D02*
X152902494Y-79602497D01*
%TO.N,Net-(UB3-OVP)*%
X143905000Y-79605000D02*
X143900000Y-79600000D01*
X143905000Y-80130000D02*
X143905000Y-79605000D01*
X151907494Y-80132497D02*
X151907494Y-79607497D01*
X167907494Y-79607497D02*
X167902494Y-79602497D01*
X159907494Y-80132497D02*
X159907494Y-79607497D01*
X159907494Y-79607497D02*
X159902494Y-79602497D01*
X167907494Y-80132497D02*
X167907494Y-79607497D01*
X135905000Y-79605000D02*
X135900000Y-79600000D01*
X151907494Y-79607497D02*
X151902494Y-79602497D01*
X135905000Y-80130000D02*
X135905000Y-79605000D01*
%TO.N,Net-(UB3-RES)*%
X142905000Y-84495000D02*
X142900000Y-84500000D01*
X134905000Y-84495000D02*
X134900000Y-84500000D01*
X166907494Y-84497497D02*
X166902494Y-84502497D01*
X150907494Y-84497497D02*
X150902494Y-84502497D01*
X158907494Y-84497497D02*
X158902494Y-84502497D01*
X158907494Y-83992497D02*
X158907494Y-84497497D01*
X142905000Y-83990000D02*
X142905000Y-84495000D01*
X134905000Y-83990000D02*
X134905000Y-84495000D01*
X166907494Y-83992497D02*
X166907494Y-84497497D01*
X150907494Y-83992497D02*
X150907494Y-84497497D01*
D23*
%TO.N,Net-(UB3-HS2)*%
X169244495Y-83735497D02*
X170330539Y-83735497D01*
X138328045Y-83733000D02*
X138598152Y-84003107D01*
X154600646Y-84005604D02*
X154707494Y-84005604D01*
X152902494Y-84502497D02*
X152902494Y-84077498D01*
X146598152Y-84003107D02*
X146705000Y-84003107D01*
X170330539Y-83735497D02*
X170600646Y-84005604D01*
X145242001Y-83733000D02*
X146328045Y-83733000D01*
X161244495Y-83735497D02*
X162330539Y-83735497D01*
X168902494Y-84077498D02*
X169244495Y-83735497D01*
X160902494Y-84502497D02*
X160902494Y-84077498D01*
X160902494Y-84077498D02*
X161244495Y-83735497D01*
X138598152Y-84003107D02*
X138705000Y-84003107D01*
X168902494Y-84502497D02*
X168902494Y-84077498D01*
X162330539Y-83735497D02*
X162600646Y-84005604D01*
X136900000Y-84075001D02*
X137242001Y-83733000D01*
X136900000Y-84500000D02*
X136900000Y-84075001D01*
X146328045Y-83733000D02*
X146598152Y-84003107D01*
X153244495Y-83735497D02*
X154330539Y-83735497D01*
X152902494Y-84077498D02*
X153244495Y-83735497D01*
X170600646Y-84005604D02*
X170707494Y-84005604D01*
X162600646Y-84005604D02*
X162707494Y-84005604D01*
X144900000Y-84500000D02*
X144900000Y-84075001D01*
X137242001Y-83733000D02*
X138328045Y-83733000D01*
X144900000Y-84075001D02*
X145242001Y-83733000D01*
X154330539Y-83735497D02*
X154600646Y-84005604D01*
D22*
%TO.N,Net-(UB3-CS)*%
X166903840Y-80113087D02*
X166903840Y-79603843D01*
X142901346Y-79601346D02*
X142900000Y-79600000D01*
X166903840Y-79603843D02*
X166902494Y-79602497D01*
X158903840Y-80113087D02*
X158903840Y-79603843D01*
X134901346Y-79601346D02*
X134900000Y-79600000D01*
X150903840Y-80113087D02*
X150903840Y-79603843D01*
X158903840Y-79603843D02*
X158902494Y-79602497D01*
X134901346Y-80110590D02*
X134901346Y-79601346D01*
X150903840Y-79603843D02*
X150902494Y-79602497D01*
X142901346Y-80110590D02*
X142901346Y-79601346D01*
%TO.N,Net-(UB3-RAMP)*%
X151402494Y-79602497D02*
X151402494Y-80317497D01*
X167402494Y-80317497D02*
X167397494Y-80322497D01*
X167402494Y-79602497D02*
X167402494Y-80317497D01*
X159402494Y-79602497D02*
X159402494Y-80317497D01*
X151402494Y-80317497D02*
X151397494Y-80322497D01*
X143400000Y-80315000D02*
X143395000Y-80320000D01*
X135400000Y-79600000D02*
X135400000Y-80315000D01*
X143400000Y-79600000D02*
X143400000Y-80315000D01*
X159402494Y-80317497D02*
X159397494Y-80322497D01*
X135400000Y-80315000D02*
X135395000Y-80320000D01*
%TO.N,Net-(UB3-VCC)*%
X138291048Y-82485194D02*
X138355854Y-82550000D01*
X170132496Y-82487691D02*
X170293542Y-82487691D01*
X170293542Y-82487691D02*
X170358348Y-82552497D01*
X162358348Y-82552497D02*
X162852494Y-82552497D01*
X154358348Y-82552497D02*
X154852494Y-82552497D01*
X170358348Y-82552497D02*
X170852494Y-82552497D01*
X162293542Y-82487691D02*
X162358348Y-82552497D01*
X146355854Y-82550000D02*
X146850000Y-82550000D01*
X138355854Y-82550000D02*
X138850000Y-82550000D01*
X154293542Y-82487691D02*
X154358348Y-82552497D01*
X154132496Y-82487691D02*
X154293542Y-82487691D01*
X146291048Y-82485194D02*
X146355854Y-82550000D01*
X138130002Y-82485194D02*
X138291048Y-82485194D01*
X162132496Y-82487691D02*
X162293542Y-82487691D01*
X146130002Y-82485194D02*
X146291048Y-82485194D01*
D23*
%TO.N,Net-(UB4-B4)*%
X133452000Y-106212265D02*
X133771000Y-105893265D01*
X144550000Y-109750000D02*
X143515000Y-109750000D01*
X133452000Y-108887000D02*
X133452000Y-106212265D01*
X152715000Y-109750000D02*
X151852000Y-108887000D01*
X115052000Y-106212265D02*
X115371000Y-105893265D01*
X124252000Y-106212265D02*
X124571000Y-105893265D01*
X125115000Y-109750000D02*
X124252000Y-108887000D01*
X124252000Y-108887000D02*
X124252000Y-106212265D01*
X115915000Y-109750000D02*
X115052000Y-108887000D01*
X134315000Y-109750000D02*
X133452000Y-108887000D01*
X116950000Y-109750000D02*
X115915000Y-109750000D01*
X142652000Y-106212265D02*
X142971000Y-105893265D01*
X151852000Y-108887000D02*
X151852000Y-106212265D01*
X135350000Y-109750000D02*
X134315000Y-109750000D01*
X151852000Y-106212265D02*
X152171000Y-105893265D01*
X142652000Y-108887000D02*
X142652000Y-106212265D01*
X143515000Y-109750000D02*
X142652000Y-108887000D01*
X115052000Y-108887000D02*
X115052000Y-106212265D01*
X153750000Y-109750000D02*
X152715000Y-109750000D01*
X126150000Y-109750000D02*
X125115000Y-109750000D01*
%TO.N,Net-(UB4-A2)*%
X141491397Y-107083000D02*
X141617000Y-107208603D01*
X123217000Y-107208603D02*
X123217000Y-109115002D01*
X150691397Y-107083000D02*
X150817000Y-107208603D01*
X132291397Y-107083000D02*
X132417000Y-107208603D01*
X139827000Y-107083000D02*
X141491397Y-107083000D01*
X141617000Y-107208603D02*
X141617000Y-109115002D01*
X132417000Y-107208603D02*
X132417000Y-109115002D01*
X114017000Y-107208603D02*
X114017000Y-109115002D01*
X112227000Y-107083000D02*
X113891397Y-107083000D01*
X121427000Y-107083000D02*
X123091397Y-107083000D01*
X112100000Y-107210000D02*
X112227000Y-107083000D01*
X149027000Y-107083000D02*
X150691397Y-107083000D01*
X130500000Y-107210000D02*
X130627000Y-107083000D01*
X150817000Y-107208603D02*
X150817000Y-109115002D01*
X113891397Y-107083000D02*
X114017000Y-107208603D01*
X130627000Y-107083000D02*
X132291397Y-107083000D01*
X148900000Y-107210000D02*
X149027000Y-107083000D01*
X121300000Y-107210000D02*
X121427000Y-107083000D01*
X123091397Y-107083000D02*
X123217000Y-107208603D01*
X139700000Y-107210000D02*
X139827000Y-107083000D01*
%TO.N,Net-(UB4-GND1-Pad2)*%
X130500000Y-112290000D02*
X132036000Y-112290000D01*
X133052000Y-105811603D02*
X133052000Y-111528000D01*
X148900000Y-104670000D02*
X150436000Y-104670000D01*
X114652000Y-111528000D02*
X113890000Y-112290000D01*
X142252000Y-105811603D02*
X142252000Y-111528000D01*
X123090000Y-112290000D02*
X122836000Y-112290000D01*
X133052000Y-111528000D02*
X132290000Y-112290000D01*
X122836000Y-104795603D02*
X123852000Y-105811603D01*
X114652000Y-105811603D02*
X114652000Y-111528000D01*
X123852000Y-111528000D02*
X123090000Y-112290000D01*
X113636000Y-104670000D02*
X113636000Y-104795603D01*
X121300000Y-104670000D02*
X122836000Y-104670000D01*
X132290000Y-112290000D02*
X132036000Y-112290000D01*
X148900000Y-112290000D02*
X150436000Y-112290000D01*
X113890000Y-112290000D02*
X113636000Y-112290000D01*
X139700000Y-112290000D02*
X141236000Y-112290000D01*
X132036000Y-104795603D02*
X133052000Y-105811603D01*
X139700000Y-104670000D02*
X141236000Y-104670000D01*
X151452000Y-111528000D02*
X150690000Y-112290000D01*
X142252000Y-111528000D02*
X141490000Y-112290000D01*
X112100000Y-112290000D02*
X113636000Y-112290000D01*
X141490000Y-112290000D02*
X141236000Y-112290000D01*
X132036000Y-104670000D02*
X132036000Y-104795603D01*
X121300000Y-112290000D02*
X122836000Y-112290000D01*
X141236000Y-104795603D02*
X142252000Y-105811603D01*
X123852000Y-105811603D02*
X123852000Y-111528000D01*
X112100000Y-104670000D02*
X113636000Y-104670000D01*
X122836000Y-104670000D02*
X122836000Y-104795603D01*
X113636000Y-104795603D02*
X114652000Y-105811603D01*
X151452000Y-105811603D02*
X151452000Y-111528000D01*
X141236000Y-104670000D02*
X141236000Y-104795603D01*
X150436000Y-104670000D02*
X150436000Y-104795603D01*
X130500000Y-104670000D02*
X132036000Y-104670000D01*
X150690000Y-112290000D02*
X150436000Y-112290000D01*
X150436000Y-104795603D02*
X151452000Y-105811603D01*
%TO.N,Net-(UB4-B2)*%
X152642732Y-107210000D02*
X152419000Y-106986268D01*
X144550000Y-107210000D02*
X143442732Y-107210000D01*
X126150000Y-107210000D02*
X125042732Y-107210000D01*
X135350000Y-107210000D02*
X134242732Y-107210000D01*
X134242732Y-107210000D02*
X134019000Y-106986268D01*
X153750000Y-107210000D02*
X152642732Y-107210000D01*
X116950000Y-107210000D02*
X115842732Y-107210000D01*
X125042732Y-107210000D02*
X124819000Y-106986268D01*
X143442732Y-107210000D02*
X143219000Y-106986268D01*
X115842732Y-107210000D02*
X115619000Y-106986268D01*
%TO.N,Net-(UB4-GND2-Pad15)*%
X133306000Y-112290000D02*
X133252000Y-112236000D01*
X114852000Y-105601761D02*
X114906000Y-105547761D01*
X124106000Y-105547761D02*
X124106000Y-104924000D01*
X133252000Y-112236000D02*
X133252000Y-105601761D01*
X126150000Y-104670000D02*
X123852000Y-104670000D01*
X114906000Y-112290000D02*
X114852000Y-112236000D01*
X151706000Y-112290000D02*
X151652000Y-112236000D01*
X114852000Y-112236000D02*
X114852000Y-105601761D01*
X116950000Y-112290000D02*
X114906000Y-112290000D01*
X142506000Y-112290000D02*
X142452000Y-112236000D01*
X124106000Y-112290000D02*
X124052000Y-112236000D01*
X153750000Y-112290000D02*
X151706000Y-112290000D01*
X124052000Y-105601761D02*
X124106000Y-105547761D01*
X114906000Y-105547761D02*
X114906000Y-104924000D01*
X153750000Y-104670000D02*
X151452000Y-104670000D01*
X142452000Y-105601761D02*
X142506000Y-105547761D01*
X151652000Y-105601761D02*
X151706000Y-105547761D01*
X144550000Y-104670000D02*
X142252000Y-104670000D01*
X124052000Y-112236000D02*
X124052000Y-105601761D01*
X135350000Y-112290000D02*
X133306000Y-112290000D01*
X133306000Y-105547761D02*
X133306000Y-104924000D01*
X142452000Y-112236000D02*
X142452000Y-105601761D01*
X151706000Y-105547761D02*
X151706000Y-104924000D01*
X126150000Y-112290000D02*
X124106000Y-112290000D01*
X142506000Y-104924000D02*
X142252000Y-104670000D01*
X142506000Y-105547761D02*
X142506000Y-104924000D01*
X133252000Y-105601761D02*
X133306000Y-105547761D01*
X124106000Y-104924000D02*
X123852000Y-104670000D01*
X114906000Y-104924000D02*
X114652000Y-104670000D01*
X151652000Y-112236000D02*
X151652000Y-105601761D01*
X116950000Y-104670000D02*
X114652000Y-104670000D01*
X135350000Y-104670000D02*
X133052000Y-104670000D01*
X133306000Y-104924000D02*
X133052000Y-104670000D01*
X151706000Y-104924000D02*
X151452000Y-104670000D01*
X144550000Y-112290000D02*
X142506000Y-112290000D01*
%TO.N,Net-(UB4-VDD2)*%
X143100000Y-103610000D02*
X144509000Y-103610000D01*
X115500000Y-103610000D02*
X116909000Y-103610000D01*
X152300000Y-103610000D02*
X153709000Y-103610000D01*
X133900000Y-103610000D02*
X135309000Y-103610000D01*
X124700000Y-103610000D02*
X126109000Y-103610000D01*
%TO.N,Net-(UB4-VDD1)*%
X130459000Y-103610000D02*
X131868000Y-103610000D01*
X121259000Y-103610000D02*
X122668000Y-103610000D01*
X139659000Y-103610000D02*
X141068000Y-103610000D01*
X112059000Y-103610000D02*
X113468000Y-103610000D01*
X148859000Y-103610000D02*
X150268000Y-103610000D01*
%TO.N,Net-(UB4-EN2)*%
X152341000Y-111020000D02*
X153750000Y-111020000D01*
X115541000Y-111020000D02*
X116950000Y-111020000D01*
X133941000Y-111020000D02*
X135350000Y-111020000D01*
X124741000Y-111020000D02*
X126150000Y-111020000D01*
X143141000Y-111020000D02*
X144550000Y-111020000D01*
%TO.N,Net-(UB4-B3)*%
X143115000Y-107790158D02*
X143115000Y-107753792D01*
X144550000Y-108480000D02*
X143804842Y-108480000D01*
X133999472Y-107669320D02*
X134102000Y-107669320D01*
X116204842Y-108480000D02*
X115515000Y-107790158D01*
X153004842Y-108480000D02*
X152315000Y-107790158D01*
X143804842Y-108480000D02*
X143115000Y-107790158D01*
X115515000Y-107790158D02*
X115515000Y-107753792D01*
X115599472Y-107669320D02*
X115702000Y-107669320D01*
X143115000Y-107753792D02*
X143199472Y-107669320D01*
X124799472Y-107669320D02*
X124902000Y-107669320D01*
X152315000Y-107790158D02*
X152315000Y-107753792D01*
X143199472Y-107669320D02*
X143302000Y-107669320D01*
X153750000Y-108480000D02*
X153004842Y-108480000D01*
X135350000Y-108480000D02*
X134604842Y-108480000D01*
X115515000Y-107753792D02*
X115599472Y-107669320D01*
X126150000Y-108480000D02*
X125404842Y-108480000D01*
X152315000Y-107753792D02*
X152399472Y-107669320D01*
X124715000Y-107753792D02*
X124799472Y-107669320D01*
X152399472Y-107669320D02*
X152502000Y-107669320D01*
X133915000Y-107790158D02*
X133915000Y-107753792D01*
X116950000Y-108480000D02*
X116204842Y-108480000D01*
X125404842Y-108480000D02*
X124715000Y-107790158D01*
X134604842Y-108480000D02*
X133915000Y-107790158D01*
X124715000Y-107790158D02*
X124715000Y-107753792D01*
X133915000Y-107753792D02*
X133999472Y-107669320D01*
%TO.N,Net-(UB4-A3)*%
X139700000Y-108480000D02*
X141109000Y-108480000D01*
X121300000Y-108480000D02*
X122709000Y-108480000D01*
X113636000Y-108353000D02*
X113636000Y-107464000D01*
X141109000Y-108480000D02*
X141236000Y-108353000D01*
X148900000Y-108480000D02*
X150309000Y-108480000D01*
X150309000Y-108480000D02*
X150436000Y-108353000D01*
X122709000Y-108480000D02*
X122836000Y-108353000D01*
X150436000Y-108353000D02*
X150436000Y-107464000D01*
X113509000Y-108480000D02*
X113636000Y-108353000D01*
X131909000Y-108480000D02*
X132036000Y-108353000D01*
X130500000Y-108480000D02*
X131909000Y-108480000D01*
X141236000Y-108353000D02*
X141236000Y-107464000D01*
X122836000Y-108353000D02*
X122836000Y-107464000D01*
X132036000Y-108353000D02*
X132036000Y-107464000D01*
X112100000Y-108480000D02*
X113509000Y-108480000D01*
%TO.N,Net-(UB4-B1)*%
X133652000Y-108191000D02*
X133652000Y-106570923D01*
X115882923Y-105940000D02*
X116950000Y-105940000D01*
X124452000Y-108191000D02*
X124452000Y-106570923D01*
X125082923Y-105940000D02*
X126150000Y-105940000D01*
X115541000Y-108480000D02*
X115252000Y-108191000D01*
X124452000Y-106570923D02*
X125082923Y-105940000D01*
X134282923Y-105940000D02*
X135350000Y-105940000D01*
X143141000Y-108480000D02*
X142852000Y-108191000D01*
X115252000Y-108191000D02*
X115252000Y-106570923D01*
X152341000Y-108480000D02*
X152052000Y-108191000D01*
X142852000Y-108191000D02*
X142852000Y-106570923D01*
X152052000Y-108191000D02*
X152052000Y-106570923D01*
X142852000Y-106570923D02*
X143482923Y-105940000D01*
X152682923Y-105940000D02*
X153750000Y-105940000D01*
X133652000Y-106570923D02*
X134282923Y-105940000D01*
X152052000Y-106570923D02*
X152682923Y-105940000D01*
X115252000Y-106570923D02*
X115882923Y-105940000D01*
X143482923Y-105940000D02*
X144550000Y-105940000D01*
X124741000Y-108480000D02*
X124452000Y-108191000D01*
X133941000Y-108480000D02*
X133652000Y-108191000D01*
%TO.N,Net-(UB4-A1)*%
X121300000Y-105940000D02*
X122455000Y-105940000D01*
X139700000Y-105940000D02*
X140855000Y-105940000D01*
X130500000Y-105940000D02*
X131655000Y-105940000D01*
X148900000Y-105940000D02*
X150055000Y-105940000D01*
X150055000Y-105940000D02*
X150563000Y-106448000D01*
X140855000Y-105940000D02*
X141363000Y-106448000D01*
X131655000Y-105940000D02*
X132163000Y-106448000D01*
X113255000Y-105940000D02*
X113763000Y-106448000D01*
X122455000Y-105940000D02*
X122963000Y-106448000D01*
X112100000Y-105940000D02*
X113255000Y-105940000D01*
%TO.N,Net-(UB4-A4)*%
X150818399Y-109750000D02*
X151168000Y-109400399D01*
X114368000Y-106037000D02*
X114271000Y-105940000D01*
X121300000Y-109750000D02*
X123218399Y-109750000D01*
X112100000Y-109750000D02*
X114018399Y-109750000D01*
X151168000Y-106037000D02*
X151071000Y-105940000D01*
X114368000Y-109400399D02*
X114368000Y-106037000D01*
X141968000Y-109400399D02*
X141968000Y-106037000D01*
X141618399Y-109750000D02*
X141968000Y-109400399D01*
X132768000Y-109400399D02*
X132768000Y-106037000D01*
X123568000Y-109400399D02*
X123568000Y-106037000D01*
X123568000Y-106037000D02*
X123471000Y-105940000D01*
X151168000Y-109400399D02*
X151168000Y-106037000D01*
X148900000Y-109750000D02*
X150818399Y-109750000D01*
X114018399Y-109750000D02*
X114368000Y-109400399D01*
X123218399Y-109750000D02*
X123568000Y-109400399D01*
X132418399Y-109750000D02*
X132768000Y-109400399D01*
X132768000Y-106037000D02*
X132671000Y-105940000D01*
X130500000Y-109750000D02*
X132418399Y-109750000D01*
X139700000Y-109750000D02*
X141618399Y-109750000D01*
X141968000Y-106037000D02*
X141871000Y-105940000D01*
%TO.N,Net-(UB4-EN1)*%
X141271000Y-111020000D02*
X141341000Y-111090000D01*
X121300000Y-111020000D02*
X122871000Y-111020000D01*
X139700000Y-111020000D02*
X141271000Y-111020000D01*
X132071000Y-111020000D02*
X132141000Y-111090000D01*
X150471000Y-111020000D02*
X150541000Y-111090000D01*
X130500000Y-111020000D02*
X132071000Y-111020000D01*
X112100000Y-111020000D02*
X113671000Y-111020000D01*
X113671000Y-111020000D02*
X113741000Y-111090000D01*
X122871000Y-111020000D02*
X122941000Y-111090000D01*
X148900000Y-111020000D02*
X150471000Y-111020000D01*
%TO.N,Net-(UT5-A)*%
X87789000Y-111030000D02*
X89325000Y-111030000D01*
X96989000Y-111035000D02*
X98525000Y-111035000D01*
X78589000Y-111030000D02*
X80125000Y-111030000D01*
X106189000Y-111035000D02*
X107725000Y-111035000D01*
X69389000Y-111025000D02*
X70925000Y-111025000D01*
%TO.N,Net-(UT5-DI)*%
X67738000Y-112295000D02*
X66075000Y-112295000D01*
X86138000Y-112300000D02*
X84475000Y-112300000D01*
X95338000Y-112305000D02*
X93675000Y-112305000D01*
X104538000Y-112305000D02*
X102875000Y-112305000D01*
X76938000Y-112300000D02*
X75275000Y-112300000D01*
%TO.N,Net-(UT5-GND)*%
X89325000Y-112300000D02*
X87789000Y-112300000D01*
X107725000Y-112305000D02*
X106189000Y-112305000D01*
X70925000Y-112295000D02*
X69389000Y-112295000D01*
X80125000Y-112300000D02*
X78589000Y-112300000D01*
X98525000Y-112305000D02*
X96989000Y-112305000D01*
%TO.N,Net-(UT5-B)*%
X87789000Y-109760000D02*
X89325000Y-109760000D01*
X96989000Y-109765000D02*
X98525000Y-109765000D01*
X106189000Y-109765000D02*
X107725000Y-109765000D01*
X78589000Y-109760000D02*
X80125000Y-109760000D01*
X69389000Y-109755000D02*
X70925000Y-109755000D01*
%TO.N,Net-(UT5-DE)*%
X95338000Y-111035000D02*
X93675000Y-111035000D01*
X104538000Y-111035000D02*
X102875000Y-111035000D01*
X67738000Y-111025000D02*
X66075000Y-111025000D01*
X76938000Y-111030000D02*
X75275000Y-111030000D01*
X86138000Y-111030000D02*
X84475000Y-111030000D01*
%TO.N,Net-(UT5-RO)*%
X95338000Y-108495000D02*
X93675000Y-108495000D01*
X67738000Y-108485000D02*
X66075000Y-108485000D01*
X104538000Y-108495000D02*
X102875000Y-108495000D01*
X86138000Y-108490000D02*
X84475000Y-108490000D01*
X76938000Y-108490000D02*
X75275000Y-108490000D01*
%TD*%
M02*
