M48
; DRILL file {KiCad 9.0.1} date 2025-04-16T14:05:33+0200
; FORMAT={-:-/ absolute / inch / decimal}
; #@! TF.CreationDate,2025-04-16T14:05:33+02:00
; #@! TF.GenerationSoftware,Kicad,Pcbnew,9.0.1
; #@! TF.FileFunction,Plated,1,2,PTH
FMAT,2
INCH
; #@! TA.AperFunction,Plated,PTH,ViaDrill
T1C0.0079
; #@! TA.AperFunction,Plated,PTH,ComponentDrill
T2C0.0079
; #@! TA.AperFunction,Plated,PTH,ViaDrill
T3C0.0126
%
G90
G05
T1
X2.6669Y-4.2711
X2.6669Y-4.3711
X2.6669Y-4.4211
X2.7319Y-4.3211
X2.7319Y-4.3711
X2.7319Y-4.4211
X3.0291Y-4.2713
X3.0291Y-4.3713
X3.0291Y-4.4213
X3.0941Y-4.3213
X3.0941Y-4.3713
X3.0941Y-4.4213
X3.3913Y-4.2713
X3.3913Y-4.3713
X3.3913Y-4.4213
X3.4563Y-4.3213
X3.4563Y-4.3713
X3.4563Y-4.4213
X3.7535Y-4.2715
X3.7535Y-4.3715
X3.7535Y-4.4215
X3.8185Y-4.3215
X3.8185Y-4.3715
X3.8185Y-4.4215
X4.1157Y-4.2715
X4.1157Y-4.3715
X4.1157Y-4.4215
X4.1807Y-4.3215
X4.1807Y-4.3715
X4.1807Y-4.4215
X4.4672Y-4.0791
X4.4739Y-4.1209
X4.4739Y-4.2309
X4.4739Y-4.4209
X4.478Y-4.3736
X4.4789Y-4.1909
X4.4889Y-4.2959
X4.4989Y-4.1709
X4.5139Y-4.1209
X4.5239Y-4.4209
X4.5422Y-4.169
X4.5472Y-4.0791
X4.5489Y-4.2709
X4.5489Y-4.3709
X4.5519Y-4.2121
X4.5552Y-4.2389
X4.8294Y-4.0791
X4.8361Y-4.1209
X4.8361Y-4.2309
X4.8361Y-4.4209
X4.8402Y-4.3736
X4.8411Y-4.1909
X4.8511Y-4.2959
X4.8611Y-4.1709
X4.8761Y-4.1209
X4.8861Y-4.4209
X4.9044Y-4.169
X4.9094Y-4.0791
X4.9111Y-4.2709
X4.9111Y-4.3709
X4.9141Y-4.2121
X4.9174Y-4.2389
X5.1917Y-4.0791
X5.1983Y-4.1209
X5.1983Y-4.2309
X5.1983Y-4.4209
X5.2024Y-4.3736
X5.2033Y-4.1909
X5.2133Y-4.2959
X5.2233Y-4.1709
X5.2383Y-4.1209
X5.2483Y-4.4209
X5.2666Y-4.169
X5.2717Y-4.0791
X5.2733Y-4.2709
X5.2733Y-4.3709
X5.2763Y-4.2121
X5.2796Y-4.2389
X5.2911Y-3.2303
X5.2911Y-3.2697
X5.2915Y-3.1909
X5.299Y-3.25
X5.299Y-3.2894
X5.2994Y-3.1713
X5.2994Y-3.2106
X5.3111Y-3.154
X5.3112Y-3.3067
X5.3305Y-3.1622
X5.3309Y-3.2984
X5.3506Y-3.1547
X5.3506Y-3.3063
X5.3703Y-3.1622
X5.3703Y-3.2984
X5.39Y-3.1551
X5.4096Y-3.1622
X5.4291Y-3.1548
X5.4382Y-3.2683
X5.4382Y-3.1848
X5.4382Y-3.2057
X5.4382Y-3.2266
X5.4382Y-3.2474
X5.4478Y-3.3244
X5.4608Y-3.3072
X5.4628Y-3.3372
X5.4667Y-3.1563
X5.4762Y-3.3228
X5.5539Y-4.0791
X5.5605Y-4.1209
X5.5605Y-4.2309
X5.5605Y-4.4209
X5.5646Y-4.3736
X5.5655Y-4.1909
X5.5755Y-4.2959
X5.5855Y-4.1709
X5.6005Y-4.1209
X5.6061Y-3.2303
X5.6061Y-3.2697
X5.6065Y-3.1909
X5.6105Y-4.4209
X5.614Y-3.25
X5.614Y-3.2894
X5.6144Y-3.1713
X5.6144Y-3.2106
X5.626Y-3.154
X5.6262Y-3.3067
X5.6288Y-4.169
X5.6339Y-4.0791
X5.6355Y-4.2709
X5.6355Y-4.3709
X5.6385Y-4.2121
X5.6418Y-4.2389
X5.6455Y-3.1622
X5.6459Y-3.2984
X5.6656Y-3.1547
X5.6656Y-3.3063
X5.6852Y-3.1622
X5.6852Y-3.2984
X5.7049Y-3.1551
X5.7245Y-3.1622
X5.7441Y-3.1548
X5.7531Y-3.2683
X5.7531Y-3.1848
X5.7531Y-3.2057
X5.7531Y-3.2266
X5.7531Y-3.2474
X5.7628Y-3.3244
X5.7758Y-3.3072
X5.7777Y-3.3372
X5.7817Y-3.1563
X5.7911Y-3.3228
X5.9161Y-4.0791
X5.9212Y-3.2304
X5.9212Y-3.2698
X5.9216Y-3.191
X5.9227Y-4.1209
X5.9227Y-4.2309
X5.9227Y-4.4209
X5.9268Y-4.3736
X5.9277Y-4.1909
X5.929Y-3.2501
X5.929Y-3.2895
X5.9294Y-3.1714
X5.9294Y-3.2107
X5.9377Y-4.2959
X5.9411Y-3.1541
X5.9412Y-3.3068
X5.9477Y-4.1709
X5.9605Y-3.1623
X5.9609Y-3.2985
X5.9627Y-4.1209
X5.9727Y-4.4209
X5.9806Y-3.1548
X5.9806Y-3.3064
X5.991Y-4.169
X5.9961Y-4.0791
X5.9977Y-4.2709
X5.9977Y-4.3709
X6.0003Y-3.1623
X6.0003Y-3.2985
X6.0007Y-4.2121
X6.004Y-4.2389
X6.02Y-3.1552
X6.0396Y-3.1623
X6.0591Y-3.1549
X6.0682Y-3.2684
X6.0682Y-3.1849
X6.0682Y-3.2058
X6.0682Y-3.2267
X6.0682Y-3.2475
X6.0779Y-3.3245
X6.0908Y-3.3073
X6.0928Y-3.3373
X6.0968Y-3.1564
X6.1062Y-3.3229
X6.1909Y-4.3366
X6.1909Y-4.3563
X6.1909Y-4.376
X6.1909Y-4.4154
X6.1909Y-4.435
X6.2361Y-3.2304
X6.2361Y-3.2698
X6.2365Y-3.191
X6.244Y-3.2501
X6.244Y-3.2895
X6.2444Y-3.1714
X6.2444Y-3.2107
X6.2561Y-3.1541
X6.2562Y-3.3068
X6.2657Y-4.435
X6.2657Y-4.3366
X6.2658Y-4.3563
X6.2658Y-4.376
X6.2658Y-4.3957
X6.2755Y-3.1623
X6.2759Y-3.2985
X6.2956Y-3.1548
X6.2956Y-3.3064
X6.3153Y-3.1623
X6.3153Y-3.2985
X6.3349Y-3.1552
X6.3546Y-3.1623
X6.372Y-4.3366
X6.372Y-4.3563
X6.372Y-4.376
X6.372Y-4.4154
X6.372Y-4.435
X6.3741Y-3.1549
X6.3832Y-3.2684
X6.3832Y-3.1849
X6.3832Y-3.2058
X6.3832Y-3.2267
X6.3832Y-3.2475
X6.3928Y-3.3245
X6.4058Y-3.3073
X6.4077Y-3.3373
X6.4117Y-3.1564
X6.4212Y-3.3229
X6.4469Y-4.435
X6.4469Y-4.3366
X6.4469Y-4.3563
X6.4469Y-4.376
X6.4469Y-4.3957
X6.5511Y-3.2304
X6.5511Y-3.2698
X6.5515Y-3.191
X6.5531Y-4.3366
X6.5531Y-4.3563
X6.5531Y-4.376
X6.5531Y-4.4154
X6.5531Y-4.435
X6.559Y-3.2501
X6.559Y-3.2895
X6.5594Y-3.1714
X6.5594Y-3.2107
X6.571Y-3.1541
X6.5712Y-3.3068
X6.5905Y-3.1623
X6.5908Y-3.2985
X6.6105Y-3.1548
X6.6105Y-3.3064
X6.628Y-4.435
X6.628Y-4.3366
X6.628Y-4.3563
X6.628Y-4.376
X6.628Y-4.3957
X6.6302Y-3.1623
X6.6302Y-3.2985
X6.6499Y-3.1552
X6.6695Y-3.1623
X6.689Y-3.1549
X6.6981Y-3.2684
X6.6981Y-3.1849
X6.6981Y-3.2058
X6.6981Y-3.2267
X6.6981Y-3.2475
X6.7078Y-3.3245
X6.7208Y-3.3073
X6.7227Y-3.3373
X6.7267Y-3.1564
X6.7343Y-4.3366
X6.7343Y-4.3563
X6.7343Y-4.376
X6.7343Y-4.4154
X6.7343Y-4.435
X6.7361Y-3.3229
X6.8091Y-4.435
X6.8091Y-4.3366
X6.8091Y-4.3563
X6.8091Y-4.376
X6.8091Y-4.3957
X6.9154Y-4.3366
X6.9154Y-4.3563
X6.9154Y-4.376
X6.9154Y-4.4154
X6.9154Y-4.435
X6.9902Y-4.435
X6.9902Y-4.3366
X6.9902Y-4.3563
X6.9902Y-4.376
X6.9902Y-4.3957
T2
X5.3445Y-3.2047
X5.3445Y-3.2047
X5.3445Y-3.2559
X5.3445Y-3.2559
X5.3957Y-3.2047
X5.3957Y-3.2047
X5.3957Y-3.2559
X5.3957Y-3.2559
X5.6594Y-3.2047
X5.6594Y-3.2047
X5.6594Y-3.2559
X5.6594Y-3.2559
X5.7106Y-3.2047
X5.7106Y-3.2047
X5.7106Y-3.2559
X5.7106Y-3.2559
X5.9745Y-3.2048
X5.9745Y-3.2048
X5.9745Y-3.256
X5.9745Y-3.256
X6.0257Y-3.2048
X6.0257Y-3.2048
X6.0257Y-3.256
X6.0257Y-3.256
X6.2283Y-4.3465
X6.2283Y-4.3465
X6.2283Y-4.3858
X6.2283Y-4.3858
X6.2283Y-4.4252
X6.2283Y-4.4252
X6.2895Y-3.2048
X6.2895Y-3.2048
X6.2895Y-3.256
X6.2895Y-3.256
X6.3406Y-3.2048
X6.3406Y-3.2048
X6.3406Y-3.256
X6.3406Y-3.256
X6.4094Y-4.3465
X6.4094Y-4.3465
X6.4094Y-4.3858
X6.4094Y-4.3858
X6.4094Y-4.4252
X6.4094Y-4.4252
X6.5906Y-4.3465
X6.5906Y-4.3465
X6.5906Y-4.3858
X6.5906Y-4.3858
X6.5906Y-4.4252
X6.5906Y-4.4252
X6.6044Y-3.2048
X6.6044Y-3.2048
X6.6044Y-3.256
X6.6044Y-3.256
X6.6556Y-3.2048
X6.6556Y-3.2048
X6.6556Y-3.256
X6.6556Y-3.256
X6.7717Y-4.3465
X6.7717Y-4.3465
X6.7717Y-4.3858
X6.7717Y-4.3858
X6.7717Y-4.4252
X6.7717Y-4.4252
X6.9528Y-4.3465
X6.9528Y-4.3465
X6.9528Y-4.3858
X6.9528Y-4.3858
X6.9528Y-4.4252
X6.9528Y-4.4252
T3
X2.6654Y-3.1315
X2.6654Y-3.1827
X2.6654Y-3.2339
X2.6654Y-3.285
X2.6654Y-3.3323
X2.6654Y-3.3835
X2.6654Y-3.4346
X2.6654Y-3.4858
X2.9055Y-3.1315
X2.9055Y-3.1839
X2.9055Y-3.2339
X2.9055Y-3.2839
X2.9055Y-3.3323
X2.9055Y-3.3835
X2.9055Y-3.4819
X3.2047Y-3.1315
X3.2047Y-3.1827
X3.2047Y-3.2339
X3.2047Y-3.285
X3.2047Y-3.3323
X3.2047Y-3.3835
X3.2047Y-3.4346
X3.2047Y-3.4858
X3.4449Y-3.1315
X3.4449Y-3.1839
X3.4449Y-3.2339
X3.4449Y-3.2839
X3.4449Y-3.3323
X3.4449Y-3.3835
X3.4449Y-3.4819
X3.7441Y-3.1315
X3.7441Y-3.1827
X3.7441Y-3.2339
X3.7441Y-3.285
X3.7441Y-3.3323
X3.7441Y-3.3835
X3.7441Y-3.4346
X3.7441Y-3.4858
X3.9843Y-3.1315
X3.9843Y-3.1839
X3.9843Y-3.2339
X3.9843Y-3.2839
X3.9843Y-3.3323
X3.9843Y-3.3835
X3.9843Y-3.4819
X4.2835Y-3.1315
X4.2835Y-3.1827
X4.2835Y-3.2339
X4.2835Y-3.285
X4.2835Y-3.3323
X4.2835Y-3.3835
X4.2835Y-3.4346
X4.2835Y-3.4858
X4.5236Y-3.1315
X4.5236Y-3.1839
X4.5236Y-3.2339
X4.5236Y-3.2839
X4.5236Y-3.3323
X4.5236Y-3.3835
X4.5236Y-3.4819
X4.8228Y-3.1315
X4.8228Y-3.1827
X4.8228Y-3.2339
X4.8228Y-3.285
X4.8228Y-3.3323
X4.8228Y-3.3835
X4.8228Y-3.4346
X4.8228Y-3.4858
X5.063Y-3.1315
X5.063Y-3.1839
X5.063Y-3.2339
X5.063Y-3.2839
X5.063Y-3.3323
X5.063Y-3.3835
X5.063Y-3.4819
M30
