%TF.GenerationSoftware,KiCad,Pcbnew,9.0.1*%
%TF.CreationDate,2025-04-16T14:08:05+02:00*%
%TF.ProjectId,cq2-adapt,6371322d-6164-4617-9074-2e6b69636164,rev?*%
%TF.SameCoordinates,Original*%
%TF.FileFunction,Soldermask,Bot*%
%TF.FilePolarity,Negative*%
%FSLAX46Y46*%
G04 Gerber Fmt 4.6, Leading zero omitted, Abs format (unit mm)*
G04 Created by KiCad (PCBNEW 9.0.1) date 2025-04-16 14:08:05*
%MOMM*%
%LPD*%
G01*
G04 APERTURE LIST*
G04 Aperture macros list*
%AMRoundRect*
0 Rectangle with rounded corners*
0 $1 Rounding radius*
0 $2 $3 $4 $5 $6 $7 $8 $9 X,Y pos of 4 corners*
0 Add a 4 corners polygon primitive as box body*
4,1,4,$2,$3,$4,$5,$6,$7,$8,$9,$2,$3,0*
0 Add four circle primitives for the rounded corners*
1,1,$1+$1,$2,$3*
1,1,$1+$1,$4,$5*
1,1,$1+$1,$6,$7*
1,1,$1+$1,$8,$9*
0 Add four rect primitives between the rounded corners*
20,1,$1+$1,$2,$3,$4,$5,0*
20,1,$1+$1,$4,$5,$6,$7,0*
20,1,$1+$1,$6,$7,$8,$9,0*
20,1,$1+$1,$8,$9,$2,$3,0*%
G04 Aperture macros list end*
%ADD10C,0.700000*%
%ADD11RoundRect,0.150000X-0.875000X-0.150000X0.875000X-0.150000X0.875000X0.150000X-0.875000X0.150000X0*%
%ADD12RoundRect,0.075000X-0.350000X0.075000X-0.350000X-0.075000X0.350000X-0.075000X0.350000X0.075000X0*%
%ADD13RoundRect,0.075000X-0.075000X-0.350000X0.075000X-0.350000X0.075000X0.350000X-0.075000X0.350000X0*%
%ADD14RoundRect,0.075000X-0.075000X-0.300000X0.075000X-0.300000X0.075000X0.300000X-0.075000X0.300000X0*%
%ADD15RoundRect,0.075000X-0.300000X0.075000X-0.300000X-0.075000X0.300000X-0.075000X0.300000X0.075000X0*%
%ADD16C,0.600000*%
%ADD17R,2.800000X2.800000*%
%ADD18RoundRect,0.170016X-0.864984X-0.159984X0.864984X-0.159984X0.864984X0.159984X-0.864984X0.159984X0*%
%ADD19RoundRect,0.062500X-0.187500X-0.062500X0.187500X-0.062500X0.187500X0.062500X-0.187500X0.062500X0*%
G04 APERTURE END LIST*
D10*
%TO.C,*%
X85900000Y-107395000D03*
%TD*%
%TO.C,*%
X137400000Y-85600000D03*
%TD*%
%TO.C,*%
X112500000Y-102400000D03*
%TD*%
%TO.C,*%
X73850000Y-89450000D03*
%TD*%
%TO.C,*%
X102050000Y-89500000D03*
%TD*%
%TO.C,*%
X132900000Y-102400000D03*
%TD*%
D11*
%TO.C,UB1*%
X120900000Y-79600000D03*
X120900000Y-80870000D03*
X120900000Y-82140000D03*
X120900000Y-83410000D03*
X120900000Y-84680000D03*
X120900000Y-85950000D03*
X120900000Y-87220000D03*
X120900000Y-88490000D03*
X130200000Y-88490000D03*
X130200000Y-87220000D03*
X130200000Y-85950000D03*
X130200000Y-84680000D03*
X130200000Y-83410000D03*
X130200000Y-82140000D03*
X130200000Y-80870000D03*
X130200000Y-79600000D03*
%TD*%
D10*
%TO.C,*%
X75850000Y-89450000D03*
%TD*%
%TO.C,*%
X68850000Y-89450000D03*
%TD*%
%TO.C,*%
X151300000Y-102400000D03*
%TD*%
%TO.C,*%
X85350000Y-89500000D03*
%TD*%
D12*
%TO.C,UB3*%
X157952494Y-80552497D03*
X157952494Y-81052497D03*
X157952494Y-81552497D03*
X157952494Y-82052497D03*
X157952494Y-82552497D03*
X157952494Y-83052497D03*
X157952494Y-83552497D03*
D13*
X158902494Y-84502497D03*
X159402494Y-84502497D03*
X159902494Y-84502497D03*
X160402494Y-84502497D03*
X160902494Y-84502497D03*
X161402494Y-84502497D03*
D14*
X161902494Y-84552497D03*
D15*
X162902494Y-83552497D03*
D12*
X162852494Y-83052497D03*
X162852494Y-82552497D03*
X162852494Y-82052497D03*
X162852494Y-81552497D03*
X162852494Y-81052497D03*
X162852494Y-80552497D03*
D13*
X161902494Y-79602497D03*
X161402494Y-79602497D03*
X160902494Y-79602497D03*
X160402494Y-79602497D03*
X159902494Y-79602497D03*
X159402494Y-79602497D03*
X158902494Y-79602497D03*
D16*
X159752494Y-81402497D03*
X159752494Y-82702497D03*
D17*
X160402494Y-82052497D03*
D16*
X161052494Y-81402497D03*
X161052494Y-82702497D03*
%TD*%
D10*
%TO.C,*%
X115500000Y-102400000D03*
%TD*%
%TO.C,*%
X88350000Y-89500000D03*
%TD*%
D18*
%TO.C,UTB6*%
X75275000Y-108490000D03*
X75275000Y-109760000D03*
X75275000Y-111030000D03*
X75275000Y-112300000D03*
X80125000Y-112300000D03*
X80125000Y-111030000D03*
X80125000Y-109760000D03*
X80125000Y-108490000D03*
%TD*%
D10*
%TO.C,*%
X104300000Y-107400000D03*
%TD*%
%TO.C,*%
X94050000Y-89500000D03*
%TD*%
%TO.C,*%
X69500000Y-107390000D03*
%TD*%
%TO.C,*%
X110750000Y-89500000D03*
%TD*%
D18*
%TO.C,UB4*%
X112100000Y-103400000D03*
X112100000Y-104670000D03*
X112100000Y-105940000D03*
X112100000Y-107210000D03*
X112100000Y-108480000D03*
X112100000Y-109750000D03*
X112100000Y-111020000D03*
X112100000Y-112290000D03*
X116950000Y-112290000D03*
X116950000Y-111020000D03*
X116950000Y-109750000D03*
X116950000Y-108480000D03*
X116950000Y-107210000D03*
X116950000Y-105940000D03*
X116950000Y-104670000D03*
X116950000Y-103400000D03*
%TD*%
D16*
%TO.C,UT3*%
X151752494Y-81402497D03*
X151752494Y-82702497D03*
X153052494Y-81402497D03*
X153052494Y-82702497D03*
%TD*%
D11*
%TO.C,UB1*%
X93500000Y-79600000D03*
X93500000Y-80870000D03*
X93500000Y-82140000D03*
X93500000Y-83410000D03*
X93500000Y-84680000D03*
X93500000Y-85950000D03*
X93500000Y-87220000D03*
X93500000Y-88490000D03*
X102800000Y-88490000D03*
X102800000Y-87220000D03*
X102800000Y-85950000D03*
X102800000Y-84680000D03*
X102800000Y-83410000D03*
X102800000Y-82140000D03*
X102800000Y-80870000D03*
X102800000Y-79600000D03*
%TD*%
D10*
%TO.C,*%
X122700000Y-102400000D03*
%TD*%
%TO.C,*%
X131900000Y-102400000D03*
%TD*%
%TO.C,*%
X161402494Y-85602497D03*
%TD*%
D19*
%TO.C,UB2*%
X175650000Y-110150000D03*
X175650000Y-110650000D03*
X175650000Y-111150000D03*
X175650000Y-111650000D03*
X175650000Y-112150000D03*
X175650000Y-112650000D03*
X177550000Y-112650000D03*
X177550000Y-112150000D03*
X177550000Y-111650000D03*
X177550000Y-111150000D03*
X177550000Y-110650000D03*
X177550000Y-110150000D03*
%TD*%
D10*
%TO.C,*%
X172600000Y-109500000D03*
%TD*%
%TO.C,*%
X120550000Y-89500000D03*
%TD*%
%TO.C,*%
X163400000Y-109500000D03*
%TD*%
%TO.C,*%
X121550000Y-89500000D03*
%TD*%
%TO.C,*%
X126550000Y-89500000D03*
%TD*%
%TO.C,*%
X80350000Y-89500000D03*
%TD*%
%TO.C,*%
X111500000Y-102400000D03*
%TD*%
%TO.C,*%
X136400000Y-85600000D03*
%TD*%
D16*
%TO.C,UT3*%
X143750000Y-81400000D03*
X143750000Y-82700000D03*
X145050000Y-81400000D03*
X145050000Y-82700000D03*
%TD*%
D10*
%TO.C,*%
X107300000Y-107400000D03*
%TD*%
%TO.C,*%
X115750000Y-89500000D03*
%TD*%
%TO.C,*%
X130550000Y-89500000D03*
%TD*%
D19*
%TO.C,UB2*%
X166450000Y-110150000D03*
X166450000Y-110650000D03*
X166450000Y-111150000D03*
X166450000Y-111650000D03*
X166450000Y-112150000D03*
X166450000Y-112650000D03*
X168350000Y-112650000D03*
X168350000Y-112150000D03*
X168350000Y-111650000D03*
X168350000Y-111150000D03*
X168350000Y-110650000D03*
X168350000Y-110150000D03*
%TD*%
D10*
%TO.C,*%
X69850000Y-89450000D03*
%TD*%
%TO.C,*%
X113500000Y-102400000D03*
%TD*%
D11*
%TO.C,UB1*%
X107200000Y-79600000D03*
X107200000Y-80870000D03*
X107200000Y-82140000D03*
X107200000Y-83410000D03*
X107200000Y-84680000D03*
X107200000Y-85950000D03*
X107200000Y-87220000D03*
X107200000Y-88490000D03*
X116500000Y-88490000D03*
X116500000Y-87220000D03*
X116500000Y-85950000D03*
X116500000Y-84680000D03*
X116500000Y-83410000D03*
X116500000Y-82140000D03*
X116500000Y-80870000D03*
X116500000Y-79600000D03*
%TD*%
D10*
%TO.C,*%
X74850000Y-89450000D03*
%TD*%
%TO.C,*%
X67850000Y-89450000D03*
%TD*%
%TO.C,*%
X129900000Y-102400000D03*
%TD*%
%TO.C,*%
X153300000Y-102400000D03*
%TD*%
%TO.C,*%
X145100000Y-102400000D03*
%TD*%
%TO.C,*%
X130900000Y-102400000D03*
%TD*%
%TO.C,*%
X65500000Y-107390000D03*
%TD*%
%TO.C,*%
X142100000Y-102400000D03*
%TD*%
%TO.C,*%
X83350000Y-89500000D03*
%TD*%
%TO.C,*%
X158402494Y-85602497D03*
%TD*%
%TO.C,*%
X154402494Y-85602497D03*
%TD*%
%TO.C,*%
X133900000Y-102400000D03*
%TD*%
%TO.C,*%
X75700000Y-107395000D03*
%TD*%
%TO.C,*%
X148300000Y-102400000D03*
%TD*%
%TO.C,*%
X105300000Y-107400000D03*
%TD*%
%TO.C,*%
X66500000Y-107390000D03*
%TD*%
%TO.C,*%
X68500000Y-107390000D03*
%TD*%
%TO.C,*%
X142400000Y-85600000D03*
%TD*%
%TO.C,*%
X116750000Y-89500000D03*
%TD*%
%TO.C,*%
X124700000Y-102400000D03*
%TD*%
%TO.C,*%
X176000000Y-109500000D03*
%TD*%
D19*
%TO.C,UB2*%
X157250000Y-110150000D03*
X157250000Y-110650000D03*
X157250000Y-111150000D03*
X157250000Y-111650000D03*
X157250000Y-112150000D03*
X157250000Y-112650000D03*
X159150000Y-112650000D03*
X159150000Y-112150000D03*
X159150000Y-111650000D03*
X159150000Y-111150000D03*
X159150000Y-110650000D03*
X159150000Y-110150000D03*
%TD*%
D10*
%TO.C,*%
X159402494Y-85602497D03*
%TD*%
%TO.C,*%
X134400000Y-85600000D03*
%TD*%
%TO.C,*%
X77700000Y-107395000D03*
%TD*%
D11*
%TO.C,UB1*%
X66100000Y-79600000D03*
X66100000Y-80870000D03*
X66100000Y-82140000D03*
X66100000Y-83410000D03*
X66100000Y-84680000D03*
X66100000Y-85950000D03*
X66100000Y-87220000D03*
X66100000Y-88490000D03*
X75400000Y-88490000D03*
X75400000Y-87220000D03*
X75400000Y-85950000D03*
X75400000Y-84680000D03*
X75400000Y-83410000D03*
X75400000Y-82140000D03*
X75400000Y-80870000D03*
X75400000Y-79600000D03*
%TD*%
D10*
%TO.C,*%
X71500000Y-107390000D03*
%TD*%
%TO.C,*%
X103050000Y-89500000D03*
%TD*%
D18*
%TO.C,UTB6*%
X93675000Y-108495000D03*
X93675000Y-109765000D03*
X93675000Y-111035000D03*
X93675000Y-112305000D03*
X98525000Y-112305000D03*
X98525000Y-111035000D03*
X98525000Y-109765000D03*
X98525000Y-108495000D03*
%TD*%
D10*
%TO.C,*%
X141100000Y-102400000D03*
%TD*%
%TO.C,*%
X70850000Y-89450000D03*
%TD*%
%TO.C,*%
X100050000Y-89500000D03*
%TD*%
%TO.C,*%
X162402494Y-85602497D03*
%TD*%
%TO.C,*%
X93100000Y-107400000D03*
%TD*%
%TO.C,*%
X152300000Y-102400000D03*
%TD*%
%TO.C,*%
X86900000Y-107395000D03*
%TD*%
D18*
%TO.C,UB4*%
X139700000Y-103400000D03*
X139700000Y-104670000D03*
X139700000Y-105940000D03*
X139700000Y-107210000D03*
X139700000Y-108480000D03*
X139700000Y-109750000D03*
X139700000Y-111020000D03*
X139700000Y-112290000D03*
X144550000Y-112290000D03*
X144550000Y-111020000D03*
X144550000Y-109750000D03*
X144550000Y-108480000D03*
X144550000Y-107210000D03*
X144550000Y-105940000D03*
X144550000Y-104670000D03*
X144550000Y-103400000D03*
%TD*%
D10*
%TO.C,*%
X86350000Y-89500000D03*
%TD*%
%TO.C,*%
X154300000Y-102400000D03*
%TD*%
%TO.C,*%
X79350000Y-89500000D03*
%TD*%
D12*
%TO.C,UB3*%
X165952494Y-80552497D03*
X165952494Y-81052497D03*
X165952494Y-81552497D03*
X165952494Y-82052497D03*
X165952494Y-82552497D03*
X165952494Y-83052497D03*
X165952494Y-83552497D03*
D13*
X166902494Y-84502497D03*
X167402494Y-84502497D03*
X167902494Y-84502497D03*
X168402494Y-84502497D03*
X168902494Y-84502497D03*
X169402494Y-84502497D03*
D14*
X169902494Y-84552497D03*
D15*
X170902494Y-83552497D03*
D12*
X170852494Y-83052497D03*
X170852494Y-82552497D03*
X170852494Y-82052497D03*
X170852494Y-81552497D03*
X170852494Y-81052497D03*
X170852494Y-80552497D03*
D13*
X169902494Y-79602497D03*
X169402494Y-79602497D03*
X168902494Y-79602497D03*
X168402494Y-79602497D03*
X167902494Y-79602497D03*
X167402494Y-79602497D03*
X166902494Y-79602497D03*
D16*
X167752494Y-81402497D03*
X167752494Y-82702497D03*
D17*
X168402494Y-82052497D03*
D16*
X169052494Y-81402497D03*
X169052494Y-82702497D03*
%TD*%
D10*
%TO.C,*%
X168402494Y-85602497D03*
%TD*%
%TO.C,*%
X150300000Y-102400000D03*
%TD*%
%TO.C,*%
X151402494Y-85602497D03*
%TD*%
%TO.C,*%
X97050000Y-89500000D03*
%TD*%
%TO.C,*%
X144100000Y-102400000D03*
%TD*%
%TO.C,*%
X162200000Y-109500000D03*
%TD*%
%TO.C,*%
X67500000Y-107390000D03*
%TD*%
%TO.C,*%
X152402494Y-85602497D03*
%TD*%
D18*
%TO.C,UB4*%
X148900000Y-103400000D03*
X148900000Y-104670000D03*
X148900000Y-105940000D03*
X148900000Y-107210000D03*
X148900000Y-108480000D03*
X148900000Y-109750000D03*
X148900000Y-111020000D03*
X148900000Y-112290000D03*
X153750000Y-112290000D03*
X153750000Y-111020000D03*
X153750000Y-109750000D03*
X153750000Y-108480000D03*
X153750000Y-107210000D03*
X153750000Y-105940000D03*
X153750000Y-104670000D03*
X153750000Y-103400000D03*
%TD*%
D10*
%TO.C,*%
X124550000Y-89500000D03*
%TD*%
%TO.C,*%
X169402494Y-85602497D03*
%TD*%
%TO.C,*%
X99050000Y-89500000D03*
%TD*%
D12*
%TO.C,UB3*%
X141950000Y-80550000D03*
X141950000Y-81050000D03*
X141950000Y-81550000D03*
X141950000Y-82050000D03*
X141950000Y-82550000D03*
X141950000Y-83050000D03*
X141950000Y-83550000D03*
D13*
X142900000Y-84500000D03*
X143400000Y-84500000D03*
X143900000Y-84500000D03*
X144400000Y-84500000D03*
X144900000Y-84500000D03*
X145400000Y-84500000D03*
D14*
X145900000Y-84550000D03*
D15*
X146900000Y-83550000D03*
D12*
X146850000Y-83050000D03*
X146850000Y-82550000D03*
X146850000Y-82050000D03*
X146850000Y-81550000D03*
X146850000Y-81050000D03*
X146850000Y-80550000D03*
D13*
X145900000Y-79600000D03*
X145400000Y-79600000D03*
X144900000Y-79600000D03*
X144400000Y-79600000D03*
X143900000Y-79600000D03*
X143400000Y-79600000D03*
X142900000Y-79600000D03*
D16*
X143750000Y-81400000D03*
X143750000Y-82700000D03*
D17*
X144400000Y-82050000D03*
D16*
X145050000Y-81400000D03*
X145050000Y-82700000D03*
%TD*%
D10*
%TO.C,*%
X121700000Y-102400000D03*
%TD*%
%TO.C,*%
X89350000Y-89500000D03*
%TD*%
%TO.C,*%
X106300000Y-107400000D03*
%TD*%
D16*
%TO.C,UT3*%
X135750000Y-81400000D03*
X135750000Y-82700000D03*
X137050000Y-81400000D03*
X137050000Y-82700000D03*
%TD*%
D10*
%TO.C,*%
X83900000Y-107395000D03*
%TD*%
%TO.C,*%
X74700000Y-107395000D03*
%TD*%
%TO.C,*%
X158800000Y-109500000D03*
%TD*%
%TO.C,*%
X79700000Y-107395000D03*
%TD*%
%TO.C,*%
X109750000Y-89500000D03*
%TD*%
%TO.C,*%
X135400000Y-85600000D03*
%TD*%
%TO.C,*%
X128550000Y-89500000D03*
%TD*%
%TO.C,*%
X108750000Y-89500000D03*
%TD*%
%TO.C,*%
X94100000Y-107400000D03*
%TD*%
%TO.C,*%
X143400000Y-85600000D03*
%TD*%
%TO.C,*%
X81350000Y-89500000D03*
%TD*%
%TO.C,*%
X97100000Y-107400000D03*
%TD*%
%TO.C,*%
X150402494Y-85602497D03*
%TD*%
%TO.C,*%
X71850000Y-89450000D03*
%TD*%
%TO.C,*%
X112750000Y-89500000D03*
%TD*%
D16*
%TO.C,UT3*%
X159752494Y-81402497D03*
X159752494Y-82702497D03*
X161052494Y-81402497D03*
X161052494Y-82702497D03*
%TD*%
D18*
%TO.C,UB4*%
X130500000Y-103400000D03*
X130500000Y-104670000D03*
X130500000Y-105940000D03*
X130500000Y-107210000D03*
X130500000Y-108480000D03*
X130500000Y-109750000D03*
X130500000Y-111020000D03*
X130500000Y-112290000D03*
X135350000Y-112290000D03*
X135350000Y-111020000D03*
X135350000Y-109750000D03*
X135350000Y-108480000D03*
X135350000Y-107210000D03*
X135350000Y-105940000D03*
X135350000Y-104670000D03*
X135350000Y-103400000D03*
%TD*%
D10*
%TO.C,*%
X116500000Y-102400000D03*
%TD*%
D18*
%TO.C,UB4*%
X121300000Y-103400000D03*
X121300000Y-104670000D03*
X121300000Y-105940000D03*
X121300000Y-107210000D03*
X121300000Y-108480000D03*
X121300000Y-109750000D03*
X121300000Y-111020000D03*
X121300000Y-112290000D03*
X126150000Y-112290000D03*
X126150000Y-111020000D03*
X126150000Y-109750000D03*
X126150000Y-108480000D03*
X126150000Y-107210000D03*
X126150000Y-105940000D03*
X126150000Y-104670000D03*
X126150000Y-103400000D03*
%TD*%
D10*
%TO.C,*%
X84900000Y-107395000D03*
%TD*%
%TO.C,*%
X89900000Y-107395000D03*
%TD*%
%TO.C,*%
X108300000Y-107400000D03*
%TD*%
%TO.C,*%
X143100000Y-102400000D03*
%TD*%
%TO.C,*%
X103300000Y-107400000D03*
%TD*%
%TO.C,*%
X177200000Y-109500000D03*
%TD*%
%TO.C,*%
X125550000Y-89500000D03*
%TD*%
%TO.C,*%
X171400000Y-109500000D03*
%TD*%
%TO.C,*%
X149300000Y-102400000D03*
%TD*%
%TO.C,*%
X114750000Y-89500000D03*
%TD*%
%TO.C,*%
X87900000Y-107395000D03*
%TD*%
%TO.C,*%
X125700000Y-102400000D03*
%TD*%
%TO.C,*%
X146400000Y-85600000D03*
%TD*%
%TO.C,*%
X135900000Y-102400000D03*
%TD*%
%TO.C,*%
X106750000Y-89500000D03*
%TD*%
%TO.C,*%
X96050000Y-89500000D03*
%TD*%
%TO.C,*%
X129550000Y-89500000D03*
%TD*%
D12*
%TO.C,UB3*%
X133950000Y-80550000D03*
X133950000Y-81050000D03*
X133950000Y-81550000D03*
X133950000Y-82050000D03*
X133950000Y-82550000D03*
X133950000Y-83050000D03*
X133950000Y-83550000D03*
D13*
X134900000Y-84500000D03*
X135400000Y-84500000D03*
X135900000Y-84500000D03*
X136400000Y-84500000D03*
X136900000Y-84500000D03*
X137400000Y-84500000D03*
D14*
X137900000Y-84550000D03*
D15*
X138900000Y-83550000D03*
D12*
X138850000Y-83050000D03*
X138850000Y-82550000D03*
X138850000Y-82050000D03*
X138850000Y-81550000D03*
X138850000Y-81050000D03*
X138850000Y-80550000D03*
D13*
X137900000Y-79600000D03*
X137400000Y-79600000D03*
X136900000Y-79600000D03*
X136400000Y-79600000D03*
X135900000Y-79600000D03*
X135400000Y-79600000D03*
X134900000Y-79600000D03*
D16*
X135750000Y-81400000D03*
X135750000Y-82700000D03*
D17*
X136400000Y-82050000D03*
D16*
X137050000Y-81400000D03*
X137050000Y-82700000D03*
%TD*%
D11*
%TO.C,UB1*%
X79800000Y-79600000D03*
X79800000Y-80870000D03*
X79800000Y-82140000D03*
X79800000Y-83410000D03*
X79800000Y-84680000D03*
X79800000Y-85950000D03*
X79800000Y-87220000D03*
X79800000Y-88490000D03*
X89100000Y-88490000D03*
X89100000Y-87220000D03*
X89100000Y-85950000D03*
X89100000Y-84680000D03*
X89100000Y-83410000D03*
X89100000Y-82140000D03*
X89100000Y-80870000D03*
X89100000Y-79600000D03*
%TD*%
D10*
%TO.C,*%
X84350000Y-89500000D03*
%TD*%
%TO.C,*%
X123700000Y-102400000D03*
%TD*%
D12*
%TO.C,UB3*%
X149952494Y-80552497D03*
X149952494Y-81052497D03*
X149952494Y-81552497D03*
X149952494Y-82052497D03*
X149952494Y-82552497D03*
X149952494Y-83052497D03*
X149952494Y-83552497D03*
D13*
X150902494Y-84502497D03*
X151402494Y-84502497D03*
X151902494Y-84502497D03*
X152402494Y-84502497D03*
X152902494Y-84502497D03*
X153402494Y-84502497D03*
D14*
X153902494Y-84552497D03*
D15*
X154902494Y-83552497D03*
D12*
X154852494Y-83052497D03*
X154852494Y-82552497D03*
X154852494Y-82052497D03*
X154852494Y-81552497D03*
X154852494Y-81052497D03*
X154852494Y-80552497D03*
D13*
X153902494Y-79602497D03*
X153402494Y-79602497D03*
X152902494Y-79602497D03*
X152402494Y-79602497D03*
X151902494Y-79602497D03*
X151402494Y-79602497D03*
X150902494Y-79602497D03*
D16*
X151752494Y-81402497D03*
X151752494Y-82702497D03*
D17*
X152402494Y-82052497D03*
D16*
X153052494Y-81402497D03*
X153052494Y-82702497D03*
%TD*%
D10*
%TO.C,*%
X102300000Y-107400000D03*
%TD*%
D18*
%TO.C,UTB6*%
X84475000Y-108490000D03*
X84475000Y-109760000D03*
X84475000Y-111030000D03*
X84475000Y-112300000D03*
X89325000Y-112300000D03*
X89325000Y-111030000D03*
X89325000Y-109760000D03*
X89325000Y-108490000D03*
%TD*%
D10*
%TO.C,*%
X66850000Y-89450000D03*
%TD*%
%TO.C,*%
X145400000Y-85600000D03*
%TD*%
%TO.C,*%
X139100000Y-102400000D03*
%TD*%
%TO.C,*%
X123550000Y-89500000D03*
%TD*%
%TO.C,*%
X113750000Y-89500000D03*
%TD*%
%TO.C,*%
X134900000Y-102400000D03*
%TD*%
%TO.C,*%
X167402494Y-85602497D03*
%TD*%
%TO.C,*%
X70500000Y-107390000D03*
%TD*%
%TO.C,*%
X166800000Y-109500000D03*
%TD*%
%TO.C,*%
X82350000Y-89500000D03*
%TD*%
%TO.C,*%
X101050000Y-89500000D03*
%TD*%
D18*
%TO.C,UTB6*%
X66075000Y-108485000D03*
X66075000Y-109755000D03*
X66075000Y-111025000D03*
X66075000Y-112295000D03*
X70925000Y-112295000D03*
X70925000Y-111025000D03*
X70925000Y-109755000D03*
X70925000Y-108485000D03*
%TD*%
D10*
%TO.C,*%
X166402494Y-85602497D03*
%TD*%
D19*
%TO.C,UB2*%
X171050000Y-110150000D03*
X171050000Y-110650000D03*
X171050000Y-111150000D03*
X171050000Y-111650000D03*
X171050000Y-112150000D03*
X171050000Y-112650000D03*
X172950000Y-112650000D03*
X172950000Y-112150000D03*
X172950000Y-111650000D03*
X172950000Y-111150000D03*
X172950000Y-110650000D03*
X172950000Y-110150000D03*
%TD*%
D10*
%TO.C,*%
X80700000Y-107395000D03*
%TD*%
%TO.C,*%
X153402494Y-85602497D03*
%TD*%
%TO.C,*%
X99100000Y-107400000D03*
%TD*%
%TO.C,*%
X96100000Y-107400000D03*
%TD*%
%TO.C,*%
X117500000Y-102400000D03*
%TD*%
D16*
%TO.C,UT3*%
X167752494Y-81402497D03*
X167752494Y-82702497D03*
X169052494Y-81402497D03*
X169052494Y-82702497D03*
%TD*%
D10*
%TO.C,*%
X122550000Y-89500000D03*
%TD*%
%TO.C,*%
X127550000Y-89500000D03*
%TD*%
%TO.C,*%
X78700000Y-107395000D03*
%TD*%
%TO.C,*%
X138400000Y-85600000D03*
%TD*%
%TO.C,*%
X98050000Y-89500000D03*
%TD*%
%TO.C,*%
X93050000Y-89500000D03*
%TD*%
%TO.C,*%
X144400000Y-85600000D03*
%TD*%
%TO.C,*%
X88900000Y-107395000D03*
%TD*%
%TO.C,*%
X157600000Y-109500000D03*
%TD*%
%TO.C,*%
X95100000Y-107400000D03*
%TD*%
%TO.C,*%
X65850000Y-89450000D03*
%TD*%
%TO.C,*%
X98100000Y-107400000D03*
%TD*%
%TO.C,*%
X95050000Y-89500000D03*
%TD*%
%TO.C,*%
X72850000Y-89450000D03*
%TD*%
%TO.C,*%
X87350000Y-89500000D03*
%TD*%
%TO.C,*%
X120700000Y-102400000D03*
%TD*%
%TO.C,*%
X160402494Y-85602497D03*
%TD*%
%TO.C,*%
X170402494Y-85602497D03*
%TD*%
%TO.C,*%
X114500000Y-102400000D03*
%TD*%
%TO.C,*%
X111750000Y-89500000D03*
%TD*%
%TO.C,*%
X126700000Y-102400000D03*
%TD*%
D19*
%TO.C,UB2*%
X161850000Y-110150000D03*
X161850000Y-110650000D03*
X161850000Y-111150000D03*
X161850000Y-111650000D03*
X161850000Y-112150000D03*
X161850000Y-112650000D03*
X163750000Y-112650000D03*
X163750000Y-112150000D03*
X163750000Y-111650000D03*
X163750000Y-111150000D03*
X163750000Y-110650000D03*
X163750000Y-110150000D03*
%TD*%
D18*
%TO.C,UTB6*%
X102875000Y-108495000D03*
X102875000Y-109765000D03*
X102875000Y-111035000D03*
X102875000Y-112305000D03*
X107725000Y-112305000D03*
X107725000Y-111035000D03*
X107725000Y-109765000D03*
X107725000Y-108495000D03*
%TD*%
D10*
%TO.C,*%
X107750000Y-89500000D03*
%TD*%
%TO.C,*%
X76700000Y-107395000D03*
%TD*%
%TO.C,*%
X140100000Y-102400000D03*
%TD*%
%TO.C,*%
X168000000Y-109500000D03*
%TD*%
M02*
