%TF.GenerationSoftware,KiCad,Pcbnew,9.0.1*%
%TF.CreationDate,2025-04-16T14:08:05+02:00*%
%TF.ProjectId,cq2-adapt,6371322d-6164-4617-9074-2e6b69636164,rev?*%
%TF.SameCoordinates,Original*%
%TF.FileFunction,Profile,NP*%
%FSLAX46Y46*%
G04 Gerber Fmt 4.6, Leading zero omitted, Abs format (unit mm)*
G04 Created by KiCad (PCBNEW 9.0.1) date 2025-04-16 14:08:05*
%MOMM*%
%LPD*%
G01*
G04 APERTURE LIST*
%TA.AperFunction,Profile*%
%ADD10C,0.050000*%
%TD*%
G04 APERTURE END LIST*
D10*
X173300000Y-109907106D02*
G75*
G02*
X174007106Y-109200000I353553J353553D01*
G01*
X168700000Y-109907106D02*
G75*
G02*
X169407106Y-109200000I353553J353553D01*
G01*
X164100000Y-109907106D02*
G75*
G02*
X164807106Y-109200000I353553J353553D01*
G01*
X165392894Y-109200000D02*
G75*
G02*
X166100000Y-109907106I353553J-353553D01*
G01*
X174592894Y-109200000D02*
G75*
G02*
X175300000Y-109907106I353553J-353553D01*
G01*
X169992894Y-109200000D02*
G75*
G02*
X170700000Y-109907106I353553J-353553D01*
G01*
X160792894Y-109200000D02*
G75*
G02*
X161500000Y-109907106I353553J-353553D01*
G01*
X159500000Y-109907106D02*
G75*
G02*
X160207106Y-109200000I353553J353553D01*
G01*
X159500000Y-113000000D02*
X159500000Y-109907106D01*
X160207106Y-109200000D02*
X160792894Y-109200000D01*
X161500000Y-113000000D02*
X161500000Y-109907106D01*
X170700000Y-113000000D02*
X170700000Y-109907106D01*
X169992894Y-109200000D02*
X169407106Y-109200000D01*
X175300000Y-113000000D02*
X175300000Y-109907106D01*
X174592894Y-109200000D02*
X174007106Y-109200000D01*
X166100000Y-113000000D02*
X166100000Y-109907106D01*
X165392894Y-109200000D02*
X164807106Y-109200000D01*
X164100000Y-113000000D02*
X164100000Y-109907106D01*
X168700000Y-113000000D02*
X168700000Y-109907106D01*
X173300000Y-113000000D02*
X173300000Y-109907106D01*
X118100000Y-103107106D02*
G75*
G02*
X118807106Y-102400000I353553J353553D01*
G01*
X119392894Y-102400000D02*
G75*
G02*
X120100000Y-103107106I353553J-353553D01*
G01*
X127300000Y-103107106D02*
G75*
G02*
X128007106Y-102400000I353553J353553D01*
G01*
X146992894Y-102400000D02*
G75*
G02*
X147700000Y-103107106I353553J-353553D01*
G01*
X110192894Y-102400000D02*
G75*
G02*
X110900000Y-103107106I353553J-353553D01*
G01*
X108900000Y-103107106D02*
G75*
G02*
X109607106Y-102400000I353553J353553D01*
G01*
X154900000Y-103107106D02*
G75*
G02*
X155607106Y-102400000I353553J353553D01*
G01*
X145700000Y-103107106D02*
G75*
G02*
X146407106Y-102400000I353553J353553D01*
G01*
X128592894Y-102400000D02*
G75*
G02*
X129300000Y-103107106I353553J-353553D01*
G01*
X136500000Y-103107106D02*
G75*
G02*
X137207106Y-102400000I353553J353553D01*
G01*
X137792894Y-102400000D02*
G75*
G02*
X138500000Y-103107106I353553J-353553D01*
G01*
X156192894Y-102400000D02*
G75*
G02*
X156900000Y-103107106I353553J-353553D01*
G01*
X156192894Y-102400000D02*
X155607106Y-102400000D01*
X146407106Y-102400000D02*
X146992894Y-102400000D01*
X137792894Y-102400000D02*
X137207106Y-102400000D01*
X128592894Y-102400000D02*
X128007106Y-102400000D01*
X119392894Y-102400000D02*
X118807106Y-102400000D01*
X109607106Y-102400000D02*
X110192894Y-102400000D01*
X72100000Y-108106621D02*
G75*
G02*
X72806635Y-107399015I353800J353321D01*
G01*
X90500000Y-108106621D02*
G75*
G02*
X91206635Y-107399015I353800J353321D01*
G01*
X99704337Y-108106548D02*
G75*
G02*
X100411517Y-107399506I354163J352948D01*
G01*
X91789121Y-107398230D02*
G75*
G02*
X92495700Y-108105953I352079J-355070D01*
G01*
X100988676Y-107399112D02*
G75*
G02*
X101695658Y-108106354I352724J-354388D01*
G01*
X81304337Y-108106793D02*
G75*
G02*
X82011755Y-107400001I354022J353083D01*
G01*
X82588231Y-107400000D02*
G75*
G02*
X83295651Y-108106792I353396J-353710D01*
G01*
X73389121Y-107398230D02*
G75*
G02*
X74095700Y-108105953I352079J-355070D01*
G01*
X100988676Y-107399112D02*
X100411511Y-107399512D01*
X91789121Y-107398230D02*
X91206620Y-107399030D01*
X82588231Y-107400000D02*
X82011756Y-107400000D01*
X73389121Y-107398230D02*
X72806620Y-107399030D01*
X92300000Y-88792894D02*
G75*
G02*
X91592894Y-89500000I-353553J-353553D01*
G01*
X104707106Y-89500000D02*
G75*
G02*
X104000000Y-88792894I-353553J353553D01*
G01*
X91007106Y-89500000D02*
G75*
G02*
X90300000Y-88792894I-353553J353553D01*
G01*
X106000000Y-88792894D02*
G75*
G02*
X105292894Y-89500000I-353553J-353553D01*
G01*
X133400000Y-88792894D02*
G75*
G02*
X132692894Y-89500000I-353553J-353553D01*
G01*
X132107106Y-89500000D02*
G75*
G02*
X131400000Y-88792894I-353553J353553D01*
G01*
X77307106Y-89500000D02*
G75*
G02*
X76600000Y-88792894I-353553J353553D01*
G01*
X78600000Y-88792894D02*
G75*
G02*
X77892894Y-89500000I-353553J-353553D01*
G01*
X77892894Y-89500000D02*
X77307106Y-89500000D01*
X91007106Y-89500000D02*
X91592894Y-89500000D01*
X105292894Y-89500000D02*
X104707106Y-89500000D01*
X132107106Y-89500000D02*
X132692894Y-89500000D01*
X119700000Y-88792894D02*
G75*
G02*
X118992894Y-89500000I-353553J-353553D01*
G01*
X118407106Y-89500000D02*
G75*
G02*
X117700000Y-88792894I-353553J353553D01*
G01*
X117700000Y-79000000D02*
X117700000Y-88792894D01*
X118407106Y-89500000D02*
X118992894Y-89500000D01*
X119700000Y-79000000D02*
X119700000Y-88792894D01*
X106000000Y-79000000D02*
X106000000Y-88792894D01*
X149400276Y-84693032D02*
G75*
G02*
X148693032Y-85400000I-353760J-353346D01*
G01*
X141400276Y-84693032D02*
G75*
G02*
X140693032Y-85400000I-353760J-353346D01*
G01*
X140107106Y-85400000D02*
G75*
G02*
X139400000Y-84692894I-353553J353553D01*
G01*
X148107106Y-85400000D02*
G75*
G02*
X147400000Y-84692894I-353553J353553D01*
G01*
X165400276Y-84693032D02*
G75*
G02*
X164693032Y-85400000I-353760J-353346D01*
G01*
X157400276Y-84693032D02*
G75*
G02*
X156693032Y-85400000I-353760J-353346D01*
G01*
X164107200Y-85400000D02*
G75*
G02*
X163400089Y-84692899I-353550J353556D01*
G01*
X156107106Y-85400138D02*
G75*
G02*
X155400100Y-84692856I-353506J353638D01*
G01*
X156107106Y-85400138D02*
X156107244Y-85400000D01*
X155400138Y-84692894D02*
X155400276Y-84692756D01*
X164107200Y-85400000D02*
X164693032Y-85400000D01*
X156107244Y-85400000D02*
X156693032Y-85400000D01*
X148107106Y-85400000D02*
X148693032Y-85400000D01*
X140107106Y-85400000D02*
X140693032Y-85400000D01*
X173400001Y-84691866D02*
G75*
G02*
X172693087Y-85399222I-353701J-353434D01*
G01*
X172107107Y-85399917D02*
G75*
G02*
X171399900Y-84692876I-353607J353517D01*
G01*
X172107107Y-85399917D02*
X172107466Y-85399558D01*
X171399917Y-84692893D02*
X171400276Y-84692534D01*
X171402494Y-79002497D02*
X171400276Y-84692534D01*
X172107466Y-85399558D02*
X172693116Y-85399193D01*
X173400000Y-79000000D02*
X173400001Y-84691866D01*
X177900000Y-79000000D02*
X173400000Y-79000000D01*
X74100000Y-113000000D02*
X74095651Y-108105904D01*
X161500000Y-113000000D02*
X164100000Y-113000000D01*
X156900000Y-113000000D02*
X156900000Y-103107106D01*
X163400000Y-79000000D02*
X163400089Y-84692899D01*
X138500000Y-113000000D02*
X138500000Y-103107106D01*
X120100000Y-113000000D02*
X127300000Y-113000000D01*
X129300000Y-113000000D02*
X129300000Y-103107106D01*
X78600000Y-79000000D02*
X78600000Y-88792894D01*
X83300000Y-113000000D02*
X83295651Y-108106792D01*
X154900000Y-113000000D02*
X154900000Y-103107106D01*
X92300000Y-79000000D02*
X104000000Y-79000000D01*
X147400000Y-79000000D02*
X147400000Y-84692894D01*
X155402494Y-79002497D02*
X155400276Y-84692756D01*
X165402494Y-79002497D02*
X171402494Y-79002497D01*
X72100000Y-113000000D02*
X72100000Y-108106621D01*
X119700000Y-79000000D02*
X131400000Y-79000000D01*
X145700000Y-113000000D02*
X145700000Y-103107106D01*
X129300000Y-113000000D02*
X136500000Y-113000000D01*
X106000000Y-79000000D02*
X117700000Y-79000000D01*
X78600000Y-79000000D02*
X90300000Y-79000000D01*
X76600000Y-79000000D02*
X76600000Y-88792894D01*
X136500000Y-113000000D02*
X136500000Y-103107106D01*
X149402494Y-79002497D02*
X155402494Y-79002497D01*
X74100000Y-113000000D02*
X81300000Y-113000000D01*
X81300000Y-113000000D02*
X81304337Y-108106793D01*
X101700000Y-113000000D02*
X108900000Y-113000000D01*
X133400000Y-79000000D02*
X139400000Y-79000000D01*
X108900000Y-113000000D02*
X108900000Y-103107106D01*
X99700000Y-113000000D02*
X99704337Y-108106548D01*
X110900000Y-113000000D02*
X118100000Y-113000000D01*
X139400000Y-79000000D02*
X139400000Y-84692894D01*
X92500000Y-113000000D02*
X99700000Y-113000000D01*
X157402494Y-79002497D02*
X157400276Y-84693032D01*
X110900000Y-113000000D02*
X110900000Y-103107106D01*
X138500000Y-113000000D02*
X145700000Y-113000000D01*
X90500000Y-113000000D02*
X90500000Y-108106621D01*
X64900000Y-113000000D02*
X72100000Y-113000000D01*
X157402494Y-79002497D02*
X163402494Y-79002497D01*
X83300000Y-113000000D02*
X90500000Y-113000000D01*
X64900000Y-113000000D02*
X64900000Y-79000000D01*
X147700000Y-113000000D02*
X147700000Y-103107106D01*
X147700000Y-113000000D02*
X154900000Y-113000000D01*
X175300000Y-113000000D02*
X177900000Y-113000000D01*
X165402494Y-79002497D02*
X165400276Y-84693032D01*
X166100000Y-113000000D02*
X168700000Y-113000000D01*
X127300000Y-113000000D02*
X127300000Y-103107106D01*
X101700000Y-113000000D02*
X101695651Y-108106347D01*
X120100000Y-113000000D02*
X120100000Y-103107106D01*
X156900000Y-113000000D02*
X159500000Y-113000000D01*
X133400000Y-79000000D02*
X133400000Y-88792894D01*
X131400000Y-79000000D02*
X131400000Y-88792894D01*
X141400000Y-79000000D02*
X147400000Y-79000000D01*
X64900000Y-79000000D02*
X76600000Y-79000000D01*
X141402495Y-79000000D02*
X141400276Y-84693032D01*
X118100000Y-113000000D02*
X118100000Y-103107106D01*
X104000000Y-79000000D02*
X104000000Y-88792894D01*
X90300000Y-79000000D02*
X90300000Y-88792894D01*
X177900000Y-113000000D02*
X177900000Y-79000000D01*
X170700000Y-113000000D02*
X173300000Y-113000000D01*
X149402495Y-79002497D02*
X149400276Y-84693032D01*
X92300000Y-79000000D02*
X92300000Y-88792894D01*
X92500000Y-113000000D02*
X92495651Y-108105904D01*
M02*
