%TF.GenerationSoftware,KiCad,Pcbnew,8.0.4*%
%TF.CreationDate,2024-09-04T12:40:56+02:00*%
%TF.ProjectId,cq2,6371322e-6b69-4636-9164-5f7063625858,0.00*%
%TF.SameCoordinates,Original*%
%TF.FileFunction,AssemblyDrawing,Top*%
%FSLAX46Y46*%
G04 Gerber Fmt 4.6, Leading zero omitted, Abs format (unit mm)*
G04 Created by KiCad (PCBNEW 8.0.4) date 2024-09-04 12:40:56*
%MOMM*%
%LPD*%
G01*
G04 APERTURE LIST*
%ADD10C,0.100000*%
%ADD11C,0.150000*%
%ADD12C,0.300000*%
%ADD13C,0.400000*%
%ADD14C,0.200000*%
%ADD15C,0.120000*%
%ADD16C,0.127000*%
%ADD17C,0.025400*%
G04 APERTURE END LIST*
D10*
D11*
X299989000Y-253002200D02*
X407989000Y-253002200D01*
X407989000Y-285002200D01*
X299989000Y-285002200D01*
X299989000Y-253002200D01*
D10*
D11*
X10000000Y-10000000D02*
X409989000Y-10000000D01*
X409989000Y-287002200D01*
X10000000Y-287002200D01*
X10000000Y-10000000D01*
D10*
D11*
X12000000Y-12000000D02*
X407989000Y-12000000D01*
X407989000Y-285002200D01*
X12000000Y-285002200D01*
X12000000Y-12000000D01*
D10*
D11*
X60000000Y-12000000D02*
X60000000Y-10000000D01*
D10*
D11*
X110000000Y-12000000D02*
X110000000Y-10000000D01*
D10*
D11*
X160000000Y-12000000D02*
X160000000Y-10000000D01*
D10*
D11*
X210000000Y-12000000D02*
X210000000Y-10000000D01*
D10*
D11*
X260000000Y-12000000D02*
X260000000Y-10000000D01*
D10*
D11*
X310000000Y-12000000D02*
X310000000Y-10000000D01*
D10*
D11*
X360000000Y-12000000D02*
X360000000Y-10000000D01*
D10*
D11*
X36089160Y-11593604D02*
X35346303Y-11593604D01*
X35717731Y-11593604D02*
X35717731Y-10293604D01*
X35717731Y-10293604D02*
X35593922Y-10479319D01*
X35593922Y-10479319D02*
X35470112Y-10603128D01*
X35470112Y-10603128D02*
X35346303Y-10665033D01*
D10*
D11*
X85346303Y-10417414D02*
X85408207Y-10355509D01*
X85408207Y-10355509D02*
X85532017Y-10293604D01*
X85532017Y-10293604D02*
X85841541Y-10293604D01*
X85841541Y-10293604D02*
X85965350Y-10355509D01*
X85965350Y-10355509D02*
X86027255Y-10417414D01*
X86027255Y-10417414D02*
X86089160Y-10541223D01*
X86089160Y-10541223D02*
X86089160Y-10665033D01*
X86089160Y-10665033D02*
X86027255Y-10850747D01*
X86027255Y-10850747D02*
X85284398Y-11593604D01*
X85284398Y-11593604D02*
X86089160Y-11593604D01*
D10*
D11*
X135284398Y-10293604D02*
X136089160Y-10293604D01*
X136089160Y-10293604D02*
X135655826Y-10788842D01*
X135655826Y-10788842D02*
X135841541Y-10788842D01*
X135841541Y-10788842D02*
X135965350Y-10850747D01*
X135965350Y-10850747D02*
X136027255Y-10912652D01*
X136027255Y-10912652D02*
X136089160Y-11036461D01*
X136089160Y-11036461D02*
X136089160Y-11345985D01*
X136089160Y-11345985D02*
X136027255Y-11469795D01*
X136027255Y-11469795D02*
X135965350Y-11531700D01*
X135965350Y-11531700D02*
X135841541Y-11593604D01*
X135841541Y-11593604D02*
X135470112Y-11593604D01*
X135470112Y-11593604D02*
X135346303Y-11531700D01*
X135346303Y-11531700D02*
X135284398Y-11469795D01*
D10*
D11*
X185965350Y-10726938D02*
X185965350Y-11593604D01*
X185655826Y-10231700D02*
X185346303Y-11160271D01*
X185346303Y-11160271D02*
X186151064Y-11160271D01*
D10*
D11*
X236027255Y-10293604D02*
X235408207Y-10293604D01*
X235408207Y-10293604D02*
X235346303Y-10912652D01*
X235346303Y-10912652D02*
X235408207Y-10850747D01*
X235408207Y-10850747D02*
X235532017Y-10788842D01*
X235532017Y-10788842D02*
X235841541Y-10788842D01*
X235841541Y-10788842D02*
X235965350Y-10850747D01*
X235965350Y-10850747D02*
X236027255Y-10912652D01*
X236027255Y-10912652D02*
X236089160Y-11036461D01*
X236089160Y-11036461D02*
X236089160Y-11345985D01*
X236089160Y-11345985D02*
X236027255Y-11469795D01*
X236027255Y-11469795D02*
X235965350Y-11531700D01*
X235965350Y-11531700D02*
X235841541Y-11593604D01*
X235841541Y-11593604D02*
X235532017Y-11593604D01*
X235532017Y-11593604D02*
X235408207Y-11531700D01*
X235408207Y-11531700D02*
X235346303Y-11469795D01*
D10*
D11*
X285965350Y-10293604D02*
X285717731Y-10293604D01*
X285717731Y-10293604D02*
X285593922Y-10355509D01*
X285593922Y-10355509D02*
X285532017Y-10417414D01*
X285532017Y-10417414D02*
X285408207Y-10603128D01*
X285408207Y-10603128D02*
X285346303Y-10850747D01*
X285346303Y-10850747D02*
X285346303Y-11345985D01*
X285346303Y-11345985D02*
X285408207Y-11469795D01*
X285408207Y-11469795D02*
X285470112Y-11531700D01*
X285470112Y-11531700D02*
X285593922Y-11593604D01*
X285593922Y-11593604D02*
X285841541Y-11593604D01*
X285841541Y-11593604D02*
X285965350Y-11531700D01*
X285965350Y-11531700D02*
X286027255Y-11469795D01*
X286027255Y-11469795D02*
X286089160Y-11345985D01*
X286089160Y-11345985D02*
X286089160Y-11036461D01*
X286089160Y-11036461D02*
X286027255Y-10912652D01*
X286027255Y-10912652D02*
X285965350Y-10850747D01*
X285965350Y-10850747D02*
X285841541Y-10788842D01*
X285841541Y-10788842D02*
X285593922Y-10788842D01*
X285593922Y-10788842D02*
X285470112Y-10850747D01*
X285470112Y-10850747D02*
X285408207Y-10912652D01*
X285408207Y-10912652D02*
X285346303Y-11036461D01*
D10*
D11*
X335284398Y-10293604D02*
X336151064Y-10293604D01*
X336151064Y-10293604D02*
X335593922Y-11593604D01*
D10*
D11*
X385593922Y-10850747D02*
X385470112Y-10788842D01*
X385470112Y-10788842D02*
X385408207Y-10726938D01*
X385408207Y-10726938D02*
X385346303Y-10603128D01*
X385346303Y-10603128D02*
X385346303Y-10541223D01*
X385346303Y-10541223D02*
X385408207Y-10417414D01*
X385408207Y-10417414D02*
X385470112Y-10355509D01*
X385470112Y-10355509D02*
X385593922Y-10293604D01*
X385593922Y-10293604D02*
X385841541Y-10293604D01*
X385841541Y-10293604D02*
X385965350Y-10355509D01*
X385965350Y-10355509D02*
X386027255Y-10417414D01*
X386027255Y-10417414D02*
X386089160Y-10541223D01*
X386089160Y-10541223D02*
X386089160Y-10603128D01*
X386089160Y-10603128D02*
X386027255Y-10726938D01*
X386027255Y-10726938D02*
X385965350Y-10788842D01*
X385965350Y-10788842D02*
X385841541Y-10850747D01*
X385841541Y-10850747D02*
X385593922Y-10850747D01*
X385593922Y-10850747D02*
X385470112Y-10912652D01*
X385470112Y-10912652D02*
X385408207Y-10974557D01*
X385408207Y-10974557D02*
X385346303Y-11098366D01*
X385346303Y-11098366D02*
X385346303Y-11345985D01*
X385346303Y-11345985D02*
X385408207Y-11469795D01*
X385408207Y-11469795D02*
X385470112Y-11531700D01*
X385470112Y-11531700D02*
X385593922Y-11593604D01*
X385593922Y-11593604D02*
X385841541Y-11593604D01*
X385841541Y-11593604D02*
X385965350Y-11531700D01*
X385965350Y-11531700D02*
X386027255Y-11469795D01*
X386027255Y-11469795D02*
X386089160Y-11345985D01*
X386089160Y-11345985D02*
X386089160Y-11098366D01*
X386089160Y-11098366D02*
X386027255Y-10974557D01*
X386027255Y-10974557D02*
X385965350Y-10912652D01*
X385965350Y-10912652D02*
X385841541Y-10850747D01*
D10*
D11*
X60000000Y-285002200D02*
X60000000Y-287002200D01*
D10*
D11*
X110000000Y-285002200D02*
X110000000Y-287002200D01*
D10*
D11*
X160000000Y-285002200D02*
X160000000Y-287002200D01*
D10*
D11*
X210000000Y-285002200D02*
X210000000Y-287002200D01*
D10*
D11*
X260000000Y-285002200D02*
X260000000Y-287002200D01*
D10*
D11*
X310000000Y-285002200D02*
X310000000Y-287002200D01*
D10*
D11*
X360000000Y-285002200D02*
X360000000Y-287002200D01*
D10*
D11*
X36089160Y-286595804D02*
X35346303Y-286595804D01*
X35717731Y-286595804D02*
X35717731Y-285295804D01*
X35717731Y-285295804D02*
X35593922Y-285481519D01*
X35593922Y-285481519D02*
X35470112Y-285605328D01*
X35470112Y-285605328D02*
X35346303Y-285667233D01*
D10*
D11*
X85346303Y-285419614D02*
X85408207Y-285357709D01*
X85408207Y-285357709D02*
X85532017Y-285295804D01*
X85532017Y-285295804D02*
X85841541Y-285295804D01*
X85841541Y-285295804D02*
X85965350Y-285357709D01*
X85965350Y-285357709D02*
X86027255Y-285419614D01*
X86027255Y-285419614D02*
X86089160Y-285543423D01*
X86089160Y-285543423D02*
X86089160Y-285667233D01*
X86089160Y-285667233D02*
X86027255Y-285852947D01*
X86027255Y-285852947D02*
X85284398Y-286595804D01*
X85284398Y-286595804D02*
X86089160Y-286595804D01*
D10*
D11*
X135284398Y-285295804D02*
X136089160Y-285295804D01*
X136089160Y-285295804D02*
X135655826Y-285791042D01*
X135655826Y-285791042D02*
X135841541Y-285791042D01*
X135841541Y-285791042D02*
X135965350Y-285852947D01*
X135965350Y-285852947D02*
X136027255Y-285914852D01*
X136027255Y-285914852D02*
X136089160Y-286038661D01*
X136089160Y-286038661D02*
X136089160Y-286348185D01*
X136089160Y-286348185D02*
X136027255Y-286471995D01*
X136027255Y-286471995D02*
X135965350Y-286533900D01*
X135965350Y-286533900D02*
X135841541Y-286595804D01*
X135841541Y-286595804D02*
X135470112Y-286595804D01*
X135470112Y-286595804D02*
X135346303Y-286533900D01*
X135346303Y-286533900D02*
X135284398Y-286471995D01*
D10*
D11*
X185965350Y-285729138D02*
X185965350Y-286595804D01*
X185655826Y-285233900D02*
X185346303Y-286162471D01*
X185346303Y-286162471D02*
X186151064Y-286162471D01*
D10*
D11*
X236027255Y-285295804D02*
X235408207Y-285295804D01*
X235408207Y-285295804D02*
X235346303Y-285914852D01*
X235346303Y-285914852D02*
X235408207Y-285852947D01*
X235408207Y-285852947D02*
X235532017Y-285791042D01*
X235532017Y-285791042D02*
X235841541Y-285791042D01*
X235841541Y-285791042D02*
X235965350Y-285852947D01*
X235965350Y-285852947D02*
X236027255Y-285914852D01*
X236027255Y-285914852D02*
X236089160Y-286038661D01*
X236089160Y-286038661D02*
X236089160Y-286348185D01*
X236089160Y-286348185D02*
X236027255Y-286471995D01*
X236027255Y-286471995D02*
X235965350Y-286533900D01*
X235965350Y-286533900D02*
X235841541Y-286595804D01*
X235841541Y-286595804D02*
X235532017Y-286595804D01*
X235532017Y-286595804D02*
X235408207Y-286533900D01*
X235408207Y-286533900D02*
X235346303Y-286471995D01*
D10*
D11*
X285965350Y-285295804D02*
X285717731Y-285295804D01*
X285717731Y-285295804D02*
X285593922Y-285357709D01*
X285593922Y-285357709D02*
X285532017Y-285419614D01*
X285532017Y-285419614D02*
X285408207Y-285605328D01*
X285408207Y-285605328D02*
X285346303Y-285852947D01*
X285346303Y-285852947D02*
X285346303Y-286348185D01*
X285346303Y-286348185D02*
X285408207Y-286471995D01*
X285408207Y-286471995D02*
X285470112Y-286533900D01*
X285470112Y-286533900D02*
X285593922Y-286595804D01*
X285593922Y-286595804D02*
X285841541Y-286595804D01*
X285841541Y-286595804D02*
X285965350Y-286533900D01*
X285965350Y-286533900D02*
X286027255Y-286471995D01*
X286027255Y-286471995D02*
X286089160Y-286348185D01*
X286089160Y-286348185D02*
X286089160Y-286038661D01*
X286089160Y-286038661D02*
X286027255Y-285914852D01*
X286027255Y-285914852D02*
X285965350Y-285852947D01*
X285965350Y-285852947D02*
X285841541Y-285791042D01*
X285841541Y-285791042D02*
X285593922Y-285791042D01*
X285593922Y-285791042D02*
X285470112Y-285852947D01*
X285470112Y-285852947D02*
X285408207Y-285914852D01*
X285408207Y-285914852D02*
X285346303Y-286038661D01*
D10*
D11*
X335284398Y-285295804D02*
X336151064Y-285295804D01*
X336151064Y-285295804D02*
X335593922Y-286595804D01*
D10*
D11*
X385593922Y-285852947D02*
X385470112Y-285791042D01*
X385470112Y-285791042D02*
X385408207Y-285729138D01*
X385408207Y-285729138D02*
X385346303Y-285605328D01*
X385346303Y-285605328D02*
X385346303Y-285543423D01*
X385346303Y-285543423D02*
X385408207Y-285419614D01*
X385408207Y-285419614D02*
X385470112Y-285357709D01*
X385470112Y-285357709D02*
X385593922Y-285295804D01*
X385593922Y-285295804D02*
X385841541Y-285295804D01*
X385841541Y-285295804D02*
X385965350Y-285357709D01*
X385965350Y-285357709D02*
X386027255Y-285419614D01*
X386027255Y-285419614D02*
X386089160Y-285543423D01*
X386089160Y-285543423D02*
X386089160Y-285605328D01*
X386089160Y-285605328D02*
X386027255Y-285729138D01*
X386027255Y-285729138D02*
X385965350Y-285791042D01*
X385965350Y-285791042D02*
X385841541Y-285852947D01*
X385841541Y-285852947D02*
X385593922Y-285852947D01*
X385593922Y-285852947D02*
X385470112Y-285914852D01*
X385470112Y-285914852D02*
X385408207Y-285976757D01*
X385408207Y-285976757D02*
X385346303Y-286100566D01*
X385346303Y-286100566D02*
X385346303Y-286348185D01*
X385346303Y-286348185D02*
X385408207Y-286471995D01*
X385408207Y-286471995D02*
X385470112Y-286533900D01*
X385470112Y-286533900D02*
X385593922Y-286595804D01*
X385593922Y-286595804D02*
X385841541Y-286595804D01*
X385841541Y-286595804D02*
X385965350Y-286533900D01*
X385965350Y-286533900D02*
X386027255Y-286471995D01*
X386027255Y-286471995D02*
X386089160Y-286348185D01*
X386089160Y-286348185D02*
X386089160Y-286100566D01*
X386089160Y-286100566D02*
X386027255Y-285976757D01*
X386027255Y-285976757D02*
X385965350Y-285914852D01*
X385965350Y-285914852D02*
X385841541Y-285852947D01*
D10*
D11*
X10000000Y-60000000D02*
X12000000Y-60000000D01*
D10*
D11*
X10000000Y-110000000D02*
X12000000Y-110000000D01*
D10*
D11*
X10000000Y-160000000D02*
X12000000Y-160000000D01*
D10*
D11*
X10000000Y-210000000D02*
X12000000Y-210000000D01*
D10*
D11*
X10000000Y-260000000D02*
X12000000Y-260000000D01*
D10*
D11*
X10690476Y-35222176D02*
X11309523Y-35222176D01*
X10566666Y-35593604D02*
X10999999Y-34293604D01*
X10999999Y-34293604D02*
X11433333Y-35593604D01*
D10*
D11*
X11092857Y-84912652D02*
X11278571Y-84974557D01*
X11278571Y-84974557D02*
X11340476Y-85036461D01*
X11340476Y-85036461D02*
X11402380Y-85160271D01*
X11402380Y-85160271D02*
X11402380Y-85345985D01*
X11402380Y-85345985D02*
X11340476Y-85469795D01*
X11340476Y-85469795D02*
X11278571Y-85531700D01*
X11278571Y-85531700D02*
X11154761Y-85593604D01*
X11154761Y-85593604D02*
X10659523Y-85593604D01*
X10659523Y-85593604D02*
X10659523Y-84293604D01*
X10659523Y-84293604D02*
X11092857Y-84293604D01*
X11092857Y-84293604D02*
X11216666Y-84355509D01*
X11216666Y-84355509D02*
X11278571Y-84417414D01*
X11278571Y-84417414D02*
X11340476Y-84541223D01*
X11340476Y-84541223D02*
X11340476Y-84665033D01*
X11340476Y-84665033D02*
X11278571Y-84788842D01*
X11278571Y-84788842D02*
X11216666Y-84850747D01*
X11216666Y-84850747D02*
X11092857Y-84912652D01*
X11092857Y-84912652D02*
X10659523Y-84912652D01*
D10*
D11*
X11402380Y-135469795D02*
X11340476Y-135531700D01*
X11340476Y-135531700D02*
X11154761Y-135593604D01*
X11154761Y-135593604D02*
X11030952Y-135593604D01*
X11030952Y-135593604D02*
X10845238Y-135531700D01*
X10845238Y-135531700D02*
X10721428Y-135407890D01*
X10721428Y-135407890D02*
X10659523Y-135284080D01*
X10659523Y-135284080D02*
X10597619Y-135036461D01*
X10597619Y-135036461D02*
X10597619Y-134850747D01*
X10597619Y-134850747D02*
X10659523Y-134603128D01*
X10659523Y-134603128D02*
X10721428Y-134479319D01*
X10721428Y-134479319D02*
X10845238Y-134355509D01*
X10845238Y-134355509D02*
X11030952Y-134293604D01*
X11030952Y-134293604D02*
X11154761Y-134293604D01*
X11154761Y-134293604D02*
X11340476Y-134355509D01*
X11340476Y-134355509D02*
X11402380Y-134417414D01*
D10*
D11*
X10659523Y-185593604D02*
X10659523Y-184293604D01*
X10659523Y-184293604D02*
X10969047Y-184293604D01*
X10969047Y-184293604D02*
X11154761Y-184355509D01*
X11154761Y-184355509D02*
X11278571Y-184479319D01*
X11278571Y-184479319D02*
X11340476Y-184603128D01*
X11340476Y-184603128D02*
X11402380Y-184850747D01*
X11402380Y-184850747D02*
X11402380Y-185036461D01*
X11402380Y-185036461D02*
X11340476Y-185284080D01*
X11340476Y-185284080D02*
X11278571Y-185407890D01*
X11278571Y-185407890D02*
X11154761Y-185531700D01*
X11154761Y-185531700D02*
X10969047Y-185593604D01*
X10969047Y-185593604D02*
X10659523Y-185593604D01*
D10*
D11*
X10721428Y-234912652D02*
X11154762Y-234912652D01*
X11340476Y-235593604D02*
X10721428Y-235593604D01*
X10721428Y-235593604D02*
X10721428Y-234293604D01*
X10721428Y-234293604D02*
X11340476Y-234293604D01*
D10*
D11*
X11185714Y-284912652D02*
X10752380Y-284912652D01*
X10752380Y-285593604D02*
X10752380Y-284293604D01*
X10752380Y-284293604D02*
X11371428Y-284293604D01*
D10*
D11*
X409989000Y-60000000D02*
X407989000Y-60000000D01*
D10*
D11*
X409989000Y-110000000D02*
X407989000Y-110000000D01*
D10*
D11*
X409989000Y-160000000D02*
X407989000Y-160000000D01*
D10*
D11*
X409989000Y-210000000D02*
X407989000Y-210000000D01*
D10*
D11*
X409989000Y-260000000D02*
X407989000Y-260000000D01*
D10*
D11*
X408679476Y-35222176D02*
X409298523Y-35222176D01*
X408555666Y-35593604D02*
X408988999Y-34293604D01*
X408988999Y-34293604D02*
X409422333Y-35593604D01*
D10*
D11*
X409081857Y-84912652D02*
X409267571Y-84974557D01*
X409267571Y-84974557D02*
X409329476Y-85036461D01*
X409329476Y-85036461D02*
X409391380Y-85160271D01*
X409391380Y-85160271D02*
X409391380Y-85345985D01*
X409391380Y-85345985D02*
X409329476Y-85469795D01*
X409329476Y-85469795D02*
X409267571Y-85531700D01*
X409267571Y-85531700D02*
X409143761Y-85593604D01*
X409143761Y-85593604D02*
X408648523Y-85593604D01*
X408648523Y-85593604D02*
X408648523Y-84293604D01*
X408648523Y-84293604D02*
X409081857Y-84293604D01*
X409081857Y-84293604D02*
X409205666Y-84355509D01*
X409205666Y-84355509D02*
X409267571Y-84417414D01*
X409267571Y-84417414D02*
X409329476Y-84541223D01*
X409329476Y-84541223D02*
X409329476Y-84665033D01*
X409329476Y-84665033D02*
X409267571Y-84788842D01*
X409267571Y-84788842D02*
X409205666Y-84850747D01*
X409205666Y-84850747D02*
X409081857Y-84912652D01*
X409081857Y-84912652D02*
X408648523Y-84912652D01*
D10*
D11*
X409391380Y-135469795D02*
X409329476Y-135531700D01*
X409329476Y-135531700D02*
X409143761Y-135593604D01*
X409143761Y-135593604D02*
X409019952Y-135593604D01*
X409019952Y-135593604D02*
X408834238Y-135531700D01*
X408834238Y-135531700D02*
X408710428Y-135407890D01*
X408710428Y-135407890D02*
X408648523Y-135284080D01*
X408648523Y-135284080D02*
X408586619Y-135036461D01*
X408586619Y-135036461D02*
X408586619Y-134850747D01*
X408586619Y-134850747D02*
X408648523Y-134603128D01*
X408648523Y-134603128D02*
X408710428Y-134479319D01*
X408710428Y-134479319D02*
X408834238Y-134355509D01*
X408834238Y-134355509D02*
X409019952Y-134293604D01*
X409019952Y-134293604D02*
X409143761Y-134293604D01*
X409143761Y-134293604D02*
X409329476Y-134355509D01*
X409329476Y-134355509D02*
X409391380Y-134417414D01*
D10*
D11*
X408648523Y-185593604D02*
X408648523Y-184293604D01*
X408648523Y-184293604D02*
X408958047Y-184293604D01*
X408958047Y-184293604D02*
X409143761Y-184355509D01*
X409143761Y-184355509D02*
X409267571Y-184479319D01*
X409267571Y-184479319D02*
X409329476Y-184603128D01*
X409329476Y-184603128D02*
X409391380Y-184850747D01*
X409391380Y-184850747D02*
X409391380Y-185036461D01*
X409391380Y-185036461D02*
X409329476Y-185284080D01*
X409329476Y-185284080D02*
X409267571Y-185407890D01*
X409267571Y-185407890D02*
X409143761Y-185531700D01*
X409143761Y-185531700D02*
X408958047Y-185593604D01*
X408958047Y-185593604D02*
X408648523Y-185593604D01*
D10*
D11*
X408710428Y-234912652D02*
X409143762Y-234912652D01*
X409329476Y-235593604D02*
X408710428Y-235593604D01*
X408710428Y-235593604D02*
X408710428Y-234293604D01*
X408710428Y-234293604D02*
X409329476Y-234293604D01*
D10*
D11*
X409174714Y-284912652D02*
X408741380Y-284912652D01*
X408741380Y-285593604D02*
X408741380Y-284293604D01*
X408741380Y-284293604D02*
X409360428Y-284293604D01*
D10*
D11*
X323444826Y-280788328D02*
X323444826Y-279288328D01*
X323444826Y-279288328D02*
X323801969Y-279288328D01*
X323801969Y-279288328D02*
X324016255Y-279359757D01*
X324016255Y-279359757D02*
X324159112Y-279502614D01*
X324159112Y-279502614D02*
X324230541Y-279645471D01*
X324230541Y-279645471D02*
X324301969Y-279931185D01*
X324301969Y-279931185D02*
X324301969Y-280145471D01*
X324301969Y-280145471D02*
X324230541Y-280431185D01*
X324230541Y-280431185D02*
X324159112Y-280574042D01*
X324159112Y-280574042D02*
X324016255Y-280716900D01*
X324016255Y-280716900D02*
X323801969Y-280788328D01*
X323801969Y-280788328D02*
X323444826Y-280788328D01*
X325587684Y-280788328D02*
X325587684Y-280002614D01*
X325587684Y-280002614D02*
X325516255Y-279859757D01*
X325516255Y-279859757D02*
X325373398Y-279788328D01*
X325373398Y-279788328D02*
X325087684Y-279788328D01*
X325087684Y-279788328D02*
X324944826Y-279859757D01*
X325587684Y-280716900D02*
X325444826Y-280788328D01*
X325444826Y-280788328D02*
X325087684Y-280788328D01*
X325087684Y-280788328D02*
X324944826Y-280716900D01*
X324944826Y-280716900D02*
X324873398Y-280574042D01*
X324873398Y-280574042D02*
X324873398Y-280431185D01*
X324873398Y-280431185D02*
X324944826Y-280288328D01*
X324944826Y-280288328D02*
X325087684Y-280216900D01*
X325087684Y-280216900D02*
X325444826Y-280216900D01*
X325444826Y-280216900D02*
X325587684Y-280145471D01*
X326087684Y-279788328D02*
X326659112Y-279788328D01*
X326301969Y-279288328D02*
X326301969Y-280574042D01*
X326301969Y-280574042D02*
X326373398Y-280716900D01*
X326373398Y-280716900D02*
X326516255Y-280788328D01*
X326516255Y-280788328D02*
X326659112Y-280788328D01*
X327730541Y-280716900D02*
X327587684Y-280788328D01*
X327587684Y-280788328D02*
X327301970Y-280788328D01*
X327301970Y-280788328D02*
X327159112Y-280716900D01*
X327159112Y-280716900D02*
X327087684Y-280574042D01*
X327087684Y-280574042D02*
X327087684Y-280002614D01*
X327087684Y-280002614D02*
X327159112Y-279859757D01*
X327159112Y-279859757D02*
X327301970Y-279788328D01*
X327301970Y-279788328D02*
X327587684Y-279788328D01*
X327587684Y-279788328D02*
X327730541Y-279859757D01*
X327730541Y-279859757D02*
X327801970Y-280002614D01*
X327801970Y-280002614D02*
X327801970Y-280145471D01*
X327801970Y-280145471D02*
X327087684Y-280288328D01*
X328444826Y-280645471D02*
X328516255Y-280716900D01*
X328516255Y-280716900D02*
X328444826Y-280788328D01*
X328444826Y-280788328D02*
X328373398Y-280716900D01*
X328373398Y-280716900D02*
X328444826Y-280645471D01*
X328444826Y-280645471D02*
X328444826Y-280788328D01*
X328444826Y-279859757D02*
X328516255Y-279931185D01*
X328516255Y-279931185D02*
X328444826Y-280002614D01*
X328444826Y-280002614D02*
X328373398Y-279931185D01*
X328373398Y-279931185D02*
X328444826Y-279859757D01*
X328444826Y-279859757D02*
X328444826Y-280002614D01*
X330230541Y-279431185D02*
X330301969Y-279359757D01*
X330301969Y-279359757D02*
X330444827Y-279288328D01*
X330444827Y-279288328D02*
X330801969Y-279288328D01*
X330801969Y-279288328D02*
X330944827Y-279359757D01*
X330944827Y-279359757D02*
X331016255Y-279431185D01*
X331016255Y-279431185D02*
X331087684Y-279574042D01*
X331087684Y-279574042D02*
X331087684Y-279716900D01*
X331087684Y-279716900D02*
X331016255Y-279931185D01*
X331016255Y-279931185D02*
X330159112Y-280788328D01*
X330159112Y-280788328D02*
X331087684Y-280788328D01*
X332016255Y-279288328D02*
X332159112Y-279288328D01*
X332159112Y-279288328D02*
X332301969Y-279359757D01*
X332301969Y-279359757D02*
X332373398Y-279431185D01*
X332373398Y-279431185D02*
X332444826Y-279574042D01*
X332444826Y-279574042D02*
X332516255Y-279859757D01*
X332516255Y-279859757D02*
X332516255Y-280216900D01*
X332516255Y-280216900D02*
X332444826Y-280502614D01*
X332444826Y-280502614D02*
X332373398Y-280645471D01*
X332373398Y-280645471D02*
X332301969Y-280716900D01*
X332301969Y-280716900D02*
X332159112Y-280788328D01*
X332159112Y-280788328D02*
X332016255Y-280788328D01*
X332016255Y-280788328D02*
X331873398Y-280716900D01*
X331873398Y-280716900D02*
X331801969Y-280645471D01*
X331801969Y-280645471D02*
X331730540Y-280502614D01*
X331730540Y-280502614D02*
X331659112Y-280216900D01*
X331659112Y-280216900D02*
X331659112Y-279859757D01*
X331659112Y-279859757D02*
X331730540Y-279574042D01*
X331730540Y-279574042D02*
X331801969Y-279431185D01*
X331801969Y-279431185D02*
X331873398Y-279359757D01*
X331873398Y-279359757D02*
X332016255Y-279288328D01*
X333087683Y-279431185D02*
X333159111Y-279359757D01*
X333159111Y-279359757D02*
X333301969Y-279288328D01*
X333301969Y-279288328D02*
X333659111Y-279288328D01*
X333659111Y-279288328D02*
X333801969Y-279359757D01*
X333801969Y-279359757D02*
X333873397Y-279431185D01*
X333873397Y-279431185D02*
X333944826Y-279574042D01*
X333944826Y-279574042D02*
X333944826Y-279716900D01*
X333944826Y-279716900D02*
X333873397Y-279931185D01*
X333873397Y-279931185D02*
X333016254Y-280788328D01*
X333016254Y-280788328D02*
X333944826Y-280788328D01*
X335230540Y-279788328D02*
X335230540Y-280788328D01*
X334873397Y-279216900D02*
X334516254Y-280288328D01*
X334516254Y-280288328D02*
X335444825Y-280288328D01*
X336016253Y-280216900D02*
X337159111Y-280216900D01*
X338159111Y-279288328D02*
X338301968Y-279288328D01*
X338301968Y-279288328D02*
X338444825Y-279359757D01*
X338444825Y-279359757D02*
X338516254Y-279431185D01*
X338516254Y-279431185D02*
X338587682Y-279574042D01*
X338587682Y-279574042D02*
X338659111Y-279859757D01*
X338659111Y-279859757D02*
X338659111Y-280216900D01*
X338659111Y-280216900D02*
X338587682Y-280502614D01*
X338587682Y-280502614D02*
X338516254Y-280645471D01*
X338516254Y-280645471D02*
X338444825Y-280716900D01*
X338444825Y-280716900D02*
X338301968Y-280788328D01*
X338301968Y-280788328D02*
X338159111Y-280788328D01*
X338159111Y-280788328D02*
X338016254Y-280716900D01*
X338016254Y-280716900D02*
X337944825Y-280645471D01*
X337944825Y-280645471D02*
X337873396Y-280502614D01*
X337873396Y-280502614D02*
X337801968Y-280216900D01*
X337801968Y-280216900D02*
X337801968Y-279859757D01*
X337801968Y-279859757D02*
X337873396Y-279574042D01*
X337873396Y-279574042D02*
X337944825Y-279431185D01*
X337944825Y-279431185D02*
X338016254Y-279359757D01*
X338016254Y-279359757D02*
X338159111Y-279288328D01*
X339516253Y-279931185D02*
X339373396Y-279859757D01*
X339373396Y-279859757D02*
X339301967Y-279788328D01*
X339301967Y-279788328D02*
X339230539Y-279645471D01*
X339230539Y-279645471D02*
X339230539Y-279574042D01*
X339230539Y-279574042D02*
X339301967Y-279431185D01*
X339301967Y-279431185D02*
X339373396Y-279359757D01*
X339373396Y-279359757D02*
X339516253Y-279288328D01*
X339516253Y-279288328D02*
X339801967Y-279288328D01*
X339801967Y-279288328D02*
X339944825Y-279359757D01*
X339944825Y-279359757D02*
X340016253Y-279431185D01*
X340016253Y-279431185D02*
X340087682Y-279574042D01*
X340087682Y-279574042D02*
X340087682Y-279645471D01*
X340087682Y-279645471D02*
X340016253Y-279788328D01*
X340016253Y-279788328D02*
X339944825Y-279859757D01*
X339944825Y-279859757D02*
X339801967Y-279931185D01*
X339801967Y-279931185D02*
X339516253Y-279931185D01*
X339516253Y-279931185D02*
X339373396Y-280002614D01*
X339373396Y-280002614D02*
X339301967Y-280074042D01*
X339301967Y-280074042D02*
X339230539Y-280216900D01*
X339230539Y-280216900D02*
X339230539Y-280502614D01*
X339230539Y-280502614D02*
X339301967Y-280645471D01*
X339301967Y-280645471D02*
X339373396Y-280716900D01*
X339373396Y-280716900D02*
X339516253Y-280788328D01*
X339516253Y-280788328D02*
X339801967Y-280788328D01*
X339801967Y-280788328D02*
X339944825Y-280716900D01*
X339944825Y-280716900D02*
X340016253Y-280645471D01*
X340016253Y-280645471D02*
X340087682Y-280502614D01*
X340087682Y-280502614D02*
X340087682Y-280216900D01*
X340087682Y-280216900D02*
X340016253Y-280074042D01*
X340016253Y-280074042D02*
X339944825Y-280002614D01*
X339944825Y-280002614D02*
X339801967Y-279931185D01*
X340730538Y-280216900D02*
X341873396Y-280216900D01*
X342873396Y-279288328D02*
X343016253Y-279288328D01*
X343016253Y-279288328D02*
X343159110Y-279359757D01*
X343159110Y-279359757D02*
X343230539Y-279431185D01*
X343230539Y-279431185D02*
X343301967Y-279574042D01*
X343301967Y-279574042D02*
X343373396Y-279859757D01*
X343373396Y-279859757D02*
X343373396Y-280216900D01*
X343373396Y-280216900D02*
X343301967Y-280502614D01*
X343301967Y-280502614D02*
X343230539Y-280645471D01*
X343230539Y-280645471D02*
X343159110Y-280716900D01*
X343159110Y-280716900D02*
X343016253Y-280788328D01*
X343016253Y-280788328D02*
X342873396Y-280788328D01*
X342873396Y-280788328D02*
X342730539Y-280716900D01*
X342730539Y-280716900D02*
X342659110Y-280645471D01*
X342659110Y-280645471D02*
X342587681Y-280502614D01*
X342587681Y-280502614D02*
X342516253Y-280216900D01*
X342516253Y-280216900D02*
X342516253Y-279859757D01*
X342516253Y-279859757D02*
X342587681Y-279574042D01*
X342587681Y-279574042D02*
X342659110Y-279431185D01*
X342659110Y-279431185D02*
X342730539Y-279359757D01*
X342730539Y-279359757D02*
X342873396Y-279288328D01*
X343873395Y-279288328D02*
X344801967Y-279288328D01*
X344801967Y-279288328D02*
X344301967Y-279859757D01*
X344301967Y-279859757D02*
X344516252Y-279859757D01*
X344516252Y-279859757D02*
X344659110Y-279931185D01*
X344659110Y-279931185D02*
X344730538Y-280002614D01*
X344730538Y-280002614D02*
X344801967Y-280145471D01*
X344801967Y-280145471D02*
X344801967Y-280502614D01*
X344801967Y-280502614D02*
X344730538Y-280645471D01*
X344730538Y-280645471D02*
X344659110Y-280716900D01*
X344659110Y-280716900D02*
X344516252Y-280788328D01*
X344516252Y-280788328D02*
X344087681Y-280788328D01*
X344087681Y-280788328D02*
X343944824Y-280716900D01*
X343944824Y-280716900D02*
X343873395Y-280645471D01*
D10*
D11*
X299989000Y-281502200D02*
X407989000Y-281502200D01*
D10*
D11*
X301444826Y-283588328D02*
X301444826Y-282088328D01*
X302301969Y-283588328D02*
X301659112Y-282731185D01*
X302301969Y-282088328D02*
X301444826Y-282945471D01*
X302944826Y-283588328D02*
X302944826Y-282588328D01*
X302944826Y-282088328D02*
X302873398Y-282159757D01*
X302873398Y-282159757D02*
X302944826Y-282231185D01*
X302944826Y-282231185D02*
X303016255Y-282159757D01*
X303016255Y-282159757D02*
X302944826Y-282088328D01*
X302944826Y-282088328D02*
X302944826Y-282231185D01*
X304516255Y-283445471D02*
X304444827Y-283516900D01*
X304444827Y-283516900D02*
X304230541Y-283588328D01*
X304230541Y-283588328D02*
X304087684Y-283588328D01*
X304087684Y-283588328D02*
X303873398Y-283516900D01*
X303873398Y-283516900D02*
X303730541Y-283374042D01*
X303730541Y-283374042D02*
X303659112Y-283231185D01*
X303659112Y-283231185D02*
X303587684Y-282945471D01*
X303587684Y-282945471D02*
X303587684Y-282731185D01*
X303587684Y-282731185D02*
X303659112Y-282445471D01*
X303659112Y-282445471D02*
X303730541Y-282302614D01*
X303730541Y-282302614D02*
X303873398Y-282159757D01*
X303873398Y-282159757D02*
X304087684Y-282088328D01*
X304087684Y-282088328D02*
X304230541Y-282088328D01*
X304230541Y-282088328D02*
X304444827Y-282159757D01*
X304444827Y-282159757D02*
X304516255Y-282231185D01*
X305801970Y-283588328D02*
X305801970Y-282802614D01*
X305801970Y-282802614D02*
X305730541Y-282659757D01*
X305730541Y-282659757D02*
X305587684Y-282588328D01*
X305587684Y-282588328D02*
X305301970Y-282588328D01*
X305301970Y-282588328D02*
X305159112Y-282659757D01*
X305801970Y-283516900D02*
X305659112Y-283588328D01*
X305659112Y-283588328D02*
X305301970Y-283588328D01*
X305301970Y-283588328D02*
X305159112Y-283516900D01*
X305159112Y-283516900D02*
X305087684Y-283374042D01*
X305087684Y-283374042D02*
X305087684Y-283231185D01*
X305087684Y-283231185D02*
X305159112Y-283088328D01*
X305159112Y-283088328D02*
X305301970Y-283016900D01*
X305301970Y-283016900D02*
X305659112Y-283016900D01*
X305659112Y-283016900D02*
X305801970Y-282945471D01*
X307159113Y-283588328D02*
X307159113Y-282088328D01*
X307159113Y-283516900D02*
X307016255Y-283588328D01*
X307016255Y-283588328D02*
X306730541Y-283588328D01*
X306730541Y-283588328D02*
X306587684Y-283516900D01*
X306587684Y-283516900D02*
X306516255Y-283445471D01*
X306516255Y-283445471D02*
X306444827Y-283302614D01*
X306444827Y-283302614D02*
X306444827Y-282874042D01*
X306444827Y-282874042D02*
X306516255Y-282731185D01*
X306516255Y-282731185D02*
X306587684Y-282659757D01*
X306587684Y-282659757D02*
X306730541Y-282588328D01*
X306730541Y-282588328D02*
X307016255Y-282588328D01*
X307016255Y-282588328D02*
X307159113Y-282659757D01*
X309016255Y-282802614D02*
X309516255Y-282802614D01*
X309730541Y-283588328D02*
X309016255Y-283588328D01*
X309016255Y-283588328D02*
X309016255Y-282088328D01*
X309016255Y-282088328D02*
X309730541Y-282088328D01*
X310373398Y-283445471D02*
X310444827Y-283516900D01*
X310444827Y-283516900D02*
X310373398Y-283588328D01*
X310373398Y-283588328D02*
X310301970Y-283516900D01*
X310301970Y-283516900D02*
X310373398Y-283445471D01*
X310373398Y-283445471D02*
X310373398Y-283588328D01*
X311087684Y-283588328D02*
X311087684Y-282088328D01*
X311087684Y-282088328D02*
X311444827Y-282088328D01*
X311444827Y-282088328D02*
X311659113Y-282159757D01*
X311659113Y-282159757D02*
X311801970Y-282302614D01*
X311801970Y-282302614D02*
X311873399Y-282445471D01*
X311873399Y-282445471D02*
X311944827Y-282731185D01*
X311944827Y-282731185D02*
X311944827Y-282945471D01*
X311944827Y-282945471D02*
X311873399Y-283231185D01*
X311873399Y-283231185D02*
X311801970Y-283374042D01*
X311801970Y-283374042D02*
X311659113Y-283516900D01*
X311659113Y-283516900D02*
X311444827Y-283588328D01*
X311444827Y-283588328D02*
X311087684Y-283588328D01*
X312587684Y-283445471D02*
X312659113Y-283516900D01*
X312659113Y-283516900D02*
X312587684Y-283588328D01*
X312587684Y-283588328D02*
X312516256Y-283516900D01*
X312516256Y-283516900D02*
X312587684Y-283445471D01*
X312587684Y-283445471D02*
X312587684Y-283588328D01*
X313230542Y-283159757D02*
X313944828Y-283159757D01*
X313087685Y-283588328D02*
X313587685Y-282088328D01*
X313587685Y-282088328D02*
X314087685Y-283588328D01*
X314587684Y-283445471D02*
X314659113Y-283516900D01*
X314659113Y-283516900D02*
X314587684Y-283588328D01*
X314587684Y-283588328D02*
X314516256Y-283516900D01*
X314516256Y-283516900D02*
X314587684Y-283445471D01*
X314587684Y-283445471D02*
X314587684Y-283588328D01*
X316659113Y-282731185D02*
X316516256Y-282659757D01*
X316516256Y-282659757D02*
X316444827Y-282588328D01*
X316444827Y-282588328D02*
X316373399Y-282445471D01*
X316373399Y-282445471D02*
X316373399Y-282374042D01*
X316373399Y-282374042D02*
X316444827Y-282231185D01*
X316444827Y-282231185D02*
X316516256Y-282159757D01*
X316516256Y-282159757D02*
X316659113Y-282088328D01*
X316659113Y-282088328D02*
X316944827Y-282088328D01*
X316944827Y-282088328D02*
X317087685Y-282159757D01*
X317087685Y-282159757D02*
X317159113Y-282231185D01*
X317159113Y-282231185D02*
X317230542Y-282374042D01*
X317230542Y-282374042D02*
X317230542Y-282445471D01*
X317230542Y-282445471D02*
X317159113Y-282588328D01*
X317159113Y-282588328D02*
X317087685Y-282659757D01*
X317087685Y-282659757D02*
X316944827Y-282731185D01*
X316944827Y-282731185D02*
X316659113Y-282731185D01*
X316659113Y-282731185D02*
X316516256Y-282802614D01*
X316516256Y-282802614D02*
X316444827Y-282874042D01*
X316444827Y-282874042D02*
X316373399Y-283016900D01*
X316373399Y-283016900D02*
X316373399Y-283302614D01*
X316373399Y-283302614D02*
X316444827Y-283445471D01*
X316444827Y-283445471D02*
X316516256Y-283516900D01*
X316516256Y-283516900D02*
X316659113Y-283588328D01*
X316659113Y-283588328D02*
X316944827Y-283588328D01*
X316944827Y-283588328D02*
X317087685Y-283516900D01*
X317087685Y-283516900D02*
X317159113Y-283445471D01*
X317159113Y-283445471D02*
X317230542Y-283302614D01*
X317230542Y-283302614D02*
X317230542Y-283016900D01*
X317230542Y-283016900D02*
X317159113Y-282874042D01*
X317159113Y-282874042D02*
X317087685Y-282802614D01*
X317087685Y-282802614D02*
X316944827Y-282731185D01*
X317873398Y-283445471D02*
X317944827Y-283516900D01*
X317944827Y-283516900D02*
X317873398Y-283588328D01*
X317873398Y-283588328D02*
X317801970Y-283516900D01*
X317801970Y-283516900D02*
X317873398Y-283445471D01*
X317873398Y-283445471D02*
X317873398Y-283588328D01*
X318873399Y-282088328D02*
X319016256Y-282088328D01*
X319016256Y-282088328D02*
X319159113Y-282159757D01*
X319159113Y-282159757D02*
X319230542Y-282231185D01*
X319230542Y-282231185D02*
X319301970Y-282374042D01*
X319301970Y-282374042D02*
X319373399Y-282659757D01*
X319373399Y-282659757D02*
X319373399Y-283016900D01*
X319373399Y-283016900D02*
X319301970Y-283302614D01*
X319301970Y-283302614D02*
X319230542Y-283445471D01*
X319230542Y-283445471D02*
X319159113Y-283516900D01*
X319159113Y-283516900D02*
X319016256Y-283588328D01*
X319016256Y-283588328D02*
X318873399Y-283588328D01*
X318873399Y-283588328D02*
X318730542Y-283516900D01*
X318730542Y-283516900D02*
X318659113Y-283445471D01*
X318659113Y-283445471D02*
X318587684Y-283302614D01*
X318587684Y-283302614D02*
X318516256Y-283016900D01*
X318516256Y-283016900D02*
X318516256Y-282659757D01*
X318516256Y-282659757D02*
X318587684Y-282374042D01*
X318587684Y-282374042D02*
X318659113Y-282231185D01*
X318659113Y-282231185D02*
X318730542Y-282159757D01*
X318730542Y-282159757D02*
X318873399Y-282088328D01*
X320016255Y-283445471D02*
X320087684Y-283516900D01*
X320087684Y-283516900D02*
X320016255Y-283588328D01*
X320016255Y-283588328D02*
X319944827Y-283516900D01*
X319944827Y-283516900D02*
X320016255Y-283445471D01*
X320016255Y-283445471D02*
X320016255Y-283588328D01*
X321373399Y-282588328D02*
X321373399Y-283588328D01*
X321016256Y-282016900D02*
X320659113Y-283088328D01*
X320659113Y-283088328D02*
X321587684Y-283088328D01*
D10*
D11*
X299989000Y-278502200D02*
X407989000Y-278502200D01*
D10*
D12*
X387400653Y-280780528D02*
X386900653Y-280066242D01*
X386543510Y-280780528D02*
X386543510Y-279280528D01*
X386543510Y-279280528D02*
X387114939Y-279280528D01*
X387114939Y-279280528D02*
X387257796Y-279351957D01*
X387257796Y-279351957D02*
X387329225Y-279423385D01*
X387329225Y-279423385D02*
X387400653Y-279566242D01*
X387400653Y-279566242D02*
X387400653Y-279780528D01*
X387400653Y-279780528D02*
X387329225Y-279923385D01*
X387329225Y-279923385D02*
X387257796Y-279994814D01*
X387257796Y-279994814D02*
X387114939Y-280066242D01*
X387114939Y-280066242D02*
X386543510Y-280066242D01*
X388614939Y-280709100D02*
X388472082Y-280780528D01*
X388472082Y-280780528D02*
X388186368Y-280780528D01*
X388186368Y-280780528D02*
X388043510Y-280709100D01*
X388043510Y-280709100D02*
X387972082Y-280566242D01*
X387972082Y-280566242D02*
X387972082Y-279994814D01*
X387972082Y-279994814D02*
X388043510Y-279851957D01*
X388043510Y-279851957D02*
X388186368Y-279780528D01*
X388186368Y-279780528D02*
X388472082Y-279780528D01*
X388472082Y-279780528D02*
X388614939Y-279851957D01*
X388614939Y-279851957D02*
X388686368Y-279994814D01*
X388686368Y-279994814D02*
X388686368Y-280137671D01*
X388686368Y-280137671D02*
X387972082Y-280280528D01*
X389186367Y-279780528D02*
X389543510Y-280780528D01*
X389543510Y-280780528D02*
X389900653Y-279780528D01*
X390472081Y-280637671D02*
X390543510Y-280709100D01*
X390543510Y-280709100D02*
X390472081Y-280780528D01*
X390472081Y-280780528D02*
X390400653Y-280709100D01*
X390400653Y-280709100D02*
X390472081Y-280637671D01*
X390472081Y-280637671D02*
X390472081Y-280780528D01*
X390472081Y-279851957D02*
X390543510Y-279923385D01*
X390543510Y-279923385D02*
X390472081Y-279994814D01*
X390472081Y-279994814D02*
X390400653Y-279923385D01*
X390400653Y-279923385D02*
X390472081Y-279851957D01*
X390472081Y-279851957D02*
X390472081Y-279994814D01*
X392614939Y-279280528D02*
X392757796Y-279280528D01*
X392757796Y-279280528D02*
X392900653Y-279351957D01*
X392900653Y-279351957D02*
X392972082Y-279423385D01*
X392972082Y-279423385D02*
X393043510Y-279566242D01*
X393043510Y-279566242D02*
X393114939Y-279851957D01*
X393114939Y-279851957D02*
X393114939Y-280209100D01*
X393114939Y-280209100D02*
X393043510Y-280494814D01*
X393043510Y-280494814D02*
X392972082Y-280637671D01*
X392972082Y-280637671D02*
X392900653Y-280709100D01*
X392900653Y-280709100D02*
X392757796Y-280780528D01*
X392757796Y-280780528D02*
X392614939Y-280780528D01*
X392614939Y-280780528D02*
X392472082Y-280709100D01*
X392472082Y-280709100D02*
X392400653Y-280637671D01*
X392400653Y-280637671D02*
X392329224Y-280494814D01*
X392329224Y-280494814D02*
X392257796Y-280209100D01*
X392257796Y-280209100D02*
X392257796Y-279851957D01*
X392257796Y-279851957D02*
X392329224Y-279566242D01*
X392329224Y-279566242D02*
X392400653Y-279423385D01*
X392400653Y-279423385D02*
X392472082Y-279351957D01*
X392472082Y-279351957D02*
X392614939Y-279280528D01*
X393757795Y-280637671D02*
X393829224Y-280709100D01*
X393829224Y-280709100D02*
X393757795Y-280780528D01*
X393757795Y-280780528D02*
X393686367Y-280709100D01*
X393686367Y-280709100D02*
X393757795Y-280637671D01*
X393757795Y-280637671D02*
X393757795Y-280780528D01*
X394757796Y-279280528D02*
X394900653Y-279280528D01*
X394900653Y-279280528D02*
X395043510Y-279351957D01*
X395043510Y-279351957D02*
X395114939Y-279423385D01*
X395114939Y-279423385D02*
X395186367Y-279566242D01*
X395186367Y-279566242D02*
X395257796Y-279851957D01*
X395257796Y-279851957D02*
X395257796Y-280209100D01*
X395257796Y-280209100D02*
X395186367Y-280494814D01*
X395186367Y-280494814D02*
X395114939Y-280637671D01*
X395114939Y-280637671D02*
X395043510Y-280709100D01*
X395043510Y-280709100D02*
X394900653Y-280780528D01*
X394900653Y-280780528D02*
X394757796Y-280780528D01*
X394757796Y-280780528D02*
X394614939Y-280709100D01*
X394614939Y-280709100D02*
X394543510Y-280637671D01*
X394543510Y-280637671D02*
X394472081Y-280494814D01*
X394472081Y-280494814D02*
X394400653Y-280209100D01*
X394400653Y-280209100D02*
X394400653Y-279851957D01*
X394400653Y-279851957D02*
X394472081Y-279566242D01*
X394472081Y-279566242D02*
X394543510Y-279423385D01*
X394543510Y-279423385D02*
X394614939Y-279351957D01*
X394614939Y-279351957D02*
X394757796Y-279280528D01*
X396186367Y-279280528D02*
X396329224Y-279280528D01*
X396329224Y-279280528D02*
X396472081Y-279351957D01*
X396472081Y-279351957D02*
X396543510Y-279423385D01*
X396543510Y-279423385D02*
X396614938Y-279566242D01*
X396614938Y-279566242D02*
X396686367Y-279851957D01*
X396686367Y-279851957D02*
X396686367Y-280209100D01*
X396686367Y-280209100D02*
X396614938Y-280494814D01*
X396614938Y-280494814D02*
X396543510Y-280637671D01*
X396543510Y-280637671D02*
X396472081Y-280709100D01*
X396472081Y-280709100D02*
X396329224Y-280780528D01*
X396329224Y-280780528D02*
X396186367Y-280780528D01*
X396186367Y-280780528D02*
X396043510Y-280709100D01*
X396043510Y-280709100D02*
X395972081Y-280637671D01*
X395972081Y-280637671D02*
X395900652Y-280494814D01*
X395900652Y-280494814D02*
X395829224Y-280209100D01*
X395829224Y-280209100D02*
X395829224Y-279851957D01*
X395829224Y-279851957D02*
X395900652Y-279566242D01*
X395900652Y-279566242D02*
X395972081Y-279423385D01*
X395972081Y-279423385D02*
X396043510Y-279351957D01*
X396043510Y-279351957D02*
X396186367Y-279280528D01*
D10*
D11*
X301373398Y-280716900D02*
X301587684Y-280788328D01*
X301587684Y-280788328D02*
X301944826Y-280788328D01*
X301944826Y-280788328D02*
X302087684Y-280716900D01*
X302087684Y-280716900D02*
X302159112Y-280645471D01*
X302159112Y-280645471D02*
X302230541Y-280502614D01*
X302230541Y-280502614D02*
X302230541Y-280359757D01*
X302230541Y-280359757D02*
X302159112Y-280216900D01*
X302159112Y-280216900D02*
X302087684Y-280145471D01*
X302087684Y-280145471D02*
X301944826Y-280074042D01*
X301944826Y-280074042D02*
X301659112Y-280002614D01*
X301659112Y-280002614D02*
X301516255Y-279931185D01*
X301516255Y-279931185D02*
X301444826Y-279859757D01*
X301444826Y-279859757D02*
X301373398Y-279716900D01*
X301373398Y-279716900D02*
X301373398Y-279574042D01*
X301373398Y-279574042D02*
X301444826Y-279431185D01*
X301444826Y-279431185D02*
X301516255Y-279359757D01*
X301516255Y-279359757D02*
X301659112Y-279288328D01*
X301659112Y-279288328D02*
X302016255Y-279288328D01*
X302016255Y-279288328D02*
X302230541Y-279359757D01*
X302873397Y-280788328D02*
X302873397Y-279788328D01*
X302873397Y-279288328D02*
X302801969Y-279359757D01*
X302801969Y-279359757D02*
X302873397Y-279431185D01*
X302873397Y-279431185D02*
X302944826Y-279359757D01*
X302944826Y-279359757D02*
X302873397Y-279288328D01*
X302873397Y-279288328D02*
X302873397Y-279431185D01*
X303444826Y-279788328D02*
X304230541Y-279788328D01*
X304230541Y-279788328D02*
X303444826Y-280788328D01*
X303444826Y-280788328D02*
X304230541Y-280788328D01*
X305373398Y-280716900D02*
X305230541Y-280788328D01*
X305230541Y-280788328D02*
X304944827Y-280788328D01*
X304944827Y-280788328D02*
X304801969Y-280716900D01*
X304801969Y-280716900D02*
X304730541Y-280574042D01*
X304730541Y-280574042D02*
X304730541Y-280002614D01*
X304730541Y-280002614D02*
X304801969Y-279859757D01*
X304801969Y-279859757D02*
X304944827Y-279788328D01*
X304944827Y-279788328D02*
X305230541Y-279788328D01*
X305230541Y-279788328D02*
X305373398Y-279859757D01*
X305373398Y-279859757D02*
X305444827Y-280002614D01*
X305444827Y-280002614D02*
X305444827Y-280145471D01*
X305444827Y-280145471D02*
X304730541Y-280288328D01*
X306087683Y-280645471D02*
X306159112Y-280716900D01*
X306159112Y-280716900D02*
X306087683Y-280788328D01*
X306087683Y-280788328D02*
X306016255Y-280716900D01*
X306016255Y-280716900D02*
X306087683Y-280645471D01*
X306087683Y-280645471D02*
X306087683Y-280788328D01*
X306087683Y-279859757D02*
X306159112Y-279931185D01*
X306159112Y-279931185D02*
X306087683Y-280002614D01*
X306087683Y-280002614D02*
X306016255Y-279931185D01*
X306016255Y-279931185D02*
X306087683Y-279859757D01*
X306087683Y-279859757D02*
X306087683Y-280002614D01*
X307873398Y-280359757D02*
X308587684Y-280359757D01*
X307730541Y-280788328D02*
X308230541Y-279288328D01*
X308230541Y-279288328D02*
X308730541Y-280788328D01*
X309087683Y-279288328D02*
X310016255Y-279288328D01*
X310016255Y-279288328D02*
X309516255Y-279859757D01*
X309516255Y-279859757D02*
X309730540Y-279859757D01*
X309730540Y-279859757D02*
X309873398Y-279931185D01*
X309873398Y-279931185D02*
X309944826Y-280002614D01*
X309944826Y-280002614D02*
X310016255Y-280145471D01*
X310016255Y-280145471D02*
X310016255Y-280502614D01*
X310016255Y-280502614D02*
X309944826Y-280645471D01*
X309944826Y-280645471D02*
X309873398Y-280716900D01*
X309873398Y-280716900D02*
X309730540Y-280788328D01*
X309730540Y-280788328D02*
X309301969Y-280788328D01*
X309301969Y-280788328D02*
X309159112Y-280716900D01*
X309159112Y-280716900D02*
X309087683Y-280645471D01*
D10*
D11*
X386444826Y-283588328D02*
X386444826Y-282088328D01*
X387801970Y-283588328D02*
X387801970Y-282088328D01*
X387801970Y-283516900D02*
X387659112Y-283588328D01*
X387659112Y-283588328D02*
X387373398Y-283588328D01*
X387373398Y-283588328D02*
X387230541Y-283516900D01*
X387230541Y-283516900D02*
X387159112Y-283445471D01*
X387159112Y-283445471D02*
X387087684Y-283302614D01*
X387087684Y-283302614D02*
X387087684Y-282874042D01*
X387087684Y-282874042D02*
X387159112Y-282731185D01*
X387159112Y-282731185D02*
X387230541Y-282659757D01*
X387230541Y-282659757D02*
X387373398Y-282588328D01*
X387373398Y-282588328D02*
X387659112Y-282588328D01*
X387659112Y-282588328D02*
X387801970Y-282659757D01*
X388516255Y-283445471D02*
X388587684Y-283516900D01*
X388587684Y-283516900D02*
X388516255Y-283588328D01*
X388516255Y-283588328D02*
X388444827Y-283516900D01*
X388444827Y-283516900D02*
X388516255Y-283445471D01*
X388516255Y-283445471D02*
X388516255Y-283588328D01*
X388516255Y-282659757D02*
X388587684Y-282731185D01*
X388587684Y-282731185D02*
X388516255Y-282802614D01*
X388516255Y-282802614D02*
X388444827Y-282731185D01*
X388444827Y-282731185D02*
X388516255Y-282659757D01*
X388516255Y-282659757D02*
X388516255Y-282802614D01*
X391159113Y-283588328D02*
X390301970Y-283588328D01*
X390730541Y-283588328D02*
X390730541Y-282088328D01*
X390730541Y-282088328D02*
X390587684Y-282302614D01*
X390587684Y-282302614D02*
X390444827Y-282445471D01*
X390444827Y-282445471D02*
X390301970Y-282516900D01*
X392873398Y-282016900D02*
X391587684Y-283945471D01*
X394159113Y-283588328D02*
X393301970Y-283588328D01*
X393730541Y-283588328D02*
X393730541Y-282088328D01*
X393730541Y-282088328D02*
X393587684Y-282302614D01*
X393587684Y-282302614D02*
X393444827Y-282445471D01*
X393444827Y-282445471D02*
X393301970Y-282516900D01*
D10*
D11*
X299989000Y-274502200D02*
X407989000Y-274502200D01*
D10*
D13*
X301680728Y-275206638D02*
X302823585Y-275206638D01*
X302002157Y-277206638D02*
X302252157Y-275206638D01*
X303240252Y-277206638D02*
X303406919Y-275873304D01*
X303490252Y-275206638D02*
X303383109Y-275301876D01*
X303383109Y-275301876D02*
X303466443Y-275397114D01*
X303466443Y-275397114D02*
X303573586Y-275301876D01*
X303573586Y-275301876D02*
X303490252Y-275206638D01*
X303490252Y-275206638D02*
X303466443Y-275397114D01*
X304073586Y-275873304D02*
X304835490Y-275873304D01*
X304442633Y-275206638D02*
X304228348Y-276920923D01*
X304228348Y-276920923D02*
X304299776Y-277111400D01*
X304299776Y-277111400D02*
X304478348Y-277206638D01*
X304478348Y-277206638D02*
X304668824Y-277206638D01*
X305621205Y-277206638D02*
X305442633Y-277111400D01*
X305442633Y-277111400D02*
X305371205Y-276920923D01*
X305371205Y-276920923D02*
X305585490Y-275206638D01*
X307156919Y-277111400D02*
X306954538Y-277206638D01*
X306954538Y-277206638D02*
X306573585Y-277206638D01*
X306573585Y-277206638D02*
X306395014Y-277111400D01*
X306395014Y-277111400D02*
X306323585Y-276920923D01*
X306323585Y-276920923D02*
X306418824Y-276159019D01*
X306418824Y-276159019D02*
X306537871Y-275968542D01*
X306537871Y-275968542D02*
X306740252Y-275873304D01*
X306740252Y-275873304D02*
X307121204Y-275873304D01*
X307121204Y-275873304D02*
X307299776Y-275968542D01*
X307299776Y-275968542D02*
X307371204Y-276159019D01*
X307371204Y-276159019D02*
X307347395Y-276349495D01*
X307347395Y-276349495D02*
X306371204Y-276539971D01*
X308121205Y-277016161D02*
X308204538Y-277111400D01*
X308204538Y-277111400D02*
X308097395Y-277206638D01*
X308097395Y-277206638D02*
X308014062Y-277111400D01*
X308014062Y-277111400D02*
X308121205Y-277016161D01*
X308121205Y-277016161D02*
X308097395Y-277206638D01*
X308252157Y-275968542D02*
X308335490Y-276063780D01*
X308335490Y-276063780D02*
X308228348Y-276159019D01*
X308228348Y-276159019D02*
X308145014Y-276063780D01*
X308145014Y-276063780D02*
X308252157Y-275968542D01*
X308252157Y-275968542D02*
X308228348Y-276159019D01*
X311740253Y-277016161D02*
X311633110Y-277111400D01*
X311633110Y-277111400D02*
X311335491Y-277206638D01*
X311335491Y-277206638D02*
X311145015Y-277206638D01*
X311145015Y-277206638D02*
X310871205Y-277111400D01*
X310871205Y-277111400D02*
X310704539Y-276920923D01*
X310704539Y-276920923D02*
X310633110Y-276730447D01*
X310633110Y-276730447D02*
X310585491Y-276349495D01*
X310585491Y-276349495D02*
X310621205Y-276063780D01*
X310621205Y-276063780D02*
X310764062Y-275682828D01*
X310764062Y-275682828D02*
X310883110Y-275492352D01*
X310883110Y-275492352D02*
X311097396Y-275301876D01*
X311097396Y-275301876D02*
X311395015Y-275206638D01*
X311395015Y-275206638D02*
X311585491Y-275206638D01*
X311585491Y-275206638D02*
X311859301Y-275301876D01*
X311859301Y-275301876D02*
X311942634Y-275397114D01*
X313883110Y-277397114D02*
X313704539Y-277301876D01*
X313704539Y-277301876D02*
X313537872Y-277111400D01*
X313537872Y-277111400D02*
X313287872Y-276825685D01*
X313287872Y-276825685D02*
X313109301Y-276730447D01*
X313109301Y-276730447D02*
X312918824Y-276730447D01*
X312954539Y-277206638D02*
X312775967Y-277111400D01*
X312775967Y-277111400D02*
X312609301Y-276920923D01*
X312609301Y-276920923D02*
X312561681Y-276539971D01*
X312561681Y-276539971D02*
X312645015Y-275873304D01*
X312645015Y-275873304D02*
X312787872Y-275492352D01*
X312787872Y-275492352D02*
X313002158Y-275301876D01*
X313002158Y-275301876D02*
X313204539Y-275206638D01*
X313204539Y-275206638D02*
X313585491Y-275206638D01*
X313585491Y-275206638D02*
X313764062Y-275301876D01*
X313764062Y-275301876D02*
X313930729Y-275492352D01*
X313930729Y-275492352D02*
X313978348Y-275873304D01*
X313978348Y-275873304D02*
X313895015Y-276539971D01*
X313895015Y-276539971D02*
X313752158Y-276920923D01*
X313752158Y-276920923D02*
X313537872Y-277111400D01*
X313537872Y-277111400D02*
X313335491Y-277206638D01*
X313335491Y-277206638D02*
X312954539Y-277206638D01*
X314799777Y-275397114D02*
X314906919Y-275301876D01*
X314906919Y-275301876D02*
X315109300Y-275206638D01*
X315109300Y-275206638D02*
X315585491Y-275206638D01*
X315585491Y-275206638D02*
X315764062Y-275301876D01*
X315764062Y-275301876D02*
X315847396Y-275397114D01*
X315847396Y-275397114D02*
X315918824Y-275587590D01*
X315918824Y-275587590D02*
X315895015Y-275778066D01*
X315895015Y-275778066D02*
X315764062Y-276063780D01*
X315764062Y-276063780D02*
X314478348Y-277206638D01*
X314478348Y-277206638D02*
X315716443Y-277206638D01*
D10*
D11*
X301944826Y-272602614D02*
X301444826Y-272602614D01*
X301444826Y-273388328D02*
X301444826Y-271888328D01*
X301444826Y-271888328D02*
X302159112Y-271888328D01*
X302730540Y-273388328D02*
X302730540Y-272388328D01*
X302730540Y-271888328D02*
X302659112Y-271959757D01*
X302659112Y-271959757D02*
X302730540Y-272031185D01*
X302730540Y-272031185D02*
X302801969Y-271959757D01*
X302801969Y-271959757D02*
X302730540Y-271888328D01*
X302730540Y-271888328D02*
X302730540Y-272031185D01*
X303659112Y-273388328D02*
X303516255Y-273316900D01*
X303516255Y-273316900D02*
X303444826Y-273174042D01*
X303444826Y-273174042D02*
X303444826Y-271888328D01*
X304801969Y-273316900D02*
X304659112Y-273388328D01*
X304659112Y-273388328D02*
X304373398Y-273388328D01*
X304373398Y-273388328D02*
X304230540Y-273316900D01*
X304230540Y-273316900D02*
X304159112Y-273174042D01*
X304159112Y-273174042D02*
X304159112Y-272602614D01*
X304159112Y-272602614D02*
X304230540Y-272459757D01*
X304230540Y-272459757D02*
X304373398Y-272388328D01*
X304373398Y-272388328D02*
X304659112Y-272388328D01*
X304659112Y-272388328D02*
X304801969Y-272459757D01*
X304801969Y-272459757D02*
X304873398Y-272602614D01*
X304873398Y-272602614D02*
X304873398Y-272745471D01*
X304873398Y-272745471D02*
X304159112Y-272888328D01*
X305516254Y-273245471D02*
X305587683Y-273316900D01*
X305587683Y-273316900D02*
X305516254Y-273388328D01*
X305516254Y-273388328D02*
X305444826Y-273316900D01*
X305444826Y-273316900D02*
X305516254Y-273245471D01*
X305516254Y-273245471D02*
X305516254Y-273388328D01*
X305516254Y-272459757D02*
X305587683Y-272531185D01*
X305587683Y-272531185D02*
X305516254Y-272602614D01*
X305516254Y-272602614D02*
X305444826Y-272531185D01*
X305444826Y-272531185D02*
X305516254Y-272459757D01*
X305516254Y-272459757D02*
X305516254Y-272602614D01*
X308016255Y-273316900D02*
X307873397Y-273388328D01*
X307873397Y-273388328D02*
X307587683Y-273388328D01*
X307587683Y-273388328D02*
X307444826Y-273316900D01*
X307444826Y-273316900D02*
X307373397Y-273245471D01*
X307373397Y-273245471D02*
X307301969Y-273102614D01*
X307301969Y-273102614D02*
X307301969Y-272674042D01*
X307301969Y-272674042D02*
X307373397Y-272531185D01*
X307373397Y-272531185D02*
X307444826Y-272459757D01*
X307444826Y-272459757D02*
X307587683Y-272388328D01*
X307587683Y-272388328D02*
X307873397Y-272388328D01*
X307873397Y-272388328D02*
X308016255Y-272459757D01*
X309301969Y-272388328D02*
X309301969Y-273888328D01*
X309301969Y-273316900D02*
X309159111Y-273388328D01*
X309159111Y-273388328D02*
X308873397Y-273388328D01*
X308873397Y-273388328D02*
X308730540Y-273316900D01*
X308730540Y-273316900D02*
X308659111Y-273245471D01*
X308659111Y-273245471D02*
X308587683Y-273102614D01*
X308587683Y-273102614D02*
X308587683Y-272674042D01*
X308587683Y-272674042D02*
X308659111Y-272531185D01*
X308659111Y-272531185D02*
X308730540Y-272459757D01*
X308730540Y-272459757D02*
X308873397Y-272388328D01*
X308873397Y-272388328D02*
X309159111Y-272388328D01*
X309159111Y-272388328D02*
X309301969Y-272459757D01*
X309944826Y-272031185D02*
X310016254Y-271959757D01*
X310016254Y-271959757D02*
X310159112Y-271888328D01*
X310159112Y-271888328D02*
X310516254Y-271888328D01*
X310516254Y-271888328D02*
X310659112Y-271959757D01*
X310659112Y-271959757D02*
X310730540Y-272031185D01*
X310730540Y-272031185D02*
X310801969Y-272174042D01*
X310801969Y-272174042D02*
X310801969Y-272316900D01*
X310801969Y-272316900D02*
X310730540Y-272531185D01*
X310730540Y-272531185D02*
X309873397Y-273388328D01*
X309873397Y-273388328D02*
X310801969Y-273388328D01*
X311444825Y-273245471D02*
X311516254Y-273316900D01*
X311516254Y-273316900D02*
X311444825Y-273388328D01*
X311444825Y-273388328D02*
X311373397Y-273316900D01*
X311373397Y-273316900D02*
X311444825Y-273245471D01*
X311444825Y-273245471D02*
X311444825Y-273388328D01*
X312159111Y-273388328D02*
X312159111Y-271888328D01*
X312301969Y-272816900D02*
X312730540Y-273388328D01*
X312730540Y-272388328D02*
X312159111Y-272959757D01*
X313373397Y-273388328D02*
X313373397Y-272388328D01*
X313373397Y-271888328D02*
X313301969Y-271959757D01*
X313301969Y-271959757D02*
X313373397Y-272031185D01*
X313373397Y-272031185D02*
X313444826Y-271959757D01*
X313444826Y-271959757D02*
X313373397Y-271888328D01*
X313373397Y-271888328D02*
X313373397Y-272031185D01*
X314730541Y-273316900D02*
X314587683Y-273388328D01*
X314587683Y-273388328D02*
X314301969Y-273388328D01*
X314301969Y-273388328D02*
X314159112Y-273316900D01*
X314159112Y-273316900D02*
X314087683Y-273245471D01*
X314087683Y-273245471D02*
X314016255Y-273102614D01*
X314016255Y-273102614D02*
X314016255Y-272674042D01*
X314016255Y-272674042D02*
X314087683Y-272531185D01*
X314087683Y-272531185D02*
X314159112Y-272459757D01*
X314159112Y-272459757D02*
X314301969Y-272388328D01*
X314301969Y-272388328D02*
X314587683Y-272388328D01*
X314587683Y-272388328D02*
X314730541Y-272459757D01*
X316016255Y-273388328D02*
X316016255Y-272602614D01*
X316016255Y-272602614D02*
X315944826Y-272459757D01*
X315944826Y-272459757D02*
X315801969Y-272388328D01*
X315801969Y-272388328D02*
X315516255Y-272388328D01*
X315516255Y-272388328D02*
X315373397Y-272459757D01*
X316016255Y-273316900D02*
X315873397Y-273388328D01*
X315873397Y-273388328D02*
X315516255Y-273388328D01*
X315516255Y-273388328D02*
X315373397Y-273316900D01*
X315373397Y-273316900D02*
X315301969Y-273174042D01*
X315301969Y-273174042D02*
X315301969Y-273031185D01*
X315301969Y-273031185D02*
X315373397Y-272888328D01*
X315373397Y-272888328D02*
X315516255Y-272816900D01*
X315516255Y-272816900D02*
X315873397Y-272816900D01*
X315873397Y-272816900D02*
X316016255Y-272745471D01*
X317373398Y-273388328D02*
X317373398Y-271888328D01*
X317373398Y-273316900D02*
X317230540Y-273388328D01*
X317230540Y-273388328D02*
X316944826Y-273388328D01*
X316944826Y-273388328D02*
X316801969Y-273316900D01*
X316801969Y-273316900D02*
X316730540Y-273245471D01*
X316730540Y-273245471D02*
X316659112Y-273102614D01*
X316659112Y-273102614D02*
X316659112Y-272674042D01*
X316659112Y-272674042D02*
X316730540Y-272531185D01*
X316730540Y-272531185D02*
X316801969Y-272459757D01*
X316801969Y-272459757D02*
X316944826Y-272388328D01*
X316944826Y-272388328D02*
X317230540Y-272388328D01*
X317230540Y-272388328D02*
X317373398Y-272459757D01*
X317730541Y-273531185D02*
X318873398Y-273531185D01*
X319230540Y-272388328D02*
X319230540Y-273888328D01*
X319230540Y-272459757D02*
X319373398Y-272388328D01*
X319373398Y-272388328D02*
X319659112Y-272388328D01*
X319659112Y-272388328D02*
X319801969Y-272459757D01*
X319801969Y-272459757D02*
X319873398Y-272531185D01*
X319873398Y-272531185D02*
X319944826Y-272674042D01*
X319944826Y-272674042D02*
X319944826Y-273102614D01*
X319944826Y-273102614D02*
X319873398Y-273245471D01*
X319873398Y-273245471D02*
X319801969Y-273316900D01*
X319801969Y-273316900D02*
X319659112Y-273388328D01*
X319659112Y-273388328D02*
X319373398Y-273388328D01*
X319373398Y-273388328D02*
X319230540Y-273316900D01*
X321230541Y-273316900D02*
X321087683Y-273388328D01*
X321087683Y-273388328D02*
X320801969Y-273388328D01*
X320801969Y-273388328D02*
X320659112Y-273316900D01*
X320659112Y-273316900D02*
X320587683Y-273245471D01*
X320587683Y-273245471D02*
X320516255Y-273102614D01*
X320516255Y-273102614D02*
X320516255Y-272674042D01*
X320516255Y-272674042D02*
X320587683Y-272531185D01*
X320587683Y-272531185D02*
X320659112Y-272459757D01*
X320659112Y-272459757D02*
X320801969Y-272388328D01*
X320801969Y-272388328D02*
X321087683Y-272388328D01*
X321087683Y-272388328D02*
X321230541Y-272459757D01*
X321873397Y-273388328D02*
X321873397Y-271888328D01*
X321873397Y-272459757D02*
X322016255Y-272388328D01*
X322016255Y-272388328D02*
X322301969Y-272388328D01*
X322301969Y-272388328D02*
X322444826Y-272459757D01*
X322444826Y-272459757D02*
X322516255Y-272531185D01*
X322516255Y-272531185D02*
X322587683Y-272674042D01*
X322587683Y-272674042D02*
X322587683Y-273102614D01*
X322587683Y-273102614D02*
X322516255Y-273245471D01*
X322516255Y-273245471D02*
X322444826Y-273316900D01*
X322444826Y-273316900D02*
X322301969Y-273388328D01*
X322301969Y-273388328D02*
X322016255Y-273388328D01*
X322016255Y-273388328D02*
X321873397Y-273316900D01*
D10*
D11*
X299989000Y-268502200D02*
X407989000Y-268502200D01*
D10*
D11*
X301373398Y-270616900D02*
X301587684Y-270688328D01*
X301587684Y-270688328D02*
X301944826Y-270688328D01*
X301944826Y-270688328D02*
X302087684Y-270616900D01*
X302087684Y-270616900D02*
X302159112Y-270545471D01*
X302159112Y-270545471D02*
X302230541Y-270402614D01*
X302230541Y-270402614D02*
X302230541Y-270259757D01*
X302230541Y-270259757D02*
X302159112Y-270116900D01*
X302159112Y-270116900D02*
X302087684Y-270045471D01*
X302087684Y-270045471D02*
X301944826Y-269974042D01*
X301944826Y-269974042D02*
X301659112Y-269902614D01*
X301659112Y-269902614D02*
X301516255Y-269831185D01*
X301516255Y-269831185D02*
X301444826Y-269759757D01*
X301444826Y-269759757D02*
X301373398Y-269616900D01*
X301373398Y-269616900D02*
X301373398Y-269474042D01*
X301373398Y-269474042D02*
X301444826Y-269331185D01*
X301444826Y-269331185D02*
X301516255Y-269259757D01*
X301516255Y-269259757D02*
X301659112Y-269188328D01*
X301659112Y-269188328D02*
X302016255Y-269188328D01*
X302016255Y-269188328D02*
X302230541Y-269259757D01*
X302873397Y-270688328D02*
X302873397Y-269188328D01*
X303516255Y-270688328D02*
X303516255Y-269902614D01*
X303516255Y-269902614D02*
X303444826Y-269759757D01*
X303444826Y-269759757D02*
X303301969Y-269688328D01*
X303301969Y-269688328D02*
X303087683Y-269688328D01*
X303087683Y-269688328D02*
X302944826Y-269759757D01*
X302944826Y-269759757D02*
X302873397Y-269831185D01*
X304801969Y-270616900D02*
X304659112Y-270688328D01*
X304659112Y-270688328D02*
X304373398Y-270688328D01*
X304373398Y-270688328D02*
X304230540Y-270616900D01*
X304230540Y-270616900D02*
X304159112Y-270474042D01*
X304159112Y-270474042D02*
X304159112Y-269902614D01*
X304159112Y-269902614D02*
X304230540Y-269759757D01*
X304230540Y-269759757D02*
X304373398Y-269688328D01*
X304373398Y-269688328D02*
X304659112Y-269688328D01*
X304659112Y-269688328D02*
X304801969Y-269759757D01*
X304801969Y-269759757D02*
X304873398Y-269902614D01*
X304873398Y-269902614D02*
X304873398Y-270045471D01*
X304873398Y-270045471D02*
X304159112Y-270188328D01*
X306087683Y-270616900D02*
X305944826Y-270688328D01*
X305944826Y-270688328D02*
X305659112Y-270688328D01*
X305659112Y-270688328D02*
X305516254Y-270616900D01*
X305516254Y-270616900D02*
X305444826Y-270474042D01*
X305444826Y-270474042D02*
X305444826Y-269902614D01*
X305444826Y-269902614D02*
X305516254Y-269759757D01*
X305516254Y-269759757D02*
X305659112Y-269688328D01*
X305659112Y-269688328D02*
X305944826Y-269688328D01*
X305944826Y-269688328D02*
X306087683Y-269759757D01*
X306087683Y-269759757D02*
X306159112Y-269902614D01*
X306159112Y-269902614D02*
X306159112Y-270045471D01*
X306159112Y-270045471D02*
X305444826Y-270188328D01*
X306587683Y-269688328D02*
X307159111Y-269688328D01*
X306801968Y-269188328D02*
X306801968Y-270474042D01*
X306801968Y-270474042D02*
X306873397Y-270616900D01*
X306873397Y-270616900D02*
X307016254Y-270688328D01*
X307016254Y-270688328D02*
X307159111Y-270688328D01*
X307659111Y-270545471D02*
X307730540Y-270616900D01*
X307730540Y-270616900D02*
X307659111Y-270688328D01*
X307659111Y-270688328D02*
X307587683Y-270616900D01*
X307587683Y-270616900D02*
X307659111Y-270545471D01*
X307659111Y-270545471D02*
X307659111Y-270688328D01*
X307659111Y-269759757D02*
X307730540Y-269831185D01*
X307730540Y-269831185D02*
X307659111Y-269902614D01*
X307659111Y-269902614D02*
X307587683Y-269831185D01*
X307587683Y-269831185D02*
X307659111Y-269759757D01*
X307659111Y-269759757D02*
X307659111Y-269902614D01*
D10*
D11*
X302301969Y-264545471D02*
X302230541Y-264616900D01*
X302230541Y-264616900D02*
X302016255Y-264688328D01*
X302016255Y-264688328D02*
X301873398Y-264688328D01*
X301873398Y-264688328D02*
X301659112Y-264616900D01*
X301659112Y-264616900D02*
X301516255Y-264474042D01*
X301516255Y-264474042D02*
X301444826Y-264331185D01*
X301444826Y-264331185D02*
X301373398Y-264045471D01*
X301373398Y-264045471D02*
X301373398Y-263831185D01*
X301373398Y-263831185D02*
X301444826Y-263545471D01*
X301444826Y-263545471D02*
X301516255Y-263402614D01*
X301516255Y-263402614D02*
X301659112Y-263259757D01*
X301659112Y-263259757D02*
X301873398Y-263188328D01*
X301873398Y-263188328D02*
X302016255Y-263188328D01*
X302016255Y-263188328D02*
X302230541Y-263259757D01*
X302230541Y-263259757D02*
X302301969Y-263331185D01*
X302944826Y-264688328D02*
X302944826Y-263188328D01*
X302944826Y-263188328D02*
X303516255Y-263188328D01*
X303516255Y-263188328D02*
X303659112Y-263259757D01*
X303659112Y-263259757D02*
X303730541Y-263331185D01*
X303730541Y-263331185D02*
X303801969Y-263474042D01*
X303801969Y-263474042D02*
X303801969Y-263688328D01*
X303801969Y-263688328D02*
X303730541Y-263831185D01*
X303730541Y-263831185D02*
X303659112Y-263902614D01*
X303659112Y-263902614D02*
X303516255Y-263974042D01*
X303516255Y-263974042D02*
X302944826Y-263974042D01*
X305301969Y-264545471D02*
X305230541Y-264616900D01*
X305230541Y-264616900D02*
X305016255Y-264688328D01*
X305016255Y-264688328D02*
X304873398Y-264688328D01*
X304873398Y-264688328D02*
X304659112Y-264616900D01*
X304659112Y-264616900D02*
X304516255Y-264474042D01*
X304516255Y-264474042D02*
X304444826Y-264331185D01*
X304444826Y-264331185D02*
X304373398Y-264045471D01*
X304373398Y-264045471D02*
X304373398Y-263831185D01*
X304373398Y-263831185D02*
X304444826Y-263545471D01*
X304444826Y-263545471D02*
X304516255Y-263402614D01*
X304516255Y-263402614D02*
X304659112Y-263259757D01*
X304659112Y-263259757D02*
X304873398Y-263188328D01*
X304873398Y-263188328D02*
X305016255Y-263188328D01*
X305016255Y-263188328D02*
X305230541Y-263259757D01*
X305230541Y-263259757D02*
X305301969Y-263331185D01*
X305944826Y-264688328D02*
X305944826Y-263188328D01*
X307730541Y-263116900D02*
X306444827Y-265045471D01*
X308159113Y-264616900D02*
X308373399Y-264688328D01*
X308373399Y-264688328D02*
X308730541Y-264688328D01*
X308730541Y-264688328D02*
X308873399Y-264616900D01*
X308873399Y-264616900D02*
X308944827Y-264545471D01*
X308944827Y-264545471D02*
X309016256Y-264402614D01*
X309016256Y-264402614D02*
X309016256Y-264259757D01*
X309016256Y-264259757D02*
X308944827Y-264116900D01*
X308944827Y-264116900D02*
X308873399Y-264045471D01*
X308873399Y-264045471D02*
X308730541Y-263974042D01*
X308730541Y-263974042D02*
X308444827Y-263902614D01*
X308444827Y-263902614D02*
X308301970Y-263831185D01*
X308301970Y-263831185D02*
X308230541Y-263759757D01*
X308230541Y-263759757D02*
X308159113Y-263616900D01*
X308159113Y-263616900D02*
X308159113Y-263474042D01*
X308159113Y-263474042D02*
X308230541Y-263331185D01*
X308230541Y-263331185D02*
X308301970Y-263259757D01*
X308301970Y-263259757D02*
X308444827Y-263188328D01*
X308444827Y-263188328D02*
X308801970Y-263188328D01*
X308801970Y-263188328D02*
X309016256Y-263259757D01*
X310801969Y-264688328D02*
X310801969Y-263188328D01*
X310801969Y-263188328D02*
X311373398Y-263188328D01*
X311373398Y-263188328D02*
X311516255Y-263259757D01*
X311516255Y-263259757D02*
X311587684Y-263331185D01*
X311587684Y-263331185D02*
X311659112Y-263474042D01*
X311659112Y-263474042D02*
X311659112Y-263688328D01*
X311659112Y-263688328D02*
X311587684Y-263831185D01*
X311587684Y-263831185D02*
X311516255Y-263902614D01*
X311516255Y-263902614D02*
X311373398Y-263974042D01*
X311373398Y-263974042D02*
X310801969Y-263974042D01*
X312301969Y-264688328D02*
X312301969Y-263688328D01*
X312301969Y-263974042D02*
X312373398Y-263831185D01*
X312373398Y-263831185D02*
X312444827Y-263759757D01*
X312444827Y-263759757D02*
X312587684Y-263688328D01*
X312587684Y-263688328D02*
X312730541Y-263688328D01*
X313444826Y-264688328D02*
X313301969Y-264616900D01*
X313301969Y-264616900D02*
X313230540Y-264545471D01*
X313230540Y-264545471D02*
X313159112Y-264402614D01*
X313159112Y-264402614D02*
X313159112Y-263974042D01*
X313159112Y-263974042D02*
X313230540Y-263831185D01*
X313230540Y-263831185D02*
X313301969Y-263759757D01*
X313301969Y-263759757D02*
X313444826Y-263688328D01*
X313444826Y-263688328D02*
X313659112Y-263688328D01*
X313659112Y-263688328D02*
X313801969Y-263759757D01*
X313801969Y-263759757D02*
X313873398Y-263831185D01*
X313873398Y-263831185D02*
X313944826Y-263974042D01*
X313944826Y-263974042D02*
X313944826Y-264402614D01*
X313944826Y-264402614D02*
X313873398Y-264545471D01*
X313873398Y-264545471D02*
X313801969Y-264616900D01*
X313801969Y-264616900D02*
X313659112Y-264688328D01*
X313659112Y-264688328D02*
X313444826Y-264688328D01*
X315230541Y-263688328D02*
X315230541Y-264902614D01*
X315230541Y-264902614D02*
X315159112Y-265045471D01*
X315159112Y-265045471D02*
X315087683Y-265116900D01*
X315087683Y-265116900D02*
X314944826Y-265188328D01*
X314944826Y-265188328D02*
X314730541Y-265188328D01*
X314730541Y-265188328D02*
X314587683Y-265116900D01*
X315230541Y-264616900D02*
X315087683Y-264688328D01*
X315087683Y-264688328D02*
X314801969Y-264688328D01*
X314801969Y-264688328D02*
X314659112Y-264616900D01*
X314659112Y-264616900D02*
X314587683Y-264545471D01*
X314587683Y-264545471D02*
X314516255Y-264402614D01*
X314516255Y-264402614D02*
X314516255Y-263974042D01*
X314516255Y-263974042D02*
X314587683Y-263831185D01*
X314587683Y-263831185D02*
X314659112Y-263759757D01*
X314659112Y-263759757D02*
X314801969Y-263688328D01*
X314801969Y-263688328D02*
X315087683Y-263688328D01*
X315087683Y-263688328D02*
X315230541Y-263759757D01*
X315944826Y-264688328D02*
X315944826Y-263688328D01*
X315944826Y-263974042D02*
X316016255Y-263831185D01*
X316016255Y-263831185D02*
X316087684Y-263759757D01*
X316087684Y-263759757D02*
X316230541Y-263688328D01*
X316230541Y-263688328D02*
X316373398Y-263688328D01*
X317516255Y-264688328D02*
X317516255Y-263902614D01*
X317516255Y-263902614D02*
X317444826Y-263759757D01*
X317444826Y-263759757D02*
X317301969Y-263688328D01*
X317301969Y-263688328D02*
X317016255Y-263688328D01*
X317016255Y-263688328D02*
X316873397Y-263759757D01*
X317516255Y-264616900D02*
X317373397Y-264688328D01*
X317373397Y-264688328D02*
X317016255Y-264688328D01*
X317016255Y-264688328D02*
X316873397Y-264616900D01*
X316873397Y-264616900D02*
X316801969Y-264474042D01*
X316801969Y-264474042D02*
X316801969Y-264331185D01*
X316801969Y-264331185D02*
X316873397Y-264188328D01*
X316873397Y-264188328D02*
X317016255Y-264116900D01*
X317016255Y-264116900D02*
X317373397Y-264116900D01*
X317373397Y-264116900D02*
X317516255Y-264045471D01*
X318230540Y-264688328D02*
X318230540Y-263688328D01*
X318230540Y-263831185D02*
X318301969Y-263759757D01*
X318301969Y-263759757D02*
X318444826Y-263688328D01*
X318444826Y-263688328D02*
X318659112Y-263688328D01*
X318659112Y-263688328D02*
X318801969Y-263759757D01*
X318801969Y-263759757D02*
X318873398Y-263902614D01*
X318873398Y-263902614D02*
X318873398Y-264688328D01*
X318873398Y-263902614D02*
X318944826Y-263759757D01*
X318944826Y-263759757D02*
X319087683Y-263688328D01*
X319087683Y-263688328D02*
X319301969Y-263688328D01*
X319301969Y-263688328D02*
X319444826Y-263759757D01*
X319444826Y-263759757D02*
X319516255Y-263902614D01*
X319516255Y-263902614D02*
X319516255Y-264688328D01*
X320230540Y-264688328D02*
X320230540Y-263688328D01*
X320230540Y-263831185D02*
X320301969Y-263759757D01*
X320301969Y-263759757D02*
X320444826Y-263688328D01*
X320444826Y-263688328D02*
X320659112Y-263688328D01*
X320659112Y-263688328D02*
X320801969Y-263759757D01*
X320801969Y-263759757D02*
X320873398Y-263902614D01*
X320873398Y-263902614D02*
X320873398Y-264688328D01*
X320873398Y-263902614D02*
X320944826Y-263759757D01*
X320944826Y-263759757D02*
X321087683Y-263688328D01*
X321087683Y-263688328D02*
X321301969Y-263688328D01*
X321301969Y-263688328D02*
X321444826Y-263759757D01*
X321444826Y-263759757D02*
X321516255Y-263902614D01*
X321516255Y-263902614D02*
X321516255Y-264688328D01*
X322873398Y-264688328D02*
X322873398Y-263902614D01*
X322873398Y-263902614D02*
X322801969Y-263759757D01*
X322801969Y-263759757D02*
X322659112Y-263688328D01*
X322659112Y-263688328D02*
X322373398Y-263688328D01*
X322373398Y-263688328D02*
X322230540Y-263759757D01*
X322873398Y-264616900D02*
X322730540Y-264688328D01*
X322730540Y-264688328D02*
X322373398Y-264688328D01*
X322373398Y-264688328D02*
X322230540Y-264616900D01*
X322230540Y-264616900D02*
X322159112Y-264474042D01*
X322159112Y-264474042D02*
X322159112Y-264331185D01*
X322159112Y-264331185D02*
X322230540Y-264188328D01*
X322230540Y-264188328D02*
X322373398Y-264116900D01*
X322373398Y-264116900D02*
X322730540Y-264116900D01*
X322730540Y-264116900D02*
X322873398Y-264045471D01*
X323587683Y-264688328D02*
X323587683Y-263188328D01*
X323587683Y-263759757D02*
X323730541Y-263688328D01*
X323730541Y-263688328D02*
X324016255Y-263688328D01*
X324016255Y-263688328D02*
X324159112Y-263759757D01*
X324159112Y-263759757D02*
X324230541Y-263831185D01*
X324230541Y-263831185D02*
X324301969Y-263974042D01*
X324301969Y-263974042D02*
X324301969Y-264402614D01*
X324301969Y-264402614D02*
X324230541Y-264545471D01*
X324230541Y-264545471D02*
X324159112Y-264616900D01*
X324159112Y-264616900D02*
X324016255Y-264688328D01*
X324016255Y-264688328D02*
X323730541Y-264688328D01*
X323730541Y-264688328D02*
X323587683Y-264616900D01*
X325159112Y-264688328D02*
X325016255Y-264616900D01*
X325016255Y-264616900D02*
X324944826Y-264474042D01*
X324944826Y-264474042D02*
X324944826Y-263188328D01*
X326301969Y-264616900D02*
X326159112Y-264688328D01*
X326159112Y-264688328D02*
X325873398Y-264688328D01*
X325873398Y-264688328D02*
X325730540Y-264616900D01*
X325730540Y-264616900D02*
X325659112Y-264474042D01*
X325659112Y-264474042D02*
X325659112Y-263902614D01*
X325659112Y-263902614D02*
X325730540Y-263759757D01*
X325730540Y-263759757D02*
X325873398Y-263688328D01*
X325873398Y-263688328D02*
X326159112Y-263688328D01*
X326159112Y-263688328D02*
X326301969Y-263759757D01*
X326301969Y-263759757D02*
X326373398Y-263902614D01*
X326373398Y-263902614D02*
X326373398Y-264045471D01*
X326373398Y-264045471D02*
X325659112Y-264188328D01*
X328159111Y-264688328D02*
X328159111Y-263188328D01*
X328159111Y-263188328D02*
X328516254Y-263188328D01*
X328516254Y-263188328D02*
X328730540Y-263259757D01*
X328730540Y-263259757D02*
X328873397Y-263402614D01*
X328873397Y-263402614D02*
X328944826Y-263545471D01*
X328944826Y-263545471D02*
X329016254Y-263831185D01*
X329016254Y-263831185D02*
X329016254Y-264045471D01*
X329016254Y-264045471D02*
X328944826Y-264331185D01*
X328944826Y-264331185D02*
X328873397Y-264474042D01*
X328873397Y-264474042D02*
X328730540Y-264616900D01*
X328730540Y-264616900D02*
X328516254Y-264688328D01*
X328516254Y-264688328D02*
X328159111Y-264688328D01*
X330301969Y-263688328D02*
X330301969Y-264688328D01*
X329659111Y-263688328D02*
X329659111Y-264474042D01*
X329659111Y-264474042D02*
X329730540Y-264616900D01*
X329730540Y-264616900D02*
X329873397Y-264688328D01*
X329873397Y-264688328D02*
X330087683Y-264688328D01*
X330087683Y-264688328D02*
X330230540Y-264616900D01*
X330230540Y-264616900D02*
X330301969Y-264545471D01*
X331659112Y-264688328D02*
X331659112Y-263902614D01*
X331659112Y-263902614D02*
X331587683Y-263759757D01*
X331587683Y-263759757D02*
X331444826Y-263688328D01*
X331444826Y-263688328D02*
X331159112Y-263688328D01*
X331159112Y-263688328D02*
X331016254Y-263759757D01*
X331659112Y-264616900D02*
X331516254Y-264688328D01*
X331516254Y-264688328D02*
X331159112Y-264688328D01*
X331159112Y-264688328D02*
X331016254Y-264616900D01*
X331016254Y-264616900D02*
X330944826Y-264474042D01*
X330944826Y-264474042D02*
X330944826Y-264331185D01*
X330944826Y-264331185D02*
X331016254Y-264188328D01*
X331016254Y-264188328D02*
X331159112Y-264116900D01*
X331159112Y-264116900D02*
X331516254Y-264116900D01*
X331516254Y-264116900D02*
X331659112Y-264045471D01*
X332587683Y-264688328D02*
X332444826Y-264616900D01*
X332444826Y-264616900D02*
X332373397Y-264474042D01*
X332373397Y-264474042D02*
X332373397Y-263188328D01*
X334301968Y-264688328D02*
X334301968Y-263188328D01*
X334301968Y-263188328D02*
X334873397Y-263188328D01*
X334873397Y-263188328D02*
X335016254Y-263259757D01*
X335016254Y-263259757D02*
X335087683Y-263331185D01*
X335087683Y-263331185D02*
X335159111Y-263474042D01*
X335159111Y-263474042D02*
X335159111Y-263688328D01*
X335159111Y-263688328D02*
X335087683Y-263831185D01*
X335087683Y-263831185D02*
X335016254Y-263902614D01*
X335016254Y-263902614D02*
X334873397Y-263974042D01*
X334873397Y-263974042D02*
X334301968Y-263974042D01*
X335730540Y-264616900D02*
X335944826Y-264688328D01*
X335944826Y-264688328D02*
X336301968Y-264688328D01*
X336301968Y-264688328D02*
X336444826Y-264616900D01*
X336444826Y-264616900D02*
X336516254Y-264545471D01*
X336516254Y-264545471D02*
X336587683Y-264402614D01*
X336587683Y-264402614D02*
X336587683Y-264259757D01*
X336587683Y-264259757D02*
X336516254Y-264116900D01*
X336516254Y-264116900D02*
X336444826Y-264045471D01*
X336444826Y-264045471D02*
X336301968Y-263974042D01*
X336301968Y-263974042D02*
X336016254Y-263902614D01*
X336016254Y-263902614D02*
X335873397Y-263831185D01*
X335873397Y-263831185D02*
X335801968Y-263759757D01*
X335801968Y-263759757D02*
X335730540Y-263616900D01*
X335730540Y-263616900D02*
X335730540Y-263474042D01*
X335730540Y-263474042D02*
X335801968Y-263331185D01*
X335801968Y-263331185D02*
X335873397Y-263259757D01*
X335873397Y-263259757D02*
X336016254Y-263188328D01*
X336016254Y-263188328D02*
X336373397Y-263188328D01*
X336373397Y-263188328D02*
X336587683Y-263259757D01*
X337230539Y-263188328D02*
X337230539Y-264402614D01*
X337230539Y-264402614D02*
X337301968Y-264545471D01*
X337301968Y-264545471D02*
X337373397Y-264616900D01*
X337373397Y-264616900D02*
X337516254Y-264688328D01*
X337516254Y-264688328D02*
X337801968Y-264688328D01*
X337801968Y-264688328D02*
X337944825Y-264616900D01*
X337944825Y-264616900D02*
X338016254Y-264545471D01*
X338016254Y-264545471D02*
X338087682Y-264402614D01*
X338087682Y-264402614D02*
X338087682Y-263188328D01*
D10*
D11*
X301444826Y-261688328D02*
X301444826Y-260188328D01*
X301444826Y-260188328D02*
X301944826Y-261259757D01*
X301944826Y-261259757D02*
X302444826Y-260188328D01*
X302444826Y-260188328D02*
X302444826Y-261688328D01*
X303801970Y-261688328D02*
X303801970Y-260902614D01*
X303801970Y-260902614D02*
X303730541Y-260759757D01*
X303730541Y-260759757D02*
X303587684Y-260688328D01*
X303587684Y-260688328D02*
X303301970Y-260688328D01*
X303301970Y-260688328D02*
X303159112Y-260759757D01*
X303801970Y-261616900D02*
X303659112Y-261688328D01*
X303659112Y-261688328D02*
X303301970Y-261688328D01*
X303301970Y-261688328D02*
X303159112Y-261616900D01*
X303159112Y-261616900D02*
X303087684Y-261474042D01*
X303087684Y-261474042D02*
X303087684Y-261331185D01*
X303087684Y-261331185D02*
X303159112Y-261188328D01*
X303159112Y-261188328D02*
X303301970Y-261116900D01*
X303301970Y-261116900D02*
X303659112Y-261116900D01*
X303659112Y-261116900D02*
X303801970Y-261045471D01*
X304516255Y-260688328D02*
X304516255Y-261688328D01*
X304516255Y-260831185D02*
X304587684Y-260759757D01*
X304587684Y-260759757D02*
X304730541Y-260688328D01*
X304730541Y-260688328D02*
X304944827Y-260688328D01*
X304944827Y-260688328D02*
X305087684Y-260759757D01*
X305087684Y-260759757D02*
X305159113Y-260902614D01*
X305159113Y-260902614D02*
X305159113Y-261688328D01*
X305659113Y-260688328D02*
X306230541Y-260688328D01*
X305873398Y-261688328D02*
X305873398Y-260402614D01*
X305873398Y-260402614D02*
X305944827Y-260259757D01*
X305944827Y-260259757D02*
X306087684Y-260188328D01*
X306087684Y-260188328D02*
X306230541Y-260188328D01*
X306730541Y-261688328D02*
X306730541Y-260688328D01*
X306730541Y-260974042D02*
X306801970Y-260831185D01*
X306801970Y-260831185D02*
X306873399Y-260759757D01*
X306873399Y-260759757D02*
X307016256Y-260688328D01*
X307016256Y-260688328D02*
X307159113Y-260688328D01*
X308230541Y-261616900D02*
X308087684Y-261688328D01*
X308087684Y-261688328D02*
X307801970Y-261688328D01*
X307801970Y-261688328D02*
X307659112Y-261616900D01*
X307659112Y-261616900D02*
X307587684Y-261474042D01*
X307587684Y-261474042D02*
X307587684Y-260902614D01*
X307587684Y-260902614D02*
X307659112Y-260759757D01*
X307659112Y-260759757D02*
X307801970Y-260688328D01*
X307801970Y-260688328D02*
X308087684Y-260688328D01*
X308087684Y-260688328D02*
X308230541Y-260759757D01*
X308230541Y-260759757D02*
X308301970Y-260902614D01*
X308301970Y-260902614D02*
X308301970Y-261045471D01*
X308301970Y-261045471D02*
X307587684Y-261188328D01*
X309587684Y-261688328D02*
X309587684Y-260188328D01*
X309587684Y-261616900D02*
X309444826Y-261688328D01*
X309444826Y-261688328D02*
X309159112Y-261688328D01*
X309159112Y-261688328D02*
X309016255Y-261616900D01*
X309016255Y-261616900D02*
X308944826Y-261545471D01*
X308944826Y-261545471D02*
X308873398Y-261402614D01*
X308873398Y-261402614D02*
X308873398Y-260974042D01*
X308873398Y-260974042D02*
X308944826Y-260831185D01*
X308944826Y-260831185D02*
X309016255Y-260759757D01*
X309016255Y-260759757D02*
X309159112Y-260688328D01*
X309159112Y-260688328D02*
X309444826Y-260688328D01*
X309444826Y-260688328D02*
X309587684Y-260759757D01*
X311373398Y-261616900D02*
X311587684Y-261688328D01*
X311587684Y-261688328D02*
X311944826Y-261688328D01*
X311944826Y-261688328D02*
X312087684Y-261616900D01*
X312087684Y-261616900D02*
X312159112Y-261545471D01*
X312159112Y-261545471D02*
X312230541Y-261402614D01*
X312230541Y-261402614D02*
X312230541Y-261259757D01*
X312230541Y-261259757D02*
X312159112Y-261116900D01*
X312159112Y-261116900D02*
X312087684Y-261045471D01*
X312087684Y-261045471D02*
X311944826Y-260974042D01*
X311944826Y-260974042D02*
X311659112Y-260902614D01*
X311659112Y-260902614D02*
X311516255Y-260831185D01*
X311516255Y-260831185D02*
X311444826Y-260759757D01*
X311444826Y-260759757D02*
X311373398Y-260616900D01*
X311373398Y-260616900D02*
X311373398Y-260474042D01*
X311373398Y-260474042D02*
X311444826Y-260331185D01*
X311444826Y-260331185D02*
X311516255Y-260259757D01*
X311516255Y-260259757D02*
X311659112Y-260188328D01*
X311659112Y-260188328D02*
X312016255Y-260188328D01*
X312016255Y-260188328D02*
X312230541Y-260259757D01*
X313516255Y-261616900D02*
X313373397Y-261688328D01*
X313373397Y-261688328D02*
X313087683Y-261688328D01*
X313087683Y-261688328D02*
X312944826Y-261616900D01*
X312944826Y-261616900D02*
X312873397Y-261545471D01*
X312873397Y-261545471D02*
X312801969Y-261402614D01*
X312801969Y-261402614D02*
X312801969Y-260974042D01*
X312801969Y-260974042D02*
X312873397Y-260831185D01*
X312873397Y-260831185D02*
X312944826Y-260759757D01*
X312944826Y-260759757D02*
X313087683Y-260688328D01*
X313087683Y-260688328D02*
X313373397Y-260688328D01*
X313373397Y-260688328D02*
X313516255Y-260759757D01*
X314159111Y-261688328D02*
X314159111Y-260188328D01*
X314801969Y-261688328D02*
X314801969Y-260902614D01*
X314801969Y-260902614D02*
X314730540Y-260759757D01*
X314730540Y-260759757D02*
X314587683Y-260688328D01*
X314587683Y-260688328D02*
X314373397Y-260688328D01*
X314373397Y-260688328D02*
X314230540Y-260759757D01*
X314230540Y-260759757D02*
X314159111Y-260831185D01*
X315516254Y-261688328D02*
X315516254Y-260688328D01*
X315516254Y-260831185D02*
X315587683Y-260759757D01*
X315587683Y-260759757D02*
X315730540Y-260688328D01*
X315730540Y-260688328D02*
X315944826Y-260688328D01*
X315944826Y-260688328D02*
X316087683Y-260759757D01*
X316087683Y-260759757D02*
X316159112Y-260902614D01*
X316159112Y-260902614D02*
X316159112Y-261688328D01*
X316159112Y-260902614D02*
X316230540Y-260759757D01*
X316230540Y-260759757D02*
X316373397Y-260688328D01*
X316373397Y-260688328D02*
X316587683Y-260688328D01*
X316587683Y-260688328D02*
X316730540Y-260759757D01*
X316730540Y-260759757D02*
X316801969Y-260902614D01*
X316801969Y-260902614D02*
X316801969Y-261688328D01*
X317516254Y-261688328D02*
X317516254Y-260688328D01*
X317516254Y-260188328D02*
X317444826Y-260259757D01*
X317444826Y-260259757D02*
X317516254Y-260331185D01*
X317516254Y-260331185D02*
X317587683Y-260259757D01*
X317587683Y-260259757D02*
X317516254Y-260188328D01*
X317516254Y-260188328D02*
X317516254Y-260331185D01*
X318016255Y-260688328D02*
X318587683Y-260688328D01*
X318230540Y-260188328D02*
X318230540Y-261474042D01*
X318230540Y-261474042D02*
X318301969Y-261616900D01*
X318301969Y-261616900D02*
X318444826Y-261688328D01*
X318444826Y-261688328D02*
X318587683Y-261688328D01*
X318944826Y-260688328D02*
X319730541Y-260688328D01*
X319730541Y-260688328D02*
X318944826Y-261688328D01*
X318944826Y-261688328D02*
X319730541Y-261688328D01*
D10*
D11*
X301230541Y-257188328D02*
X301730541Y-258688328D01*
X301730541Y-258688328D02*
X302230541Y-257188328D01*
X302944826Y-258688328D02*
X302801969Y-258616900D01*
X302801969Y-258616900D02*
X302730540Y-258545471D01*
X302730540Y-258545471D02*
X302659112Y-258402614D01*
X302659112Y-258402614D02*
X302659112Y-257974042D01*
X302659112Y-257974042D02*
X302730540Y-257831185D01*
X302730540Y-257831185D02*
X302801969Y-257759757D01*
X302801969Y-257759757D02*
X302944826Y-257688328D01*
X302944826Y-257688328D02*
X303159112Y-257688328D01*
X303159112Y-257688328D02*
X303301969Y-257759757D01*
X303301969Y-257759757D02*
X303373398Y-257831185D01*
X303373398Y-257831185D02*
X303444826Y-257974042D01*
X303444826Y-257974042D02*
X303444826Y-258402614D01*
X303444826Y-258402614D02*
X303373398Y-258545471D01*
X303373398Y-258545471D02*
X303301969Y-258616900D01*
X303301969Y-258616900D02*
X303159112Y-258688328D01*
X303159112Y-258688328D02*
X302944826Y-258688328D01*
X304301969Y-258688328D02*
X304159112Y-258616900D01*
X304159112Y-258616900D02*
X304087683Y-258474042D01*
X304087683Y-258474042D02*
X304087683Y-257188328D01*
X304873397Y-258688328D02*
X304873397Y-257188328D01*
X305016255Y-258116900D02*
X305444826Y-258688328D01*
X305444826Y-257688328D02*
X304873397Y-258259757D01*
X306659112Y-258616900D02*
X306516255Y-258688328D01*
X306516255Y-258688328D02*
X306230541Y-258688328D01*
X306230541Y-258688328D02*
X306087683Y-258616900D01*
X306087683Y-258616900D02*
X306016255Y-258474042D01*
X306016255Y-258474042D02*
X306016255Y-257902614D01*
X306016255Y-257902614D02*
X306087683Y-257759757D01*
X306087683Y-257759757D02*
X306230541Y-257688328D01*
X306230541Y-257688328D02*
X306516255Y-257688328D01*
X306516255Y-257688328D02*
X306659112Y-257759757D01*
X306659112Y-257759757D02*
X306730541Y-257902614D01*
X306730541Y-257902614D02*
X306730541Y-258045471D01*
X306730541Y-258045471D02*
X306016255Y-258188328D01*
X307373397Y-258688328D02*
X307373397Y-257688328D01*
X307373397Y-257974042D02*
X307444826Y-257831185D01*
X307444826Y-257831185D02*
X307516255Y-257759757D01*
X307516255Y-257759757D02*
X307659112Y-257688328D01*
X307659112Y-257688328D02*
X307801969Y-257688328D01*
X310159111Y-258688328D02*
X309444825Y-258688328D01*
X309444825Y-258688328D02*
X309444825Y-257188328D01*
X311301969Y-257688328D02*
X311301969Y-258688328D01*
X310659111Y-257688328D02*
X310659111Y-258474042D01*
X310659111Y-258474042D02*
X310730540Y-258616900D01*
X310730540Y-258616900D02*
X310873397Y-258688328D01*
X310873397Y-258688328D02*
X311087683Y-258688328D01*
X311087683Y-258688328D02*
X311230540Y-258616900D01*
X311230540Y-258616900D02*
X311301969Y-258545471D01*
X311873397Y-257688328D02*
X312230540Y-258688328D01*
X312587683Y-257688328D02*
X312230540Y-258688328D01*
X312230540Y-258688328D02*
X312087683Y-259045471D01*
X312087683Y-259045471D02*
X312016254Y-259116900D01*
X312016254Y-259116900D02*
X311873397Y-259188328D01*
X313087683Y-258616900D02*
X313230540Y-258688328D01*
X313230540Y-258688328D02*
X313516254Y-258688328D01*
X313516254Y-258688328D02*
X313659111Y-258616900D01*
X313659111Y-258616900D02*
X313730540Y-258474042D01*
X313730540Y-258474042D02*
X313730540Y-258402614D01*
X313730540Y-258402614D02*
X313659111Y-258259757D01*
X313659111Y-258259757D02*
X313516254Y-258188328D01*
X313516254Y-258188328D02*
X313301969Y-258188328D01*
X313301969Y-258188328D02*
X313159111Y-258116900D01*
X313159111Y-258116900D02*
X313087683Y-257974042D01*
X313087683Y-257974042D02*
X313087683Y-257902614D01*
X313087683Y-257902614D02*
X313159111Y-257759757D01*
X313159111Y-257759757D02*
X313301969Y-257688328D01*
X313301969Y-257688328D02*
X313516254Y-257688328D01*
X313516254Y-257688328D02*
X313659111Y-257759757D01*
X314159112Y-257688328D02*
X314730540Y-257688328D01*
X314373397Y-257188328D02*
X314373397Y-258474042D01*
X314373397Y-258474042D02*
X314444826Y-258616900D01*
X314444826Y-258616900D02*
X314587683Y-258688328D01*
X314587683Y-258688328D02*
X314730540Y-258688328D01*
X315801969Y-258616900D02*
X315659112Y-258688328D01*
X315659112Y-258688328D02*
X315373398Y-258688328D01*
X315373398Y-258688328D02*
X315230540Y-258616900D01*
X315230540Y-258616900D02*
X315159112Y-258474042D01*
X315159112Y-258474042D02*
X315159112Y-257902614D01*
X315159112Y-257902614D02*
X315230540Y-257759757D01*
X315230540Y-257759757D02*
X315373398Y-257688328D01*
X315373398Y-257688328D02*
X315659112Y-257688328D01*
X315659112Y-257688328D02*
X315801969Y-257759757D01*
X315801969Y-257759757D02*
X315873398Y-257902614D01*
X315873398Y-257902614D02*
X315873398Y-258045471D01*
X315873398Y-258045471D02*
X315159112Y-258188328D01*
X316516254Y-258688328D02*
X316516254Y-257688328D01*
X316516254Y-257974042D02*
X316587683Y-257831185D01*
X316587683Y-257831185D02*
X316659112Y-257759757D01*
X316659112Y-257759757D02*
X316801969Y-257688328D01*
X316801969Y-257688328D02*
X316944826Y-257688328D01*
X317444825Y-258688328D02*
X317444825Y-257188328D01*
X317444825Y-257759757D02*
X317587683Y-257688328D01*
X317587683Y-257688328D02*
X317873397Y-257688328D01*
X317873397Y-257688328D02*
X318016254Y-257759757D01*
X318016254Y-257759757D02*
X318087683Y-257831185D01*
X318087683Y-257831185D02*
X318159111Y-257974042D01*
X318159111Y-257974042D02*
X318159111Y-258402614D01*
X318159111Y-258402614D02*
X318087683Y-258545471D01*
X318087683Y-258545471D02*
X318016254Y-258616900D01*
X318016254Y-258616900D02*
X317873397Y-258688328D01*
X317873397Y-258688328D02*
X317587683Y-258688328D01*
X317587683Y-258688328D02*
X317444825Y-258616900D01*
X319444826Y-257688328D02*
X319444826Y-258688328D01*
X318801968Y-257688328D02*
X318801968Y-258474042D01*
X318801968Y-258474042D02*
X318873397Y-258616900D01*
X318873397Y-258616900D02*
X319016254Y-258688328D01*
X319016254Y-258688328D02*
X319230540Y-258688328D01*
X319230540Y-258688328D02*
X319373397Y-258616900D01*
X319373397Y-258616900D02*
X319444826Y-258545471D01*
X320159111Y-258688328D02*
X320159111Y-257688328D01*
X320159111Y-257974042D02*
X320230540Y-257831185D01*
X320230540Y-257831185D02*
X320301969Y-257759757D01*
X320301969Y-257759757D02*
X320444826Y-257688328D01*
X320444826Y-257688328D02*
X320587683Y-257688328D01*
X321730540Y-257688328D02*
X321730540Y-258902614D01*
X321730540Y-258902614D02*
X321659111Y-259045471D01*
X321659111Y-259045471D02*
X321587682Y-259116900D01*
X321587682Y-259116900D02*
X321444825Y-259188328D01*
X321444825Y-259188328D02*
X321230540Y-259188328D01*
X321230540Y-259188328D02*
X321087682Y-259116900D01*
X321730540Y-258616900D02*
X321587682Y-258688328D01*
X321587682Y-258688328D02*
X321301968Y-258688328D01*
X321301968Y-258688328D02*
X321159111Y-258616900D01*
X321159111Y-258616900D02*
X321087682Y-258545471D01*
X321087682Y-258545471D02*
X321016254Y-258402614D01*
X321016254Y-258402614D02*
X321016254Y-257974042D01*
X321016254Y-257974042D02*
X321087682Y-257831185D01*
X321087682Y-257831185D02*
X321159111Y-257759757D01*
X321159111Y-257759757D02*
X321301968Y-257688328D01*
X321301968Y-257688328D02*
X321587682Y-257688328D01*
X321587682Y-257688328D02*
X321730540Y-257759757D01*
D10*
D11*
X301373398Y-254331185D02*
X301444826Y-254259757D01*
X301444826Y-254259757D02*
X301587684Y-254188328D01*
X301587684Y-254188328D02*
X301944826Y-254188328D01*
X301944826Y-254188328D02*
X302087684Y-254259757D01*
X302087684Y-254259757D02*
X302159112Y-254331185D01*
X302159112Y-254331185D02*
X302230541Y-254474042D01*
X302230541Y-254474042D02*
X302230541Y-254616900D01*
X302230541Y-254616900D02*
X302159112Y-254831185D01*
X302159112Y-254831185D02*
X301301969Y-255688328D01*
X301301969Y-255688328D02*
X302230541Y-255688328D01*
X303159112Y-254188328D02*
X303301969Y-254188328D01*
X303301969Y-254188328D02*
X303444826Y-254259757D01*
X303444826Y-254259757D02*
X303516255Y-254331185D01*
X303516255Y-254331185D02*
X303587683Y-254474042D01*
X303587683Y-254474042D02*
X303659112Y-254759757D01*
X303659112Y-254759757D02*
X303659112Y-255116900D01*
X303659112Y-255116900D02*
X303587683Y-255402614D01*
X303587683Y-255402614D02*
X303516255Y-255545471D01*
X303516255Y-255545471D02*
X303444826Y-255616900D01*
X303444826Y-255616900D02*
X303301969Y-255688328D01*
X303301969Y-255688328D02*
X303159112Y-255688328D01*
X303159112Y-255688328D02*
X303016255Y-255616900D01*
X303016255Y-255616900D02*
X302944826Y-255545471D01*
X302944826Y-255545471D02*
X302873397Y-255402614D01*
X302873397Y-255402614D02*
X302801969Y-255116900D01*
X302801969Y-255116900D02*
X302801969Y-254759757D01*
X302801969Y-254759757D02*
X302873397Y-254474042D01*
X302873397Y-254474042D02*
X302944826Y-254331185D01*
X302944826Y-254331185D02*
X303016255Y-254259757D01*
X303016255Y-254259757D02*
X303159112Y-254188328D01*
X304230540Y-254331185D02*
X304301968Y-254259757D01*
X304301968Y-254259757D02*
X304444826Y-254188328D01*
X304444826Y-254188328D02*
X304801968Y-254188328D01*
X304801968Y-254188328D02*
X304944826Y-254259757D01*
X304944826Y-254259757D02*
X305016254Y-254331185D01*
X305016254Y-254331185D02*
X305087683Y-254474042D01*
X305087683Y-254474042D02*
X305087683Y-254616900D01*
X305087683Y-254616900D02*
X305016254Y-254831185D01*
X305016254Y-254831185D02*
X304159111Y-255688328D01*
X304159111Y-255688328D02*
X305087683Y-255688328D01*
X306373397Y-254688328D02*
X306373397Y-255688328D01*
X306016254Y-254116900D02*
X305659111Y-255188328D01*
X305659111Y-255188328D02*
X306587682Y-255188328D01*
X307159110Y-255116900D02*
X308301968Y-255116900D01*
X309301968Y-254188328D02*
X309444825Y-254188328D01*
X309444825Y-254188328D02*
X309587682Y-254259757D01*
X309587682Y-254259757D02*
X309659111Y-254331185D01*
X309659111Y-254331185D02*
X309730539Y-254474042D01*
X309730539Y-254474042D02*
X309801968Y-254759757D01*
X309801968Y-254759757D02*
X309801968Y-255116900D01*
X309801968Y-255116900D02*
X309730539Y-255402614D01*
X309730539Y-255402614D02*
X309659111Y-255545471D01*
X309659111Y-255545471D02*
X309587682Y-255616900D01*
X309587682Y-255616900D02*
X309444825Y-255688328D01*
X309444825Y-255688328D02*
X309301968Y-255688328D01*
X309301968Y-255688328D02*
X309159111Y-255616900D01*
X309159111Y-255616900D02*
X309087682Y-255545471D01*
X309087682Y-255545471D02*
X309016253Y-255402614D01*
X309016253Y-255402614D02*
X308944825Y-255116900D01*
X308944825Y-255116900D02*
X308944825Y-254759757D01*
X308944825Y-254759757D02*
X309016253Y-254474042D01*
X309016253Y-254474042D02*
X309087682Y-254331185D01*
X309087682Y-254331185D02*
X309159111Y-254259757D01*
X309159111Y-254259757D02*
X309301968Y-254188328D01*
X310301967Y-254188328D02*
X311301967Y-254188328D01*
X311301967Y-254188328D02*
X310659110Y-255688328D01*
X311873395Y-255116900D02*
X313016253Y-255116900D01*
X314516253Y-255688328D02*
X313659110Y-255688328D01*
X314087681Y-255688328D02*
X314087681Y-254188328D01*
X314087681Y-254188328D02*
X313944824Y-254402614D01*
X313944824Y-254402614D02*
X313801967Y-254545471D01*
X313801967Y-254545471D02*
X313659110Y-254616900D01*
X315873395Y-254188328D02*
X315159109Y-254188328D01*
X315159109Y-254188328D02*
X315087681Y-254902614D01*
X315087681Y-254902614D02*
X315159109Y-254831185D01*
X315159109Y-254831185D02*
X315301967Y-254759757D01*
X315301967Y-254759757D02*
X315659109Y-254759757D01*
X315659109Y-254759757D02*
X315801967Y-254831185D01*
X315801967Y-254831185D02*
X315873395Y-254902614D01*
X315873395Y-254902614D02*
X315944824Y-255045471D01*
X315944824Y-255045471D02*
X315944824Y-255402614D01*
X315944824Y-255402614D02*
X315873395Y-255545471D01*
X315873395Y-255545471D02*
X315801967Y-255616900D01*
X315801967Y-255616900D02*
X315659109Y-255688328D01*
X315659109Y-255688328D02*
X315301967Y-255688328D01*
X315301967Y-255688328D02*
X315159109Y-255616900D01*
X315159109Y-255616900D02*
X315087681Y-255545471D01*
D10*
D11*
X319989000Y-278502200D02*
X319989000Y-281502200D01*
D10*
D11*
X383989000Y-278502200D02*
X383989000Y-285002200D01*
D10*
X223800000Y-194700000D02*
X224500000Y-195400000D01*
D14*
X307669673Y-269579480D02*
X308264911Y-269579480D01*
X307550625Y-269936623D02*
X307967292Y-268686623D01*
X307967292Y-268686623D02*
X308383958Y-269936623D01*
X308741102Y-269877100D02*
X308860149Y-269936623D01*
X308860149Y-269936623D02*
X309098245Y-269936623D01*
X309098245Y-269936623D02*
X309217292Y-269877100D01*
X309217292Y-269877100D02*
X309276816Y-269758052D01*
X309276816Y-269758052D02*
X309276816Y-269698528D01*
X309276816Y-269698528D02*
X309217292Y-269579480D01*
X309217292Y-269579480D02*
X309098245Y-269519957D01*
X309098245Y-269519957D02*
X308919673Y-269519957D01*
X308919673Y-269519957D02*
X308800626Y-269460433D01*
X308800626Y-269460433D02*
X308741102Y-269341385D01*
X308741102Y-269341385D02*
X308741102Y-269281861D01*
X308741102Y-269281861D02*
X308800626Y-269162814D01*
X308800626Y-269162814D02*
X308919673Y-269103290D01*
X308919673Y-269103290D02*
X309098245Y-269103290D01*
X309098245Y-269103290D02*
X309217292Y-269162814D01*
X309753007Y-269877100D02*
X309872054Y-269936623D01*
X309872054Y-269936623D02*
X310110150Y-269936623D01*
X310110150Y-269936623D02*
X310229197Y-269877100D01*
X310229197Y-269877100D02*
X310288721Y-269758052D01*
X310288721Y-269758052D02*
X310288721Y-269698528D01*
X310288721Y-269698528D02*
X310229197Y-269579480D01*
X310229197Y-269579480D02*
X310110150Y-269519957D01*
X310110150Y-269519957D02*
X309931578Y-269519957D01*
X309931578Y-269519957D02*
X309812531Y-269460433D01*
X309812531Y-269460433D02*
X309753007Y-269341385D01*
X309753007Y-269341385D02*
X309753007Y-269281861D01*
X309753007Y-269281861D02*
X309812531Y-269162814D01*
X309812531Y-269162814D02*
X309931578Y-269103290D01*
X309931578Y-269103290D02*
X310110150Y-269103290D01*
X310110150Y-269103290D02*
X310229197Y-269162814D01*
X311300626Y-269877100D02*
X311181578Y-269936623D01*
X311181578Y-269936623D02*
X310943483Y-269936623D01*
X310943483Y-269936623D02*
X310824436Y-269877100D01*
X310824436Y-269877100D02*
X310764912Y-269758052D01*
X310764912Y-269758052D02*
X310764912Y-269281861D01*
X310764912Y-269281861D02*
X310824436Y-269162814D01*
X310824436Y-269162814D02*
X310943483Y-269103290D01*
X310943483Y-269103290D02*
X311181578Y-269103290D01*
X311181578Y-269103290D02*
X311300626Y-269162814D01*
X311300626Y-269162814D02*
X311360150Y-269281861D01*
X311360150Y-269281861D02*
X311360150Y-269400909D01*
X311360150Y-269400909D02*
X310764912Y-269519957D01*
X311895865Y-269936623D02*
X311895865Y-269103290D01*
X311895865Y-269222338D02*
X311955388Y-269162814D01*
X311955388Y-269162814D02*
X312074436Y-269103290D01*
X312074436Y-269103290D02*
X312253007Y-269103290D01*
X312253007Y-269103290D02*
X312372055Y-269162814D01*
X312372055Y-269162814D02*
X312431579Y-269281861D01*
X312431579Y-269281861D02*
X312431579Y-269936623D01*
X312431579Y-269281861D02*
X312491103Y-269162814D01*
X312491103Y-269162814D02*
X312610150Y-269103290D01*
X312610150Y-269103290D02*
X312788722Y-269103290D01*
X312788722Y-269103290D02*
X312907769Y-269162814D01*
X312907769Y-269162814D02*
X312967293Y-269281861D01*
X312967293Y-269281861D02*
X312967293Y-269936623D01*
X313562532Y-269936623D02*
X313562532Y-268686623D01*
X313562532Y-269162814D02*
X313681579Y-269103290D01*
X313681579Y-269103290D02*
X313919674Y-269103290D01*
X313919674Y-269103290D02*
X314038722Y-269162814D01*
X314038722Y-269162814D02*
X314098246Y-269222338D01*
X314098246Y-269222338D02*
X314157770Y-269341385D01*
X314157770Y-269341385D02*
X314157770Y-269698528D01*
X314157770Y-269698528D02*
X314098246Y-269817576D01*
X314098246Y-269817576D02*
X314038722Y-269877100D01*
X314038722Y-269877100D02*
X313919674Y-269936623D01*
X313919674Y-269936623D02*
X313681579Y-269936623D01*
X313681579Y-269936623D02*
X313562532Y-269877100D01*
X314872055Y-269936623D02*
X314753007Y-269877100D01*
X314753007Y-269877100D02*
X314693484Y-269758052D01*
X314693484Y-269758052D02*
X314693484Y-268686623D01*
X315229198Y-269103290D02*
X315526817Y-269936623D01*
X315824436Y-269103290D02*
X315526817Y-269936623D01*
X315526817Y-269936623D02*
X315407769Y-270234242D01*
X315407769Y-270234242D02*
X315348246Y-270293766D01*
X315348246Y-270293766D02*
X315229198Y-270353290D01*
X317074436Y-268686623D02*
X317788722Y-268686623D01*
X317431579Y-269936623D02*
X317431579Y-268686623D01*
X318383960Y-269936623D02*
X318264912Y-269877100D01*
X318264912Y-269877100D02*
X318205389Y-269817576D01*
X318205389Y-269817576D02*
X318145865Y-269698528D01*
X318145865Y-269698528D02*
X318145865Y-269341385D01*
X318145865Y-269341385D02*
X318205389Y-269222338D01*
X318205389Y-269222338D02*
X318264912Y-269162814D01*
X318264912Y-269162814D02*
X318383960Y-269103290D01*
X318383960Y-269103290D02*
X318562531Y-269103290D01*
X318562531Y-269103290D02*
X318681579Y-269162814D01*
X318681579Y-269162814D02*
X318741103Y-269222338D01*
X318741103Y-269222338D02*
X318800627Y-269341385D01*
X318800627Y-269341385D02*
X318800627Y-269698528D01*
X318800627Y-269698528D02*
X318741103Y-269817576D01*
X318741103Y-269817576D02*
X318681579Y-269877100D01*
X318681579Y-269877100D02*
X318562531Y-269936623D01*
X318562531Y-269936623D02*
X318383960Y-269936623D01*
X319336341Y-269103290D02*
X319336341Y-270353290D01*
X319336341Y-269162814D02*
X319455388Y-269103290D01*
X319455388Y-269103290D02*
X319693483Y-269103290D01*
X319693483Y-269103290D02*
X319812531Y-269162814D01*
X319812531Y-269162814D02*
X319872055Y-269222338D01*
X319872055Y-269222338D02*
X319931579Y-269341385D01*
X319931579Y-269341385D02*
X319931579Y-269698528D01*
X319931579Y-269698528D02*
X319872055Y-269817576D01*
X319872055Y-269817576D02*
X319812531Y-269877100D01*
X319812531Y-269877100D02*
X319693483Y-269936623D01*
X319693483Y-269936623D02*
X319455388Y-269936623D01*
X319455388Y-269936623D02*
X319336341Y-269877100D01*
D10*
%TO.C,R203*%
X220250000Y-148500000D02*
X221250000Y-148500000D01*
X220250000Y-149000000D02*
X220250000Y-148500000D01*
X221250000Y-148500000D02*
X221250000Y-149000000D01*
X221250000Y-149000000D02*
X220250000Y-149000000D01*
%TO.C,U11*%
X227250000Y-148625000D02*
X227750000Y-148125000D01*
X227250000Y-150125000D02*
X227250000Y-148625000D01*
X227750000Y-148125000D02*
X230250000Y-148125000D01*
X230250000Y-148125000D02*
X230250000Y-150125000D01*
X230250000Y-150125000D02*
X227250000Y-150125000D01*
%TO.C,R97*%
X190900000Y-195150000D02*
X194100000Y-195150000D01*
X190900000Y-196850000D02*
X190900000Y-195150000D01*
X194100000Y-195150000D02*
X194100000Y-196850000D01*
X194100000Y-196850000D02*
X190900000Y-196850000D01*
%TO.C,C17*%
X229500000Y-111250000D02*
X230000000Y-111250000D01*
X229500000Y-112250000D02*
X229500000Y-111250000D01*
X230000000Y-111250000D02*
X230000000Y-112250000D01*
X230000000Y-112250000D02*
X229500000Y-112250000D01*
%TO.C,R105*%
X218750000Y-175250000D02*
X219750000Y-175250000D01*
X218750000Y-175750000D02*
X218750000Y-175250000D01*
X219750000Y-175250000D02*
X219750000Y-175750000D01*
X219750000Y-175750000D02*
X218750000Y-175750000D01*
%TO.C,X3*%
X232950000Y-143450000D02*
X235550000Y-143450000D01*
X232950000Y-144850000D02*
X232950000Y-143450000D01*
X233650000Y-145550000D02*
X232950000Y-144850000D01*
X235550000Y-143450000D02*
X235550000Y-145550000D01*
X235550000Y-145550000D02*
X233650000Y-145550000D01*
%TO.C,D15*%
X103300000Y-185490000D02*
X104300000Y-185490000D01*
X103300000Y-186490000D02*
X104300000Y-186490000D01*
X103800000Y-185490000D02*
X103800000Y-184740000D01*
X103800000Y-186490000D02*
X103300000Y-185490000D01*
X103800000Y-187240000D02*
X103800000Y-186490000D01*
X104300000Y-185490000D02*
X103800000Y-186490000D01*
%TO.C,R53*%
X244500000Y-151250000D02*
X245500000Y-151250000D01*
X244500000Y-151750000D02*
X244500000Y-151250000D01*
X245500000Y-151250000D02*
X245500000Y-151750000D01*
X245500000Y-151750000D02*
X244500000Y-151750000D01*
%TO.C,C9*%
X232270000Y-104240000D02*
X233730000Y-104240000D01*
X232270000Y-106260000D02*
X232270000Y-104240000D01*
X233730000Y-104240000D02*
X233730000Y-106260000D01*
X233730000Y-106260000D02*
X232270000Y-106260000D01*
%TO.C,R63*%
X244500000Y-155750000D02*
X245500000Y-155750000D01*
X244500000Y-156250000D02*
X244500000Y-155750000D01*
X245500000Y-155750000D02*
X245500000Y-156250000D01*
X245500000Y-156250000D02*
X244500000Y-156250000D01*
%TO.C,R67*%
X244500000Y-157250000D02*
X245500000Y-157250000D01*
X244500000Y-157750000D02*
X244500000Y-157250000D01*
X245500000Y-157250000D02*
X245500000Y-157750000D01*
X245500000Y-157750000D02*
X244500000Y-157750000D01*
%TO.C,C4*%
X229250000Y-114500000D02*
X230250000Y-114500000D01*
X229250000Y-115000000D02*
X229250000Y-114500000D01*
X230250000Y-114500000D02*
X230250000Y-115000000D01*
X230250000Y-115000000D02*
X229250000Y-115000000D01*
%TO.C,H16*%
X97000000Y-191950000D02*
X100000000Y-191950000D01*
X100000000Y-196950000D01*
X97000000Y-196950000D01*
X97000000Y-191950000D01*
X100000000Y-191950000D02*
X109000000Y-191950000D01*
X109000000Y-196950000D01*
X100000000Y-196950000D01*
X100000000Y-191950000D01*
%TO.C,R58*%
X242250000Y-163250000D02*
X243250000Y-163250000D01*
X242250000Y-163750000D02*
X242250000Y-163250000D01*
X243250000Y-163250000D02*
X243250000Y-163750000D01*
X243250000Y-163750000D02*
X242250000Y-163750000D01*
%TO.C,R177*%
X114500000Y-113250000D02*
X115500000Y-113250000D01*
X114500000Y-113750000D02*
X114500000Y-113250000D01*
X115500000Y-113250000D02*
X115500000Y-113750000D01*
X115500000Y-113750000D02*
X114500000Y-113750000D01*
%TO.C,R52*%
X242250000Y-148250000D02*
X243250000Y-148250000D01*
X242250000Y-148750000D02*
X242250000Y-148250000D01*
X243250000Y-148250000D02*
X243250000Y-148750000D01*
X243250000Y-148750000D02*
X242250000Y-148750000D01*
%TO.C,C1*%
X236750000Y-103900000D02*
X237250000Y-103900000D01*
X236750000Y-104900000D02*
X236750000Y-103900000D01*
X237250000Y-103900000D02*
X237250000Y-104900000D01*
X237250000Y-104900000D02*
X236750000Y-104900000D01*
%TO.C,C166*%
X128400000Y-129000000D02*
X131100000Y-129000000D01*
X128400000Y-132500000D02*
X128400000Y-129000000D01*
X131100000Y-129000000D02*
X131100000Y-132500000D01*
X131100000Y-132500000D02*
X128400000Y-132500000D01*
%TO.C,C55*%
X244500000Y-175250000D02*
X245500000Y-175250000D01*
X244500000Y-175750000D02*
X244500000Y-175250000D01*
X245500000Y-175250000D02*
X245500000Y-175750000D01*
X245500000Y-175750000D02*
X244500000Y-175750000D01*
%TO.C,C43*%
X224750000Y-172500000D02*
X225750000Y-172500000D01*
X224750000Y-173000000D02*
X224750000Y-172500000D01*
X225750000Y-172500000D02*
X225750000Y-173000000D01*
X225750000Y-173000000D02*
X224750000Y-173000000D01*
%TO.C,C91*%
X223250000Y-183500000D02*
X223750000Y-183500000D01*
X223250000Y-184500000D02*
X223250000Y-183500000D01*
X223750000Y-183500000D02*
X223750000Y-184500000D01*
X223750000Y-184500000D02*
X223250000Y-184500000D01*
%TO.C,L3*%
X233800000Y-187900000D02*
X235200000Y-187900000D01*
X233800000Y-190100000D02*
X233800000Y-187900000D01*
X235200000Y-187900000D02*
X235200000Y-190100000D01*
X235200000Y-190100000D02*
X233800000Y-190100000D01*
%TO.C,L12*%
X229800000Y-137900000D02*
X231200000Y-137900000D01*
X229800000Y-140100000D02*
X229800000Y-137900000D01*
X231200000Y-137900000D02*
X231200000Y-140100000D01*
X231200000Y-140100000D02*
X229800000Y-140100000D01*
%TO.C,R144*%
X229730000Y-180290000D02*
X230230000Y-180290000D01*
X229730000Y-181290000D02*
X229730000Y-180290000D01*
X230230000Y-180290000D02*
X230230000Y-181290000D01*
X230230000Y-181290000D02*
X229730000Y-181290000D01*
%TO.C,C90*%
X228250000Y-188000000D02*
X229250000Y-188000000D01*
X228250000Y-188500000D02*
X228250000Y-188000000D01*
X229250000Y-188000000D02*
X229250000Y-188500000D01*
X229250000Y-188500000D02*
X228250000Y-188500000D01*
%TO.C,C186*%
X139150000Y-132500000D02*
X141850000Y-132500000D01*
X139150000Y-136000000D02*
X139150000Y-132500000D01*
X141850000Y-132500000D02*
X141850000Y-136000000D01*
X141850000Y-136000000D02*
X139150000Y-136000000D01*
%TO.C,C51*%
X230000000Y-165250000D02*
X230500000Y-165250000D01*
X230000000Y-166250000D02*
X230000000Y-165250000D01*
X230500000Y-165250000D02*
X230500000Y-166250000D01*
X230500000Y-166250000D02*
X230000000Y-166250000D01*
%TO.C,R25*%
X236000000Y-114500000D02*
X237000000Y-114500000D01*
X236000000Y-115000000D02*
X236000000Y-114500000D01*
X237000000Y-114500000D02*
X237000000Y-115000000D01*
X237000000Y-115000000D02*
X236000000Y-115000000D01*
%TO.C,L11*%
X229800000Y-142400000D02*
X231200000Y-142400000D01*
X229800000Y-144600000D02*
X229800000Y-142400000D01*
X231200000Y-142400000D02*
X231200000Y-144600000D01*
X231200000Y-144600000D02*
X229800000Y-144600000D01*
%TO.C,R69*%
X244500000Y-160250000D02*
X245500000Y-160250000D01*
X244500000Y-160750000D02*
X244500000Y-160250000D01*
X245500000Y-160250000D02*
X245500000Y-160750000D01*
X245500000Y-160750000D02*
X244500000Y-160750000D01*
%TO.C,C62*%
X236000000Y-186500000D02*
X237000000Y-186500000D01*
X236000000Y-187000000D02*
X236000000Y-186500000D01*
X237000000Y-186500000D02*
X237000000Y-187000000D01*
X237000000Y-187000000D02*
X236000000Y-187000000D01*
%TO.C,C96*%
X232750000Y-129250000D02*
X233250000Y-129250000D01*
X232750000Y-130250000D02*
X232750000Y-129250000D01*
X233250000Y-129250000D02*
X233250000Y-130250000D01*
X233250000Y-130250000D02*
X232750000Y-130250000D01*
%TO.C,U47*%
X117440000Y-174825000D02*
X125060000Y-174825000D01*
X117440000Y-180175000D02*
X117440000Y-174825000D01*
X118440000Y-181175000D02*
X117440000Y-180175000D01*
X125060000Y-174825000D02*
X125060000Y-181175000D01*
X125060000Y-181175000D02*
X118440000Y-181175000D01*
%TO.C,D25*%
X109450000Y-126540000D02*
X110720000Y-125270000D01*
X109450000Y-129230000D02*
X109450000Y-126540000D01*
X110102340Y-127251020D02*
X111100560Y-127251020D01*
X110720000Y-125270000D02*
X114050000Y-125270000D01*
X111100560Y-126450920D02*
X111100560Y-128051120D01*
X111100560Y-127251020D02*
X112251180Y-126450920D01*
X111100560Y-127251020D02*
X112251180Y-128000320D01*
X112251180Y-128000320D02*
X112251180Y-126450920D01*
X112251780Y-127250000D02*
X113250000Y-127250000D01*
X114050000Y-125270000D02*
X114050000Y-129230000D01*
X114050000Y-129230000D02*
X109450000Y-129230000D01*
%TO.C,R98*%
X208400000Y-195150000D02*
X211600000Y-195150000D01*
X208400000Y-196850000D02*
X208400000Y-195150000D01*
X211600000Y-195150000D02*
X211600000Y-196850000D01*
X211600000Y-196850000D02*
X208400000Y-196850000D01*
%TO.C,L7*%
X222300000Y-185900000D02*
X223700000Y-185900000D01*
X222300000Y-188100000D02*
X222300000Y-185900000D01*
X223700000Y-185900000D02*
X223700000Y-188100000D01*
X223700000Y-188100000D02*
X222300000Y-188100000D01*
%TO.C,C111*%
X237000000Y-136250000D02*
X237500000Y-136250000D01*
X237000000Y-137250000D02*
X237000000Y-136250000D01*
X237500000Y-136250000D02*
X237500000Y-137250000D01*
X237500000Y-137250000D02*
X237000000Y-137250000D01*
%TO.C,D30*%
X109450000Y-157040000D02*
X110720000Y-155770000D01*
X109450000Y-159730000D02*
X109450000Y-157040000D01*
X110102340Y-157751020D02*
X111100560Y-157751020D01*
X110720000Y-155770000D02*
X114050000Y-155770000D01*
X111100560Y-156950920D02*
X111100560Y-158551120D01*
X111100560Y-157751020D02*
X112251180Y-156950920D01*
X111100560Y-157751020D02*
X112251180Y-158500320D01*
X112251180Y-158500320D02*
X112251180Y-156950920D01*
X112251780Y-157750000D02*
X113250000Y-157750000D01*
X114050000Y-155770000D02*
X114050000Y-159730000D01*
X114050000Y-159730000D02*
X109450000Y-159730000D01*
%TO.C,R131*%
X231750000Y-148500000D02*
X232750000Y-148500000D01*
X231750000Y-149000000D02*
X231750000Y-148500000D01*
X232750000Y-148500000D02*
X232750000Y-149000000D01*
X232750000Y-149000000D02*
X231750000Y-149000000D01*
%TO.C,R101*%
X218750000Y-167750000D02*
X219750000Y-167750000D01*
X218750000Y-168250000D02*
X218750000Y-167750000D01*
X219750000Y-167750000D02*
X219750000Y-168250000D01*
X219750000Y-168250000D02*
X218750000Y-168250000D01*
%TO.C,R180*%
X115750000Y-185500000D02*
X116750000Y-185500000D01*
X115750000Y-186000000D02*
X115750000Y-185500000D01*
X116750000Y-185500000D02*
X116750000Y-186000000D01*
X116750000Y-186000000D02*
X115750000Y-186000000D01*
D15*
%TO.C,L19*%
X148250000Y-169000000D02*
X161750000Y-169000000D01*
X148250000Y-181500000D02*
X148250000Y-169000000D01*
X161750000Y-169000000D02*
X161750000Y-181500000D01*
X161750000Y-181500000D02*
X148250000Y-181500000D01*
D10*
%TO.C,R12*%
X225750000Y-137750000D02*
X226750000Y-137750000D01*
X225750000Y-138250000D02*
X225750000Y-137750000D01*
X226750000Y-137750000D02*
X226750000Y-138250000D01*
X226750000Y-138250000D02*
X225750000Y-138250000D01*
%TO.C,R78*%
X244500000Y-187250000D02*
X245500000Y-187250000D01*
X244500000Y-187750000D02*
X244500000Y-187250000D01*
X245500000Y-187250000D02*
X245500000Y-187750000D01*
X245500000Y-187750000D02*
X244500000Y-187750000D01*
%TO.C,C10*%
X234520000Y-104240000D02*
X235980000Y-104240000D01*
X234520000Y-106260000D02*
X234520000Y-104240000D01*
X235980000Y-104240000D02*
X235980000Y-106260000D01*
X235980000Y-106260000D02*
X234520000Y-106260000D01*
%TO.C,R102*%
X218750000Y-169000000D02*
X219750000Y-169000000D01*
X218750000Y-169500000D02*
X218750000Y-169000000D01*
X219750000Y-169000000D02*
X219750000Y-169500000D01*
X219750000Y-169500000D02*
X218750000Y-169500000D01*
%TO.C,C34*%
X222000000Y-180750000D02*
X222500000Y-180750000D01*
X222000000Y-181750000D02*
X222000000Y-180750000D01*
X222500000Y-180750000D02*
X222500000Y-181750000D01*
X222500000Y-181750000D02*
X222000000Y-181750000D01*
%TO.C,R297*%
X195750000Y-196000000D02*
X196750000Y-196000000D01*
X195750000Y-196500000D02*
X195750000Y-196000000D01*
X196750000Y-196000000D02*
X196750000Y-196500000D01*
X196750000Y-196500000D02*
X195750000Y-196500000D01*
%TO.C,R115*%
X218750000Y-170250000D02*
X219750000Y-170250000D01*
X218750000Y-170750000D02*
X218750000Y-170250000D01*
X219750000Y-170250000D02*
X219750000Y-170750000D01*
X219750000Y-170750000D02*
X218750000Y-170750000D01*
%TO.C,C45*%
X228750000Y-165250000D02*
X229250000Y-165250000D01*
X228750000Y-166250000D02*
X228750000Y-165250000D01*
X229250000Y-165250000D02*
X229250000Y-166250000D01*
X229250000Y-166250000D02*
X228750000Y-166250000D01*
%TO.C,C202*%
X142650000Y-164000000D02*
X145350000Y-164000000D01*
X142650000Y-167500000D02*
X142650000Y-164000000D01*
X145350000Y-164000000D02*
X145350000Y-167500000D01*
X145350000Y-167500000D02*
X142650000Y-167500000D01*
%TO.C,R65*%
X242250000Y-157250000D02*
X243250000Y-157250000D01*
X242250000Y-157750000D02*
X242250000Y-157250000D01*
X243250000Y-157250000D02*
X243250000Y-157750000D01*
X243250000Y-157750000D02*
X242250000Y-157750000D01*
%TO.C,C117*%
X131650000Y-148250000D02*
X134350000Y-148250000D01*
X131650000Y-151750000D02*
X131650000Y-148250000D01*
X134350000Y-148250000D02*
X134350000Y-151750000D01*
X134350000Y-151750000D02*
X131650000Y-151750000D01*
%TO.C,R188*%
X176750000Y-112500000D02*
X177750000Y-112500000D01*
X176750000Y-113000000D02*
X176750000Y-112500000D01*
X177750000Y-112500000D02*
X177750000Y-113000000D01*
X177750000Y-113000000D02*
X176750000Y-113000000D01*
%TO.C,C8*%
X236750000Y-108250000D02*
X237250000Y-108250000D01*
X236750000Y-109250000D02*
X236750000Y-108250000D01*
X237250000Y-108250000D02*
X237250000Y-109250000D01*
X237250000Y-109250000D02*
X236750000Y-109250000D01*
%TO.C,R178*%
X112500000Y-113250000D02*
X113500000Y-113250000D01*
X112500000Y-113750000D02*
X112500000Y-113250000D01*
X113500000Y-113250000D02*
X113500000Y-113750000D01*
X113500000Y-113750000D02*
X112500000Y-113750000D01*
%TO.C,C132*%
X187750000Y-115000000D02*
X188750000Y-115000000D01*
X187750000Y-115500000D02*
X187750000Y-115000000D01*
X188750000Y-115000000D02*
X188750000Y-115500000D01*
X188750000Y-115500000D02*
X187750000Y-115500000D01*
%TO.C,C92*%
X231250000Y-165250000D02*
X231750000Y-165250000D01*
X231250000Y-166250000D02*
X231250000Y-165250000D01*
X231750000Y-165250000D02*
X231750000Y-166250000D01*
X231750000Y-166250000D02*
X231250000Y-166250000D01*
%TO.C,R345*%
X226750000Y-125000000D02*
X227750000Y-125000000D01*
X226750000Y-125500000D02*
X226750000Y-125000000D01*
X227750000Y-125000000D02*
X227750000Y-125500000D01*
X227750000Y-125500000D02*
X226750000Y-125500000D01*
%TO.C,R43*%
X228250000Y-111250000D02*
X228750000Y-111250000D01*
X228250000Y-112250000D02*
X228250000Y-111250000D01*
X228750000Y-111250000D02*
X228750000Y-112250000D01*
X228750000Y-112250000D02*
X228250000Y-112250000D01*
%TO.C,R94*%
X242250000Y-161750000D02*
X243250000Y-161750000D01*
X242250000Y-162250000D02*
X242250000Y-161750000D01*
X243250000Y-161750000D02*
X243250000Y-162250000D01*
X243250000Y-162250000D02*
X242250000Y-162250000D01*
%TO.C,R161*%
X227750000Y-139250000D02*
X228750000Y-139250000D01*
X227750000Y-139750000D02*
X227750000Y-139250000D01*
X228750000Y-139250000D02*
X228750000Y-139750000D01*
X228750000Y-139750000D02*
X227750000Y-139750000D01*
%TO.C,L2*%
X237050000Y-181900000D02*
X238450000Y-181900000D01*
X237050000Y-184100000D02*
X237050000Y-181900000D01*
X238450000Y-181900000D02*
X238450000Y-184100000D01*
X238450000Y-184100000D02*
X237050000Y-184100000D01*
%TO.C,R120*%
X231750000Y-190500000D02*
X232250000Y-190500000D01*
X231750000Y-191500000D02*
X231750000Y-190500000D01*
X232250000Y-190500000D02*
X232250000Y-191500000D01*
X232250000Y-191500000D02*
X231750000Y-191500000D01*
%TO.C,C32*%
X232000000Y-174750000D02*
X232500000Y-174750000D01*
X232000000Y-175750000D02*
X232000000Y-174750000D01*
X232500000Y-174750000D02*
X232500000Y-175750000D01*
X232500000Y-175750000D02*
X232000000Y-175750000D01*
%TO.C,C244*%
X128170000Y-167500000D02*
X130870000Y-167500000D01*
X128170000Y-171000000D02*
X128170000Y-167500000D01*
X130870000Y-167500000D02*
X130870000Y-171000000D01*
X130870000Y-171000000D02*
X128170000Y-171000000D01*
%TO.C,C63*%
X236750000Y-185250000D02*
X237750000Y-185250000D01*
X236750000Y-185750000D02*
X236750000Y-185250000D01*
X237750000Y-185250000D02*
X237750000Y-185750000D01*
X237750000Y-185750000D02*
X236750000Y-185750000D01*
%TO.C,R92*%
X244500000Y-163250000D02*
X245500000Y-163250000D01*
X244500000Y-163750000D02*
X244500000Y-163250000D01*
X245500000Y-163250000D02*
X245500000Y-163750000D01*
X245500000Y-163750000D02*
X244500000Y-163750000D01*
%TO.C,R44*%
X224500000Y-111250000D02*
X225000000Y-111250000D01*
X224500000Y-112250000D02*
X224500000Y-111250000D01*
X225000000Y-111250000D02*
X225000000Y-112250000D01*
X225000000Y-112250000D02*
X224500000Y-112250000D01*
%TO.C,R157*%
X176750000Y-110000000D02*
X177750000Y-110000000D01*
X176750000Y-110500000D02*
X176750000Y-110000000D01*
X177750000Y-110000000D02*
X177750000Y-110500000D01*
X177750000Y-110500000D02*
X176750000Y-110500000D01*
%TO.C,R107*%
X224000000Y-169000000D02*
X225000000Y-169000000D01*
X224000000Y-169500000D02*
X224000000Y-169000000D01*
X225000000Y-169000000D02*
X225000000Y-169500000D01*
X225000000Y-169500000D02*
X224000000Y-169500000D01*
%TO.C,C145*%
X219500000Y-126500000D02*
X220000000Y-126500000D01*
X219500000Y-127500000D02*
X219500000Y-126500000D01*
X220000000Y-126500000D02*
X220000000Y-127500000D01*
X220000000Y-127500000D02*
X219500000Y-127500000D01*
%TO.C,C33*%
X227500000Y-165250000D02*
X228000000Y-165250000D01*
X227500000Y-166250000D02*
X227500000Y-165250000D01*
X228000000Y-165250000D02*
X228000000Y-166250000D01*
X228000000Y-166250000D02*
X227500000Y-166250000D01*
%TO.C,C102*%
X230000000Y-145500000D02*
X231000000Y-145500000D01*
X230000000Y-146000000D02*
X230000000Y-145500000D01*
X231000000Y-145500000D02*
X231000000Y-146000000D01*
X231000000Y-146000000D02*
X230000000Y-146000000D01*
%TO.C,R64*%
X242250000Y-167750000D02*
X243250000Y-167750000D01*
X242250000Y-168250000D02*
X242250000Y-167750000D01*
X243250000Y-167750000D02*
X243250000Y-168250000D01*
X243250000Y-168250000D02*
X242250000Y-168250000D01*
%TO.C,C106*%
X235750000Y-140750000D02*
X236250000Y-140750000D01*
X235750000Y-141750000D02*
X235750000Y-140750000D01*
X236250000Y-140750000D02*
X236250000Y-141750000D01*
X236250000Y-141750000D02*
X235750000Y-141750000D01*
%TO.C,R83*%
X242250000Y-176750000D02*
X243250000Y-176750000D01*
X242250000Y-177250000D02*
X242250000Y-176750000D01*
X243250000Y-176750000D02*
X243250000Y-177250000D01*
X243250000Y-177250000D02*
X242250000Y-177250000D01*
%TO.C,D8*%
X103300000Y-114510000D02*
X103800000Y-113510000D01*
X103800000Y-112760000D02*
X103800000Y-113510000D01*
X103800000Y-113510000D02*
X104300000Y-114510000D01*
X103800000Y-114510000D02*
X103800000Y-115260000D01*
X104300000Y-113510000D02*
X103300000Y-113510000D01*
X104300000Y-114510000D02*
X103300000Y-114510000D01*
%TO.C,R132*%
X224750000Y-150000000D02*
X225750000Y-150000000D01*
X224750000Y-150500000D02*
X224750000Y-150000000D01*
X225750000Y-150000000D02*
X225750000Y-150500000D01*
X225750000Y-150500000D02*
X224750000Y-150500000D01*
%TO.C,C25*%
X244500000Y-169250000D02*
X245500000Y-169250000D01*
X244500000Y-169750000D02*
X244500000Y-169250000D01*
X245500000Y-169250000D02*
X245500000Y-169750000D01*
X245500000Y-169750000D02*
X244500000Y-169750000D01*
%TO.C,L10*%
X229800000Y-132150000D02*
X231200000Y-132150000D01*
X229800000Y-134350000D02*
X229800000Y-132150000D01*
X231200000Y-132150000D02*
X231200000Y-134350000D01*
X231200000Y-134350000D02*
X229800000Y-134350000D01*
%TO.C,D28*%
X109450000Y-172040000D02*
X110720000Y-170770000D01*
X109450000Y-174730000D02*
X109450000Y-172040000D01*
X110102340Y-172751020D02*
X111100560Y-172751020D01*
X110720000Y-170770000D02*
X114050000Y-170770000D01*
X111100560Y-171950920D02*
X111100560Y-173551120D01*
X111100560Y-172751020D02*
X112251180Y-171950920D01*
X111100560Y-172751020D02*
X112251180Y-173500320D01*
X112251180Y-173500320D02*
X112251180Y-171950920D01*
X112251780Y-172750000D02*
X113250000Y-172750000D01*
X114050000Y-170770000D02*
X114050000Y-174730000D01*
X114050000Y-174730000D02*
X109450000Y-174730000D01*
%TO.C,C103*%
X232750000Y-140750000D02*
X233250000Y-140750000D01*
X232750000Y-141750000D02*
X232750000Y-140750000D01*
X233250000Y-140750000D02*
X233250000Y-141750000D01*
X233250000Y-141750000D02*
X232750000Y-141750000D01*
%TO.C,R39*%
X231500000Y-114500000D02*
X232500000Y-114500000D01*
X231500000Y-115000000D02*
X231500000Y-114500000D01*
X232500000Y-114500000D02*
X232500000Y-115000000D01*
X232500000Y-115000000D02*
X231500000Y-115000000D01*
%TO.C,R142*%
X224750000Y-157000000D02*
X225750000Y-157000000D01*
X224750000Y-157500000D02*
X224750000Y-157000000D01*
X225750000Y-157000000D02*
X225750000Y-157500000D01*
X225750000Y-157500000D02*
X224750000Y-157500000D01*
%TO.C,R174*%
X112500000Y-112000000D02*
X113500000Y-112000000D01*
X112500000Y-112500000D02*
X112500000Y-112000000D01*
X113500000Y-112000000D02*
X113500000Y-112500000D01*
X113500000Y-112500000D02*
X112500000Y-112500000D01*
%TO.C,D7*%
X100760000Y-114510000D02*
X101260000Y-113510000D01*
X101260000Y-112760000D02*
X101260000Y-113510000D01*
X101260000Y-113510000D02*
X101760000Y-114510000D01*
X101260000Y-114510000D02*
X101260000Y-115260000D01*
X101760000Y-113510000D02*
X100760000Y-113510000D01*
X101760000Y-114510000D02*
X100760000Y-114510000D01*
%TO.C,R202*%
X220250000Y-150000000D02*
X221250000Y-150000000D01*
X220250000Y-150500000D02*
X220250000Y-150000000D01*
X221250000Y-150000000D02*
X221250000Y-150500000D01*
X221250000Y-150500000D02*
X220250000Y-150500000D01*
%TO.C,C82*%
X234500000Y-196000000D02*
X235500000Y-196000000D01*
X234500000Y-196500000D02*
X234500000Y-196000000D01*
X235500000Y-196000000D02*
X235500000Y-196500000D01*
X235500000Y-196500000D02*
X234500000Y-196500000D01*
%TO.C,C167*%
X124650000Y-129000000D02*
X127350000Y-129000000D01*
X124650000Y-132500000D02*
X124650000Y-129000000D01*
X127350000Y-129000000D02*
X127350000Y-132500000D01*
X127350000Y-132500000D02*
X124650000Y-132500000D01*
%TO.C,C187*%
X152900000Y-132500000D02*
X155600000Y-132500000D01*
X152900000Y-136000000D02*
X152900000Y-132500000D01*
X155600000Y-132500000D02*
X155600000Y-136000000D01*
X155600000Y-136000000D02*
X152900000Y-136000000D01*
%TO.C,R93*%
X242250000Y-155750000D02*
X243250000Y-155750000D01*
X242250000Y-156250000D02*
X242250000Y-155750000D01*
X243250000Y-155750000D02*
X243250000Y-156250000D01*
X243250000Y-156250000D02*
X242250000Y-156250000D01*
%TO.C,R342*%
X226750000Y-128500000D02*
X227750000Y-128500000D01*
X226750000Y-129000000D02*
X226750000Y-128500000D01*
X227750000Y-128500000D02*
X227750000Y-129000000D01*
X227750000Y-129000000D02*
X226750000Y-129000000D01*
%TO.C,C36*%
X234250000Y-171000000D02*
X235250000Y-171000000D01*
X234250000Y-171500000D02*
X234250000Y-171000000D01*
X235250000Y-171000000D02*
X235250000Y-171500000D01*
X235250000Y-171500000D02*
X234250000Y-171500000D01*
%TO.C,C75*%
X234000000Y-150000000D02*
X235000000Y-150000000D01*
X234000000Y-150500000D02*
X234000000Y-150000000D01*
X235000000Y-150000000D02*
X235000000Y-150500000D01*
X235000000Y-150500000D02*
X234000000Y-150500000D01*
%TO.C,C203*%
X145900000Y-164000000D02*
X148600000Y-164000000D01*
X145900000Y-167500000D02*
X145900000Y-164000000D01*
X148600000Y-164000000D02*
X148600000Y-167500000D01*
X148600000Y-167500000D02*
X145900000Y-167500000D01*
%TO.C,C189*%
X145900000Y-132500000D02*
X148600000Y-132500000D01*
X145900000Y-136000000D02*
X145900000Y-132500000D01*
X148600000Y-132500000D02*
X148600000Y-136000000D01*
X148600000Y-136000000D02*
X145900000Y-136000000D01*
%TO.C,D23*%
X109450000Y-131540000D02*
X110720000Y-130270000D01*
X109450000Y-134230000D02*
X109450000Y-131540000D01*
X110102340Y-132251020D02*
X111100560Y-132251020D01*
X110720000Y-130270000D02*
X114050000Y-130270000D01*
X111100560Y-131450920D02*
X111100560Y-133051120D01*
X111100560Y-132251020D02*
X112251180Y-131450920D01*
X111100560Y-132251020D02*
X112251180Y-133000320D01*
X112251180Y-133000320D02*
X112251180Y-131450920D01*
X112251780Y-132250000D02*
X113250000Y-132250000D01*
X114050000Y-130270000D02*
X114050000Y-134230000D01*
X114050000Y-134230000D02*
X109450000Y-134230000D01*
%TO.C,R82*%
X242250000Y-175250000D02*
X243250000Y-175250000D01*
X242250000Y-175750000D02*
X242250000Y-175250000D01*
X243250000Y-175250000D02*
X243250000Y-175750000D01*
X243250000Y-175750000D02*
X242250000Y-175750000D01*
D15*
%TO.C,L18*%
X148250000Y-118500000D02*
X161750000Y-118500000D01*
X148250000Y-131000000D02*
X148250000Y-118500000D01*
X161750000Y-118500000D02*
X161750000Y-131000000D01*
X161750000Y-131000000D02*
X148250000Y-131000000D01*
D10*
%TO.C,R1*%
X234250000Y-129250000D02*
X234750000Y-129250000D01*
X234250000Y-130250000D02*
X234250000Y-129250000D01*
X234750000Y-129250000D02*
X234750000Y-130250000D01*
X234750000Y-130250000D02*
X234250000Y-130250000D01*
%TO.C,C26*%
X120350000Y-193270000D02*
X122150000Y-193270000D01*
X120350000Y-196730000D02*
X120350000Y-193270000D01*
X122150000Y-193270000D02*
X122150000Y-196730000D01*
X122150000Y-196730000D02*
X120350000Y-196730000D01*
%TO.C,R112*%
X244500000Y-190250000D02*
X245500000Y-190250000D01*
X244500000Y-190750000D02*
X244500000Y-190250000D01*
X245500000Y-190250000D02*
X245500000Y-190750000D01*
X245500000Y-190750000D02*
X244500000Y-190750000D01*
%TO.C,C13*%
X222270000Y-104240000D02*
X223730000Y-104240000D01*
X222270000Y-106260000D02*
X222270000Y-104240000D01*
X223730000Y-104240000D02*
X223730000Y-106260000D01*
X223730000Y-106260000D02*
X222270000Y-106260000D01*
%TO.C,R100*%
X218750000Y-166500000D02*
X219750000Y-166500000D01*
X218750000Y-167000000D02*
X218750000Y-166500000D01*
X219750000Y-166500000D02*
X219750000Y-167000000D01*
X219750000Y-167000000D02*
X218750000Y-167000000D01*
%TO.C,C124*%
X177900000Y-148250000D02*
X180600000Y-148250000D01*
X177900000Y-151750000D02*
X177900000Y-148250000D01*
X180600000Y-148250000D02*
X180600000Y-151750000D01*
X180600000Y-151750000D02*
X177900000Y-151750000D01*
%TO.C,R19*%
X241750000Y-129250000D02*
X242250000Y-129250000D01*
X241750000Y-130250000D02*
X241750000Y-129250000D01*
X242250000Y-129250000D02*
X242250000Y-130250000D01*
X242250000Y-130250000D02*
X241750000Y-130250000D01*
%TO.C,C224*%
X219500000Y-132000000D02*
X220000000Y-132000000D01*
X219500000Y-133000000D02*
X219500000Y-132000000D01*
X220000000Y-132000000D02*
X220000000Y-133000000D01*
X220000000Y-133000000D02*
X219500000Y-133000000D01*
D16*
%TO.C,P1*%
X238400000Y-103550000D02*
X238400000Y-115450000D01*
X238400000Y-115450000D02*
X254900000Y-115450000D01*
X254900000Y-102550000D02*
X272200000Y-102550000D01*
X254900000Y-103550000D02*
X238400000Y-103550000D01*
X254900000Y-103550000D02*
X254900000Y-102550000D01*
X254900000Y-116450000D02*
X254900000Y-115450000D01*
X260000000Y-116450000D02*
X254900000Y-116450000D01*
X260000000Y-116450000D02*
X260000000Y-102300000D01*
X272200000Y-116450000D02*
X260000000Y-116450000D01*
X272200000Y-116450000D02*
X272200000Y-102550000D01*
D14*
X258000000Y-117100000D02*
G75*
G02*
X257800000Y-117100000I-100000J0D01*
G01*
X257800000Y-117100000D02*
G75*
G02*
X258000000Y-117100000I100000J0D01*
G01*
D10*
%TO.C,R109*%
X225750000Y-174750000D02*
X226250000Y-174750000D01*
X225750000Y-175750000D02*
X225750000Y-174750000D01*
X226250000Y-174750000D02*
X226250000Y-175750000D01*
X226250000Y-175750000D02*
X225750000Y-175750000D01*
%TO.C,R288*%
X116500000Y-183500000D02*
X117500000Y-183500000D01*
X116500000Y-184000000D02*
X116500000Y-183500000D01*
X117500000Y-183500000D02*
X117500000Y-184000000D01*
X117500000Y-184000000D02*
X116500000Y-184000000D01*
%TO.C,R45*%
X223250000Y-111250000D02*
X223750000Y-111250000D01*
X223250000Y-112250000D02*
X223250000Y-111250000D01*
X223750000Y-111250000D02*
X223750000Y-112250000D01*
X223750000Y-112250000D02*
X223250000Y-112250000D01*
%TO.C,FID2*%
X213000000Y-199000000D02*
G75*
G02*
X211000000Y-199000000I-1000000J0D01*
G01*
X211000000Y-199000000D02*
G75*
G02*
X213000000Y-199000000I1000000J0D01*
G01*
%TO.C,R314*%
X118130000Y-166760000D02*
X121330000Y-166760000D01*
X118130000Y-168460000D02*
X118130000Y-166760000D01*
X121330000Y-166760000D02*
X121330000Y-168460000D01*
X121330000Y-168460000D02*
X118130000Y-168460000D01*
%TO.C,R289*%
X114500000Y-183500000D02*
X115500000Y-183500000D01*
X114500000Y-184000000D02*
X114500000Y-183500000D01*
X115500000Y-183500000D02*
X115500000Y-184000000D01*
X115500000Y-184000000D02*
X114500000Y-184000000D01*
%TO.C,R90*%
X244500000Y-182750000D02*
X245500000Y-182750000D01*
X244500000Y-183250000D02*
X244500000Y-182750000D01*
X245500000Y-182750000D02*
X245500000Y-183250000D01*
X245500000Y-183250000D02*
X244500000Y-183250000D01*
%TO.C,C59*%
X232500000Y-165250000D02*
X233000000Y-165250000D01*
X232500000Y-166250000D02*
X232500000Y-165250000D01*
X233000000Y-165250000D02*
X233000000Y-166250000D01*
X233000000Y-166250000D02*
X232500000Y-166250000D01*
%TO.C,R186*%
X115750000Y-189250000D02*
X116750000Y-189250000D01*
X115750000Y-189750000D02*
X115750000Y-189250000D01*
X116750000Y-189250000D02*
X116750000Y-189750000D01*
X116750000Y-189750000D02*
X115750000Y-189750000D01*
%TO.C,R4*%
X236000000Y-127750000D02*
X237000000Y-127750000D01*
X236000000Y-128250000D02*
X236000000Y-127750000D01*
X237000000Y-127750000D02*
X237000000Y-128250000D01*
X237000000Y-128250000D02*
X236000000Y-128250000D01*
%TO.C,R118*%
X237750000Y-189250000D02*
X238250000Y-189250000D01*
X237750000Y-190250000D02*
X237750000Y-189250000D01*
X238250000Y-189250000D02*
X238250000Y-190250000D01*
X238250000Y-190250000D02*
X237750000Y-190250000D01*
%TO.C,R254*%
X117020000Y-115750000D02*
X118020000Y-115750000D01*
X117020000Y-116250000D02*
X117020000Y-115750000D01*
X118020000Y-115750000D02*
X118020000Y-116250000D01*
X118020000Y-116250000D02*
X117020000Y-116250000D01*
%TO.C,C85*%
X225750000Y-183500000D02*
X226250000Y-183500000D01*
X225750000Y-184500000D02*
X225750000Y-183500000D01*
X226250000Y-183500000D02*
X226250000Y-184500000D01*
X226250000Y-184500000D02*
X225750000Y-184500000D01*
%TO.C,C245*%
X124650000Y-167500000D02*
X127350000Y-167500000D01*
X124650000Y-171000000D02*
X124650000Y-167500000D01*
X127350000Y-167500000D02*
X127350000Y-171000000D01*
X127350000Y-171000000D02*
X124650000Y-171000000D01*
%TO.C,R104*%
X218750000Y-176500000D02*
X219750000Y-176500000D01*
X218750000Y-177000000D02*
X218750000Y-176500000D01*
X219750000Y-176500000D02*
X219750000Y-177000000D01*
X219750000Y-177000000D02*
X218750000Y-177000000D01*
%TO.C,R123*%
X231750000Y-188000000D02*
X232250000Y-188000000D01*
X231750000Y-189000000D02*
X231750000Y-188000000D01*
X232250000Y-188000000D02*
X232250000Y-189000000D01*
X232250000Y-189000000D02*
X231750000Y-189000000D01*
%TO.C,R252*%
X112500000Y-115750000D02*
X113500000Y-115750000D01*
X112500000Y-116250000D02*
X112500000Y-115750000D01*
X113500000Y-115750000D02*
X113500000Y-116250000D01*
X113500000Y-116250000D02*
X112500000Y-116250000D01*
%TO.C,U23*%
X213750000Y-148770000D02*
X215020000Y-147500000D01*
X213750000Y-152500000D02*
X213750000Y-148770000D01*
X215020000Y-147500000D02*
X217750000Y-147500000D01*
X217750000Y-147500000D02*
X217750000Y-152500000D01*
X217750000Y-152500000D02*
X213750000Y-152500000D01*
%TO.C,U64*%
X117250000Y-109500000D02*
X122250000Y-109500000D01*
X117250000Y-110000000D02*
X117750000Y-109500000D01*
X117250000Y-114500000D02*
X117250000Y-109500000D01*
X122250000Y-109500000D02*
X122250000Y-114500000D01*
X122250000Y-114500000D02*
X117250000Y-114500000D01*
%TO.C,R110*%
X235000000Y-174750000D02*
X235500000Y-174750000D01*
X235000000Y-175750000D02*
X235000000Y-174750000D01*
X235500000Y-174750000D02*
X235500000Y-175750000D01*
X235500000Y-175750000D02*
X235000000Y-175750000D01*
%TO.C,R68*%
X244500000Y-158750000D02*
X245500000Y-158750000D01*
X244500000Y-159250000D02*
X244500000Y-158750000D01*
X245500000Y-158750000D02*
X245500000Y-159250000D01*
X245500000Y-159250000D02*
X244500000Y-159250000D01*
%TO.C,C100*%
X237000000Y-133750000D02*
X237500000Y-133750000D01*
X237000000Y-134750000D02*
X237000000Y-133750000D01*
X237500000Y-133750000D02*
X237500000Y-134750000D01*
X237500000Y-134750000D02*
X237000000Y-134750000D01*
%TO.C,D27*%
X108380000Y-185490000D02*
X109380000Y-185490000D01*
X108380000Y-186490000D02*
X109380000Y-186490000D01*
X108880000Y-185490000D02*
X108880000Y-184740000D01*
X108880000Y-186490000D02*
X108380000Y-185490000D01*
X108880000Y-187240000D02*
X108880000Y-186490000D01*
X109380000Y-185490000D02*
X108880000Y-186490000D01*
%TO.C,R59*%
X244500000Y-152750000D02*
X245500000Y-152750000D01*
X244500000Y-153250000D02*
X244500000Y-152750000D01*
X245500000Y-152750000D02*
X245500000Y-153250000D01*
X245500000Y-153250000D02*
X244500000Y-153250000D01*
%TO.C,R141*%
X222500000Y-158500000D02*
X223500000Y-158500000D01*
X222500000Y-159000000D02*
X222500000Y-158500000D01*
X223500000Y-158500000D02*
X223500000Y-159000000D01*
X223500000Y-159000000D02*
X222500000Y-159000000D01*
%TO.C,L4*%
X234300000Y-179650000D02*
X235700000Y-179650000D01*
X234300000Y-181850000D02*
X234300000Y-179650000D01*
X235700000Y-179650000D02*
X235700000Y-181850000D01*
X235700000Y-181850000D02*
X234300000Y-181850000D01*
%TO.C,C204*%
X149400000Y-164000000D02*
X152100000Y-164000000D01*
X149400000Y-167500000D02*
X149400000Y-164000000D01*
X152100000Y-164000000D02*
X152100000Y-167500000D01*
X152100000Y-167500000D02*
X149400000Y-167500000D01*
D15*
%TO.C,L6*%
X132000000Y-118500000D02*
X145500000Y-118500000D01*
X132000000Y-131000000D02*
X132000000Y-118500000D01*
X145500000Y-118500000D02*
X145500000Y-131000000D01*
X145500000Y-131000000D02*
X132000000Y-131000000D01*
D10*
%TO.C,R152*%
X244500000Y-196000000D02*
X245500000Y-196000000D01*
X244500000Y-196500000D02*
X244500000Y-196000000D01*
X245500000Y-196000000D02*
X245500000Y-196500000D01*
X245500000Y-196500000D02*
X244500000Y-196500000D01*
%TO.C,C47*%
X218750000Y-177750000D02*
X219750000Y-177750000D01*
X218750000Y-178250000D02*
X218750000Y-177750000D01*
X219750000Y-177750000D02*
X219750000Y-178250000D01*
X219750000Y-178250000D02*
X218750000Y-178250000D01*
%TO.C,R312*%
X177000000Y-190000000D02*
X178000000Y-190000000D01*
X177000000Y-190500000D02*
X177000000Y-190000000D01*
X178000000Y-190000000D02*
X178000000Y-190500000D01*
X178000000Y-190500000D02*
X177000000Y-190500000D01*
D15*
%TO.C,U46*%
X108450000Y-176800000D02*
X108450000Y-180200000D01*
X108450000Y-180200000D02*
X109450000Y-181200000D01*
X109450000Y-181200000D02*
X112050000Y-181200000D01*
X112050000Y-176800000D02*
X108450000Y-176800000D01*
X112050000Y-181200000D02*
X112050000Y-176800000D01*
D10*
%TO.C,P2*%
X251710000Y-121050000D02*
X252950000Y-119800000D01*
X251710000Y-145200000D02*
X251710000Y-121050000D01*
X252950000Y-119800000D02*
X256790000Y-119800000D01*
X256790000Y-119800000D02*
X256790000Y-145200000D01*
X256790000Y-145200000D02*
X251710000Y-145200000D01*
%TO.C,L1*%
X235800000Y-187900000D02*
X237200000Y-187900000D01*
X235800000Y-190100000D02*
X235800000Y-187900000D01*
X237200000Y-187900000D02*
X237200000Y-190100000D01*
X237200000Y-190100000D02*
X235800000Y-190100000D01*
%TO.C,R113*%
X218750000Y-172750000D02*
X219750000Y-172750000D01*
X218750000Y-173250000D02*
X218750000Y-172750000D01*
X219750000Y-172750000D02*
X219750000Y-173250000D01*
X219750000Y-173250000D02*
X218750000Y-173250000D01*
%TO.C,C188*%
X142650000Y-132500000D02*
X145350000Y-132500000D01*
X142650000Y-136000000D02*
X142650000Y-132500000D01*
X145350000Y-132500000D02*
X145350000Y-136000000D01*
X145350000Y-136000000D02*
X142650000Y-136000000D01*
%TO.C,C3*%
X237750000Y-120000000D02*
X238750000Y-120000000D01*
X237750000Y-120500000D02*
X237750000Y-120000000D01*
X238750000Y-120000000D02*
X238750000Y-120500000D01*
X238750000Y-120500000D02*
X237750000Y-120500000D01*
%TO.C,C71*%
X229250000Y-195000000D02*
X229750000Y-195000000D01*
X229250000Y-196000000D02*
X229250000Y-195000000D01*
X229750000Y-195000000D02*
X229750000Y-196000000D01*
X229750000Y-196000000D02*
X229250000Y-196000000D01*
%TO.C,FID1*%
X111000000Y-105000000D02*
G75*
G02*
X109000000Y-105000000I-1000000J0D01*
G01*
X109000000Y-105000000D02*
G75*
G02*
X111000000Y-105000000I1000000J0D01*
G01*
%TO.C,C15*%
X221000000Y-104750000D02*
X221500000Y-104750000D01*
X221000000Y-105750000D02*
X221000000Y-104750000D01*
X221500000Y-104750000D02*
X221500000Y-105750000D01*
X221500000Y-105750000D02*
X221000000Y-105750000D01*
%TO.C,R55*%
X242250000Y-152750000D02*
X243250000Y-152750000D01*
X242250000Y-153250000D02*
X242250000Y-152750000D01*
X243250000Y-152750000D02*
X243250000Y-153250000D01*
X243250000Y-153250000D02*
X242250000Y-153250000D01*
%TO.C,U26*%
X221600000Y-128500000D02*
X223900000Y-128500000D01*
X221600000Y-130500000D02*
X221600000Y-128500000D01*
X223350000Y-130500000D02*
X221600000Y-130500000D01*
X223350000Y-130500000D02*
X223900000Y-129950000D01*
X223900000Y-128500000D02*
X223900000Y-129950000D01*
%TO.C,R57*%
X242250000Y-154250000D02*
X243250000Y-154250000D01*
X242250000Y-154750000D02*
X242250000Y-154250000D01*
X243250000Y-154250000D02*
X243250000Y-154750000D01*
X243250000Y-154750000D02*
X242250000Y-154750000D01*
D15*
%TO.C,L8*%
X132000000Y-169000000D02*
X145500000Y-169000000D01*
X132000000Y-181500000D02*
X132000000Y-169000000D01*
X145500000Y-169000000D02*
X145500000Y-181500000D01*
X145500000Y-181500000D02*
X132000000Y-181500000D01*
D10*
%TO.C,R34*%
X233750000Y-114500000D02*
X234750000Y-114500000D01*
X233750000Y-115000000D02*
X233750000Y-114500000D01*
X234750000Y-114500000D02*
X234750000Y-115000000D01*
X234750000Y-115000000D02*
X233750000Y-115000000D01*
%TO.C,R116*%
X223750000Y-174750000D02*
X224250000Y-174750000D01*
X223750000Y-175750000D02*
X223750000Y-174750000D01*
X224250000Y-174750000D02*
X224250000Y-175750000D01*
X224250000Y-175750000D02*
X223750000Y-175750000D01*
%TO.C,R183*%
X114500000Y-114500000D02*
X115500000Y-114500000D01*
X114500000Y-115000000D02*
X114500000Y-114500000D01*
X115500000Y-114500000D02*
X115500000Y-115000000D01*
X115500000Y-115000000D02*
X114500000Y-115000000D01*
%TO.C,R6*%
X227750000Y-136250000D02*
X228750000Y-136250000D01*
X227750000Y-136750000D02*
X227750000Y-136250000D01*
X228750000Y-136250000D02*
X228750000Y-136750000D01*
X228750000Y-136750000D02*
X227750000Y-136750000D01*
%TO.C,C46*%
X229000000Y-174750000D02*
X229500000Y-174750000D01*
X229000000Y-175750000D02*
X229000000Y-174750000D01*
X229500000Y-174750000D02*
X229500000Y-175750000D01*
X229500000Y-175750000D02*
X229000000Y-175750000D01*
%TO.C,R125*%
X229250000Y-192500000D02*
X229750000Y-192500000D01*
X229250000Y-193500000D02*
X229250000Y-192500000D01*
X229750000Y-192500000D02*
X229750000Y-193500000D01*
X229750000Y-193500000D02*
X229250000Y-193500000D01*
%TO.C,C119*%
X167400000Y-148250000D02*
X170100000Y-148250000D01*
X167400000Y-151750000D02*
X167400000Y-148250000D01*
X170100000Y-148250000D02*
X170100000Y-151750000D01*
X170100000Y-151750000D02*
X167400000Y-151750000D01*
%TO.C,R349*%
X226750000Y-129500000D02*
X227750000Y-129500000D01*
X226750000Y-130000000D02*
X226750000Y-129500000D01*
X227750000Y-129500000D02*
X227750000Y-130000000D01*
X227750000Y-130000000D02*
X226750000Y-130000000D01*
%TO.C,C201*%
X139150000Y-164000000D02*
X141850000Y-164000000D01*
X139150000Y-167500000D02*
X139150000Y-164000000D01*
X141850000Y-164000000D02*
X141850000Y-167500000D01*
X141850000Y-167500000D02*
X139150000Y-167500000D01*
%TO.C,C22*%
X230500000Y-195000000D02*
X231000000Y-195000000D01*
X230500000Y-196000000D02*
X230500000Y-195000000D01*
X231000000Y-195000000D02*
X231000000Y-196000000D01*
X231000000Y-196000000D02*
X230500000Y-196000000D01*
%TO.C,T1*%
X177315000Y-122085000D02*
X177315000Y-142915000D01*
X177315000Y-142915000D02*
X200685000Y-142915000D01*
X200685000Y-122085000D02*
X177315000Y-122085000D01*
X200685000Y-142915000D02*
X200685000Y-122085000D01*
%TO.C,C86*%
X226750000Y-189000000D02*
X227250000Y-189000000D01*
X226750000Y-190000000D02*
X226750000Y-189000000D01*
X227250000Y-189000000D02*
X227250000Y-190000000D01*
X227250000Y-190000000D02*
X226750000Y-190000000D01*
%TO.C,D29*%
X109450000Y-141540000D02*
X110720000Y-140270000D01*
X109450000Y-144230000D02*
X109450000Y-141540000D01*
X110102340Y-142251020D02*
X111100560Y-142251020D01*
X110720000Y-140270000D02*
X114050000Y-140270000D01*
X111100560Y-141450920D02*
X111100560Y-143051120D01*
X111100560Y-142251020D02*
X112251180Y-141450920D01*
X111100560Y-142251020D02*
X112251180Y-143000320D01*
X112251180Y-143000320D02*
X112251180Y-141450920D01*
X112251780Y-142250000D02*
X113250000Y-142250000D01*
X114050000Y-140270000D02*
X114050000Y-144230000D01*
X114050000Y-144230000D02*
X109450000Y-144230000D01*
%TO.C,C110*%
X235000000Y-136250000D02*
X235500000Y-136250000D01*
X235000000Y-137250000D02*
X235000000Y-136250000D01*
X235500000Y-136250000D02*
X235500000Y-137250000D01*
X235500000Y-137250000D02*
X235000000Y-137250000D01*
%TO.C,C12*%
X232270000Y-107740000D02*
X233730000Y-107740000D01*
X232270000Y-109760000D02*
X232270000Y-107740000D01*
X233730000Y-107740000D02*
X233730000Y-109760000D01*
X233730000Y-109760000D02*
X232270000Y-109760000D01*
%TO.C,C5*%
X220250000Y-114500000D02*
X221250000Y-114500000D01*
X220250000Y-115000000D02*
X220250000Y-114500000D01*
X221250000Y-114500000D02*
X221250000Y-115000000D01*
X221250000Y-115000000D02*
X220250000Y-115000000D01*
%TO.C,R139*%
X220250000Y-157000000D02*
X221250000Y-157000000D01*
X220250000Y-157500000D02*
X220250000Y-157000000D01*
X221250000Y-157000000D02*
X221250000Y-157500000D01*
X221250000Y-157500000D02*
X220250000Y-157500000D01*
%TO.C,U40*%
X117440000Y-118825000D02*
X124060000Y-118825000D01*
X117440000Y-125175000D02*
X117440000Y-118825000D01*
X124060000Y-118825000D02*
X125060000Y-119825000D01*
X125060000Y-119825000D02*
X125060000Y-125175000D01*
X125060000Y-125175000D02*
X117440000Y-125175000D01*
%TO.C,R18*%
X237250000Y-129250000D02*
X237750000Y-129250000D01*
X237250000Y-130250000D02*
X237250000Y-129250000D01*
X237750000Y-129250000D02*
X237750000Y-130250000D01*
X237750000Y-130250000D02*
X237250000Y-130250000D01*
%TO.C,C121*%
X128150000Y-148250000D02*
X130850000Y-148250000D01*
X128150000Y-151750000D02*
X128150000Y-148250000D01*
X130850000Y-148250000D02*
X130850000Y-151750000D01*
X130850000Y-151750000D02*
X128150000Y-151750000D01*
%TO.C,U10*%
X232500000Y-151750000D02*
X236500000Y-151750000D01*
X232500000Y-152400000D02*
X233150000Y-151750000D01*
X232500000Y-155750000D02*
X232500000Y-151750000D01*
X236500000Y-151750000D02*
X236500000Y-155750000D01*
X236500000Y-155750000D02*
X232500000Y-155750000D01*
%TO.C,C23*%
X221060000Y-108250000D02*
X221560000Y-108250000D01*
X221060000Y-109250000D02*
X221060000Y-108250000D01*
X221560000Y-108250000D02*
X221560000Y-109250000D01*
X221560000Y-109250000D02*
X221060000Y-109250000D01*
%TO.C,C64*%
X234000000Y-186500000D02*
X235000000Y-186500000D01*
X234000000Y-187000000D02*
X234000000Y-186500000D01*
X235000000Y-186500000D02*
X235000000Y-187000000D01*
X235000000Y-187000000D02*
X234000000Y-187000000D01*
%TO.C,R176*%
X115750000Y-186750000D02*
X116750000Y-186750000D01*
X115750000Y-187250000D02*
X115750000Y-186750000D01*
X116750000Y-186750000D02*
X116750000Y-187250000D01*
X116750000Y-187250000D02*
X115750000Y-187250000D01*
%TO.C,R27*%
X227000000Y-121750000D02*
X228000000Y-121750000D01*
X227000000Y-122250000D02*
X227000000Y-121750000D01*
X228000000Y-121750000D02*
X228000000Y-122250000D01*
X228000000Y-122250000D02*
X227000000Y-122250000D01*
%TO.C,R348*%
X226750000Y-127250000D02*
X227750000Y-127250000D01*
X226750000Y-127750000D02*
X226750000Y-127250000D01*
X227750000Y-127250000D02*
X227750000Y-127750000D01*
X227750000Y-127750000D02*
X226750000Y-127750000D01*
%TO.C,D10*%
X155770000Y-147700000D02*
X158460000Y-147700000D01*
X155770000Y-152300000D02*
X155770000Y-147700000D01*
X156999680Y-150501180D02*
X158549080Y-150501180D01*
X157748980Y-148352340D02*
X157748980Y-149350560D01*
X157748980Y-149350560D02*
X156999680Y-150501180D01*
X157748980Y-149350560D02*
X158549080Y-150501180D01*
X157750000Y-150501780D02*
X157750000Y-151500000D01*
X158460000Y-147700000D02*
X159730000Y-148970000D01*
X158549080Y-149350560D02*
X156948880Y-149350560D01*
X159730000Y-148970000D02*
X159730000Y-152300000D01*
X159730000Y-152300000D02*
X155770000Y-152300000D01*
%TO.C,U5*%
X224952000Y-104955300D02*
X224952000Y-109044700D01*
X224952000Y-109044700D02*
X231048000Y-109044700D01*
X229778000Y-104955300D02*
X231048000Y-106225300D01*
X231048000Y-104955300D02*
X224952000Y-104955300D01*
X231048000Y-109044700D02*
X231048000Y-104955300D01*
D17*
X229800001Y-105743699D02*
X229800001Y-105743699D01*
X229800001Y-105743699D01*
X229800001Y-105743699D01*
X229800001Y-105743699D01*
X229800001Y-105743699D01*
X229800001Y-105743700D01*
X229800001Y-105743700D01*
X229800001Y-105743700D01*
X229800001Y-105743700D01*
X229800001Y-105743700D01*
X229800001Y-105743700D01*
X229800001Y-105743700D01*
X229800000Y-105743700D01*
X229800000Y-105743700D01*
X229800000Y-105743700D01*
X229800000Y-105743700D01*
X229800000Y-105743700D01*
X229800000Y-105743700D01*
X229800000Y-105743700D01*
X229800000Y-105743700D01*
X229800000Y-105743700D01*
X229800000Y-105743700D01*
X229800000Y-105743700D01*
X229800000Y-105743700D01*
X229799999Y-105743700D01*
X229799999Y-105743700D01*
X229799999Y-105743700D01*
X229799999Y-105743700D01*
X229799999Y-105743700D01*
X229799999Y-105743700D01*
X229799999Y-105743699D01*
X229799999Y-105743699D01*
X229799999Y-105743699D01*
X229799999Y-105743699D01*
X229799999Y-105743699D01*
X229799999Y-105743699D01*
X229799999Y-105743699D02*
X229799999Y-105743699D01*
X229799999Y-105743699D01*
X229799999Y-105743699D01*
X229799999Y-105743699D01*
X229799999Y-105743699D01*
X229799999Y-105743699D01*
X229799999Y-105743698D01*
X229799999Y-105743698D01*
X229799999Y-105743698D01*
X229799999Y-105743698D01*
X229799999Y-105743698D01*
X229800000Y-105743698D01*
X229800000Y-105743698D01*
X229800000Y-105743698D01*
X229800000Y-105743698D01*
X229800000Y-105743698D01*
X229800000Y-105743698D01*
X229800000Y-105743698D01*
X229800000Y-105743698D01*
X229800000Y-105743698D01*
X229800000Y-105743698D01*
X229800000Y-105743698D01*
X229800000Y-105743698D01*
X229800001Y-105743698D01*
X229800001Y-105743698D01*
X229800001Y-105743698D01*
X229800001Y-105743698D01*
X229800001Y-105743698D01*
X229800001Y-105743698D01*
X229800001Y-105743699D01*
X229800001Y-105743699D01*
X229800001Y-105743699D01*
X229800001Y-105743699D01*
X229800001Y-105743699D01*
X229800001Y-105743699D01*
X229800001Y-105743699D01*
D10*
%TO.C,R103*%
X244500000Y-188750000D02*
X245500000Y-188750000D01*
X244500000Y-189250000D02*
X244500000Y-188750000D01*
X245500000Y-188750000D02*
X245500000Y-189250000D01*
X245500000Y-189250000D02*
X244500000Y-189250000D01*
%TO.C,U52*%
X179350000Y-187500000D02*
X189650000Y-187500000D01*
X179350000Y-194000000D02*
X179350000Y-187500000D01*
X180350000Y-195000000D02*
X179350000Y-194000000D01*
X189650000Y-187500000D02*
X189650000Y-195000000D01*
X189650000Y-195000000D02*
X180350000Y-195000000D01*
%TO.C,R50*%
X242250000Y-166250000D02*
X243250000Y-166250000D01*
X242250000Y-166750000D02*
X242250000Y-166250000D01*
X243250000Y-166250000D02*
X243250000Y-166750000D01*
X243250000Y-166750000D02*
X242250000Y-166750000D01*
%TO.C,C223*%
X219500000Y-134750000D02*
X220000000Y-134750000D01*
X219500000Y-135750000D02*
X219500000Y-134750000D01*
X220000000Y-134750000D02*
X220000000Y-135750000D01*
X220000000Y-135750000D02*
X219500000Y-135750000D01*
%TO.C,R29*%
X220250000Y-124250000D02*
X221250000Y-124250000D01*
X220250000Y-124750000D02*
X220250000Y-124250000D01*
X221250000Y-124250000D02*
X221250000Y-124750000D01*
X221250000Y-124750000D02*
X220250000Y-124750000D01*
%TO.C,C73*%
X220750000Y-192500000D02*
X221250000Y-192500000D01*
X220750000Y-193500000D02*
X220750000Y-192500000D01*
X221250000Y-192500000D02*
X221250000Y-193500000D01*
X221250000Y-193500000D02*
X220750000Y-193500000D01*
%TO.C,R179*%
X113750000Y-185500000D02*
X114750000Y-185500000D01*
X113750000Y-186000000D02*
X113750000Y-185500000D01*
X114750000Y-185500000D02*
X114750000Y-186000000D01*
X114750000Y-186000000D02*
X113750000Y-186000000D01*
%TO.C,R126*%
X230500000Y-192500000D02*
X231000000Y-192500000D01*
X230500000Y-193500000D02*
X230500000Y-192500000D01*
X231000000Y-192500000D02*
X231000000Y-193500000D01*
X231000000Y-193500000D02*
X230500000Y-193500000D01*
%TO.C,D16*%
X105840000Y-114510000D02*
X106340000Y-113510000D01*
X106340000Y-112760000D02*
X106340000Y-113510000D01*
X106340000Y-113510000D02*
X106840000Y-114510000D01*
X106340000Y-114510000D02*
X106340000Y-115260000D01*
X106840000Y-113510000D02*
X105840000Y-113510000D01*
X106840000Y-114510000D02*
X105840000Y-114510000D01*
D15*
%TO.C,L13*%
X110500000Y-147000000D02*
X117500000Y-147000000D01*
X110500000Y-153000000D02*
X110500000Y-147000000D01*
X117500000Y-147000000D02*
X117500000Y-153000000D01*
X117500000Y-153000000D02*
X110500000Y-153000000D01*
D10*
%TO.C,C38*%
X226750000Y-174750000D02*
X227250000Y-174750000D01*
X226750000Y-175750000D02*
X226750000Y-174750000D01*
X227250000Y-174750000D02*
X227250000Y-175750000D01*
X227250000Y-175750000D02*
X226750000Y-175750000D01*
%TO.C,R173*%
X114500000Y-112000000D02*
X115500000Y-112000000D01*
X114500000Y-112500000D02*
X114500000Y-112000000D01*
X115500000Y-112000000D02*
X115500000Y-112500000D01*
X115500000Y-112500000D02*
X114500000Y-112500000D01*
%TO.C,R54*%
X244500000Y-166250000D02*
X245500000Y-166250000D01*
X244500000Y-166750000D02*
X244500000Y-166250000D01*
X245500000Y-166250000D02*
X245500000Y-166750000D01*
X245500000Y-166750000D02*
X244500000Y-166750000D01*
%TO.C,U63*%
X191500000Y-116770000D02*
X192770000Y-115500000D01*
X191500000Y-120500000D02*
X191500000Y-116770000D01*
X192770000Y-115500000D02*
X195500000Y-115500000D01*
X195500000Y-115500000D02*
X195500000Y-120500000D01*
X195500000Y-120500000D02*
X191500000Y-120500000D01*
%TO.C,R346*%
X226750000Y-124000000D02*
X227750000Y-124000000D01*
X226750000Y-124500000D02*
X226750000Y-124000000D01*
X227750000Y-124000000D02*
X227750000Y-124500000D01*
X227750000Y-124500000D02*
X226750000Y-124500000D01*
%TO.C,R76*%
X242250000Y-187250000D02*
X243250000Y-187250000D01*
X242250000Y-187750000D02*
X242250000Y-187250000D01*
X243250000Y-187250000D02*
X243250000Y-187750000D01*
X243250000Y-187750000D02*
X242250000Y-187750000D01*
%TO.C,U12*%
X227600000Y-153250000D02*
X227600000Y-151800000D01*
X228150000Y-151250000D02*
X227600000Y-151800000D01*
X228150000Y-151250000D02*
X229900000Y-151250000D01*
X229900000Y-151250000D02*
X229900000Y-153250000D01*
X229900000Y-153250000D02*
X227600000Y-153250000D01*
%TO.C,C190*%
X149400000Y-132500000D02*
X152100000Y-132500000D01*
X149400000Y-136000000D02*
X149400000Y-132500000D01*
X152100000Y-132500000D02*
X152100000Y-136000000D01*
X152100000Y-136000000D02*
X149400000Y-136000000D01*
%TO.C,R48*%
X242250000Y-186000000D02*
X243250000Y-186000000D01*
X242250000Y-186500000D02*
X242250000Y-186000000D01*
X243250000Y-186000000D02*
X243250000Y-186500000D01*
X243250000Y-186500000D02*
X242250000Y-186500000D01*
%TO.C,C7*%
X253750000Y-118250000D02*
X254750000Y-118250000D01*
X253750000Y-118750000D02*
X253750000Y-118250000D01*
X254750000Y-118250000D02*
X254750000Y-118750000D01*
X254750000Y-118750000D02*
X253750000Y-118750000D01*
%TO.C,P3*%
X95000000Y-119520000D02*
X107000000Y-119520000D01*
X95000000Y-180480000D02*
X95000000Y-119520000D01*
X107000000Y-119520000D02*
X107000000Y-180480000D01*
X107000000Y-180480000D02*
X95000000Y-180480000D01*
%TO.C,R175*%
X113750000Y-186750000D02*
X114750000Y-186750000D01*
X113750000Y-187250000D02*
X113750000Y-186750000D01*
X114750000Y-186750000D02*
X114750000Y-187250000D01*
X114750000Y-187250000D02*
X113750000Y-187250000D01*
%TO.C,R15*%
X225750000Y-133250000D02*
X226750000Y-133250000D01*
X225750000Y-133750000D02*
X225750000Y-133250000D01*
X226750000Y-133250000D02*
X226750000Y-133750000D01*
X226750000Y-133750000D02*
X225750000Y-133750000D01*
%TO.C,R89*%
X242250000Y-182750000D02*
X243250000Y-182750000D01*
X242250000Y-183250000D02*
X242250000Y-182750000D01*
X243250000Y-182750000D02*
X243250000Y-183250000D01*
X243250000Y-183250000D02*
X242250000Y-183250000D01*
%TO.C,R148*%
X227250000Y-190750000D02*
X228250000Y-190750000D01*
X227250000Y-191250000D02*
X227250000Y-190750000D01*
X228250000Y-190750000D02*
X228250000Y-191250000D01*
X228250000Y-191250000D02*
X227250000Y-191250000D01*
%TO.C,R17*%
X240250000Y-129250000D02*
X240750000Y-129250000D01*
X240250000Y-130250000D02*
X240250000Y-129250000D01*
X240750000Y-129250000D02*
X240750000Y-130250000D01*
X240750000Y-130250000D02*
X240250000Y-130250000D01*
%TO.C,R46*%
X242250000Y-149750000D02*
X243250000Y-149750000D01*
X242250000Y-150250000D02*
X242250000Y-149750000D01*
X243250000Y-149750000D02*
X243250000Y-150250000D01*
X243250000Y-150250000D02*
X242250000Y-150250000D01*
%TO.C,R159*%
X220250000Y-190250000D02*
X221250000Y-190250000D01*
X220250000Y-190750000D02*
X220250000Y-190250000D01*
X221250000Y-190250000D02*
X221250000Y-190750000D01*
X221250000Y-190750000D02*
X220250000Y-190750000D01*
%TO.C,R3*%
X236000000Y-126500000D02*
X237000000Y-126500000D01*
X236000000Y-127000000D02*
X236000000Y-126500000D01*
X237000000Y-126500000D02*
X237000000Y-127000000D01*
X237000000Y-127000000D02*
X236000000Y-127000000D01*
%TO.C,R66*%
X242250000Y-158750000D02*
X243250000Y-158750000D01*
X242250000Y-159250000D02*
X242250000Y-158750000D01*
X243250000Y-158750000D02*
X243250000Y-159250000D01*
X243250000Y-159250000D02*
X242250000Y-159250000D01*
%TO.C,R13*%
X225750000Y-136250000D02*
X226750000Y-136250000D01*
X225750000Y-136750000D02*
X225750000Y-136250000D01*
X226750000Y-136250000D02*
X226750000Y-136750000D01*
X226750000Y-136750000D02*
X225750000Y-136750000D01*
%TO.C,C97*%
X230000000Y-130250000D02*
X231000000Y-130250000D01*
X230000000Y-130750000D02*
X230000000Y-130250000D01*
X231000000Y-130250000D02*
X231000000Y-130750000D01*
X231000000Y-130750000D02*
X230000000Y-130750000D01*
%TO.C,R10*%
X227750000Y-133250000D02*
X228750000Y-133250000D01*
X227750000Y-133750000D02*
X227750000Y-133250000D01*
X228750000Y-133250000D02*
X228750000Y-133750000D01*
X228750000Y-133750000D02*
X227750000Y-133750000D01*
%TO.C,U8*%
X223750000Y-192600000D02*
X226750000Y-192600000D01*
X223750000Y-195400000D02*
X223750000Y-192600000D01*
X226750000Y-192600000D02*
X226750000Y-195400000D01*
X226750000Y-195400000D02*
X223750000Y-195400000D01*
%TO.C,C105*%
X232750000Y-136750000D02*
X233250000Y-136750000D01*
X232750000Y-137750000D02*
X232750000Y-136750000D01*
X233250000Y-136750000D02*
X233250000Y-137750000D01*
X233250000Y-137750000D02*
X232750000Y-137750000D01*
%TO.C,R111*%
X224750000Y-174750000D02*
X225250000Y-174750000D01*
X224750000Y-175750000D02*
X224750000Y-174750000D01*
X225250000Y-174750000D02*
X225250000Y-175750000D01*
X225250000Y-175750000D02*
X224750000Y-175750000D01*
%TO.C,R147*%
X222000000Y-195000000D02*
X222500000Y-195000000D01*
X222000000Y-196000000D02*
X222000000Y-195000000D01*
X222500000Y-195000000D02*
X222500000Y-196000000D01*
X222500000Y-196000000D02*
X222000000Y-196000000D01*
%TO.C,R42*%
X230750000Y-111250000D02*
X231250000Y-111250000D01*
X230750000Y-112250000D02*
X230750000Y-111250000D01*
X231250000Y-111250000D02*
X231250000Y-112250000D01*
X231250000Y-112250000D02*
X230750000Y-112250000D01*
%TO.C,U2*%
X221000000Y-116250000D02*
X225000000Y-116250000D01*
X221000000Y-116900000D02*
X221650000Y-116250000D01*
X221000000Y-120250000D02*
X221000000Y-116250000D01*
X225000000Y-116250000D02*
X225000000Y-120250000D01*
X225000000Y-120250000D02*
X221000000Y-120250000D01*
%TO.C,R51*%
X244500000Y-149750000D02*
X245500000Y-149750000D01*
X244500000Y-150250000D02*
X244500000Y-149750000D01*
X245500000Y-149750000D02*
X245500000Y-150250000D01*
X245500000Y-150250000D02*
X244500000Y-150250000D01*
%TO.C,U14*%
X237000000Y-191750000D02*
X243000000Y-191750000D01*
X237000000Y-196750000D02*
X237000000Y-191750000D01*
X243000000Y-191750000D02*
X243000000Y-196750000D01*
X243000000Y-195250000D02*
X241500000Y-196750000D01*
X243000000Y-196750000D02*
X237000000Y-196750000D01*
%TO.C,C133*%
X187750000Y-116250000D02*
X188750000Y-116250000D01*
X187750000Y-116750000D02*
X187750000Y-116250000D01*
X188750000Y-116250000D02*
X188750000Y-116750000D01*
X188750000Y-116750000D02*
X187750000Y-116750000D01*
%TO.C,R133*%
X220250000Y-160000000D02*
X221250000Y-160000000D01*
X220250000Y-160500000D02*
X220250000Y-160000000D01*
X221250000Y-160000000D02*
X221250000Y-160500000D01*
X221250000Y-160500000D02*
X220250000Y-160500000D01*
%TO.C,C39*%
X120500000Y-183500000D02*
X121500000Y-183500000D01*
X120500000Y-184000000D02*
X120500000Y-183500000D01*
X121500000Y-183500000D02*
X121500000Y-184000000D01*
X121500000Y-184000000D02*
X120500000Y-184000000D01*
%TO.C,R91*%
X242250000Y-184250000D02*
X243250000Y-184250000D01*
X242250000Y-184750000D02*
X242250000Y-184250000D01*
X243250000Y-184250000D02*
X243250000Y-184750000D01*
X243250000Y-184750000D02*
X242250000Y-184750000D01*
%TO.C,U65*%
X118500000Y-186500000D02*
X123500000Y-186500000D01*
X118500000Y-187000000D02*
X119000000Y-186500000D01*
X118500000Y-191500000D02*
X118500000Y-186500000D01*
X123500000Y-186500000D02*
X123500000Y-191500000D01*
X123500000Y-191500000D02*
X118500000Y-191500000D01*
D15*
%TO.C,U41*%
X112950000Y-118800000D02*
X112950000Y-123200000D01*
X112950000Y-123200000D02*
X116550000Y-123200000D01*
X115550000Y-118800000D02*
X112950000Y-118800000D01*
X116550000Y-119800000D02*
X115550000Y-118800000D01*
X116550000Y-123200000D02*
X116550000Y-119800000D01*
D10*
%TO.C,C107*%
X241750000Y-140750000D02*
X242250000Y-140750000D01*
X241750000Y-141750000D02*
X241750000Y-140750000D01*
X242250000Y-140750000D02*
X242250000Y-141750000D01*
X242250000Y-141750000D02*
X241750000Y-141750000D01*
%TO.C,R160*%
X234250000Y-140750000D02*
X234750000Y-140750000D01*
X234250000Y-141750000D02*
X234250000Y-140750000D01*
X234750000Y-140750000D02*
X234750000Y-141750000D01*
X234750000Y-141750000D02*
X234250000Y-141750000D01*
%TO.C,R30*%
X220250000Y-123000000D02*
X221250000Y-123000000D01*
X220250000Y-123500000D02*
X220250000Y-123000000D01*
X221250000Y-123000000D02*
X221250000Y-123500000D01*
X221250000Y-123500000D02*
X220250000Y-123500000D01*
%TO.C,R81*%
X242250000Y-173750000D02*
X243250000Y-173750000D01*
X242250000Y-174250000D02*
X242250000Y-173750000D01*
X243250000Y-173750000D02*
X243250000Y-174250000D01*
X243250000Y-174250000D02*
X242250000Y-174250000D01*
%TO.C,R187*%
X176750000Y-111250000D02*
X177750000Y-111250000D01*
X176750000Y-111750000D02*
X176750000Y-111250000D01*
X177750000Y-111250000D02*
X177750000Y-111750000D01*
X177750000Y-111750000D02*
X176750000Y-111750000D01*
%TO.C,R32*%
X236000000Y-113250000D02*
X237000000Y-113250000D01*
X236000000Y-113750000D02*
X236000000Y-113250000D01*
X237000000Y-113250000D02*
X237000000Y-113750000D01*
X237000000Y-113750000D02*
X236000000Y-113750000D01*
%TO.C,R122*%
X232750000Y-187980000D02*
X233250000Y-187980000D01*
X232750000Y-188980000D02*
X232750000Y-187980000D01*
X233250000Y-187980000D02*
X233250000Y-188980000D01*
X233250000Y-188980000D02*
X232750000Y-188980000D01*
%TO.C,R74*%
X242250000Y-190250000D02*
X243250000Y-190250000D01*
X242250000Y-190750000D02*
X242250000Y-190250000D01*
X243250000Y-190250000D02*
X243250000Y-190750000D01*
X243250000Y-190750000D02*
X242250000Y-190750000D01*
%TO.C,U3*%
X232500000Y-116250000D02*
X236500000Y-116250000D01*
X232500000Y-116900000D02*
X233150000Y-116250000D01*
X232500000Y-120250000D02*
X232500000Y-116250000D01*
X236500000Y-116250000D02*
X236500000Y-120250000D01*
X236500000Y-120250000D02*
X232500000Y-120250000D01*
%TO.C,C84*%
X222500000Y-189000000D02*
X223500000Y-189000000D01*
X222500000Y-189500000D02*
X222500000Y-189000000D01*
X223500000Y-189000000D02*
X223500000Y-189500000D01*
X223500000Y-189500000D02*
X222500000Y-189500000D01*
%TO.C,C58*%
X234250000Y-169750000D02*
X235250000Y-169750000D01*
X234250000Y-170250000D02*
X234250000Y-169750000D01*
X235250000Y-169750000D02*
X235250000Y-170250000D01*
X235250000Y-170250000D02*
X234250000Y-170250000D01*
%TO.C,C205*%
X152900000Y-164000000D02*
X155600000Y-164000000D01*
X152900000Y-167500000D02*
X152900000Y-164000000D01*
X155600000Y-164000000D02*
X155600000Y-167500000D01*
X155600000Y-167500000D02*
X152900000Y-167500000D01*
D15*
%TO.C,U48*%
X112950000Y-176800000D02*
X112950000Y-180200000D01*
X112950000Y-180200000D02*
X113950000Y-181200000D01*
X113950000Y-181200000D02*
X116550000Y-181200000D01*
X116550000Y-176800000D02*
X112950000Y-176800000D01*
X116550000Y-181200000D02*
X116550000Y-176800000D01*
D10*
%TO.C,R41*%
X232000000Y-111250000D02*
X232500000Y-111250000D01*
X232000000Y-112250000D02*
X232000000Y-111250000D01*
X232500000Y-111250000D02*
X232500000Y-112250000D01*
X232500000Y-112250000D02*
X232000000Y-112250000D01*
%TO.C,C123*%
X170900000Y-148250000D02*
X173600000Y-148250000D01*
X170900000Y-151750000D02*
X170900000Y-148250000D01*
X173600000Y-148250000D02*
X173600000Y-151750000D01*
X173600000Y-151750000D02*
X170900000Y-151750000D01*
%TO.C,L24*%
X176150000Y-195550000D02*
X178350000Y-195550000D01*
X176150000Y-196950000D02*
X176150000Y-195550000D01*
X178350000Y-195550000D02*
X178350000Y-196950000D01*
X178350000Y-196950000D02*
X176150000Y-196950000D01*
%TO.C,H5*%
X100000000Y-100000000D02*
X260000000Y-100000000D01*
X260000000Y-200000000D01*
X100000000Y-200000000D01*
X100000000Y-100000000D01*
%TO.C,C81*%
X224250000Y-189000000D02*
X224750000Y-189000000D01*
X224250000Y-190000000D02*
X224250000Y-189000000D01*
X224750000Y-189000000D02*
X224750000Y-190000000D01*
X224750000Y-190000000D02*
X224250000Y-190000000D01*
%TO.C,R121*%
X237750000Y-186750000D02*
X238250000Y-186750000D01*
X237750000Y-187750000D02*
X237750000Y-186750000D01*
X238250000Y-186750000D02*
X238250000Y-187750000D01*
X238250000Y-187750000D02*
X237750000Y-187750000D01*
%TO.C,R60*%
X242250000Y-146750000D02*
X243250000Y-146750000D01*
X242250000Y-147250000D02*
X242250000Y-146750000D01*
X243250000Y-146750000D02*
X243250000Y-147250000D01*
X243250000Y-147250000D02*
X242250000Y-147250000D01*
%TO.C,C65*%
X235250000Y-183000000D02*
X235750000Y-183000000D01*
X235250000Y-184000000D02*
X235250000Y-183000000D01*
X235750000Y-183000000D02*
X235750000Y-184000000D01*
X235750000Y-184000000D02*
X235250000Y-184000000D01*
%TO.C,R166*%
X230000000Y-136250000D02*
X231000000Y-136250000D01*
X230000000Y-136750000D02*
X230000000Y-136250000D01*
X231000000Y-136250000D02*
X231000000Y-136750000D01*
X231000000Y-136750000D02*
X230000000Y-136750000D01*
%TO.C,R40*%
X225750000Y-111250000D02*
X226250000Y-111250000D01*
X225750000Y-112250000D02*
X225750000Y-111250000D01*
X226250000Y-111250000D02*
X226250000Y-112250000D01*
X226250000Y-112250000D02*
X225750000Y-112250000D01*
%TO.C,R153*%
X234500000Y-192250000D02*
X235500000Y-192250000D01*
X234500000Y-192750000D02*
X234500000Y-192250000D01*
X235500000Y-192250000D02*
X235500000Y-192750000D01*
X235500000Y-192750000D02*
X234500000Y-192750000D01*
%TO.C,R14*%
X225750000Y-134750000D02*
X226750000Y-134750000D01*
X225750000Y-135250000D02*
X225750000Y-134750000D01*
X226750000Y-134750000D02*
X226750000Y-135250000D01*
X226750000Y-135250000D02*
X225750000Y-135250000D01*
%TO.C,R5*%
X227750000Y-137750000D02*
X228750000Y-137750000D01*
X227750000Y-138250000D02*
X227750000Y-137750000D01*
X228750000Y-137750000D02*
X228750000Y-138250000D01*
X228750000Y-138250000D02*
X227750000Y-138250000D01*
%TO.C,R86*%
X242250000Y-179750000D02*
X243250000Y-179750000D01*
X242250000Y-180250000D02*
X242250000Y-179750000D01*
X243250000Y-179750000D02*
X243250000Y-180250000D01*
X243250000Y-180250000D02*
X242250000Y-180250000D01*
%TO.C,D24*%
X109450000Y-167040000D02*
X110720000Y-165770000D01*
X109450000Y-169730000D02*
X109450000Y-167040000D01*
X110102340Y-167751020D02*
X111100560Y-167751020D01*
X110720000Y-165770000D02*
X114050000Y-165770000D01*
X111100560Y-166950920D02*
X111100560Y-168551120D01*
X111100560Y-167751020D02*
X112251180Y-166950920D01*
X111100560Y-167751020D02*
X112251180Y-168500320D01*
X112251180Y-168500320D02*
X112251180Y-166950920D01*
X112251780Y-167750000D02*
X113250000Y-167750000D01*
X114050000Y-165770000D02*
X114050000Y-169730000D01*
X114050000Y-169730000D02*
X109450000Y-169730000D01*
%TO.C,R95*%
X244500000Y-167750000D02*
X245500000Y-167750000D01*
X244500000Y-168250000D02*
X244500000Y-167750000D01*
X245500000Y-167750000D02*
X245500000Y-168250000D01*
X245500000Y-168250000D02*
X244500000Y-168250000D01*
%TO.C,R182*%
X115750000Y-188000000D02*
X116750000Y-188000000D01*
X115750000Y-188500000D02*
X115750000Y-188000000D01*
X116750000Y-188000000D02*
X116750000Y-188500000D01*
X116750000Y-188500000D02*
X115750000Y-188500000D01*
%TO.C,R22*%
X112500000Y-110750000D02*
X113500000Y-110750000D01*
X112500000Y-111250000D02*
X112500000Y-110750000D01*
X113500000Y-110750000D02*
X113500000Y-111250000D01*
X113500000Y-111250000D02*
X112500000Y-111250000D01*
%TO.C,R35*%
X220250000Y-121750000D02*
X221250000Y-121750000D01*
X220250000Y-122250000D02*
X220250000Y-121750000D01*
X221250000Y-121750000D02*
X221250000Y-122250000D01*
X221250000Y-122250000D02*
X220250000Y-122250000D01*
%TO.C,R130*%
X236250000Y-150000000D02*
X237250000Y-150000000D01*
X236250000Y-150500000D02*
X236250000Y-150000000D01*
X237250000Y-150000000D02*
X237250000Y-150500000D01*
X237250000Y-150500000D02*
X236250000Y-150500000D01*
%TO.C,L14*%
X135220000Y-141490000D02*
X154780000Y-141490000D01*
X135220000Y-158510000D02*
X135220000Y-141490000D01*
X135220000Y-158510000D02*
X154780000Y-158510000D01*
X154780000Y-158510000D02*
X154780000Y-141490000D01*
%TO.C,R140*%
X222500000Y-157000000D02*
X223500000Y-157000000D01*
X222500000Y-157500000D02*
X222500000Y-157000000D01*
X223500000Y-157000000D02*
X223500000Y-157500000D01*
X223500000Y-157500000D02*
X222500000Y-157500000D01*
%TO.C,R20*%
X235750000Y-129250000D02*
X236250000Y-129250000D01*
X235750000Y-130250000D02*
X235750000Y-129250000D01*
X236250000Y-129250000D02*
X236250000Y-130250000D01*
X236250000Y-130250000D02*
X235750000Y-130250000D01*
%TO.C,U50*%
X221600000Y-131250000D02*
X223900000Y-131250000D01*
X221600000Y-133250000D02*
X221600000Y-131250000D01*
X223350000Y-133250000D02*
X221600000Y-133250000D01*
X223350000Y-133250000D02*
X223900000Y-132700000D01*
X223900000Y-131250000D02*
X223900000Y-132700000D01*
%TO.C,C44*%
X224250000Y-165250000D02*
X225250000Y-165250000D01*
X224250000Y-165750000D02*
X224250000Y-165250000D01*
X225250000Y-165250000D02*
X225250000Y-165750000D01*
X225250000Y-165750000D02*
X224250000Y-165750000D01*
%TO.C,R185*%
X113750000Y-189250000D02*
X114750000Y-189250000D01*
X113750000Y-189750000D02*
X113750000Y-189250000D01*
X114750000Y-189250000D02*
X114750000Y-189750000D01*
X114750000Y-189750000D02*
X113750000Y-189750000D01*
%TO.C,C104*%
X225750000Y-139250000D02*
X226750000Y-139250000D01*
X225750000Y-139750000D02*
X225750000Y-139250000D01*
X226750000Y-139250000D02*
X226750000Y-139750000D01*
X226750000Y-139750000D02*
X225750000Y-139750000D01*
%TO.C,R38*%
X224750000Y-121750000D02*
X225750000Y-121750000D01*
X224750000Y-122250000D02*
X224750000Y-121750000D01*
X225750000Y-121750000D02*
X225750000Y-122250000D01*
X225750000Y-122250000D02*
X224750000Y-122250000D01*
%TO.C,C219*%
X173750000Y-196000000D02*
X174750000Y-196000000D01*
X173750000Y-196500000D02*
X173750000Y-196000000D01*
X174750000Y-196000000D02*
X174750000Y-196500000D01*
X174750000Y-196500000D02*
X173750000Y-196500000D01*
%TO.C,C50*%
X231750000Y-147250000D02*
X232750000Y-147250000D01*
X231750000Y-147750000D02*
X231750000Y-147250000D01*
X232750000Y-147250000D02*
X232750000Y-147750000D01*
X232750000Y-147750000D02*
X231750000Y-147750000D01*
%TO.C,C53*%
X224750000Y-173500000D02*
X225750000Y-173500000D01*
X224750000Y-174000000D02*
X224750000Y-173500000D01*
X225750000Y-173500000D02*
X225750000Y-174000000D01*
X225750000Y-174000000D02*
X224750000Y-174000000D01*
%TO.C,L9*%
X219050000Y-181650000D02*
X220450000Y-181650000D01*
X219050000Y-183850000D02*
X219050000Y-181650000D01*
X220450000Y-181650000D02*
X220450000Y-183850000D01*
X220450000Y-183850000D02*
X219050000Y-183850000D01*
%TO.C,R61*%
X244500000Y-154250000D02*
X245500000Y-154250000D01*
X244500000Y-154750000D02*
X244500000Y-154250000D01*
X245500000Y-154250000D02*
X245500000Y-154750000D01*
X245500000Y-154750000D02*
X244500000Y-154750000D01*
%TO.C,R47*%
X244530000Y-148250000D02*
X245530000Y-148250000D01*
X244530000Y-148750000D02*
X244530000Y-148250000D01*
X245530000Y-148250000D02*
X245530000Y-148750000D01*
X245530000Y-148750000D02*
X244530000Y-148750000D01*
%TO.C,R253*%
X123500000Y-115250000D02*
X124000000Y-115250000D01*
X123500000Y-116250000D02*
X123500000Y-115250000D01*
X124000000Y-115250000D02*
X124000000Y-116250000D01*
X124000000Y-116250000D02*
X123500000Y-116250000D01*
%TO.C,C52*%
X224750000Y-171500000D02*
X225750000Y-171500000D01*
X224750000Y-172000000D02*
X224750000Y-171500000D01*
X225750000Y-171500000D02*
X225750000Y-172000000D01*
X225750000Y-172000000D02*
X224750000Y-172000000D01*
%TO.C,C19*%
X244500000Y-186000000D02*
X245500000Y-186000000D01*
X244500000Y-186500000D02*
X244500000Y-186000000D01*
X245500000Y-186000000D02*
X245500000Y-186500000D01*
X245500000Y-186500000D02*
X244500000Y-186500000D01*
%TO.C,R8*%
X238250000Y-126500000D02*
X239250000Y-126500000D01*
X238250000Y-127000000D02*
X238250000Y-126500000D01*
X239250000Y-126500000D02*
X239250000Y-127000000D01*
X239250000Y-127000000D02*
X238250000Y-127000000D01*
%TO.C,U51*%
X221600000Y-134000000D02*
X223900000Y-134000000D01*
X221600000Y-136000000D02*
X221600000Y-134000000D01*
X223350000Y-136000000D02*
X221600000Y-136000000D01*
X223350000Y-136000000D02*
X223900000Y-135450000D01*
X223900000Y-134000000D02*
X223900000Y-135450000D01*
%TO.C,C77*%
X222520000Y-150000000D02*
X223520000Y-150000000D01*
X222520000Y-150500000D02*
X222520000Y-150000000D01*
X223520000Y-150000000D02*
X223520000Y-150500000D01*
X223520000Y-150500000D02*
X222520000Y-150500000D01*
%TO.C,D9*%
X120020000Y-147700000D02*
X122710000Y-147700000D01*
X120020000Y-152300000D02*
X120020000Y-147700000D01*
X121249680Y-150501180D02*
X122799080Y-150501180D01*
X121998980Y-148352340D02*
X121998980Y-149350560D01*
X121998980Y-149350560D02*
X121249680Y-150501180D01*
X121998980Y-149350560D02*
X122799080Y-150501180D01*
X122000000Y-150501780D02*
X122000000Y-151500000D01*
X122710000Y-147700000D02*
X123980000Y-148970000D01*
X122799080Y-149350560D02*
X121198880Y-149350560D01*
X123980000Y-148970000D02*
X123980000Y-152300000D01*
X123980000Y-152300000D02*
X120020000Y-152300000D01*
%TO.C,R9*%
X238250000Y-127750000D02*
X239250000Y-127750000D01*
X238250000Y-128250000D02*
X238250000Y-127750000D01*
X239250000Y-127750000D02*
X239250000Y-128250000D01*
X239250000Y-128250000D02*
X238250000Y-128250000D01*
%TO.C,C6*%
X229500000Y-121750000D02*
X230500000Y-121750000D01*
X229500000Y-122250000D02*
X229500000Y-121750000D01*
X230500000Y-121750000D02*
X230500000Y-122250000D01*
X230500000Y-122250000D02*
X229500000Y-122250000D01*
%TO.C,C11*%
X234520000Y-107740000D02*
X235980000Y-107740000D01*
X234520000Y-109760000D02*
X234520000Y-107740000D01*
X235980000Y-107740000D02*
X235980000Y-109760000D01*
X235980000Y-109760000D02*
X234520000Y-109760000D01*
%TO.C,C61*%
X224750000Y-170250000D02*
X225750000Y-170250000D01*
X224750000Y-170750000D02*
X224750000Y-170250000D01*
X225750000Y-170250000D02*
X225750000Y-170750000D01*
X225750000Y-170750000D02*
X224750000Y-170750000D01*
%TO.C,R172*%
X238750000Y-129250000D02*
X239250000Y-129250000D01*
X238750000Y-130250000D02*
X238750000Y-129250000D01*
X239250000Y-129250000D02*
X239250000Y-130250000D01*
X239250000Y-130250000D02*
X238750000Y-130250000D01*
%TO.C,H15*%
X94650000Y-113025000D02*
X99790000Y-113025000D01*
X94650000Y-114975000D02*
X94650000Y-113025000D01*
X99790000Y-111550000D02*
X110350000Y-111550000D01*
X99790000Y-114975000D02*
X94650000Y-114975000D01*
X99790000Y-116450000D02*
X99790000Y-111550000D01*
X101260000Y-115250000D02*
X101260000Y-112750000D01*
X103800000Y-115250000D02*
X103800000Y-112750000D01*
X106340000Y-115250000D02*
X106340000Y-112750000D01*
X108880000Y-115250000D02*
X108880000Y-112750000D01*
X110350000Y-111550000D02*
X110350000Y-116450000D01*
X110350000Y-116450000D02*
X99790000Y-116450000D01*
%TO.C,R36*%
X222500000Y-123000000D02*
X223500000Y-123000000D01*
X222500000Y-123500000D02*
X222500000Y-123000000D01*
X223500000Y-123000000D02*
X223500000Y-123500000D01*
X223500000Y-123500000D02*
X222500000Y-123500000D01*
%TO.C,C30*%
X230750000Y-174750000D02*
X231250000Y-174750000D01*
X230750000Y-175750000D02*
X230750000Y-174750000D01*
X231250000Y-174750000D02*
X231250000Y-175750000D01*
X231250000Y-175750000D02*
X230750000Y-175750000D01*
%TO.C,R117*%
X234000000Y-174750000D02*
X234500000Y-174750000D01*
X234000000Y-175750000D02*
X234000000Y-174750000D01*
X234500000Y-174750000D02*
X234500000Y-175750000D01*
X234500000Y-175750000D02*
X234000000Y-175750000D01*
%TO.C,C29*%
X235000000Y-165250000D02*
X235500000Y-165250000D01*
X235000000Y-166250000D02*
X235000000Y-165250000D01*
X235500000Y-165250000D02*
X235500000Y-166250000D01*
X235500000Y-166250000D02*
X235000000Y-166250000D01*
%TO.C,C48*%
X227000000Y-183500000D02*
X227500000Y-183500000D01*
X227000000Y-184500000D02*
X227000000Y-183500000D01*
X227500000Y-183500000D02*
X227500000Y-184500000D01*
X227500000Y-184500000D02*
X227000000Y-184500000D01*
%TO.C,R181*%
X113750000Y-188000000D02*
X114750000Y-188000000D01*
X113750000Y-188500000D02*
X113750000Y-188000000D01*
X114750000Y-188000000D02*
X114750000Y-188500000D01*
X114750000Y-188500000D02*
X113750000Y-188500000D01*
%TO.C,D20*%
X105840000Y-185490000D02*
X106840000Y-185490000D01*
X105840000Y-186490000D02*
X106840000Y-186490000D01*
X106340000Y-185490000D02*
X106340000Y-184740000D01*
X106340000Y-186490000D02*
X105840000Y-185490000D01*
X106340000Y-187240000D02*
X106340000Y-186490000D01*
X106840000Y-185490000D02*
X106340000Y-186490000D01*
%TO.C,C57*%
X234250000Y-167250000D02*
X235250000Y-167250000D01*
X234250000Y-167750000D02*
X234250000Y-167250000D01*
X235250000Y-167250000D02*
X235250000Y-167750000D01*
X235250000Y-167750000D02*
X234250000Y-167750000D01*
%TO.C,C16*%
X227000000Y-111250000D02*
X227500000Y-111250000D01*
X227000000Y-112250000D02*
X227000000Y-111250000D01*
X227500000Y-111250000D02*
X227500000Y-112250000D01*
X227500000Y-112250000D02*
X227000000Y-112250000D01*
%TO.C,C37*%
X234250000Y-173500000D02*
X235250000Y-173500000D01*
X234250000Y-174000000D02*
X234250000Y-173500000D01*
X235250000Y-173500000D02*
X235250000Y-174000000D01*
X235250000Y-174000000D02*
X234250000Y-174000000D01*
%TO.C,R99*%
X242250000Y-169250000D02*
X243250000Y-169250000D01*
X242250000Y-169750000D02*
X242250000Y-169250000D01*
X243250000Y-169250000D02*
X243250000Y-169750000D01*
X243250000Y-169750000D02*
X242250000Y-169750000D01*
%TO.C,R80*%
X244500000Y-178250000D02*
X245500000Y-178250000D01*
X244500000Y-178750000D02*
X244500000Y-178250000D01*
X245500000Y-178250000D02*
X245500000Y-178750000D01*
X245500000Y-178750000D02*
X244500000Y-178750000D01*
%TO.C,R88*%
X242250000Y-181250000D02*
X243250000Y-181250000D01*
X242250000Y-181750000D02*
X242250000Y-181250000D01*
X243250000Y-181250000D02*
X243250000Y-181750000D01*
X243250000Y-181750000D02*
X242250000Y-181750000D01*
%TO.C,R77*%
X242250000Y-172250000D02*
X243250000Y-172250000D01*
X242250000Y-172750000D02*
X242250000Y-172250000D01*
X243250000Y-172250000D02*
X243250000Y-172750000D01*
X243250000Y-172750000D02*
X242250000Y-172750000D01*
%TO.C,R184*%
X112500000Y-114500000D02*
X113500000Y-114500000D01*
X112500000Y-115000000D02*
X112500000Y-114500000D01*
X113500000Y-114500000D02*
X113500000Y-115000000D01*
X113500000Y-115000000D02*
X112500000Y-115000000D01*
%TO.C,U27*%
X179350000Y-105000000D02*
X188650000Y-105000000D01*
X179350000Y-112500000D02*
X179350000Y-105000000D01*
X188650000Y-105000000D02*
X189650000Y-106000000D01*
X189650000Y-106000000D02*
X189650000Y-112500000D01*
X189650000Y-112500000D02*
X179350000Y-112500000D01*
%TO.C,R70*%
X244500000Y-161750000D02*
X245500000Y-161750000D01*
X244500000Y-162250000D02*
X244500000Y-161750000D01*
X245500000Y-161750000D02*
X245500000Y-162250000D01*
X245500000Y-162250000D02*
X244500000Y-162250000D01*
%TO.C,H14*%
X94650000Y-185025000D02*
X99790000Y-185025000D01*
X94650000Y-186975000D02*
X94650000Y-185025000D01*
X99790000Y-183550000D02*
X110350000Y-183550000D01*
X99790000Y-186975000D02*
X94650000Y-186975000D01*
X99790000Y-188450000D02*
X99790000Y-183550000D01*
X101260000Y-187250000D02*
X101260000Y-184750000D01*
X103800000Y-187250000D02*
X103800000Y-184750000D01*
X106340000Y-187250000D02*
X106340000Y-184750000D01*
X108880000Y-187250000D02*
X108880000Y-184750000D01*
X110350000Y-183550000D02*
X110350000Y-188450000D01*
X110350000Y-188450000D02*
X99790000Y-188450000D01*
%TO.C,C79*%
X244500000Y-193500000D02*
X245500000Y-193500000D01*
X244500000Y-194000000D02*
X244500000Y-193500000D01*
X245500000Y-193500000D02*
X245500000Y-194000000D01*
X245500000Y-194000000D02*
X244500000Y-194000000D01*
%TO.C,R49*%
X242250000Y-151250000D02*
X243250000Y-151250000D01*
X242250000Y-151750000D02*
X242250000Y-151250000D01*
X243250000Y-151250000D02*
X243250000Y-151750000D01*
X243250000Y-151750000D02*
X242250000Y-151750000D01*
%TO.C,C80*%
X244500000Y-192250000D02*
X245500000Y-192250000D01*
X244500000Y-192750000D02*
X244500000Y-192250000D01*
X245500000Y-192250000D02*
X245500000Y-192750000D01*
X245500000Y-192750000D02*
X244500000Y-192750000D01*
%TO.C,C83*%
X228250000Y-184750000D02*
X229250000Y-184750000D01*
X228250000Y-185250000D02*
X228250000Y-184750000D01*
X229250000Y-184750000D02*
X229250000Y-185250000D01*
X229250000Y-185250000D02*
X228250000Y-185250000D01*
%TO.C,R114*%
X218750000Y-171500000D02*
X219750000Y-171500000D01*
X218750000Y-172000000D02*
X218750000Y-171500000D01*
X219750000Y-171500000D02*
X219750000Y-172000000D01*
X219750000Y-172000000D02*
X218750000Y-172000000D01*
%TO.C,C116*%
X124650000Y-148250000D02*
X127350000Y-148250000D01*
X124650000Y-151750000D02*
X124650000Y-148250000D01*
X127350000Y-148250000D02*
X127350000Y-151750000D01*
X127350000Y-151750000D02*
X124650000Y-151750000D01*
%TO.C,U4*%
X227250000Y-118750000D02*
X230250000Y-118750000D01*
X227250000Y-120750000D02*
X227250000Y-118750000D01*
X229750000Y-120750000D02*
X227250000Y-120750000D01*
X230250000Y-118750000D02*
X230250000Y-120250000D01*
X230250000Y-120250000D02*
X229750000Y-120750000D01*
%TO.C,R106*%
X218750000Y-174000000D02*
X219750000Y-174000000D01*
X218750000Y-174500000D02*
X218750000Y-174000000D01*
X219750000Y-174000000D02*
X219750000Y-174500000D01*
X219750000Y-174500000D02*
X218750000Y-174500000D01*
%TO.C,C99*%
X235000000Y-133750000D02*
X235500000Y-133750000D01*
X235000000Y-134750000D02*
X235000000Y-133750000D01*
X235500000Y-133750000D02*
X235500000Y-134750000D01*
X235500000Y-134750000D02*
X235000000Y-134750000D01*
%TO.C,C60*%
X233750000Y-165250000D02*
X234250000Y-165250000D01*
X233750000Y-166250000D02*
X233750000Y-165250000D01*
X234250000Y-165250000D02*
X234250000Y-166250000D01*
X234250000Y-166250000D02*
X233750000Y-166250000D01*
%TO.C,C89*%
X225500000Y-189000000D02*
X226000000Y-189000000D01*
X225500000Y-190000000D02*
X225500000Y-189000000D01*
X226000000Y-189000000D02*
X226000000Y-190000000D01*
X226000000Y-190000000D02*
X225500000Y-190000000D01*
%TO.C,R72*%
X242250000Y-188750000D02*
X243250000Y-188750000D01*
X242250000Y-189250000D02*
X242250000Y-188750000D01*
X243250000Y-188750000D02*
X243250000Y-189250000D01*
X243250000Y-189250000D02*
X242250000Y-189250000D01*
%TO.C,C54*%
X226250000Y-165250000D02*
X226750000Y-165250000D01*
X226250000Y-166250000D02*
X226250000Y-165250000D01*
X226750000Y-165250000D02*
X226750000Y-166250000D01*
X226750000Y-166250000D02*
X226250000Y-166250000D01*
%TO.C,R21*%
X114500000Y-110750000D02*
X115500000Y-110750000D01*
X114500000Y-111250000D02*
X114500000Y-110750000D01*
X115500000Y-110750000D02*
X115500000Y-111250000D01*
X115500000Y-111250000D02*
X114500000Y-111250000D01*
%TO.C,C56*%
X224000000Y-166500000D02*
X225000000Y-166500000D01*
X224000000Y-167000000D02*
X224000000Y-166500000D01*
X225000000Y-166500000D02*
X225000000Y-167000000D01*
X225000000Y-167000000D02*
X224000000Y-167000000D01*
%TO.C,R24*%
X209150000Y-102900000D02*
X212350000Y-102900000D01*
X209150000Y-104600000D02*
X209150000Y-102900000D01*
X212350000Y-102900000D02*
X212350000Y-104600000D01*
X212350000Y-104600000D02*
X209150000Y-104600000D01*
%TO.C,R26*%
X233750000Y-113250000D02*
X234750000Y-113250000D01*
X233750000Y-113750000D02*
X233750000Y-113250000D01*
X234750000Y-113250000D02*
X234750000Y-113750000D01*
X234750000Y-113750000D02*
X233750000Y-113750000D01*
%TO.C,R62*%
X244500000Y-164750000D02*
X245500000Y-164750000D01*
X244500000Y-165250000D02*
X244500000Y-164750000D01*
X245500000Y-164750000D02*
X245500000Y-165250000D01*
X245500000Y-165250000D02*
X244500000Y-165250000D01*
%TO.C,FID4*%
X244250000Y-118250000D02*
G75*
G02*
X242250000Y-118250000I-1000000J0D01*
G01*
X242250000Y-118250000D02*
G75*
G02*
X244250000Y-118250000I1000000J0D01*
G01*
%TO.C,R343*%
X226750000Y-126250000D02*
X227750000Y-126250000D01*
X226750000Y-126750000D02*
X226750000Y-126250000D01*
X227750000Y-126250000D02*
X227750000Y-126750000D01*
X227750000Y-126750000D02*
X226750000Y-126750000D01*
%TO.C,R31*%
X227000000Y-114500000D02*
X228000000Y-114500000D01*
X227000000Y-115000000D02*
X227000000Y-114500000D01*
X228000000Y-114500000D02*
X228000000Y-115000000D01*
X228000000Y-115000000D02*
X227000000Y-115000000D01*
%TO.C,R84*%
X242250000Y-178250000D02*
X243250000Y-178250000D01*
X242250000Y-178750000D02*
X242250000Y-178250000D01*
X243250000Y-178250000D02*
X243250000Y-178750000D01*
X243250000Y-178750000D02*
X242250000Y-178750000D01*
%TO.C,R341*%
X222500000Y-190250000D02*
X223500000Y-190250000D01*
X222500000Y-190750000D02*
X222500000Y-190250000D01*
X223500000Y-190250000D02*
X223500000Y-190750000D01*
X223500000Y-190750000D02*
X222500000Y-190750000D01*
%TO.C,R134*%
X220250000Y-158500000D02*
X221250000Y-158500000D01*
X220250000Y-159000000D02*
X220250000Y-158500000D01*
X221250000Y-158500000D02*
X221250000Y-159000000D01*
X221250000Y-159000000D02*
X220250000Y-159000000D01*
%TO.C,U1*%
X227600000Y-117750000D02*
X227600000Y-116300000D01*
X228150000Y-115750000D02*
X227600000Y-116300000D01*
X228150000Y-115750000D02*
X229900000Y-115750000D01*
X229900000Y-115750000D02*
X229900000Y-117750000D01*
X229900000Y-117750000D02*
X227600000Y-117750000D01*
%TO.C,R287*%
X112500000Y-183500000D02*
X113500000Y-183500000D01*
X112500000Y-184000000D02*
X112500000Y-183500000D01*
X113500000Y-183500000D02*
X113500000Y-184000000D01*
X113500000Y-184000000D02*
X112500000Y-184000000D01*
D16*
%TO.C,J2*%
X247000000Y-197000000D02*
X247000000Y-147000000D01*
X249000000Y-147000000D02*
X269300000Y-147000000D01*
X260000000Y-197000000D02*
X249000000Y-197000000D01*
X260000000Y-197000000D02*
X260000000Y-147000000D01*
X269300000Y-147000000D02*
X269300000Y-170150000D01*
X269300000Y-170150000D02*
X272500000Y-170150000D01*
X269300000Y-173850000D02*
X269300000Y-197000000D01*
X269300000Y-197000000D02*
X260000000Y-197000000D01*
X272500000Y-170150000D02*
X272500000Y-173850000D01*
X272500000Y-173850000D02*
X269300000Y-173850000D01*
D14*
X258700000Y-197900000D02*
G75*
G02*
X258500000Y-197900000I-100000J0D01*
G01*
X258500000Y-197900000D02*
G75*
G02*
X258700000Y-197900000I100000J0D01*
G01*
D10*
%TO.C,J1*%
X245295000Y-130130000D02*
X245295000Y-144420000D01*
X245295000Y-130130000D02*
X247705000Y-130130000D01*
X245295000Y-144420000D02*
X246180000Y-145370000D01*
X247705000Y-145370000D02*
X246180000Y-145370000D01*
X247705000Y-145370000D02*
X247705000Y-130130000D01*
%TO.C,R164*%
X237250000Y-143250000D02*
X237750000Y-143250000D01*
X237250000Y-144250000D02*
X237250000Y-143250000D01*
X237750000Y-143250000D02*
X237750000Y-144250000D01*
X237750000Y-144250000D02*
X237250000Y-144250000D01*
%TO.C,R7*%
X227750000Y-134750000D02*
X228750000Y-134750000D01*
X227750000Y-135250000D02*
X227750000Y-134750000D01*
X228750000Y-134750000D02*
X228750000Y-135250000D01*
X228750000Y-135250000D02*
X227750000Y-135250000D01*
%TO.C,C24*%
X221950000Y-111250000D02*
X222450000Y-111250000D01*
X221950000Y-112250000D02*
X221950000Y-111250000D01*
X222450000Y-111250000D02*
X222450000Y-112250000D01*
X222450000Y-112250000D02*
X221950000Y-112250000D01*
%TO.C,C18*%
X224000000Y-167750000D02*
X225000000Y-167750000D01*
X224000000Y-168250000D02*
X224000000Y-167750000D01*
X225000000Y-167750000D02*
X225000000Y-168250000D01*
X225000000Y-168250000D02*
X224000000Y-168250000D01*
%TO.C,R16*%
X225750000Y-131750000D02*
X226750000Y-131750000D01*
X225750000Y-132250000D02*
X225750000Y-131750000D01*
X226750000Y-131750000D02*
X226750000Y-132250000D01*
X226750000Y-132250000D02*
X225750000Y-132250000D01*
%TO.C,U7*%
X227250000Y-154250000D02*
X230250000Y-154250000D01*
X227250000Y-156250000D02*
X227250000Y-154250000D01*
X229750000Y-156250000D02*
X227250000Y-156250000D01*
X230250000Y-154250000D02*
X230250000Y-155750000D01*
X230250000Y-155750000D02*
X229750000Y-156250000D01*
%TO.C,R79*%
X244500000Y-173750000D02*
X245500000Y-173750000D01*
X244500000Y-174250000D02*
X244500000Y-173750000D01*
X245500000Y-173750000D02*
X245500000Y-174250000D01*
X245500000Y-174250000D02*
X244500000Y-174250000D01*
%TO.C,R124*%
X228000000Y-192500000D02*
X228500000Y-192500000D01*
X228000000Y-193500000D02*
X228000000Y-192500000D01*
X228500000Y-192500000D02*
X228500000Y-193500000D01*
X228500000Y-193500000D02*
X228000000Y-193500000D01*
%TO.C,C31*%
X227750000Y-174750000D02*
X228250000Y-174750000D01*
X227750000Y-175750000D02*
X227750000Y-174750000D01*
X228250000Y-174750000D02*
X228250000Y-175750000D01*
X228250000Y-175750000D02*
X227750000Y-175750000D01*
%TO.C,C98*%
X230000000Y-129000000D02*
X231000000Y-129000000D01*
X230000000Y-129500000D02*
X230000000Y-129000000D01*
X231000000Y-129000000D02*
X231000000Y-129500000D01*
X231000000Y-129500000D02*
X230000000Y-129500000D01*
%TO.C,C2*%
X120350000Y-103270000D02*
X122150000Y-103270000D01*
X120350000Y-106730000D02*
X120350000Y-103270000D01*
X122150000Y-103270000D02*
X122150000Y-106730000D01*
X122150000Y-106730000D02*
X120350000Y-106730000D01*
%TO.C,T2*%
X177315000Y-157085000D02*
X177315000Y-177915000D01*
X177315000Y-177915000D02*
X200685000Y-177915000D01*
X200685000Y-157085000D02*
X177315000Y-157085000D01*
X200685000Y-177915000D02*
X200685000Y-157085000D01*
%TO.C,X2*%
X217950000Y-186966670D02*
X218816670Y-186100000D01*
X217950000Y-189400000D02*
X217950000Y-186966670D01*
X218816670Y-186100000D02*
X220550000Y-186100000D01*
X220550000Y-186100000D02*
X220550000Y-189400000D01*
X220550000Y-189400000D02*
X217950000Y-189400000D01*
%TO.C,R11*%
X227750000Y-131750000D02*
X228750000Y-131750000D01*
X227750000Y-132250000D02*
X227750000Y-131750000D01*
X228750000Y-131750000D02*
X228750000Y-132250000D01*
X228750000Y-132250000D02*
X227750000Y-132250000D01*
%TO.C,C95*%
X219250000Y-184750000D02*
X220250000Y-184750000D01*
X219250000Y-185250000D02*
X219250000Y-184750000D01*
X220250000Y-184750000D02*
X220250000Y-185250000D01*
X220250000Y-185250000D02*
X219250000Y-185250000D01*
%TO.C,R23*%
X174900000Y-102900000D02*
X178100000Y-102900000D01*
X174900000Y-104600000D02*
X174900000Y-102900000D01*
X178100000Y-102900000D02*
X178100000Y-104600000D01*
X178100000Y-104600000D02*
X174900000Y-104600000D01*
%TO.C,R154*%
X244500000Y-194750000D02*
X245500000Y-194750000D01*
X244500000Y-195250000D02*
X244500000Y-194750000D01*
X245500000Y-194750000D02*
X245500000Y-195250000D01*
X245500000Y-195250000D02*
X244500000Y-195250000D01*
%TO.C,C122*%
X163900000Y-148250000D02*
X166600000Y-148250000D01*
X163900000Y-151750000D02*
X163900000Y-148250000D01*
X166600000Y-148250000D02*
X166600000Y-151750000D01*
X166600000Y-151750000D02*
X163900000Y-151750000D01*
%TO.C,R151*%
X234500000Y-193500000D02*
X235500000Y-193500000D01*
X234500000Y-194000000D02*
X234500000Y-193500000D01*
X235500000Y-193500000D02*
X235500000Y-194000000D01*
X235500000Y-194000000D02*
X234500000Y-194000000D01*
%TO.C,R73*%
X242250000Y-170750000D02*
X243250000Y-170750000D01*
X242250000Y-171250000D02*
X242250000Y-170750000D01*
X243250000Y-170750000D02*
X243250000Y-171250000D01*
X243250000Y-171250000D02*
X242250000Y-171250000D01*
%TO.C,C87*%
X228250000Y-186500000D02*
X229250000Y-186500000D01*
X228250000Y-187000000D02*
X228250000Y-186500000D01*
X229250000Y-186500000D02*
X229250000Y-187000000D01*
X229250000Y-187000000D02*
X228250000Y-187000000D01*
%TO.C,C78*%
X231750000Y-150000000D02*
X232750000Y-150000000D01*
X231750000Y-150500000D02*
X231750000Y-150000000D01*
X232750000Y-150000000D02*
X232750000Y-150500000D01*
X232750000Y-150500000D02*
X231750000Y-150500000D01*
%TO.C,R129*%
X236250000Y-148750000D02*
X237250000Y-148750000D01*
X236250000Y-149250000D02*
X236250000Y-148750000D01*
X237250000Y-148750000D02*
X237250000Y-149250000D01*
X237250000Y-149250000D02*
X236250000Y-149250000D01*
%TO.C,U15*%
X225730000Y-141800000D02*
X228303330Y-141800000D01*
X225730000Y-143200000D02*
X225730000Y-141800000D01*
X228303330Y-141800000D02*
X228770000Y-142266670D01*
X228770000Y-142266670D02*
X228770000Y-143200000D01*
X228770000Y-143200000D02*
X225730000Y-143200000D01*
%TO.C,C14*%
X222270000Y-107740000D02*
X223730000Y-107740000D01*
X222270000Y-109760000D02*
X222270000Y-107740000D01*
X223730000Y-107740000D02*
X223730000Y-109760000D01*
X223730000Y-109760000D02*
X222270000Y-109760000D01*
%TO.C,R128*%
X236250000Y-147500000D02*
X237250000Y-147500000D01*
X236250000Y-148000000D02*
X236250000Y-147500000D01*
X237250000Y-147500000D02*
X237250000Y-148000000D01*
X237250000Y-148000000D02*
X236250000Y-148000000D01*
%TO.C,R96*%
X244500000Y-176750000D02*
X245500000Y-176750000D01*
X244500000Y-177250000D02*
X244500000Y-176750000D01*
X245500000Y-176750000D02*
X245500000Y-177250000D01*
X245500000Y-177250000D02*
X244500000Y-177250000D01*
%TO.C,C146*%
X219500000Y-129250000D02*
X220000000Y-129250000D01*
X219500000Y-130250000D02*
X219500000Y-129250000D01*
X220000000Y-129250000D02*
X220000000Y-130250000D01*
X220000000Y-130250000D02*
X219500000Y-130250000D01*
%TO.C,U9*%
X221000000Y-151750000D02*
X225000000Y-151750000D01*
X221000000Y-152400000D02*
X221650000Y-151750000D01*
X221000000Y-155750000D02*
X221000000Y-151750000D01*
X225000000Y-151750000D02*
X225000000Y-155750000D01*
X225000000Y-155750000D02*
X221000000Y-155750000D01*
%TO.C,R33*%
X231500000Y-113250000D02*
X232500000Y-113250000D01*
X231500000Y-113750000D02*
X231500000Y-113250000D01*
X232500000Y-113250000D02*
X232500000Y-113750000D01*
X232500000Y-113750000D02*
X231500000Y-113750000D01*
%TO.C,R108*%
X224750000Y-158500000D02*
X225750000Y-158500000D01*
X224750000Y-159000000D02*
X224750000Y-158500000D01*
X225750000Y-158500000D02*
X225750000Y-159000000D01*
X225750000Y-159000000D02*
X224750000Y-159000000D01*
%TO.C,R344*%
X222000000Y-142250000D02*
X223000000Y-142250000D01*
X222000000Y-142750000D02*
X222000000Y-142250000D01*
X223000000Y-142250000D02*
X223000000Y-142750000D01*
X223000000Y-142750000D02*
X222000000Y-142750000D01*
%TO.C,C49*%
X242250000Y-160250000D02*
X243250000Y-160250000D01*
X242250000Y-160750000D02*
X242250000Y-160250000D01*
X243250000Y-160250000D02*
X243250000Y-160750000D01*
X243250000Y-160750000D02*
X242250000Y-160750000D01*
%TO.C,C74*%
X222000000Y-192500000D02*
X222500000Y-192500000D01*
X222000000Y-193500000D02*
X222000000Y-192500000D01*
X222500000Y-192500000D02*
X222500000Y-193500000D01*
X222500000Y-193500000D02*
X222000000Y-193500000D01*
%TO.C,R162*%
X237250000Y-140750000D02*
X237750000Y-140750000D01*
X237250000Y-141750000D02*
X237250000Y-140750000D01*
X237750000Y-140750000D02*
X237750000Y-141750000D01*
X237750000Y-141750000D02*
X237250000Y-141750000D01*
%TO.C,C72*%
X228000000Y-195000000D02*
X228500000Y-195000000D01*
X228000000Y-196000000D02*
X228000000Y-195000000D01*
X228500000Y-195000000D02*
X228500000Y-196000000D01*
X228500000Y-196000000D02*
X228000000Y-196000000D01*
D15*
%TO.C,U39*%
X108450000Y-118800000D02*
X108450000Y-123200000D01*
X108450000Y-123200000D02*
X112050000Y-123200000D01*
X111050000Y-118800000D02*
X108450000Y-118800000D01*
X112050000Y-119800000D02*
X111050000Y-118800000D01*
X112050000Y-123200000D02*
X112050000Y-119800000D01*
D10*
%TO.C,R28*%
X222500000Y-114500000D02*
X223500000Y-114500000D01*
X222500000Y-115000000D02*
X222500000Y-114500000D01*
X223500000Y-114500000D02*
X223500000Y-115000000D01*
X223500000Y-115000000D02*
X222500000Y-115000000D01*
%TO.C,C118*%
X160400000Y-148250000D02*
X163100000Y-148250000D01*
X160400000Y-151750000D02*
X160400000Y-148250000D01*
X163100000Y-148250000D02*
X163100000Y-151750000D01*
X163100000Y-151750000D02*
X160400000Y-151750000D01*
%TO.C,R75*%
X244500000Y-172250000D02*
X245500000Y-172250000D01*
X244500000Y-172750000D02*
X244500000Y-172250000D01*
X245500000Y-172250000D02*
X245500000Y-172750000D01*
X245500000Y-172750000D02*
X244500000Y-172750000D01*
%TO.C,R87*%
X244500000Y-181250000D02*
X245500000Y-181250000D01*
X244500000Y-181750000D02*
X244500000Y-181250000D01*
X245500000Y-181250000D02*
X245500000Y-181750000D01*
X245500000Y-181750000D02*
X244500000Y-181750000D01*
%TO.C,U25*%
X221600000Y-125750000D02*
X223900000Y-125750000D01*
X221600000Y-127750000D02*
X221600000Y-125750000D01*
X223350000Y-127750000D02*
X221600000Y-127750000D01*
X223350000Y-127750000D02*
X223900000Y-127200000D01*
X223900000Y-125750000D02*
X223900000Y-127200000D01*
%TO.C,R127*%
X234000000Y-148500000D02*
X235000000Y-148500000D01*
X234000000Y-149000000D02*
X234000000Y-148500000D01*
X235000000Y-148500000D02*
X235000000Y-149000000D01*
X235000000Y-149000000D02*
X234000000Y-149000000D01*
%TO.C,C76*%
X227250000Y-157000000D02*
X228250000Y-157000000D01*
X227250000Y-157500000D02*
X227250000Y-157000000D01*
X228250000Y-157000000D02*
X228250000Y-157500000D01*
X228250000Y-157500000D02*
X227250000Y-157500000D01*
%TO.C,R347*%
X222000000Y-143250000D02*
X223000000Y-143250000D01*
X222000000Y-143750000D02*
X222000000Y-143250000D01*
X223000000Y-143250000D02*
X223000000Y-143750000D01*
X223000000Y-143750000D02*
X222000000Y-143750000D01*
%TO.C,C120*%
X174400000Y-148250000D02*
X177100000Y-148250000D01*
X174400000Y-151750000D02*
X174400000Y-148250000D01*
X177100000Y-148250000D02*
X177100000Y-151750000D01*
X177100000Y-151750000D02*
X174400000Y-151750000D01*
%TO.C,R227*%
X177000000Y-188500000D02*
X178000000Y-188500000D01*
X177000000Y-189000000D02*
X177000000Y-188500000D01*
X178000000Y-188500000D02*
X178000000Y-189000000D01*
X178000000Y-189000000D02*
X177000000Y-189000000D01*
%TO.C,R56*%
X242250000Y-164750000D02*
X243250000Y-164750000D01*
X242250000Y-165250000D02*
X242250000Y-164750000D01*
X243250000Y-164750000D02*
X243250000Y-165250000D01*
X243250000Y-165250000D02*
X242250000Y-165250000D01*
%TO.C,C101*%
X230000000Y-141000000D02*
X231000000Y-141000000D01*
X230000000Y-141500000D02*
X230000000Y-141000000D01*
X231000000Y-141000000D02*
X231000000Y-141500000D01*
X231000000Y-141500000D02*
X230000000Y-141500000D01*
%TO.C,U66*%
X191500000Y-180770000D02*
X192770000Y-179500000D01*
X191500000Y-184500000D02*
X191500000Y-180770000D01*
X192770000Y-179500000D02*
X195500000Y-179500000D01*
X195500000Y-179500000D02*
X195500000Y-184500000D01*
X195500000Y-184500000D02*
X191500000Y-184500000D01*
%TO.C,R85*%
X244500000Y-179750000D02*
X245500000Y-179750000D01*
X244500000Y-180250000D02*
X244500000Y-179750000D01*
X245500000Y-179750000D02*
X245500000Y-180250000D01*
X245500000Y-180250000D02*
X244500000Y-180250000D01*
%TO.C,D26*%
X108380000Y-114510000D02*
X108880000Y-113510000D01*
X108880000Y-112760000D02*
X108880000Y-113510000D01*
X108880000Y-113510000D02*
X109380000Y-114510000D01*
X108880000Y-114510000D02*
X108880000Y-115260000D01*
X109380000Y-113510000D02*
X108380000Y-113510000D01*
X109380000Y-114510000D02*
X108380000Y-114510000D01*
%TO.C,C35*%
X233000000Y-174750000D02*
X233500000Y-174750000D01*
X233000000Y-175750000D02*
X233000000Y-174750000D01*
X233500000Y-174750000D02*
X233500000Y-175750000D01*
X233500000Y-175750000D02*
X233000000Y-175750000D01*
%TO.C,R165*%
X240250000Y-140750000D02*
X240750000Y-140750000D01*
X240250000Y-141750000D02*
X240250000Y-140750000D01*
X240750000Y-140750000D02*
X240750000Y-141750000D01*
X240750000Y-141750000D02*
X240250000Y-141750000D01*
%TO.C,D19*%
X100760000Y-185490000D02*
X101760000Y-185490000D01*
X100760000Y-186490000D02*
X101760000Y-186490000D01*
X101260000Y-185490000D02*
X101260000Y-184740000D01*
X101260000Y-186490000D02*
X100760000Y-185490000D01*
X101260000Y-187240000D02*
X101260000Y-186490000D01*
X101760000Y-185490000D02*
X101260000Y-186490000D01*
%TO.C,C88*%
X224500000Y-183500000D02*
X225000000Y-183500000D01*
X224500000Y-184500000D02*
X224500000Y-183500000D01*
X225000000Y-183500000D02*
X225000000Y-184500000D01*
X225000000Y-184500000D02*
X224500000Y-184500000D01*
%TO.C,R71*%
X244500000Y-170750000D02*
X245500000Y-170750000D01*
X244500000Y-171250000D02*
X244500000Y-170750000D01*
X245500000Y-170750000D02*
X245500000Y-171250000D01*
X245500000Y-171250000D02*
X244500000Y-171250000D01*
%TO.C,C40*%
X118500000Y-183500000D02*
X119500000Y-183500000D01*
X118500000Y-184000000D02*
X118500000Y-183500000D01*
X119500000Y-183500000D02*
X119500000Y-184000000D01*
X119500000Y-184000000D02*
X118500000Y-184000000D01*
%TO.C,R163*%
X238750000Y-140750000D02*
X239250000Y-140750000D01*
X238750000Y-141750000D02*
X238750000Y-140750000D01*
X239250000Y-140750000D02*
X239250000Y-141750000D01*
X239250000Y-141750000D02*
X238750000Y-141750000D01*
%TO.C,R119*%
X232750000Y-190480000D02*
X233250000Y-190480000D01*
X232750000Y-191480000D02*
X232750000Y-190480000D01*
X233250000Y-190480000D02*
X233250000Y-191480000D01*
X233250000Y-191480000D02*
X232750000Y-191480000D01*
%TO.C,R37*%
X222500000Y-121750000D02*
X223500000Y-121750000D01*
X222500000Y-122250000D02*
X222500000Y-121750000D01*
X223500000Y-121750000D02*
X223500000Y-122250000D01*
X223500000Y-122250000D02*
X222500000Y-122250000D01*
%TD*%
M02*
