%TF.GenerationSoftware,KiCad,Pcbnew,8.0.4*%
%TF.CreationDate,2024-09-04T12:40:56+02:00*%
%TF.ProjectId,cq2,6371322e-6b69-4636-9164-5f7063625858,0.00*%
%TF.SameCoordinates,Original*%
%TF.FileFunction,AssemblyDrawing,Bot*%
%FSLAX46Y46*%
G04 Gerber Fmt 4.6, Leading zero omitted, Abs format (unit mm)*
G04 Created by KiCad (PCBNEW 8.0.4) date 2024-09-04 12:40:56*
%MOMM*%
%LPD*%
G01*
G04 APERTURE LIST*
%ADD10C,0.100000*%
%ADD11C,0.150000*%
%ADD12C,0.300000*%
%ADD13C,0.400000*%
%ADD14C,0.200000*%
%ADD15C,0.120000*%
G04 APERTURE END LIST*
D10*
D11*
X299989000Y-253002200D02*
X407989000Y-253002200D01*
X407989000Y-285002200D01*
X299989000Y-285002200D01*
X299989000Y-253002200D01*
D10*
D11*
X10000000Y-10000000D02*
X409989000Y-10000000D01*
X409989000Y-287002200D01*
X10000000Y-287002200D01*
X10000000Y-10000000D01*
D10*
D11*
X12000000Y-12000000D02*
X407989000Y-12000000D01*
X407989000Y-285002200D01*
X12000000Y-285002200D01*
X12000000Y-12000000D01*
D10*
D11*
X60000000Y-12000000D02*
X60000000Y-10000000D01*
D10*
D11*
X110000000Y-12000000D02*
X110000000Y-10000000D01*
D10*
D11*
X160000000Y-12000000D02*
X160000000Y-10000000D01*
D10*
D11*
X210000000Y-12000000D02*
X210000000Y-10000000D01*
D10*
D11*
X260000000Y-12000000D02*
X260000000Y-10000000D01*
D10*
D11*
X310000000Y-12000000D02*
X310000000Y-10000000D01*
D10*
D11*
X360000000Y-12000000D02*
X360000000Y-10000000D01*
D10*
D11*
X36089160Y-11593604D02*
X35346303Y-11593604D01*
X35717731Y-11593604D02*
X35717731Y-10293604D01*
X35717731Y-10293604D02*
X35593922Y-10479319D01*
X35593922Y-10479319D02*
X35470112Y-10603128D01*
X35470112Y-10603128D02*
X35346303Y-10665033D01*
D10*
D11*
X85346303Y-10417414D02*
X85408207Y-10355509D01*
X85408207Y-10355509D02*
X85532017Y-10293604D01*
X85532017Y-10293604D02*
X85841541Y-10293604D01*
X85841541Y-10293604D02*
X85965350Y-10355509D01*
X85965350Y-10355509D02*
X86027255Y-10417414D01*
X86027255Y-10417414D02*
X86089160Y-10541223D01*
X86089160Y-10541223D02*
X86089160Y-10665033D01*
X86089160Y-10665033D02*
X86027255Y-10850747D01*
X86027255Y-10850747D02*
X85284398Y-11593604D01*
X85284398Y-11593604D02*
X86089160Y-11593604D01*
D10*
D11*
X135284398Y-10293604D02*
X136089160Y-10293604D01*
X136089160Y-10293604D02*
X135655826Y-10788842D01*
X135655826Y-10788842D02*
X135841541Y-10788842D01*
X135841541Y-10788842D02*
X135965350Y-10850747D01*
X135965350Y-10850747D02*
X136027255Y-10912652D01*
X136027255Y-10912652D02*
X136089160Y-11036461D01*
X136089160Y-11036461D02*
X136089160Y-11345985D01*
X136089160Y-11345985D02*
X136027255Y-11469795D01*
X136027255Y-11469795D02*
X135965350Y-11531700D01*
X135965350Y-11531700D02*
X135841541Y-11593604D01*
X135841541Y-11593604D02*
X135470112Y-11593604D01*
X135470112Y-11593604D02*
X135346303Y-11531700D01*
X135346303Y-11531700D02*
X135284398Y-11469795D01*
D10*
D11*
X185965350Y-10726938D02*
X185965350Y-11593604D01*
X185655826Y-10231700D02*
X185346303Y-11160271D01*
X185346303Y-11160271D02*
X186151064Y-11160271D01*
D10*
D11*
X236027255Y-10293604D02*
X235408207Y-10293604D01*
X235408207Y-10293604D02*
X235346303Y-10912652D01*
X235346303Y-10912652D02*
X235408207Y-10850747D01*
X235408207Y-10850747D02*
X235532017Y-10788842D01*
X235532017Y-10788842D02*
X235841541Y-10788842D01*
X235841541Y-10788842D02*
X235965350Y-10850747D01*
X235965350Y-10850747D02*
X236027255Y-10912652D01*
X236027255Y-10912652D02*
X236089160Y-11036461D01*
X236089160Y-11036461D02*
X236089160Y-11345985D01*
X236089160Y-11345985D02*
X236027255Y-11469795D01*
X236027255Y-11469795D02*
X235965350Y-11531700D01*
X235965350Y-11531700D02*
X235841541Y-11593604D01*
X235841541Y-11593604D02*
X235532017Y-11593604D01*
X235532017Y-11593604D02*
X235408207Y-11531700D01*
X235408207Y-11531700D02*
X235346303Y-11469795D01*
D10*
D11*
X285965350Y-10293604D02*
X285717731Y-10293604D01*
X285717731Y-10293604D02*
X285593922Y-10355509D01*
X285593922Y-10355509D02*
X285532017Y-10417414D01*
X285532017Y-10417414D02*
X285408207Y-10603128D01*
X285408207Y-10603128D02*
X285346303Y-10850747D01*
X285346303Y-10850747D02*
X285346303Y-11345985D01*
X285346303Y-11345985D02*
X285408207Y-11469795D01*
X285408207Y-11469795D02*
X285470112Y-11531700D01*
X285470112Y-11531700D02*
X285593922Y-11593604D01*
X285593922Y-11593604D02*
X285841541Y-11593604D01*
X285841541Y-11593604D02*
X285965350Y-11531700D01*
X285965350Y-11531700D02*
X286027255Y-11469795D01*
X286027255Y-11469795D02*
X286089160Y-11345985D01*
X286089160Y-11345985D02*
X286089160Y-11036461D01*
X286089160Y-11036461D02*
X286027255Y-10912652D01*
X286027255Y-10912652D02*
X285965350Y-10850747D01*
X285965350Y-10850747D02*
X285841541Y-10788842D01*
X285841541Y-10788842D02*
X285593922Y-10788842D01*
X285593922Y-10788842D02*
X285470112Y-10850747D01*
X285470112Y-10850747D02*
X285408207Y-10912652D01*
X285408207Y-10912652D02*
X285346303Y-11036461D01*
D10*
D11*
X335284398Y-10293604D02*
X336151064Y-10293604D01*
X336151064Y-10293604D02*
X335593922Y-11593604D01*
D10*
D11*
X385593922Y-10850747D02*
X385470112Y-10788842D01*
X385470112Y-10788842D02*
X385408207Y-10726938D01*
X385408207Y-10726938D02*
X385346303Y-10603128D01*
X385346303Y-10603128D02*
X385346303Y-10541223D01*
X385346303Y-10541223D02*
X385408207Y-10417414D01*
X385408207Y-10417414D02*
X385470112Y-10355509D01*
X385470112Y-10355509D02*
X385593922Y-10293604D01*
X385593922Y-10293604D02*
X385841541Y-10293604D01*
X385841541Y-10293604D02*
X385965350Y-10355509D01*
X385965350Y-10355509D02*
X386027255Y-10417414D01*
X386027255Y-10417414D02*
X386089160Y-10541223D01*
X386089160Y-10541223D02*
X386089160Y-10603128D01*
X386089160Y-10603128D02*
X386027255Y-10726938D01*
X386027255Y-10726938D02*
X385965350Y-10788842D01*
X385965350Y-10788842D02*
X385841541Y-10850747D01*
X385841541Y-10850747D02*
X385593922Y-10850747D01*
X385593922Y-10850747D02*
X385470112Y-10912652D01*
X385470112Y-10912652D02*
X385408207Y-10974557D01*
X385408207Y-10974557D02*
X385346303Y-11098366D01*
X385346303Y-11098366D02*
X385346303Y-11345985D01*
X385346303Y-11345985D02*
X385408207Y-11469795D01*
X385408207Y-11469795D02*
X385470112Y-11531700D01*
X385470112Y-11531700D02*
X385593922Y-11593604D01*
X385593922Y-11593604D02*
X385841541Y-11593604D01*
X385841541Y-11593604D02*
X385965350Y-11531700D01*
X385965350Y-11531700D02*
X386027255Y-11469795D01*
X386027255Y-11469795D02*
X386089160Y-11345985D01*
X386089160Y-11345985D02*
X386089160Y-11098366D01*
X386089160Y-11098366D02*
X386027255Y-10974557D01*
X386027255Y-10974557D02*
X385965350Y-10912652D01*
X385965350Y-10912652D02*
X385841541Y-10850747D01*
D10*
D11*
X60000000Y-285002200D02*
X60000000Y-287002200D01*
D10*
D11*
X110000000Y-285002200D02*
X110000000Y-287002200D01*
D10*
D11*
X160000000Y-285002200D02*
X160000000Y-287002200D01*
D10*
D11*
X210000000Y-285002200D02*
X210000000Y-287002200D01*
D10*
D11*
X260000000Y-285002200D02*
X260000000Y-287002200D01*
D10*
D11*
X310000000Y-285002200D02*
X310000000Y-287002200D01*
D10*
D11*
X360000000Y-285002200D02*
X360000000Y-287002200D01*
D10*
D11*
X36089160Y-286595804D02*
X35346303Y-286595804D01*
X35717731Y-286595804D02*
X35717731Y-285295804D01*
X35717731Y-285295804D02*
X35593922Y-285481519D01*
X35593922Y-285481519D02*
X35470112Y-285605328D01*
X35470112Y-285605328D02*
X35346303Y-285667233D01*
D10*
D11*
X85346303Y-285419614D02*
X85408207Y-285357709D01*
X85408207Y-285357709D02*
X85532017Y-285295804D01*
X85532017Y-285295804D02*
X85841541Y-285295804D01*
X85841541Y-285295804D02*
X85965350Y-285357709D01*
X85965350Y-285357709D02*
X86027255Y-285419614D01*
X86027255Y-285419614D02*
X86089160Y-285543423D01*
X86089160Y-285543423D02*
X86089160Y-285667233D01*
X86089160Y-285667233D02*
X86027255Y-285852947D01*
X86027255Y-285852947D02*
X85284398Y-286595804D01*
X85284398Y-286595804D02*
X86089160Y-286595804D01*
D10*
D11*
X135284398Y-285295804D02*
X136089160Y-285295804D01*
X136089160Y-285295804D02*
X135655826Y-285791042D01*
X135655826Y-285791042D02*
X135841541Y-285791042D01*
X135841541Y-285791042D02*
X135965350Y-285852947D01*
X135965350Y-285852947D02*
X136027255Y-285914852D01*
X136027255Y-285914852D02*
X136089160Y-286038661D01*
X136089160Y-286038661D02*
X136089160Y-286348185D01*
X136089160Y-286348185D02*
X136027255Y-286471995D01*
X136027255Y-286471995D02*
X135965350Y-286533900D01*
X135965350Y-286533900D02*
X135841541Y-286595804D01*
X135841541Y-286595804D02*
X135470112Y-286595804D01*
X135470112Y-286595804D02*
X135346303Y-286533900D01*
X135346303Y-286533900D02*
X135284398Y-286471995D01*
D10*
D11*
X185965350Y-285729138D02*
X185965350Y-286595804D01*
X185655826Y-285233900D02*
X185346303Y-286162471D01*
X185346303Y-286162471D02*
X186151064Y-286162471D01*
D10*
D11*
X236027255Y-285295804D02*
X235408207Y-285295804D01*
X235408207Y-285295804D02*
X235346303Y-285914852D01*
X235346303Y-285914852D02*
X235408207Y-285852947D01*
X235408207Y-285852947D02*
X235532017Y-285791042D01*
X235532017Y-285791042D02*
X235841541Y-285791042D01*
X235841541Y-285791042D02*
X235965350Y-285852947D01*
X235965350Y-285852947D02*
X236027255Y-285914852D01*
X236027255Y-285914852D02*
X236089160Y-286038661D01*
X236089160Y-286038661D02*
X236089160Y-286348185D01*
X236089160Y-286348185D02*
X236027255Y-286471995D01*
X236027255Y-286471995D02*
X235965350Y-286533900D01*
X235965350Y-286533900D02*
X235841541Y-286595804D01*
X235841541Y-286595804D02*
X235532017Y-286595804D01*
X235532017Y-286595804D02*
X235408207Y-286533900D01*
X235408207Y-286533900D02*
X235346303Y-286471995D01*
D10*
D11*
X285965350Y-285295804D02*
X285717731Y-285295804D01*
X285717731Y-285295804D02*
X285593922Y-285357709D01*
X285593922Y-285357709D02*
X285532017Y-285419614D01*
X285532017Y-285419614D02*
X285408207Y-285605328D01*
X285408207Y-285605328D02*
X285346303Y-285852947D01*
X285346303Y-285852947D02*
X285346303Y-286348185D01*
X285346303Y-286348185D02*
X285408207Y-286471995D01*
X285408207Y-286471995D02*
X285470112Y-286533900D01*
X285470112Y-286533900D02*
X285593922Y-286595804D01*
X285593922Y-286595804D02*
X285841541Y-286595804D01*
X285841541Y-286595804D02*
X285965350Y-286533900D01*
X285965350Y-286533900D02*
X286027255Y-286471995D01*
X286027255Y-286471995D02*
X286089160Y-286348185D01*
X286089160Y-286348185D02*
X286089160Y-286038661D01*
X286089160Y-286038661D02*
X286027255Y-285914852D01*
X286027255Y-285914852D02*
X285965350Y-285852947D01*
X285965350Y-285852947D02*
X285841541Y-285791042D01*
X285841541Y-285791042D02*
X285593922Y-285791042D01*
X285593922Y-285791042D02*
X285470112Y-285852947D01*
X285470112Y-285852947D02*
X285408207Y-285914852D01*
X285408207Y-285914852D02*
X285346303Y-286038661D01*
D10*
D11*
X335284398Y-285295804D02*
X336151064Y-285295804D01*
X336151064Y-285295804D02*
X335593922Y-286595804D01*
D10*
D11*
X385593922Y-285852947D02*
X385470112Y-285791042D01*
X385470112Y-285791042D02*
X385408207Y-285729138D01*
X385408207Y-285729138D02*
X385346303Y-285605328D01*
X385346303Y-285605328D02*
X385346303Y-285543423D01*
X385346303Y-285543423D02*
X385408207Y-285419614D01*
X385408207Y-285419614D02*
X385470112Y-285357709D01*
X385470112Y-285357709D02*
X385593922Y-285295804D01*
X385593922Y-285295804D02*
X385841541Y-285295804D01*
X385841541Y-285295804D02*
X385965350Y-285357709D01*
X385965350Y-285357709D02*
X386027255Y-285419614D01*
X386027255Y-285419614D02*
X386089160Y-285543423D01*
X386089160Y-285543423D02*
X386089160Y-285605328D01*
X386089160Y-285605328D02*
X386027255Y-285729138D01*
X386027255Y-285729138D02*
X385965350Y-285791042D01*
X385965350Y-285791042D02*
X385841541Y-285852947D01*
X385841541Y-285852947D02*
X385593922Y-285852947D01*
X385593922Y-285852947D02*
X385470112Y-285914852D01*
X385470112Y-285914852D02*
X385408207Y-285976757D01*
X385408207Y-285976757D02*
X385346303Y-286100566D01*
X385346303Y-286100566D02*
X385346303Y-286348185D01*
X385346303Y-286348185D02*
X385408207Y-286471995D01*
X385408207Y-286471995D02*
X385470112Y-286533900D01*
X385470112Y-286533900D02*
X385593922Y-286595804D01*
X385593922Y-286595804D02*
X385841541Y-286595804D01*
X385841541Y-286595804D02*
X385965350Y-286533900D01*
X385965350Y-286533900D02*
X386027255Y-286471995D01*
X386027255Y-286471995D02*
X386089160Y-286348185D01*
X386089160Y-286348185D02*
X386089160Y-286100566D01*
X386089160Y-286100566D02*
X386027255Y-285976757D01*
X386027255Y-285976757D02*
X385965350Y-285914852D01*
X385965350Y-285914852D02*
X385841541Y-285852947D01*
D10*
D11*
X10000000Y-60000000D02*
X12000000Y-60000000D01*
D10*
D11*
X10000000Y-110000000D02*
X12000000Y-110000000D01*
D10*
D11*
X10000000Y-160000000D02*
X12000000Y-160000000D01*
D10*
D11*
X10000000Y-210000000D02*
X12000000Y-210000000D01*
D10*
D11*
X10000000Y-260000000D02*
X12000000Y-260000000D01*
D10*
D11*
X10690476Y-35222176D02*
X11309523Y-35222176D01*
X10566666Y-35593604D02*
X10999999Y-34293604D01*
X10999999Y-34293604D02*
X11433333Y-35593604D01*
D10*
D11*
X11092857Y-84912652D02*
X11278571Y-84974557D01*
X11278571Y-84974557D02*
X11340476Y-85036461D01*
X11340476Y-85036461D02*
X11402380Y-85160271D01*
X11402380Y-85160271D02*
X11402380Y-85345985D01*
X11402380Y-85345985D02*
X11340476Y-85469795D01*
X11340476Y-85469795D02*
X11278571Y-85531700D01*
X11278571Y-85531700D02*
X11154761Y-85593604D01*
X11154761Y-85593604D02*
X10659523Y-85593604D01*
X10659523Y-85593604D02*
X10659523Y-84293604D01*
X10659523Y-84293604D02*
X11092857Y-84293604D01*
X11092857Y-84293604D02*
X11216666Y-84355509D01*
X11216666Y-84355509D02*
X11278571Y-84417414D01*
X11278571Y-84417414D02*
X11340476Y-84541223D01*
X11340476Y-84541223D02*
X11340476Y-84665033D01*
X11340476Y-84665033D02*
X11278571Y-84788842D01*
X11278571Y-84788842D02*
X11216666Y-84850747D01*
X11216666Y-84850747D02*
X11092857Y-84912652D01*
X11092857Y-84912652D02*
X10659523Y-84912652D01*
D10*
D11*
X11402380Y-135469795D02*
X11340476Y-135531700D01*
X11340476Y-135531700D02*
X11154761Y-135593604D01*
X11154761Y-135593604D02*
X11030952Y-135593604D01*
X11030952Y-135593604D02*
X10845238Y-135531700D01*
X10845238Y-135531700D02*
X10721428Y-135407890D01*
X10721428Y-135407890D02*
X10659523Y-135284080D01*
X10659523Y-135284080D02*
X10597619Y-135036461D01*
X10597619Y-135036461D02*
X10597619Y-134850747D01*
X10597619Y-134850747D02*
X10659523Y-134603128D01*
X10659523Y-134603128D02*
X10721428Y-134479319D01*
X10721428Y-134479319D02*
X10845238Y-134355509D01*
X10845238Y-134355509D02*
X11030952Y-134293604D01*
X11030952Y-134293604D02*
X11154761Y-134293604D01*
X11154761Y-134293604D02*
X11340476Y-134355509D01*
X11340476Y-134355509D02*
X11402380Y-134417414D01*
D10*
D11*
X10659523Y-185593604D02*
X10659523Y-184293604D01*
X10659523Y-184293604D02*
X10969047Y-184293604D01*
X10969047Y-184293604D02*
X11154761Y-184355509D01*
X11154761Y-184355509D02*
X11278571Y-184479319D01*
X11278571Y-184479319D02*
X11340476Y-184603128D01*
X11340476Y-184603128D02*
X11402380Y-184850747D01*
X11402380Y-184850747D02*
X11402380Y-185036461D01*
X11402380Y-185036461D02*
X11340476Y-185284080D01*
X11340476Y-185284080D02*
X11278571Y-185407890D01*
X11278571Y-185407890D02*
X11154761Y-185531700D01*
X11154761Y-185531700D02*
X10969047Y-185593604D01*
X10969047Y-185593604D02*
X10659523Y-185593604D01*
D10*
D11*
X10721428Y-234912652D02*
X11154762Y-234912652D01*
X11340476Y-235593604D02*
X10721428Y-235593604D01*
X10721428Y-235593604D02*
X10721428Y-234293604D01*
X10721428Y-234293604D02*
X11340476Y-234293604D01*
D10*
D11*
X11185714Y-284912652D02*
X10752380Y-284912652D01*
X10752380Y-285593604D02*
X10752380Y-284293604D01*
X10752380Y-284293604D02*
X11371428Y-284293604D01*
D10*
D11*
X409989000Y-60000000D02*
X407989000Y-60000000D01*
D10*
D11*
X409989000Y-110000000D02*
X407989000Y-110000000D01*
D10*
D11*
X409989000Y-160000000D02*
X407989000Y-160000000D01*
D10*
D11*
X409989000Y-210000000D02*
X407989000Y-210000000D01*
D10*
D11*
X409989000Y-260000000D02*
X407989000Y-260000000D01*
D10*
D11*
X408679476Y-35222176D02*
X409298523Y-35222176D01*
X408555666Y-35593604D02*
X408988999Y-34293604D01*
X408988999Y-34293604D02*
X409422333Y-35593604D01*
D10*
D11*
X409081857Y-84912652D02*
X409267571Y-84974557D01*
X409267571Y-84974557D02*
X409329476Y-85036461D01*
X409329476Y-85036461D02*
X409391380Y-85160271D01*
X409391380Y-85160271D02*
X409391380Y-85345985D01*
X409391380Y-85345985D02*
X409329476Y-85469795D01*
X409329476Y-85469795D02*
X409267571Y-85531700D01*
X409267571Y-85531700D02*
X409143761Y-85593604D01*
X409143761Y-85593604D02*
X408648523Y-85593604D01*
X408648523Y-85593604D02*
X408648523Y-84293604D01*
X408648523Y-84293604D02*
X409081857Y-84293604D01*
X409081857Y-84293604D02*
X409205666Y-84355509D01*
X409205666Y-84355509D02*
X409267571Y-84417414D01*
X409267571Y-84417414D02*
X409329476Y-84541223D01*
X409329476Y-84541223D02*
X409329476Y-84665033D01*
X409329476Y-84665033D02*
X409267571Y-84788842D01*
X409267571Y-84788842D02*
X409205666Y-84850747D01*
X409205666Y-84850747D02*
X409081857Y-84912652D01*
X409081857Y-84912652D02*
X408648523Y-84912652D01*
D10*
D11*
X409391380Y-135469795D02*
X409329476Y-135531700D01*
X409329476Y-135531700D02*
X409143761Y-135593604D01*
X409143761Y-135593604D02*
X409019952Y-135593604D01*
X409019952Y-135593604D02*
X408834238Y-135531700D01*
X408834238Y-135531700D02*
X408710428Y-135407890D01*
X408710428Y-135407890D02*
X408648523Y-135284080D01*
X408648523Y-135284080D02*
X408586619Y-135036461D01*
X408586619Y-135036461D02*
X408586619Y-134850747D01*
X408586619Y-134850747D02*
X408648523Y-134603128D01*
X408648523Y-134603128D02*
X408710428Y-134479319D01*
X408710428Y-134479319D02*
X408834238Y-134355509D01*
X408834238Y-134355509D02*
X409019952Y-134293604D01*
X409019952Y-134293604D02*
X409143761Y-134293604D01*
X409143761Y-134293604D02*
X409329476Y-134355509D01*
X409329476Y-134355509D02*
X409391380Y-134417414D01*
D10*
D11*
X408648523Y-185593604D02*
X408648523Y-184293604D01*
X408648523Y-184293604D02*
X408958047Y-184293604D01*
X408958047Y-184293604D02*
X409143761Y-184355509D01*
X409143761Y-184355509D02*
X409267571Y-184479319D01*
X409267571Y-184479319D02*
X409329476Y-184603128D01*
X409329476Y-184603128D02*
X409391380Y-184850747D01*
X409391380Y-184850747D02*
X409391380Y-185036461D01*
X409391380Y-185036461D02*
X409329476Y-185284080D01*
X409329476Y-185284080D02*
X409267571Y-185407890D01*
X409267571Y-185407890D02*
X409143761Y-185531700D01*
X409143761Y-185531700D02*
X408958047Y-185593604D01*
X408958047Y-185593604D02*
X408648523Y-185593604D01*
D10*
D11*
X408710428Y-234912652D02*
X409143762Y-234912652D01*
X409329476Y-235593604D02*
X408710428Y-235593604D01*
X408710428Y-235593604D02*
X408710428Y-234293604D01*
X408710428Y-234293604D02*
X409329476Y-234293604D01*
D10*
D11*
X409174714Y-284912652D02*
X408741380Y-284912652D01*
X408741380Y-285593604D02*
X408741380Y-284293604D01*
X408741380Y-284293604D02*
X409360428Y-284293604D01*
D10*
D11*
X323444826Y-280788328D02*
X323444826Y-279288328D01*
X323444826Y-279288328D02*
X323801969Y-279288328D01*
X323801969Y-279288328D02*
X324016255Y-279359757D01*
X324016255Y-279359757D02*
X324159112Y-279502614D01*
X324159112Y-279502614D02*
X324230541Y-279645471D01*
X324230541Y-279645471D02*
X324301969Y-279931185D01*
X324301969Y-279931185D02*
X324301969Y-280145471D01*
X324301969Y-280145471D02*
X324230541Y-280431185D01*
X324230541Y-280431185D02*
X324159112Y-280574042D01*
X324159112Y-280574042D02*
X324016255Y-280716900D01*
X324016255Y-280716900D02*
X323801969Y-280788328D01*
X323801969Y-280788328D02*
X323444826Y-280788328D01*
X325587684Y-280788328D02*
X325587684Y-280002614D01*
X325587684Y-280002614D02*
X325516255Y-279859757D01*
X325516255Y-279859757D02*
X325373398Y-279788328D01*
X325373398Y-279788328D02*
X325087684Y-279788328D01*
X325087684Y-279788328D02*
X324944826Y-279859757D01*
X325587684Y-280716900D02*
X325444826Y-280788328D01*
X325444826Y-280788328D02*
X325087684Y-280788328D01*
X325087684Y-280788328D02*
X324944826Y-280716900D01*
X324944826Y-280716900D02*
X324873398Y-280574042D01*
X324873398Y-280574042D02*
X324873398Y-280431185D01*
X324873398Y-280431185D02*
X324944826Y-280288328D01*
X324944826Y-280288328D02*
X325087684Y-280216900D01*
X325087684Y-280216900D02*
X325444826Y-280216900D01*
X325444826Y-280216900D02*
X325587684Y-280145471D01*
X326087684Y-279788328D02*
X326659112Y-279788328D01*
X326301969Y-279288328D02*
X326301969Y-280574042D01*
X326301969Y-280574042D02*
X326373398Y-280716900D01*
X326373398Y-280716900D02*
X326516255Y-280788328D01*
X326516255Y-280788328D02*
X326659112Y-280788328D01*
X327730541Y-280716900D02*
X327587684Y-280788328D01*
X327587684Y-280788328D02*
X327301970Y-280788328D01*
X327301970Y-280788328D02*
X327159112Y-280716900D01*
X327159112Y-280716900D02*
X327087684Y-280574042D01*
X327087684Y-280574042D02*
X327087684Y-280002614D01*
X327087684Y-280002614D02*
X327159112Y-279859757D01*
X327159112Y-279859757D02*
X327301970Y-279788328D01*
X327301970Y-279788328D02*
X327587684Y-279788328D01*
X327587684Y-279788328D02*
X327730541Y-279859757D01*
X327730541Y-279859757D02*
X327801970Y-280002614D01*
X327801970Y-280002614D02*
X327801970Y-280145471D01*
X327801970Y-280145471D02*
X327087684Y-280288328D01*
X328444826Y-280645471D02*
X328516255Y-280716900D01*
X328516255Y-280716900D02*
X328444826Y-280788328D01*
X328444826Y-280788328D02*
X328373398Y-280716900D01*
X328373398Y-280716900D02*
X328444826Y-280645471D01*
X328444826Y-280645471D02*
X328444826Y-280788328D01*
X328444826Y-279859757D02*
X328516255Y-279931185D01*
X328516255Y-279931185D02*
X328444826Y-280002614D01*
X328444826Y-280002614D02*
X328373398Y-279931185D01*
X328373398Y-279931185D02*
X328444826Y-279859757D01*
X328444826Y-279859757D02*
X328444826Y-280002614D01*
X330230541Y-279431185D02*
X330301969Y-279359757D01*
X330301969Y-279359757D02*
X330444827Y-279288328D01*
X330444827Y-279288328D02*
X330801969Y-279288328D01*
X330801969Y-279288328D02*
X330944827Y-279359757D01*
X330944827Y-279359757D02*
X331016255Y-279431185D01*
X331016255Y-279431185D02*
X331087684Y-279574042D01*
X331087684Y-279574042D02*
X331087684Y-279716900D01*
X331087684Y-279716900D02*
X331016255Y-279931185D01*
X331016255Y-279931185D02*
X330159112Y-280788328D01*
X330159112Y-280788328D02*
X331087684Y-280788328D01*
X332016255Y-279288328D02*
X332159112Y-279288328D01*
X332159112Y-279288328D02*
X332301969Y-279359757D01*
X332301969Y-279359757D02*
X332373398Y-279431185D01*
X332373398Y-279431185D02*
X332444826Y-279574042D01*
X332444826Y-279574042D02*
X332516255Y-279859757D01*
X332516255Y-279859757D02*
X332516255Y-280216900D01*
X332516255Y-280216900D02*
X332444826Y-280502614D01*
X332444826Y-280502614D02*
X332373398Y-280645471D01*
X332373398Y-280645471D02*
X332301969Y-280716900D01*
X332301969Y-280716900D02*
X332159112Y-280788328D01*
X332159112Y-280788328D02*
X332016255Y-280788328D01*
X332016255Y-280788328D02*
X331873398Y-280716900D01*
X331873398Y-280716900D02*
X331801969Y-280645471D01*
X331801969Y-280645471D02*
X331730540Y-280502614D01*
X331730540Y-280502614D02*
X331659112Y-280216900D01*
X331659112Y-280216900D02*
X331659112Y-279859757D01*
X331659112Y-279859757D02*
X331730540Y-279574042D01*
X331730540Y-279574042D02*
X331801969Y-279431185D01*
X331801969Y-279431185D02*
X331873398Y-279359757D01*
X331873398Y-279359757D02*
X332016255Y-279288328D01*
X333087683Y-279431185D02*
X333159111Y-279359757D01*
X333159111Y-279359757D02*
X333301969Y-279288328D01*
X333301969Y-279288328D02*
X333659111Y-279288328D01*
X333659111Y-279288328D02*
X333801969Y-279359757D01*
X333801969Y-279359757D02*
X333873397Y-279431185D01*
X333873397Y-279431185D02*
X333944826Y-279574042D01*
X333944826Y-279574042D02*
X333944826Y-279716900D01*
X333944826Y-279716900D02*
X333873397Y-279931185D01*
X333873397Y-279931185D02*
X333016254Y-280788328D01*
X333016254Y-280788328D02*
X333944826Y-280788328D01*
X335230540Y-279788328D02*
X335230540Y-280788328D01*
X334873397Y-279216900D02*
X334516254Y-280288328D01*
X334516254Y-280288328D02*
X335444825Y-280288328D01*
X336016253Y-280216900D02*
X337159111Y-280216900D01*
X338159111Y-279288328D02*
X338301968Y-279288328D01*
X338301968Y-279288328D02*
X338444825Y-279359757D01*
X338444825Y-279359757D02*
X338516254Y-279431185D01*
X338516254Y-279431185D02*
X338587682Y-279574042D01*
X338587682Y-279574042D02*
X338659111Y-279859757D01*
X338659111Y-279859757D02*
X338659111Y-280216900D01*
X338659111Y-280216900D02*
X338587682Y-280502614D01*
X338587682Y-280502614D02*
X338516254Y-280645471D01*
X338516254Y-280645471D02*
X338444825Y-280716900D01*
X338444825Y-280716900D02*
X338301968Y-280788328D01*
X338301968Y-280788328D02*
X338159111Y-280788328D01*
X338159111Y-280788328D02*
X338016254Y-280716900D01*
X338016254Y-280716900D02*
X337944825Y-280645471D01*
X337944825Y-280645471D02*
X337873396Y-280502614D01*
X337873396Y-280502614D02*
X337801968Y-280216900D01*
X337801968Y-280216900D02*
X337801968Y-279859757D01*
X337801968Y-279859757D02*
X337873396Y-279574042D01*
X337873396Y-279574042D02*
X337944825Y-279431185D01*
X337944825Y-279431185D02*
X338016254Y-279359757D01*
X338016254Y-279359757D02*
X338159111Y-279288328D01*
X339516253Y-279931185D02*
X339373396Y-279859757D01*
X339373396Y-279859757D02*
X339301967Y-279788328D01*
X339301967Y-279788328D02*
X339230539Y-279645471D01*
X339230539Y-279645471D02*
X339230539Y-279574042D01*
X339230539Y-279574042D02*
X339301967Y-279431185D01*
X339301967Y-279431185D02*
X339373396Y-279359757D01*
X339373396Y-279359757D02*
X339516253Y-279288328D01*
X339516253Y-279288328D02*
X339801967Y-279288328D01*
X339801967Y-279288328D02*
X339944825Y-279359757D01*
X339944825Y-279359757D02*
X340016253Y-279431185D01*
X340016253Y-279431185D02*
X340087682Y-279574042D01*
X340087682Y-279574042D02*
X340087682Y-279645471D01*
X340087682Y-279645471D02*
X340016253Y-279788328D01*
X340016253Y-279788328D02*
X339944825Y-279859757D01*
X339944825Y-279859757D02*
X339801967Y-279931185D01*
X339801967Y-279931185D02*
X339516253Y-279931185D01*
X339516253Y-279931185D02*
X339373396Y-280002614D01*
X339373396Y-280002614D02*
X339301967Y-280074042D01*
X339301967Y-280074042D02*
X339230539Y-280216900D01*
X339230539Y-280216900D02*
X339230539Y-280502614D01*
X339230539Y-280502614D02*
X339301967Y-280645471D01*
X339301967Y-280645471D02*
X339373396Y-280716900D01*
X339373396Y-280716900D02*
X339516253Y-280788328D01*
X339516253Y-280788328D02*
X339801967Y-280788328D01*
X339801967Y-280788328D02*
X339944825Y-280716900D01*
X339944825Y-280716900D02*
X340016253Y-280645471D01*
X340016253Y-280645471D02*
X340087682Y-280502614D01*
X340087682Y-280502614D02*
X340087682Y-280216900D01*
X340087682Y-280216900D02*
X340016253Y-280074042D01*
X340016253Y-280074042D02*
X339944825Y-280002614D01*
X339944825Y-280002614D02*
X339801967Y-279931185D01*
X340730538Y-280216900D02*
X341873396Y-280216900D01*
X342873396Y-279288328D02*
X343016253Y-279288328D01*
X343016253Y-279288328D02*
X343159110Y-279359757D01*
X343159110Y-279359757D02*
X343230539Y-279431185D01*
X343230539Y-279431185D02*
X343301967Y-279574042D01*
X343301967Y-279574042D02*
X343373396Y-279859757D01*
X343373396Y-279859757D02*
X343373396Y-280216900D01*
X343373396Y-280216900D02*
X343301967Y-280502614D01*
X343301967Y-280502614D02*
X343230539Y-280645471D01*
X343230539Y-280645471D02*
X343159110Y-280716900D01*
X343159110Y-280716900D02*
X343016253Y-280788328D01*
X343016253Y-280788328D02*
X342873396Y-280788328D01*
X342873396Y-280788328D02*
X342730539Y-280716900D01*
X342730539Y-280716900D02*
X342659110Y-280645471D01*
X342659110Y-280645471D02*
X342587681Y-280502614D01*
X342587681Y-280502614D02*
X342516253Y-280216900D01*
X342516253Y-280216900D02*
X342516253Y-279859757D01*
X342516253Y-279859757D02*
X342587681Y-279574042D01*
X342587681Y-279574042D02*
X342659110Y-279431185D01*
X342659110Y-279431185D02*
X342730539Y-279359757D01*
X342730539Y-279359757D02*
X342873396Y-279288328D01*
X343873395Y-279288328D02*
X344801967Y-279288328D01*
X344801967Y-279288328D02*
X344301967Y-279859757D01*
X344301967Y-279859757D02*
X344516252Y-279859757D01*
X344516252Y-279859757D02*
X344659110Y-279931185D01*
X344659110Y-279931185D02*
X344730538Y-280002614D01*
X344730538Y-280002614D02*
X344801967Y-280145471D01*
X344801967Y-280145471D02*
X344801967Y-280502614D01*
X344801967Y-280502614D02*
X344730538Y-280645471D01*
X344730538Y-280645471D02*
X344659110Y-280716900D01*
X344659110Y-280716900D02*
X344516252Y-280788328D01*
X344516252Y-280788328D02*
X344087681Y-280788328D01*
X344087681Y-280788328D02*
X343944824Y-280716900D01*
X343944824Y-280716900D02*
X343873395Y-280645471D01*
D10*
D11*
X299989000Y-281502200D02*
X407989000Y-281502200D01*
D10*
D11*
X301444826Y-283588328D02*
X301444826Y-282088328D01*
X302301969Y-283588328D02*
X301659112Y-282731185D01*
X302301969Y-282088328D02*
X301444826Y-282945471D01*
X302944826Y-283588328D02*
X302944826Y-282588328D01*
X302944826Y-282088328D02*
X302873398Y-282159757D01*
X302873398Y-282159757D02*
X302944826Y-282231185D01*
X302944826Y-282231185D02*
X303016255Y-282159757D01*
X303016255Y-282159757D02*
X302944826Y-282088328D01*
X302944826Y-282088328D02*
X302944826Y-282231185D01*
X304516255Y-283445471D02*
X304444827Y-283516900D01*
X304444827Y-283516900D02*
X304230541Y-283588328D01*
X304230541Y-283588328D02*
X304087684Y-283588328D01*
X304087684Y-283588328D02*
X303873398Y-283516900D01*
X303873398Y-283516900D02*
X303730541Y-283374042D01*
X303730541Y-283374042D02*
X303659112Y-283231185D01*
X303659112Y-283231185D02*
X303587684Y-282945471D01*
X303587684Y-282945471D02*
X303587684Y-282731185D01*
X303587684Y-282731185D02*
X303659112Y-282445471D01*
X303659112Y-282445471D02*
X303730541Y-282302614D01*
X303730541Y-282302614D02*
X303873398Y-282159757D01*
X303873398Y-282159757D02*
X304087684Y-282088328D01*
X304087684Y-282088328D02*
X304230541Y-282088328D01*
X304230541Y-282088328D02*
X304444827Y-282159757D01*
X304444827Y-282159757D02*
X304516255Y-282231185D01*
X305801970Y-283588328D02*
X305801970Y-282802614D01*
X305801970Y-282802614D02*
X305730541Y-282659757D01*
X305730541Y-282659757D02*
X305587684Y-282588328D01*
X305587684Y-282588328D02*
X305301970Y-282588328D01*
X305301970Y-282588328D02*
X305159112Y-282659757D01*
X305801970Y-283516900D02*
X305659112Y-283588328D01*
X305659112Y-283588328D02*
X305301970Y-283588328D01*
X305301970Y-283588328D02*
X305159112Y-283516900D01*
X305159112Y-283516900D02*
X305087684Y-283374042D01*
X305087684Y-283374042D02*
X305087684Y-283231185D01*
X305087684Y-283231185D02*
X305159112Y-283088328D01*
X305159112Y-283088328D02*
X305301970Y-283016900D01*
X305301970Y-283016900D02*
X305659112Y-283016900D01*
X305659112Y-283016900D02*
X305801970Y-282945471D01*
X307159113Y-283588328D02*
X307159113Y-282088328D01*
X307159113Y-283516900D02*
X307016255Y-283588328D01*
X307016255Y-283588328D02*
X306730541Y-283588328D01*
X306730541Y-283588328D02*
X306587684Y-283516900D01*
X306587684Y-283516900D02*
X306516255Y-283445471D01*
X306516255Y-283445471D02*
X306444827Y-283302614D01*
X306444827Y-283302614D02*
X306444827Y-282874042D01*
X306444827Y-282874042D02*
X306516255Y-282731185D01*
X306516255Y-282731185D02*
X306587684Y-282659757D01*
X306587684Y-282659757D02*
X306730541Y-282588328D01*
X306730541Y-282588328D02*
X307016255Y-282588328D01*
X307016255Y-282588328D02*
X307159113Y-282659757D01*
X309016255Y-282802614D02*
X309516255Y-282802614D01*
X309730541Y-283588328D02*
X309016255Y-283588328D01*
X309016255Y-283588328D02*
X309016255Y-282088328D01*
X309016255Y-282088328D02*
X309730541Y-282088328D01*
X310373398Y-283445471D02*
X310444827Y-283516900D01*
X310444827Y-283516900D02*
X310373398Y-283588328D01*
X310373398Y-283588328D02*
X310301970Y-283516900D01*
X310301970Y-283516900D02*
X310373398Y-283445471D01*
X310373398Y-283445471D02*
X310373398Y-283588328D01*
X311087684Y-283588328D02*
X311087684Y-282088328D01*
X311087684Y-282088328D02*
X311444827Y-282088328D01*
X311444827Y-282088328D02*
X311659113Y-282159757D01*
X311659113Y-282159757D02*
X311801970Y-282302614D01*
X311801970Y-282302614D02*
X311873399Y-282445471D01*
X311873399Y-282445471D02*
X311944827Y-282731185D01*
X311944827Y-282731185D02*
X311944827Y-282945471D01*
X311944827Y-282945471D02*
X311873399Y-283231185D01*
X311873399Y-283231185D02*
X311801970Y-283374042D01*
X311801970Y-283374042D02*
X311659113Y-283516900D01*
X311659113Y-283516900D02*
X311444827Y-283588328D01*
X311444827Y-283588328D02*
X311087684Y-283588328D01*
X312587684Y-283445471D02*
X312659113Y-283516900D01*
X312659113Y-283516900D02*
X312587684Y-283588328D01*
X312587684Y-283588328D02*
X312516256Y-283516900D01*
X312516256Y-283516900D02*
X312587684Y-283445471D01*
X312587684Y-283445471D02*
X312587684Y-283588328D01*
X313230542Y-283159757D02*
X313944828Y-283159757D01*
X313087685Y-283588328D02*
X313587685Y-282088328D01*
X313587685Y-282088328D02*
X314087685Y-283588328D01*
X314587684Y-283445471D02*
X314659113Y-283516900D01*
X314659113Y-283516900D02*
X314587684Y-283588328D01*
X314587684Y-283588328D02*
X314516256Y-283516900D01*
X314516256Y-283516900D02*
X314587684Y-283445471D01*
X314587684Y-283445471D02*
X314587684Y-283588328D01*
X316659113Y-282731185D02*
X316516256Y-282659757D01*
X316516256Y-282659757D02*
X316444827Y-282588328D01*
X316444827Y-282588328D02*
X316373399Y-282445471D01*
X316373399Y-282445471D02*
X316373399Y-282374042D01*
X316373399Y-282374042D02*
X316444827Y-282231185D01*
X316444827Y-282231185D02*
X316516256Y-282159757D01*
X316516256Y-282159757D02*
X316659113Y-282088328D01*
X316659113Y-282088328D02*
X316944827Y-282088328D01*
X316944827Y-282088328D02*
X317087685Y-282159757D01*
X317087685Y-282159757D02*
X317159113Y-282231185D01*
X317159113Y-282231185D02*
X317230542Y-282374042D01*
X317230542Y-282374042D02*
X317230542Y-282445471D01*
X317230542Y-282445471D02*
X317159113Y-282588328D01*
X317159113Y-282588328D02*
X317087685Y-282659757D01*
X317087685Y-282659757D02*
X316944827Y-282731185D01*
X316944827Y-282731185D02*
X316659113Y-282731185D01*
X316659113Y-282731185D02*
X316516256Y-282802614D01*
X316516256Y-282802614D02*
X316444827Y-282874042D01*
X316444827Y-282874042D02*
X316373399Y-283016900D01*
X316373399Y-283016900D02*
X316373399Y-283302614D01*
X316373399Y-283302614D02*
X316444827Y-283445471D01*
X316444827Y-283445471D02*
X316516256Y-283516900D01*
X316516256Y-283516900D02*
X316659113Y-283588328D01*
X316659113Y-283588328D02*
X316944827Y-283588328D01*
X316944827Y-283588328D02*
X317087685Y-283516900D01*
X317087685Y-283516900D02*
X317159113Y-283445471D01*
X317159113Y-283445471D02*
X317230542Y-283302614D01*
X317230542Y-283302614D02*
X317230542Y-283016900D01*
X317230542Y-283016900D02*
X317159113Y-282874042D01*
X317159113Y-282874042D02*
X317087685Y-282802614D01*
X317087685Y-282802614D02*
X316944827Y-282731185D01*
X317873398Y-283445471D02*
X317944827Y-283516900D01*
X317944827Y-283516900D02*
X317873398Y-283588328D01*
X317873398Y-283588328D02*
X317801970Y-283516900D01*
X317801970Y-283516900D02*
X317873398Y-283445471D01*
X317873398Y-283445471D02*
X317873398Y-283588328D01*
X318873399Y-282088328D02*
X319016256Y-282088328D01*
X319016256Y-282088328D02*
X319159113Y-282159757D01*
X319159113Y-282159757D02*
X319230542Y-282231185D01*
X319230542Y-282231185D02*
X319301970Y-282374042D01*
X319301970Y-282374042D02*
X319373399Y-282659757D01*
X319373399Y-282659757D02*
X319373399Y-283016900D01*
X319373399Y-283016900D02*
X319301970Y-283302614D01*
X319301970Y-283302614D02*
X319230542Y-283445471D01*
X319230542Y-283445471D02*
X319159113Y-283516900D01*
X319159113Y-283516900D02*
X319016256Y-283588328D01*
X319016256Y-283588328D02*
X318873399Y-283588328D01*
X318873399Y-283588328D02*
X318730542Y-283516900D01*
X318730542Y-283516900D02*
X318659113Y-283445471D01*
X318659113Y-283445471D02*
X318587684Y-283302614D01*
X318587684Y-283302614D02*
X318516256Y-283016900D01*
X318516256Y-283016900D02*
X318516256Y-282659757D01*
X318516256Y-282659757D02*
X318587684Y-282374042D01*
X318587684Y-282374042D02*
X318659113Y-282231185D01*
X318659113Y-282231185D02*
X318730542Y-282159757D01*
X318730542Y-282159757D02*
X318873399Y-282088328D01*
X320016255Y-283445471D02*
X320087684Y-283516900D01*
X320087684Y-283516900D02*
X320016255Y-283588328D01*
X320016255Y-283588328D02*
X319944827Y-283516900D01*
X319944827Y-283516900D02*
X320016255Y-283445471D01*
X320016255Y-283445471D02*
X320016255Y-283588328D01*
X321373399Y-282588328D02*
X321373399Y-283588328D01*
X321016256Y-282016900D02*
X320659113Y-283088328D01*
X320659113Y-283088328D02*
X321587684Y-283088328D01*
D10*
D11*
X299989000Y-278502200D02*
X407989000Y-278502200D01*
D10*
D12*
X387400653Y-280780528D02*
X386900653Y-280066242D01*
X386543510Y-280780528D02*
X386543510Y-279280528D01*
X386543510Y-279280528D02*
X387114939Y-279280528D01*
X387114939Y-279280528D02*
X387257796Y-279351957D01*
X387257796Y-279351957D02*
X387329225Y-279423385D01*
X387329225Y-279423385D02*
X387400653Y-279566242D01*
X387400653Y-279566242D02*
X387400653Y-279780528D01*
X387400653Y-279780528D02*
X387329225Y-279923385D01*
X387329225Y-279923385D02*
X387257796Y-279994814D01*
X387257796Y-279994814D02*
X387114939Y-280066242D01*
X387114939Y-280066242D02*
X386543510Y-280066242D01*
X388614939Y-280709100D02*
X388472082Y-280780528D01*
X388472082Y-280780528D02*
X388186368Y-280780528D01*
X388186368Y-280780528D02*
X388043510Y-280709100D01*
X388043510Y-280709100D02*
X387972082Y-280566242D01*
X387972082Y-280566242D02*
X387972082Y-279994814D01*
X387972082Y-279994814D02*
X388043510Y-279851957D01*
X388043510Y-279851957D02*
X388186368Y-279780528D01*
X388186368Y-279780528D02*
X388472082Y-279780528D01*
X388472082Y-279780528D02*
X388614939Y-279851957D01*
X388614939Y-279851957D02*
X388686368Y-279994814D01*
X388686368Y-279994814D02*
X388686368Y-280137671D01*
X388686368Y-280137671D02*
X387972082Y-280280528D01*
X389186367Y-279780528D02*
X389543510Y-280780528D01*
X389543510Y-280780528D02*
X389900653Y-279780528D01*
X390472081Y-280637671D02*
X390543510Y-280709100D01*
X390543510Y-280709100D02*
X390472081Y-280780528D01*
X390472081Y-280780528D02*
X390400653Y-280709100D01*
X390400653Y-280709100D02*
X390472081Y-280637671D01*
X390472081Y-280637671D02*
X390472081Y-280780528D01*
X390472081Y-279851957D02*
X390543510Y-279923385D01*
X390543510Y-279923385D02*
X390472081Y-279994814D01*
X390472081Y-279994814D02*
X390400653Y-279923385D01*
X390400653Y-279923385D02*
X390472081Y-279851957D01*
X390472081Y-279851957D02*
X390472081Y-279994814D01*
X392614939Y-279280528D02*
X392757796Y-279280528D01*
X392757796Y-279280528D02*
X392900653Y-279351957D01*
X392900653Y-279351957D02*
X392972082Y-279423385D01*
X392972082Y-279423385D02*
X393043510Y-279566242D01*
X393043510Y-279566242D02*
X393114939Y-279851957D01*
X393114939Y-279851957D02*
X393114939Y-280209100D01*
X393114939Y-280209100D02*
X393043510Y-280494814D01*
X393043510Y-280494814D02*
X392972082Y-280637671D01*
X392972082Y-280637671D02*
X392900653Y-280709100D01*
X392900653Y-280709100D02*
X392757796Y-280780528D01*
X392757796Y-280780528D02*
X392614939Y-280780528D01*
X392614939Y-280780528D02*
X392472082Y-280709100D01*
X392472082Y-280709100D02*
X392400653Y-280637671D01*
X392400653Y-280637671D02*
X392329224Y-280494814D01*
X392329224Y-280494814D02*
X392257796Y-280209100D01*
X392257796Y-280209100D02*
X392257796Y-279851957D01*
X392257796Y-279851957D02*
X392329224Y-279566242D01*
X392329224Y-279566242D02*
X392400653Y-279423385D01*
X392400653Y-279423385D02*
X392472082Y-279351957D01*
X392472082Y-279351957D02*
X392614939Y-279280528D01*
X393757795Y-280637671D02*
X393829224Y-280709100D01*
X393829224Y-280709100D02*
X393757795Y-280780528D01*
X393757795Y-280780528D02*
X393686367Y-280709100D01*
X393686367Y-280709100D02*
X393757795Y-280637671D01*
X393757795Y-280637671D02*
X393757795Y-280780528D01*
X394757796Y-279280528D02*
X394900653Y-279280528D01*
X394900653Y-279280528D02*
X395043510Y-279351957D01*
X395043510Y-279351957D02*
X395114939Y-279423385D01*
X395114939Y-279423385D02*
X395186367Y-279566242D01*
X395186367Y-279566242D02*
X395257796Y-279851957D01*
X395257796Y-279851957D02*
X395257796Y-280209100D01*
X395257796Y-280209100D02*
X395186367Y-280494814D01*
X395186367Y-280494814D02*
X395114939Y-280637671D01*
X395114939Y-280637671D02*
X395043510Y-280709100D01*
X395043510Y-280709100D02*
X394900653Y-280780528D01*
X394900653Y-280780528D02*
X394757796Y-280780528D01*
X394757796Y-280780528D02*
X394614939Y-280709100D01*
X394614939Y-280709100D02*
X394543510Y-280637671D01*
X394543510Y-280637671D02*
X394472081Y-280494814D01*
X394472081Y-280494814D02*
X394400653Y-280209100D01*
X394400653Y-280209100D02*
X394400653Y-279851957D01*
X394400653Y-279851957D02*
X394472081Y-279566242D01*
X394472081Y-279566242D02*
X394543510Y-279423385D01*
X394543510Y-279423385D02*
X394614939Y-279351957D01*
X394614939Y-279351957D02*
X394757796Y-279280528D01*
X396186367Y-279280528D02*
X396329224Y-279280528D01*
X396329224Y-279280528D02*
X396472081Y-279351957D01*
X396472081Y-279351957D02*
X396543510Y-279423385D01*
X396543510Y-279423385D02*
X396614938Y-279566242D01*
X396614938Y-279566242D02*
X396686367Y-279851957D01*
X396686367Y-279851957D02*
X396686367Y-280209100D01*
X396686367Y-280209100D02*
X396614938Y-280494814D01*
X396614938Y-280494814D02*
X396543510Y-280637671D01*
X396543510Y-280637671D02*
X396472081Y-280709100D01*
X396472081Y-280709100D02*
X396329224Y-280780528D01*
X396329224Y-280780528D02*
X396186367Y-280780528D01*
X396186367Y-280780528D02*
X396043510Y-280709100D01*
X396043510Y-280709100D02*
X395972081Y-280637671D01*
X395972081Y-280637671D02*
X395900652Y-280494814D01*
X395900652Y-280494814D02*
X395829224Y-280209100D01*
X395829224Y-280209100D02*
X395829224Y-279851957D01*
X395829224Y-279851957D02*
X395900652Y-279566242D01*
X395900652Y-279566242D02*
X395972081Y-279423385D01*
X395972081Y-279423385D02*
X396043510Y-279351957D01*
X396043510Y-279351957D02*
X396186367Y-279280528D01*
D10*
D11*
X301373398Y-280716900D02*
X301587684Y-280788328D01*
X301587684Y-280788328D02*
X301944826Y-280788328D01*
X301944826Y-280788328D02*
X302087684Y-280716900D01*
X302087684Y-280716900D02*
X302159112Y-280645471D01*
X302159112Y-280645471D02*
X302230541Y-280502614D01*
X302230541Y-280502614D02*
X302230541Y-280359757D01*
X302230541Y-280359757D02*
X302159112Y-280216900D01*
X302159112Y-280216900D02*
X302087684Y-280145471D01*
X302087684Y-280145471D02*
X301944826Y-280074042D01*
X301944826Y-280074042D02*
X301659112Y-280002614D01*
X301659112Y-280002614D02*
X301516255Y-279931185D01*
X301516255Y-279931185D02*
X301444826Y-279859757D01*
X301444826Y-279859757D02*
X301373398Y-279716900D01*
X301373398Y-279716900D02*
X301373398Y-279574042D01*
X301373398Y-279574042D02*
X301444826Y-279431185D01*
X301444826Y-279431185D02*
X301516255Y-279359757D01*
X301516255Y-279359757D02*
X301659112Y-279288328D01*
X301659112Y-279288328D02*
X302016255Y-279288328D01*
X302016255Y-279288328D02*
X302230541Y-279359757D01*
X302873397Y-280788328D02*
X302873397Y-279788328D01*
X302873397Y-279288328D02*
X302801969Y-279359757D01*
X302801969Y-279359757D02*
X302873397Y-279431185D01*
X302873397Y-279431185D02*
X302944826Y-279359757D01*
X302944826Y-279359757D02*
X302873397Y-279288328D01*
X302873397Y-279288328D02*
X302873397Y-279431185D01*
X303444826Y-279788328D02*
X304230541Y-279788328D01*
X304230541Y-279788328D02*
X303444826Y-280788328D01*
X303444826Y-280788328D02*
X304230541Y-280788328D01*
X305373398Y-280716900D02*
X305230541Y-280788328D01*
X305230541Y-280788328D02*
X304944827Y-280788328D01*
X304944827Y-280788328D02*
X304801969Y-280716900D01*
X304801969Y-280716900D02*
X304730541Y-280574042D01*
X304730541Y-280574042D02*
X304730541Y-280002614D01*
X304730541Y-280002614D02*
X304801969Y-279859757D01*
X304801969Y-279859757D02*
X304944827Y-279788328D01*
X304944827Y-279788328D02*
X305230541Y-279788328D01*
X305230541Y-279788328D02*
X305373398Y-279859757D01*
X305373398Y-279859757D02*
X305444827Y-280002614D01*
X305444827Y-280002614D02*
X305444827Y-280145471D01*
X305444827Y-280145471D02*
X304730541Y-280288328D01*
X306087683Y-280645471D02*
X306159112Y-280716900D01*
X306159112Y-280716900D02*
X306087683Y-280788328D01*
X306087683Y-280788328D02*
X306016255Y-280716900D01*
X306016255Y-280716900D02*
X306087683Y-280645471D01*
X306087683Y-280645471D02*
X306087683Y-280788328D01*
X306087683Y-279859757D02*
X306159112Y-279931185D01*
X306159112Y-279931185D02*
X306087683Y-280002614D01*
X306087683Y-280002614D02*
X306016255Y-279931185D01*
X306016255Y-279931185D02*
X306087683Y-279859757D01*
X306087683Y-279859757D02*
X306087683Y-280002614D01*
X307873398Y-280359757D02*
X308587684Y-280359757D01*
X307730541Y-280788328D02*
X308230541Y-279288328D01*
X308230541Y-279288328D02*
X308730541Y-280788328D01*
X309087683Y-279288328D02*
X310016255Y-279288328D01*
X310016255Y-279288328D02*
X309516255Y-279859757D01*
X309516255Y-279859757D02*
X309730540Y-279859757D01*
X309730540Y-279859757D02*
X309873398Y-279931185D01*
X309873398Y-279931185D02*
X309944826Y-280002614D01*
X309944826Y-280002614D02*
X310016255Y-280145471D01*
X310016255Y-280145471D02*
X310016255Y-280502614D01*
X310016255Y-280502614D02*
X309944826Y-280645471D01*
X309944826Y-280645471D02*
X309873398Y-280716900D01*
X309873398Y-280716900D02*
X309730540Y-280788328D01*
X309730540Y-280788328D02*
X309301969Y-280788328D01*
X309301969Y-280788328D02*
X309159112Y-280716900D01*
X309159112Y-280716900D02*
X309087683Y-280645471D01*
D10*
D11*
X386444826Y-283588328D02*
X386444826Y-282088328D01*
X387801970Y-283588328D02*
X387801970Y-282088328D01*
X387801970Y-283516900D02*
X387659112Y-283588328D01*
X387659112Y-283588328D02*
X387373398Y-283588328D01*
X387373398Y-283588328D02*
X387230541Y-283516900D01*
X387230541Y-283516900D02*
X387159112Y-283445471D01*
X387159112Y-283445471D02*
X387087684Y-283302614D01*
X387087684Y-283302614D02*
X387087684Y-282874042D01*
X387087684Y-282874042D02*
X387159112Y-282731185D01*
X387159112Y-282731185D02*
X387230541Y-282659757D01*
X387230541Y-282659757D02*
X387373398Y-282588328D01*
X387373398Y-282588328D02*
X387659112Y-282588328D01*
X387659112Y-282588328D02*
X387801970Y-282659757D01*
X388516255Y-283445471D02*
X388587684Y-283516900D01*
X388587684Y-283516900D02*
X388516255Y-283588328D01*
X388516255Y-283588328D02*
X388444827Y-283516900D01*
X388444827Y-283516900D02*
X388516255Y-283445471D01*
X388516255Y-283445471D02*
X388516255Y-283588328D01*
X388516255Y-282659757D02*
X388587684Y-282731185D01*
X388587684Y-282731185D02*
X388516255Y-282802614D01*
X388516255Y-282802614D02*
X388444827Y-282731185D01*
X388444827Y-282731185D02*
X388516255Y-282659757D01*
X388516255Y-282659757D02*
X388516255Y-282802614D01*
X391159113Y-283588328D02*
X390301970Y-283588328D01*
X390730541Y-283588328D02*
X390730541Y-282088328D01*
X390730541Y-282088328D02*
X390587684Y-282302614D01*
X390587684Y-282302614D02*
X390444827Y-282445471D01*
X390444827Y-282445471D02*
X390301970Y-282516900D01*
X392873398Y-282016900D02*
X391587684Y-283945471D01*
X394159113Y-283588328D02*
X393301970Y-283588328D01*
X393730541Y-283588328D02*
X393730541Y-282088328D01*
X393730541Y-282088328D02*
X393587684Y-282302614D01*
X393587684Y-282302614D02*
X393444827Y-282445471D01*
X393444827Y-282445471D02*
X393301970Y-282516900D01*
D10*
D11*
X299989000Y-274502200D02*
X407989000Y-274502200D01*
D10*
D13*
X301680728Y-275206638D02*
X302823585Y-275206638D01*
X302002157Y-277206638D02*
X302252157Y-275206638D01*
X303240252Y-277206638D02*
X303406919Y-275873304D01*
X303490252Y-275206638D02*
X303383109Y-275301876D01*
X303383109Y-275301876D02*
X303466443Y-275397114D01*
X303466443Y-275397114D02*
X303573586Y-275301876D01*
X303573586Y-275301876D02*
X303490252Y-275206638D01*
X303490252Y-275206638D02*
X303466443Y-275397114D01*
X304073586Y-275873304D02*
X304835490Y-275873304D01*
X304442633Y-275206638D02*
X304228348Y-276920923D01*
X304228348Y-276920923D02*
X304299776Y-277111400D01*
X304299776Y-277111400D02*
X304478348Y-277206638D01*
X304478348Y-277206638D02*
X304668824Y-277206638D01*
X305621205Y-277206638D02*
X305442633Y-277111400D01*
X305442633Y-277111400D02*
X305371205Y-276920923D01*
X305371205Y-276920923D02*
X305585490Y-275206638D01*
X307156919Y-277111400D02*
X306954538Y-277206638D01*
X306954538Y-277206638D02*
X306573585Y-277206638D01*
X306573585Y-277206638D02*
X306395014Y-277111400D01*
X306395014Y-277111400D02*
X306323585Y-276920923D01*
X306323585Y-276920923D02*
X306418824Y-276159019D01*
X306418824Y-276159019D02*
X306537871Y-275968542D01*
X306537871Y-275968542D02*
X306740252Y-275873304D01*
X306740252Y-275873304D02*
X307121204Y-275873304D01*
X307121204Y-275873304D02*
X307299776Y-275968542D01*
X307299776Y-275968542D02*
X307371204Y-276159019D01*
X307371204Y-276159019D02*
X307347395Y-276349495D01*
X307347395Y-276349495D02*
X306371204Y-276539971D01*
X308121205Y-277016161D02*
X308204538Y-277111400D01*
X308204538Y-277111400D02*
X308097395Y-277206638D01*
X308097395Y-277206638D02*
X308014062Y-277111400D01*
X308014062Y-277111400D02*
X308121205Y-277016161D01*
X308121205Y-277016161D02*
X308097395Y-277206638D01*
X308252157Y-275968542D02*
X308335490Y-276063780D01*
X308335490Y-276063780D02*
X308228348Y-276159019D01*
X308228348Y-276159019D02*
X308145014Y-276063780D01*
X308145014Y-276063780D02*
X308252157Y-275968542D01*
X308252157Y-275968542D02*
X308228348Y-276159019D01*
X311740253Y-277016161D02*
X311633110Y-277111400D01*
X311633110Y-277111400D02*
X311335491Y-277206638D01*
X311335491Y-277206638D02*
X311145015Y-277206638D01*
X311145015Y-277206638D02*
X310871205Y-277111400D01*
X310871205Y-277111400D02*
X310704539Y-276920923D01*
X310704539Y-276920923D02*
X310633110Y-276730447D01*
X310633110Y-276730447D02*
X310585491Y-276349495D01*
X310585491Y-276349495D02*
X310621205Y-276063780D01*
X310621205Y-276063780D02*
X310764062Y-275682828D01*
X310764062Y-275682828D02*
X310883110Y-275492352D01*
X310883110Y-275492352D02*
X311097396Y-275301876D01*
X311097396Y-275301876D02*
X311395015Y-275206638D01*
X311395015Y-275206638D02*
X311585491Y-275206638D01*
X311585491Y-275206638D02*
X311859301Y-275301876D01*
X311859301Y-275301876D02*
X311942634Y-275397114D01*
X313883110Y-277397114D02*
X313704539Y-277301876D01*
X313704539Y-277301876D02*
X313537872Y-277111400D01*
X313537872Y-277111400D02*
X313287872Y-276825685D01*
X313287872Y-276825685D02*
X313109301Y-276730447D01*
X313109301Y-276730447D02*
X312918824Y-276730447D01*
X312954539Y-277206638D02*
X312775967Y-277111400D01*
X312775967Y-277111400D02*
X312609301Y-276920923D01*
X312609301Y-276920923D02*
X312561681Y-276539971D01*
X312561681Y-276539971D02*
X312645015Y-275873304D01*
X312645015Y-275873304D02*
X312787872Y-275492352D01*
X312787872Y-275492352D02*
X313002158Y-275301876D01*
X313002158Y-275301876D02*
X313204539Y-275206638D01*
X313204539Y-275206638D02*
X313585491Y-275206638D01*
X313585491Y-275206638D02*
X313764062Y-275301876D01*
X313764062Y-275301876D02*
X313930729Y-275492352D01*
X313930729Y-275492352D02*
X313978348Y-275873304D01*
X313978348Y-275873304D02*
X313895015Y-276539971D01*
X313895015Y-276539971D02*
X313752158Y-276920923D01*
X313752158Y-276920923D02*
X313537872Y-277111400D01*
X313537872Y-277111400D02*
X313335491Y-277206638D01*
X313335491Y-277206638D02*
X312954539Y-277206638D01*
X314799777Y-275397114D02*
X314906919Y-275301876D01*
X314906919Y-275301876D02*
X315109300Y-275206638D01*
X315109300Y-275206638D02*
X315585491Y-275206638D01*
X315585491Y-275206638D02*
X315764062Y-275301876D01*
X315764062Y-275301876D02*
X315847396Y-275397114D01*
X315847396Y-275397114D02*
X315918824Y-275587590D01*
X315918824Y-275587590D02*
X315895015Y-275778066D01*
X315895015Y-275778066D02*
X315764062Y-276063780D01*
X315764062Y-276063780D02*
X314478348Y-277206638D01*
X314478348Y-277206638D02*
X315716443Y-277206638D01*
D10*
D11*
X301944826Y-272602614D02*
X301444826Y-272602614D01*
X301444826Y-273388328D02*
X301444826Y-271888328D01*
X301444826Y-271888328D02*
X302159112Y-271888328D01*
X302730540Y-273388328D02*
X302730540Y-272388328D01*
X302730540Y-271888328D02*
X302659112Y-271959757D01*
X302659112Y-271959757D02*
X302730540Y-272031185D01*
X302730540Y-272031185D02*
X302801969Y-271959757D01*
X302801969Y-271959757D02*
X302730540Y-271888328D01*
X302730540Y-271888328D02*
X302730540Y-272031185D01*
X303659112Y-273388328D02*
X303516255Y-273316900D01*
X303516255Y-273316900D02*
X303444826Y-273174042D01*
X303444826Y-273174042D02*
X303444826Y-271888328D01*
X304801969Y-273316900D02*
X304659112Y-273388328D01*
X304659112Y-273388328D02*
X304373398Y-273388328D01*
X304373398Y-273388328D02*
X304230540Y-273316900D01*
X304230540Y-273316900D02*
X304159112Y-273174042D01*
X304159112Y-273174042D02*
X304159112Y-272602614D01*
X304159112Y-272602614D02*
X304230540Y-272459757D01*
X304230540Y-272459757D02*
X304373398Y-272388328D01*
X304373398Y-272388328D02*
X304659112Y-272388328D01*
X304659112Y-272388328D02*
X304801969Y-272459757D01*
X304801969Y-272459757D02*
X304873398Y-272602614D01*
X304873398Y-272602614D02*
X304873398Y-272745471D01*
X304873398Y-272745471D02*
X304159112Y-272888328D01*
X305516254Y-273245471D02*
X305587683Y-273316900D01*
X305587683Y-273316900D02*
X305516254Y-273388328D01*
X305516254Y-273388328D02*
X305444826Y-273316900D01*
X305444826Y-273316900D02*
X305516254Y-273245471D01*
X305516254Y-273245471D02*
X305516254Y-273388328D01*
X305516254Y-272459757D02*
X305587683Y-272531185D01*
X305587683Y-272531185D02*
X305516254Y-272602614D01*
X305516254Y-272602614D02*
X305444826Y-272531185D01*
X305444826Y-272531185D02*
X305516254Y-272459757D01*
X305516254Y-272459757D02*
X305516254Y-272602614D01*
X308016255Y-273316900D02*
X307873397Y-273388328D01*
X307873397Y-273388328D02*
X307587683Y-273388328D01*
X307587683Y-273388328D02*
X307444826Y-273316900D01*
X307444826Y-273316900D02*
X307373397Y-273245471D01*
X307373397Y-273245471D02*
X307301969Y-273102614D01*
X307301969Y-273102614D02*
X307301969Y-272674042D01*
X307301969Y-272674042D02*
X307373397Y-272531185D01*
X307373397Y-272531185D02*
X307444826Y-272459757D01*
X307444826Y-272459757D02*
X307587683Y-272388328D01*
X307587683Y-272388328D02*
X307873397Y-272388328D01*
X307873397Y-272388328D02*
X308016255Y-272459757D01*
X309301969Y-272388328D02*
X309301969Y-273888328D01*
X309301969Y-273316900D02*
X309159111Y-273388328D01*
X309159111Y-273388328D02*
X308873397Y-273388328D01*
X308873397Y-273388328D02*
X308730540Y-273316900D01*
X308730540Y-273316900D02*
X308659111Y-273245471D01*
X308659111Y-273245471D02*
X308587683Y-273102614D01*
X308587683Y-273102614D02*
X308587683Y-272674042D01*
X308587683Y-272674042D02*
X308659111Y-272531185D01*
X308659111Y-272531185D02*
X308730540Y-272459757D01*
X308730540Y-272459757D02*
X308873397Y-272388328D01*
X308873397Y-272388328D02*
X309159111Y-272388328D01*
X309159111Y-272388328D02*
X309301969Y-272459757D01*
X309944826Y-272031185D02*
X310016254Y-271959757D01*
X310016254Y-271959757D02*
X310159112Y-271888328D01*
X310159112Y-271888328D02*
X310516254Y-271888328D01*
X310516254Y-271888328D02*
X310659112Y-271959757D01*
X310659112Y-271959757D02*
X310730540Y-272031185D01*
X310730540Y-272031185D02*
X310801969Y-272174042D01*
X310801969Y-272174042D02*
X310801969Y-272316900D01*
X310801969Y-272316900D02*
X310730540Y-272531185D01*
X310730540Y-272531185D02*
X309873397Y-273388328D01*
X309873397Y-273388328D02*
X310801969Y-273388328D01*
X311444825Y-273245471D02*
X311516254Y-273316900D01*
X311516254Y-273316900D02*
X311444825Y-273388328D01*
X311444825Y-273388328D02*
X311373397Y-273316900D01*
X311373397Y-273316900D02*
X311444825Y-273245471D01*
X311444825Y-273245471D02*
X311444825Y-273388328D01*
X312159111Y-273388328D02*
X312159111Y-271888328D01*
X312301969Y-272816900D02*
X312730540Y-273388328D01*
X312730540Y-272388328D02*
X312159111Y-272959757D01*
X313373397Y-273388328D02*
X313373397Y-272388328D01*
X313373397Y-271888328D02*
X313301969Y-271959757D01*
X313301969Y-271959757D02*
X313373397Y-272031185D01*
X313373397Y-272031185D02*
X313444826Y-271959757D01*
X313444826Y-271959757D02*
X313373397Y-271888328D01*
X313373397Y-271888328D02*
X313373397Y-272031185D01*
X314730541Y-273316900D02*
X314587683Y-273388328D01*
X314587683Y-273388328D02*
X314301969Y-273388328D01*
X314301969Y-273388328D02*
X314159112Y-273316900D01*
X314159112Y-273316900D02*
X314087683Y-273245471D01*
X314087683Y-273245471D02*
X314016255Y-273102614D01*
X314016255Y-273102614D02*
X314016255Y-272674042D01*
X314016255Y-272674042D02*
X314087683Y-272531185D01*
X314087683Y-272531185D02*
X314159112Y-272459757D01*
X314159112Y-272459757D02*
X314301969Y-272388328D01*
X314301969Y-272388328D02*
X314587683Y-272388328D01*
X314587683Y-272388328D02*
X314730541Y-272459757D01*
X316016255Y-273388328D02*
X316016255Y-272602614D01*
X316016255Y-272602614D02*
X315944826Y-272459757D01*
X315944826Y-272459757D02*
X315801969Y-272388328D01*
X315801969Y-272388328D02*
X315516255Y-272388328D01*
X315516255Y-272388328D02*
X315373397Y-272459757D01*
X316016255Y-273316900D02*
X315873397Y-273388328D01*
X315873397Y-273388328D02*
X315516255Y-273388328D01*
X315516255Y-273388328D02*
X315373397Y-273316900D01*
X315373397Y-273316900D02*
X315301969Y-273174042D01*
X315301969Y-273174042D02*
X315301969Y-273031185D01*
X315301969Y-273031185D02*
X315373397Y-272888328D01*
X315373397Y-272888328D02*
X315516255Y-272816900D01*
X315516255Y-272816900D02*
X315873397Y-272816900D01*
X315873397Y-272816900D02*
X316016255Y-272745471D01*
X317373398Y-273388328D02*
X317373398Y-271888328D01*
X317373398Y-273316900D02*
X317230540Y-273388328D01*
X317230540Y-273388328D02*
X316944826Y-273388328D01*
X316944826Y-273388328D02*
X316801969Y-273316900D01*
X316801969Y-273316900D02*
X316730540Y-273245471D01*
X316730540Y-273245471D02*
X316659112Y-273102614D01*
X316659112Y-273102614D02*
X316659112Y-272674042D01*
X316659112Y-272674042D02*
X316730540Y-272531185D01*
X316730540Y-272531185D02*
X316801969Y-272459757D01*
X316801969Y-272459757D02*
X316944826Y-272388328D01*
X316944826Y-272388328D02*
X317230540Y-272388328D01*
X317230540Y-272388328D02*
X317373398Y-272459757D01*
X317730541Y-273531185D02*
X318873398Y-273531185D01*
X319230540Y-272388328D02*
X319230540Y-273888328D01*
X319230540Y-272459757D02*
X319373398Y-272388328D01*
X319373398Y-272388328D02*
X319659112Y-272388328D01*
X319659112Y-272388328D02*
X319801969Y-272459757D01*
X319801969Y-272459757D02*
X319873398Y-272531185D01*
X319873398Y-272531185D02*
X319944826Y-272674042D01*
X319944826Y-272674042D02*
X319944826Y-273102614D01*
X319944826Y-273102614D02*
X319873398Y-273245471D01*
X319873398Y-273245471D02*
X319801969Y-273316900D01*
X319801969Y-273316900D02*
X319659112Y-273388328D01*
X319659112Y-273388328D02*
X319373398Y-273388328D01*
X319373398Y-273388328D02*
X319230540Y-273316900D01*
X321230541Y-273316900D02*
X321087683Y-273388328D01*
X321087683Y-273388328D02*
X320801969Y-273388328D01*
X320801969Y-273388328D02*
X320659112Y-273316900D01*
X320659112Y-273316900D02*
X320587683Y-273245471D01*
X320587683Y-273245471D02*
X320516255Y-273102614D01*
X320516255Y-273102614D02*
X320516255Y-272674042D01*
X320516255Y-272674042D02*
X320587683Y-272531185D01*
X320587683Y-272531185D02*
X320659112Y-272459757D01*
X320659112Y-272459757D02*
X320801969Y-272388328D01*
X320801969Y-272388328D02*
X321087683Y-272388328D01*
X321087683Y-272388328D02*
X321230541Y-272459757D01*
X321873397Y-273388328D02*
X321873397Y-271888328D01*
X321873397Y-272459757D02*
X322016255Y-272388328D01*
X322016255Y-272388328D02*
X322301969Y-272388328D01*
X322301969Y-272388328D02*
X322444826Y-272459757D01*
X322444826Y-272459757D02*
X322516255Y-272531185D01*
X322516255Y-272531185D02*
X322587683Y-272674042D01*
X322587683Y-272674042D02*
X322587683Y-273102614D01*
X322587683Y-273102614D02*
X322516255Y-273245471D01*
X322516255Y-273245471D02*
X322444826Y-273316900D01*
X322444826Y-273316900D02*
X322301969Y-273388328D01*
X322301969Y-273388328D02*
X322016255Y-273388328D01*
X322016255Y-273388328D02*
X321873397Y-273316900D01*
D10*
D11*
X299989000Y-268502200D02*
X407989000Y-268502200D01*
D10*
D11*
X301373398Y-270616900D02*
X301587684Y-270688328D01*
X301587684Y-270688328D02*
X301944826Y-270688328D01*
X301944826Y-270688328D02*
X302087684Y-270616900D01*
X302087684Y-270616900D02*
X302159112Y-270545471D01*
X302159112Y-270545471D02*
X302230541Y-270402614D01*
X302230541Y-270402614D02*
X302230541Y-270259757D01*
X302230541Y-270259757D02*
X302159112Y-270116900D01*
X302159112Y-270116900D02*
X302087684Y-270045471D01*
X302087684Y-270045471D02*
X301944826Y-269974042D01*
X301944826Y-269974042D02*
X301659112Y-269902614D01*
X301659112Y-269902614D02*
X301516255Y-269831185D01*
X301516255Y-269831185D02*
X301444826Y-269759757D01*
X301444826Y-269759757D02*
X301373398Y-269616900D01*
X301373398Y-269616900D02*
X301373398Y-269474042D01*
X301373398Y-269474042D02*
X301444826Y-269331185D01*
X301444826Y-269331185D02*
X301516255Y-269259757D01*
X301516255Y-269259757D02*
X301659112Y-269188328D01*
X301659112Y-269188328D02*
X302016255Y-269188328D01*
X302016255Y-269188328D02*
X302230541Y-269259757D01*
X302873397Y-270688328D02*
X302873397Y-269188328D01*
X303516255Y-270688328D02*
X303516255Y-269902614D01*
X303516255Y-269902614D02*
X303444826Y-269759757D01*
X303444826Y-269759757D02*
X303301969Y-269688328D01*
X303301969Y-269688328D02*
X303087683Y-269688328D01*
X303087683Y-269688328D02*
X302944826Y-269759757D01*
X302944826Y-269759757D02*
X302873397Y-269831185D01*
X304801969Y-270616900D02*
X304659112Y-270688328D01*
X304659112Y-270688328D02*
X304373398Y-270688328D01*
X304373398Y-270688328D02*
X304230540Y-270616900D01*
X304230540Y-270616900D02*
X304159112Y-270474042D01*
X304159112Y-270474042D02*
X304159112Y-269902614D01*
X304159112Y-269902614D02*
X304230540Y-269759757D01*
X304230540Y-269759757D02*
X304373398Y-269688328D01*
X304373398Y-269688328D02*
X304659112Y-269688328D01*
X304659112Y-269688328D02*
X304801969Y-269759757D01*
X304801969Y-269759757D02*
X304873398Y-269902614D01*
X304873398Y-269902614D02*
X304873398Y-270045471D01*
X304873398Y-270045471D02*
X304159112Y-270188328D01*
X306087683Y-270616900D02*
X305944826Y-270688328D01*
X305944826Y-270688328D02*
X305659112Y-270688328D01*
X305659112Y-270688328D02*
X305516254Y-270616900D01*
X305516254Y-270616900D02*
X305444826Y-270474042D01*
X305444826Y-270474042D02*
X305444826Y-269902614D01*
X305444826Y-269902614D02*
X305516254Y-269759757D01*
X305516254Y-269759757D02*
X305659112Y-269688328D01*
X305659112Y-269688328D02*
X305944826Y-269688328D01*
X305944826Y-269688328D02*
X306087683Y-269759757D01*
X306087683Y-269759757D02*
X306159112Y-269902614D01*
X306159112Y-269902614D02*
X306159112Y-270045471D01*
X306159112Y-270045471D02*
X305444826Y-270188328D01*
X306587683Y-269688328D02*
X307159111Y-269688328D01*
X306801968Y-269188328D02*
X306801968Y-270474042D01*
X306801968Y-270474042D02*
X306873397Y-270616900D01*
X306873397Y-270616900D02*
X307016254Y-270688328D01*
X307016254Y-270688328D02*
X307159111Y-270688328D01*
X307659111Y-270545471D02*
X307730540Y-270616900D01*
X307730540Y-270616900D02*
X307659111Y-270688328D01*
X307659111Y-270688328D02*
X307587683Y-270616900D01*
X307587683Y-270616900D02*
X307659111Y-270545471D01*
X307659111Y-270545471D02*
X307659111Y-270688328D01*
X307659111Y-269759757D02*
X307730540Y-269831185D01*
X307730540Y-269831185D02*
X307659111Y-269902614D01*
X307659111Y-269902614D02*
X307587683Y-269831185D01*
X307587683Y-269831185D02*
X307659111Y-269759757D01*
X307659111Y-269759757D02*
X307659111Y-269902614D01*
D10*
D11*
X302301969Y-264545471D02*
X302230541Y-264616900D01*
X302230541Y-264616900D02*
X302016255Y-264688328D01*
X302016255Y-264688328D02*
X301873398Y-264688328D01*
X301873398Y-264688328D02*
X301659112Y-264616900D01*
X301659112Y-264616900D02*
X301516255Y-264474042D01*
X301516255Y-264474042D02*
X301444826Y-264331185D01*
X301444826Y-264331185D02*
X301373398Y-264045471D01*
X301373398Y-264045471D02*
X301373398Y-263831185D01*
X301373398Y-263831185D02*
X301444826Y-263545471D01*
X301444826Y-263545471D02*
X301516255Y-263402614D01*
X301516255Y-263402614D02*
X301659112Y-263259757D01*
X301659112Y-263259757D02*
X301873398Y-263188328D01*
X301873398Y-263188328D02*
X302016255Y-263188328D01*
X302016255Y-263188328D02*
X302230541Y-263259757D01*
X302230541Y-263259757D02*
X302301969Y-263331185D01*
X302944826Y-264688328D02*
X302944826Y-263188328D01*
X302944826Y-263188328D02*
X303516255Y-263188328D01*
X303516255Y-263188328D02*
X303659112Y-263259757D01*
X303659112Y-263259757D02*
X303730541Y-263331185D01*
X303730541Y-263331185D02*
X303801969Y-263474042D01*
X303801969Y-263474042D02*
X303801969Y-263688328D01*
X303801969Y-263688328D02*
X303730541Y-263831185D01*
X303730541Y-263831185D02*
X303659112Y-263902614D01*
X303659112Y-263902614D02*
X303516255Y-263974042D01*
X303516255Y-263974042D02*
X302944826Y-263974042D01*
X305301969Y-264545471D02*
X305230541Y-264616900D01*
X305230541Y-264616900D02*
X305016255Y-264688328D01*
X305016255Y-264688328D02*
X304873398Y-264688328D01*
X304873398Y-264688328D02*
X304659112Y-264616900D01*
X304659112Y-264616900D02*
X304516255Y-264474042D01*
X304516255Y-264474042D02*
X304444826Y-264331185D01*
X304444826Y-264331185D02*
X304373398Y-264045471D01*
X304373398Y-264045471D02*
X304373398Y-263831185D01*
X304373398Y-263831185D02*
X304444826Y-263545471D01*
X304444826Y-263545471D02*
X304516255Y-263402614D01*
X304516255Y-263402614D02*
X304659112Y-263259757D01*
X304659112Y-263259757D02*
X304873398Y-263188328D01*
X304873398Y-263188328D02*
X305016255Y-263188328D01*
X305016255Y-263188328D02*
X305230541Y-263259757D01*
X305230541Y-263259757D02*
X305301969Y-263331185D01*
X305944826Y-264688328D02*
X305944826Y-263188328D01*
X307730541Y-263116900D02*
X306444827Y-265045471D01*
X308159113Y-264616900D02*
X308373399Y-264688328D01*
X308373399Y-264688328D02*
X308730541Y-264688328D01*
X308730541Y-264688328D02*
X308873399Y-264616900D01*
X308873399Y-264616900D02*
X308944827Y-264545471D01*
X308944827Y-264545471D02*
X309016256Y-264402614D01*
X309016256Y-264402614D02*
X309016256Y-264259757D01*
X309016256Y-264259757D02*
X308944827Y-264116900D01*
X308944827Y-264116900D02*
X308873399Y-264045471D01*
X308873399Y-264045471D02*
X308730541Y-263974042D01*
X308730541Y-263974042D02*
X308444827Y-263902614D01*
X308444827Y-263902614D02*
X308301970Y-263831185D01*
X308301970Y-263831185D02*
X308230541Y-263759757D01*
X308230541Y-263759757D02*
X308159113Y-263616900D01*
X308159113Y-263616900D02*
X308159113Y-263474042D01*
X308159113Y-263474042D02*
X308230541Y-263331185D01*
X308230541Y-263331185D02*
X308301970Y-263259757D01*
X308301970Y-263259757D02*
X308444827Y-263188328D01*
X308444827Y-263188328D02*
X308801970Y-263188328D01*
X308801970Y-263188328D02*
X309016256Y-263259757D01*
X310801969Y-264688328D02*
X310801969Y-263188328D01*
X310801969Y-263188328D02*
X311373398Y-263188328D01*
X311373398Y-263188328D02*
X311516255Y-263259757D01*
X311516255Y-263259757D02*
X311587684Y-263331185D01*
X311587684Y-263331185D02*
X311659112Y-263474042D01*
X311659112Y-263474042D02*
X311659112Y-263688328D01*
X311659112Y-263688328D02*
X311587684Y-263831185D01*
X311587684Y-263831185D02*
X311516255Y-263902614D01*
X311516255Y-263902614D02*
X311373398Y-263974042D01*
X311373398Y-263974042D02*
X310801969Y-263974042D01*
X312301969Y-264688328D02*
X312301969Y-263688328D01*
X312301969Y-263974042D02*
X312373398Y-263831185D01*
X312373398Y-263831185D02*
X312444827Y-263759757D01*
X312444827Y-263759757D02*
X312587684Y-263688328D01*
X312587684Y-263688328D02*
X312730541Y-263688328D01*
X313444826Y-264688328D02*
X313301969Y-264616900D01*
X313301969Y-264616900D02*
X313230540Y-264545471D01*
X313230540Y-264545471D02*
X313159112Y-264402614D01*
X313159112Y-264402614D02*
X313159112Y-263974042D01*
X313159112Y-263974042D02*
X313230540Y-263831185D01*
X313230540Y-263831185D02*
X313301969Y-263759757D01*
X313301969Y-263759757D02*
X313444826Y-263688328D01*
X313444826Y-263688328D02*
X313659112Y-263688328D01*
X313659112Y-263688328D02*
X313801969Y-263759757D01*
X313801969Y-263759757D02*
X313873398Y-263831185D01*
X313873398Y-263831185D02*
X313944826Y-263974042D01*
X313944826Y-263974042D02*
X313944826Y-264402614D01*
X313944826Y-264402614D02*
X313873398Y-264545471D01*
X313873398Y-264545471D02*
X313801969Y-264616900D01*
X313801969Y-264616900D02*
X313659112Y-264688328D01*
X313659112Y-264688328D02*
X313444826Y-264688328D01*
X315230541Y-263688328D02*
X315230541Y-264902614D01*
X315230541Y-264902614D02*
X315159112Y-265045471D01*
X315159112Y-265045471D02*
X315087683Y-265116900D01*
X315087683Y-265116900D02*
X314944826Y-265188328D01*
X314944826Y-265188328D02*
X314730541Y-265188328D01*
X314730541Y-265188328D02*
X314587683Y-265116900D01*
X315230541Y-264616900D02*
X315087683Y-264688328D01*
X315087683Y-264688328D02*
X314801969Y-264688328D01*
X314801969Y-264688328D02*
X314659112Y-264616900D01*
X314659112Y-264616900D02*
X314587683Y-264545471D01*
X314587683Y-264545471D02*
X314516255Y-264402614D01*
X314516255Y-264402614D02*
X314516255Y-263974042D01*
X314516255Y-263974042D02*
X314587683Y-263831185D01*
X314587683Y-263831185D02*
X314659112Y-263759757D01*
X314659112Y-263759757D02*
X314801969Y-263688328D01*
X314801969Y-263688328D02*
X315087683Y-263688328D01*
X315087683Y-263688328D02*
X315230541Y-263759757D01*
X315944826Y-264688328D02*
X315944826Y-263688328D01*
X315944826Y-263974042D02*
X316016255Y-263831185D01*
X316016255Y-263831185D02*
X316087684Y-263759757D01*
X316087684Y-263759757D02*
X316230541Y-263688328D01*
X316230541Y-263688328D02*
X316373398Y-263688328D01*
X317516255Y-264688328D02*
X317516255Y-263902614D01*
X317516255Y-263902614D02*
X317444826Y-263759757D01*
X317444826Y-263759757D02*
X317301969Y-263688328D01*
X317301969Y-263688328D02*
X317016255Y-263688328D01*
X317016255Y-263688328D02*
X316873397Y-263759757D01*
X317516255Y-264616900D02*
X317373397Y-264688328D01*
X317373397Y-264688328D02*
X317016255Y-264688328D01*
X317016255Y-264688328D02*
X316873397Y-264616900D01*
X316873397Y-264616900D02*
X316801969Y-264474042D01*
X316801969Y-264474042D02*
X316801969Y-264331185D01*
X316801969Y-264331185D02*
X316873397Y-264188328D01*
X316873397Y-264188328D02*
X317016255Y-264116900D01*
X317016255Y-264116900D02*
X317373397Y-264116900D01*
X317373397Y-264116900D02*
X317516255Y-264045471D01*
X318230540Y-264688328D02*
X318230540Y-263688328D01*
X318230540Y-263831185D02*
X318301969Y-263759757D01*
X318301969Y-263759757D02*
X318444826Y-263688328D01*
X318444826Y-263688328D02*
X318659112Y-263688328D01*
X318659112Y-263688328D02*
X318801969Y-263759757D01*
X318801969Y-263759757D02*
X318873398Y-263902614D01*
X318873398Y-263902614D02*
X318873398Y-264688328D01*
X318873398Y-263902614D02*
X318944826Y-263759757D01*
X318944826Y-263759757D02*
X319087683Y-263688328D01*
X319087683Y-263688328D02*
X319301969Y-263688328D01*
X319301969Y-263688328D02*
X319444826Y-263759757D01*
X319444826Y-263759757D02*
X319516255Y-263902614D01*
X319516255Y-263902614D02*
X319516255Y-264688328D01*
X320230540Y-264688328D02*
X320230540Y-263688328D01*
X320230540Y-263831185D02*
X320301969Y-263759757D01*
X320301969Y-263759757D02*
X320444826Y-263688328D01*
X320444826Y-263688328D02*
X320659112Y-263688328D01*
X320659112Y-263688328D02*
X320801969Y-263759757D01*
X320801969Y-263759757D02*
X320873398Y-263902614D01*
X320873398Y-263902614D02*
X320873398Y-264688328D01*
X320873398Y-263902614D02*
X320944826Y-263759757D01*
X320944826Y-263759757D02*
X321087683Y-263688328D01*
X321087683Y-263688328D02*
X321301969Y-263688328D01*
X321301969Y-263688328D02*
X321444826Y-263759757D01*
X321444826Y-263759757D02*
X321516255Y-263902614D01*
X321516255Y-263902614D02*
X321516255Y-264688328D01*
X322873398Y-264688328D02*
X322873398Y-263902614D01*
X322873398Y-263902614D02*
X322801969Y-263759757D01*
X322801969Y-263759757D02*
X322659112Y-263688328D01*
X322659112Y-263688328D02*
X322373398Y-263688328D01*
X322373398Y-263688328D02*
X322230540Y-263759757D01*
X322873398Y-264616900D02*
X322730540Y-264688328D01*
X322730540Y-264688328D02*
X322373398Y-264688328D01*
X322373398Y-264688328D02*
X322230540Y-264616900D01*
X322230540Y-264616900D02*
X322159112Y-264474042D01*
X322159112Y-264474042D02*
X322159112Y-264331185D01*
X322159112Y-264331185D02*
X322230540Y-264188328D01*
X322230540Y-264188328D02*
X322373398Y-264116900D01*
X322373398Y-264116900D02*
X322730540Y-264116900D01*
X322730540Y-264116900D02*
X322873398Y-264045471D01*
X323587683Y-264688328D02*
X323587683Y-263188328D01*
X323587683Y-263759757D02*
X323730541Y-263688328D01*
X323730541Y-263688328D02*
X324016255Y-263688328D01*
X324016255Y-263688328D02*
X324159112Y-263759757D01*
X324159112Y-263759757D02*
X324230541Y-263831185D01*
X324230541Y-263831185D02*
X324301969Y-263974042D01*
X324301969Y-263974042D02*
X324301969Y-264402614D01*
X324301969Y-264402614D02*
X324230541Y-264545471D01*
X324230541Y-264545471D02*
X324159112Y-264616900D01*
X324159112Y-264616900D02*
X324016255Y-264688328D01*
X324016255Y-264688328D02*
X323730541Y-264688328D01*
X323730541Y-264688328D02*
X323587683Y-264616900D01*
X325159112Y-264688328D02*
X325016255Y-264616900D01*
X325016255Y-264616900D02*
X324944826Y-264474042D01*
X324944826Y-264474042D02*
X324944826Y-263188328D01*
X326301969Y-264616900D02*
X326159112Y-264688328D01*
X326159112Y-264688328D02*
X325873398Y-264688328D01*
X325873398Y-264688328D02*
X325730540Y-264616900D01*
X325730540Y-264616900D02*
X325659112Y-264474042D01*
X325659112Y-264474042D02*
X325659112Y-263902614D01*
X325659112Y-263902614D02*
X325730540Y-263759757D01*
X325730540Y-263759757D02*
X325873398Y-263688328D01*
X325873398Y-263688328D02*
X326159112Y-263688328D01*
X326159112Y-263688328D02*
X326301969Y-263759757D01*
X326301969Y-263759757D02*
X326373398Y-263902614D01*
X326373398Y-263902614D02*
X326373398Y-264045471D01*
X326373398Y-264045471D02*
X325659112Y-264188328D01*
X328159111Y-264688328D02*
X328159111Y-263188328D01*
X328159111Y-263188328D02*
X328516254Y-263188328D01*
X328516254Y-263188328D02*
X328730540Y-263259757D01*
X328730540Y-263259757D02*
X328873397Y-263402614D01*
X328873397Y-263402614D02*
X328944826Y-263545471D01*
X328944826Y-263545471D02*
X329016254Y-263831185D01*
X329016254Y-263831185D02*
X329016254Y-264045471D01*
X329016254Y-264045471D02*
X328944826Y-264331185D01*
X328944826Y-264331185D02*
X328873397Y-264474042D01*
X328873397Y-264474042D02*
X328730540Y-264616900D01*
X328730540Y-264616900D02*
X328516254Y-264688328D01*
X328516254Y-264688328D02*
X328159111Y-264688328D01*
X330301969Y-263688328D02*
X330301969Y-264688328D01*
X329659111Y-263688328D02*
X329659111Y-264474042D01*
X329659111Y-264474042D02*
X329730540Y-264616900D01*
X329730540Y-264616900D02*
X329873397Y-264688328D01*
X329873397Y-264688328D02*
X330087683Y-264688328D01*
X330087683Y-264688328D02*
X330230540Y-264616900D01*
X330230540Y-264616900D02*
X330301969Y-264545471D01*
X331659112Y-264688328D02*
X331659112Y-263902614D01*
X331659112Y-263902614D02*
X331587683Y-263759757D01*
X331587683Y-263759757D02*
X331444826Y-263688328D01*
X331444826Y-263688328D02*
X331159112Y-263688328D01*
X331159112Y-263688328D02*
X331016254Y-263759757D01*
X331659112Y-264616900D02*
X331516254Y-264688328D01*
X331516254Y-264688328D02*
X331159112Y-264688328D01*
X331159112Y-264688328D02*
X331016254Y-264616900D01*
X331016254Y-264616900D02*
X330944826Y-264474042D01*
X330944826Y-264474042D02*
X330944826Y-264331185D01*
X330944826Y-264331185D02*
X331016254Y-264188328D01*
X331016254Y-264188328D02*
X331159112Y-264116900D01*
X331159112Y-264116900D02*
X331516254Y-264116900D01*
X331516254Y-264116900D02*
X331659112Y-264045471D01*
X332587683Y-264688328D02*
X332444826Y-264616900D01*
X332444826Y-264616900D02*
X332373397Y-264474042D01*
X332373397Y-264474042D02*
X332373397Y-263188328D01*
X334301968Y-264688328D02*
X334301968Y-263188328D01*
X334301968Y-263188328D02*
X334873397Y-263188328D01*
X334873397Y-263188328D02*
X335016254Y-263259757D01*
X335016254Y-263259757D02*
X335087683Y-263331185D01*
X335087683Y-263331185D02*
X335159111Y-263474042D01*
X335159111Y-263474042D02*
X335159111Y-263688328D01*
X335159111Y-263688328D02*
X335087683Y-263831185D01*
X335087683Y-263831185D02*
X335016254Y-263902614D01*
X335016254Y-263902614D02*
X334873397Y-263974042D01*
X334873397Y-263974042D02*
X334301968Y-263974042D01*
X335730540Y-264616900D02*
X335944826Y-264688328D01*
X335944826Y-264688328D02*
X336301968Y-264688328D01*
X336301968Y-264688328D02*
X336444826Y-264616900D01*
X336444826Y-264616900D02*
X336516254Y-264545471D01*
X336516254Y-264545471D02*
X336587683Y-264402614D01*
X336587683Y-264402614D02*
X336587683Y-264259757D01*
X336587683Y-264259757D02*
X336516254Y-264116900D01*
X336516254Y-264116900D02*
X336444826Y-264045471D01*
X336444826Y-264045471D02*
X336301968Y-263974042D01*
X336301968Y-263974042D02*
X336016254Y-263902614D01*
X336016254Y-263902614D02*
X335873397Y-263831185D01*
X335873397Y-263831185D02*
X335801968Y-263759757D01*
X335801968Y-263759757D02*
X335730540Y-263616900D01*
X335730540Y-263616900D02*
X335730540Y-263474042D01*
X335730540Y-263474042D02*
X335801968Y-263331185D01*
X335801968Y-263331185D02*
X335873397Y-263259757D01*
X335873397Y-263259757D02*
X336016254Y-263188328D01*
X336016254Y-263188328D02*
X336373397Y-263188328D01*
X336373397Y-263188328D02*
X336587683Y-263259757D01*
X337230539Y-263188328D02*
X337230539Y-264402614D01*
X337230539Y-264402614D02*
X337301968Y-264545471D01*
X337301968Y-264545471D02*
X337373397Y-264616900D01*
X337373397Y-264616900D02*
X337516254Y-264688328D01*
X337516254Y-264688328D02*
X337801968Y-264688328D01*
X337801968Y-264688328D02*
X337944825Y-264616900D01*
X337944825Y-264616900D02*
X338016254Y-264545471D01*
X338016254Y-264545471D02*
X338087682Y-264402614D01*
X338087682Y-264402614D02*
X338087682Y-263188328D01*
D10*
D11*
X301444826Y-261688328D02*
X301444826Y-260188328D01*
X301444826Y-260188328D02*
X301944826Y-261259757D01*
X301944826Y-261259757D02*
X302444826Y-260188328D01*
X302444826Y-260188328D02*
X302444826Y-261688328D01*
X303801970Y-261688328D02*
X303801970Y-260902614D01*
X303801970Y-260902614D02*
X303730541Y-260759757D01*
X303730541Y-260759757D02*
X303587684Y-260688328D01*
X303587684Y-260688328D02*
X303301970Y-260688328D01*
X303301970Y-260688328D02*
X303159112Y-260759757D01*
X303801970Y-261616900D02*
X303659112Y-261688328D01*
X303659112Y-261688328D02*
X303301970Y-261688328D01*
X303301970Y-261688328D02*
X303159112Y-261616900D01*
X303159112Y-261616900D02*
X303087684Y-261474042D01*
X303087684Y-261474042D02*
X303087684Y-261331185D01*
X303087684Y-261331185D02*
X303159112Y-261188328D01*
X303159112Y-261188328D02*
X303301970Y-261116900D01*
X303301970Y-261116900D02*
X303659112Y-261116900D01*
X303659112Y-261116900D02*
X303801970Y-261045471D01*
X304516255Y-260688328D02*
X304516255Y-261688328D01*
X304516255Y-260831185D02*
X304587684Y-260759757D01*
X304587684Y-260759757D02*
X304730541Y-260688328D01*
X304730541Y-260688328D02*
X304944827Y-260688328D01*
X304944827Y-260688328D02*
X305087684Y-260759757D01*
X305087684Y-260759757D02*
X305159113Y-260902614D01*
X305159113Y-260902614D02*
X305159113Y-261688328D01*
X305659113Y-260688328D02*
X306230541Y-260688328D01*
X305873398Y-261688328D02*
X305873398Y-260402614D01*
X305873398Y-260402614D02*
X305944827Y-260259757D01*
X305944827Y-260259757D02*
X306087684Y-260188328D01*
X306087684Y-260188328D02*
X306230541Y-260188328D01*
X306730541Y-261688328D02*
X306730541Y-260688328D01*
X306730541Y-260974042D02*
X306801970Y-260831185D01*
X306801970Y-260831185D02*
X306873399Y-260759757D01*
X306873399Y-260759757D02*
X307016256Y-260688328D01*
X307016256Y-260688328D02*
X307159113Y-260688328D01*
X308230541Y-261616900D02*
X308087684Y-261688328D01*
X308087684Y-261688328D02*
X307801970Y-261688328D01*
X307801970Y-261688328D02*
X307659112Y-261616900D01*
X307659112Y-261616900D02*
X307587684Y-261474042D01*
X307587684Y-261474042D02*
X307587684Y-260902614D01*
X307587684Y-260902614D02*
X307659112Y-260759757D01*
X307659112Y-260759757D02*
X307801970Y-260688328D01*
X307801970Y-260688328D02*
X308087684Y-260688328D01*
X308087684Y-260688328D02*
X308230541Y-260759757D01*
X308230541Y-260759757D02*
X308301970Y-260902614D01*
X308301970Y-260902614D02*
X308301970Y-261045471D01*
X308301970Y-261045471D02*
X307587684Y-261188328D01*
X309587684Y-261688328D02*
X309587684Y-260188328D01*
X309587684Y-261616900D02*
X309444826Y-261688328D01*
X309444826Y-261688328D02*
X309159112Y-261688328D01*
X309159112Y-261688328D02*
X309016255Y-261616900D01*
X309016255Y-261616900D02*
X308944826Y-261545471D01*
X308944826Y-261545471D02*
X308873398Y-261402614D01*
X308873398Y-261402614D02*
X308873398Y-260974042D01*
X308873398Y-260974042D02*
X308944826Y-260831185D01*
X308944826Y-260831185D02*
X309016255Y-260759757D01*
X309016255Y-260759757D02*
X309159112Y-260688328D01*
X309159112Y-260688328D02*
X309444826Y-260688328D01*
X309444826Y-260688328D02*
X309587684Y-260759757D01*
X311373398Y-261616900D02*
X311587684Y-261688328D01*
X311587684Y-261688328D02*
X311944826Y-261688328D01*
X311944826Y-261688328D02*
X312087684Y-261616900D01*
X312087684Y-261616900D02*
X312159112Y-261545471D01*
X312159112Y-261545471D02*
X312230541Y-261402614D01*
X312230541Y-261402614D02*
X312230541Y-261259757D01*
X312230541Y-261259757D02*
X312159112Y-261116900D01*
X312159112Y-261116900D02*
X312087684Y-261045471D01*
X312087684Y-261045471D02*
X311944826Y-260974042D01*
X311944826Y-260974042D02*
X311659112Y-260902614D01*
X311659112Y-260902614D02*
X311516255Y-260831185D01*
X311516255Y-260831185D02*
X311444826Y-260759757D01*
X311444826Y-260759757D02*
X311373398Y-260616900D01*
X311373398Y-260616900D02*
X311373398Y-260474042D01*
X311373398Y-260474042D02*
X311444826Y-260331185D01*
X311444826Y-260331185D02*
X311516255Y-260259757D01*
X311516255Y-260259757D02*
X311659112Y-260188328D01*
X311659112Y-260188328D02*
X312016255Y-260188328D01*
X312016255Y-260188328D02*
X312230541Y-260259757D01*
X313516255Y-261616900D02*
X313373397Y-261688328D01*
X313373397Y-261688328D02*
X313087683Y-261688328D01*
X313087683Y-261688328D02*
X312944826Y-261616900D01*
X312944826Y-261616900D02*
X312873397Y-261545471D01*
X312873397Y-261545471D02*
X312801969Y-261402614D01*
X312801969Y-261402614D02*
X312801969Y-260974042D01*
X312801969Y-260974042D02*
X312873397Y-260831185D01*
X312873397Y-260831185D02*
X312944826Y-260759757D01*
X312944826Y-260759757D02*
X313087683Y-260688328D01*
X313087683Y-260688328D02*
X313373397Y-260688328D01*
X313373397Y-260688328D02*
X313516255Y-260759757D01*
X314159111Y-261688328D02*
X314159111Y-260188328D01*
X314801969Y-261688328D02*
X314801969Y-260902614D01*
X314801969Y-260902614D02*
X314730540Y-260759757D01*
X314730540Y-260759757D02*
X314587683Y-260688328D01*
X314587683Y-260688328D02*
X314373397Y-260688328D01*
X314373397Y-260688328D02*
X314230540Y-260759757D01*
X314230540Y-260759757D02*
X314159111Y-260831185D01*
X315516254Y-261688328D02*
X315516254Y-260688328D01*
X315516254Y-260831185D02*
X315587683Y-260759757D01*
X315587683Y-260759757D02*
X315730540Y-260688328D01*
X315730540Y-260688328D02*
X315944826Y-260688328D01*
X315944826Y-260688328D02*
X316087683Y-260759757D01*
X316087683Y-260759757D02*
X316159112Y-260902614D01*
X316159112Y-260902614D02*
X316159112Y-261688328D01*
X316159112Y-260902614D02*
X316230540Y-260759757D01*
X316230540Y-260759757D02*
X316373397Y-260688328D01*
X316373397Y-260688328D02*
X316587683Y-260688328D01*
X316587683Y-260688328D02*
X316730540Y-260759757D01*
X316730540Y-260759757D02*
X316801969Y-260902614D01*
X316801969Y-260902614D02*
X316801969Y-261688328D01*
X317516254Y-261688328D02*
X317516254Y-260688328D01*
X317516254Y-260188328D02*
X317444826Y-260259757D01*
X317444826Y-260259757D02*
X317516254Y-260331185D01*
X317516254Y-260331185D02*
X317587683Y-260259757D01*
X317587683Y-260259757D02*
X317516254Y-260188328D01*
X317516254Y-260188328D02*
X317516254Y-260331185D01*
X318016255Y-260688328D02*
X318587683Y-260688328D01*
X318230540Y-260188328D02*
X318230540Y-261474042D01*
X318230540Y-261474042D02*
X318301969Y-261616900D01*
X318301969Y-261616900D02*
X318444826Y-261688328D01*
X318444826Y-261688328D02*
X318587683Y-261688328D01*
X318944826Y-260688328D02*
X319730541Y-260688328D01*
X319730541Y-260688328D02*
X318944826Y-261688328D01*
X318944826Y-261688328D02*
X319730541Y-261688328D01*
D10*
D11*
X301230541Y-257188328D02*
X301730541Y-258688328D01*
X301730541Y-258688328D02*
X302230541Y-257188328D01*
X302944826Y-258688328D02*
X302801969Y-258616900D01*
X302801969Y-258616900D02*
X302730540Y-258545471D01*
X302730540Y-258545471D02*
X302659112Y-258402614D01*
X302659112Y-258402614D02*
X302659112Y-257974042D01*
X302659112Y-257974042D02*
X302730540Y-257831185D01*
X302730540Y-257831185D02*
X302801969Y-257759757D01*
X302801969Y-257759757D02*
X302944826Y-257688328D01*
X302944826Y-257688328D02*
X303159112Y-257688328D01*
X303159112Y-257688328D02*
X303301969Y-257759757D01*
X303301969Y-257759757D02*
X303373398Y-257831185D01*
X303373398Y-257831185D02*
X303444826Y-257974042D01*
X303444826Y-257974042D02*
X303444826Y-258402614D01*
X303444826Y-258402614D02*
X303373398Y-258545471D01*
X303373398Y-258545471D02*
X303301969Y-258616900D01*
X303301969Y-258616900D02*
X303159112Y-258688328D01*
X303159112Y-258688328D02*
X302944826Y-258688328D01*
X304301969Y-258688328D02*
X304159112Y-258616900D01*
X304159112Y-258616900D02*
X304087683Y-258474042D01*
X304087683Y-258474042D02*
X304087683Y-257188328D01*
X304873397Y-258688328D02*
X304873397Y-257188328D01*
X305016255Y-258116900D02*
X305444826Y-258688328D01*
X305444826Y-257688328D02*
X304873397Y-258259757D01*
X306659112Y-258616900D02*
X306516255Y-258688328D01*
X306516255Y-258688328D02*
X306230541Y-258688328D01*
X306230541Y-258688328D02*
X306087683Y-258616900D01*
X306087683Y-258616900D02*
X306016255Y-258474042D01*
X306016255Y-258474042D02*
X306016255Y-257902614D01*
X306016255Y-257902614D02*
X306087683Y-257759757D01*
X306087683Y-257759757D02*
X306230541Y-257688328D01*
X306230541Y-257688328D02*
X306516255Y-257688328D01*
X306516255Y-257688328D02*
X306659112Y-257759757D01*
X306659112Y-257759757D02*
X306730541Y-257902614D01*
X306730541Y-257902614D02*
X306730541Y-258045471D01*
X306730541Y-258045471D02*
X306016255Y-258188328D01*
X307373397Y-258688328D02*
X307373397Y-257688328D01*
X307373397Y-257974042D02*
X307444826Y-257831185D01*
X307444826Y-257831185D02*
X307516255Y-257759757D01*
X307516255Y-257759757D02*
X307659112Y-257688328D01*
X307659112Y-257688328D02*
X307801969Y-257688328D01*
X310159111Y-258688328D02*
X309444825Y-258688328D01*
X309444825Y-258688328D02*
X309444825Y-257188328D01*
X311301969Y-257688328D02*
X311301969Y-258688328D01*
X310659111Y-257688328D02*
X310659111Y-258474042D01*
X310659111Y-258474042D02*
X310730540Y-258616900D01*
X310730540Y-258616900D02*
X310873397Y-258688328D01*
X310873397Y-258688328D02*
X311087683Y-258688328D01*
X311087683Y-258688328D02*
X311230540Y-258616900D01*
X311230540Y-258616900D02*
X311301969Y-258545471D01*
X311873397Y-257688328D02*
X312230540Y-258688328D01*
X312587683Y-257688328D02*
X312230540Y-258688328D01*
X312230540Y-258688328D02*
X312087683Y-259045471D01*
X312087683Y-259045471D02*
X312016254Y-259116900D01*
X312016254Y-259116900D02*
X311873397Y-259188328D01*
X313087683Y-258616900D02*
X313230540Y-258688328D01*
X313230540Y-258688328D02*
X313516254Y-258688328D01*
X313516254Y-258688328D02*
X313659111Y-258616900D01*
X313659111Y-258616900D02*
X313730540Y-258474042D01*
X313730540Y-258474042D02*
X313730540Y-258402614D01*
X313730540Y-258402614D02*
X313659111Y-258259757D01*
X313659111Y-258259757D02*
X313516254Y-258188328D01*
X313516254Y-258188328D02*
X313301969Y-258188328D01*
X313301969Y-258188328D02*
X313159111Y-258116900D01*
X313159111Y-258116900D02*
X313087683Y-257974042D01*
X313087683Y-257974042D02*
X313087683Y-257902614D01*
X313087683Y-257902614D02*
X313159111Y-257759757D01*
X313159111Y-257759757D02*
X313301969Y-257688328D01*
X313301969Y-257688328D02*
X313516254Y-257688328D01*
X313516254Y-257688328D02*
X313659111Y-257759757D01*
X314159112Y-257688328D02*
X314730540Y-257688328D01*
X314373397Y-257188328D02*
X314373397Y-258474042D01*
X314373397Y-258474042D02*
X314444826Y-258616900D01*
X314444826Y-258616900D02*
X314587683Y-258688328D01*
X314587683Y-258688328D02*
X314730540Y-258688328D01*
X315801969Y-258616900D02*
X315659112Y-258688328D01*
X315659112Y-258688328D02*
X315373398Y-258688328D01*
X315373398Y-258688328D02*
X315230540Y-258616900D01*
X315230540Y-258616900D02*
X315159112Y-258474042D01*
X315159112Y-258474042D02*
X315159112Y-257902614D01*
X315159112Y-257902614D02*
X315230540Y-257759757D01*
X315230540Y-257759757D02*
X315373398Y-257688328D01*
X315373398Y-257688328D02*
X315659112Y-257688328D01*
X315659112Y-257688328D02*
X315801969Y-257759757D01*
X315801969Y-257759757D02*
X315873398Y-257902614D01*
X315873398Y-257902614D02*
X315873398Y-258045471D01*
X315873398Y-258045471D02*
X315159112Y-258188328D01*
X316516254Y-258688328D02*
X316516254Y-257688328D01*
X316516254Y-257974042D02*
X316587683Y-257831185D01*
X316587683Y-257831185D02*
X316659112Y-257759757D01*
X316659112Y-257759757D02*
X316801969Y-257688328D01*
X316801969Y-257688328D02*
X316944826Y-257688328D01*
X317444825Y-258688328D02*
X317444825Y-257188328D01*
X317444825Y-257759757D02*
X317587683Y-257688328D01*
X317587683Y-257688328D02*
X317873397Y-257688328D01*
X317873397Y-257688328D02*
X318016254Y-257759757D01*
X318016254Y-257759757D02*
X318087683Y-257831185D01*
X318087683Y-257831185D02*
X318159111Y-257974042D01*
X318159111Y-257974042D02*
X318159111Y-258402614D01*
X318159111Y-258402614D02*
X318087683Y-258545471D01*
X318087683Y-258545471D02*
X318016254Y-258616900D01*
X318016254Y-258616900D02*
X317873397Y-258688328D01*
X317873397Y-258688328D02*
X317587683Y-258688328D01*
X317587683Y-258688328D02*
X317444825Y-258616900D01*
X319444826Y-257688328D02*
X319444826Y-258688328D01*
X318801968Y-257688328D02*
X318801968Y-258474042D01*
X318801968Y-258474042D02*
X318873397Y-258616900D01*
X318873397Y-258616900D02*
X319016254Y-258688328D01*
X319016254Y-258688328D02*
X319230540Y-258688328D01*
X319230540Y-258688328D02*
X319373397Y-258616900D01*
X319373397Y-258616900D02*
X319444826Y-258545471D01*
X320159111Y-258688328D02*
X320159111Y-257688328D01*
X320159111Y-257974042D02*
X320230540Y-257831185D01*
X320230540Y-257831185D02*
X320301969Y-257759757D01*
X320301969Y-257759757D02*
X320444826Y-257688328D01*
X320444826Y-257688328D02*
X320587683Y-257688328D01*
X321730540Y-257688328D02*
X321730540Y-258902614D01*
X321730540Y-258902614D02*
X321659111Y-259045471D01*
X321659111Y-259045471D02*
X321587682Y-259116900D01*
X321587682Y-259116900D02*
X321444825Y-259188328D01*
X321444825Y-259188328D02*
X321230540Y-259188328D01*
X321230540Y-259188328D02*
X321087682Y-259116900D01*
X321730540Y-258616900D02*
X321587682Y-258688328D01*
X321587682Y-258688328D02*
X321301968Y-258688328D01*
X321301968Y-258688328D02*
X321159111Y-258616900D01*
X321159111Y-258616900D02*
X321087682Y-258545471D01*
X321087682Y-258545471D02*
X321016254Y-258402614D01*
X321016254Y-258402614D02*
X321016254Y-257974042D01*
X321016254Y-257974042D02*
X321087682Y-257831185D01*
X321087682Y-257831185D02*
X321159111Y-257759757D01*
X321159111Y-257759757D02*
X321301968Y-257688328D01*
X321301968Y-257688328D02*
X321587682Y-257688328D01*
X321587682Y-257688328D02*
X321730540Y-257759757D01*
D10*
D11*
X301373398Y-254331185D02*
X301444826Y-254259757D01*
X301444826Y-254259757D02*
X301587684Y-254188328D01*
X301587684Y-254188328D02*
X301944826Y-254188328D01*
X301944826Y-254188328D02*
X302087684Y-254259757D01*
X302087684Y-254259757D02*
X302159112Y-254331185D01*
X302159112Y-254331185D02*
X302230541Y-254474042D01*
X302230541Y-254474042D02*
X302230541Y-254616900D01*
X302230541Y-254616900D02*
X302159112Y-254831185D01*
X302159112Y-254831185D02*
X301301969Y-255688328D01*
X301301969Y-255688328D02*
X302230541Y-255688328D01*
X303159112Y-254188328D02*
X303301969Y-254188328D01*
X303301969Y-254188328D02*
X303444826Y-254259757D01*
X303444826Y-254259757D02*
X303516255Y-254331185D01*
X303516255Y-254331185D02*
X303587683Y-254474042D01*
X303587683Y-254474042D02*
X303659112Y-254759757D01*
X303659112Y-254759757D02*
X303659112Y-255116900D01*
X303659112Y-255116900D02*
X303587683Y-255402614D01*
X303587683Y-255402614D02*
X303516255Y-255545471D01*
X303516255Y-255545471D02*
X303444826Y-255616900D01*
X303444826Y-255616900D02*
X303301969Y-255688328D01*
X303301969Y-255688328D02*
X303159112Y-255688328D01*
X303159112Y-255688328D02*
X303016255Y-255616900D01*
X303016255Y-255616900D02*
X302944826Y-255545471D01*
X302944826Y-255545471D02*
X302873397Y-255402614D01*
X302873397Y-255402614D02*
X302801969Y-255116900D01*
X302801969Y-255116900D02*
X302801969Y-254759757D01*
X302801969Y-254759757D02*
X302873397Y-254474042D01*
X302873397Y-254474042D02*
X302944826Y-254331185D01*
X302944826Y-254331185D02*
X303016255Y-254259757D01*
X303016255Y-254259757D02*
X303159112Y-254188328D01*
X304230540Y-254331185D02*
X304301968Y-254259757D01*
X304301968Y-254259757D02*
X304444826Y-254188328D01*
X304444826Y-254188328D02*
X304801968Y-254188328D01*
X304801968Y-254188328D02*
X304944826Y-254259757D01*
X304944826Y-254259757D02*
X305016254Y-254331185D01*
X305016254Y-254331185D02*
X305087683Y-254474042D01*
X305087683Y-254474042D02*
X305087683Y-254616900D01*
X305087683Y-254616900D02*
X305016254Y-254831185D01*
X305016254Y-254831185D02*
X304159111Y-255688328D01*
X304159111Y-255688328D02*
X305087683Y-255688328D01*
X306373397Y-254688328D02*
X306373397Y-255688328D01*
X306016254Y-254116900D02*
X305659111Y-255188328D01*
X305659111Y-255188328D02*
X306587682Y-255188328D01*
X307159110Y-255116900D02*
X308301968Y-255116900D01*
X309301968Y-254188328D02*
X309444825Y-254188328D01*
X309444825Y-254188328D02*
X309587682Y-254259757D01*
X309587682Y-254259757D02*
X309659111Y-254331185D01*
X309659111Y-254331185D02*
X309730539Y-254474042D01*
X309730539Y-254474042D02*
X309801968Y-254759757D01*
X309801968Y-254759757D02*
X309801968Y-255116900D01*
X309801968Y-255116900D02*
X309730539Y-255402614D01*
X309730539Y-255402614D02*
X309659111Y-255545471D01*
X309659111Y-255545471D02*
X309587682Y-255616900D01*
X309587682Y-255616900D02*
X309444825Y-255688328D01*
X309444825Y-255688328D02*
X309301968Y-255688328D01*
X309301968Y-255688328D02*
X309159111Y-255616900D01*
X309159111Y-255616900D02*
X309087682Y-255545471D01*
X309087682Y-255545471D02*
X309016253Y-255402614D01*
X309016253Y-255402614D02*
X308944825Y-255116900D01*
X308944825Y-255116900D02*
X308944825Y-254759757D01*
X308944825Y-254759757D02*
X309016253Y-254474042D01*
X309016253Y-254474042D02*
X309087682Y-254331185D01*
X309087682Y-254331185D02*
X309159111Y-254259757D01*
X309159111Y-254259757D02*
X309301968Y-254188328D01*
X310301967Y-254188328D02*
X311301967Y-254188328D01*
X311301967Y-254188328D02*
X310659110Y-255688328D01*
X311873395Y-255116900D02*
X313016253Y-255116900D01*
X314516253Y-255688328D02*
X313659110Y-255688328D01*
X314087681Y-255688328D02*
X314087681Y-254188328D01*
X314087681Y-254188328D02*
X313944824Y-254402614D01*
X313944824Y-254402614D02*
X313801967Y-254545471D01*
X313801967Y-254545471D02*
X313659110Y-254616900D01*
X315873395Y-254188328D02*
X315159109Y-254188328D01*
X315159109Y-254188328D02*
X315087681Y-254902614D01*
X315087681Y-254902614D02*
X315159109Y-254831185D01*
X315159109Y-254831185D02*
X315301967Y-254759757D01*
X315301967Y-254759757D02*
X315659109Y-254759757D01*
X315659109Y-254759757D02*
X315801967Y-254831185D01*
X315801967Y-254831185D02*
X315873395Y-254902614D01*
X315873395Y-254902614D02*
X315944824Y-255045471D01*
X315944824Y-255045471D02*
X315944824Y-255402614D01*
X315944824Y-255402614D02*
X315873395Y-255545471D01*
X315873395Y-255545471D02*
X315801967Y-255616900D01*
X315801967Y-255616900D02*
X315659109Y-255688328D01*
X315659109Y-255688328D02*
X315301967Y-255688328D01*
X315301967Y-255688328D02*
X315159109Y-255616900D01*
X315159109Y-255616900D02*
X315087681Y-255545471D01*
D10*
D11*
X319989000Y-278502200D02*
X319989000Y-281502200D01*
D10*
D11*
X383989000Y-278502200D02*
X383989000Y-285002200D01*
D14*
X112380326Y-269729480D02*
X111785088Y-269729480D01*
X112499374Y-270086623D02*
X112082707Y-268836623D01*
X112082707Y-268836623D02*
X111666041Y-270086623D01*
X111308897Y-270027100D02*
X111189850Y-270086623D01*
X111189850Y-270086623D02*
X110951754Y-270086623D01*
X110951754Y-270086623D02*
X110832707Y-270027100D01*
X110832707Y-270027100D02*
X110773183Y-269908052D01*
X110773183Y-269908052D02*
X110773183Y-269848528D01*
X110773183Y-269848528D02*
X110832707Y-269729480D01*
X110832707Y-269729480D02*
X110951754Y-269669957D01*
X110951754Y-269669957D02*
X111130326Y-269669957D01*
X111130326Y-269669957D02*
X111249373Y-269610433D01*
X111249373Y-269610433D02*
X111308897Y-269491385D01*
X111308897Y-269491385D02*
X111308897Y-269431861D01*
X111308897Y-269431861D02*
X111249373Y-269312814D01*
X111249373Y-269312814D02*
X111130326Y-269253290D01*
X111130326Y-269253290D02*
X110951754Y-269253290D01*
X110951754Y-269253290D02*
X110832707Y-269312814D01*
X110296992Y-270027100D02*
X110177945Y-270086623D01*
X110177945Y-270086623D02*
X109939849Y-270086623D01*
X109939849Y-270086623D02*
X109820802Y-270027100D01*
X109820802Y-270027100D02*
X109761278Y-269908052D01*
X109761278Y-269908052D02*
X109761278Y-269848528D01*
X109761278Y-269848528D02*
X109820802Y-269729480D01*
X109820802Y-269729480D02*
X109939849Y-269669957D01*
X109939849Y-269669957D02*
X110118421Y-269669957D01*
X110118421Y-269669957D02*
X110237468Y-269610433D01*
X110237468Y-269610433D02*
X110296992Y-269491385D01*
X110296992Y-269491385D02*
X110296992Y-269431861D01*
X110296992Y-269431861D02*
X110237468Y-269312814D01*
X110237468Y-269312814D02*
X110118421Y-269253290D01*
X110118421Y-269253290D02*
X109939849Y-269253290D01*
X109939849Y-269253290D02*
X109820802Y-269312814D01*
X108749373Y-270027100D02*
X108868421Y-270086623D01*
X108868421Y-270086623D02*
X109106516Y-270086623D01*
X109106516Y-270086623D02*
X109225563Y-270027100D01*
X109225563Y-270027100D02*
X109285087Y-269908052D01*
X109285087Y-269908052D02*
X109285087Y-269431861D01*
X109285087Y-269431861D02*
X109225563Y-269312814D01*
X109225563Y-269312814D02*
X109106516Y-269253290D01*
X109106516Y-269253290D02*
X108868421Y-269253290D01*
X108868421Y-269253290D02*
X108749373Y-269312814D01*
X108749373Y-269312814D02*
X108689849Y-269431861D01*
X108689849Y-269431861D02*
X108689849Y-269550909D01*
X108689849Y-269550909D02*
X109285087Y-269669957D01*
X108154134Y-270086623D02*
X108154134Y-269253290D01*
X108154134Y-269372338D02*
X108094611Y-269312814D01*
X108094611Y-269312814D02*
X107975563Y-269253290D01*
X107975563Y-269253290D02*
X107796992Y-269253290D01*
X107796992Y-269253290D02*
X107677944Y-269312814D01*
X107677944Y-269312814D02*
X107618420Y-269431861D01*
X107618420Y-269431861D02*
X107618420Y-270086623D01*
X107618420Y-269431861D02*
X107558896Y-269312814D01*
X107558896Y-269312814D02*
X107439849Y-269253290D01*
X107439849Y-269253290D02*
X107261277Y-269253290D01*
X107261277Y-269253290D02*
X107142230Y-269312814D01*
X107142230Y-269312814D02*
X107082706Y-269431861D01*
X107082706Y-269431861D02*
X107082706Y-270086623D01*
X106487467Y-270086623D02*
X106487467Y-268836623D01*
X106487467Y-269312814D02*
X106368420Y-269253290D01*
X106368420Y-269253290D02*
X106130325Y-269253290D01*
X106130325Y-269253290D02*
X106011277Y-269312814D01*
X106011277Y-269312814D02*
X105951753Y-269372338D01*
X105951753Y-269372338D02*
X105892229Y-269491385D01*
X105892229Y-269491385D02*
X105892229Y-269848528D01*
X105892229Y-269848528D02*
X105951753Y-269967576D01*
X105951753Y-269967576D02*
X106011277Y-270027100D01*
X106011277Y-270027100D02*
X106130325Y-270086623D01*
X106130325Y-270086623D02*
X106368420Y-270086623D01*
X106368420Y-270086623D02*
X106487467Y-270027100D01*
X105177944Y-270086623D02*
X105296992Y-270027100D01*
X105296992Y-270027100D02*
X105356515Y-269908052D01*
X105356515Y-269908052D02*
X105356515Y-268836623D01*
X104820801Y-269253290D02*
X104523182Y-270086623D01*
X104225563Y-269253290D02*
X104523182Y-270086623D01*
X104523182Y-270086623D02*
X104642230Y-270384242D01*
X104642230Y-270384242D02*
X104701753Y-270443766D01*
X104701753Y-270443766D02*
X104820801Y-270503290D01*
X102380325Y-269431861D02*
X102201753Y-269491385D01*
X102201753Y-269491385D02*
X102142230Y-269550909D01*
X102142230Y-269550909D02*
X102082706Y-269669957D01*
X102082706Y-269669957D02*
X102082706Y-269848528D01*
X102082706Y-269848528D02*
X102142230Y-269967576D01*
X102142230Y-269967576D02*
X102201753Y-270027100D01*
X102201753Y-270027100D02*
X102320801Y-270086623D01*
X102320801Y-270086623D02*
X102796991Y-270086623D01*
X102796991Y-270086623D02*
X102796991Y-268836623D01*
X102796991Y-268836623D02*
X102380325Y-268836623D01*
X102380325Y-268836623D02*
X102261277Y-268896147D01*
X102261277Y-268896147D02*
X102201753Y-268955671D01*
X102201753Y-268955671D02*
X102142230Y-269074719D01*
X102142230Y-269074719D02*
X102142230Y-269193766D01*
X102142230Y-269193766D02*
X102201753Y-269312814D01*
X102201753Y-269312814D02*
X102261277Y-269372338D01*
X102261277Y-269372338D02*
X102380325Y-269431861D01*
X102380325Y-269431861D02*
X102796991Y-269431861D01*
X101368420Y-270086623D02*
X101487468Y-270027100D01*
X101487468Y-270027100D02*
X101546991Y-269967576D01*
X101546991Y-269967576D02*
X101606515Y-269848528D01*
X101606515Y-269848528D02*
X101606515Y-269491385D01*
X101606515Y-269491385D02*
X101546991Y-269372338D01*
X101546991Y-269372338D02*
X101487468Y-269312814D01*
X101487468Y-269312814D02*
X101368420Y-269253290D01*
X101368420Y-269253290D02*
X101189849Y-269253290D01*
X101189849Y-269253290D02*
X101070801Y-269312814D01*
X101070801Y-269312814D02*
X101011277Y-269372338D01*
X101011277Y-269372338D02*
X100951753Y-269491385D01*
X100951753Y-269491385D02*
X100951753Y-269848528D01*
X100951753Y-269848528D02*
X101011277Y-269967576D01*
X101011277Y-269967576D02*
X101070801Y-270027100D01*
X101070801Y-270027100D02*
X101189849Y-270086623D01*
X101189849Y-270086623D02*
X101368420Y-270086623D01*
X100594611Y-269253290D02*
X100118420Y-269253290D01*
X100416039Y-268836623D02*
X100416039Y-269908052D01*
X100416039Y-269908052D02*
X100356516Y-270027100D01*
X100356516Y-270027100D02*
X100237468Y-270086623D01*
X100237468Y-270086623D02*
X100118420Y-270086623D01*
X99880325Y-269253290D02*
X99404134Y-269253290D01*
X99701753Y-268836623D02*
X99701753Y-269908052D01*
X99701753Y-269908052D02*
X99642230Y-270027100D01*
X99642230Y-270027100D02*
X99523182Y-270086623D01*
X99523182Y-270086623D02*
X99404134Y-270086623D01*
X98808896Y-270086623D02*
X98927944Y-270027100D01*
X98927944Y-270027100D02*
X98987467Y-269967576D01*
X98987467Y-269967576D02*
X99046991Y-269848528D01*
X99046991Y-269848528D02*
X99046991Y-269491385D01*
X99046991Y-269491385D02*
X98987467Y-269372338D01*
X98987467Y-269372338D02*
X98927944Y-269312814D01*
X98927944Y-269312814D02*
X98808896Y-269253290D01*
X98808896Y-269253290D02*
X98630325Y-269253290D01*
X98630325Y-269253290D02*
X98511277Y-269312814D01*
X98511277Y-269312814D02*
X98451753Y-269372338D01*
X98451753Y-269372338D02*
X98392229Y-269491385D01*
X98392229Y-269491385D02*
X98392229Y-269848528D01*
X98392229Y-269848528D02*
X98451753Y-269967576D01*
X98451753Y-269967576D02*
X98511277Y-270027100D01*
X98511277Y-270027100D02*
X98630325Y-270086623D01*
X98630325Y-270086623D02*
X98808896Y-270086623D01*
X97856515Y-270086623D02*
X97856515Y-269253290D01*
X97856515Y-269372338D02*
X97796992Y-269312814D01*
X97796992Y-269312814D02*
X97677944Y-269253290D01*
X97677944Y-269253290D02*
X97499373Y-269253290D01*
X97499373Y-269253290D02*
X97380325Y-269312814D01*
X97380325Y-269312814D02*
X97320801Y-269431861D01*
X97320801Y-269431861D02*
X97320801Y-270086623D01*
X97320801Y-269431861D02*
X97261277Y-269312814D01*
X97261277Y-269312814D02*
X97142230Y-269253290D01*
X97142230Y-269253290D02*
X96963658Y-269253290D01*
X96963658Y-269253290D02*
X96844611Y-269312814D01*
X96844611Y-269312814D02*
X96785087Y-269431861D01*
X96785087Y-269431861D02*
X96785087Y-270086623D01*
D10*
%TO.C,C200*%
X201750000Y-181500000D02*
X202250000Y-181500000D01*
X201750000Y-182500000D02*
X201750000Y-181500000D01*
X202250000Y-181500000D02*
X202250000Y-182500000D01*
X202250000Y-182500000D02*
X201750000Y-182500000D01*
%TO.C,R155*%
X223250000Y-180750000D02*
X223750000Y-180750000D01*
X223250000Y-181750000D02*
X223250000Y-180750000D01*
X223750000Y-180750000D02*
X223750000Y-181750000D01*
X223750000Y-181750000D02*
X223250000Y-181750000D01*
%TO.C,U58*%
X157575000Y-185150000D02*
X157575000Y-186850000D01*
X157575000Y-185150000D02*
X158925000Y-185150000D01*
X157575000Y-186850000D02*
X158075000Y-187350000D01*
X158075000Y-187350000D02*
X158925000Y-187350000D01*
X158925000Y-185150000D02*
X158925000Y-187350000D01*
%TO.C,D14*%
X204550000Y-181370000D02*
X205450000Y-181370000D01*
X204550000Y-182670000D02*
X204550000Y-181370000D01*
X204800000Y-181920000D02*
X205000000Y-182220000D01*
X205000000Y-181770000D02*
X205000000Y-181920000D01*
X205000000Y-182220000D02*
X205200000Y-181920000D01*
X205000000Y-182370000D02*
X205000000Y-182220000D01*
X205200000Y-181920000D02*
X204800000Y-181920000D01*
X205200000Y-182220000D02*
X204800000Y-182220000D01*
X205450000Y-181370000D02*
X205450000Y-182670000D01*
X205450000Y-182670000D02*
X204550000Y-182670000D01*
%TO.C,H7*%
X140500000Y-154500000D02*
X149500000Y-154500000D01*
X149500000Y-145500000D01*
X140500000Y-145500000D01*
X140500000Y-154500000D01*
%TO.C,R256*%
X200000000Y-115250000D02*
X200500000Y-115250000D01*
X200000000Y-116250000D02*
X200000000Y-115250000D01*
X200500000Y-115250000D02*
X200500000Y-116250000D01*
X200500000Y-116250000D02*
X200000000Y-116250000D01*
%TO.C,R326*%
X127000000Y-181750000D02*
X127500000Y-181750000D01*
X127000000Y-182750000D02*
X127000000Y-181750000D01*
X127500000Y-181750000D02*
X127500000Y-182750000D01*
X127500000Y-182750000D02*
X127000000Y-182750000D01*
%TO.C,R146*%
X220000000Y-186000000D02*
X221000000Y-186000000D01*
X220000000Y-186500000D02*
X220000000Y-186000000D01*
X221000000Y-186000000D02*
X221000000Y-186500000D01*
X221000000Y-186500000D02*
X220000000Y-186500000D01*
%TO.C,Q3*%
X125500000Y-136000000D02*
X129500000Y-136000000D01*
X125500000Y-141000000D02*
X125500000Y-136000000D01*
X129500000Y-136000000D02*
X130500000Y-137000000D01*
X130500000Y-137000000D02*
X130500000Y-141000000D01*
X130500000Y-141000000D02*
X125500000Y-141000000D01*
%TO.C,U19*%
X131000000Y-108500000D02*
X135000000Y-108500000D01*
X131000000Y-112230000D02*
X131000000Y-108500000D01*
X132270000Y-113500000D02*
X131000000Y-112230000D01*
X135000000Y-108500000D02*
X135000000Y-113500000D01*
X135000000Y-113500000D02*
X132270000Y-113500000D01*
%TO.C,C137*%
X181250000Y-119750000D02*
X182250000Y-119750000D01*
X181250000Y-120250000D02*
X181250000Y-119750000D01*
X182250000Y-119750000D02*
X182250000Y-120250000D01*
X182250000Y-120250000D02*
X181250000Y-120250000D01*
%TO.C,U31*%
X139575000Y-114900000D02*
X139575000Y-116600000D01*
X139575000Y-114900000D02*
X140925000Y-114900000D01*
X139575000Y-116600000D02*
X140075000Y-117100000D01*
X140075000Y-117100000D02*
X140925000Y-117100000D01*
X140925000Y-114900000D02*
X140925000Y-117100000D01*
%TO.C,R218*%
X172750000Y-114944000D02*
X173750000Y-114944000D01*
X172750000Y-115444000D02*
X172750000Y-114944000D01*
X173750000Y-114944000D02*
X173750000Y-115444000D01*
X173750000Y-115444000D02*
X172750000Y-115444000D01*
%TO.C,R273*%
X207750000Y-186500000D02*
X208250000Y-186500000D01*
X207750000Y-187500000D02*
X207750000Y-186500000D01*
X208250000Y-186500000D02*
X208250000Y-187500000D01*
X208250000Y-187500000D02*
X207750000Y-187500000D01*
%TO.C,C179*%
X198750000Y-110750000D02*
X199250000Y-110750000D01*
X198750000Y-111750000D02*
X198750000Y-110750000D01*
X199250000Y-110750000D02*
X199250000Y-111750000D01*
X199250000Y-111750000D02*
X198750000Y-111750000D01*
%TO.C,C157*%
X172464000Y-117742000D02*
X172964000Y-117742000D01*
X172464000Y-118742000D02*
X172464000Y-117742000D01*
X172964000Y-117742000D02*
X172964000Y-118742000D01*
X172964000Y-118742000D02*
X172464000Y-118742000D01*
%TO.C,C226*%
X172500000Y-184750000D02*
X173500000Y-184750000D01*
X172500000Y-185250000D02*
X172500000Y-184750000D01*
X173500000Y-184750000D02*
X173500000Y-185250000D01*
X173500000Y-185250000D02*
X172500000Y-185250000D01*
%TO.C,R243*%
X163000000Y-112750000D02*
X163500000Y-112750000D01*
X163000000Y-113750000D02*
X163000000Y-112750000D01*
X163500000Y-112750000D02*
X163500000Y-113750000D01*
X163500000Y-113750000D02*
X163000000Y-113750000D01*
%TO.C,C234*%
X137500000Y-190750000D02*
X138000000Y-190750000D01*
X137500000Y-191750000D02*
X137500000Y-190750000D01*
X138000000Y-190750000D02*
X138000000Y-191750000D01*
X138000000Y-191750000D02*
X137500000Y-191750000D01*
%TO.C,C153*%
X148750000Y-116000000D02*
X149250000Y-116000000D01*
X148750000Y-117000000D02*
X148750000Y-116000000D01*
X149250000Y-116000000D02*
X149250000Y-117000000D01*
X149250000Y-117000000D02*
X148750000Y-117000000D01*
%TO.C,R305*%
X178500000Y-180250000D02*
X179000000Y-180250000D01*
X178500000Y-181250000D02*
X178500000Y-180250000D01*
X179000000Y-180250000D02*
X179000000Y-181250000D01*
X179000000Y-181250000D02*
X178500000Y-181250000D01*
%TO.C,U60*%
X163825000Y-182900000D02*
X163825000Y-184600000D01*
X163825000Y-182900000D02*
X165175000Y-182900000D01*
X163825000Y-184600000D02*
X164325000Y-185100000D01*
X164325000Y-185100000D02*
X165175000Y-185100000D01*
X165175000Y-182900000D02*
X165175000Y-185100000D01*
%TO.C,R216*%
X128250000Y-113000000D02*
X128750000Y-113000000D01*
X128250000Y-114000000D02*
X128250000Y-113000000D01*
X128750000Y-113000000D02*
X128750000Y-114000000D01*
X128750000Y-114000000D02*
X128250000Y-114000000D01*
%TO.C,Q8*%
X202500000Y-173250000D02*
X207500000Y-173250000D01*
X202500000Y-178250000D02*
X202500000Y-173250000D01*
X206500000Y-178250000D02*
X202500000Y-178250000D01*
X207500000Y-173250000D02*
X207500000Y-177250000D01*
X207500000Y-177250000D02*
X206500000Y-178250000D01*
%TO.C,C243*%
X179750000Y-180250000D02*
X180250000Y-180250000D01*
X179750000Y-181250000D02*
X179750000Y-180250000D01*
X180250000Y-180250000D02*
X180250000Y-181250000D01*
X180250000Y-181250000D02*
X179750000Y-181250000D01*
%TO.C,U35*%
X163825000Y-114900000D02*
X163825000Y-116600000D01*
X163825000Y-114900000D02*
X165175000Y-114900000D01*
X163825000Y-116600000D02*
X164325000Y-117100000D01*
X164325000Y-117100000D02*
X165175000Y-117100000D01*
X165175000Y-114900000D02*
X165175000Y-117100000D01*
%TO.C,C212*%
X185750000Y-184250000D02*
X186750000Y-184250000D01*
X185750000Y-184750000D02*
X185750000Y-184250000D01*
X186750000Y-184250000D02*
X186750000Y-184750000D01*
X186750000Y-184750000D02*
X185750000Y-184750000D01*
%TO.C,R136*%
X232500000Y-152000000D02*
X233500000Y-152000000D01*
X232500000Y-152500000D02*
X232500000Y-152000000D01*
X233500000Y-152000000D02*
X233500000Y-152500000D01*
X233500000Y-152500000D02*
X232500000Y-152500000D01*
%TO.C,C194*%
X209750000Y-113000000D02*
X210250000Y-113000000D01*
X209750000Y-114000000D02*
X209750000Y-113000000D01*
X210250000Y-113000000D02*
X210250000Y-114000000D01*
X210250000Y-114000000D02*
X209750000Y-114000000D01*
%TO.C,C215*%
X181250000Y-182250000D02*
X182250000Y-182250000D01*
X181250000Y-182750000D02*
X181250000Y-182250000D01*
X182250000Y-182250000D02*
X182250000Y-182750000D01*
X182250000Y-182750000D02*
X181250000Y-182750000D01*
%TO.C,C208*%
X167750000Y-187750000D02*
X168750000Y-187750000D01*
X167750000Y-188250000D02*
X167750000Y-187750000D01*
X168750000Y-187750000D02*
X168750000Y-188250000D01*
X168750000Y-188250000D02*
X167750000Y-188250000D01*
%TO.C,R293*%
X181250000Y-179250000D02*
X182250000Y-179250000D01*
X181250000Y-179750000D02*
X181250000Y-179250000D01*
X182250000Y-179250000D02*
X182250000Y-179750000D01*
X182250000Y-179750000D02*
X181250000Y-179750000D01*
%TO.C,C240*%
X131250000Y-184000000D02*
X131750000Y-184000000D01*
X131250000Y-185000000D02*
X131250000Y-184000000D01*
X131750000Y-184000000D02*
X131750000Y-185000000D01*
X131750000Y-185000000D02*
X131250000Y-185000000D01*
%TO.C,R286*%
X210150000Y-167150000D02*
X213350000Y-167150000D01*
X210150000Y-168850000D02*
X210150000Y-167150000D01*
X213350000Y-167150000D02*
X213350000Y-168850000D01*
X213350000Y-168850000D02*
X210150000Y-168850000D01*
%TO.C,R291*%
X188000000Y-185250000D02*
X189000000Y-185250000D01*
X188000000Y-185750000D02*
X188000000Y-185250000D01*
X189000000Y-185250000D02*
X189000000Y-185750000D01*
X189000000Y-185750000D02*
X188000000Y-185750000D01*
%TO.C,R247*%
X132750000Y-107250000D02*
X133750000Y-107250000D01*
X132750000Y-107750000D02*
X132750000Y-107250000D01*
X133750000Y-107250000D02*
X133750000Y-107750000D01*
X133750000Y-107750000D02*
X132750000Y-107750000D01*
%TO.C,R158*%
X172750000Y-108500000D02*
X173750000Y-108500000D01*
X172750000Y-109000000D02*
X172750000Y-108500000D01*
X173750000Y-108500000D02*
X173750000Y-109000000D01*
X173750000Y-109000000D02*
X172750000Y-109000000D01*
%TO.C,L23*%
X184150000Y-185550000D02*
X186350000Y-185550000D01*
X184150000Y-186950000D02*
X184150000Y-185550000D01*
X186350000Y-185550000D02*
X186350000Y-186950000D01*
X186350000Y-186950000D02*
X184150000Y-186950000D01*
%TO.C,R135*%
X232500000Y-153250000D02*
X233500000Y-153250000D01*
X232500000Y-153750000D02*
X232500000Y-153250000D01*
X233500000Y-153250000D02*
X233500000Y-153750000D01*
X233500000Y-153750000D02*
X232500000Y-153750000D01*
%TO.C,R200*%
X211300000Y-145250000D02*
X211800000Y-145250000D01*
X211300000Y-146250000D02*
X211300000Y-145250000D01*
X211800000Y-145250000D02*
X211800000Y-146250000D01*
X211800000Y-146250000D02*
X211300000Y-146250000D01*
%TO.C,R190*%
X172500000Y-190750000D02*
X173500000Y-190750000D01*
X172500000Y-191250000D02*
X172500000Y-190750000D01*
X173500000Y-190750000D02*
X173500000Y-191250000D01*
X173500000Y-191250000D02*
X172500000Y-191250000D01*
%TO.C,C66*%
X126000000Y-173500000D02*
X126500000Y-173500000D01*
X126000000Y-174500000D02*
X126000000Y-173500000D01*
X126500000Y-173500000D02*
X126500000Y-174500000D01*
X126500000Y-174500000D02*
X126000000Y-174500000D01*
%TO.C,U13*%
X222500000Y-183250000D02*
X229500000Y-183250000D01*
X222500000Y-190250000D02*
X222500000Y-183250000D01*
X229000000Y-183250000D02*
X229500000Y-183750000D01*
X229500000Y-183250000D02*
X229500000Y-190250000D01*
X229500000Y-190250000D02*
X222500000Y-190250000D01*
%TO.C,R221*%
X139000000Y-112750000D02*
X139500000Y-112750000D01*
X139000000Y-113750000D02*
X139000000Y-112750000D01*
X139500000Y-112750000D02*
X139500000Y-113750000D01*
X139500000Y-113750000D02*
X139000000Y-113750000D01*
%TO.C,R214*%
X128250000Y-110500000D02*
X128750000Y-110500000D01*
X128250000Y-111500000D02*
X128250000Y-110500000D01*
X128750000Y-110500000D02*
X128750000Y-111500000D01*
X128750000Y-111500000D02*
X128250000Y-111500000D01*
%TO.C,R282*%
X198750000Y-190500000D02*
X199250000Y-190500000D01*
X198750000Y-191500000D02*
X198750000Y-190500000D01*
X199250000Y-190500000D02*
X199250000Y-191500000D01*
X199250000Y-191500000D02*
X198750000Y-191500000D01*
%TO.C,Q1*%
X184000000Y-145300000D02*
X189000000Y-145300000D01*
X184000000Y-149300000D02*
X184000000Y-145300000D01*
X185000000Y-150300000D02*
X184000000Y-149300000D01*
X189000000Y-145300000D02*
X189000000Y-150300000D01*
X189000000Y-150300000D02*
X185000000Y-150300000D01*
%TO.C,C20*%
X198750000Y-115250000D02*
X199250000Y-115250000D01*
X198750000Y-116250000D02*
X198750000Y-115250000D01*
X199250000Y-115250000D02*
X199250000Y-116250000D01*
X199250000Y-116250000D02*
X198750000Y-116250000D01*
%TO.C,R320*%
X128250000Y-181750000D02*
X128750000Y-181750000D01*
X128250000Y-182750000D02*
X128250000Y-181750000D01*
X128750000Y-181750000D02*
X128750000Y-182750000D01*
X128750000Y-182750000D02*
X128250000Y-182750000D01*
%TO.C,R300*%
X137500000Y-188500000D02*
X138000000Y-188500000D01*
X137500000Y-189500000D02*
X137500000Y-188500000D01*
X138000000Y-188500000D02*
X138000000Y-189500000D01*
X138000000Y-189500000D02*
X137500000Y-189500000D01*
%TO.C,R191*%
X187250000Y-155000000D02*
X188250000Y-155000000D01*
X187250000Y-155500000D02*
X187250000Y-155000000D01*
X188250000Y-155000000D02*
X188250000Y-155500000D01*
X188250000Y-155500000D02*
X187250000Y-155500000D01*
%TO.C,U22*%
X202550000Y-145230000D02*
X203950000Y-145230000D01*
X202550000Y-147803330D02*
X202550000Y-145230000D01*
X203016670Y-148270000D02*
X202550000Y-147803330D01*
X203950000Y-145230000D02*
X203950000Y-148270000D01*
X203950000Y-148270000D02*
X203016670Y-148270000D01*
%TO.C,U21*%
X208550000Y-148500000D02*
X211550000Y-148500000D01*
X208550000Y-151500000D02*
X208550000Y-148500000D01*
X210550000Y-151500000D02*
X208550000Y-151500000D01*
X210550000Y-151500000D02*
X211550000Y-150500000D01*
X211550000Y-148500000D02*
X211550000Y-150500000D01*
%TO.C,R313*%
X159250000Y-188500000D02*
X159750000Y-188500000D01*
X159250000Y-189500000D02*
X159250000Y-188500000D01*
X159750000Y-188500000D02*
X159750000Y-189500000D01*
X159750000Y-189500000D02*
X159250000Y-189500000D01*
%TO.C,C135*%
X187980000Y-118500000D02*
X188980000Y-118500000D01*
X187980000Y-119000000D02*
X187980000Y-118500000D01*
X188980000Y-118500000D02*
X188980000Y-119000000D01*
X188980000Y-119000000D02*
X187980000Y-119000000D01*
%TO.C,C211*%
X181270000Y-186750000D02*
X182270000Y-186750000D01*
X181270000Y-187250000D02*
X181270000Y-186750000D01*
X182270000Y-186750000D02*
X182270000Y-187250000D01*
X182270000Y-187250000D02*
X181270000Y-187250000D01*
%TO.C,R244*%
X166000000Y-112750000D02*
X166500000Y-112750000D01*
X166000000Y-113750000D02*
X166000000Y-112750000D01*
X166500000Y-112750000D02*
X166500000Y-113750000D01*
X166500000Y-113750000D02*
X166000000Y-113750000D01*
%TO.C,C67*%
X231000000Y-183250000D02*
X232000000Y-183250000D01*
X231000000Y-183750000D02*
X231000000Y-183250000D01*
X232000000Y-183250000D02*
X232000000Y-183750000D01*
X232000000Y-183750000D02*
X231000000Y-183750000D01*
%TO.C,C213*%
X188000000Y-186750000D02*
X189000000Y-186750000D01*
X188000000Y-187250000D02*
X188000000Y-186750000D01*
X189000000Y-186750000D02*
X189000000Y-187250000D01*
X189000000Y-187250000D02*
X188000000Y-187250000D01*
%TO.C,C214*%
X181250000Y-183750000D02*
X182250000Y-183750000D01*
X181250000Y-184250000D02*
X181250000Y-183750000D01*
X182250000Y-183750000D02*
X182250000Y-184250000D01*
X182250000Y-184250000D02*
X181250000Y-184250000D01*
%TO.C,R318*%
X127250000Y-173500000D02*
X127750000Y-173500000D01*
X127250000Y-174500000D02*
X127250000Y-173500000D01*
X127750000Y-173500000D02*
X127750000Y-174500000D01*
X127750000Y-174500000D02*
X127250000Y-174500000D01*
%TO.C,R212*%
X185000000Y-103500000D02*
X185500000Y-103500000D01*
X185000000Y-104500000D02*
X185000000Y-103500000D01*
X185500000Y-103500000D02*
X185500000Y-104500000D01*
X185500000Y-104500000D02*
X185000000Y-104500000D01*
%TO.C,C198*%
X195000000Y-186270000D02*
X195500000Y-186270000D01*
X195000000Y-187270000D02*
X195000000Y-186270000D01*
X195500000Y-186270000D02*
X195500000Y-187270000D01*
X195500000Y-187270000D02*
X195000000Y-187270000D01*
%TO.C,C147*%
X175250000Y-107250000D02*
X176250000Y-107250000D01*
X175250000Y-107750000D02*
X175250000Y-107250000D01*
X176250000Y-107250000D02*
X176250000Y-107750000D01*
X176250000Y-107750000D02*
X175250000Y-107750000D01*
%TO.C,R242*%
X148750000Y-112750000D02*
X149250000Y-112750000D01*
X148750000Y-113750000D02*
X148750000Y-112750000D01*
X149250000Y-112750000D02*
X149250000Y-113750000D01*
X149250000Y-113750000D02*
X148750000Y-113750000D01*
%TO.C,D4*%
X165600000Y-156600000D02*
X175000000Y-156600000D01*
X165600000Y-162600000D02*
X165600000Y-156600000D01*
X173000000Y-158200000D02*
X173000000Y-161000000D01*
X175000000Y-156600000D02*
X175000000Y-158200000D01*
X175000000Y-158200000D02*
X173000000Y-158200000D01*
X175000000Y-161000000D02*
X173000000Y-161000000D01*
X175000000Y-162600000D02*
X165600000Y-162600000D01*
X175000000Y-162600000D02*
X175000000Y-161000000D01*
%TO.C,FID5*%
X213000000Y-199000000D02*
G75*
G02*
X211000000Y-199000000I-1000000J0D01*
G01*
X211000000Y-199000000D02*
G75*
G02*
X213000000Y-199000000I1000000J0D01*
G01*
%TO.C,C247*%
X156750000Y-183000000D02*
X157250000Y-183000000D01*
X156750000Y-184000000D02*
X156750000Y-183000000D01*
X157250000Y-183000000D02*
X157250000Y-184000000D01*
X157250000Y-184000000D02*
X156750000Y-184000000D01*
%TO.C,R279*%
X206250000Y-189000000D02*
X206750000Y-189000000D01*
X206250000Y-190000000D02*
X206250000Y-189000000D01*
X206750000Y-189000000D02*
X206750000Y-190000000D01*
X206750000Y-190000000D02*
X206250000Y-190000000D01*
%TO.C,R327*%
X152750000Y-186250000D02*
X153250000Y-186250000D01*
X152750000Y-187250000D02*
X152750000Y-186250000D01*
X153250000Y-186250000D02*
X153250000Y-187250000D01*
X153250000Y-187250000D02*
X152750000Y-187250000D01*
%TO.C,R143*%
X228000000Y-195000000D02*
X228500000Y-195000000D01*
X228000000Y-196000000D02*
X228000000Y-195000000D01*
X228500000Y-195000000D02*
X228500000Y-196000000D01*
X228500000Y-196000000D02*
X228000000Y-196000000D01*
%TO.C,C222*%
X183500000Y-184250000D02*
X184500000Y-184250000D01*
X183500000Y-184750000D02*
X183500000Y-184250000D01*
X184500000Y-184250000D02*
X184500000Y-184750000D01*
X184500000Y-184750000D02*
X183500000Y-184750000D01*
%TO.C,U57*%
X175575000Y-181400000D02*
X175575000Y-183100000D01*
X175575000Y-181400000D02*
X176925000Y-181400000D01*
X175575000Y-183100000D02*
X176075000Y-183600000D01*
X176075000Y-183600000D02*
X176925000Y-183600000D01*
X176925000Y-181400000D02*
X176925000Y-183600000D01*
%TO.C,C161*%
X143750000Y-116000000D02*
X144250000Y-116000000D01*
X143750000Y-117000000D02*
X143750000Y-116000000D01*
X144250000Y-116000000D02*
X144250000Y-117000000D01*
X144250000Y-117000000D02*
X143750000Y-117000000D01*
%TO.C,C184*%
X197500000Y-115250000D02*
X198000000Y-115250000D01*
X197500000Y-116250000D02*
X197500000Y-115250000D01*
X198000000Y-115250000D02*
X198000000Y-116250000D01*
X198000000Y-116250000D02*
X197500000Y-116250000D01*
%TO.C,C108*%
X253750000Y-130000000D02*
X254250000Y-130000000D01*
X253750000Y-131000000D02*
X253750000Y-130000000D01*
X254250000Y-130000000D02*
X254250000Y-131000000D01*
X254250000Y-131000000D02*
X253750000Y-131000000D01*
%TO.C,R194*%
X206000000Y-145250000D02*
X206500000Y-145250000D01*
X206000000Y-146250000D02*
X206000000Y-145250000D01*
X206500000Y-145250000D02*
X206500000Y-146250000D01*
X206500000Y-146250000D02*
X206000000Y-146250000D01*
%TO.C,R302*%
X138750000Y-188500000D02*
X139250000Y-188500000D01*
X138750000Y-189500000D02*
X138750000Y-188500000D01*
X139250000Y-188500000D02*
X139250000Y-189500000D01*
X139250000Y-189500000D02*
X138750000Y-189500000D01*
%TO.C,R232*%
X159250000Y-112750000D02*
X159750000Y-112750000D01*
X159250000Y-113750000D02*
X159250000Y-112750000D01*
X159750000Y-112750000D02*
X159750000Y-113750000D01*
X159750000Y-113750000D02*
X159250000Y-113750000D01*
%TO.C,R228*%
X160500000Y-112750000D02*
X161000000Y-112750000D01*
X160500000Y-113750000D02*
X160500000Y-112750000D01*
X161000000Y-112750000D02*
X161000000Y-113750000D01*
X161000000Y-113750000D02*
X160500000Y-113750000D01*
%TO.C,R245*%
X147500000Y-112750000D02*
X148000000Y-112750000D01*
X147500000Y-113750000D02*
X147500000Y-112750000D01*
X148000000Y-112750000D02*
X148000000Y-113750000D01*
X148000000Y-113750000D02*
X147500000Y-113750000D01*
%TO.C,R324*%
X161750000Y-186250000D02*
X162250000Y-186250000D01*
X161750000Y-187250000D02*
X161750000Y-186250000D01*
X162250000Y-186250000D02*
X162250000Y-187250000D01*
X162250000Y-187250000D02*
X161750000Y-187250000D01*
%TO.C,R325*%
X146000000Y-181750000D02*
X147000000Y-181750000D01*
X146000000Y-182250000D02*
X146000000Y-181750000D01*
X147000000Y-181750000D02*
X147000000Y-182250000D01*
X147000000Y-182250000D02*
X146000000Y-182250000D01*
%TO.C,R208*%
X178750000Y-116750000D02*
X179750000Y-116750000D01*
X178750000Y-117250000D02*
X178750000Y-116750000D01*
X179750000Y-116750000D02*
X179750000Y-117250000D01*
X179750000Y-117250000D02*
X178750000Y-117250000D01*
%TO.C,R255*%
X197500000Y-117500000D02*
X198000000Y-117500000D01*
X197500000Y-118500000D02*
X197500000Y-117500000D01*
X198000000Y-117500000D02*
X198000000Y-118500000D01*
X198000000Y-118500000D02*
X197500000Y-118500000D01*
%TO.C,R306*%
X138750000Y-186250000D02*
X139250000Y-186250000D01*
X138750000Y-187250000D02*
X138750000Y-186250000D01*
X139250000Y-186250000D02*
X139250000Y-187250000D01*
X139250000Y-187250000D02*
X138750000Y-187250000D01*
%TO.C,C21*%
X206250000Y-184270000D02*
X206750000Y-184270000D01*
X206250000Y-185270000D02*
X206250000Y-184270000D01*
X206750000Y-184270000D02*
X206750000Y-185270000D01*
X206750000Y-185270000D02*
X206250000Y-185270000D01*
%TO.C,C181*%
X196250000Y-110750000D02*
X196750000Y-110750000D01*
X196250000Y-111750000D02*
X196250000Y-110750000D01*
X196750000Y-110750000D02*
X196750000Y-111750000D01*
X196750000Y-111750000D02*
X196250000Y-111750000D01*
%TO.C,FID3*%
X111000000Y-105000000D02*
G75*
G02*
X109000000Y-105000000I-1000000J0D01*
G01*
X109000000Y-105000000D02*
G75*
G02*
X111000000Y-105000000I1000000J0D01*
G01*
%TO.C,R337*%
X172750000Y-112250000D02*
X173750000Y-112250000D01*
X172750000Y-112750000D02*
X172750000Y-112250000D01*
X173750000Y-112250000D02*
X173750000Y-112750000D01*
X173750000Y-112750000D02*
X172750000Y-112750000D01*
%TO.C,C70*%
X232190000Y-180290000D02*
X232690000Y-180290000D01*
X232190000Y-181290000D02*
X232190000Y-180290000D01*
X232690000Y-180290000D02*
X232690000Y-181290000D01*
X232690000Y-181290000D02*
X232190000Y-181290000D01*
%TO.C,C126*%
X210050000Y-153750000D02*
X210550000Y-153750000D01*
X210050000Y-154750000D02*
X210050000Y-153750000D01*
X210550000Y-153750000D02*
X210550000Y-154750000D01*
X210550000Y-154750000D02*
X210050000Y-154750000D01*
%TO.C,C248*%
X156750000Y-188500000D02*
X157250000Y-188500000D01*
X156750000Y-189500000D02*
X156750000Y-188500000D01*
X157250000Y-188500000D02*
X157250000Y-189500000D01*
X157250000Y-189500000D02*
X156750000Y-189500000D01*
%TO.C,R333*%
X130000000Y-192250000D02*
X131000000Y-192250000D01*
X130000000Y-192750000D02*
X130000000Y-192250000D01*
X131000000Y-192250000D02*
X131000000Y-192750000D01*
X131000000Y-192750000D02*
X130000000Y-192750000D01*
%TO.C,U29*%
X175600000Y-108750000D02*
X177350000Y-108750000D01*
X175600000Y-110750000D02*
X175600000Y-108750000D01*
X177900000Y-109300000D02*
X177350000Y-108750000D01*
X177900000Y-109300000D02*
X177900000Y-110750000D01*
X177900000Y-110750000D02*
X175600000Y-110750000D01*
%TO.C,R198*%
X212550000Y-153750000D02*
X213050000Y-153750000D01*
X212550000Y-154750000D02*
X212550000Y-153750000D01*
X213050000Y-153750000D02*
X213050000Y-154750000D01*
X213050000Y-154750000D02*
X212550000Y-154750000D01*
%TO.C,R145*%
X220000000Y-187250000D02*
X221000000Y-187250000D01*
X220000000Y-187750000D02*
X220000000Y-187250000D01*
X221000000Y-187250000D02*
X221000000Y-187750000D01*
X221000000Y-187750000D02*
X220000000Y-187750000D01*
%TO.C,C207*%
X188000000Y-179250000D02*
X189000000Y-179250000D01*
X188000000Y-179750000D02*
X188000000Y-179250000D01*
X189000000Y-179250000D02*
X189000000Y-179750000D01*
X189000000Y-179750000D02*
X188000000Y-179750000D01*
%TO.C,R210*%
X172750000Y-107250000D02*
X173750000Y-107250000D01*
X172750000Y-107750000D02*
X172750000Y-107250000D01*
X173750000Y-107250000D02*
X173750000Y-107750000D01*
X173750000Y-107750000D02*
X172750000Y-107750000D01*
%TO.C,C131*%
X170500000Y-107250000D02*
X171500000Y-107250000D01*
X170500000Y-107750000D02*
X170500000Y-107250000D01*
X171500000Y-107250000D02*
X171500000Y-107750000D01*
X171500000Y-107750000D02*
X170500000Y-107750000D01*
%TO.C,C144*%
X183500000Y-119750000D02*
X184500000Y-119750000D01*
X183500000Y-120250000D02*
X183500000Y-119750000D01*
X184500000Y-119750000D02*
X184500000Y-120250000D01*
X184500000Y-120250000D02*
X183500000Y-120250000D01*
%TO.C,R265*%
X206000000Y-108500000D02*
X206500000Y-108500000D01*
X206000000Y-109500000D02*
X206000000Y-108500000D01*
X206500000Y-108500000D02*
X206500000Y-109500000D01*
X206500000Y-109500000D02*
X206000000Y-109500000D01*
%TO.C,C185*%
X210750000Y-186500000D02*
X211250000Y-186500000D01*
X210750000Y-187500000D02*
X210750000Y-186500000D01*
X211250000Y-186500000D02*
X211250000Y-187500000D01*
X211250000Y-187500000D02*
X210750000Y-187500000D01*
%TO.C,C151*%
X166750000Y-116000000D02*
X167250000Y-116000000D01*
X166750000Y-117000000D02*
X166750000Y-116000000D01*
X167250000Y-116000000D02*
X167250000Y-117000000D01*
X167250000Y-117000000D02*
X166750000Y-117000000D01*
%TO.C,C252*%
X167750000Y-189250000D02*
X168750000Y-189250000D01*
X167750000Y-189750000D02*
X167750000Y-189250000D01*
X168750000Y-189250000D02*
X168750000Y-189750000D01*
X168750000Y-189750000D02*
X167750000Y-189750000D01*
%TO.C,C174*%
X168250000Y-107250000D02*
X169250000Y-107250000D01*
X168250000Y-107750000D02*
X168250000Y-107250000D01*
X169250000Y-107250000D02*
X169250000Y-107750000D01*
X169250000Y-107750000D02*
X168250000Y-107750000D01*
%TO.C,R150*%
X227000000Y-180750000D02*
X227500000Y-180750000D01*
X227000000Y-181750000D02*
X227000000Y-180750000D01*
X227500000Y-180750000D02*
X227500000Y-181750000D01*
X227500000Y-181750000D02*
X227000000Y-181750000D01*
%TO.C,U16*%
X232720000Y-131970000D02*
X239780000Y-131970000D01*
X232720000Y-137760000D02*
X232720000Y-131970000D01*
X233990000Y-139030000D02*
X232720000Y-137760000D01*
X239780000Y-131970000D02*
X239780000Y-139030000D01*
X239780000Y-139030000D02*
X233990000Y-139030000D01*
%TO.C,R192*%
X200250000Y-145270000D02*
X200750000Y-145270000D01*
X200250000Y-146270000D02*
X200250000Y-145270000D01*
X200750000Y-145270000D02*
X200750000Y-146270000D01*
X200750000Y-146270000D02*
X200250000Y-146270000D01*
%TO.C,R258*%
X200000000Y-113000000D02*
X200500000Y-113000000D01*
X200000000Y-114000000D02*
X200000000Y-113000000D01*
X200500000Y-113000000D02*
X200500000Y-114000000D01*
X200500000Y-114000000D02*
X200000000Y-114000000D01*
%TO.C,X1*%
X233750000Y-183750000D02*
X236750000Y-183750000D01*
X233750000Y-186750000D02*
X233750000Y-183750000D01*
X236150000Y-186750000D02*
X236750000Y-186250000D01*
X236750000Y-183750000D02*
X236750000Y-186750000D01*
X236750000Y-186750000D02*
X233750000Y-186750000D01*
%TO.C,R299*%
X128250000Y-188500000D02*
X128750000Y-188500000D01*
X128250000Y-189500000D02*
X128250000Y-188500000D01*
X128750000Y-188500000D02*
X128750000Y-189500000D01*
X128750000Y-189500000D02*
X128250000Y-189500000D01*
%TO.C,R309*%
X173500000Y-180250000D02*
X174000000Y-180250000D01*
X173500000Y-181250000D02*
X173500000Y-180250000D01*
X174000000Y-180250000D02*
X174000000Y-181250000D01*
X174000000Y-181250000D02*
X173500000Y-181250000D01*
%TO.C,R260*%
X200000000Y-117500000D02*
X200500000Y-117500000D01*
X200000000Y-118500000D02*
X200000000Y-117500000D01*
X200500000Y-117500000D02*
X200500000Y-118500000D01*
X200500000Y-118500000D02*
X200000000Y-118500000D01*
%TO.C,R339*%
X172750000Y-113500000D02*
X173750000Y-113500000D01*
X172750000Y-114000000D02*
X172750000Y-113500000D01*
X173750000Y-113500000D02*
X173750000Y-114000000D01*
X173750000Y-114000000D02*
X172750000Y-114000000D01*
%TO.C,R323*%
X129500000Y-181750000D02*
X130000000Y-181750000D01*
X129500000Y-182750000D02*
X129500000Y-181750000D01*
X130000000Y-181750000D02*
X130000000Y-182750000D01*
X130000000Y-182750000D02*
X129500000Y-182750000D01*
%TO.C,R303*%
X172250000Y-180250000D02*
X172750000Y-180250000D01*
X172250000Y-181250000D02*
X172250000Y-180250000D01*
X172750000Y-180250000D02*
X172750000Y-181250000D01*
X172750000Y-181250000D02*
X172250000Y-181250000D01*
%TO.C,R205*%
X178750000Y-119250000D02*
X179750000Y-119250000D01*
X178750000Y-119750000D02*
X178750000Y-119250000D01*
X179750000Y-119250000D02*
X179750000Y-119750000D01*
X179750000Y-119750000D02*
X178750000Y-119750000D01*
%TO.C,R138*%
X232500000Y-148500000D02*
X233500000Y-148500000D01*
X232500000Y-149000000D02*
X232500000Y-148500000D01*
X233500000Y-148500000D02*
X233500000Y-149000000D01*
X233500000Y-149000000D02*
X232500000Y-149000000D01*
%TO.C,R280*%
X201750000Y-190500000D02*
X202250000Y-190500000D01*
X201750000Y-191500000D02*
X201750000Y-190500000D01*
X202250000Y-190500000D02*
X202250000Y-191500000D01*
X202250000Y-191500000D02*
X201750000Y-191500000D01*
%TO.C,R298*%
X172500000Y-187750000D02*
X173500000Y-187750000D01*
X172500000Y-188250000D02*
X172500000Y-187750000D01*
X173500000Y-187750000D02*
X173500000Y-188250000D01*
X173500000Y-188250000D02*
X172500000Y-188250000D01*
%TO.C,C220*%
X180230000Y-193750000D02*
X181230000Y-193750000D01*
X180230000Y-194250000D02*
X180230000Y-193750000D01*
X181230000Y-193750000D02*
X181230000Y-194250000D01*
X181230000Y-194250000D02*
X180230000Y-194250000D01*
%TO.C,R264*%
X204750000Y-108500000D02*
X205250000Y-108500000D01*
X204750000Y-109500000D02*
X204750000Y-108500000D01*
X205250000Y-108500000D02*
X205250000Y-109500000D01*
X205250000Y-109500000D02*
X204750000Y-109500000D01*
%TO.C,R222*%
X137500000Y-113750000D02*
X138000000Y-113750000D01*
X137500000Y-114750000D02*
X137500000Y-113750000D01*
X138000000Y-113750000D02*
X138000000Y-114750000D01*
X138000000Y-114750000D02*
X137500000Y-114750000D01*
%TO.C,R322*%
X133500000Y-181750000D02*
X134500000Y-181750000D01*
X133500000Y-182250000D02*
X133500000Y-181750000D01*
X134500000Y-181750000D02*
X134500000Y-182250000D01*
X134500000Y-182250000D02*
X133500000Y-182250000D01*
%TO.C,C209*%
X170000000Y-189250000D02*
X171000000Y-189250000D01*
X170000000Y-189750000D02*
X170000000Y-189250000D01*
X171000000Y-189250000D02*
X171000000Y-189750000D01*
X171000000Y-189750000D02*
X170000000Y-189750000D01*
%TO.C,C250*%
X167000000Y-191500000D02*
X167500000Y-191500000D01*
X167000000Y-192500000D02*
X167000000Y-191500000D01*
X167500000Y-191500000D02*
X167500000Y-192500000D01*
X167500000Y-192500000D02*
X167000000Y-192500000D01*
%TO.C,R307*%
X137500000Y-186250000D02*
X138000000Y-186250000D01*
X137500000Y-187250000D02*
X137500000Y-186250000D01*
X138000000Y-186250000D02*
X138000000Y-187250000D01*
X138000000Y-187250000D02*
X137500000Y-187250000D01*
%TO.C,R262*%
X196250000Y-113000000D02*
X196750000Y-113000000D01*
X196250000Y-114000000D02*
X196250000Y-113000000D01*
X196750000Y-113000000D02*
X196750000Y-114000000D01*
X196750000Y-114000000D02*
X196250000Y-114000000D01*
%TO.C,R156*%
X224500000Y-180750000D02*
X225000000Y-180750000D01*
X224500000Y-181750000D02*
X224500000Y-180750000D01*
X225000000Y-180750000D02*
X225000000Y-181750000D01*
X225000000Y-181750000D02*
X224500000Y-181750000D01*
%TO.C,R283*%
X206500000Y-191250000D02*
X207500000Y-191250000D01*
X206500000Y-191750000D02*
X206500000Y-191250000D01*
X207500000Y-191250000D02*
X207500000Y-191750000D01*
X207500000Y-191750000D02*
X206500000Y-191750000D01*
%TO.C,R169*%
X241500000Y-135000000D02*
X242500000Y-135000000D01*
X241500000Y-135500000D02*
X241500000Y-135000000D01*
X242500000Y-135000000D02*
X242500000Y-135500000D01*
X242500000Y-135500000D02*
X241500000Y-135500000D01*
%TO.C,R267*%
X200000000Y-110750000D02*
X200500000Y-110750000D01*
X200000000Y-111750000D02*
X200000000Y-110750000D01*
X200500000Y-110750000D02*
X200500000Y-111750000D01*
X200500000Y-111750000D02*
X200000000Y-111750000D01*
%TO.C,U28*%
X168750000Y-109000000D02*
X170750000Y-109000000D01*
X168750000Y-110500000D02*
X168750000Y-109000000D01*
X170750000Y-109000000D02*
X170750000Y-110500000D01*
X170750000Y-110500000D02*
X168750000Y-110500000D01*
X170750000Y-110750000D02*
X170750000Y-110750000D01*
X170850000Y-110750000D02*
X170850000Y-110750000D01*
X170750000Y-110750000D02*
G75*
G02*
X170850000Y-110750000I50000J0D01*
G01*
X170850000Y-110750000D02*
G75*
G02*
X170750000Y-110750000I-50000J0D01*
G01*
%TO.C,R230*%
X177036000Y-115456000D02*
X177536000Y-115456000D01*
X177036000Y-116456000D02*
X177036000Y-115456000D01*
X177536000Y-115456000D02*
X177536000Y-116456000D01*
X177536000Y-116456000D02*
X177036000Y-116456000D01*
%TO.C,R199*%
X210050000Y-145250000D02*
X210550000Y-145250000D01*
X210050000Y-146250000D02*
X210050000Y-145250000D01*
X210550000Y-145250000D02*
X210550000Y-146250000D01*
X210550000Y-146250000D02*
X210050000Y-146250000D01*
%TO.C,R278*%
X207750000Y-189000000D02*
X208250000Y-189000000D01*
X207750000Y-190000000D02*
X207750000Y-189000000D01*
X208250000Y-189000000D02*
X208250000Y-190000000D01*
X208250000Y-190000000D02*
X207750000Y-190000000D01*
%TO.C,R224*%
X172722000Y-116214000D02*
X173722000Y-116214000D01*
X172722000Y-116714000D02*
X172722000Y-116214000D01*
X173722000Y-116214000D02*
X173722000Y-116714000D01*
X173722000Y-116714000D02*
X172722000Y-116714000D01*
%TO.C,R269*%
X203000000Y-117500000D02*
X203500000Y-117500000D01*
X203000000Y-118500000D02*
X203000000Y-117500000D01*
X203500000Y-117500000D02*
X203500000Y-118500000D01*
X203500000Y-118500000D02*
X203000000Y-118500000D01*
%TO.C,C239*%
X155500000Y-186250000D02*
X156000000Y-186250000D01*
X155500000Y-187250000D02*
X155500000Y-186250000D01*
X156000000Y-186250000D02*
X156000000Y-187250000D01*
X156000000Y-187250000D02*
X155500000Y-187250000D01*
%TO.C,R270*%
X210150000Y-131150000D02*
X213350000Y-131150000D01*
X210150000Y-132850000D02*
X210150000Y-131150000D01*
X213350000Y-131150000D02*
X213350000Y-132850000D01*
X213350000Y-132850000D02*
X210150000Y-132850000D01*
%TO.C,U34*%
X133325000Y-114900000D02*
X133325000Y-116600000D01*
X133325000Y-114900000D02*
X134675000Y-114900000D01*
X133325000Y-116600000D02*
X133825000Y-117100000D01*
X133825000Y-117100000D02*
X134675000Y-117100000D01*
X134675000Y-114900000D02*
X134675000Y-117100000D01*
%TO.C,C155*%
X142500000Y-116000000D02*
X143000000Y-116000000D01*
X142500000Y-117000000D02*
X142500000Y-116000000D01*
X143000000Y-116000000D02*
X143000000Y-117000000D01*
X143000000Y-117000000D02*
X142500000Y-117000000D01*
%TO.C,D11*%
X151300000Y-112600000D02*
X152200000Y-112600000D01*
X151300000Y-113900000D02*
X151300000Y-112600000D01*
X151550000Y-113150000D02*
X151750000Y-113450000D01*
X151750000Y-113000000D02*
X151750000Y-113150000D01*
X151750000Y-113450000D02*
X151950000Y-113150000D01*
X151750000Y-113600000D02*
X151750000Y-113450000D01*
X151950000Y-113150000D02*
X151550000Y-113150000D01*
X151950000Y-113450000D02*
X151550000Y-113450000D01*
X152200000Y-112600000D02*
X152200000Y-113900000D01*
X152200000Y-113900000D02*
X151300000Y-113900000D01*
%TO.C,C158*%
X155000000Y-115000000D02*
X156000000Y-115000000D01*
X155000000Y-115500000D02*
X155000000Y-115000000D01*
X156000000Y-115000000D02*
X156000000Y-115500000D01*
X156000000Y-115500000D02*
X155000000Y-115500000D01*
%TO.C,D22*%
X164300000Y-186100000D02*
X165200000Y-186100000D01*
X164300000Y-187400000D02*
X164300000Y-186100000D01*
X164550000Y-186650000D02*
X164750000Y-186950000D01*
X164750000Y-186500000D02*
X164750000Y-186650000D01*
X164750000Y-186950000D02*
X164950000Y-186650000D01*
X164750000Y-187100000D02*
X164750000Y-186950000D01*
X164950000Y-186650000D02*
X164550000Y-186650000D01*
X164950000Y-186950000D02*
X164550000Y-186950000D01*
X165200000Y-186100000D02*
X165200000Y-187400000D01*
X165200000Y-187400000D02*
X164300000Y-187400000D01*
%TO.C,C150*%
X160500000Y-116000000D02*
X161000000Y-116000000D01*
X160500000Y-117000000D02*
X160500000Y-116000000D01*
X161000000Y-116000000D02*
X161000000Y-117000000D01*
X161000000Y-117000000D02*
X160500000Y-117000000D01*
%TO.C,Q6*%
X208500000Y-138250000D02*
X209500000Y-137250000D01*
X208500000Y-142250000D02*
X208500000Y-138250000D01*
X209500000Y-137250000D02*
X213500000Y-137250000D01*
X213500000Y-137250000D02*
X213500000Y-142250000D01*
X213500000Y-142250000D02*
X208500000Y-142250000D01*
%TO.C,C163*%
X137500000Y-116000000D02*
X138000000Y-116000000D01*
X137500000Y-117000000D02*
X137500000Y-116000000D01*
X138000000Y-116000000D02*
X138000000Y-117000000D01*
X138000000Y-117000000D02*
X137500000Y-117000000D01*
%TO.C,R285*%
X203250000Y-181500000D02*
X203750000Y-181500000D01*
X203250000Y-182500000D02*
X203250000Y-181500000D01*
X203750000Y-181500000D02*
X203750000Y-182500000D01*
X203750000Y-182500000D02*
X203250000Y-182500000D01*
%TO.C,R236*%
X158000000Y-112750000D02*
X158500000Y-112750000D01*
X158000000Y-113750000D02*
X158000000Y-112750000D01*
X158500000Y-112750000D02*
X158500000Y-113750000D01*
X158500000Y-113750000D02*
X158000000Y-113750000D01*
%TO.C,R330*%
X149000000Y-182250000D02*
X150000000Y-182250000D01*
X149000000Y-182750000D02*
X149000000Y-182250000D01*
X150000000Y-182250000D02*
X150000000Y-182750000D01*
X150000000Y-182750000D02*
X149000000Y-182750000D01*
%TO.C,D21*%
X153800000Y-188350000D02*
X154700000Y-188350000D01*
X153800000Y-189650000D02*
X153800000Y-188350000D01*
X154050000Y-188800000D02*
X154450000Y-188800000D01*
X154050000Y-189100000D02*
X154450000Y-189100000D01*
X154250000Y-188650000D02*
X154250000Y-188800000D01*
X154250000Y-188800000D02*
X154050000Y-189100000D01*
X154250000Y-189250000D02*
X154250000Y-189100000D01*
X154450000Y-189100000D02*
X154250000Y-188800000D01*
X154700000Y-188350000D02*
X154700000Y-189650000D01*
X154700000Y-189650000D02*
X153800000Y-189650000D01*
%TO.C,C191*%
X208500000Y-113000000D02*
X209000000Y-113000000D01*
X208500000Y-114000000D02*
X208500000Y-113000000D01*
X209000000Y-113000000D02*
X209000000Y-114000000D01*
X209000000Y-114000000D02*
X208500000Y-114000000D01*
%TO.C,C168*%
X153000000Y-112750000D02*
X153500000Y-112750000D01*
X153000000Y-113750000D02*
X153000000Y-112750000D01*
X153500000Y-112750000D02*
X153500000Y-113750000D01*
X153500000Y-113750000D02*
X153000000Y-113750000D01*
%TO.C,Q12*%
X125500000Y-159000000D02*
X129500000Y-159000000D01*
X125500000Y-164000000D02*
X125500000Y-159000000D01*
X129500000Y-159000000D02*
X130500000Y-160000000D01*
X130500000Y-160000000D02*
X130500000Y-164000000D01*
X130500000Y-164000000D02*
X125500000Y-164000000D01*
%TO.C,C165*%
X175008000Y-114944000D02*
X176008000Y-114944000D01*
X175008000Y-115444000D02*
X175008000Y-114944000D01*
X176008000Y-114944000D02*
X176008000Y-115444000D01*
X176008000Y-115444000D02*
X175008000Y-115444000D01*
%TO.C,R248*%
X127000000Y-108000000D02*
X127500000Y-108000000D01*
X127000000Y-109000000D02*
X127000000Y-108000000D01*
X127500000Y-108000000D02*
X127500000Y-109000000D01*
X127500000Y-109000000D02*
X127000000Y-109000000D01*
%TO.C,C170*%
X156750000Y-112750000D02*
X157250000Y-112750000D01*
X156750000Y-113750000D02*
X156750000Y-112750000D01*
X157250000Y-112750000D02*
X157250000Y-113750000D01*
X157250000Y-113750000D02*
X156750000Y-113750000D01*
%TO.C,R284*%
X198000000Y-183750000D02*
X198500000Y-183750000D01*
X198000000Y-184750000D02*
X198000000Y-183750000D01*
X198500000Y-183750000D02*
X198500000Y-184750000D01*
X198500000Y-184750000D02*
X198000000Y-184750000D01*
%TO.C,R310*%
X172250000Y-182500000D02*
X172750000Y-182500000D01*
X172250000Y-183500000D02*
X172250000Y-182500000D01*
X172750000Y-182500000D02*
X172750000Y-183500000D01*
X172750000Y-183500000D02*
X172250000Y-183500000D01*
%TO.C,C28*%
X230190000Y-180290000D02*
X230690000Y-180290000D01*
X230190000Y-181290000D02*
X230190000Y-180290000D01*
X230690000Y-180290000D02*
X230690000Y-181290000D01*
X230690000Y-181290000D02*
X230190000Y-181290000D01*
%TO.C,U24*%
X183500000Y-116750000D02*
X186500000Y-116750000D01*
X183500000Y-118750000D02*
X183500000Y-116750000D01*
X186000000Y-118750000D02*
X183500000Y-118750000D01*
X186500000Y-116750000D02*
X186500000Y-118250000D01*
X186500000Y-118250000D02*
X186000000Y-118750000D01*
%TO.C,C125*%
X208800000Y-153750000D02*
X209300000Y-153750000D01*
X208800000Y-154750000D02*
X208800000Y-153750000D01*
X209300000Y-153750000D02*
X209300000Y-154750000D01*
X209300000Y-154750000D02*
X208800000Y-154750000D01*
%TO.C,C229*%
X155250000Y-184000000D02*
X155750000Y-184000000D01*
X155250000Y-185000000D02*
X155250000Y-184000000D01*
X155750000Y-184000000D02*
X155750000Y-185000000D01*
X155750000Y-185000000D02*
X155250000Y-185000000D01*
%TO.C,R321*%
X155500000Y-188500000D02*
X156000000Y-188500000D01*
X155500000Y-189500000D02*
X155500000Y-188500000D01*
X156000000Y-188500000D02*
X156000000Y-189500000D01*
X156000000Y-189500000D02*
X155500000Y-189500000D01*
%TO.C,R229*%
X118160000Y-131560000D02*
X121360000Y-131560000D01*
X118160000Y-133260000D02*
X118160000Y-131560000D01*
X121360000Y-131560000D02*
X121360000Y-133260000D01*
X121360000Y-133260000D02*
X118160000Y-133260000D01*
%TO.C,R328*%
X163000000Y-186230000D02*
X163500000Y-186230000D01*
X163000000Y-187230000D02*
X163000000Y-186230000D01*
X163500000Y-186230000D02*
X163500000Y-187230000D01*
X163500000Y-187230000D02*
X163000000Y-187230000D01*
%TO.C,R197*%
X199000000Y-145270000D02*
X199500000Y-145270000D01*
X199000000Y-146270000D02*
X199000000Y-145270000D01*
X199500000Y-145270000D02*
X199500000Y-146270000D01*
X199500000Y-146270000D02*
X199000000Y-146270000D01*
%TO.C,U17*%
X249750000Y-133250000D02*
X254750000Y-133250000D01*
X249750000Y-137250000D02*
X249750000Y-133250000D01*
X253480000Y-137250000D02*
X249750000Y-137250000D01*
X254750000Y-133250000D02*
X254750000Y-135980000D01*
X254750000Y-135980000D02*
X253480000Y-137250000D01*
%TO.C,R338*%
X175000000Y-184750000D02*
X176000000Y-184750000D01*
X175000000Y-185250000D02*
X175000000Y-184750000D01*
X176000000Y-184750000D02*
X176000000Y-185250000D01*
X176000000Y-185250000D02*
X175000000Y-185250000D01*
%TO.C,U20*%
X182970000Y-152370000D02*
X186030000Y-152370000D01*
X182970000Y-154130000D02*
X182970000Y-152370000D01*
X185443330Y-154130000D02*
X182970000Y-154130000D01*
X186030000Y-152370000D02*
X186030000Y-153543330D01*
X186030000Y-153543330D02*
X185443330Y-154130000D01*
%TO.C,C227*%
X142500000Y-184000000D02*
X143000000Y-184000000D01*
X142500000Y-185000000D02*
X142500000Y-184000000D01*
X143000000Y-184000000D02*
X143000000Y-185000000D01*
X143000000Y-185000000D02*
X142500000Y-185000000D01*
%TO.C,C164*%
X130250000Y-107250000D02*
X131250000Y-107250000D01*
X130250000Y-107750000D02*
X130250000Y-107250000D01*
X131250000Y-107250000D02*
X131250000Y-107750000D01*
X131250000Y-107750000D02*
X130250000Y-107750000D01*
%TO.C,R193*%
X200250000Y-147500000D02*
X200750000Y-147500000D01*
X200250000Y-148500000D02*
X200250000Y-147500000D01*
X200750000Y-147500000D02*
X200750000Y-148500000D01*
X200750000Y-148500000D02*
X200250000Y-148500000D01*
%TO.C,R196*%
X207250000Y-147500000D02*
X207750000Y-147500000D01*
X207250000Y-148500000D02*
X207250000Y-147500000D01*
X207750000Y-147500000D02*
X207750000Y-148500000D01*
X207750000Y-148500000D02*
X207250000Y-148500000D01*
%TO.C,R217*%
X139000000Y-110500000D02*
X139500000Y-110500000D01*
X139000000Y-111500000D02*
X139000000Y-110500000D01*
X139500000Y-110500000D02*
X139500000Y-111500000D01*
X139500000Y-111500000D02*
X139000000Y-111500000D01*
%TO.C,C152*%
X155000000Y-116500000D02*
X156000000Y-116500000D01*
X155000000Y-117000000D02*
X155000000Y-116500000D01*
X156000000Y-116500000D02*
X156000000Y-117000000D01*
X156000000Y-117000000D02*
X155000000Y-117000000D01*
%TO.C,C242*%
X173500000Y-182500000D02*
X174000000Y-182500000D01*
X173500000Y-183500000D02*
X173500000Y-182500000D01*
X174000000Y-182500000D02*
X174000000Y-183500000D01*
X174000000Y-183500000D02*
X173500000Y-183500000D01*
%TO.C,D3*%
X165425000Y-121540000D02*
X174825000Y-121540000D01*
X165425000Y-127540000D02*
X165425000Y-121540000D01*
X172825000Y-123140000D02*
X172825000Y-125940000D01*
X174825000Y-121540000D02*
X174825000Y-123140000D01*
X174825000Y-123140000D02*
X172825000Y-123140000D01*
X174825000Y-125940000D02*
X172825000Y-125940000D01*
X174825000Y-127540000D02*
X165425000Y-127540000D01*
X174825000Y-127540000D02*
X174825000Y-125940000D01*
%TO.C,R329*%
X166000000Y-186250000D02*
X166500000Y-186250000D01*
X166000000Y-187250000D02*
X166000000Y-186250000D01*
X166500000Y-186250000D02*
X166500000Y-187250000D01*
X166500000Y-187250000D02*
X166000000Y-187250000D01*
%TO.C,C160*%
X150000000Y-116000000D02*
X150500000Y-116000000D01*
X150000000Y-117000000D02*
X150000000Y-116000000D01*
X150500000Y-116000000D02*
X150500000Y-117000000D01*
X150500000Y-117000000D02*
X150000000Y-117000000D01*
%TO.C,D5*%
X165600000Y-137400000D02*
X175000000Y-137400000D01*
X165600000Y-143400000D02*
X165600000Y-137400000D01*
X173000000Y-139000000D02*
X173000000Y-141800000D01*
X175000000Y-137400000D02*
X175000000Y-139000000D01*
X175000000Y-139000000D02*
X173000000Y-139000000D01*
X175000000Y-141800000D02*
X173000000Y-141800000D01*
X175000000Y-143400000D02*
X165600000Y-143400000D01*
X175000000Y-143400000D02*
X175000000Y-141800000D01*
%TO.C,U54*%
X175600000Y-188750000D02*
X177350000Y-188750000D01*
X175600000Y-190750000D02*
X175600000Y-188750000D01*
X177900000Y-189300000D02*
X177350000Y-188750000D01*
X177900000Y-189300000D02*
X177900000Y-190750000D01*
X177900000Y-190750000D02*
X175600000Y-190750000D01*
%TO.C,C210*%
X181290000Y-185250000D02*
X182290000Y-185250000D01*
X181290000Y-185750000D02*
X181290000Y-185250000D01*
X182290000Y-185250000D02*
X182290000Y-185750000D01*
X182290000Y-185750000D02*
X181290000Y-185750000D01*
%TO.C,C68*%
X231000000Y-184250000D02*
X232000000Y-184250000D01*
X231000000Y-184750000D02*
X231000000Y-184250000D01*
X232000000Y-184250000D02*
X232000000Y-184750000D01*
X232000000Y-184750000D02*
X231000000Y-184750000D01*
%TO.C,C142*%
X187750000Y-103250000D02*
X188750000Y-103250000D01*
X187750000Y-103750000D02*
X187750000Y-103250000D01*
X188750000Y-103250000D02*
X188750000Y-103750000D01*
X188750000Y-103750000D02*
X187750000Y-103750000D01*
%TO.C,R308*%
X128250000Y-184000000D02*
X128750000Y-184000000D01*
X128250000Y-185000000D02*
X128250000Y-184000000D01*
X128750000Y-184000000D02*
X128750000Y-185000000D01*
X128750000Y-185000000D02*
X128250000Y-185000000D01*
%TO.C,C230*%
X160500000Y-186250000D02*
X161000000Y-186250000D01*
X160500000Y-187250000D02*
X160500000Y-186250000D01*
X161000000Y-186250000D02*
X161000000Y-187250000D01*
X161000000Y-187250000D02*
X160500000Y-187250000D01*
%TO.C,R263*%
X197500000Y-110750000D02*
X198000000Y-110750000D01*
X197500000Y-111750000D02*
X197500000Y-110750000D01*
X198000000Y-110750000D02*
X198000000Y-111750000D01*
X198000000Y-111750000D02*
X197500000Y-111750000D01*
%TO.C,R233*%
X127250000Y-125500000D02*
X127750000Y-125500000D01*
X127250000Y-126500000D02*
X127250000Y-125500000D01*
X127750000Y-125500000D02*
X127750000Y-126500000D01*
X127750000Y-126500000D02*
X127250000Y-126500000D01*
%TO.C,R257*%
X197500000Y-113000000D02*
X198000000Y-113000000D01*
X197500000Y-114000000D02*
X197500000Y-113000000D01*
X198000000Y-113000000D02*
X198000000Y-114000000D01*
X198000000Y-114000000D02*
X197500000Y-114000000D01*
%TO.C,H1*%
X260000000Y-100000000D02*
X100000000Y-100000000D01*
X100000000Y-200000000D01*
X260000000Y-200000000D01*
X260000000Y-100000000D01*
%TO.C,R311*%
X158000000Y-183000000D02*
X158500000Y-183000000D01*
X158000000Y-184000000D02*
X158000000Y-183000000D01*
X158500000Y-183000000D02*
X158500000Y-184000000D01*
X158500000Y-184000000D02*
X158000000Y-184000000D01*
%TO.C,R201*%
X212550000Y-145250000D02*
X213050000Y-145250000D01*
X212550000Y-146250000D02*
X212550000Y-145250000D01*
X213050000Y-145250000D02*
X213050000Y-146250000D01*
X213050000Y-146250000D02*
X212550000Y-146250000D01*
%TO.C,C42*%
X126000000Y-125500000D02*
X126500000Y-125500000D01*
X126000000Y-126500000D02*
X126000000Y-125500000D01*
X126500000Y-125500000D02*
X126500000Y-126500000D01*
X126500000Y-126500000D02*
X126000000Y-126500000D01*
%TO.C,SW1*%
X225050000Y-147825000D02*
X229550000Y-147825000D01*
X225050000Y-153175000D02*
X225050000Y-147825000D01*
X225700000Y-148845000D02*
X225700000Y-149345000D01*
X225700000Y-149345000D02*
X228900000Y-149345000D01*
X225700000Y-150115000D02*
X225700000Y-150615000D01*
X225700000Y-150615000D02*
X228900000Y-150615000D01*
X225700000Y-151385000D02*
X225700000Y-151885000D01*
X225700000Y-151885000D02*
X228900000Y-151885000D01*
X225700000Y-152655000D02*
X225700000Y-153155000D01*
X225700000Y-153155000D02*
X228900000Y-153155000D01*
X226050000Y-154175000D02*
X225050000Y-153175000D01*
X226766667Y-148845000D02*
X226766667Y-149345000D01*
X226766667Y-148945000D02*
X225700000Y-148945000D01*
X226766667Y-149045000D02*
X225700000Y-149045000D01*
X226766667Y-149145000D02*
X225700000Y-149145000D01*
X226766667Y-149245000D02*
X225700000Y-149245000D01*
X226766667Y-150115000D02*
X226766667Y-150615000D01*
X226766667Y-150215000D02*
X225700000Y-150215000D01*
X226766667Y-150315000D02*
X225700000Y-150315000D01*
X226766667Y-150415000D02*
X225700000Y-150415000D01*
X226766667Y-150515000D02*
X225700000Y-150515000D01*
X226766667Y-151385000D02*
X226766667Y-151885000D01*
X226766667Y-151485000D02*
X225700000Y-151485000D01*
X226766667Y-151585000D02*
X225700000Y-151585000D01*
X226766667Y-151685000D02*
X225700000Y-151685000D01*
X226766667Y-151785000D02*
X225700000Y-151785000D01*
X226766667Y-152655000D02*
X226766667Y-153155000D01*
X226766667Y-152755000D02*
X225700000Y-152755000D01*
X226766667Y-152855000D02*
X225700000Y-152855000D01*
X226766667Y-152955000D02*
X225700000Y-152955000D01*
X226766667Y-153055000D02*
X225700000Y-153055000D01*
X228900000Y-148845000D02*
X225700000Y-148845000D01*
X228900000Y-149345000D02*
X228900000Y-148845000D01*
X228900000Y-150115000D02*
X225700000Y-150115000D01*
X228900000Y-150615000D02*
X228900000Y-150115000D01*
X228900000Y-151385000D02*
X225700000Y-151385000D01*
X228900000Y-151885000D02*
X228900000Y-151385000D01*
X228900000Y-152655000D02*
X225700000Y-152655000D01*
X228900000Y-153155000D02*
X228900000Y-152655000D01*
X229550000Y-147825000D02*
X229550000Y-154175000D01*
X229550000Y-154175000D02*
X226050000Y-154175000D01*
%TO.C,R334*%
X151500000Y-186250000D02*
X152000000Y-186250000D01*
X151500000Y-187250000D02*
X151500000Y-186250000D01*
X152000000Y-186250000D02*
X152000000Y-187250000D01*
X152000000Y-187250000D02*
X151500000Y-187250000D01*
%TO.C,R277*%
X198750000Y-181480000D02*
X199250000Y-181480000D01*
X198750000Y-182480000D02*
X198750000Y-181480000D01*
X199250000Y-181480000D02*
X199250000Y-182480000D01*
X199250000Y-182480000D02*
X198750000Y-182480000D01*
%TO.C,U43*%
X168500000Y-113250000D02*
X171000000Y-113250000D01*
X168500000Y-115750000D02*
X168500000Y-113250000D01*
X169125000Y-115750000D02*
X168500000Y-115125000D01*
X171000000Y-113250000D02*
X171000000Y-115750000D01*
X171000000Y-115750000D02*
X168500000Y-115750000D01*
%TO.C,R331*%
X128250000Y-190750000D02*
X128750000Y-190750000D01*
X128250000Y-191750000D02*
X128250000Y-190750000D01*
X128750000Y-190750000D02*
X128750000Y-191750000D01*
X128750000Y-191750000D02*
X128250000Y-191750000D01*
%TO.C,D6*%
X165425000Y-172460000D02*
X174825000Y-172460000D01*
X165425000Y-178460000D02*
X165425000Y-172460000D01*
X172825000Y-174060000D02*
X172825000Y-176860000D01*
X174825000Y-172460000D02*
X174825000Y-174060000D01*
X174825000Y-174060000D02*
X172825000Y-174060000D01*
X174825000Y-176860000D02*
X172825000Y-176860000D01*
X174825000Y-178460000D02*
X165425000Y-178460000D01*
X174825000Y-178460000D02*
X174825000Y-176860000D01*
%TO.C,R246*%
X128250000Y-108000000D02*
X128750000Y-108000000D01*
X128250000Y-109000000D02*
X128250000Y-108000000D01*
X128750000Y-108000000D02*
X128750000Y-109000000D01*
X128750000Y-109000000D02*
X128250000Y-109000000D01*
%TO.C,R274*%
X209250000Y-186500000D02*
X209750000Y-186500000D01*
X209250000Y-187500000D02*
X209250000Y-186500000D01*
X209750000Y-186500000D02*
X209750000Y-187500000D01*
X209750000Y-187500000D02*
X209250000Y-187500000D01*
%TO.C,R276*%
X207750000Y-181500000D02*
X208250000Y-181500000D01*
X207750000Y-182500000D02*
X207750000Y-181500000D01*
X208250000Y-181500000D02*
X208250000Y-182500000D01*
X208250000Y-182500000D02*
X207750000Y-182500000D01*
%TO.C,C199*%
X207250000Y-117500000D02*
X207750000Y-117500000D01*
X207250000Y-118500000D02*
X207250000Y-117500000D01*
X207750000Y-117500000D02*
X207750000Y-118500000D01*
X207750000Y-118500000D02*
X207250000Y-118500000D01*
%TO.C,C177*%
X203250000Y-190500000D02*
X203750000Y-190500000D01*
X203250000Y-191500000D02*
X203250000Y-190500000D01*
X203750000Y-190500000D02*
X203750000Y-191500000D01*
X203750000Y-191500000D02*
X203250000Y-191500000D01*
%TO.C,C69*%
X233190000Y-180290000D02*
X233690000Y-180290000D01*
X233190000Y-181290000D02*
X233190000Y-180290000D01*
X233690000Y-180290000D02*
X233690000Y-181290000D01*
X233690000Y-181290000D02*
X233190000Y-181290000D01*
%TO.C,C93*%
X229190000Y-180290000D02*
X229690000Y-180290000D01*
X229190000Y-181290000D02*
X229190000Y-180290000D01*
X229690000Y-180290000D02*
X229690000Y-181290000D01*
X229690000Y-181290000D02*
X229190000Y-181290000D01*
%TO.C,R335*%
X146500000Y-186250000D02*
X147000000Y-186250000D01*
X146500000Y-187250000D02*
X146500000Y-186250000D01*
X147000000Y-186250000D02*
X147000000Y-187250000D01*
X147000000Y-187250000D02*
X146500000Y-187250000D01*
%TO.C,U62*%
X152075000Y-182900000D02*
X152075000Y-184600000D01*
X152075000Y-182900000D02*
X153425000Y-182900000D01*
X152075000Y-184600000D02*
X152575000Y-185100000D01*
X152575000Y-185100000D02*
X153425000Y-185100000D01*
X153425000Y-182900000D02*
X153425000Y-185100000D01*
%TO.C,U38*%
X131000000Y-186500000D02*
X135000000Y-186500000D01*
X131000000Y-190230000D02*
X131000000Y-186500000D01*
X132270000Y-191500000D02*
X131000000Y-190230000D01*
X135000000Y-186500000D02*
X135000000Y-191500000D01*
X135000000Y-191500000D02*
X132270000Y-191500000D01*
%TO.C,C109*%
X248000000Y-130000000D02*
X248500000Y-130000000D01*
X248000000Y-131000000D02*
X248000000Y-130000000D01*
X248500000Y-130000000D02*
X248500000Y-131000000D01*
X248500000Y-131000000D02*
X248000000Y-131000000D01*
%TO.C,R261*%
X206000000Y-117500000D02*
X206500000Y-117500000D01*
X206000000Y-118500000D02*
X206000000Y-117500000D01*
X206500000Y-117500000D02*
X206500000Y-118500000D01*
X206500000Y-118500000D02*
X206000000Y-118500000D01*
%TO.C,C162*%
X131250000Y-116000000D02*
X131750000Y-116000000D01*
X131250000Y-117000000D02*
X131250000Y-116000000D01*
X131750000Y-116000000D02*
X131750000Y-117000000D01*
X131750000Y-117000000D02*
X131250000Y-117000000D01*
%TO.C,R235*%
X128250000Y-117750000D02*
X128750000Y-117750000D01*
X128250000Y-118750000D02*
X128250000Y-117750000D01*
X128750000Y-117750000D02*
X128750000Y-118750000D01*
X128750000Y-118750000D02*
X128250000Y-118750000D01*
%TO.C,R237*%
X129750000Y-115500000D02*
X130250000Y-115500000D01*
X129750000Y-116500000D02*
X129750000Y-115500000D01*
X130250000Y-115500000D02*
X130250000Y-116500000D01*
X130250000Y-116500000D02*
X129750000Y-116500000D01*
%TO.C,R259*%
X198750000Y-113000000D02*
X199250000Y-113000000D01*
X198750000Y-114000000D02*
X198750000Y-113000000D01*
X199250000Y-113000000D02*
X199250000Y-114000000D01*
X199250000Y-114000000D02*
X198750000Y-114000000D01*
%TO.C,U18*%
X244000000Y-133250000D02*
X249000000Y-133250000D01*
X244000000Y-137250000D02*
X244000000Y-133250000D01*
X247730000Y-137250000D02*
X244000000Y-137250000D01*
X249000000Y-133250000D02*
X249000000Y-135980000D01*
X249000000Y-135980000D02*
X247730000Y-137250000D01*
%TO.C,C143*%
X187750000Y-104500000D02*
X188750000Y-104500000D01*
X187750000Y-105000000D02*
X187750000Y-104500000D01*
X188750000Y-104500000D02*
X188750000Y-105000000D01*
X188750000Y-105000000D02*
X187750000Y-105000000D01*
%TO.C,D13*%
X204300000Y-117350000D02*
X205200000Y-117350000D01*
X204300000Y-118650000D02*
X204300000Y-117350000D01*
X204550000Y-117900000D02*
X204750000Y-118200000D01*
X204750000Y-117750000D02*
X204750000Y-117900000D01*
X204750000Y-118200000D02*
X204950000Y-117900000D01*
X204750000Y-118350000D02*
X204750000Y-118200000D01*
X204950000Y-117900000D02*
X204550000Y-117900000D01*
X204950000Y-118200000D02*
X204550000Y-118200000D01*
X205200000Y-117350000D02*
X205200000Y-118650000D01*
X205200000Y-118650000D02*
X204300000Y-118650000D01*
%TO.C,R301*%
X128250000Y-186250000D02*
X128750000Y-186250000D01*
X128250000Y-187250000D02*
X128250000Y-186250000D01*
X128750000Y-186250000D02*
X128750000Y-187250000D01*
X128750000Y-187250000D02*
X128250000Y-187250000D01*
%TO.C,R137*%
X232500000Y-150310000D02*
X233500000Y-150310000D01*
X232500000Y-150810000D02*
X232500000Y-150310000D01*
X233500000Y-150310000D02*
X233500000Y-150810000D01*
X233500000Y-150810000D02*
X232500000Y-150810000D01*
%TO.C,U37*%
X152075000Y-114900000D02*
X152075000Y-116600000D01*
X152075000Y-114900000D02*
X153425000Y-114900000D01*
X152075000Y-116600000D02*
X152575000Y-117100000D01*
X152575000Y-117100000D02*
X153425000Y-117100000D01*
X153425000Y-114900000D02*
X153425000Y-117100000D01*
%TO.C,Q4*%
X202500000Y-137250000D02*
X207500000Y-137250000D01*
X202500000Y-142250000D02*
X202500000Y-137250000D01*
X206500000Y-142250000D02*
X202500000Y-142250000D01*
X207500000Y-137250000D02*
X207500000Y-141250000D01*
X207500000Y-141250000D02*
X206500000Y-142250000D01*
%TO.C,Q5*%
X202500000Y-122750000D02*
X203500000Y-121750000D01*
X202500000Y-126750000D02*
X202500000Y-122750000D01*
X203500000Y-121750000D02*
X207500000Y-121750000D01*
X207500000Y-121750000D02*
X207500000Y-126750000D01*
X207500000Y-126750000D02*
X202500000Y-126750000D01*
%TO.C,R195*%
X206000000Y-147500000D02*
X206500000Y-147500000D01*
X206000000Y-148500000D02*
X206000000Y-147500000D01*
X206500000Y-147500000D02*
X206500000Y-148500000D01*
X206500000Y-148500000D02*
X206000000Y-148500000D01*
%TO.C,C192*%
X198000000Y-186270000D02*
X198500000Y-186270000D01*
X198000000Y-187270000D02*
X198000000Y-186270000D01*
X198500000Y-186270000D02*
X198500000Y-187270000D01*
X198500000Y-187270000D02*
X198000000Y-187270000D01*
%TO.C,U56*%
X139575000Y-182900000D02*
X139575000Y-184600000D01*
X139575000Y-182900000D02*
X140925000Y-182900000D01*
X139575000Y-184600000D02*
X140075000Y-185100000D01*
X140075000Y-185100000D02*
X140925000Y-185100000D01*
X140925000Y-182900000D02*
X140925000Y-185100000D01*
%TO.C,L16*%
X187750000Y-115090000D02*
X189150000Y-115090000D01*
X187750000Y-117290000D02*
X187750000Y-115090000D01*
X189150000Y-115090000D02*
X189150000Y-117290000D01*
X189150000Y-117290000D02*
X187750000Y-117290000D01*
%TO.C,U61*%
X145825000Y-182900000D02*
X145825000Y-184600000D01*
X145825000Y-182900000D02*
X147175000Y-182900000D01*
X145825000Y-184600000D02*
X146325000Y-185100000D01*
X146325000Y-185100000D02*
X147175000Y-185100000D01*
X147175000Y-182900000D02*
X147175000Y-185100000D01*
%TO.C,C246*%
X159250000Y-183000000D02*
X159750000Y-183000000D01*
X159250000Y-184000000D02*
X159250000Y-183000000D01*
X159750000Y-183000000D02*
X159750000Y-184000000D01*
X159750000Y-184000000D02*
X159250000Y-184000000D01*
%TO.C,U59*%
X133325000Y-182900000D02*
X133325000Y-184600000D01*
X133325000Y-182900000D02*
X134675000Y-182900000D01*
X133325000Y-184600000D02*
X133825000Y-185100000D01*
X133825000Y-185100000D02*
X134675000Y-185100000D01*
X134675000Y-182900000D02*
X134675000Y-185100000D01*
%TO.C,U30*%
X175600000Y-112000000D02*
X177350000Y-112000000D01*
X175600000Y-114000000D02*
X175600000Y-112000000D01*
X177900000Y-112550000D02*
X177350000Y-112000000D01*
X177900000Y-112550000D02*
X177900000Y-114000000D01*
X177900000Y-114000000D02*
X175600000Y-114000000D01*
%TO.C,D12*%
X164300000Y-112600000D02*
X165200000Y-112600000D01*
X164300000Y-113900000D02*
X164300000Y-112600000D01*
X164550000Y-113050000D02*
X164950000Y-113050000D01*
X164550000Y-113350000D02*
X164950000Y-113350000D01*
X164750000Y-112900000D02*
X164750000Y-113050000D01*
X164750000Y-113050000D02*
X164550000Y-113350000D01*
X164750000Y-113500000D02*
X164750000Y-113350000D01*
X164950000Y-113350000D02*
X164750000Y-113050000D01*
X165200000Y-112600000D02*
X165200000Y-113900000D01*
X165200000Y-113900000D02*
X164300000Y-113900000D01*
%TO.C,R207*%
X185750000Y-119750000D02*
X186750000Y-119750000D01*
X185750000Y-120250000D02*
X185750000Y-119750000D01*
X186750000Y-119750000D02*
X186750000Y-120250000D01*
X186750000Y-120250000D02*
X185750000Y-120250000D01*
%TO.C,C171*%
X150000000Y-112750000D02*
X150500000Y-112750000D01*
X150000000Y-113750000D02*
X150000000Y-112750000D01*
X150500000Y-112750000D02*
X150500000Y-113750000D01*
X150500000Y-113750000D02*
X150000000Y-113750000D01*
%TO.C,R170*%
X241500000Y-133500000D02*
X242500000Y-133500000D01*
X241500000Y-134000000D02*
X241500000Y-133500000D01*
X242500000Y-133500000D02*
X242500000Y-134000000D01*
X242500000Y-134000000D02*
X241500000Y-134000000D01*
%TO.C,R2*%
X186250000Y-103500000D02*
X186750000Y-103500000D01*
X186250000Y-104500000D02*
X186250000Y-103500000D01*
X186750000Y-103500000D02*
X186750000Y-104500000D01*
X186750000Y-104500000D02*
X186250000Y-104500000D01*
%TO.C,C115*%
X187270000Y-153750000D02*
X188270000Y-153750000D01*
X187270000Y-154250000D02*
X187270000Y-153750000D01*
X188270000Y-153750000D02*
X188270000Y-154250000D01*
X188270000Y-154250000D02*
X187270000Y-154250000D01*
%TO.C,U53*%
X168750000Y-191000000D02*
X170750000Y-191000000D01*
X168750000Y-192500000D02*
X168750000Y-191000000D01*
X170750000Y-191000000D02*
X170750000Y-192500000D01*
X170750000Y-192500000D02*
X168750000Y-192500000D01*
X170750000Y-192750000D02*
X170750000Y-192750000D01*
X170850000Y-192750000D02*
X170850000Y-192750000D01*
X170750000Y-192750000D02*
G75*
G02*
X170850000Y-192750000I50000J0D01*
G01*
X170850000Y-192750000D02*
G75*
G02*
X170750000Y-192750000I-50000J0D01*
G01*
%TO.C,U32*%
X174325000Y-117650000D02*
X174325000Y-119350000D01*
X174325000Y-117650000D02*
X175675000Y-117650000D01*
X174325000Y-119350000D02*
X174825000Y-119850000D01*
X174825000Y-119850000D02*
X175675000Y-119850000D01*
X175675000Y-117650000D02*
X175675000Y-119850000D01*
%TO.C,R295*%
X172500000Y-192250000D02*
X173500000Y-192250000D01*
X172500000Y-192750000D02*
X172500000Y-192250000D01*
X173500000Y-192250000D02*
X173500000Y-192750000D01*
X173500000Y-192750000D02*
X172500000Y-192750000D01*
%TO.C,Q7*%
X208500000Y-121750000D02*
X213500000Y-121750000D01*
X208500000Y-126750000D02*
X208500000Y-121750000D01*
X212500000Y-126750000D02*
X208500000Y-126750000D01*
X213500000Y-121750000D02*
X213500000Y-125750000D01*
X213500000Y-125750000D02*
X212500000Y-126750000D01*
%TO.C,C197*%
X206250000Y-181500000D02*
X206750000Y-181500000D01*
X206250000Y-182500000D02*
X206250000Y-181500000D01*
X206750000Y-181500000D02*
X206750000Y-182500000D01*
X206750000Y-182500000D02*
X206250000Y-182500000D01*
%TO.C,R225*%
X171194000Y-117742000D02*
X171694000Y-117742000D01*
X171194000Y-118742000D02*
X171194000Y-117742000D01*
X171694000Y-117742000D02*
X171694000Y-118742000D01*
X171694000Y-118742000D02*
X171194000Y-118742000D01*
%TO.C,R167*%
X241750000Y-138000000D02*
X242750000Y-138000000D01*
X241750000Y-138500000D02*
X241750000Y-138000000D01*
X242750000Y-138000000D02*
X242750000Y-138500000D01*
X242750000Y-138500000D02*
X241750000Y-138500000D01*
%TO.C,U6*%
X222602300Y-163702300D02*
X222602300Y-177697700D01*
X222602300Y-177697700D02*
X236597700Y-177697700D01*
X236597700Y-163702300D02*
X222602300Y-163702300D01*
X236597700Y-176427700D02*
X235327700Y-177697700D01*
X236597700Y-177697700D02*
X236597700Y-163702300D01*
%TO.C,C130*%
X168500000Y-117000000D02*
X169500000Y-117000000D01*
X168500000Y-117500000D02*
X168500000Y-117000000D01*
X169500000Y-117000000D02*
X169500000Y-117500000D01*
X169500000Y-117500000D02*
X168500000Y-117500000D01*
%TO.C,R315*%
X188000000Y-180750000D02*
X189000000Y-180750000D01*
X188000000Y-181250000D02*
X188000000Y-180750000D01*
X189000000Y-180750000D02*
X189000000Y-181250000D01*
X189000000Y-181250000D02*
X188000000Y-181250000D01*
%TO.C,R292*%
X188000000Y-182250000D02*
X189000000Y-182250000D01*
X188000000Y-182750000D02*
X188000000Y-182250000D01*
X189000000Y-182250000D02*
X189000000Y-182750000D01*
X189000000Y-182750000D02*
X188000000Y-182750000D01*
D15*
%TO.C,U44*%
X200000000Y-184000000D02*
X205000000Y-184000000D01*
X200000000Y-189000000D02*
X200000000Y-184000000D01*
X205000000Y-184000000D02*
X205000000Y-189000000D01*
X205000000Y-188500000D02*
X204500000Y-189000000D01*
X205000000Y-189000000D02*
X200000000Y-189000000D01*
D10*
%TO.C,R238*%
X129750000Y-117750000D02*
X130250000Y-117750000D01*
X129750000Y-118750000D02*
X129750000Y-117750000D01*
X130250000Y-117750000D02*
X130250000Y-118750000D01*
X130250000Y-118750000D02*
X129750000Y-118750000D01*
%TO.C,R209*%
X178750000Y-115500000D02*
X179750000Y-115500000D01*
X178750000Y-116000000D02*
X178750000Y-115500000D01*
X179750000Y-115500000D02*
X179750000Y-116000000D01*
X179750000Y-116000000D02*
X178750000Y-116000000D01*
%TO.C,R332*%
X132480000Y-192250000D02*
X133480000Y-192250000D01*
X132480000Y-192750000D02*
X132480000Y-192250000D01*
X133480000Y-192250000D02*
X133480000Y-192750000D01*
X133480000Y-192750000D02*
X132480000Y-192750000D01*
%TO.C,C218*%
X183500000Y-179250000D02*
X184500000Y-179250000D01*
X183500000Y-179750000D02*
X183500000Y-179250000D01*
X184500000Y-179250000D02*
X184500000Y-179750000D01*
X184500000Y-179750000D02*
X183500000Y-179750000D01*
%TO.C,C231*%
X166750000Y-184000000D02*
X167250000Y-184000000D01*
X166750000Y-185000000D02*
X166750000Y-184000000D01*
X167250000Y-184000000D02*
X167250000Y-185000000D01*
X167250000Y-185000000D02*
X166750000Y-185000000D01*
%TO.C,C206*%
X185750000Y-179250000D02*
X186750000Y-179250000D01*
X185750000Y-179750000D02*
X185750000Y-179250000D01*
X186750000Y-179250000D02*
X186750000Y-179750000D01*
X186750000Y-179750000D02*
X185750000Y-179750000D01*
%TO.C,R294*%
X181250000Y-180750000D02*
X182250000Y-180750000D01*
X181250000Y-181250000D02*
X181250000Y-180750000D01*
X182250000Y-180750000D02*
X182250000Y-181250000D01*
X182250000Y-181250000D02*
X181250000Y-181250000D01*
%TO.C,C156*%
X137500000Y-111500000D02*
X138000000Y-111500000D01*
X137500000Y-112500000D02*
X137500000Y-111500000D01*
X138000000Y-111500000D02*
X138000000Y-112500000D01*
X138000000Y-112500000D02*
X137500000Y-112500000D01*
%TO.C,U55*%
X175600000Y-186000000D02*
X177350000Y-186000000D01*
X175600000Y-188000000D02*
X175600000Y-186000000D01*
X177900000Y-186550000D02*
X177350000Y-186000000D01*
X177900000Y-186550000D02*
X177900000Y-188000000D01*
X177900000Y-188000000D02*
X175600000Y-188000000D01*
%TO.C,R290*%
X188000000Y-183750000D02*
X189000000Y-183750000D01*
X188000000Y-184250000D02*
X188000000Y-183750000D01*
X189000000Y-183750000D02*
X189000000Y-184250000D01*
X189000000Y-184250000D02*
X188000000Y-184250000D01*
%TO.C,Q9*%
X202500000Y-158750000D02*
X203500000Y-157750000D01*
X202500000Y-162750000D02*
X202500000Y-158750000D01*
X203500000Y-157750000D02*
X207500000Y-157750000D01*
X207500000Y-157750000D02*
X207500000Y-162750000D01*
X207500000Y-162750000D02*
X202500000Y-162750000D01*
%TO.C,Q10*%
X208500000Y-174250000D02*
X209500000Y-173250000D01*
X208500000Y-178250000D02*
X208500000Y-174250000D01*
X209500000Y-173250000D02*
X213500000Y-173250000D01*
X213500000Y-173250000D02*
X213500000Y-178250000D01*
X213500000Y-178250000D02*
X208500000Y-178250000D01*
%TO.C,C41*%
X208800000Y-145250000D02*
X209300000Y-145250000D01*
X208800000Y-146250000D02*
X208800000Y-145250000D01*
X209300000Y-145250000D02*
X209300000Y-146250000D01*
X209300000Y-146250000D02*
X208800000Y-146250000D01*
%TO.C,R189*%
X175000000Y-192250000D02*
X176000000Y-192250000D01*
X175000000Y-192750000D02*
X175000000Y-192250000D01*
X176000000Y-192250000D02*
X176000000Y-192750000D01*
X176000000Y-192750000D02*
X175000000Y-192750000D01*
%TO.C,R211*%
X170250000Y-111750000D02*
X171250000Y-111750000D01*
X170250000Y-112250000D02*
X170250000Y-111750000D01*
X171250000Y-111750000D02*
X171250000Y-112250000D01*
X171250000Y-112250000D02*
X170250000Y-112250000D01*
%TO.C,Q11*%
X208500000Y-157750000D02*
X213500000Y-157750000D01*
X208500000Y-162750000D02*
X208500000Y-157750000D01*
X212500000Y-162750000D02*
X208500000Y-162750000D01*
X213500000Y-157750000D02*
X213500000Y-161750000D01*
X213500000Y-161750000D02*
X212500000Y-162750000D01*
%TO.C,C196*%
X201500000Y-117500000D02*
X202000000Y-117500000D01*
X201500000Y-118500000D02*
X201500000Y-117500000D01*
X202000000Y-117500000D02*
X202000000Y-118500000D01*
X202000000Y-118500000D02*
X201500000Y-118500000D01*
%TO.C,C249*%
X154000000Y-186250000D02*
X154500000Y-186250000D01*
X154000000Y-187250000D02*
X154000000Y-186250000D01*
X154500000Y-186250000D02*
X154500000Y-187250000D01*
X154500000Y-187250000D02*
X154000000Y-187250000D01*
%TO.C,C128*%
X181250000Y-115250000D02*
X182250000Y-115250000D01*
X181250000Y-115750000D02*
X181250000Y-115250000D01*
X182250000Y-115250000D02*
X182250000Y-115750000D01*
X182250000Y-115750000D02*
X181250000Y-115750000D01*
%TO.C,C238*%
X150000000Y-184000000D02*
X150500000Y-184000000D01*
X150000000Y-185000000D02*
X150000000Y-184000000D01*
X150500000Y-184000000D02*
X150500000Y-185000000D01*
X150500000Y-185000000D02*
X150000000Y-185000000D01*
%TO.C,C112*%
X189520000Y-154100000D02*
X192980000Y-154100000D01*
X189520000Y-155900000D02*
X189520000Y-154100000D01*
X192980000Y-154100000D02*
X192980000Y-155900000D01*
X192980000Y-155900000D02*
X189520000Y-155900000D01*
%TO.C,R204*%
X207250000Y-145250000D02*
X207750000Y-145250000D01*
X207250000Y-146250000D02*
X207250000Y-145250000D01*
X207750000Y-145250000D02*
X207750000Y-146250000D01*
X207750000Y-146250000D02*
X207250000Y-146250000D01*
%TO.C,C221*%
X181250000Y-192750000D02*
X182250000Y-192750000D01*
X181250000Y-193250000D02*
X181250000Y-192750000D01*
X182250000Y-192750000D02*
X182250000Y-193250000D01*
X182250000Y-193250000D02*
X181250000Y-193250000D01*
%TO.C,D2*%
X187100000Y-152300000D02*
X188400000Y-152300000D01*
X187100000Y-153200000D02*
X187100000Y-152300000D01*
X187400000Y-152750000D02*
X187550000Y-152750000D01*
X187550000Y-152750000D02*
X187850000Y-152950000D01*
X187550000Y-152950000D02*
X187550000Y-152550000D01*
X187850000Y-152550000D02*
X187550000Y-152750000D01*
X187850000Y-152950000D02*
X187850000Y-152550000D01*
X188000000Y-152750000D02*
X187850000Y-152750000D01*
X188400000Y-152300000D02*
X188400000Y-153200000D01*
X188400000Y-153200000D02*
X187100000Y-153200000D01*
%TO.C,R340*%
X172500000Y-186250000D02*
X173500000Y-186250000D01*
X172500000Y-186750000D02*
X172500000Y-186250000D01*
X173500000Y-186250000D02*
X173500000Y-186750000D01*
X173500000Y-186750000D02*
X172500000Y-186750000D01*
%TO.C,C233*%
X178500000Y-182500000D02*
X179000000Y-182500000D01*
X178500000Y-183500000D02*
X178500000Y-182500000D01*
X179000000Y-182500000D02*
X179000000Y-183500000D01*
X179000000Y-183500000D02*
X178500000Y-183500000D01*
%TO.C,R268*%
X208500000Y-117500000D02*
X209000000Y-117500000D01*
X208500000Y-118500000D02*
X208500000Y-117500000D01*
X209000000Y-117500000D02*
X209000000Y-118500000D01*
X209000000Y-118500000D02*
X208500000Y-118500000D01*
%TO.C,FID6*%
X244250000Y-118250000D02*
G75*
G02*
X242250000Y-118250000I-1000000J0D01*
G01*
X242250000Y-118250000D02*
G75*
G02*
X244250000Y-118250000I1000000J0D01*
G01*
%TO.C,R215*%
X137500000Y-109250000D02*
X138000000Y-109250000D01*
X137500000Y-110250000D02*
X137500000Y-109250000D01*
X138000000Y-109250000D02*
X138000000Y-110250000D01*
X138000000Y-110250000D02*
X137500000Y-110250000D01*
%TO.C,C180*%
X204750000Y-190500000D02*
X205250000Y-190500000D01*
X204750000Y-191500000D02*
X204750000Y-190500000D01*
X205250000Y-190500000D02*
X205250000Y-191500000D01*
X205250000Y-191500000D02*
X204750000Y-191500000D01*
%TO.C,U36*%
X145825000Y-114900000D02*
X145825000Y-116600000D01*
X145825000Y-114900000D02*
X147175000Y-114900000D01*
X145825000Y-116600000D02*
X146325000Y-117100000D01*
X146325000Y-117100000D02*
X147175000Y-117100000D01*
X147175000Y-114900000D02*
X147175000Y-117100000D01*
%TO.C,C140*%
X184500000Y-115250000D02*
X185500000Y-115250000D01*
X184500000Y-115750000D02*
X184500000Y-115250000D01*
X185500000Y-115250000D02*
X185500000Y-115750000D01*
X185500000Y-115750000D02*
X184500000Y-115750000D01*
D15*
%TO.C,U42*%
X202000000Y-111000000D02*
X207000000Y-111000000D01*
X202000000Y-111500000D02*
X202500000Y-111000000D01*
X202000000Y-116000000D02*
X202000000Y-111000000D01*
X207000000Y-111000000D02*
X207000000Y-116000000D01*
X207000000Y-116000000D02*
X202000000Y-116000000D01*
D10*
%TO.C,C134*%
X187980000Y-119750000D02*
X188980000Y-119750000D01*
X187980000Y-120250000D02*
X187980000Y-119750000D01*
X188980000Y-119750000D02*
X188980000Y-120250000D01*
X188980000Y-120250000D02*
X187980000Y-120250000D01*
%TO.C,R241*%
X135250000Y-107250000D02*
X136250000Y-107250000D01*
X135250000Y-107750000D02*
X135250000Y-107250000D01*
X136250000Y-107250000D02*
X136250000Y-107750000D01*
X136250000Y-107750000D02*
X135250000Y-107750000D01*
%TO.C,C148*%
X172750000Y-109750000D02*
X173750000Y-109750000D01*
X172750000Y-110250000D02*
X172750000Y-109750000D01*
X173750000Y-109750000D02*
X173750000Y-110250000D01*
X173750000Y-110250000D02*
X172750000Y-110250000D01*
%TO.C,R271*%
X210750000Y-184250000D02*
X211250000Y-184250000D01*
X210750000Y-185250000D02*
X210750000Y-184250000D01*
X211250000Y-184250000D02*
X211250000Y-185250000D01*
X211250000Y-185250000D02*
X210750000Y-185250000D01*
%TO.C,U45*%
X168500000Y-184250000D02*
X171000000Y-184250000D01*
X168500000Y-186750000D02*
X168500000Y-184250000D01*
X169125000Y-186750000D02*
X168500000Y-186125000D01*
X171000000Y-184250000D02*
X171000000Y-186750000D01*
X171000000Y-186750000D02*
X168500000Y-186750000D01*
%TO.C,R220*%
X175008000Y-116214000D02*
X176008000Y-116214000D01*
X175008000Y-116714000D02*
X175008000Y-116214000D01*
X176008000Y-116214000D02*
X176008000Y-116714000D01*
X176008000Y-116714000D02*
X175008000Y-116714000D01*
%TO.C,R296*%
X177500000Y-184750000D02*
X178500000Y-184750000D01*
X177500000Y-185250000D02*
X177500000Y-184750000D01*
X178500000Y-184750000D02*
X178500000Y-185250000D01*
X178500000Y-185250000D02*
X177500000Y-185250000D01*
%TO.C,C27*%
X231190000Y-180290000D02*
X231690000Y-180290000D01*
X231190000Y-181290000D02*
X231190000Y-180290000D01*
X231690000Y-180290000D02*
X231690000Y-181290000D01*
X231690000Y-181290000D02*
X231190000Y-181290000D01*
%TO.C,Q2*%
X201750000Y-149750000D02*
X206750000Y-149750000D01*
X201750000Y-153750000D02*
X201750000Y-149750000D01*
X202750000Y-154750000D02*
X201750000Y-153750000D01*
X206750000Y-149750000D02*
X206750000Y-154750000D01*
X206750000Y-154750000D02*
X202750000Y-154750000D01*
%TO.C,R275*%
X206250000Y-186500000D02*
X206750000Y-186500000D01*
X206250000Y-187500000D02*
X206250000Y-186500000D01*
X206750000Y-186500000D02*
X206750000Y-187500000D01*
X206750000Y-187500000D02*
X206250000Y-187500000D01*
%TO.C,L17*%
X190400000Y-103550000D02*
X192600000Y-103550000D01*
X190400000Y-104950000D02*
X190400000Y-103550000D01*
X192600000Y-103550000D02*
X192600000Y-104950000D01*
X192600000Y-104950000D02*
X190400000Y-104950000D01*
%TO.C,R336*%
X145250000Y-186250000D02*
X145750000Y-186250000D01*
X145250000Y-187250000D02*
X145250000Y-186250000D01*
X145750000Y-186250000D02*
X145750000Y-187250000D01*
X145750000Y-187250000D02*
X145250000Y-187250000D01*
%TO.C,C169*%
X154250000Y-112750000D02*
X154750000Y-112750000D01*
X154250000Y-113750000D02*
X154250000Y-112750000D01*
X154750000Y-112750000D02*
X154750000Y-113750000D01*
X154750000Y-113750000D02*
X154250000Y-113750000D01*
%TO.C,C129*%
X181250000Y-116750000D02*
X182250000Y-116750000D01*
X181250000Y-117250000D02*
X181250000Y-116750000D01*
X182250000Y-116750000D02*
X182250000Y-117250000D01*
X182250000Y-117250000D02*
X181250000Y-117250000D01*
%TO.C,R171*%
X241500000Y-132000000D02*
X242500000Y-132000000D01*
X241500000Y-132500000D02*
X241500000Y-132000000D01*
X242500000Y-132000000D02*
X242500000Y-132500000D01*
X242500000Y-132500000D02*
X241500000Y-132500000D01*
%TO.C,C195*%
X196500000Y-186250000D02*
X197000000Y-186250000D01*
X196500000Y-187250000D02*
X196500000Y-186250000D01*
X197000000Y-186250000D02*
X197000000Y-187250000D01*
X197000000Y-187250000D02*
X196500000Y-187250000D01*
%TO.C,C141*%
X193750000Y-103750000D02*
X194250000Y-103750000D01*
X193750000Y-104750000D02*
X193750000Y-103750000D01*
X194250000Y-103750000D02*
X194250000Y-104750000D01*
X194250000Y-104750000D02*
X193750000Y-104750000D01*
%TO.C,C228*%
X148750000Y-184000000D02*
X149250000Y-184000000D01*
X148750000Y-185000000D02*
X148750000Y-184000000D01*
X149250000Y-184000000D02*
X149250000Y-185000000D01*
X149250000Y-185000000D02*
X148750000Y-185000000D01*
%TO.C,C136*%
X181250000Y-118250000D02*
X182250000Y-118250000D01*
X181250000Y-118750000D02*
X181250000Y-118250000D01*
X182250000Y-118250000D02*
X182250000Y-118750000D01*
X182250000Y-118750000D02*
X181250000Y-118750000D01*
%TO.C,R240*%
X146250000Y-112750000D02*
X146750000Y-112750000D01*
X146250000Y-113750000D02*
X146250000Y-112750000D01*
X146750000Y-112750000D02*
X146750000Y-113750000D01*
X146750000Y-113750000D02*
X146250000Y-113750000D01*
%TO.C,C241*%
X161750000Y-184000000D02*
X162250000Y-184000000D01*
X161750000Y-185000000D02*
X161750000Y-184000000D01*
X162250000Y-184000000D02*
X162250000Y-185000000D01*
X162250000Y-185000000D02*
X161750000Y-185000000D01*
%TO.C,R226*%
X155500000Y-112750000D02*
X156000000Y-112750000D01*
X155500000Y-113750000D02*
X155500000Y-112750000D01*
X156000000Y-112750000D02*
X156000000Y-113750000D01*
X156000000Y-113750000D02*
X155500000Y-113750000D01*
%TO.C,R281*%
X200250000Y-190480000D02*
X200750000Y-190480000D01*
X200250000Y-191480000D02*
X200250000Y-190480000D01*
X200750000Y-190480000D02*
X200750000Y-191480000D01*
X200750000Y-191480000D02*
X200250000Y-191480000D01*
%TO.C,C94*%
X228190000Y-180290000D02*
X228690000Y-180290000D01*
X228190000Y-181290000D02*
X228190000Y-180290000D01*
X228690000Y-180290000D02*
X228690000Y-181290000D01*
X228690000Y-181290000D02*
X228190000Y-181290000D01*
%TO.C,C236*%
X137500000Y-184000000D02*
X138000000Y-184000000D01*
X137500000Y-185000000D02*
X137500000Y-184000000D01*
X138000000Y-184000000D02*
X138000000Y-185000000D01*
X138000000Y-185000000D02*
X137500000Y-185000000D01*
%TO.C,R251*%
X143750000Y-112750000D02*
X144250000Y-112750000D01*
X143750000Y-113750000D02*
X143750000Y-112750000D01*
X144250000Y-112750000D02*
X144250000Y-113750000D01*
X144250000Y-113750000D02*
X143750000Y-113750000D01*
%TO.C,D17*%
X210050000Y-117350000D02*
X210950000Y-117350000D01*
X210050000Y-118650000D02*
X210050000Y-117350000D01*
X210300000Y-117800000D02*
X210700000Y-117800000D01*
X210300000Y-118100000D02*
X210700000Y-118100000D01*
X210500000Y-117650000D02*
X210500000Y-117800000D01*
X210500000Y-117800000D02*
X210300000Y-118100000D01*
X210500000Y-118250000D02*
X210500000Y-118100000D01*
X210700000Y-118100000D02*
X210500000Y-117800000D01*
X210950000Y-117350000D02*
X210950000Y-118650000D01*
X210950000Y-118650000D02*
X210050000Y-118650000D01*
%TO.C,C235*%
X130000000Y-184000000D02*
X130500000Y-184000000D01*
X130000000Y-185000000D02*
X130000000Y-184000000D01*
X130500000Y-184000000D02*
X130500000Y-185000000D01*
X130500000Y-185000000D02*
X130000000Y-185000000D01*
%TO.C,R272*%
X207750000Y-184270000D02*
X208250000Y-184270000D01*
X207750000Y-185270000D02*
X207750000Y-184270000D01*
X208250000Y-184270000D02*
X208250000Y-185270000D01*
X208250000Y-185270000D02*
X207750000Y-185270000D01*
%TO.C,C176*%
X203500000Y-108500000D02*
X204000000Y-108500000D01*
X203500000Y-109500000D02*
X203500000Y-108500000D01*
X204000000Y-108500000D02*
X204000000Y-109500000D01*
X204000000Y-109500000D02*
X203500000Y-109500000D01*
%TO.C,C182*%
X209250000Y-184250000D02*
X209750000Y-184250000D01*
X209250000Y-185250000D02*
X209250000Y-184250000D01*
X209750000Y-184250000D02*
X209750000Y-185250000D01*
X209750000Y-185250000D02*
X209250000Y-185250000D01*
%TO.C,U49*%
X183650000Y-181000000D02*
X186650000Y-181000000D01*
X183650000Y-183000000D02*
X183650000Y-181000000D01*
X186150000Y-183000000D02*
X183650000Y-183000000D01*
X186650000Y-181000000D02*
X186650000Y-182500000D01*
X186650000Y-182500000D02*
X186150000Y-183000000D01*
%TO.C,C154*%
X136250000Y-116000000D02*
X136750000Y-116000000D01*
X136250000Y-117000000D02*
X136250000Y-116000000D01*
X136750000Y-116000000D02*
X136750000Y-117000000D01*
X136750000Y-117000000D02*
X136250000Y-117000000D01*
%TO.C,C232*%
X136250000Y-184020000D02*
X136750000Y-184020000D01*
X136250000Y-185020000D02*
X136250000Y-184020000D01*
X136750000Y-184020000D02*
X136750000Y-185020000D01*
X136750000Y-185020000D02*
X136250000Y-185020000D01*
%TO.C,C183*%
X208500000Y-110750000D02*
X209000000Y-110750000D01*
X208500000Y-111750000D02*
X208500000Y-110750000D01*
X209000000Y-110750000D02*
X209000000Y-111750000D01*
X209000000Y-111750000D02*
X208500000Y-111750000D01*
%TO.C,D1*%
X187100000Y-151050000D02*
X188400000Y-151050000D01*
X187100000Y-151950000D02*
X187100000Y-151050000D01*
X187400000Y-151500000D02*
X187550000Y-151500000D01*
X187550000Y-151500000D02*
X187850000Y-151700000D01*
X187550000Y-151700000D02*
X187550000Y-151300000D01*
X187850000Y-151300000D02*
X187550000Y-151500000D01*
X187850000Y-151700000D02*
X187850000Y-151300000D01*
X188000000Y-151500000D02*
X187850000Y-151500000D01*
X188400000Y-151050000D02*
X188400000Y-151950000D01*
X188400000Y-151950000D02*
X187100000Y-151950000D01*
%TO.C,D18*%
X200050000Y-181350000D02*
X200950000Y-181350000D01*
X200050000Y-182650000D02*
X200050000Y-181350000D01*
X200300000Y-181800000D02*
X200700000Y-181800000D01*
X200300000Y-182100000D02*
X200700000Y-182100000D01*
X200500000Y-181650000D02*
X200500000Y-181800000D01*
X200500000Y-181800000D02*
X200300000Y-182100000D01*
X200500000Y-182250000D02*
X200500000Y-182100000D01*
X200700000Y-182100000D02*
X200500000Y-181800000D01*
X200950000Y-181350000D02*
X200950000Y-182650000D01*
X200950000Y-182650000D02*
X200050000Y-182650000D01*
%TO.C,R234*%
X132500000Y-140250000D02*
X133000000Y-140250000D01*
X132500000Y-141250000D02*
X132500000Y-140250000D01*
X133000000Y-140250000D02*
X133000000Y-141250000D01*
X133000000Y-141250000D02*
X132500000Y-141250000D01*
%TO.C,R304*%
X140000000Y-188500000D02*
X140500000Y-188500000D01*
X140000000Y-189500000D02*
X140000000Y-188500000D01*
X140500000Y-188500000D02*
X140500000Y-189500000D01*
X140500000Y-189500000D02*
X140000000Y-189500000D01*
%TO.C,R149*%
X225750000Y-180750000D02*
X226250000Y-180750000D01*
X225750000Y-181750000D02*
X225750000Y-180750000D01*
X226250000Y-180750000D02*
X226250000Y-181750000D01*
X226250000Y-181750000D02*
X225750000Y-181750000D01*
%TO.C,R206*%
X178750000Y-118000000D02*
X179750000Y-118000000D01*
X178750000Y-118500000D02*
X178750000Y-118000000D01*
X179750000Y-118000000D02*
X179750000Y-118500000D01*
X179750000Y-118500000D02*
X178750000Y-118500000D01*
%TO.C,R250*%
X145000000Y-112750000D02*
X145500000Y-112750000D01*
X145000000Y-113750000D02*
X145000000Y-112750000D01*
X145500000Y-112750000D02*
X145500000Y-113750000D01*
X145500000Y-113750000D02*
X145000000Y-113750000D01*
%TO.C,C237*%
X143750000Y-184000000D02*
X144250000Y-184000000D01*
X143750000Y-185000000D02*
X143750000Y-184000000D01*
X144250000Y-184000000D02*
X144250000Y-185000000D01*
X144250000Y-185000000D02*
X143750000Y-185000000D01*
%TO.C,R223*%
X128250000Y-115500000D02*
X128750000Y-115500000D01*
X128250000Y-116500000D02*
X128250000Y-115500000D01*
X128750000Y-115500000D02*
X128750000Y-116500000D01*
X128750000Y-116500000D02*
X128250000Y-116500000D01*
%TO.C,R249*%
X168500000Y-118250000D02*
X169500000Y-118250000D01*
X168500000Y-118750000D02*
X168500000Y-118250000D01*
X169500000Y-118250000D02*
X169500000Y-118750000D01*
X169500000Y-118750000D02*
X168500000Y-118750000D01*
%TO.C,C172*%
X168000000Y-111750000D02*
X169000000Y-111750000D01*
X168000000Y-112250000D02*
X168000000Y-111750000D01*
X169000000Y-111750000D02*
X169000000Y-112250000D01*
X169000000Y-112250000D02*
X168000000Y-112250000D01*
%TO.C,R213*%
X172750000Y-111000000D02*
X173750000Y-111000000D01*
X172750000Y-111500000D02*
X172750000Y-111000000D01*
X173750000Y-111000000D02*
X173750000Y-111500000D01*
X173750000Y-111500000D02*
X172750000Y-111500000D01*
%TO.C,C149*%
X177036000Y-117742000D02*
X177536000Y-117742000D01*
X177036000Y-118742000D02*
X177036000Y-117742000D01*
X177536000Y-117742000D02*
X177536000Y-118742000D01*
X177536000Y-118742000D02*
X177036000Y-118742000D01*
%TO.C,C159*%
X161750000Y-116000000D02*
X162250000Y-116000000D01*
X161750000Y-117000000D02*
X161750000Y-116000000D01*
X162250000Y-116000000D02*
X162250000Y-117000000D01*
X162250000Y-117000000D02*
X161750000Y-117000000D01*
%TO.C,R319*%
X133000000Y-162750000D02*
X134000000Y-162750000D01*
X133000000Y-163250000D02*
X133000000Y-162750000D01*
X134000000Y-162750000D02*
X134000000Y-163250000D01*
X134000000Y-163250000D02*
X133000000Y-163250000D01*
%TO.C,C225*%
X172500000Y-189250000D02*
X173500000Y-189250000D01*
X172500000Y-189750000D02*
X172500000Y-189250000D01*
X173500000Y-189250000D02*
X173500000Y-189750000D01*
X173500000Y-189750000D02*
X172500000Y-189750000D01*
%TO.C,R266*%
X207250000Y-108500000D02*
X207750000Y-108500000D01*
X207250000Y-109500000D02*
X207250000Y-108500000D01*
X207750000Y-108500000D02*
X207750000Y-109500000D01*
X207750000Y-109500000D02*
X207250000Y-109500000D01*
%TO.C,R239*%
X161750000Y-112750000D02*
X162250000Y-112750000D01*
X161750000Y-113750000D02*
X161750000Y-112750000D01*
X162250000Y-112750000D02*
X162250000Y-113750000D01*
X162250000Y-113750000D02*
X161750000Y-113750000D01*
%TO.C,R317*%
X158000000Y-188500000D02*
X158500000Y-188500000D01*
X158000000Y-189500000D02*
X158000000Y-188500000D01*
X158500000Y-188500000D02*
X158500000Y-189500000D01*
X158500000Y-189500000D02*
X158000000Y-189500000D01*
%TO.C,R168*%
X241750000Y-136500000D02*
X242750000Y-136500000D01*
X241750000Y-137000000D02*
X241750000Y-136500000D01*
X242750000Y-136500000D02*
X242750000Y-137000000D01*
X242750000Y-137000000D02*
X241750000Y-137000000D01*
%TO.C,R231*%
X132500000Y-142500000D02*
X133000000Y-142500000D01*
X132500000Y-143500000D02*
X132500000Y-142500000D01*
X133000000Y-142500000D02*
X133000000Y-143500000D01*
X133000000Y-143500000D02*
X132500000Y-143500000D01*
%TO.C,R316*%
X133000000Y-164000000D02*
X134000000Y-164000000D01*
X133000000Y-164500000D02*
X133000000Y-164000000D01*
X134000000Y-164000000D02*
X134000000Y-164500000D01*
X134000000Y-164500000D02*
X133000000Y-164500000D01*
%TO.C,U33*%
X157575000Y-114900000D02*
X157575000Y-116600000D01*
X157575000Y-114900000D02*
X158925000Y-114900000D01*
X157575000Y-116600000D02*
X158075000Y-117100000D01*
X158075000Y-117100000D02*
X158925000Y-117100000D01*
X158925000Y-114900000D02*
X158925000Y-117100000D01*
%TO.C,R219*%
X140500000Y-112750000D02*
X141000000Y-112750000D01*
X140500000Y-113750000D02*
X140500000Y-112750000D01*
X141000000Y-112750000D02*
X141000000Y-113750000D01*
X141000000Y-113750000D02*
X140500000Y-113750000D01*
%TD*%
M02*
