%TF.GenerationSoftware,KiCad,Pcbnew,8.0.4*%
%TF.CreationDate,2024-07-29T18:47:44+02:00*%
%TF.ProjectId,cq2,6371322e-6b69-4636-9164-5f7063625858,0.00*%
%TF.SameCoordinates,Original*%
%TF.FileFunction,Paste,Top*%
%TF.FilePolarity,Positive*%
%FSLAX46Y46*%
G04 Gerber Fmt 4.6, Leading zero omitted, Abs format (unit mm)*
G04 Created by KiCad (PCBNEW 8.0.4) date 2024-07-29 18:47:44*
%MOMM*%
%LPD*%
G01*
G04 APERTURE LIST*
G04 Aperture macros list*
%AMRoundRect*
0 Rectangle with rounded corners*
0 $1 Rounding radius*
0 $2 $3 $4 $5 $6 $7 $8 $9 X,Y pos of 4 corners*
0 Add a 4 corners polygon primitive as box body*
4,1,4,$2,$3,$4,$5,$6,$7,$8,$9,$2,$3,0*
0 Add four circle primitives for the rounded corners*
1,1,$1+$1,$2,$3*
1,1,$1+$1,$4,$5*
1,1,$1+$1,$6,$7*
1,1,$1+$1,$8,$9*
0 Add four rect primitives between the rounded corners*
20,1,$1+$1,$2,$3,$4,$5,0*
20,1,$1+$1,$4,$5,$6,$7,0*
20,1,$1+$1,$6,$7,$8,$9,0*
20,1,$1+$1,$8,$9,$2,$3,0*%
%AMFreePoly0*
4,1,10,0.647700,0.175600,0.397700,-0.101600,-0.647700,-0.101600,-0.647700,0.101600,-0.147700,0.101600,-0.147700,0.249600,0.397999,0.249999,0.397999,0.749999,0.651999,0.749999,0.647700,0.175600,0.647700,0.175600,$1*%
%AMFreePoly1*
4,1,13,3.947698,-0.101600,3.447698,-0.101600,3.447698,-0.648399,3.947698,-0.648399,3.947698,-0.851599,-0.647700,-0.851599,-0.647700,-0.648399,-0.147700,-0.648399,-0.147700,-0.101600,-0.647700,-0.101600,-0.647700,0.101600,3.947698,0.101600,3.947698,-0.101600,3.947698,-0.101600,$1*%
%AMFreePoly2*
4,1,17,3.947698,-0.101600,3.447698,-0.101600,3.447698,-0.641600,2.901999,-0.641999,2.901999,-1.149999,2.647999,-1.149999,2.647999,-0.641999,0.651999,-0.641999,0.651999,-1.149999,0.397999,-1.149999,0.397999,-0.641999,-0.147700,-0.641600,-0.147700,-0.101600,-0.647700,-0.101600,-0.647700,0.101600,3.947698,0.101600,3.947698,-0.101600,3.947698,-0.101600,$1*%
%AMFreePoly3*
4,1,9,-0.397999,0.250000,0.147701,0.249999,0.147701,0.099999,0.647701,0.099999,0.647700,-0.101600,-0.649999,-0.101600,-0.649999,0.749999,-0.397999,0.749999,-0.397999,0.250000,-0.397999,0.250000,$1*%
G04 Aperture macros list end*
%ADD10C,0.100000*%
%ADD11C,0.150000*%
%ADD12C,0.254000*%
%ADD13C,0.000000*%
%ADD14RoundRect,0.140000X0.140000X0.170000X-0.140000X0.170000X-0.140000X-0.170000X0.140000X-0.170000X0*%
%ADD15RoundRect,0.140000X-0.140000X-0.170000X0.140000X-0.170000X0.140000X0.170000X-0.140000X0.170000X0*%
%ADD16R,0.500000X0.600000*%
%ADD17RoundRect,0.075000X-0.300000X-0.075000X0.300000X-0.075000X0.300000X0.075000X-0.300000X0.075000X0*%
%ADD18RoundRect,0.239978X-0.245022X-0.625022X0.245022X-0.625022X0.245022X0.625022X-0.245022X0.625022X0*%
%ADD19RoundRect,0.140000X-0.170000X0.140000X-0.170000X-0.140000X0.170000X-0.140000X0.170000X0.140000X0*%
%ADD20RoundRect,0.229957X0.275043X-0.225043X0.275043X0.225043X-0.275043X0.225043X-0.275043X-0.225043X0*%
%ADD21RoundRect,0.150000X0.150000X0.350000X-0.150000X0.350000X-0.150000X-0.350000X0.150000X-0.350000X0*%
%ADD22RoundRect,0.249981X0.485019X-0.265019X0.485019X0.265019X-0.485019X0.265019X-0.485019X-0.265019X0*%
%ADD23RoundRect,0.140000X0.170000X-0.140000X0.170000X0.140000X-0.170000X0.140000X-0.170000X-0.140000X0*%
%ADD24RoundRect,0.250025X-1.109975X0.434975X-1.109975X-0.434975X1.109975X-0.434975X1.109975X0.434975X0*%
%ADD25RoundRect,0.250046X0.459954X-0.294954X0.459954X0.294954X-0.459954X0.294954X-0.459954X-0.294954X0*%
%ADD26RoundRect,0.250046X-0.459954X0.294954X-0.459954X-0.294954X0.459954X-0.294954X0.459954X0.294954X0*%
%ADD27RoundRect,0.445000X0.445000X-0.555000X0.445000X0.555000X-0.445000X0.555000X-0.445000X-0.555000X0*%
%ADD28RoundRect,0.249972X-0.865028X-0.860028X0.865028X-0.860028X0.865028X0.860028X-0.865028X0.860028X0*%
%ADD29RoundRect,0.239978X0.245022X0.625022X-0.245022X0.625022X-0.245022X-0.625022X0.245022X-0.625022X0*%
%ADD30RoundRect,0.800000X0.800000X1.750000X-0.800000X1.750000X-0.800000X-1.750000X0.800000X-1.750000X0*%
%ADD31RoundRect,0.250025X1.109975X-0.434975X1.109975X0.434975X-1.109975X0.434975X-1.109975X-0.434975X0*%
%ADD32RoundRect,0.150000X-0.150000X-0.350000X0.150000X-0.350000X0.150000X0.350000X-0.150000X0.350000X0*%
%ADD33RoundRect,0.249960X-0.660040X0.350040X-0.660040X-0.350040X0.660040X-0.350040X0.660040X0.350040X0*%
%ADD34RoundRect,0.455216X0.619784X0.464784X-0.619784X0.464784X-0.619784X-0.464784X0.619784X-0.464784X0*%
%ADD35RoundRect,0.170016X-0.864984X-0.159984X0.864984X-0.159984X0.864984X0.159984X-0.864984X0.159984X0*%
%ADD36RoundRect,0.075000X0.325000X-0.075000X0.325000X0.075000X-0.325000X0.075000X-0.325000X-0.075000X0*%
%ADD37RoundRect,0.075000X-0.075000X-0.325000X0.075000X-0.325000X0.075000X0.325000X-0.075000X0.325000X0*%
%ADD38C,0.600000*%
%ADD39RoundRect,0.200000X0.200000X-0.400000X0.200000X0.400000X-0.200000X0.400000X-0.200000X-0.400000X0*%
%ADD40RoundRect,0.250000X-1.275000X-0.250000X1.275000X-0.250000X1.275000X0.250000X-1.275000X0.250000X0*%
%ADD41RoundRect,0.075000X0.350000X-0.075000X0.350000X0.075000X-0.350000X0.075000X-0.350000X-0.075000X0*%
%ADD42C,2.030000*%
%ADD43C,2.790000*%
%ADD44RoundRect,0.249981X-0.485019X0.265019X-0.485019X-0.265019X0.485019X-0.265019X0.485019X0.265019X0*%
%ADD45RoundRect,0.445000X-0.445000X0.555000X-0.445000X-0.555000X0.445000X-0.555000X0.445000X0.555000X0*%
%ADD46RoundRect,0.087500X0.437500X-0.087500X0.437500X0.087500X-0.437500X0.087500X-0.437500X-0.087500X0*%
%ADD47RoundRect,0.087500X-0.087500X-0.437500X0.087500X-0.437500X0.087500X0.437500X-0.087500X0.437500X0*%
%ADD48RoundRect,0.035398X-0.364602X-0.364602X0.364602X-0.364602X0.364602X0.364602X-0.364602X0.364602X0*%
%ADD49RoundRect,0.249972X-0.860028X0.865028X-0.860028X-0.865028X0.860028X-0.865028X0.860028X0.865028X0*%
%ADD50FreePoly0,270.000000*%
%ADD51R,0.203200X1.295400*%
%ADD52FreePoly1,270.000000*%
%ADD53FreePoly2,270.000000*%
%ADD54FreePoly3,270.000000*%
%ADD55R,2.057400X0.254000*%
%ADD56RoundRect,0.150000X0.150000X-0.875000X0.150000X0.875000X-0.150000X0.875000X-0.150000X-0.875000X0*%
%ADD57RoundRect,0.375000X0.875000X-0.375000X0.875000X0.375000X-0.875000X0.375000X-0.875000X-0.375000X0*%
%ADD58RoundRect,0.075000X-0.350000X0.075000X-0.350000X-0.075000X0.350000X-0.075000X0.350000X0.075000X0*%
%ADD59RoundRect,0.112500X-0.487500X0.112500X-0.487500X-0.112500X0.487500X-0.112500X0.487500X0.112500X0*%
%ADD60RoundRect,0.200000X-0.200000X0.400000X-0.200000X-0.400000X0.200000X-0.400000X0.200000X0.400000X0*%
%ADD61RoundRect,0.250046X-0.294954X-0.459954X0.294954X-0.459954X0.294954X0.459954X-0.294954X0.459954X0*%
%ADD62RoundRect,0.760000X0.000010X-1.465000X0.000010X1.465000X-0.000010X1.465000X-0.000010X-1.465000X0*%
%ADD63RoundRect,0.150000X-0.150000X0.875000X-0.150000X-0.875000X0.150000X-0.875000X0.150000X0.875000X0*%
%ADD64RoundRect,0.075000X0.300000X0.075000X-0.300000X0.075000X-0.300000X-0.075000X0.300000X-0.075000X0*%
%ADD65RoundRect,0.317500X0.697500X0.317500X-0.697500X0.317500X-0.697500X-0.317500X0.697500X-0.317500X0*%
%ADD66RoundRect,0.249960X0.660040X-0.350040X0.660040X0.350040X-0.660040X0.350040X-0.660040X-0.350040X0*%
%ADD67RoundRect,0.250000X-0.250000X-0.385000X0.250000X-0.385000X0.250000X0.385000X-0.250000X0.385000X0*%
%ADD68RoundRect,0.149999X-0.155001X0.475001X-0.155001X-0.475001X0.155001X-0.475001X0.155001X0.475001X0*%
G04 APERTURE END LIST*
D10*
X299978000Y-250926334D02*
X299978000Y-265573667D01*
X334522000Y-265573667D01*
X334522000Y-250926334D01*
X299978000Y-250926334D01*
D11*
X299989000Y-251002200D02*
X407989000Y-251002200D01*
X407989000Y-285002200D01*
X299989000Y-285002200D01*
X299989000Y-251002200D01*
D10*
D11*
X10000000Y-10000000D02*
X409989000Y-10000000D01*
X409989000Y-287002200D01*
X10000000Y-287002200D01*
X10000000Y-10000000D01*
D10*
D11*
X12000000Y-12000000D02*
X407989000Y-12000000D01*
X407989000Y-285002200D01*
X12000000Y-285002200D01*
X12000000Y-12000000D01*
D10*
D11*
X60000000Y-12000000D02*
X60000000Y-10000000D01*
D10*
D11*
X110000000Y-12000000D02*
X110000000Y-10000000D01*
D10*
D11*
X160000000Y-12000000D02*
X160000000Y-10000000D01*
D10*
D11*
X210000000Y-12000000D02*
X210000000Y-10000000D01*
D10*
D11*
X260000000Y-12000000D02*
X260000000Y-10000000D01*
D10*
D11*
X310000000Y-12000000D02*
X310000000Y-10000000D01*
D10*
D11*
X360000000Y-12000000D02*
X360000000Y-10000000D01*
D10*
D11*
X36066303Y-11579726D02*
X35340588Y-11579726D01*
X35703445Y-11579726D02*
X35703445Y-10309726D01*
X35703445Y-10309726D02*
X35582493Y-10491154D01*
X35582493Y-10491154D02*
X35461541Y-10612107D01*
X35461541Y-10612107D02*
X35340588Y-10672583D01*
D10*
D11*
X85340588Y-10430678D02*
X85401064Y-10370202D01*
X85401064Y-10370202D02*
X85522017Y-10309726D01*
X85522017Y-10309726D02*
X85824398Y-10309726D01*
X85824398Y-10309726D02*
X85945350Y-10370202D01*
X85945350Y-10370202D02*
X86005826Y-10430678D01*
X86005826Y-10430678D02*
X86066303Y-10551630D01*
X86066303Y-10551630D02*
X86066303Y-10672583D01*
X86066303Y-10672583D02*
X86005826Y-10854011D01*
X86005826Y-10854011D02*
X85280112Y-11579726D01*
X85280112Y-11579726D02*
X86066303Y-11579726D01*
D10*
D11*
X135280112Y-10309726D02*
X136066303Y-10309726D01*
X136066303Y-10309726D02*
X135642969Y-10793535D01*
X135642969Y-10793535D02*
X135824398Y-10793535D01*
X135824398Y-10793535D02*
X135945350Y-10854011D01*
X135945350Y-10854011D02*
X136005826Y-10914488D01*
X136005826Y-10914488D02*
X136066303Y-11035440D01*
X136066303Y-11035440D02*
X136066303Y-11337821D01*
X136066303Y-11337821D02*
X136005826Y-11458773D01*
X136005826Y-11458773D02*
X135945350Y-11519250D01*
X135945350Y-11519250D02*
X135824398Y-11579726D01*
X135824398Y-11579726D02*
X135461541Y-11579726D01*
X135461541Y-11579726D02*
X135340588Y-11519250D01*
X135340588Y-11519250D02*
X135280112Y-11458773D01*
D10*
D11*
X185945350Y-10733059D02*
X185945350Y-11579726D01*
X185642969Y-10249250D02*
X185340588Y-11156392D01*
X185340588Y-11156392D02*
X186126779Y-11156392D01*
D10*
D11*
X236005826Y-10309726D02*
X235401064Y-10309726D01*
X235401064Y-10309726D02*
X235340588Y-10914488D01*
X235340588Y-10914488D02*
X235401064Y-10854011D01*
X235401064Y-10854011D02*
X235522017Y-10793535D01*
X235522017Y-10793535D02*
X235824398Y-10793535D01*
X235824398Y-10793535D02*
X235945350Y-10854011D01*
X235945350Y-10854011D02*
X236005826Y-10914488D01*
X236005826Y-10914488D02*
X236066303Y-11035440D01*
X236066303Y-11035440D02*
X236066303Y-11337821D01*
X236066303Y-11337821D02*
X236005826Y-11458773D01*
X236005826Y-11458773D02*
X235945350Y-11519250D01*
X235945350Y-11519250D02*
X235824398Y-11579726D01*
X235824398Y-11579726D02*
X235522017Y-11579726D01*
X235522017Y-11579726D02*
X235401064Y-11519250D01*
X235401064Y-11519250D02*
X235340588Y-11458773D01*
D10*
D11*
X285945350Y-10309726D02*
X285703445Y-10309726D01*
X285703445Y-10309726D02*
X285582493Y-10370202D01*
X285582493Y-10370202D02*
X285522017Y-10430678D01*
X285522017Y-10430678D02*
X285401064Y-10612107D01*
X285401064Y-10612107D02*
X285340588Y-10854011D01*
X285340588Y-10854011D02*
X285340588Y-11337821D01*
X285340588Y-11337821D02*
X285401064Y-11458773D01*
X285401064Y-11458773D02*
X285461541Y-11519250D01*
X285461541Y-11519250D02*
X285582493Y-11579726D01*
X285582493Y-11579726D02*
X285824398Y-11579726D01*
X285824398Y-11579726D02*
X285945350Y-11519250D01*
X285945350Y-11519250D02*
X286005826Y-11458773D01*
X286005826Y-11458773D02*
X286066303Y-11337821D01*
X286066303Y-11337821D02*
X286066303Y-11035440D01*
X286066303Y-11035440D02*
X286005826Y-10914488D01*
X286005826Y-10914488D02*
X285945350Y-10854011D01*
X285945350Y-10854011D02*
X285824398Y-10793535D01*
X285824398Y-10793535D02*
X285582493Y-10793535D01*
X285582493Y-10793535D02*
X285461541Y-10854011D01*
X285461541Y-10854011D02*
X285401064Y-10914488D01*
X285401064Y-10914488D02*
X285340588Y-11035440D01*
D10*
D11*
X335280112Y-10309726D02*
X336126779Y-10309726D01*
X336126779Y-10309726D02*
X335582493Y-11579726D01*
D10*
D11*
X385582493Y-10854011D02*
X385461541Y-10793535D01*
X385461541Y-10793535D02*
X385401064Y-10733059D01*
X385401064Y-10733059D02*
X385340588Y-10612107D01*
X385340588Y-10612107D02*
X385340588Y-10551630D01*
X385340588Y-10551630D02*
X385401064Y-10430678D01*
X385401064Y-10430678D02*
X385461541Y-10370202D01*
X385461541Y-10370202D02*
X385582493Y-10309726D01*
X385582493Y-10309726D02*
X385824398Y-10309726D01*
X385824398Y-10309726D02*
X385945350Y-10370202D01*
X385945350Y-10370202D02*
X386005826Y-10430678D01*
X386005826Y-10430678D02*
X386066303Y-10551630D01*
X386066303Y-10551630D02*
X386066303Y-10612107D01*
X386066303Y-10612107D02*
X386005826Y-10733059D01*
X386005826Y-10733059D02*
X385945350Y-10793535D01*
X385945350Y-10793535D02*
X385824398Y-10854011D01*
X385824398Y-10854011D02*
X385582493Y-10854011D01*
X385582493Y-10854011D02*
X385461541Y-10914488D01*
X385461541Y-10914488D02*
X385401064Y-10974964D01*
X385401064Y-10974964D02*
X385340588Y-11095916D01*
X385340588Y-11095916D02*
X385340588Y-11337821D01*
X385340588Y-11337821D02*
X385401064Y-11458773D01*
X385401064Y-11458773D02*
X385461541Y-11519250D01*
X385461541Y-11519250D02*
X385582493Y-11579726D01*
X385582493Y-11579726D02*
X385824398Y-11579726D01*
X385824398Y-11579726D02*
X385945350Y-11519250D01*
X385945350Y-11519250D02*
X386005826Y-11458773D01*
X386005826Y-11458773D02*
X386066303Y-11337821D01*
X386066303Y-11337821D02*
X386066303Y-11095916D01*
X386066303Y-11095916D02*
X386005826Y-10974964D01*
X386005826Y-10974964D02*
X385945350Y-10914488D01*
X385945350Y-10914488D02*
X385824398Y-10854011D01*
D10*
D11*
X60000000Y-285002200D02*
X60000000Y-287002200D01*
D10*
D11*
X110000000Y-285002200D02*
X110000000Y-287002200D01*
D10*
D11*
X160000000Y-285002200D02*
X160000000Y-287002200D01*
D10*
D11*
X210000000Y-285002200D02*
X210000000Y-287002200D01*
D10*
D11*
X260000000Y-285002200D02*
X260000000Y-287002200D01*
D10*
D11*
X310000000Y-285002200D02*
X310000000Y-287002200D01*
D10*
D11*
X360000000Y-285002200D02*
X360000000Y-287002200D01*
D10*
D11*
X36066303Y-286581926D02*
X35340588Y-286581926D01*
X35703445Y-286581926D02*
X35703445Y-285311926D01*
X35703445Y-285311926D02*
X35582493Y-285493354D01*
X35582493Y-285493354D02*
X35461541Y-285614307D01*
X35461541Y-285614307D02*
X35340588Y-285674783D01*
D10*
D11*
X85340588Y-285432878D02*
X85401064Y-285372402D01*
X85401064Y-285372402D02*
X85522017Y-285311926D01*
X85522017Y-285311926D02*
X85824398Y-285311926D01*
X85824398Y-285311926D02*
X85945350Y-285372402D01*
X85945350Y-285372402D02*
X86005826Y-285432878D01*
X86005826Y-285432878D02*
X86066303Y-285553830D01*
X86066303Y-285553830D02*
X86066303Y-285674783D01*
X86066303Y-285674783D02*
X86005826Y-285856211D01*
X86005826Y-285856211D02*
X85280112Y-286581926D01*
X85280112Y-286581926D02*
X86066303Y-286581926D01*
D10*
D11*
X135280112Y-285311926D02*
X136066303Y-285311926D01*
X136066303Y-285311926D02*
X135642969Y-285795735D01*
X135642969Y-285795735D02*
X135824398Y-285795735D01*
X135824398Y-285795735D02*
X135945350Y-285856211D01*
X135945350Y-285856211D02*
X136005826Y-285916688D01*
X136005826Y-285916688D02*
X136066303Y-286037640D01*
X136066303Y-286037640D02*
X136066303Y-286340021D01*
X136066303Y-286340021D02*
X136005826Y-286460973D01*
X136005826Y-286460973D02*
X135945350Y-286521450D01*
X135945350Y-286521450D02*
X135824398Y-286581926D01*
X135824398Y-286581926D02*
X135461541Y-286581926D01*
X135461541Y-286581926D02*
X135340588Y-286521450D01*
X135340588Y-286521450D02*
X135280112Y-286460973D01*
D10*
D11*
X185945350Y-285735259D02*
X185945350Y-286581926D01*
X185642969Y-285251450D02*
X185340588Y-286158592D01*
X185340588Y-286158592D02*
X186126779Y-286158592D01*
D10*
D11*
X236005826Y-285311926D02*
X235401064Y-285311926D01*
X235401064Y-285311926D02*
X235340588Y-285916688D01*
X235340588Y-285916688D02*
X235401064Y-285856211D01*
X235401064Y-285856211D02*
X235522017Y-285795735D01*
X235522017Y-285795735D02*
X235824398Y-285795735D01*
X235824398Y-285795735D02*
X235945350Y-285856211D01*
X235945350Y-285856211D02*
X236005826Y-285916688D01*
X236005826Y-285916688D02*
X236066303Y-286037640D01*
X236066303Y-286037640D02*
X236066303Y-286340021D01*
X236066303Y-286340021D02*
X236005826Y-286460973D01*
X236005826Y-286460973D02*
X235945350Y-286521450D01*
X235945350Y-286521450D02*
X235824398Y-286581926D01*
X235824398Y-286581926D02*
X235522017Y-286581926D01*
X235522017Y-286581926D02*
X235401064Y-286521450D01*
X235401064Y-286521450D02*
X235340588Y-286460973D01*
D10*
D11*
X285945350Y-285311926D02*
X285703445Y-285311926D01*
X285703445Y-285311926D02*
X285582493Y-285372402D01*
X285582493Y-285372402D02*
X285522017Y-285432878D01*
X285522017Y-285432878D02*
X285401064Y-285614307D01*
X285401064Y-285614307D02*
X285340588Y-285856211D01*
X285340588Y-285856211D02*
X285340588Y-286340021D01*
X285340588Y-286340021D02*
X285401064Y-286460973D01*
X285401064Y-286460973D02*
X285461541Y-286521450D01*
X285461541Y-286521450D02*
X285582493Y-286581926D01*
X285582493Y-286581926D02*
X285824398Y-286581926D01*
X285824398Y-286581926D02*
X285945350Y-286521450D01*
X285945350Y-286521450D02*
X286005826Y-286460973D01*
X286005826Y-286460973D02*
X286066303Y-286340021D01*
X286066303Y-286340021D02*
X286066303Y-286037640D01*
X286066303Y-286037640D02*
X286005826Y-285916688D01*
X286005826Y-285916688D02*
X285945350Y-285856211D01*
X285945350Y-285856211D02*
X285824398Y-285795735D01*
X285824398Y-285795735D02*
X285582493Y-285795735D01*
X285582493Y-285795735D02*
X285461541Y-285856211D01*
X285461541Y-285856211D02*
X285401064Y-285916688D01*
X285401064Y-285916688D02*
X285340588Y-286037640D01*
D10*
D11*
X335280112Y-285311926D02*
X336126779Y-285311926D01*
X336126779Y-285311926D02*
X335582493Y-286581926D01*
D10*
D11*
X385582493Y-285856211D02*
X385461541Y-285795735D01*
X385461541Y-285795735D02*
X385401064Y-285735259D01*
X385401064Y-285735259D02*
X385340588Y-285614307D01*
X385340588Y-285614307D02*
X385340588Y-285553830D01*
X385340588Y-285553830D02*
X385401064Y-285432878D01*
X385401064Y-285432878D02*
X385461541Y-285372402D01*
X385461541Y-285372402D02*
X385582493Y-285311926D01*
X385582493Y-285311926D02*
X385824398Y-285311926D01*
X385824398Y-285311926D02*
X385945350Y-285372402D01*
X385945350Y-285372402D02*
X386005826Y-285432878D01*
X386005826Y-285432878D02*
X386066303Y-285553830D01*
X386066303Y-285553830D02*
X386066303Y-285614307D01*
X386066303Y-285614307D02*
X386005826Y-285735259D01*
X386005826Y-285735259D02*
X385945350Y-285795735D01*
X385945350Y-285795735D02*
X385824398Y-285856211D01*
X385824398Y-285856211D02*
X385582493Y-285856211D01*
X385582493Y-285856211D02*
X385461541Y-285916688D01*
X385461541Y-285916688D02*
X385401064Y-285977164D01*
X385401064Y-285977164D02*
X385340588Y-286098116D01*
X385340588Y-286098116D02*
X385340588Y-286340021D01*
X385340588Y-286340021D02*
X385401064Y-286460973D01*
X385401064Y-286460973D02*
X385461541Y-286521450D01*
X385461541Y-286521450D02*
X385582493Y-286581926D01*
X385582493Y-286581926D02*
X385824398Y-286581926D01*
X385824398Y-286581926D02*
X385945350Y-286521450D01*
X385945350Y-286521450D02*
X386005826Y-286460973D01*
X386005826Y-286460973D02*
X386066303Y-286340021D01*
X386066303Y-286340021D02*
X386066303Y-286098116D01*
X386066303Y-286098116D02*
X386005826Y-285977164D01*
X386005826Y-285977164D02*
X385945350Y-285916688D01*
X385945350Y-285916688D02*
X385824398Y-285856211D01*
D10*
D11*
X10000000Y-60000000D02*
X12000000Y-60000000D01*
D10*
D11*
X10000000Y-110000000D02*
X12000000Y-110000000D01*
D10*
D11*
X10000000Y-160000000D02*
X12000000Y-160000000D01*
D10*
D11*
X10000000Y-210000000D02*
X12000000Y-210000000D01*
D10*
D11*
X10000000Y-260000000D02*
X12000000Y-260000000D01*
D10*
D11*
X10697619Y-35216869D02*
X11302381Y-35216869D01*
X10576667Y-35579726D02*
X11000000Y-34309726D01*
X11000000Y-34309726D02*
X11423334Y-35579726D01*
D10*
D11*
X11090714Y-84914488D02*
X11272142Y-84974964D01*
X11272142Y-84974964D02*
X11332619Y-85035440D01*
X11332619Y-85035440D02*
X11393095Y-85156392D01*
X11393095Y-85156392D02*
X11393095Y-85337821D01*
X11393095Y-85337821D02*
X11332619Y-85458773D01*
X11332619Y-85458773D02*
X11272142Y-85519250D01*
X11272142Y-85519250D02*
X11151190Y-85579726D01*
X11151190Y-85579726D02*
X10667380Y-85579726D01*
X10667380Y-85579726D02*
X10667380Y-84309726D01*
X10667380Y-84309726D02*
X11090714Y-84309726D01*
X11090714Y-84309726D02*
X11211666Y-84370202D01*
X11211666Y-84370202D02*
X11272142Y-84430678D01*
X11272142Y-84430678D02*
X11332619Y-84551630D01*
X11332619Y-84551630D02*
X11332619Y-84672583D01*
X11332619Y-84672583D02*
X11272142Y-84793535D01*
X11272142Y-84793535D02*
X11211666Y-84854011D01*
X11211666Y-84854011D02*
X11090714Y-84914488D01*
X11090714Y-84914488D02*
X10667380Y-84914488D01*
D10*
D11*
X11393095Y-135458773D02*
X11332619Y-135519250D01*
X11332619Y-135519250D02*
X11151190Y-135579726D01*
X11151190Y-135579726D02*
X11030238Y-135579726D01*
X11030238Y-135579726D02*
X10848809Y-135519250D01*
X10848809Y-135519250D02*
X10727857Y-135398297D01*
X10727857Y-135398297D02*
X10667380Y-135277345D01*
X10667380Y-135277345D02*
X10606904Y-135035440D01*
X10606904Y-135035440D02*
X10606904Y-134854011D01*
X10606904Y-134854011D02*
X10667380Y-134612107D01*
X10667380Y-134612107D02*
X10727857Y-134491154D01*
X10727857Y-134491154D02*
X10848809Y-134370202D01*
X10848809Y-134370202D02*
X11030238Y-134309726D01*
X11030238Y-134309726D02*
X11151190Y-134309726D01*
X11151190Y-134309726D02*
X11332619Y-134370202D01*
X11332619Y-134370202D02*
X11393095Y-134430678D01*
D10*
D11*
X10667380Y-185579726D02*
X10667380Y-184309726D01*
X10667380Y-184309726D02*
X10969761Y-184309726D01*
X10969761Y-184309726D02*
X11151190Y-184370202D01*
X11151190Y-184370202D02*
X11272142Y-184491154D01*
X11272142Y-184491154D02*
X11332619Y-184612107D01*
X11332619Y-184612107D02*
X11393095Y-184854011D01*
X11393095Y-184854011D02*
X11393095Y-185035440D01*
X11393095Y-185035440D02*
X11332619Y-185277345D01*
X11332619Y-185277345D02*
X11272142Y-185398297D01*
X11272142Y-185398297D02*
X11151190Y-185519250D01*
X11151190Y-185519250D02*
X10969761Y-185579726D01*
X10969761Y-185579726D02*
X10667380Y-185579726D01*
D10*
D11*
X10727856Y-234914488D02*
X11151190Y-234914488D01*
X11332618Y-235579726D02*
X10727856Y-235579726D01*
X10727856Y-235579726D02*
X10727856Y-234309726D01*
X10727856Y-234309726D02*
X11332618Y-234309726D01*
D10*
D11*
X11181429Y-284914488D02*
X10758095Y-284914488D01*
X10758095Y-285579726D02*
X10758095Y-284309726D01*
X10758095Y-284309726D02*
X11362857Y-284309726D01*
D10*
D11*
X409989000Y-60000000D02*
X407989000Y-60000000D01*
D10*
D11*
X409989000Y-110000000D02*
X407989000Y-110000000D01*
D10*
D11*
X409989000Y-160000000D02*
X407989000Y-160000000D01*
D10*
D11*
X409989000Y-210000000D02*
X407989000Y-210000000D01*
D10*
D11*
X409989000Y-260000000D02*
X407989000Y-260000000D01*
D10*
D11*
X408686619Y-35216869D02*
X409291381Y-35216869D01*
X408565667Y-35579726D02*
X408989000Y-34309726D01*
X408989000Y-34309726D02*
X409412334Y-35579726D01*
D10*
D11*
X409079714Y-84914488D02*
X409261142Y-84974964D01*
X409261142Y-84974964D02*
X409321619Y-85035440D01*
X409321619Y-85035440D02*
X409382095Y-85156392D01*
X409382095Y-85156392D02*
X409382095Y-85337821D01*
X409382095Y-85337821D02*
X409321619Y-85458773D01*
X409321619Y-85458773D02*
X409261142Y-85519250D01*
X409261142Y-85519250D02*
X409140190Y-85579726D01*
X409140190Y-85579726D02*
X408656380Y-85579726D01*
X408656380Y-85579726D02*
X408656380Y-84309726D01*
X408656380Y-84309726D02*
X409079714Y-84309726D01*
X409079714Y-84309726D02*
X409200666Y-84370202D01*
X409200666Y-84370202D02*
X409261142Y-84430678D01*
X409261142Y-84430678D02*
X409321619Y-84551630D01*
X409321619Y-84551630D02*
X409321619Y-84672583D01*
X409321619Y-84672583D02*
X409261142Y-84793535D01*
X409261142Y-84793535D02*
X409200666Y-84854011D01*
X409200666Y-84854011D02*
X409079714Y-84914488D01*
X409079714Y-84914488D02*
X408656380Y-84914488D01*
D10*
D11*
X409382095Y-135458773D02*
X409321619Y-135519250D01*
X409321619Y-135519250D02*
X409140190Y-135579726D01*
X409140190Y-135579726D02*
X409019238Y-135579726D01*
X409019238Y-135579726D02*
X408837809Y-135519250D01*
X408837809Y-135519250D02*
X408716857Y-135398297D01*
X408716857Y-135398297D02*
X408656380Y-135277345D01*
X408656380Y-135277345D02*
X408595904Y-135035440D01*
X408595904Y-135035440D02*
X408595904Y-134854011D01*
X408595904Y-134854011D02*
X408656380Y-134612107D01*
X408656380Y-134612107D02*
X408716857Y-134491154D01*
X408716857Y-134491154D02*
X408837809Y-134370202D01*
X408837809Y-134370202D02*
X409019238Y-134309726D01*
X409019238Y-134309726D02*
X409140190Y-134309726D01*
X409140190Y-134309726D02*
X409321619Y-134370202D01*
X409321619Y-134370202D02*
X409382095Y-134430678D01*
D10*
D11*
X408656380Y-185579726D02*
X408656380Y-184309726D01*
X408656380Y-184309726D02*
X408958761Y-184309726D01*
X408958761Y-184309726D02*
X409140190Y-184370202D01*
X409140190Y-184370202D02*
X409261142Y-184491154D01*
X409261142Y-184491154D02*
X409321619Y-184612107D01*
X409321619Y-184612107D02*
X409382095Y-184854011D01*
X409382095Y-184854011D02*
X409382095Y-185035440D01*
X409382095Y-185035440D02*
X409321619Y-185277345D01*
X409321619Y-185277345D02*
X409261142Y-185398297D01*
X409261142Y-185398297D02*
X409140190Y-185519250D01*
X409140190Y-185519250D02*
X408958761Y-185579726D01*
X408958761Y-185579726D02*
X408656380Y-185579726D01*
D10*
D11*
X408716856Y-234914488D02*
X409140190Y-234914488D01*
X409321618Y-235579726D02*
X408716856Y-235579726D01*
X408716856Y-235579726D02*
X408716856Y-234309726D01*
X408716856Y-234309726D02*
X409321618Y-234309726D01*
D10*
D11*
X409170429Y-284914488D02*
X408747095Y-284914488D01*
X408747095Y-285579726D02*
X408747095Y-284309726D01*
X408747095Y-284309726D02*
X409351857Y-284309726D01*
D10*
D11*
X348390064Y-277698976D02*
X348390064Y-276428976D01*
X348390064Y-276428976D02*
X348692445Y-276428976D01*
X348692445Y-276428976D02*
X348873874Y-276489452D01*
X348873874Y-276489452D02*
X348994826Y-276610404D01*
X348994826Y-276610404D02*
X349055303Y-276731357D01*
X349055303Y-276731357D02*
X349115779Y-276973261D01*
X349115779Y-276973261D02*
X349115779Y-277154690D01*
X349115779Y-277154690D02*
X349055303Y-277396595D01*
X349055303Y-277396595D02*
X348994826Y-277517547D01*
X348994826Y-277517547D02*
X348873874Y-277638500D01*
X348873874Y-277638500D02*
X348692445Y-277698976D01*
X348692445Y-277698976D02*
X348390064Y-277698976D01*
X350143874Y-277638500D02*
X350022922Y-277698976D01*
X350022922Y-277698976D02*
X349781017Y-277698976D01*
X349781017Y-277698976D02*
X349660064Y-277638500D01*
X349660064Y-277638500D02*
X349599588Y-277517547D01*
X349599588Y-277517547D02*
X349599588Y-277033738D01*
X349599588Y-277033738D02*
X349660064Y-276912785D01*
X349660064Y-276912785D02*
X349781017Y-276852309D01*
X349781017Y-276852309D02*
X350022922Y-276852309D01*
X350022922Y-276852309D02*
X350143874Y-276912785D01*
X350143874Y-276912785D02*
X350204350Y-277033738D01*
X350204350Y-277033738D02*
X350204350Y-277154690D01*
X350204350Y-277154690D02*
X349599588Y-277275642D01*
X350688159Y-277638500D02*
X350809112Y-277698976D01*
X350809112Y-277698976D02*
X351051016Y-277698976D01*
X351051016Y-277698976D02*
X351171969Y-277638500D01*
X351171969Y-277638500D02*
X351232445Y-277517547D01*
X351232445Y-277517547D02*
X351232445Y-277457071D01*
X351232445Y-277457071D02*
X351171969Y-277336119D01*
X351171969Y-277336119D02*
X351051016Y-277275642D01*
X351051016Y-277275642D02*
X350869588Y-277275642D01*
X350869588Y-277275642D02*
X350748635Y-277215166D01*
X350748635Y-277215166D02*
X350688159Y-277094214D01*
X350688159Y-277094214D02*
X350688159Y-277033738D01*
X350688159Y-277033738D02*
X350748635Y-276912785D01*
X350748635Y-276912785D02*
X350869588Y-276852309D01*
X350869588Y-276852309D02*
X351051016Y-276852309D01*
X351051016Y-276852309D02*
X351171969Y-276912785D01*
X351776730Y-277698976D02*
X351776730Y-276852309D01*
X351776730Y-276428976D02*
X351716254Y-276489452D01*
X351716254Y-276489452D02*
X351776730Y-276549928D01*
X351776730Y-276549928D02*
X351837207Y-276489452D01*
X351837207Y-276489452D02*
X351776730Y-276428976D01*
X351776730Y-276428976D02*
X351776730Y-276549928D01*
X352925778Y-276852309D02*
X352925778Y-277880404D01*
X352925778Y-277880404D02*
X352865302Y-278001357D01*
X352865302Y-278001357D02*
X352804826Y-278061833D01*
X352804826Y-278061833D02*
X352683873Y-278122309D01*
X352683873Y-278122309D02*
X352502445Y-278122309D01*
X352502445Y-278122309D02*
X352381492Y-278061833D01*
X352925778Y-277638500D02*
X352804826Y-277698976D01*
X352804826Y-277698976D02*
X352562921Y-277698976D01*
X352562921Y-277698976D02*
X352441969Y-277638500D01*
X352441969Y-277638500D02*
X352381492Y-277578023D01*
X352381492Y-277578023D02*
X352321016Y-277457071D01*
X352321016Y-277457071D02*
X352321016Y-277094214D01*
X352321016Y-277094214D02*
X352381492Y-276973261D01*
X352381492Y-276973261D02*
X352441969Y-276912785D01*
X352441969Y-276912785D02*
X352562921Y-276852309D01*
X352562921Y-276852309D02*
X352804826Y-276852309D01*
X352804826Y-276852309D02*
X352925778Y-276912785D01*
X353530540Y-276852309D02*
X353530540Y-277698976D01*
X353530540Y-276973261D02*
X353591017Y-276912785D01*
X353591017Y-276912785D02*
X353711969Y-276852309D01*
X353711969Y-276852309D02*
X353893398Y-276852309D01*
X353893398Y-276852309D02*
X354014350Y-276912785D01*
X354014350Y-276912785D02*
X354074826Y-277033738D01*
X354074826Y-277033738D02*
X354074826Y-277698976D01*
X355647207Y-277698976D02*
X355647207Y-276428976D01*
X355647207Y-276428976D02*
X355949588Y-276428976D01*
X355949588Y-276428976D02*
X356131017Y-276489452D01*
X356131017Y-276489452D02*
X356251969Y-276610404D01*
X356251969Y-276610404D02*
X356312446Y-276731357D01*
X356312446Y-276731357D02*
X356372922Y-276973261D01*
X356372922Y-276973261D02*
X356372922Y-277154690D01*
X356372922Y-277154690D02*
X356312446Y-277396595D01*
X356312446Y-277396595D02*
X356251969Y-277517547D01*
X356251969Y-277517547D02*
X356131017Y-277638500D01*
X356131017Y-277638500D02*
X355949588Y-277698976D01*
X355949588Y-277698976D02*
X355647207Y-277698976D01*
X357461493Y-277698976D02*
X357461493Y-277033738D01*
X357461493Y-277033738D02*
X357401017Y-276912785D01*
X357401017Y-276912785D02*
X357280065Y-276852309D01*
X357280065Y-276852309D02*
X357038160Y-276852309D01*
X357038160Y-276852309D02*
X356917207Y-276912785D01*
X357461493Y-277638500D02*
X357340541Y-277698976D01*
X357340541Y-277698976D02*
X357038160Y-277698976D01*
X357038160Y-277698976D02*
X356917207Y-277638500D01*
X356917207Y-277638500D02*
X356856731Y-277517547D01*
X356856731Y-277517547D02*
X356856731Y-277396595D01*
X356856731Y-277396595D02*
X356917207Y-277275642D01*
X356917207Y-277275642D02*
X357038160Y-277215166D01*
X357038160Y-277215166D02*
X357340541Y-277215166D01*
X357340541Y-277215166D02*
X357461493Y-277154690D01*
X357884827Y-276852309D02*
X358368636Y-276852309D01*
X358066255Y-276428976D02*
X358066255Y-277517547D01*
X358066255Y-277517547D02*
X358126732Y-277638500D01*
X358126732Y-277638500D02*
X358247684Y-277698976D01*
X358247684Y-277698976D02*
X358368636Y-277698976D01*
X359275779Y-277638500D02*
X359154827Y-277698976D01*
X359154827Y-277698976D02*
X358912922Y-277698976D01*
X358912922Y-277698976D02*
X358791969Y-277638500D01*
X358791969Y-277638500D02*
X358731493Y-277517547D01*
X358731493Y-277517547D02*
X358731493Y-277033738D01*
X358731493Y-277033738D02*
X358791969Y-276912785D01*
X358791969Y-276912785D02*
X358912922Y-276852309D01*
X358912922Y-276852309D02*
X359154827Y-276852309D01*
X359154827Y-276852309D02*
X359275779Y-276912785D01*
X359275779Y-276912785D02*
X359336255Y-277033738D01*
X359336255Y-277033738D02*
X359336255Y-277154690D01*
X359336255Y-277154690D02*
X358731493Y-277275642D01*
X359880540Y-277578023D02*
X359941017Y-277638500D01*
X359941017Y-277638500D02*
X359880540Y-277698976D01*
X359880540Y-277698976D02*
X359820064Y-277638500D01*
X359820064Y-277638500D02*
X359880540Y-277578023D01*
X359880540Y-277578023D02*
X359880540Y-277698976D01*
X359880540Y-276912785D02*
X359941017Y-276973261D01*
X359941017Y-276973261D02*
X359880540Y-277033738D01*
X359880540Y-277033738D02*
X359820064Y-276973261D01*
X359820064Y-276973261D02*
X359880540Y-276912785D01*
X359880540Y-276912785D02*
X359880540Y-277033738D01*
D10*
D11*
X299989000Y-281502200D02*
X407989000Y-281502200D01*
D10*
D11*
X300890064Y-283738976D02*
X300890064Y-282468976D01*
X301615779Y-283738976D02*
X301071493Y-283013261D01*
X301615779Y-282468976D02*
X300890064Y-283194690D01*
X302160064Y-283738976D02*
X302160064Y-282892309D01*
X302160064Y-282468976D02*
X302099588Y-282529452D01*
X302099588Y-282529452D02*
X302160064Y-282589928D01*
X302160064Y-282589928D02*
X302220541Y-282529452D01*
X302220541Y-282529452D02*
X302160064Y-282468976D01*
X302160064Y-282468976D02*
X302160064Y-282589928D01*
X303490541Y-283618023D02*
X303430065Y-283678500D01*
X303430065Y-283678500D02*
X303248636Y-283738976D01*
X303248636Y-283738976D02*
X303127684Y-283738976D01*
X303127684Y-283738976D02*
X302946255Y-283678500D01*
X302946255Y-283678500D02*
X302825303Y-283557547D01*
X302825303Y-283557547D02*
X302764826Y-283436595D01*
X302764826Y-283436595D02*
X302704350Y-283194690D01*
X302704350Y-283194690D02*
X302704350Y-283013261D01*
X302704350Y-283013261D02*
X302764826Y-282771357D01*
X302764826Y-282771357D02*
X302825303Y-282650404D01*
X302825303Y-282650404D02*
X302946255Y-282529452D01*
X302946255Y-282529452D02*
X303127684Y-282468976D01*
X303127684Y-282468976D02*
X303248636Y-282468976D01*
X303248636Y-282468976D02*
X303430065Y-282529452D01*
X303430065Y-282529452D02*
X303490541Y-282589928D01*
X304579112Y-283738976D02*
X304579112Y-283073738D01*
X304579112Y-283073738D02*
X304518636Y-282952785D01*
X304518636Y-282952785D02*
X304397684Y-282892309D01*
X304397684Y-282892309D02*
X304155779Y-282892309D01*
X304155779Y-282892309D02*
X304034826Y-282952785D01*
X304579112Y-283678500D02*
X304458160Y-283738976D01*
X304458160Y-283738976D02*
X304155779Y-283738976D01*
X304155779Y-283738976D02*
X304034826Y-283678500D01*
X304034826Y-283678500D02*
X303974350Y-283557547D01*
X303974350Y-283557547D02*
X303974350Y-283436595D01*
X303974350Y-283436595D02*
X304034826Y-283315642D01*
X304034826Y-283315642D02*
X304155779Y-283255166D01*
X304155779Y-283255166D02*
X304458160Y-283255166D01*
X304458160Y-283255166D02*
X304579112Y-283194690D01*
X305728160Y-283738976D02*
X305728160Y-282468976D01*
X305728160Y-283678500D02*
X305607208Y-283738976D01*
X305607208Y-283738976D02*
X305365303Y-283738976D01*
X305365303Y-283738976D02*
X305244351Y-283678500D01*
X305244351Y-283678500D02*
X305183874Y-283618023D01*
X305183874Y-283618023D02*
X305123398Y-283497071D01*
X305123398Y-283497071D02*
X305123398Y-283134214D01*
X305123398Y-283134214D02*
X305183874Y-283013261D01*
X305183874Y-283013261D02*
X305244351Y-282952785D01*
X305244351Y-282952785D02*
X305365303Y-282892309D01*
X305365303Y-282892309D02*
X305607208Y-282892309D01*
X305607208Y-282892309D02*
X305728160Y-282952785D01*
X307300541Y-283073738D02*
X307723875Y-283073738D01*
X307905303Y-283738976D02*
X307300541Y-283738976D01*
X307300541Y-283738976D02*
X307300541Y-282468976D01*
X307300541Y-282468976D02*
X307905303Y-282468976D01*
X308449589Y-283618023D02*
X308510066Y-283678500D01*
X308510066Y-283678500D02*
X308449589Y-283738976D01*
X308449589Y-283738976D02*
X308389113Y-283678500D01*
X308389113Y-283678500D02*
X308449589Y-283618023D01*
X308449589Y-283618023D02*
X308449589Y-283738976D01*
X309054351Y-283738976D02*
X309054351Y-282468976D01*
X309054351Y-282468976D02*
X309356732Y-282468976D01*
X309356732Y-282468976D02*
X309538161Y-282529452D01*
X309538161Y-282529452D02*
X309659113Y-282650404D01*
X309659113Y-282650404D02*
X309719590Y-282771357D01*
X309719590Y-282771357D02*
X309780066Y-283013261D01*
X309780066Y-283013261D02*
X309780066Y-283194690D01*
X309780066Y-283194690D02*
X309719590Y-283436595D01*
X309719590Y-283436595D02*
X309659113Y-283557547D01*
X309659113Y-283557547D02*
X309538161Y-283678500D01*
X309538161Y-283678500D02*
X309356732Y-283738976D01*
X309356732Y-283738976D02*
X309054351Y-283738976D01*
X310324351Y-283618023D02*
X310384828Y-283678500D01*
X310384828Y-283678500D02*
X310324351Y-283738976D01*
X310324351Y-283738976D02*
X310263875Y-283678500D01*
X310263875Y-283678500D02*
X310324351Y-283618023D01*
X310324351Y-283618023D02*
X310324351Y-283738976D01*
X310868637Y-283376119D02*
X311473399Y-283376119D01*
X310747685Y-283738976D02*
X311171018Y-282468976D01*
X311171018Y-282468976D02*
X311594352Y-283738976D01*
X312017684Y-283618023D02*
X312078161Y-283678500D01*
X312078161Y-283678500D02*
X312017684Y-283738976D01*
X312017684Y-283738976D02*
X311957208Y-283678500D01*
X311957208Y-283678500D02*
X312017684Y-283618023D01*
X312017684Y-283618023D02*
X312017684Y-283738976D01*
X313771494Y-283013261D02*
X313650542Y-282952785D01*
X313650542Y-282952785D02*
X313590065Y-282892309D01*
X313590065Y-282892309D02*
X313529589Y-282771357D01*
X313529589Y-282771357D02*
X313529589Y-282710880D01*
X313529589Y-282710880D02*
X313590065Y-282589928D01*
X313590065Y-282589928D02*
X313650542Y-282529452D01*
X313650542Y-282529452D02*
X313771494Y-282468976D01*
X313771494Y-282468976D02*
X314013399Y-282468976D01*
X314013399Y-282468976D02*
X314134351Y-282529452D01*
X314134351Y-282529452D02*
X314194827Y-282589928D01*
X314194827Y-282589928D02*
X314255304Y-282710880D01*
X314255304Y-282710880D02*
X314255304Y-282771357D01*
X314255304Y-282771357D02*
X314194827Y-282892309D01*
X314194827Y-282892309D02*
X314134351Y-282952785D01*
X314134351Y-282952785D02*
X314013399Y-283013261D01*
X314013399Y-283013261D02*
X313771494Y-283013261D01*
X313771494Y-283013261D02*
X313650542Y-283073738D01*
X313650542Y-283073738D02*
X313590065Y-283134214D01*
X313590065Y-283134214D02*
X313529589Y-283255166D01*
X313529589Y-283255166D02*
X313529589Y-283497071D01*
X313529589Y-283497071D02*
X313590065Y-283618023D01*
X313590065Y-283618023D02*
X313650542Y-283678500D01*
X313650542Y-283678500D02*
X313771494Y-283738976D01*
X313771494Y-283738976D02*
X314013399Y-283738976D01*
X314013399Y-283738976D02*
X314134351Y-283678500D01*
X314134351Y-283678500D02*
X314194827Y-283618023D01*
X314194827Y-283618023D02*
X314255304Y-283497071D01*
X314255304Y-283497071D02*
X314255304Y-283255166D01*
X314255304Y-283255166D02*
X314194827Y-283134214D01*
X314194827Y-283134214D02*
X314134351Y-283073738D01*
X314134351Y-283073738D02*
X314013399Y-283013261D01*
X314799589Y-283618023D02*
X314860066Y-283678500D01*
X314860066Y-283678500D02*
X314799589Y-283738976D01*
X314799589Y-283738976D02*
X314739113Y-283678500D01*
X314739113Y-283678500D02*
X314799589Y-283618023D01*
X314799589Y-283618023D02*
X314799589Y-283738976D01*
X315646256Y-282468976D02*
X315767209Y-282468976D01*
X315767209Y-282468976D02*
X315888161Y-282529452D01*
X315888161Y-282529452D02*
X315948637Y-282589928D01*
X315948637Y-282589928D02*
X316009113Y-282710880D01*
X316009113Y-282710880D02*
X316069590Y-282952785D01*
X316069590Y-282952785D02*
X316069590Y-283255166D01*
X316069590Y-283255166D02*
X316009113Y-283497071D01*
X316009113Y-283497071D02*
X315948637Y-283618023D01*
X315948637Y-283618023D02*
X315888161Y-283678500D01*
X315888161Y-283678500D02*
X315767209Y-283738976D01*
X315767209Y-283738976D02*
X315646256Y-283738976D01*
X315646256Y-283738976D02*
X315525304Y-283678500D01*
X315525304Y-283678500D02*
X315464828Y-283618023D01*
X315464828Y-283618023D02*
X315404351Y-283497071D01*
X315404351Y-283497071D02*
X315343875Y-283255166D01*
X315343875Y-283255166D02*
X315343875Y-282952785D01*
X315343875Y-282952785D02*
X315404351Y-282710880D01*
X315404351Y-282710880D02*
X315464828Y-282589928D01*
X315464828Y-282589928D02*
X315525304Y-282529452D01*
X315525304Y-282529452D02*
X315646256Y-282468976D01*
X316613875Y-283618023D02*
X316674352Y-283678500D01*
X316674352Y-283678500D02*
X316613875Y-283738976D01*
X316613875Y-283738976D02*
X316553399Y-283678500D01*
X316553399Y-283678500D02*
X316613875Y-283618023D01*
X316613875Y-283618023D02*
X316613875Y-283738976D01*
X317762923Y-282892309D02*
X317762923Y-283738976D01*
X317460542Y-282408500D02*
X317158161Y-283315642D01*
X317158161Y-283315642D02*
X317944352Y-283315642D01*
D10*
D11*
X299988800Y-275502000D02*
X407988800Y-275502000D01*
D10*
D12*
X376063247Y-273833568D02*
X375458485Y-273833568D01*
X375458485Y-273833568D02*
X375458485Y-272563568D01*
X377030866Y-273833568D02*
X377030866Y-273168330D01*
X377030866Y-273168330D02*
X376970390Y-273047377D01*
X376970390Y-273047377D02*
X376849438Y-272986901D01*
X376849438Y-272986901D02*
X376607533Y-272986901D01*
X376607533Y-272986901D02*
X376486580Y-273047377D01*
X377030866Y-273773092D02*
X376909914Y-273833568D01*
X376909914Y-273833568D02*
X376607533Y-273833568D01*
X376607533Y-273833568D02*
X376486580Y-273773092D01*
X376486580Y-273773092D02*
X376426104Y-273652139D01*
X376426104Y-273652139D02*
X376426104Y-273531187D01*
X376426104Y-273531187D02*
X376486580Y-273410234D01*
X376486580Y-273410234D02*
X376607533Y-273349758D01*
X376607533Y-273349758D02*
X376909914Y-273349758D01*
X376909914Y-273349758D02*
X377030866Y-273289282D01*
X377514676Y-272986901D02*
X377817057Y-273833568D01*
X378119438Y-272986901D02*
X377817057Y-273833568D01*
X377817057Y-273833568D02*
X377696105Y-274135949D01*
X377696105Y-274135949D02*
X377635628Y-274196425D01*
X377635628Y-274196425D02*
X377514676Y-274256901D01*
X378784676Y-273833568D02*
X378663724Y-273773092D01*
X378663724Y-273773092D02*
X378603247Y-273712615D01*
X378603247Y-273712615D02*
X378542771Y-273591663D01*
X378542771Y-273591663D02*
X378542771Y-273228806D01*
X378542771Y-273228806D02*
X378603247Y-273107853D01*
X378603247Y-273107853D02*
X378663724Y-273047377D01*
X378663724Y-273047377D02*
X378784676Y-272986901D01*
X378784676Y-272986901D02*
X378966105Y-272986901D01*
X378966105Y-272986901D02*
X379087057Y-273047377D01*
X379087057Y-273047377D02*
X379147533Y-273107853D01*
X379147533Y-273107853D02*
X379208009Y-273228806D01*
X379208009Y-273228806D02*
X379208009Y-273591663D01*
X379208009Y-273591663D02*
X379147533Y-273712615D01*
X379147533Y-273712615D02*
X379087057Y-273773092D01*
X379087057Y-273773092D02*
X378966105Y-273833568D01*
X378966105Y-273833568D02*
X378784676Y-273833568D01*
X380296581Y-272986901D02*
X380296581Y-273833568D01*
X379752295Y-272986901D02*
X379752295Y-273652139D01*
X379752295Y-273652139D02*
X379812772Y-273773092D01*
X379812772Y-273773092D02*
X379933724Y-273833568D01*
X379933724Y-273833568D02*
X380115153Y-273833568D01*
X380115153Y-273833568D02*
X380236105Y-273773092D01*
X380236105Y-273773092D02*
X380296581Y-273712615D01*
X380719915Y-272986901D02*
X381203724Y-272986901D01*
X380901343Y-272563568D02*
X380901343Y-273652139D01*
X380901343Y-273652139D02*
X380961820Y-273773092D01*
X380961820Y-273773092D02*
X381082772Y-273833568D01*
X381082772Y-273833568D02*
X381203724Y-273833568D01*
X383320391Y-273833568D02*
X382897057Y-273228806D01*
X382594676Y-273833568D02*
X382594676Y-272563568D01*
X382594676Y-272563568D02*
X383078486Y-272563568D01*
X383078486Y-272563568D02*
X383199438Y-272624044D01*
X383199438Y-272624044D02*
X383259915Y-272684520D01*
X383259915Y-272684520D02*
X383320391Y-272805472D01*
X383320391Y-272805472D02*
X383320391Y-272986901D01*
X383320391Y-272986901D02*
X383259915Y-273107853D01*
X383259915Y-273107853D02*
X383199438Y-273168330D01*
X383199438Y-273168330D02*
X383078486Y-273228806D01*
X383078486Y-273228806D02*
X382594676Y-273228806D01*
X384348486Y-273773092D02*
X384227534Y-273833568D01*
X384227534Y-273833568D02*
X383985629Y-273833568D01*
X383985629Y-273833568D02*
X383864676Y-273773092D01*
X383864676Y-273773092D02*
X383804200Y-273652139D01*
X383804200Y-273652139D02*
X383804200Y-273168330D01*
X383804200Y-273168330D02*
X383864676Y-273047377D01*
X383864676Y-273047377D02*
X383985629Y-272986901D01*
X383985629Y-272986901D02*
X384227534Y-272986901D01*
X384227534Y-272986901D02*
X384348486Y-273047377D01*
X384348486Y-273047377D02*
X384408962Y-273168330D01*
X384408962Y-273168330D02*
X384408962Y-273289282D01*
X384408962Y-273289282D02*
X383804200Y-273410234D01*
X384832295Y-272986901D02*
X385134676Y-273833568D01*
X385134676Y-273833568D02*
X385437057Y-272986901D01*
X385920866Y-273833568D02*
X385920866Y-272986901D01*
X385920866Y-272563568D02*
X385860390Y-272624044D01*
X385860390Y-272624044D02*
X385920866Y-272684520D01*
X385920866Y-272684520D02*
X385981343Y-272624044D01*
X385981343Y-272624044D02*
X385920866Y-272563568D01*
X385920866Y-272563568D02*
X385920866Y-272684520D01*
X386465152Y-273773092D02*
X386586105Y-273833568D01*
X386586105Y-273833568D02*
X386828009Y-273833568D01*
X386828009Y-273833568D02*
X386948962Y-273773092D01*
X386948962Y-273773092D02*
X387009438Y-273652139D01*
X387009438Y-273652139D02*
X387009438Y-273591663D01*
X387009438Y-273591663D02*
X386948962Y-273470711D01*
X386948962Y-273470711D02*
X386828009Y-273410234D01*
X386828009Y-273410234D02*
X386646581Y-273410234D01*
X386646581Y-273410234D02*
X386525628Y-273349758D01*
X386525628Y-273349758D02*
X386465152Y-273228806D01*
X386465152Y-273228806D02*
X386465152Y-273168330D01*
X386465152Y-273168330D02*
X386525628Y-273047377D01*
X386525628Y-273047377D02*
X386646581Y-272986901D01*
X386646581Y-272986901D02*
X386828009Y-272986901D01*
X386828009Y-272986901D02*
X386948962Y-273047377D01*
X387553723Y-273833568D02*
X387553723Y-272986901D01*
X387553723Y-272563568D02*
X387493247Y-272624044D01*
X387493247Y-272624044D02*
X387553723Y-272684520D01*
X387553723Y-272684520D02*
X387614200Y-272624044D01*
X387614200Y-272624044D02*
X387553723Y-272563568D01*
X387553723Y-272563568D02*
X387553723Y-272684520D01*
X388339914Y-273833568D02*
X388218962Y-273773092D01*
X388218962Y-273773092D02*
X388158485Y-273712615D01*
X388158485Y-273712615D02*
X388098009Y-273591663D01*
X388098009Y-273591663D02*
X388098009Y-273228806D01*
X388098009Y-273228806D02*
X388158485Y-273107853D01*
X388158485Y-273107853D02*
X388218962Y-273047377D01*
X388218962Y-273047377D02*
X388339914Y-272986901D01*
X388339914Y-272986901D02*
X388521343Y-272986901D01*
X388521343Y-272986901D02*
X388642295Y-273047377D01*
X388642295Y-273047377D02*
X388702771Y-273107853D01*
X388702771Y-273107853D02*
X388763247Y-273228806D01*
X388763247Y-273228806D02*
X388763247Y-273591663D01*
X388763247Y-273591663D02*
X388702771Y-273712615D01*
X388702771Y-273712615D02*
X388642295Y-273773092D01*
X388642295Y-273773092D02*
X388521343Y-273833568D01*
X388521343Y-273833568D02*
X388339914Y-273833568D01*
X389307533Y-272986901D02*
X389307533Y-273833568D01*
X389307533Y-273107853D02*
X389368010Y-273047377D01*
X389368010Y-273047377D02*
X389488962Y-272986901D01*
X389488962Y-272986901D02*
X389670391Y-272986901D01*
X389670391Y-272986901D02*
X389791343Y-273047377D01*
X389791343Y-273047377D02*
X389851819Y-273168330D01*
X389851819Y-273168330D02*
X389851819Y-273833568D01*
X390456581Y-273712615D02*
X390517058Y-273773092D01*
X390517058Y-273773092D02*
X390456581Y-273833568D01*
X390456581Y-273833568D02*
X390396105Y-273773092D01*
X390396105Y-273773092D02*
X390456581Y-273712615D01*
X390456581Y-273712615D02*
X390456581Y-273833568D01*
X390456581Y-273047377D02*
X390517058Y-273107853D01*
X390517058Y-273107853D02*
X390456581Y-273168330D01*
X390456581Y-273168330D02*
X390396105Y-273107853D01*
X390396105Y-273107853D02*
X390456581Y-273047377D01*
X390456581Y-273047377D02*
X390456581Y-273168330D01*
X392270867Y-272563568D02*
X392391820Y-272563568D01*
X392391820Y-272563568D02*
X392512772Y-272624044D01*
X392512772Y-272624044D02*
X392573248Y-272684520D01*
X392573248Y-272684520D02*
X392633724Y-272805472D01*
X392633724Y-272805472D02*
X392694201Y-273047377D01*
X392694201Y-273047377D02*
X392694201Y-273349758D01*
X392694201Y-273349758D02*
X392633724Y-273591663D01*
X392633724Y-273591663D02*
X392573248Y-273712615D01*
X392573248Y-273712615D02*
X392512772Y-273773092D01*
X392512772Y-273773092D02*
X392391820Y-273833568D01*
X392391820Y-273833568D02*
X392270867Y-273833568D01*
X392270867Y-273833568D02*
X392149915Y-273773092D01*
X392149915Y-273773092D02*
X392089439Y-273712615D01*
X392089439Y-273712615D02*
X392028962Y-273591663D01*
X392028962Y-273591663D02*
X391968486Y-273349758D01*
X391968486Y-273349758D02*
X391968486Y-273047377D01*
X391968486Y-273047377D02*
X392028962Y-272805472D01*
X392028962Y-272805472D02*
X392089439Y-272684520D01*
X392089439Y-272684520D02*
X392149915Y-272624044D01*
X392149915Y-272624044D02*
X392270867Y-272563568D01*
X393238486Y-273712615D02*
X393298963Y-273773092D01*
X393298963Y-273773092D02*
X393238486Y-273833568D01*
X393238486Y-273833568D02*
X393178010Y-273773092D01*
X393178010Y-273773092D02*
X393238486Y-273712615D01*
X393238486Y-273712615D02*
X393238486Y-273833568D01*
X394085153Y-272563568D02*
X394206106Y-272563568D01*
X394206106Y-272563568D02*
X394327058Y-272624044D01*
X394327058Y-272624044D02*
X394387534Y-272684520D01*
X394387534Y-272684520D02*
X394448010Y-272805472D01*
X394448010Y-272805472D02*
X394508487Y-273047377D01*
X394508487Y-273047377D02*
X394508487Y-273349758D01*
X394508487Y-273349758D02*
X394448010Y-273591663D01*
X394448010Y-273591663D02*
X394387534Y-273712615D01*
X394387534Y-273712615D02*
X394327058Y-273773092D01*
X394327058Y-273773092D02*
X394206106Y-273833568D01*
X394206106Y-273833568D02*
X394085153Y-273833568D01*
X394085153Y-273833568D02*
X393964201Y-273773092D01*
X393964201Y-273773092D02*
X393903725Y-273712615D01*
X393903725Y-273712615D02*
X393843248Y-273591663D01*
X393843248Y-273591663D02*
X393782772Y-273349758D01*
X393782772Y-273349758D02*
X393782772Y-273047377D01*
X393782772Y-273047377D02*
X393843248Y-272805472D01*
X393843248Y-272805472D02*
X393903725Y-272684520D01*
X393903725Y-272684520D02*
X393964201Y-272624044D01*
X393964201Y-272624044D02*
X394085153Y-272563568D01*
X395294677Y-272563568D02*
X395415630Y-272563568D01*
X395415630Y-272563568D02*
X395536582Y-272624044D01*
X395536582Y-272624044D02*
X395597058Y-272684520D01*
X395597058Y-272684520D02*
X395657534Y-272805472D01*
X395657534Y-272805472D02*
X395718011Y-273047377D01*
X395718011Y-273047377D02*
X395718011Y-273349758D01*
X395718011Y-273349758D02*
X395657534Y-273591663D01*
X395657534Y-273591663D02*
X395597058Y-273712615D01*
X395597058Y-273712615D02*
X395536582Y-273773092D01*
X395536582Y-273773092D02*
X395415630Y-273833568D01*
X395415630Y-273833568D02*
X395294677Y-273833568D01*
X395294677Y-273833568D02*
X395173725Y-273773092D01*
X395173725Y-273773092D02*
X395113249Y-273712615D01*
X395113249Y-273712615D02*
X395052772Y-273591663D01*
X395052772Y-273591663D02*
X394992296Y-273349758D01*
X394992296Y-273349758D02*
X394992296Y-273047377D01*
X394992296Y-273047377D02*
X395052772Y-272805472D01*
X395052772Y-272805472D02*
X395113249Y-272684520D01*
X395113249Y-272684520D02*
X395173725Y-272624044D01*
X395173725Y-272624044D02*
X395294677Y-272563568D01*
D10*
D11*
X375329588Y-283678500D02*
X375511017Y-283738976D01*
X375511017Y-283738976D02*
X375813398Y-283738976D01*
X375813398Y-283738976D02*
X375934350Y-283678500D01*
X375934350Y-283678500D02*
X375994826Y-283618023D01*
X375994826Y-283618023D02*
X376055303Y-283497071D01*
X376055303Y-283497071D02*
X376055303Y-283376119D01*
X376055303Y-283376119D02*
X375994826Y-283255166D01*
X375994826Y-283255166D02*
X375934350Y-283194690D01*
X375934350Y-283194690D02*
X375813398Y-283134214D01*
X375813398Y-283134214D02*
X375571493Y-283073738D01*
X375571493Y-283073738D02*
X375450541Y-283013261D01*
X375450541Y-283013261D02*
X375390064Y-282952785D01*
X375390064Y-282952785D02*
X375329588Y-282831833D01*
X375329588Y-282831833D02*
X375329588Y-282710880D01*
X375329588Y-282710880D02*
X375390064Y-282589928D01*
X375390064Y-282589928D02*
X375450541Y-282529452D01*
X375450541Y-282529452D02*
X375571493Y-282468976D01*
X375571493Y-282468976D02*
X375873874Y-282468976D01*
X375873874Y-282468976D02*
X376055303Y-282529452D01*
X376599588Y-283738976D02*
X376599588Y-282892309D01*
X376599588Y-282468976D02*
X376539112Y-282529452D01*
X376539112Y-282529452D02*
X376599588Y-282589928D01*
X376599588Y-282589928D02*
X376660065Y-282529452D01*
X376660065Y-282529452D02*
X376599588Y-282468976D01*
X376599588Y-282468976D02*
X376599588Y-282589928D01*
X377083398Y-282892309D02*
X377748636Y-282892309D01*
X377748636Y-282892309D02*
X377083398Y-283738976D01*
X377083398Y-283738976D02*
X377748636Y-283738976D01*
X378716255Y-283678500D02*
X378595303Y-283738976D01*
X378595303Y-283738976D02*
X378353398Y-283738976D01*
X378353398Y-283738976D02*
X378232445Y-283678500D01*
X378232445Y-283678500D02*
X378171969Y-283557547D01*
X378171969Y-283557547D02*
X378171969Y-283073738D01*
X378171969Y-283073738D02*
X378232445Y-282952785D01*
X378232445Y-282952785D02*
X378353398Y-282892309D01*
X378353398Y-282892309D02*
X378595303Y-282892309D01*
X378595303Y-282892309D02*
X378716255Y-282952785D01*
X378716255Y-282952785D02*
X378776731Y-283073738D01*
X378776731Y-283073738D02*
X378776731Y-283194690D01*
X378776731Y-283194690D02*
X378171969Y-283315642D01*
X379321016Y-283618023D02*
X379381493Y-283678500D01*
X379381493Y-283678500D02*
X379321016Y-283738976D01*
X379321016Y-283738976D02*
X379260540Y-283678500D01*
X379260540Y-283678500D02*
X379321016Y-283618023D01*
X379321016Y-283618023D02*
X379321016Y-283738976D01*
X379321016Y-282952785D02*
X379381493Y-283013261D01*
X379381493Y-283013261D02*
X379321016Y-283073738D01*
X379321016Y-283073738D02*
X379260540Y-283013261D01*
X379260540Y-283013261D02*
X379321016Y-282952785D01*
X379321016Y-282952785D02*
X379321016Y-283073738D01*
X380832921Y-283376119D02*
X381437683Y-283376119D01*
X380711969Y-283738976D02*
X381135302Y-282468976D01*
X381135302Y-282468976D02*
X381558636Y-283738976D01*
X381861016Y-282468976D02*
X382647207Y-282468976D01*
X382647207Y-282468976D02*
X382223873Y-282952785D01*
X382223873Y-282952785D02*
X382405302Y-282952785D01*
X382405302Y-282952785D02*
X382526254Y-283013261D01*
X382526254Y-283013261D02*
X382586730Y-283073738D01*
X382586730Y-283073738D02*
X382647207Y-283194690D01*
X382647207Y-283194690D02*
X382647207Y-283497071D01*
X382647207Y-283497071D02*
X382586730Y-283618023D01*
X382586730Y-283618023D02*
X382526254Y-283678500D01*
X382526254Y-283678500D02*
X382405302Y-283738976D01*
X382405302Y-283738976D02*
X382042445Y-283738976D01*
X382042445Y-283738976D02*
X381921492Y-283678500D01*
X381921492Y-283678500D02*
X381861016Y-283618023D01*
D10*
D11*
X388890064Y-283738976D02*
X388890064Y-282468976D01*
X388890064Y-282468976D02*
X389373874Y-282468976D01*
X389373874Y-282468976D02*
X389494826Y-282529452D01*
X389494826Y-282529452D02*
X389555303Y-282589928D01*
X389555303Y-282589928D02*
X389615779Y-282710880D01*
X389615779Y-282710880D02*
X389615779Y-282892309D01*
X389615779Y-282892309D02*
X389555303Y-283013261D01*
X389555303Y-283013261D02*
X389494826Y-283073738D01*
X389494826Y-283073738D02*
X389373874Y-283134214D01*
X389373874Y-283134214D02*
X388890064Y-283134214D01*
X390704350Y-283738976D02*
X390704350Y-283073738D01*
X390704350Y-283073738D02*
X390643874Y-282952785D01*
X390643874Y-282952785D02*
X390522922Y-282892309D01*
X390522922Y-282892309D02*
X390281017Y-282892309D01*
X390281017Y-282892309D02*
X390160064Y-282952785D01*
X390704350Y-283678500D02*
X390583398Y-283738976D01*
X390583398Y-283738976D02*
X390281017Y-283738976D01*
X390281017Y-283738976D02*
X390160064Y-283678500D01*
X390160064Y-283678500D02*
X390099588Y-283557547D01*
X390099588Y-283557547D02*
X390099588Y-283436595D01*
X390099588Y-283436595D02*
X390160064Y-283315642D01*
X390160064Y-283315642D02*
X390281017Y-283255166D01*
X390281017Y-283255166D02*
X390583398Y-283255166D01*
X390583398Y-283255166D02*
X390704350Y-283194690D01*
X391853398Y-282892309D02*
X391853398Y-283920404D01*
X391853398Y-283920404D02*
X391792922Y-284041357D01*
X391792922Y-284041357D02*
X391732446Y-284101833D01*
X391732446Y-284101833D02*
X391611493Y-284162309D01*
X391611493Y-284162309D02*
X391430065Y-284162309D01*
X391430065Y-284162309D02*
X391309112Y-284101833D01*
X391853398Y-283678500D02*
X391732446Y-283738976D01*
X391732446Y-283738976D02*
X391490541Y-283738976D01*
X391490541Y-283738976D02*
X391369589Y-283678500D01*
X391369589Y-283678500D02*
X391309112Y-283618023D01*
X391309112Y-283618023D02*
X391248636Y-283497071D01*
X391248636Y-283497071D02*
X391248636Y-283134214D01*
X391248636Y-283134214D02*
X391309112Y-283013261D01*
X391309112Y-283013261D02*
X391369589Y-282952785D01*
X391369589Y-282952785D02*
X391490541Y-282892309D01*
X391490541Y-282892309D02*
X391732446Y-282892309D01*
X391732446Y-282892309D02*
X391853398Y-282952785D01*
X392941970Y-283678500D02*
X392821018Y-283738976D01*
X392821018Y-283738976D02*
X392579113Y-283738976D01*
X392579113Y-283738976D02*
X392458160Y-283678500D01*
X392458160Y-283678500D02*
X392397684Y-283557547D01*
X392397684Y-283557547D02*
X392397684Y-283073738D01*
X392397684Y-283073738D02*
X392458160Y-282952785D01*
X392458160Y-282952785D02*
X392579113Y-282892309D01*
X392579113Y-282892309D02*
X392821018Y-282892309D01*
X392821018Y-282892309D02*
X392941970Y-282952785D01*
X392941970Y-282952785D02*
X393002446Y-283073738D01*
X393002446Y-283073738D02*
X393002446Y-283194690D01*
X393002446Y-283194690D02*
X392397684Y-283315642D01*
X393546731Y-283618023D02*
X393607208Y-283678500D01*
X393607208Y-283678500D02*
X393546731Y-283738976D01*
X393546731Y-283738976D02*
X393486255Y-283678500D01*
X393486255Y-283678500D02*
X393546731Y-283618023D01*
X393546731Y-283618023D02*
X393546731Y-283738976D01*
X393546731Y-282952785D02*
X393607208Y-283013261D01*
X393607208Y-283013261D02*
X393546731Y-283073738D01*
X393546731Y-283073738D02*
X393486255Y-283013261D01*
X393486255Y-283013261D02*
X393546731Y-282952785D01*
X393546731Y-282952785D02*
X393546731Y-283073738D01*
X395784351Y-283738976D02*
X395058636Y-283738976D01*
X395421493Y-283738976D02*
X395421493Y-282468976D01*
X395421493Y-282468976D02*
X395300541Y-282650404D01*
X395300541Y-282650404D02*
X395179589Y-282771357D01*
X395179589Y-282771357D02*
X395058636Y-282831833D01*
X397235779Y-282408500D02*
X396147208Y-284041357D01*
X398324351Y-283738976D02*
X397598636Y-283738976D01*
X397961493Y-283738976D02*
X397961493Y-282468976D01*
X397961493Y-282468976D02*
X397840541Y-282650404D01*
X397840541Y-282650404D02*
X397719589Y-282771357D01*
X397719589Y-282771357D02*
X397598636Y-282831833D01*
D10*
D11*
X299988800Y-271502000D02*
X407988800Y-271502000D01*
D10*
D12*
X348458485Y-273833568D02*
X348458485Y-272563568D01*
X348458485Y-272563568D02*
X348942295Y-272563568D01*
X348942295Y-272563568D02*
X349063247Y-272624044D01*
X349063247Y-272624044D02*
X349123724Y-272684520D01*
X349123724Y-272684520D02*
X349184200Y-272805472D01*
X349184200Y-272805472D02*
X349184200Y-272986901D01*
X349184200Y-272986901D02*
X349123724Y-273107853D01*
X349123724Y-273107853D02*
X349063247Y-273168330D01*
X349063247Y-273168330D02*
X348942295Y-273228806D01*
X348942295Y-273228806D02*
X348458485Y-273228806D01*
X349728485Y-273833568D02*
X349728485Y-272986901D01*
X349728485Y-273228806D02*
X349788962Y-273107853D01*
X349788962Y-273107853D02*
X349849438Y-273047377D01*
X349849438Y-273047377D02*
X349970390Y-272986901D01*
X349970390Y-272986901D02*
X350091343Y-272986901D01*
X350696104Y-273833568D02*
X350575152Y-273773092D01*
X350575152Y-273773092D02*
X350514675Y-273712615D01*
X350514675Y-273712615D02*
X350454199Y-273591663D01*
X350454199Y-273591663D02*
X350454199Y-273228806D01*
X350454199Y-273228806D02*
X350514675Y-273107853D01*
X350514675Y-273107853D02*
X350575152Y-273047377D01*
X350575152Y-273047377D02*
X350696104Y-272986901D01*
X350696104Y-272986901D02*
X350877533Y-272986901D01*
X350877533Y-272986901D02*
X350998485Y-273047377D01*
X350998485Y-273047377D02*
X351058961Y-273107853D01*
X351058961Y-273107853D02*
X351119437Y-273228806D01*
X351119437Y-273228806D02*
X351119437Y-273591663D01*
X351119437Y-273591663D02*
X351058961Y-273712615D01*
X351058961Y-273712615D02*
X350998485Y-273773092D01*
X350998485Y-273773092D02*
X350877533Y-273833568D01*
X350877533Y-273833568D02*
X350696104Y-273833568D01*
X352208009Y-273833568D02*
X352208009Y-272563568D01*
X352208009Y-273773092D02*
X352087057Y-273833568D01*
X352087057Y-273833568D02*
X351845152Y-273833568D01*
X351845152Y-273833568D02*
X351724200Y-273773092D01*
X351724200Y-273773092D02*
X351663723Y-273712615D01*
X351663723Y-273712615D02*
X351603247Y-273591663D01*
X351603247Y-273591663D02*
X351603247Y-273228806D01*
X351603247Y-273228806D02*
X351663723Y-273107853D01*
X351663723Y-273107853D02*
X351724200Y-273047377D01*
X351724200Y-273047377D02*
X351845152Y-272986901D01*
X351845152Y-272986901D02*
X352087057Y-272986901D01*
X352087057Y-272986901D02*
X352208009Y-273047377D01*
X353357057Y-272986901D02*
X353357057Y-273833568D01*
X352812771Y-272986901D02*
X352812771Y-273652139D01*
X352812771Y-273652139D02*
X352873248Y-273773092D01*
X352873248Y-273773092D02*
X352994200Y-273833568D01*
X352994200Y-273833568D02*
X353175629Y-273833568D01*
X353175629Y-273833568D02*
X353296581Y-273773092D01*
X353296581Y-273773092D02*
X353357057Y-273712615D01*
X354506105Y-273773092D02*
X354385153Y-273833568D01*
X354385153Y-273833568D02*
X354143248Y-273833568D01*
X354143248Y-273833568D02*
X354022296Y-273773092D01*
X354022296Y-273773092D02*
X353961819Y-273712615D01*
X353961819Y-273712615D02*
X353901343Y-273591663D01*
X353901343Y-273591663D02*
X353901343Y-273228806D01*
X353901343Y-273228806D02*
X353961819Y-273107853D01*
X353961819Y-273107853D02*
X354022296Y-273047377D01*
X354022296Y-273047377D02*
X354143248Y-272986901D01*
X354143248Y-272986901D02*
X354385153Y-272986901D01*
X354385153Y-272986901D02*
X354506105Y-273047377D01*
X354868962Y-272986901D02*
X355352771Y-272986901D01*
X355050390Y-272563568D02*
X355050390Y-273652139D01*
X355050390Y-273652139D02*
X355110867Y-273773092D01*
X355110867Y-273773092D02*
X355231819Y-273833568D01*
X355231819Y-273833568D02*
X355352771Y-273833568D01*
X355776104Y-273712615D02*
X355836581Y-273773092D01*
X355836581Y-273773092D02*
X355776104Y-273833568D01*
X355776104Y-273833568D02*
X355715628Y-273773092D01*
X355715628Y-273773092D02*
X355776104Y-273712615D01*
X355776104Y-273712615D02*
X355776104Y-273833568D01*
X355776104Y-273047377D02*
X355836581Y-273107853D01*
X355836581Y-273107853D02*
X355776104Y-273168330D01*
X355776104Y-273168330D02*
X355715628Y-273107853D01*
X355715628Y-273107853D02*
X355776104Y-273047377D01*
X355776104Y-273047377D02*
X355776104Y-273168330D01*
X358074200Y-273712615D02*
X358013724Y-273773092D01*
X358013724Y-273773092D02*
X357832295Y-273833568D01*
X357832295Y-273833568D02*
X357711343Y-273833568D01*
X357711343Y-273833568D02*
X357529914Y-273773092D01*
X357529914Y-273773092D02*
X357408962Y-273652139D01*
X357408962Y-273652139D02*
X357348485Y-273531187D01*
X357348485Y-273531187D02*
X357288009Y-273289282D01*
X357288009Y-273289282D02*
X357288009Y-273107853D01*
X357288009Y-273107853D02*
X357348485Y-272865949D01*
X357348485Y-272865949D02*
X357408962Y-272744996D01*
X357408962Y-272744996D02*
X357529914Y-272624044D01*
X357529914Y-272624044D02*
X357711343Y-272563568D01*
X357711343Y-272563568D02*
X357832295Y-272563568D01*
X357832295Y-272563568D02*
X358013724Y-272624044D01*
X358013724Y-272624044D02*
X358074200Y-272684520D01*
X359465152Y-273954520D02*
X359344200Y-273894044D01*
X359344200Y-273894044D02*
X359223247Y-273773092D01*
X359223247Y-273773092D02*
X359041819Y-273591663D01*
X359041819Y-273591663D02*
X358920866Y-273531187D01*
X358920866Y-273531187D02*
X358799914Y-273531187D01*
X358860390Y-273833568D02*
X358739438Y-273773092D01*
X358739438Y-273773092D02*
X358618485Y-273652139D01*
X358618485Y-273652139D02*
X358558009Y-273410234D01*
X358558009Y-273410234D02*
X358558009Y-272986901D01*
X358558009Y-272986901D02*
X358618485Y-272744996D01*
X358618485Y-272744996D02*
X358739438Y-272624044D01*
X358739438Y-272624044D02*
X358860390Y-272563568D01*
X358860390Y-272563568D02*
X359102295Y-272563568D01*
X359102295Y-272563568D02*
X359223247Y-272624044D01*
X359223247Y-272624044D02*
X359344200Y-272744996D01*
X359344200Y-272744996D02*
X359404676Y-272986901D01*
X359404676Y-272986901D02*
X359404676Y-273410234D01*
X359404676Y-273410234D02*
X359344200Y-273652139D01*
X359344200Y-273652139D02*
X359223247Y-273773092D01*
X359223247Y-273773092D02*
X359102295Y-273833568D01*
X359102295Y-273833568D02*
X358860390Y-273833568D01*
X359888485Y-272684520D02*
X359948961Y-272624044D01*
X359948961Y-272624044D02*
X360069914Y-272563568D01*
X360069914Y-272563568D02*
X360372295Y-272563568D01*
X360372295Y-272563568D02*
X360493247Y-272624044D01*
X360493247Y-272624044D02*
X360553723Y-272684520D01*
X360553723Y-272684520D02*
X360614200Y-272805472D01*
X360614200Y-272805472D02*
X360614200Y-272926425D01*
X360614200Y-272926425D02*
X360553723Y-273107853D01*
X360553723Y-273107853D02*
X359828009Y-273833568D01*
X359828009Y-273833568D02*
X360614200Y-273833568D01*
D10*
D11*
X301313398Y-266893738D02*
X300890064Y-266893738D01*
X300890064Y-267558976D02*
X300890064Y-266288976D01*
X300890064Y-266288976D02*
X301494826Y-266288976D01*
X301978635Y-267558976D02*
X301978635Y-266712309D01*
X301978635Y-266288976D02*
X301918159Y-266349452D01*
X301918159Y-266349452D02*
X301978635Y-266409928D01*
X301978635Y-266409928D02*
X302039112Y-266349452D01*
X302039112Y-266349452D02*
X301978635Y-266288976D01*
X301978635Y-266288976D02*
X301978635Y-266409928D01*
X302764826Y-267558976D02*
X302643874Y-267498500D01*
X302643874Y-267498500D02*
X302583397Y-267377547D01*
X302583397Y-267377547D02*
X302583397Y-266288976D01*
X303732445Y-267498500D02*
X303611493Y-267558976D01*
X303611493Y-267558976D02*
X303369588Y-267558976D01*
X303369588Y-267558976D02*
X303248635Y-267498500D01*
X303248635Y-267498500D02*
X303188159Y-267377547D01*
X303188159Y-267377547D02*
X303188159Y-266893738D01*
X303188159Y-266893738D02*
X303248635Y-266772785D01*
X303248635Y-266772785D02*
X303369588Y-266712309D01*
X303369588Y-266712309D02*
X303611493Y-266712309D01*
X303611493Y-266712309D02*
X303732445Y-266772785D01*
X303732445Y-266772785D02*
X303792921Y-266893738D01*
X303792921Y-266893738D02*
X303792921Y-267014690D01*
X303792921Y-267014690D02*
X303188159Y-267135642D01*
X304337206Y-267438023D02*
X304397683Y-267498500D01*
X304397683Y-267498500D02*
X304337206Y-267558976D01*
X304337206Y-267558976D02*
X304276730Y-267498500D01*
X304276730Y-267498500D02*
X304337206Y-267438023D01*
X304337206Y-267438023D02*
X304337206Y-267558976D01*
X304337206Y-266772785D02*
X304397683Y-266833261D01*
X304397683Y-266833261D02*
X304337206Y-266893738D01*
X304337206Y-266893738D02*
X304276730Y-266833261D01*
X304276730Y-266833261D02*
X304337206Y-266772785D01*
X304337206Y-266772785D02*
X304337206Y-266893738D01*
X306453873Y-267498500D02*
X306332921Y-267558976D01*
X306332921Y-267558976D02*
X306091016Y-267558976D01*
X306091016Y-267558976D02*
X305970064Y-267498500D01*
X305970064Y-267498500D02*
X305909587Y-267438023D01*
X305909587Y-267438023D02*
X305849111Y-267317071D01*
X305849111Y-267317071D02*
X305849111Y-266954214D01*
X305849111Y-266954214D02*
X305909587Y-266833261D01*
X305909587Y-266833261D02*
X305970064Y-266772785D01*
X305970064Y-266772785D02*
X306091016Y-266712309D01*
X306091016Y-266712309D02*
X306332921Y-266712309D01*
X306332921Y-266712309D02*
X306453873Y-266772785D01*
X307542444Y-266712309D02*
X307542444Y-267982309D01*
X307542444Y-267498500D02*
X307421492Y-267558976D01*
X307421492Y-267558976D02*
X307179587Y-267558976D01*
X307179587Y-267558976D02*
X307058635Y-267498500D01*
X307058635Y-267498500D02*
X306998158Y-267438023D01*
X306998158Y-267438023D02*
X306937682Y-267317071D01*
X306937682Y-267317071D02*
X306937682Y-266954214D01*
X306937682Y-266954214D02*
X306998158Y-266833261D01*
X306998158Y-266833261D02*
X307058635Y-266772785D01*
X307058635Y-266772785D02*
X307179587Y-266712309D01*
X307179587Y-266712309D02*
X307421492Y-266712309D01*
X307421492Y-266712309D02*
X307542444Y-266772785D01*
X308086730Y-266409928D02*
X308147206Y-266349452D01*
X308147206Y-266349452D02*
X308268159Y-266288976D01*
X308268159Y-266288976D02*
X308570540Y-266288976D01*
X308570540Y-266288976D02*
X308691492Y-266349452D01*
X308691492Y-266349452D02*
X308751968Y-266409928D01*
X308751968Y-266409928D02*
X308812445Y-266530880D01*
X308812445Y-266530880D02*
X308812445Y-266651833D01*
X308812445Y-266651833D02*
X308751968Y-266833261D01*
X308751968Y-266833261D02*
X308026254Y-267558976D01*
X308026254Y-267558976D02*
X308812445Y-267558976D01*
X309356730Y-267438023D02*
X309417207Y-267498500D01*
X309417207Y-267498500D02*
X309356730Y-267558976D01*
X309356730Y-267558976D02*
X309296254Y-267498500D01*
X309296254Y-267498500D02*
X309356730Y-267438023D01*
X309356730Y-267438023D02*
X309356730Y-267558976D01*
X309961492Y-267558976D02*
X309961492Y-266288976D01*
X310082445Y-267075166D02*
X310445302Y-267558976D01*
X310445302Y-266712309D02*
X309961492Y-267196119D01*
X310989587Y-267558976D02*
X310989587Y-266712309D01*
X310989587Y-266288976D02*
X310929111Y-266349452D01*
X310929111Y-266349452D02*
X310989587Y-266409928D01*
X310989587Y-266409928D02*
X311050064Y-266349452D01*
X311050064Y-266349452D02*
X310989587Y-266288976D01*
X310989587Y-266288976D02*
X310989587Y-266409928D01*
X312138635Y-267498500D02*
X312017683Y-267558976D01*
X312017683Y-267558976D02*
X311775778Y-267558976D01*
X311775778Y-267558976D02*
X311654826Y-267498500D01*
X311654826Y-267498500D02*
X311594349Y-267438023D01*
X311594349Y-267438023D02*
X311533873Y-267317071D01*
X311533873Y-267317071D02*
X311533873Y-266954214D01*
X311533873Y-266954214D02*
X311594349Y-266833261D01*
X311594349Y-266833261D02*
X311654826Y-266772785D01*
X311654826Y-266772785D02*
X311775778Y-266712309D01*
X311775778Y-266712309D02*
X312017683Y-266712309D01*
X312017683Y-266712309D02*
X312138635Y-266772785D01*
X313227206Y-267558976D02*
X313227206Y-266893738D01*
X313227206Y-266893738D02*
X313166730Y-266772785D01*
X313166730Y-266772785D02*
X313045778Y-266712309D01*
X313045778Y-266712309D02*
X312803873Y-266712309D01*
X312803873Y-266712309D02*
X312682920Y-266772785D01*
X313227206Y-267498500D02*
X313106254Y-267558976D01*
X313106254Y-267558976D02*
X312803873Y-267558976D01*
X312803873Y-267558976D02*
X312682920Y-267498500D01*
X312682920Y-267498500D02*
X312622444Y-267377547D01*
X312622444Y-267377547D02*
X312622444Y-267256595D01*
X312622444Y-267256595D02*
X312682920Y-267135642D01*
X312682920Y-267135642D02*
X312803873Y-267075166D01*
X312803873Y-267075166D02*
X313106254Y-267075166D01*
X313106254Y-267075166D02*
X313227206Y-267014690D01*
X314376254Y-267558976D02*
X314376254Y-266288976D01*
X314376254Y-267498500D02*
X314255302Y-267558976D01*
X314255302Y-267558976D02*
X314013397Y-267558976D01*
X314013397Y-267558976D02*
X313892445Y-267498500D01*
X313892445Y-267498500D02*
X313831968Y-267438023D01*
X313831968Y-267438023D02*
X313771492Y-267317071D01*
X313771492Y-267317071D02*
X313771492Y-266954214D01*
X313771492Y-266954214D02*
X313831968Y-266833261D01*
X313831968Y-266833261D02*
X313892445Y-266772785D01*
X313892445Y-266772785D02*
X314013397Y-266712309D01*
X314013397Y-266712309D02*
X314255302Y-266712309D01*
X314255302Y-266712309D02*
X314376254Y-266772785D01*
X314678636Y-267679928D02*
X315646255Y-267679928D01*
X315948635Y-266712309D02*
X315948635Y-267982309D01*
X315948635Y-266772785D02*
X316069588Y-266712309D01*
X316069588Y-266712309D02*
X316311493Y-266712309D01*
X316311493Y-266712309D02*
X316432445Y-266772785D01*
X316432445Y-266772785D02*
X316492921Y-266833261D01*
X316492921Y-266833261D02*
X316553397Y-266954214D01*
X316553397Y-266954214D02*
X316553397Y-267317071D01*
X316553397Y-267317071D02*
X316492921Y-267438023D01*
X316492921Y-267438023D02*
X316432445Y-267498500D01*
X316432445Y-267498500D02*
X316311493Y-267558976D01*
X316311493Y-267558976D02*
X316069588Y-267558976D01*
X316069588Y-267558976D02*
X315948635Y-267498500D01*
X317641969Y-267498500D02*
X317521017Y-267558976D01*
X317521017Y-267558976D02*
X317279112Y-267558976D01*
X317279112Y-267558976D02*
X317158160Y-267498500D01*
X317158160Y-267498500D02*
X317097683Y-267438023D01*
X317097683Y-267438023D02*
X317037207Y-267317071D01*
X317037207Y-267317071D02*
X317037207Y-266954214D01*
X317037207Y-266954214D02*
X317097683Y-266833261D01*
X317097683Y-266833261D02*
X317158160Y-266772785D01*
X317158160Y-266772785D02*
X317279112Y-266712309D01*
X317279112Y-266712309D02*
X317521017Y-266712309D01*
X317521017Y-266712309D02*
X317641969Y-266772785D01*
X318186254Y-267558976D02*
X318186254Y-266288976D01*
X318186254Y-266772785D02*
X318307207Y-266712309D01*
X318307207Y-266712309D02*
X318549112Y-266712309D01*
X318549112Y-266712309D02*
X318670064Y-266772785D01*
X318670064Y-266772785D02*
X318730540Y-266833261D01*
X318730540Y-266833261D02*
X318791016Y-266954214D01*
X318791016Y-266954214D02*
X318791016Y-267317071D01*
X318791016Y-267317071D02*
X318730540Y-267438023D01*
X318730540Y-267438023D02*
X318670064Y-267498500D01*
X318670064Y-267498500D02*
X318549112Y-267558976D01*
X318549112Y-267558976D02*
X318307207Y-267558976D01*
X318307207Y-267558976D02*
X318186254Y-267498500D01*
D10*
D11*
X299988800Y-265502000D02*
X407988800Y-265502000D01*
D10*
D11*
X300829588Y-269938500D02*
X301011017Y-269998976D01*
X301011017Y-269998976D02*
X301313398Y-269998976D01*
X301313398Y-269998976D02*
X301434350Y-269938500D01*
X301434350Y-269938500D02*
X301494826Y-269878023D01*
X301494826Y-269878023D02*
X301555303Y-269757071D01*
X301555303Y-269757071D02*
X301555303Y-269636119D01*
X301555303Y-269636119D02*
X301494826Y-269515166D01*
X301494826Y-269515166D02*
X301434350Y-269454690D01*
X301434350Y-269454690D02*
X301313398Y-269394214D01*
X301313398Y-269394214D02*
X301071493Y-269333738D01*
X301071493Y-269333738D02*
X300950541Y-269273261D01*
X300950541Y-269273261D02*
X300890064Y-269212785D01*
X300890064Y-269212785D02*
X300829588Y-269091833D01*
X300829588Y-269091833D02*
X300829588Y-268970880D01*
X300829588Y-268970880D02*
X300890064Y-268849928D01*
X300890064Y-268849928D02*
X300950541Y-268789452D01*
X300950541Y-268789452D02*
X301071493Y-268728976D01*
X301071493Y-268728976D02*
X301373874Y-268728976D01*
X301373874Y-268728976D02*
X301555303Y-268789452D01*
X302099588Y-269998976D02*
X302099588Y-268728976D01*
X302643874Y-269998976D02*
X302643874Y-269333738D01*
X302643874Y-269333738D02*
X302583398Y-269212785D01*
X302583398Y-269212785D02*
X302462446Y-269152309D01*
X302462446Y-269152309D02*
X302281017Y-269152309D01*
X302281017Y-269152309D02*
X302160065Y-269212785D01*
X302160065Y-269212785D02*
X302099588Y-269273261D01*
X303732446Y-269938500D02*
X303611494Y-269998976D01*
X303611494Y-269998976D02*
X303369589Y-269998976D01*
X303369589Y-269998976D02*
X303248636Y-269938500D01*
X303248636Y-269938500D02*
X303188160Y-269817547D01*
X303188160Y-269817547D02*
X303188160Y-269333738D01*
X303188160Y-269333738D02*
X303248636Y-269212785D01*
X303248636Y-269212785D02*
X303369589Y-269152309D01*
X303369589Y-269152309D02*
X303611494Y-269152309D01*
X303611494Y-269152309D02*
X303732446Y-269212785D01*
X303732446Y-269212785D02*
X303792922Y-269333738D01*
X303792922Y-269333738D02*
X303792922Y-269454690D01*
X303792922Y-269454690D02*
X303188160Y-269575642D01*
X304821017Y-269938500D02*
X304700065Y-269998976D01*
X304700065Y-269998976D02*
X304458160Y-269998976D01*
X304458160Y-269998976D02*
X304337207Y-269938500D01*
X304337207Y-269938500D02*
X304276731Y-269817547D01*
X304276731Y-269817547D02*
X304276731Y-269333738D01*
X304276731Y-269333738D02*
X304337207Y-269212785D01*
X304337207Y-269212785D02*
X304458160Y-269152309D01*
X304458160Y-269152309D02*
X304700065Y-269152309D01*
X304700065Y-269152309D02*
X304821017Y-269212785D01*
X304821017Y-269212785D02*
X304881493Y-269333738D01*
X304881493Y-269333738D02*
X304881493Y-269454690D01*
X304881493Y-269454690D02*
X304276731Y-269575642D01*
X305244350Y-269152309D02*
X305728159Y-269152309D01*
X305425778Y-268728976D02*
X305425778Y-269817547D01*
X305425778Y-269817547D02*
X305486255Y-269938500D01*
X305486255Y-269938500D02*
X305607207Y-269998976D01*
X305607207Y-269998976D02*
X305728159Y-269998976D01*
X306151492Y-269878023D02*
X306211969Y-269938500D01*
X306211969Y-269938500D02*
X306151492Y-269998976D01*
X306151492Y-269998976D02*
X306091016Y-269938500D01*
X306091016Y-269938500D02*
X306151492Y-269878023D01*
X306151492Y-269878023D02*
X306151492Y-269998976D01*
X306151492Y-269212785D02*
X306211969Y-269273261D01*
X306211969Y-269273261D02*
X306151492Y-269333738D01*
X306151492Y-269333738D02*
X306091016Y-269273261D01*
X306091016Y-269273261D02*
X306151492Y-269212785D01*
X306151492Y-269212785D02*
X306151492Y-269333738D01*
D10*
D11*
X375390064Y-278958976D02*
X375390064Y-277688976D01*
X375390064Y-277688976D02*
X375873874Y-277688976D01*
X375873874Y-277688976D02*
X375994826Y-277749452D01*
X375994826Y-277749452D02*
X376055303Y-277809928D01*
X376055303Y-277809928D02*
X376115779Y-277930880D01*
X376115779Y-277930880D02*
X376115779Y-278112309D01*
X376115779Y-278112309D02*
X376055303Y-278233261D01*
X376055303Y-278233261D02*
X375994826Y-278293738D01*
X375994826Y-278293738D02*
X375873874Y-278354214D01*
X375873874Y-278354214D02*
X375390064Y-278354214D01*
X377204350Y-278958976D02*
X377204350Y-278293738D01*
X377204350Y-278293738D02*
X377143874Y-278172785D01*
X377143874Y-278172785D02*
X377022922Y-278112309D01*
X377022922Y-278112309D02*
X376781017Y-278112309D01*
X376781017Y-278112309D02*
X376660064Y-278172785D01*
X377204350Y-278898500D02*
X377083398Y-278958976D01*
X377083398Y-278958976D02*
X376781017Y-278958976D01*
X376781017Y-278958976D02*
X376660064Y-278898500D01*
X376660064Y-278898500D02*
X376599588Y-278777547D01*
X376599588Y-278777547D02*
X376599588Y-278656595D01*
X376599588Y-278656595D02*
X376660064Y-278535642D01*
X376660064Y-278535642D02*
X376781017Y-278475166D01*
X376781017Y-278475166D02*
X377083398Y-278475166D01*
X377083398Y-278475166D02*
X377204350Y-278414690D01*
X378353398Y-278112309D02*
X378353398Y-279140404D01*
X378353398Y-279140404D02*
X378292922Y-279261357D01*
X378292922Y-279261357D02*
X378232446Y-279321833D01*
X378232446Y-279321833D02*
X378111493Y-279382309D01*
X378111493Y-279382309D02*
X377930065Y-279382309D01*
X377930065Y-279382309D02*
X377809112Y-279321833D01*
X378353398Y-278898500D02*
X378232446Y-278958976D01*
X378232446Y-278958976D02*
X377990541Y-278958976D01*
X377990541Y-278958976D02*
X377869589Y-278898500D01*
X377869589Y-278898500D02*
X377809112Y-278838023D01*
X377809112Y-278838023D02*
X377748636Y-278717071D01*
X377748636Y-278717071D02*
X377748636Y-278354214D01*
X377748636Y-278354214D02*
X377809112Y-278233261D01*
X377809112Y-278233261D02*
X377869589Y-278172785D01*
X377869589Y-278172785D02*
X377990541Y-278112309D01*
X377990541Y-278112309D02*
X378232446Y-278112309D01*
X378232446Y-278112309D02*
X378353398Y-278172785D01*
X379441970Y-278898500D02*
X379321018Y-278958976D01*
X379321018Y-278958976D02*
X379079113Y-278958976D01*
X379079113Y-278958976D02*
X378958160Y-278898500D01*
X378958160Y-278898500D02*
X378897684Y-278777547D01*
X378897684Y-278777547D02*
X378897684Y-278293738D01*
X378897684Y-278293738D02*
X378958160Y-278172785D01*
X378958160Y-278172785D02*
X379079113Y-278112309D01*
X379079113Y-278112309D02*
X379321018Y-278112309D01*
X379321018Y-278112309D02*
X379441970Y-278172785D01*
X379441970Y-278172785D02*
X379502446Y-278293738D01*
X379502446Y-278293738D02*
X379502446Y-278414690D01*
X379502446Y-278414690D02*
X378897684Y-278535642D01*
X381740065Y-278958976D02*
X381316731Y-278354214D01*
X381014350Y-278958976D02*
X381014350Y-277688976D01*
X381014350Y-277688976D02*
X381498160Y-277688976D01*
X381498160Y-277688976D02*
X381619112Y-277749452D01*
X381619112Y-277749452D02*
X381679589Y-277809928D01*
X381679589Y-277809928D02*
X381740065Y-277930880D01*
X381740065Y-277930880D02*
X381740065Y-278112309D01*
X381740065Y-278112309D02*
X381679589Y-278233261D01*
X381679589Y-278233261D02*
X381619112Y-278293738D01*
X381619112Y-278293738D02*
X381498160Y-278354214D01*
X381498160Y-278354214D02*
X381014350Y-278354214D01*
X382768160Y-278898500D02*
X382647208Y-278958976D01*
X382647208Y-278958976D02*
X382405303Y-278958976D01*
X382405303Y-278958976D02*
X382284350Y-278898500D01*
X382284350Y-278898500D02*
X382223874Y-278777547D01*
X382223874Y-278777547D02*
X382223874Y-278293738D01*
X382223874Y-278293738D02*
X382284350Y-278172785D01*
X382284350Y-278172785D02*
X382405303Y-278112309D01*
X382405303Y-278112309D02*
X382647208Y-278112309D01*
X382647208Y-278112309D02*
X382768160Y-278172785D01*
X382768160Y-278172785D02*
X382828636Y-278293738D01*
X382828636Y-278293738D02*
X382828636Y-278414690D01*
X382828636Y-278414690D02*
X382223874Y-278535642D01*
X383251969Y-278112309D02*
X383554350Y-278958976D01*
X383554350Y-278958976D02*
X383856731Y-278112309D01*
X384340540Y-278958976D02*
X384340540Y-278112309D01*
X384340540Y-277688976D02*
X384280064Y-277749452D01*
X384280064Y-277749452D02*
X384340540Y-277809928D01*
X384340540Y-277809928D02*
X384401017Y-277749452D01*
X384401017Y-277749452D02*
X384340540Y-277688976D01*
X384340540Y-277688976D02*
X384340540Y-277809928D01*
X384884826Y-278898500D02*
X385005779Y-278958976D01*
X385005779Y-278958976D02*
X385247683Y-278958976D01*
X385247683Y-278958976D02*
X385368636Y-278898500D01*
X385368636Y-278898500D02*
X385429112Y-278777547D01*
X385429112Y-278777547D02*
X385429112Y-278717071D01*
X385429112Y-278717071D02*
X385368636Y-278596119D01*
X385368636Y-278596119D02*
X385247683Y-278535642D01*
X385247683Y-278535642D02*
X385066255Y-278535642D01*
X385066255Y-278535642D02*
X384945302Y-278475166D01*
X384945302Y-278475166D02*
X384884826Y-278354214D01*
X384884826Y-278354214D02*
X384884826Y-278293738D01*
X384884826Y-278293738D02*
X384945302Y-278172785D01*
X384945302Y-278172785D02*
X385066255Y-278112309D01*
X385066255Y-278112309D02*
X385247683Y-278112309D01*
X385247683Y-278112309D02*
X385368636Y-278172785D01*
X385973397Y-278958976D02*
X385973397Y-278112309D01*
X385973397Y-277688976D02*
X385912921Y-277749452D01*
X385912921Y-277749452D02*
X385973397Y-277809928D01*
X385973397Y-277809928D02*
X386033874Y-277749452D01*
X386033874Y-277749452D02*
X385973397Y-277688976D01*
X385973397Y-277688976D02*
X385973397Y-277809928D01*
X386759588Y-278958976D02*
X386638636Y-278898500D01*
X386638636Y-278898500D02*
X386578159Y-278838023D01*
X386578159Y-278838023D02*
X386517683Y-278717071D01*
X386517683Y-278717071D02*
X386517683Y-278354214D01*
X386517683Y-278354214D02*
X386578159Y-278233261D01*
X386578159Y-278233261D02*
X386638636Y-278172785D01*
X386638636Y-278172785D02*
X386759588Y-278112309D01*
X386759588Y-278112309D02*
X386941017Y-278112309D01*
X386941017Y-278112309D02*
X387061969Y-278172785D01*
X387061969Y-278172785D02*
X387122445Y-278233261D01*
X387122445Y-278233261D02*
X387182921Y-278354214D01*
X387182921Y-278354214D02*
X387182921Y-278717071D01*
X387182921Y-278717071D02*
X387122445Y-278838023D01*
X387122445Y-278838023D02*
X387061969Y-278898500D01*
X387061969Y-278898500D02*
X386941017Y-278958976D01*
X386941017Y-278958976D02*
X386759588Y-278958976D01*
X387727207Y-278112309D02*
X387727207Y-278958976D01*
X387727207Y-278233261D02*
X387787684Y-278172785D01*
X387787684Y-278172785D02*
X387908636Y-278112309D01*
X387908636Y-278112309D02*
X388090065Y-278112309D01*
X388090065Y-278112309D02*
X388211017Y-278172785D01*
X388211017Y-278172785D02*
X388271493Y-278293738D01*
X388271493Y-278293738D02*
X388271493Y-278958976D01*
X388876255Y-278838023D02*
X388936732Y-278898500D01*
X388936732Y-278898500D02*
X388876255Y-278958976D01*
X388876255Y-278958976D02*
X388815779Y-278898500D01*
X388815779Y-278898500D02*
X388876255Y-278838023D01*
X388876255Y-278838023D02*
X388876255Y-278958976D01*
X388876255Y-278172785D02*
X388936732Y-278233261D01*
X388936732Y-278233261D02*
X388876255Y-278293738D01*
X388876255Y-278293738D02*
X388815779Y-278233261D01*
X388815779Y-278233261D02*
X388876255Y-278172785D01*
X388876255Y-278172785D02*
X388876255Y-278293738D01*
D10*
D11*
X300890064Y-277698976D02*
X300890064Y-276428976D01*
X300890064Y-276428976D02*
X301192445Y-276428976D01*
X301192445Y-276428976D02*
X301373874Y-276489452D01*
X301373874Y-276489452D02*
X301494826Y-276610404D01*
X301494826Y-276610404D02*
X301555303Y-276731357D01*
X301555303Y-276731357D02*
X301615779Y-276973261D01*
X301615779Y-276973261D02*
X301615779Y-277154690D01*
X301615779Y-277154690D02*
X301555303Y-277396595D01*
X301555303Y-277396595D02*
X301494826Y-277517547D01*
X301494826Y-277517547D02*
X301373874Y-277638500D01*
X301373874Y-277638500D02*
X301192445Y-277698976D01*
X301192445Y-277698976D02*
X300890064Y-277698976D01*
X302643874Y-277638500D02*
X302522922Y-277698976D01*
X302522922Y-277698976D02*
X302281017Y-277698976D01*
X302281017Y-277698976D02*
X302160064Y-277638500D01*
X302160064Y-277638500D02*
X302099588Y-277517547D01*
X302099588Y-277517547D02*
X302099588Y-277033738D01*
X302099588Y-277033738D02*
X302160064Y-276912785D01*
X302160064Y-276912785D02*
X302281017Y-276852309D01*
X302281017Y-276852309D02*
X302522922Y-276852309D01*
X302522922Y-276852309D02*
X302643874Y-276912785D01*
X302643874Y-276912785D02*
X302704350Y-277033738D01*
X302704350Y-277033738D02*
X302704350Y-277154690D01*
X302704350Y-277154690D02*
X302099588Y-277275642D01*
X303188159Y-277638500D02*
X303309112Y-277698976D01*
X303309112Y-277698976D02*
X303551016Y-277698976D01*
X303551016Y-277698976D02*
X303671969Y-277638500D01*
X303671969Y-277638500D02*
X303732445Y-277517547D01*
X303732445Y-277517547D02*
X303732445Y-277457071D01*
X303732445Y-277457071D02*
X303671969Y-277336119D01*
X303671969Y-277336119D02*
X303551016Y-277275642D01*
X303551016Y-277275642D02*
X303369588Y-277275642D01*
X303369588Y-277275642D02*
X303248635Y-277215166D01*
X303248635Y-277215166D02*
X303188159Y-277094214D01*
X303188159Y-277094214D02*
X303188159Y-277033738D01*
X303188159Y-277033738D02*
X303248635Y-276912785D01*
X303248635Y-276912785D02*
X303369588Y-276852309D01*
X303369588Y-276852309D02*
X303551016Y-276852309D01*
X303551016Y-276852309D02*
X303671969Y-276912785D01*
X304276730Y-277698976D02*
X304276730Y-276852309D01*
X304276730Y-276428976D02*
X304216254Y-276489452D01*
X304216254Y-276489452D02*
X304276730Y-276549928D01*
X304276730Y-276549928D02*
X304337207Y-276489452D01*
X304337207Y-276489452D02*
X304276730Y-276428976D01*
X304276730Y-276428976D02*
X304276730Y-276549928D01*
X305425778Y-276852309D02*
X305425778Y-277880404D01*
X305425778Y-277880404D02*
X305365302Y-278001357D01*
X305365302Y-278001357D02*
X305304826Y-278061833D01*
X305304826Y-278061833D02*
X305183873Y-278122309D01*
X305183873Y-278122309D02*
X305002445Y-278122309D01*
X305002445Y-278122309D02*
X304881492Y-278061833D01*
X305425778Y-277638500D02*
X305304826Y-277698976D01*
X305304826Y-277698976D02*
X305062921Y-277698976D01*
X305062921Y-277698976D02*
X304941969Y-277638500D01*
X304941969Y-277638500D02*
X304881492Y-277578023D01*
X304881492Y-277578023D02*
X304821016Y-277457071D01*
X304821016Y-277457071D02*
X304821016Y-277094214D01*
X304821016Y-277094214D02*
X304881492Y-276973261D01*
X304881492Y-276973261D02*
X304941969Y-276912785D01*
X304941969Y-276912785D02*
X305062921Y-276852309D01*
X305062921Y-276852309D02*
X305304826Y-276852309D01*
X305304826Y-276852309D02*
X305425778Y-276912785D01*
X306030540Y-276852309D02*
X306030540Y-277698976D01*
X306030540Y-276973261D02*
X306091017Y-276912785D01*
X306091017Y-276912785D02*
X306211969Y-276852309D01*
X306211969Y-276852309D02*
X306393398Y-276852309D01*
X306393398Y-276852309D02*
X306514350Y-276912785D01*
X306514350Y-276912785D02*
X306574826Y-277033738D01*
X306574826Y-277033738D02*
X306574826Y-277698976D01*
X307663398Y-277638500D02*
X307542446Y-277698976D01*
X307542446Y-277698976D02*
X307300541Y-277698976D01*
X307300541Y-277698976D02*
X307179588Y-277638500D01*
X307179588Y-277638500D02*
X307119112Y-277517547D01*
X307119112Y-277517547D02*
X307119112Y-277033738D01*
X307119112Y-277033738D02*
X307179588Y-276912785D01*
X307179588Y-276912785D02*
X307300541Y-276852309D01*
X307300541Y-276852309D02*
X307542446Y-276852309D01*
X307542446Y-276852309D02*
X307663398Y-276912785D01*
X307663398Y-276912785D02*
X307723874Y-277033738D01*
X307723874Y-277033738D02*
X307723874Y-277154690D01*
X307723874Y-277154690D02*
X307119112Y-277275642D01*
X308812445Y-277698976D02*
X308812445Y-276428976D01*
X308812445Y-277638500D02*
X308691493Y-277698976D01*
X308691493Y-277698976D02*
X308449588Y-277698976D01*
X308449588Y-277698976D02*
X308328636Y-277638500D01*
X308328636Y-277638500D02*
X308268159Y-277578023D01*
X308268159Y-277578023D02*
X308207683Y-277457071D01*
X308207683Y-277457071D02*
X308207683Y-277094214D01*
X308207683Y-277094214D02*
X308268159Y-276973261D01*
X308268159Y-276973261D02*
X308328636Y-276912785D01*
X308328636Y-276912785D02*
X308449588Y-276852309D01*
X308449588Y-276852309D02*
X308691493Y-276852309D01*
X308691493Y-276852309D02*
X308812445Y-276912785D01*
X310384826Y-277698976D02*
X310384826Y-276428976D01*
X310384826Y-276912785D02*
X310505779Y-276852309D01*
X310505779Y-276852309D02*
X310747684Y-276852309D01*
X310747684Y-276852309D02*
X310868636Y-276912785D01*
X310868636Y-276912785D02*
X310929112Y-276973261D01*
X310929112Y-276973261D02*
X310989588Y-277094214D01*
X310989588Y-277094214D02*
X310989588Y-277457071D01*
X310989588Y-277457071D02*
X310929112Y-277578023D01*
X310929112Y-277578023D02*
X310868636Y-277638500D01*
X310868636Y-277638500D02*
X310747684Y-277698976D01*
X310747684Y-277698976D02*
X310505779Y-277698976D01*
X310505779Y-277698976D02*
X310384826Y-277638500D01*
X311412922Y-276852309D02*
X311715303Y-277698976D01*
X312017684Y-276852309D02*
X311715303Y-277698976D01*
X311715303Y-277698976D02*
X311594351Y-278001357D01*
X311594351Y-278001357D02*
X311533874Y-278061833D01*
X311533874Y-278061833D02*
X311412922Y-278122309D01*
X312501493Y-277578023D02*
X312561970Y-277638500D01*
X312561970Y-277638500D02*
X312501493Y-277698976D01*
X312501493Y-277698976D02*
X312441017Y-277638500D01*
X312441017Y-277638500D02*
X312501493Y-277578023D01*
X312501493Y-277578023D02*
X312501493Y-277698976D01*
X312501493Y-276912785D02*
X312561970Y-276973261D01*
X312561970Y-276973261D02*
X312501493Y-277033738D01*
X312501493Y-277033738D02*
X312441017Y-276973261D01*
X312441017Y-276973261D02*
X312501493Y-276912785D01*
X312501493Y-276912785D02*
X312501493Y-277033738D01*
D10*
D11*
X301615779Y-280238976D02*
X301192445Y-279634214D01*
X300890064Y-280238976D02*
X300890064Y-278968976D01*
X300890064Y-278968976D02*
X301373874Y-278968976D01*
X301373874Y-278968976D02*
X301494826Y-279029452D01*
X301494826Y-279029452D02*
X301555303Y-279089928D01*
X301555303Y-279089928D02*
X301615779Y-279210880D01*
X301615779Y-279210880D02*
X301615779Y-279392309D01*
X301615779Y-279392309D02*
X301555303Y-279513261D01*
X301555303Y-279513261D02*
X301494826Y-279573738D01*
X301494826Y-279573738D02*
X301373874Y-279634214D01*
X301373874Y-279634214D02*
X300890064Y-279634214D01*
X302643874Y-280178500D02*
X302522922Y-280238976D01*
X302522922Y-280238976D02*
X302281017Y-280238976D01*
X302281017Y-280238976D02*
X302160064Y-280178500D01*
X302160064Y-280178500D02*
X302099588Y-280057547D01*
X302099588Y-280057547D02*
X302099588Y-279573738D01*
X302099588Y-279573738D02*
X302160064Y-279452785D01*
X302160064Y-279452785D02*
X302281017Y-279392309D01*
X302281017Y-279392309D02*
X302522922Y-279392309D01*
X302522922Y-279392309D02*
X302643874Y-279452785D01*
X302643874Y-279452785D02*
X302704350Y-279573738D01*
X302704350Y-279573738D02*
X302704350Y-279694690D01*
X302704350Y-279694690D02*
X302099588Y-279815642D01*
X303127683Y-279392309D02*
X303430064Y-280238976D01*
X303430064Y-280238976D02*
X303732445Y-279392309D01*
X304216254Y-280238976D02*
X304216254Y-279392309D01*
X304216254Y-278968976D02*
X304155778Y-279029452D01*
X304155778Y-279029452D02*
X304216254Y-279089928D01*
X304216254Y-279089928D02*
X304276731Y-279029452D01*
X304276731Y-279029452D02*
X304216254Y-278968976D01*
X304216254Y-278968976D02*
X304216254Y-279089928D01*
X305304826Y-280178500D02*
X305183874Y-280238976D01*
X305183874Y-280238976D02*
X304941969Y-280238976D01*
X304941969Y-280238976D02*
X304821016Y-280178500D01*
X304821016Y-280178500D02*
X304760540Y-280057547D01*
X304760540Y-280057547D02*
X304760540Y-279573738D01*
X304760540Y-279573738D02*
X304821016Y-279452785D01*
X304821016Y-279452785D02*
X304941969Y-279392309D01*
X304941969Y-279392309D02*
X305183874Y-279392309D01*
X305183874Y-279392309D02*
X305304826Y-279452785D01*
X305304826Y-279452785D02*
X305365302Y-279573738D01*
X305365302Y-279573738D02*
X305365302Y-279694690D01*
X305365302Y-279694690D02*
X304760540Y-279815642D01*
X305788635Y-279392309D02*
X306030540Y-280238976D01*
X306030540Y-280238976D02*
X306272445Y-279634214D01*
X306272445Y-279634214D02*
X306514349Y-280238976D01*
X306514349Y-280238976D02*
X306756254Y-279392309D01*
X307723873Y-280178500D02*
X307602921Y-280238976D01*
X307602921Y-280238976D02*
X307361016Y-280238976D01*
X307361016Y-280238976D02*
X307240063Y-280178500D01*
X307240063Y-280178500D02*
X307179587Y-280057547D01*
X307179587Y-280057547D02*
X307179587Y-279573738D01*
X307179587Y-279573738D02*
X307240063Y-279452785D01*
X307240063Y-279452785D02*
X307361016Y-279392309D01*
X307361016Y-279392309D02*
X307602921Y-279392309D01*
X307602921Y-279392309D02*
X307723873Y-279452785D01*
X307723873Y-279452785D02*
X307784349Y-279573738D01*
X307784349Y-279573738D02*
X307784349Y-279694690D01*
X307784349Y-279694690D02*
X307179587Y-279815642D01*
X308872920Y-280238976D02*
X308872920Y-278968976D01*
X308872920Y-280178500D02*
X308751968Y-280238976D01*
X308751968Y-280238976D02*
X308510063Y-280238976D01*
X308510063Y-280238976D02*
X308389111Y-280178500D01*
X308389111Y-280178500D02*
X308328634Y-280118023D01*
X308328634Y-280118023D02*
X308268158Y-279997071D01*
X308268158Y-279997071D02*
X308268158Y-279634214D01*
X308268158Y-279634214D02*
X308328634Y-279513261D01*
X308328634Y-279513261D02*
X308389111Y-279452785D01*
X308389111Y-279452785D02*
X308510063Y-279392309D01*
X308510063Y-279392309D02*
X308751968Y-279392309D01*
X308751968Y-279392309D02*
X308872920Y-279452785D01*
X310445301Y-280238976D02*
X310445301Y-278968976D01*
X310445301Y-279452785D02*
X310566254Y-279392309D01*
X310566254Y-279392309D02*
X310808159Y-279392309D01*
X310808159Y-279392309D02*
X310929111Y-279452785D01*
X310929111Y-279452785D02*
X310989587Y-279513261D01*
X310989587Y-279513261D02*
X311050063Y-279634214D01*
X311050063Y-279634214D02*
X311050063Y-279997071D01*
X311050063Y-279997071D02*
X310989587Y-280118023D01*
X310989587Y-280118023D02*
X310929111Y-280178500D01*
X310929111Y-280178500D02*
X310808159Y-280238976D01*
X310808159Y-280238976D02*
X310566254Y-280238976D01*
X310566254Y-280238976D02*
X310445301Y-280178500D01*
X311473397Y-279392309D02*
X311775778Y-280238976D01*
X312078159Y-279392309D02*
X311775778Y-280238976D01*
X311775778Y-280238976D02*
X311654826Y-280541357D01*
X311654826Y-280541357D02*
X311594349Y-280601833D01*
X311594349Y-280601833D02*
X311473397Y-280662309D01*
X312561968Y-280118023D02*
X312622445Y-280178500D01*
X312622445Y-280178500D02*
X312561968Y-280238976D01*
X312561968Y-280238976D02*
X312501492Y-280178500D01*
X312501492Y-280178500D02*
X312561968Y-280118023D01*
X312561968Y-280118023D02*
X312561968Y-280238976D01*
X312561968Y-279452785D02*
X312622445Y-279513261D01*
X312622445Y-279513261D02*
X312561968Y-279573738D01*
X312561968Y-279573738D02*
X312501492Y-279513261D01*
X312501492Y-279513261D02*
X312561968Y-279452785D01*
X312561968Y-279452785D02*
X312561968Y-279573738D01*
D10*
D11*
X348390064Y-283738976D02*
X348390064Y-282468976D01*
X348934350Y-283678500D02*
X349055303Y-283738976D01*
X349055303Y-283738976D02*
X349297207Y-283738976D01*
X349297207Y-283738976D02*
X349418160Y-283678500D01*
X349418160Y-283678500D02*
X349478636Y-283557547D01*
X349478636Y-283557547D02*
X349478636Y-283497071D01*
X349478636Y-283497071D02*
X349418160Y-283376119D01*
X349418160Y-283376119D02*
X349297207Y-283315642D01*
X349297207Y-283315642D02*
X349115779Y-283315642D01*
X349115779Y-283315642D02*
X348994826Y-283255166D01*
X348994826Y-283255166D02*
X348934350Y-283134214D01*
X348934350Y-283134214D02*
X348934350Y-283073738D01*
X348934350Y-283073738D02*
X348994826Y-282952785D01*
X348994826Y-282952785D02*
X349115779Y-282892309D01*
X349115779Y-282892309D02*
X349297207Y-282892309D01*
X349297207Y-282892309D02*
X349418160Y-282952785D01*
X349962445Y-283678500D02*
X350083398Y-283738976D01*
X350083398Y-283738976D02*
X350325302Y-283738976D01*
X350325302Y-283738976D02*
X350446255Y-283678500D01*
X350446255Y-283678500D02*
X350506731Y-283557547D01*
X350506731Y-283557547D02*
X350506731Y-283497071D01*
X350506731Y-283497071D02*
X350446255Y-283376119D01*
X350446255Y-283376119D02*
X350325302Y-283315642D01*
X350325302Y-283315642D02*
X350143874Y-283315642D01*
X350143874Y-283315642D02*
X350022921Y-283255166D01*
X350022921Y-283255166D02*
X349962445Y-283134214D01*
X349962445Y-283134214D02*
X349962445Y-283073738D01*
X349962445Y-283073738D02*
X350022921Y-282952785D01*
X350022921Y-282952785D02*
X350143874Y-282892309D01*
X350143874Y-282892309D02*
X350325302Y-282892309D01*
X350325302Y-282892309D02*
X350446255Y-282952785D01*
X351595302Y-282892309D02*
X351595302Y-283738976D01*
X351051016Y-282892309D02*
X351051016Y-283557547D01*
X351051016Y-283557547D02*
X351111493Y-283678500D01*
X351111493Y-283678500D02*
X351232445Y-283738976D01*
X351232445Y-283738976D02*
X351413874Y-283738976D01*
X351413874Y-283738976D02*
X351534826Y-283678500D01*
X351534826Y-283678500D02*
X351595302Y-283618023D01*
X352683874Y-283678500D02*
X352562922Y-283738976D01*
X352562922Y-283738976D02*
X352321017Y-283738976D01*
X352321017Y-283738976D02*
X352200064Y-283678500D01*
X352200064Y-283678500D02*
X352139588Y-283557547D01*
X352139588Y-283557547D02*
X352139588Y-283073738D01*
X352139588Y-283073738D02*
X352200064Y-282952785D01*
X352200064Y-282952785D02*
X352321017Y-282892309D01*
X352321017Y-282892309D02*
X352562922Y-282892309D01*
X352562922Y-282892309D02*
X352683874Y-282952785D01*
X352683874Y-282952785D02*
X352744350Y-283073738D01*
X352744350Y-283073738D02*
X352744350Y-283194690D01*
X352744350Y-283194690D02*
X352139588Y-283315642D01*
X354256254Y-283738976D02*
X354256254Y-282468976D01*
X354256254Y-282468976D02*
X354558635Y-282468976D01*
X354558635Y-282468976D02*
X354740064Y-282529452D01*
X354740064Y-282529452D02*
X354861016Y-282650404D01*
X354861016Y-282650404D02*
X354921493Y-282771357D01*
X354921493Y-282771357D02*
X354981969Y-283013261D01*
X354981969Y-283013261D02*
X354981969Y-283194690D01*
X354981969Y-283194690D02*
X354921493Y-283436595D01*
X354921493Y-283436595D02*
X354861016Y-283557547D01*
X354861016Y-283557547D02*
X354740064Y-283678500D01*
X354740064Y-283678500D02*
X354558635Y-283738976D01*
X354558635Y-283738976D02*
X354256254Y-283738976D01*
X356070540Y-283738976D02*
X356070540Y-283073738D01*
X356070540Y-283073738D02*
X356010064Y-282952785D01*
X356010064Y-282952785D02*
X355889112Y-282892309D01*
X355889112Y-282892309D02*
X355647207Y-282892309D01*
X355647207Y-282892309D02*
X355526254Y-282952785D01*
X356070540Y-283678500D02*
X355949588Y-283738976D01*
X355949588Y-283738976D02*
X355647207Y-283738976D01*
X355647207Y-283738976D02*
X355526254Y-283678500D01*
X355526254Y-283678500D02*
X355465778Y-283557547D01*
X355465778Y-283557547D02*
X355465778Y-283436595D01*
X355465778Y-283436595D02*
X355526254Y-283315642D01*
X355526254Y-283315642D02*
X355647207Y-283255166D01*
X355647207Y-283255166D02*
X355949588Y-283255166D01*
X355949588Y-283255166D02*
X356070540Y-283194690D01*
X356493874Y-282892309D02*
X356977683Y-282892309D01*
X356675302Y-282468976D02*
X356675302Y-283557547D01*
X356675302Y-283557547D02*
X356735779Y-283678500D01*
X356735779Y-283678500D02*
X356856731Y-283738976D01*
X356856731Y-283738976D02*
X356977683Y-283738976D01*
X357884826Y-283678500D02*
X357763874Y-283738976D01*
X357763874Y-283738976D02*
X357521969Y-283738976D01*
X357521969Y-283738976D02*
X357401016Y-283678500D01*
X357401016Y-283678500D02*
X357340540Y-283557547D01*
X357340540Y-283557547D02*
X357340540Y-283073738D01*
X357340540Y-283073738D02*
X357401016Y-282952785D01*
X357401016Y-282952785D02*
X357521969Y-282892309D01*
X357521969Y-282892309D02*
X357763874Y-282892309D01*
X357763874Y-282892309D02*
X357884826Y-282952785D01*
X357884826Y-282952785D02*
X357945302Y-283073738D01*
X357945302Y-283073738D02*
X357945302Y-283194690D01*
X357945302Y-283194690D02*
X357340540Y-283315642D01*
X358489587Y-283618023D02*
X358550064Y-283678500D01*
X358550064Y-283678500D02*
X358489587Y-283738976D01*
X358489587Y-283738976D02*
X358429111Y-283678500D01*
X358429111Y-283678500D02*
X358489587Y-283618023D01*
X358489587Y-283618023D02*
X358489587Y-283738976D01*
X358489587Y-282952785D02*
X358550064Y-283013261D01*
X358550064Y-283013261D02*
X358489587Y-283073738D01*
X358489587Y-283073738D02*
X358429111Y-283013261D01*
X358429111Y-283013261D02*
X358489587Y-282952785D01*
X358489587Y-282952785D02*
X358489587Y-283073738D01*
X360001492Y-282589928D02*
X360061968Y-282529452D01*
X360061968Y-282529452D02*
X360182921Y-282468976D01*
X360182921Y-282468976D02*
X360485302Y-282468976D01*
X360485302Y-282468976D02*
X360606254Y-282529452D01*
X360606254Y-282529452D02*
X360666730Y-282589928D01*
X360666730Y-282589928D02*
X360727207Y-282710880D01*
X360727207Y-282710880D02*
X360727207Y-282831833D01*
X360727207Y-282831833D02*
X360666730Y-283013261D01*
X360666730Y-283013261D02*
X359941016Y-283738976D01*
X359941016Y-283738976D02*
X360727207Y-283738976D01*
X361513397Y-282468976D02*
X361634350Y-282468976D01*
X361634350Y-282468976D02*
X361755302Y-282529452D01*
X361755302Y-282529452D02*
X361815778Y-282589928D01*
X361815778Y-282589928D02*
X361876254Y-282710880D01*
X361876254Y-282710880D02*
X361936731Y-282952785D01*
X361936731Y-282952785D02*
X361936731Y-283255166D01*
X361936731Y-283255166D02*
X361876254Y-283497071D01*
X361876254Y-283497071D02*
X361815778Y-283618023D01*
X361815778Y-283618023D02*
X361755302Y-283678500D01*
X361755302Y-283678500D02*
X361634350Y-283738976D01*
X361634350Y-283738976D02*
X361513397Y-283738976D01*
X361513397Y-283738976D02*
X361392445Y-283678500D01*
X361392445Y-283678500D02*
X361331969Y-283618023D01*
X361331969Y-283618023D02*
X361271492Y-283497071D01*
X361271492Y-283497071D02*
X361211016Y-283255166D01*
X361211016Y-283255166D02*
X361211016Y-282952785D01*
X361211016Y-282952785D02*
X361271492Y-282710880D01*
X361271492Y-282710880D02*
X361331969Y-282589928D01*
X361331969Y-282589928D02*
X361392445Y-282529452D01*
X361392445Y-282529452D02*
X361513397Y-282468976D01*
X362420540Y-282589928D02*
X362481016Y-282529452D01*
X362481016Y-282529452D02*
X362601969Y-282468976D01*
X362601969Y-282468976D02*
X362904350Y-282468976D01*
X362904350Y-282468976D02*
X363025302Y-282529452D01*
X363025302Y-282529452D02*
X363085778Y-282589928D01*
X363085778Y-282589928D02*
X363146255Y-282710880D01*
X363146255Y-282710880D02*
X363146255Y-282831833D01*
X363146255Y-282831833D02*
X363085778Y-283013261D01*
X363085778Y-283013261D02*
X362360064Y-283738976D01*
X362360064Y-283738976D02*
X363146255Y-283738976D01*
X364234826Y-282892309D02*
X364234826Y-283738976D01*
X363932445Y-282408500D02*
X363630064Y-283315642D01*
X363630064Y-283315642D02*
X364416255Y-283315642D01*
X364900064Y-283255166D02*
X365867684Y-283255166D01*
X366714350Y-282468976D02*
X366835303Y-282468976D01*
X366835303Y-282468976D02*
X366956255Y-282529452D01*
X366956255Y-282529452D02*
X367016731Y-282589928D01*
X367016731Y-282589928D02*
X367077207Y-282710880D01*
X367077207Y-282710880D02*
X367137684Y-282952785D01*
X367137684Y-282952785D02*
X367137684Y-283255166D01*
X367137684Y-283255166D02*
X367077207Y-283497071D01*
X367077207Y-283497071D02*
X367016731Y-283618023D01*
X367016731Y-283618023D02*
X366956255Y-283678500D01*
X366956255Y-283678500D02*
X366835303Y-283738976D01*
X366835303Y-283738976D02*
X366714350Y-283738976D01*
X366714350Y-283738976D02*
X366593398Y-283678500D01*
X366593398Y-283678500D02*
X366532922Y-283618023D01*
X366532922Y-283618023D02*
X366472445Y-283497071D01*
X366472445Y-283497071D02*
X366411969Y-283255166D01*
X366411969Y-283255166D02*
X366411969Y-282952785D01*
X366411969Y-282952785D02*
X366472445Y-282710880D01*
X366472445Y-282710880D02*
X366532922Y-282589928D01*
X366532922Y-282589928D02*
X366593398Y-282529452D01*
X366593398Y-282529452D02*
X366714350Y-282468976D01*
X367561017Y-282468976D02*
X368407684Y-282468976D01*
X368407684Y-282468976D02*
X367863398Y-283738976D01*
X368891493Y-283255166D02*
X369859113Y-283255166D01*
X370403398Y-282589928D02*
X370463874Y-282529452D01*
X370463874Y-282529452D02*
X370584827Y-282468976D01*
X370584827Y-282468976D02*
X370887208Y-282468976D01*
X370887208Y-282468976D02*
X371008160Y-282529452D01*
X371008160Y-282529452D02*
X371068636Y-282589928D01*
X371068636Y-282589928D02*
X371129113Y-282710880D01*
X371129113Y-282710880D02*
X371129113Y-282831833D01*
X371129113Y-282831833D02*
X371068636Y-283013261D01*
X371068636Y-283013261D02*
X370342922Y-283738976D01*
X370342922Y-283738976D02*
X371129113Y-283738976D01*
X371733875Y-283738976D02*
X371975779Y-283738976D01*
X371975779Y-283738976D02*
X372096732Y-283678500D01*
X372096732Y-283678500D02*
X372157208Y-283618023D01*
X372157208Y-283618023D02*
X372278160Y-283436595D01*
X372278160Y-283436595D02*
X372338637Y-283194690D01*
X372338637Y-283194690D02*
X372338637Y-282710880D01*
X372338637Y-282710880D02*
X372278160Y-282589928D01*
X372278160Y-282589928D02*
X372217684Y-282529452D01*
X372217684Y-282529452D02*
X372096732Y-282468976D01*
X372096732Y-282468976D02*
X371854827Y-282468976D01*
X371854827Y-282468976D02*
X371733875Y-282529452D01*
X371733875Y-282529452D02*
X371673398Y-282589928D01*
X371673398Y-282589928D02*
X371612922Y-282710880D01*
X371612922Y-282710880D02*
X371612922Y-283013261D01*
X371612922Y-283013261D02*
X371673398Y-283134214D01*
X371673398Y-283134214D02*
X371733875Y-283194690D01*
X371733875Y-283194690D02*
X371854827Y-283255166D01*
X371854827Y-283255166D02*
X372096732Y-283255166D01*
X372096732Y-283255166D02*
X372217684Y-283194690D01*
X372217684Y-283194690D02*
X372278160Y-283134214D01*
X372278160Y-283134214D02*
X372338637Y-283013261D01*
D10*
D11*
X349115779Y-280238976D02*
X348692445Y-279634214D01*
X348390064Y-280238976D02*
X348390064Y-278968976D01*
X348390064Y-278968976D02*
X348873874Y-278968976D01*
X348873874Y-278968976D02*
X348994826Y-279029452D01*
X348994826Y-279029452D02*
X349055303Y-279089928D01*
X349055303Y-279089928D02*
X349115779Y-279210880D01*
X349115779Y-279210880D02*
X349115779Y-279392309D01*
X349115779Y-279392309D02*
X349055303Y-279513261D01*
X349055303Y-279513261D02*
X348994826Y-279573738D01*
X348994826Y-279573738D02*
X348873874Y-279634214D01*
X348873874Y-279634214D02*
X348390064Y-279634214D01*
X350143874Y-280178500D02*
X350022922Y-280238976D01*
X350022922Y-280238976D02*
X349781017Y-280238976D01*
X349781017Y-280238976D02*
X349660064Y-280178500D01*
X349660064Y-280178500D02*
X349599588Y-280057547D01*
X349599588Y-280057547D02*
X349599588Y-279573738D01*
X349599588Y-279573738D02*
X349660064Y-279452785D01*
X349660064Y-279452785D02*
X349781017Y-279392309D01*
X349781017Y-279392309D02*
X350022922Y-279392309D01*
X350022922Y-279392309D02*
X350143874Y-279452785D01*
X350143874Y-279452785D02*
X350204350Y-279573738D01*
X350204350Y-279573738D02*
X350204350Y-279694690D01*
X350204350Y-279694690D02*
X349599588Y-279815642D01*
X350627683Y-279392309D02*
X350930064Y-280238976D01*
X350930064Y-280238976D02*
X351232445Y-279392309D01*
X351716254Y-280238976D02*
X351716254Y-279392309D01*
X351716254Y-278968976D02*
X351655778Y-279029452D01*
X351655778Y-279029452D02*
X351716254Y-279089928D01*
X351716254Y-279089928D02*
X351776731Y-279029452D01*
X351776731Y-279029452D02*
X351716254Y-278968976D01*
X351716254Y-278968976D02*
X351716254Y-279089928D01*
X352804826Y-280178500D02*
X352683874Y-280238976D01*
X352683874Y-280238976D02*
X352441969Y-280238976D01*
X352441969Y-280238976D02*
X352321016Y-280178500D01*
X352321016Y-280178500D02*
X352260540Y-280057547D01*
X352260540Y-280057547D02*
X352260540Y-279573738D01*
X352260540Y-279573738D02*
X352321016Y-279452785D01*
X352321016Y-279452785D02*
X352441969Y-279392309D01*
X352441969Y-279392309D02*
X352683874Y-279392309D01*
X352683874Y-279392309D02*
X352804826Y-279452785D01*
X352804826Y-279452785D02*
X352865302Y-279573738D01*
X352865302Y-279573738D02*
X352865302Y-279694690D01*
X352865302Y-279694690D02*
X352260540Y-279815642D01*
X353288635Y-279392309D02*
X353530540Y-280238976D01*
X353530540Y-280238976D02*
X353772445Y-279634214D01*
X353772445Y-279634214D02*
X354014349Y-280238976D01*
X354014349Y-280238976D02*
X354256254Y-279392309D01*
X355707682Y-280238976D02*
X355707682Y-278968976D01*
X355707682Y-278968976D02*
X356010063Y-278968976D01*
X356010063Y-278968976D02*
X356191492Y-279029452D01*
X356191492Y-279029452D02*
X356312444Y-279150404D01*
X356312444Y-279150404D02*
X356372921Y-279271357D01*
X356372921Y-279271357D02*
X356433397Y-279513261D01*
X356433397Y-279513261D02*
X356433397Y-279694690D01*
X356433397Y-279694690D02*
X356372921Y-279936595D01*
X356372921Y-279936595D02*
X356312444Y-280057547D01*
X356312444Y-280057547D02*
X356191492Y-280178500D01*
X356191492Y-280178500D02*
X356010063Y-280238976D01*
X356010063Y-280238976D02*
X355707682Y-280238976D01*
X357521968Y-280238976D02*
X357521968Y-279573738D01*
X357521968Y-279573738D02*
X357461492Y-279452785D01*
X357461492Y-279452785D02*
X357340540Y-279392309D01*
X357340540Y-279392309D02*
X357098635Y-279392309D01*
X357098635Y-279392309D02*
X356977682Y-279452785D01*
X357521968Y-280178500D02*
X357401016Y-280238976D01*
X357401016Y-280238976D02*
X357098635Y-280238976D01*
X357098635Y-280238976D02*
X356977682Y-280178500D01*
X356977682Y-280178500D02*
X356917206Y-280057547D01*
X356917206Y-280057547D02*
X356917206Y-279936595D01*
X356917206Y-279936595D02*
X356977682Y-279815642D01*
X356977682Y-279815642D02*
X357098635Y-279755166D01*
X357098635Y-279755166D02*
X357401016Y-279755166D01*
X357401016Y-279755166D02*
X357521968Y-279694690D01*
X357945302Y-279392309D02*
X358429111Y-279392309D01*
X358126730Y-278968976D02*
X358126730Y-280057547D01*
X358126730Y-280057547D02*
X358187207Y-280178500D01*
X358187207Y-280178500D02*
X358308159Y-280238976D01*
X358308159Y-280238976D02*
X358429111Y-280238976D01*
X359336254Y-280178500D02*
X359215302Y-280238976D01*
X359215302Y-280238976D02*
X358973397Y-280238976D01*
X358973397Y-280238976D02*
X358852444Y-280178500D01*
X358852444Y-280178500D02*
X358791968Y-280057547D01*
X358791968Y-280057547D02*
X358791968Y-279573738D01*
X358791968Y-279573738D02*
X358852444Y-279452785D01*
X358852444Y-279452785D02*
X358973397Y-279392309D01*
X358973397Y-279392309D02*
X359215302Y-279392309D01*
X359215302Y-279392309D02*
X359336254Y-279452785D01*
X359336254Y-279452785D02*
X359396730Y-279573738D01*
X359396730Y-279573738D02*
X359396730Y-279694690D01*
X359396730Y-279694690D02*
X358791968Y-279815642D01*
X359941015Y-280118023D02*
X360001492Y-280178500D01*
X360001492Y-280178500D02*
X359941015Y-280238976D01*
X359941015Y-280238976D02*
X359880539Y-280178500D01*
X359880539Y-280178500D02*
X359941015Y-280118023D01*
X359941015Y-280118023D02*
X359941015Y-280238976D01*
X359941015Y-279452785D02*
X360001492Y-279513261D01*
X360001492Y-279513261D02*
X359941015Y-279573738D01*
X359941015Y-279573738D02*
X359880539Y-279513261D01*
X359880539Y-279513261D02*
X359941015Y-279452785D01*
X359941015Y-279452785D02*
X359941015Y-279573738D01*
D10*
D11*
X301313398Y-273173738D02*
X300890064Y-273173738D01*
X300890064Y-273838976D02*
X300890064Y-272568976D01*
X300890064Y-272568976D02*
X301494826Y-272568976D01*
X302522921Y-272992309D02*
X302522921Y-273838976D01*
X301978635Y-272992309D02*
X301978635Y-273657547D01*
X301978635Y-273657547D02*
X302039112Y-273778500D01*
X302039112Y-273778500D02*
X302160064Y-273838976D01*
X302160064Y-273838976D02*
X302341493Y-273838976D01*
X302341493Y-273838976D02*
X302462445Y-273778500D01*
X302462445Y-273778500D02*
X302522921Y-273718023D01*
X303127683Y-272992309D02*
X303127683Y-273838976D01*
X303127683Y-273113261D02*
X303188160Y-273052785D01*
X303188160Y-273052785D02*
X303309112Y-272992309D01*
X303309112Y-272992309D02*
X303490541Y-272992309D01*
X303490541Y-272992309D02*
X303611493Y-273052785D01*
X303611493Y-273052785D02*
X303671969Y-273173738D01*
X303671969Y-273173738D02*
X303671969Y-273838976D01*
X304821017Y-273778500D02*
X304700065Y-273838976D01*
X304700065Y-273838976D02*
X304458160Y-273838976D01*
X304458160Y-273838976D02*
X304337208Y-273778500D01*
X304337208Y-273778500D02*
X304276731Y-273718023D01*
X304276731Y-273718023D02*
X304216255Y-273597071D01*
X304216255Y-273597071D02*
X304216255Y-273234214D01*
X304216255Y-273234214D02*
X304276731Y-273113261D01*
X304276731Y-273113261D02*
X304337208Y-273052785D01*
X304337208Y-273052785D02*
X304458160Y-272992309D01*
X304458160Y-272992309D02*
X304700065Y-272992309D01*
X304700065Y-272992309D02*
X304821017Y-273052785D01*
X305183874Y-272992309D02*
X305667683Y-272992309D01*
X305365302Y-272568976D02*
X305365302Y-273657547D01*
X305365302Y-273657547D02*
X305425779Y-273778500D01*
X305425779Y-273778500D02*
X305546731Y-273838976D01*
X305546731Y-273838976D02*
X305667683Y-273838976D01*
X306091016Y-273838976D02*
X306091016Y-272992309D01*
X306091016Y-272568976D02*
X306030540Y-272629452D01*
X306030540Y-272629452D02*
X306091016Y-272689928D01*
X306091016Y-272689928D02*
X306151493Y-272629452D01*
X306151493Y-272629452D02*
X306091016Y-272568976D01*
X306091016Y-272568976D02*
X306091016Y-272689928D01*
X306877207Y-273838976D02*
X306756255Y-273778500D01*
X306756255Y-273778500D02*
X306695778Y-273718023D01*
X306695778Y-273718023D02*
X306635302Y-273597071D01*
X306635302Y-273597071D02*
X306635302Y-273234214D01*
X306635302Y-273234214D02*
X306695778Y-273113261D01*
X306695778Y-273113261D02*
X306756255Y-273052785D01*
X306756255Y-273052785D02*
X306877207Y-272992309D01*
X306877207Y-272992309D02*
X307058636Y-272992309D01*
X307058636Y-272992309D02*
X307179588Y-273052785D01*
X307179588Y-273052785D02*
X307240064Y-273113261D01*
X307240064Y-273113261D02*
X307300540Y-273234214D01*
X307300540Y-273234214D02*
X307300540Y-273597071D01*
X307300540Y-273597071D02*
X307240064Y-273718023D01*
X307240064Y-273718023D02*
X307179588Y-273778500D01*
X307179588Y-273778500D02*
X307058636Y-273838976D01*
X307058636Y-273838976D02*
X306877207Y-273838976D01*
X307844826Y-272992309D02*
X307844826Y-273838976D01*
X307844826Y-273113261D02*
X307905303Y-273052785D01*
X307905303Y-273052785D02*
X308026255Y-272992309D01*
X308026255Y-272992309D02*
X308207684Y-272992309D01*
X308207684Y-272992309D02*
X308328636Y-273052785D01*
X308328636Y-273052785D02*
X308389112Y-273173738D01*
X308389112Y-273173738D02*
X308389112Y-273838976D01*
X308993874Y-273718023D02*
X309054351Y-273778500D01*
X309054351Y-273778500D02*
X308993874Y-273838976D01*
X308993874Y-273838976D02*
X308933398Y-273778500D01*
X308933398Y-273778500D02*
X308993874Y-273718023D01*
X308993874Y-273718023D02*
X308993874Y-273838976D01*
X308993874Y-273052785D02*
X309054351Y-273113261D01*
X309054351Y-273113261D02*
X308993874Y-273173738D01*
X308993874Y-273173738D02*
X308933398Y-273113261D01*
X308933398Y-273113261D02*
X308993874Y-273052785D01*
X308993874Y-273052785D02*
X308993874Y-273173738D01*
D10*
D11*
X8697773Y-285873220D02*
X8758250Y-285933696D01*
X8758250Y-285933696D02*
X8818726Y-286115125D01*
X8818726Y-286115125D02*
X8818726Y-286236077D01*
X8818726Y-286236077D02*
X8758250Y-286417506D01*
X8758250Y-286417506D02*
X8637297Y-286538458D01*
X8637297Y-286538458D02*
X8516345Y-286598935D01*
X8516345Y-286598935D02*
X8274440Y-286659411D01*
X8274440Y-286659411D02*
X8093011Y-286659411D01*
X8093011Y-286659411D02*
X7851107Y-286598935D01*
X7851107Y-286598935D02*
X7730154Y-286538458D01*
X7730154Y-286538458D02*
X7609202Y-286417506D01*
X7609202Y-286417506D02*
X7548726Y-286236077D01*
X7548726Y-286236077D02*
X7548726Y-286115125D01*
X7548726Y-286115125D02*
X7609202Y-285933696D01*
X7609202Y-285933696D02*
X7669678Y-285873220D01*
X7548726Y-285087030D02*
X7548726Y-284845125D01*
X7548726Y-284845125D02*
X7609202Y-284724173D01*
X7609202Y-284724173D02*
X7730154Y-284603220D01*
X7730154Y-284603220D02*
X7972059Y-284542744D01*
X7972059Y-284542744D02*
X8395392Y-284542744D01*
X8395392Y-284542744D02*
X8637297Y-284603220D01*
X8637297Y-284603220D02*
X8758250Y-284724173D01*
X8758250Y-284724173D02*
X8818726Y-284845125D01*
X8818726Y-284845125D02*
X8818726Y-285087030D01*
X8818726Y-285087030D02*
X8758250Y-285207982D01*
X8758250Y-285207982D02*
X8637297Y-285328935D01*
X8637297Y-285328935D02*
X8395392Y-285389411D01*
X8395392Y-285389411D02*
X7972059Y-285389411D01*
X7972059Y-285389411D02*
X7730154Y-285328935D01*
X7730154Y-285328935D02*
X7609202Y-285207982D01*
X7609202Y-285207982D02*
X7548726Y-285087030D01*
X8818726Y-283998459D02*
X7548726Y-283998459D01*
X7548726Y-283998459D02*
X7548726Y-283514649D01*
X7548726Y-283514649D02*
X7609202Y-283393697D01*
X7609202Y-283393697D02*
X7669678Y-283333220D01*
X7669678Y-283333220D02*
X7790630Y-283272744D01*
X7790630Y-283272744D02*
X7972059Y-283272744D01*
X7972059Y-283272744D02*
X8093011Y-283333220D01*
X8093011Y-283333220D02*
X8153488Y-283393697D01*
X8153488Y-283393697D02*
X8213964Y-283514649D01*
X8213964Y-283514649D02*
X8213964Y-283998459D01*
X8213964Y-282486554D02*
X8818726Y-282486554D01*
X7548726Y-282909887D02*
X8213964Y-282486554D01*
X8213964Y-282486554D02*
X7548726Y-282063220D01*
X8818726Y-280914173D02*
X8213964Y-281337507D01*
X8818726Y-281639888D02*
X7548726Y-281639888D01*
X7548726Y-281639888D02*
X7548726Y-281156078D01*
X7548726Y-281156078D02*
X7609202Y-281035126D01*
X7609202Y-281035126D02*
X7669678Y-280974649D01*
X7669678Y-280974649D02*
X7790630Y-280914173D01*
X7790630Y-280914173D02*
X7972059Y-280914173D01*
X7972059Y-280914173D02*
X8093011Y-280974649D01*
X8093011Y-280974649D02*
X8153488Y-281035126D01*
X8153488Y-281035126D02*
X8213964Y-281156078D01*
X8213964Y-281156078D02*
X8213964Y-281639888D01*
X8818726Y-280369888D02*
X7548726Y-280369888D01*
X7609202Y-279099887D02*
X7548726Y-279220840D01*
X7548726Y-279220840D02*
X7548726Y-279402268D01*
X7548726Y-279402268D02*
X7609202Y-279583697D01*
X7609202Y-279583697D02*
X7730154Y-279704649D01*
X7730154Y-279704649D02*
X7851107Y-279765126D01*
X7851107Y-279765126D02*
X8093011Y-279825602D01*
X8093011Y-279825602D02*
X8274440Y-279825602D01*
X8274440Y-279825602D02*
X8516345Y-279765126D01*
X8516345Y-279765126D02*
X8637297Y-279704649D01*
X8637297Y-279704649D02*
X8758250Y-279583697D01*
X8758250Y-279583697D02*
X8818726Y-279402268D01*
X8818726Y-279402268D02*
X8818726Y-279281316D01*
X8818726Y-279281316D02*
X8758250Y-279099887D01*
X8758250Y-279099887D02*
X8697773Y-279039411D01*
X8697773Y-279039411D02*
X8274440Y-279039411D01*
X8274440Y-279039411D02*
X8274440Y-279281316D01*
X8818726Y-278495126D02*
X7548726Y-278495126D01*
X8153488Y-278495126D02*
X8153488Y-277769411D01*
X8818726Y-277769411D02*
X7548726Y-277769411D01*
X7548726Y-277346078D02*
X7548726Y-276620364D01*
X8818726Y-276983221D02*
X7548726Y-276983221D01*
X8153488Y-274806078D02*
X8213964Y-274624650D01*
X8213964Y-274624650D02*
X8274440Y-274564173D01*
X8274440Y-274564173D02*
X8395392Y-274503697D01*
X8395392Y-274503697D02*
X8576821Y-274503697D01*
X8576821Y-274503697D02*
X8697773Y-274564173D01*
X8697773Y-274564173D02*
X8758250Y-274624650D01*
X8758250Y-274624650D02*
X8818726Y-274745602D01*
X8818726Y-274745602D02*
X8818726Y-275229412D01*
X8818726Y-275229412D02*
X7548726Y-275229412D01*
X7548726Y-275229412D02*
X7548726Y-274806078D01*
X7548726Y-274806078D02*
X7609202Y-274685126D01*
X7609202Y-274685126D02*
X7669678Y-274624650D01*
X7669678Y-274624650D02*
X7790630Y-274564173D01*
X7790630Y-274564173D02*
X7911583Y-274564173D01*
X7911583Y-274564173D02*
X8032535Y-274624650D01*
X8032535Y-274624650D02*
X8093011Y-274685126D01*
X8093011Y-274685126D02*
X8153488Y-274806078D01*
X8153488Y-274806078D02*
X8153488Y-275229412D01*
X8213964Y-273717507D02*
X8818726Y-273717507D01*
X7548726Y-274140840D02*
X8213964Y-273717507D01*
X8213964Y-273717507D02*
X7548726Y-273294173D01*
X8153488Y-271903222D02*
X8153488Y-271479888D01*
X8818726Y-271298460D02*
X8818726Y-271903222D01*
X8818726Y-271903222D02*
X7548726Y-271903222D01*
X7548726Y-271903222D02*
X7548726Y-271298460D01*
X8818726Y-270754174D02*
X7548726Y-270754174D01*
X8818726Y-270028459D02*
X8093011Y-270572745D01*
X7548726Y-270028459D02*
X8274440Y-270754174D01*
X8153488Y-269060840D02*
X8153488Y-269484174D01*
X8818726Y-269484174D02*
X7548726Y-269484174D01*
X7548726Y-269484174D02*
X7548726Y-268879412D01*
X8153488Y-267427984D02*
X8153488Y-267004650D01*
X8818726Y-266823222D02*
X8818726Y-267427984D01*
X8818726Y-267427984D02*
X7548726Y-267427984D01*
X7548726Y-267427984D02*
X7548726Y-266823222D01*
X8818726Y-265674174D02*
X8818726Y-266278936D01*
X8818726Y-266278936D02*
X7548726Y-266278936D01*
X8153488Y-265250841D02*
X8153488Y-264827507D01*
X8818726Y-264646079D02*
X8818726Y-265250841D01*
X8818726Y-265250841D02*
X7548726Y-265250841D01*
X7548726Y-265250841D02*
X7548726Y-264646079D01*
X8818726Y-264101793D02*
X7548726Y-264101793D01*
X8818726Y-263376078D02*
X8093011Y-263920364D01*
X7548726Y-263376078D02*
X8274440Y-264101793D01*
X7548726Y-263013221D02*
X7548726Y-262287507D01*
X8818726Y-262650364D02*
X7548726Y-262650364D01*
X8818726Y-261138459D02*
X8213964Y-261561793D01*
X8818726Y-261864174D02*
X7548726Y-261864174D01*
X7548726Y-261864174D02*
X7548726Y-261380364D01*
X7548726Y-261380364D02*
X7609202Y-261259412D01*
X7609202Y-261259412D02*
X7669678Y-261198935D01*
X7669678Y-261198935D02*
X7790630Y-261138459D01*
X7790630Y-261138459D02*
X7972059Y-261138459D01*
X7972059Y-261138459D02*
X8093011Y-261198935D01*
X8093011Y-261198935D02*
X8153488Y-261259412D01*
X8153488Y-261259412D02*
X8213964Y-261380364D01*
X8213964Y-261380364D02*
X8213964Y-261864174D01*
X7548726Y-260352269D02*
X7548726Y-260110364D01*
X7548726Y-260110364D02*
X7609202Y-259989412D01*
X7609202Y-259989412D02*
X7730154Y-259868459D01*
X7730154Y-259868459D02*
X7972059Y-259807983D01*
X7972059Y-259807983D02*
X8395392Y-259807983D01*
X8395392Y-259807983D02*
X8637297Y-259868459D01*
X8637297Y-259868459D02*
X8758250Y-259989412D01*
X8758250Y-259989412D02*
X8818726Y-260110364D01*
X8818726Y-260110364D02*
X8818726Y-260352269D01*
X8818726Y-260352269D02*
X8758250Y-260473221D01*
X8758250Y-260473221D02*
X8637297Y-260594174D01*
X8637297Y-260594174D02*
X8395392Y-260654650D01*
X8395392Y-260654650D02*
X7972059Y-260654650D01*
X7972059Y-260654650D02*
X7730154Y-260594174D01*
X7730154Y-260594174D02*
X7609202Y-260473221D01*
X7609202Y-260473221D02*
X7548726Y-260352269D01*
X8818726Y-259263698D02*
X7548726Y-259263698D01*
X7548726Y-259263698D02*
X8818726Y-258537983D01*
X8818726Y-258537983D02*
X7548726Y-258537983D01*
X8818726Y-257933222D02*
X7548726Y-257933222D01*
X8818726Y-257328460D02*
X7548726Y-257328460D01*
X8818726Y-256602745D02*
X8093011Y-257147031D01*
X7548726Y-256602745D02*
X8274440Y-257328460D01*
X7609202Y-254425602D02*
X7548726Y-254546555D01*
X7548726Y-254546555D02*
X7548726Y-254727983D01*
X7548726Y-254727983D02*
X7609202Y-254909412D01*
X7609202Y-254909412D02*
X7730154Y-255030364D01*
X7730154Y-255030364D02*
X7851107Y-255090841D01*
X7851107Y-255090841D02*
X8093011Y-255151317D01*
X8093011Y-255151317D02*
X8274440Y-255151317D01*
X8274440Y-255151317D02*
X8516345Y-255090841D01*
X8516345Y-255090841D02*
X8637297Y-255030364D01*
X8637297Y-255030364D02*
X8758250Y-254909412D01*
X8758250Y-254909412D02*
X8818726Y-254727983D01*
X8818726Y-254727983D02*
X8818726Y-254607031D01*
X8818726Y-254607031D02*
X8758250Y-254425602D01*
X8758250Y-254425602D02*
X8697773Y-254365126D01*
X8697773Y-254365126D02*
X8274440Y-254365126D01*
X8274440Y-254365126D02*
X8274440Y-254607031D01*
X8818726Y-253820841D02*
X7548726Y-253820841D01*
X7548726Y-253820841D02*
X8455869Y-253397507D01*
X8455869Y-253397507D02*
X7548726Y-252974174D01*
X7548726Y-252974174D02*
X8818726Y-252974174D01*
X8153488Y-251946078D02*
X8213964Y-251764650D01*
X8213964Y-251764650D02*
X8274440Y-251704173D01*
X8274440Y-251704173D02*
X8395392Y-251643697D01*
X8395392Y-251643697D02*
X8576821Y-251643697D01*
X8576821Y-251643697D02*
X8697773Y-251704173D01*
X8697773Y-251704173D02*
X8758250Y-251764650D01*
X8758250Y-251764650D02*
X8818726Y-251885602D01*
X8818726Y-251885602D02*
X8818726Y-252369412D01*
X8818726Y-252369412D02*
X7548726Y-252369412D01*
X7548726Y-252369412D02*
X7548726Y-251946078D01*
X7548726Y-251946078D02*
X7609202Y-251825126D01*
X7609202Y-251825126D02*
X7669678Y-251764650D01*
X7669678Y-251764650D02*
X7790630Y-251704173D01*
X7790630Y-251704173D02*
X7911583Y-251704173D01*
X7911583Y-251704173D02*
X8032535Y-251764650D01*
X8032535Y-251764650D02*
X8093011Y-251825126D01*
X8093011Y-251825126D02*
X8153488Y-251946078D01*
X8153488Y-251946078D02*
X8153488Y-252369412D01*
X8818726Y-251099412D02*
X7548726Y-251099412D01*
X8153488Y-251099412D02*
X8153488Y-250373697D01*
X8818726Y-250373697D02*
X7548726Y-250373697D01*
D10*
D11*
X8818726Y-29350935D02*
X7548726Y-29350935D01*
X7548726Y-29350935D02*
X7548726Y-29048554D01*
X7548726Y-29048554D02*
X7609202Y-28867125D01*
X7609202Y-28867125D02*
X7730154Y-28746173D01*
X7730154Y-28746173D02*
X7851107Y-28685696D01*
X7851107Y-28685696D02*
X8093011Y-28625220D01*
X8093011Y-28625220D02*
X8274440Y-28625220D01*
X8274440Y-28625220D02*
X8516345Y-28685696D01*
X8516345Y-28685696D02*
X8637297Y-28746173D01*
X8637297Y-28746173D02*
X8758250Y-28867125D01*
X8758250Y-28867125D02*
X8818726Y-29048554D01*
X8818726Y-29048554D02*
X8818726Y-29350935D01*
X7548726Y-27839030D02*
X7548726Y-27597125D01*
X7548726Y-27597125D02*
X7609202Y-27476173D01*
X7609202Y-27476173D02*
X7730154Y-27355220D01*
X7730154Y-27355220D02*
X7972059Y-27294744D01*
X7972059Y-27294744D02*
X8395392Y-27294744D01*
X8395392Y-27294744D02*
X8637297Y-27355220D01*
X8637297Y-27355220D02*
X8758250Y-27476173D01*
X8758250Y-27476173D02*
X8818726Y-27597125D01*
X8818726Y-27597125D02*
X8818726Y-27839030D01*
X8818726Y-27839030D02*
X8758250Y-27959982D01*
X8758250Y-27959982D02*
X8637297Y-28080935D01*
X8637297Y-28080935D02*
X8395392Y-28141411D01*
X8395392Y-28141411D02*
X7972059Y-28141411D01*
X7972059Y-28141411D02*
X7730154Y-28080935D01*
X7730154Y-28080935D02*
X7609202Y-27959982D01*
X7609202Y-27959982D02*
X7548726Y-27839030D01*
X8818726Y-25782840D02*
X7548726Y-25782840D01*
X7548726Y-25782840D02*
X8818726Y-25057125D01*
X8818726Y-25057125D02*
X7548726Y-25057125D01*
X7548726Y-24210459D02*
X7548726Y-23968554D01*
X7548726Y-23968554D02*
X7609202Y-23847602D01*
X7609202Y-23847602D02*
X7730154Y-23726649D01*
X7730154Y-23726649D02*
X7972059Y-23666173D01*
X7972059Y-23666173D02*
X8395392Y-23666173D01*
X8395392Y-23666173D02*
X8637297Y-23726649D01*
X8637297Y-23726649D02*
X8758250Y-23847602D01*
X8758250Y-23847602D02*
X8818726Y-23968554D01*
X8818726Y-23968554D02*
X8818726Y-24210459D01*
X8818726Y-24210459D02*
X8758250Y-24331411D01*
X8758250Y-24331411D02*
X8637297Y-24452364D01*
X8637297Y-24452364D02*
X8395392Y-24512840D01*
X8395392Y-24512840D02*
X7972059Y-24512840D01*
X7972059Y-24512840D02*
X7730154Y-24452364D01*
X7730154Y-24452364D02*
X7609202Y-24331411D01*
X7609202Y-24331411D02*
X7548726Y-24210459D01*
X7548726Y-23303316D02*
X7548726Y-22577602D01*
X8818726Y-22940459D02*
X7548726Y-22940459D01*
X8818726Y-20460935D02*
X8213964Y-20884269D01*
X8818726Y-21186650D02*
X7548726Y-21186650D01*
X7548726Y-21186650D02*
X7548726Y-20702840D01*
X7548726Y-20702840D02*
X7609202Y-20581888D01*
X7609202Y-20581888D02*
X7669678Y-20521411D01*
X7669678Y-20521411D02*
X7790630Y-20460935D01*
X7790630Y-20460935D02*
X7972059Y-20460935D01*
X7972059Y-20460935D02*
X8093011Y-20521411D01*
X8093011Y-20521411D02*
X8153488Y-20581888D01*
X8153488Y-20581888D02*
X8213964Y-20702840D01*
X8213964Y-20702840D02*
X8213964Y-21186650D01*
X8153488Y-19916650D02*
X8153488Y-19493316D01*
X8818726Y-19311888D02*
X8818726Y-19916650D01*
X8818726Y-19916650D02*
X7548726Y-19916650D01*
X7548726Y-19916650D02*
X7548726Y-19311888D01*
X8818726Y-18767602D02*
X7548726Y-18767602D01*
X7548726Y-18767602D02*
X7548726Y-18283792D01*
X7548726Y-18283792D02*
X7609202Y-18162840D01*
X7609202Y-18162840D02*
X7669678Y-18102363D01*
X7669678Y-18102363D02*
X7790630Y-18041887D01*
X7790630Y-18041887D02*
X7972059Y-18041887D01*
X7972059Y-18041887D02*
X8093011Y-18102363D01*
X8093011Y-18102363D02*
X8153488Y-18162840D01*
X8153488Y-18162840D02*
X8213964Y-18283792D01*
X8213964Y-18283792D02*
X8213964Y-18767602D01*
X8818726Y-16771887D02*
X8213964Y-17195221D01*
X8818726Y-17497602D02*
X7548726Y-17497602D01*
X7548726Y-17497602D02*
X7548726Y-17013792D01*
X7548726Y-17013792D02*
X7609202Y-16892840D01*
X7609202Y-16892840D02*
X7669678Y-16832363D01*
X7669678Y-16832363D02*
X7790630Y-16771887D01*
X7790630Y-16771887D02*
X7972059Y-16771887D01*
X7972059Y-16771887D02*
X8093011Y-16832363D01*
X8093011Y-16832363D02*
X8153488Y-16892840D01*
X8153488Y-16892840D02*
X8213964Y-17013792D01*
X8213964Y-17013792D02*
X8213964Y-17497602D01*
X7548726Y-15985697D02*
X7548726Y-15743792D01*
X7548726Y-15743792D02*
X7609202Y-15622840D01*
X7609202Y-15622840D02*
X7730154Y-15501887D01*
X7730154Y-15501887D02*
X7972059Y-15441411D01*
X7972059Y-15441411D02*
X8395392Y-15441411D01*
X8395392Y-15441411D02*
X8637297Y-15501887D01*
X8637297Y-15501887D02*
X8758250Y-15622840D01*
X8758250Y-15622840D02*
X8818726Y-15743792D01*
X8818726Y-15743792D02*
X8818726Y-15985697D01*
X8818726Y-15985697D02*
X8758250Y-16106649D01*
X8758250Y-16106649D02*
X8637297Y-16227602D01*
X8637297Y-16227602D02*
X8395392Y-16288078D01*
X8395392Y-16288078D02*
X7972059Y-16288078D01*
X7972059Y-16288078D02*
X7730154Y-16227602D01*
X7730154Y-16227602D02*
X7609202Y-16106649D01*
X7609202Y-16106649D02*
X7548726Y-15985697D01*
X8818726Y-14897126D02*
X7548726Y-14897126D01*
X7548726Y-14897126D02*
X7548726Y-14594745D01*
X7548726Y-14594745D02*
X7609202Y-14413316D01*
X7609202Y-14413316D02*
X7730154Y-14292364D01*
X7730154Y-14292364D02*
X7851107Y-14231887D01*
X7851107Y-14231887D02*
X8093011Y-14171411D01*
X8093011Y-14171411D02*
X8274440Y-14171411D01*
X8274440Y-14171411D02*
X8516345Y-14231887D01*
X8516345Y-14231887D02*
X8637297Y-14292364D01*
X8637297Y-14292364D02*
X8758250Y-14413316D01*
X8758250Y-14413316D02*
X8818726Y-14594745D01*
X8818726Y-14594745D02*
X8818726Y-14897126D01*
X7548726Y-13627126D02*
X8576821Y-13627126D01*
X8576821Y-13627126D02*
X8697773Y-13566649D01*
X8697773Y-13566649D02*
X8758250Y-13506173D01*
X8758250Y-13506173D02*
X8818726Y-13385221D01*
X8818726Y-13385221D02*
X8818726Y-13143316D01*
X8818726Y-13143316D02*
X8758250Y-13022364D01*
X8758250Y-13022364D02*
X8697773Y-12961887D01*
X8697773Y-12961887D02*
X8576821Y-12901411D01*
X8576821Y-12901411D02*
X7548726Y-12901411D01*
X8697773Y-11570935D02*
X8758250Y-11631411D01*
X8758250Y-11631411D02*
X8818726Y-11812840D01*
X8818726Y-11812840D02*
X8818726Y-11933792D01*
X8818726Y-11933792D02*
X8758250Y-12115221D01*
X8758250Y-12115221D02*
X8637297Y-12236173D01*
X8637297Y-12236173D02*
X8516345Y-12296650D01*
X8516345Y-12296650D02*
X8274440Y-12357126D01*
X8274440Y-12357126D02*
X8093011Y-12357126D01*
X8093011Y-12357126D02*
X7851107Y-12296650D01*
X7851107Y-12296650D02*
X7730154Y-12236173D01*
X7730154Y-12236173D02*
X7609202Y-12115221D01*
X7609202Y-12115221D02*
X7548726Y-11933792D01*
X7548726Y-11933792D02*
X7548726Y-11812840D01*
X7548726Y-11812840D02*
X7609202Y-11631411D01*
X7609202Y-11631411D02*
X7669678Y-11570935D01*
X8153488Y-11026650D02*
X8153488Y-10603316D01*
X8818726Y-10421888D02*
X8818726Y-11026650D01*
X8818726Y-11026650D02*
X7548726Y-11026650D01*
X7548726Y-11026650D02*
X7548726Y-10421888D01*
D13*
%TO.C,U5*%
G36*
X230650000Y-105200000D02*
G01*
X230800000Y-105200000D01*
X230800000Y-105750000D01*
X231300000Y-105750000D01*
X231300000Y-106000000D01*
X230725000Y-106000000D01*
X230450000Y-105750000D01*
X230450000Y-104700000D01*
X230650000Y-104700000D01*
X230650000Y-105200000D01*
G37*
%TO.C,U14*%
G36*
X241300000Y-194050000D02*
G01*
X239800000Y-194050000D01*
X239800000Y-192250000D01*
X241300000Y-192250000D01*
X241300000Y-194050000D01*
G37*
G36*
X241300000Y-196250000D02*
G01*
X239775000Y-196250000D01*
X239775000Y-194450000D01*
X241300000Y-194450000D01*
X241300000Y-196250000D01*
G37*
G36*
X243200000Y-194050000D02*
G01*
X241700000Y-194050000D01*
X241700000Y-192250000D01*
X243200000Y-192250000D01*
X243200000Y-194050000D01*
G37*
G36*
X243200000Y-196250000D02*
G01*
X241700000Y-196250000D01*
X241700000Y-194450000D01*
X243200000Y-194450000D01*
X243200000Y-196250000D01*
G37*
%TD*%
D14*
%TO.C,R203*%
X221230000Y-148750000D03*
X220270000Y-148750000D03*
%TD*%
D15*
%TO.C,R155*%
X230000000Y-193000000D03*
X230960000Y-193000000D03*
%TD*%
D16*
%TO.C,U11*%
X228425000Y-148750000D03*
X228425000Y-149500000D03*
X229075000Y-148750000D03*
X229075000Y-149500000D03*
D17*
X227250000Y-148375000D03*
X227250000Y-148875000D03*
X227250000Y-149375000D03*
X227250000Y-149875000D03*
X230250000Y-149875000D03*
X230250000Y-149375000D03*
X230250000Y-148875000D03*
X230250000Y-148375000D03*
%TD*%
D18*
%TO.C,R97*%
X191020000Y-196000000D03*
X193980000Y-196000000D03*
%TD*%
D19*
%TO.C,C17*%
X229750000Y-111270000D03*
X229750000Y-112230000D03*
%TD*%
D14*
%TO.C,R105*%
X221730000Y-167750000D03*
X220770000Y-167750000D03*
%TD*%
D20*
%TO.C,X3*%
X233290000Y-145260000D03*
X235210000Y-145260000D03*
X235210000Y-143740000D03*
X233290000Y-143740000D03*
%TD*%
D21*
%TO.C,D15*%
X103325000Y-185200000D03*
X103325000Y-186800000D03*
X104275000Y-186800000D03*
X104275000Y-185200000D03*
%TD*%
D15*
%TO.C,R53*%
X244520000Y-151500000D03*
X245480000Y-151500000D03*
%TD*%
D22*
%TO.C,C9*%
X233000000Y-106085000D03*
X233000000Y-104415000D03*
%TD*%
D15*
%TO.C,R63*%
X244520000Y-156000000D03*
X245480000Y-156000000D03*
%TD*%
%TO.C,R67*%
X244520000Y-157500000D03*
X245480000Y-157500000D03*
%TD*%
%TO.C,R146*%
X235770000Y-194000000D03*
X236730000Y-194000000D03*
%TD*%
D14*
%TO.C,C4*%
X230230000Y-114750000D03*
X229270000Y-114750000D03*
%TD*%
%TO.C,R58*%
X243230000Y-165000000D03*
X242270000Y-165000000D03*
%TD*%
D19*
%TO.C,R177*%
X106400000Y-110020000D03*
X106400000Y-110980000D03*
%TD*%
D14*
%TO.C,R52*%
X243230000Y-148500000D03*
X242270000Y-148500000D03*
%TD*%
D23*
%TO.C,C1*%
X237000000Y-104880000D03*
X237000000Y-103920000D03*
%TD*%
D24*
%TO.C,C166*%
X129750000Y-129330000D03*
X129750000Y-132170000D03*
%TD*%
D15*
%TO.C,C55*%
X244520000Y-172500000D03*
X245480000Y-172500000D03*
%TD*%
%TO.C,C43*%
X234020000Y-176500000D03*
X234980000Y-176500000D03*
%TD*%
D23*
%TO.C,C91*%
X234120000Y-194180000D03*
X234120000Y-193220000D03*
%TD*%
D25*
%TO.C,L3*%
X226000000Y-183365000D03*
X226000000Y-181635000D03*
%TD*%
%TO.C,L12*%
X230500000Y-139865000D03*
X230500000Y-138135000D03*
%TD*%
D15*
%TO.C,R144*%
X223770000Y-191000000D03*
X224730000Y-191000000D03*
%TD*%
%TO.C,C90*%
X232270000Y-183500000D03*
X233230000Y-183500000D03*
%TD*%
D24*
%TO.C,C186*%
X140500000Y-132830000D03*
X140500000Y-135670000D03*
%TD*%
D14*
%TO.C,C51*%
X230230000Y-165000000D03*
X229270000Y-165000000D03*
%TD*%
D15*
%TO.C,R25*%
X236020000Y-114750000D03*
X236980000Y-114750000D03*
%TD*%
D26*
%TO.C,L11*%
X230500000Y-142635000D03*
X230500000Y-144365000D03*
%TD*%
D15*
%TO.C,R69*%
X244520000Y-160500000D03*
X245480000Y-160500000D03*
%TD*%
D14*
%TO.C,C62*%
X220480000Y-186000000D03*
X219520000Y-186000000D03*
%TD*%
D19*
%TO.C,C96*%
X233000000Y-129270000D03*
X233000000Y-130230000D03*
%TD*%
D27*
%TO.C,U47*%
X118710000Y-181810000D03*
X121250000Y-181810000D03*
X123790000Y-181810000D03*
X123790000Y-174190000D03*
X121250000Y-174190000D03*
X118710000Y-174190000D03*
%TD*%
D28*
%TO.C,D25*%
X113940000Y-127250000D03*
X109560000Y-127250000D03*
%TD*%
D29*
%TO.C,R98*%
X213230000Y-196000000D03*
X210270000Y-196000000D03*
%TD*%
D26*
%TO.C,L7*%
X226250000Y-189135000D03*
X226250000Y-190865000D03*
%TD*%
D23*
%TO.C,C111*%
X237250000Y-137230000D03*
X237250000Y-136270000D03*
%TD*%
D28*
%TO.C,D30*%
X113940000Y-157750000D03*
X109560000Y-157750000D03*
%TD*%
D14*
%TO.C,R131*%
X232730000Y-149000000D03*
X231770000Y-149000000D03*
%TD*%
D15*
%TO.C,R101*%
X226270000Y-163250000D03*
X227230000Y-163250000D03*
%TD*%
D19*
%TO.C,R180*%
X102000000Y-189520000D03*
X102000000Y-190480000D03*
%TD*%
D30*
%TO.C,L19*%
X160550000Y-175250000D03*
X149450000Y-175250000D03*
%TD*%
D14*
%TO.C,R12*%
X226730000Y-138000000D03*
X225770000Y-138000000D03*
%TD*%
%TO.C,R78*%
X230230000Y-166250000D03*
X229270000Y-166250000D03*
%TD*%
D22*
%TO.C,C10*%
X235250000Y-106085000D03*
X235250000Y-104415000D03*
%TD*%
D14*
%TO.C,R102*%
X224480000Y-163250000D03*
X223520000Y-163250000D03*
%TD*%
D15*
%TO.C,C34*%
X226120000Y-177000000D03*
X227080000Y-177000000D03*
%TD*%
D14*
%TO.C,R297*%
X196730000Y-196250000D03*
X195770000Y-196250000D03*
%TD*%
D15*
%TO.C,R115*%
X223520000Y-164750000D03*
X224480000Y-164750000D03*
%TD*%
D14*
%TO.C,C45*%
X227080000Y-175000000D03*
X226120000Y-175000000D03*
%TD*%
D31*
%TO.C,C202*%
X144000000Y-167170000D03*
X144000000Y-164330000D03*
%TD*%
D15*
%TO.C,R65*%
X242270000Y-157500000D03*
X243230000Y-157500000D03*
%TD*%
D24*
%TO.C,C117*%
X133000000Y-148580000D03*
X133000000Y-151420000D03*
%TD*%
D14*
%TO.C,R188*%
X177730000Y-112750000D03*
X176770000Y-112750000D03*
%TD*%
D19*
%TO.C,C8*%
X237000000Y-108270000D03*
X237000000Y-109230000D03*
%TD*%
D23*
%TO.C,R178*%
X105200000Y-110980000D03*
X105200000Y-110020000D03*
%TD*%
D14*
%TO.C,C132*%
X188730000Y-115250000D03*
X187770000Y-115250000D03*
%TD*%
D15*
%TO.C,C92*%
X230010000Y-195310000D03*
X230970000Y-195310000D03*
%TD*%
D23*
%TO.C,R43*%
X228500000Y-112230000D03*
X228500000Y-111270000D03*
%TD*%
D15*
%TO.C,R94*%
X242270000Y-163500000D03*
X243230000Y-163500000D03*
%TD*%
D14*
%TO.C,R161*%
X228730000Y-139500000D03*
X227770000Y-139500000D03*
%TD*%
D26*
%TO.C,L2*%
X220000000Y-188635000D03*
X220000000Y-190365000D03*
%TD*%
D14*
%TO.C,R120*%
X220480000Y-181250000D03*
X219520000Y-181250000D03*
%TD*%
D15*
%TO.C,C32*%
X229610000Y-163260000D03*
X230570000Y-163260000D03*
%TD*%
D31*
%TO.C,C244*%
X129520000Y-170670000D03*
X129520000Y-167830000D03*
%TD*%
D14*
%TO.C,C63*%
X220480000Y-187250000D03*
X219520000Y-187250000D03*
%TD*%
D15*
%TO.C,R92*%
X244520000Y-163500000D03*
X245480000Y-163500000D03*
%TD*%
D19*
%TO.C,R44*%
X224750000Y-111270000D03*
X224750000Y-112230000D03*
%TD*%
D14*
%TO.C,R157*%
X177730000Y-110250000D03*
X176770000Y-110250000D03*
%TD*%
%TO.C,R107*%
X228230000Y-158750000D03*
X227270000Y-158750000D03*
%TD*%
D23*
%TO.C,C145*%
X219750000Y-127480000D03*
X219750000Y-126520000D03*
%TD*%
D14*
%TO.C,C33*%
X229680000Y-176600000D03*
X228720000Y-176600000D03*
%TD*%
%TO.C,C102*%
X230980000Y-145750000D03*
X230020000Y-145750000D03*
%TD*%
%TO.C,R64*%
X245480000Y-171000000D03*
X244520000Y-171000000D03*
%TD*%
D23*
%TO.C,C106*%
X236000000Y-141730000D03*
X236000000Y-140770000D03*
%TD*%
D15*
%TO.C,R83*%
X242270000Y-181000000D03*
X243230000Y-181000000D03*
%TD*%
D32*
%TO.C,D8*%
X104275000Y-114800000D03*
X104275000Y-113200000D03*
X103325000Y-113200000D03*
X103325000Y-114800000D03*
%TD*%
D15*
%TO.C,R132*%
X224770000Y-150250000D03*
X225730000Y-150250000D03*
%TD*%
D14*
%TO.C,C25*%
X243230000Y-166250000D03*
X242270000Y-166250000D03*
%TD*%
D26*
%TO.C,L10*%
X230500000Y-132385000D03*
X230500000Y-134115000D03*
%TD*%
D28*
%TO.C,D28*%
X113940000Y-172750000D03*
X109560000Y-172750000D03*
%TD*%
D19*
%TO.C,C103*%
X233000000Y-140770000D03*
X233000000Y-141730000D03*
%TD*%
D14*
%TO.C,R39*%
X232480000Y-114750000D03*
X231520000Y-114750000D03*
%TD*%
D15*
%TO.C,R142*%
X224770000Y-157250000D03*
X225730000Y-157250000D03*
%TD*%
D23*
%TO.C,R174*%
X103000000Y-110980000D03*
X103000000Y-110020000D03*
%TD*%
D32*
%TO.C,D7*%
X101735000Y-114800000D03*
X101735000Y-113200000D03*
X100785000Y-113200000D03*
X100785000Y-114800000D03*
%TD*%
D15*
%TO.C,R202*%
X220270000Y-150250000D03*
X221230000Y-150250000D03*
%TD*%
D14*
%TO.C,C82*%
X236730000Y-195250000D03*
X235770000Y-195250000D03*
%TD*%
D24*
%TO.C,C167*%
X126000000Y-129330000D03*
X126000000Y-132170000D03*
%TD*%
%TO.C,C187*%
X154250000Y-132830000D03*
X154250000Y-135670000D03*
%TD*%
D15*
%TO.C,R93*%
X242270000Y-156000000D03*
X243230000Y-156000000D03*
%TD*%
D14*
%TO.C,C36*%
X229680000Y-178000000D03*
X228720000Y-178000000D03*
%TD*%
%TO.C,C75*%
X234980000Y-150250000D03*
X234020000Y-150250000D03*
%TD*%
D31*
%TO.C,C203*%
X147250000Y-167170000D03*
X147250000Y-164330000D03*
%TD*%
D24*
%TO.C,C189*%
X147250000Y-132830000D03*
X147250000Y-135670000D03*
%TD*%
D28*
%TO.C,D23*%
X113940000Y-132250000D03*
X109560000Y-132250000D03*
%TD*%
D15*
%TO.C,R82*%
X244520000Y-181000000D03*
X245480000Y-181000000D03*
%TD*%
D30*
%TO.C,L18*%
X160550000Y-124750000D03*
X149450000Y-124750000D03*
%TD*%
D19*
%TO.C,R1*%
X234500000Y-129270000D03*
X234500000Y-130230000D03*
%TD*%
D33*
%TO.C,C26*%
X119750000Y-193520000D03*
X119750000Y-196480000D03*
%TD*%
D14*
%TO.C,R112*%
X224480000Y-167750000D03*
X223520000Y-167750000D03*
%TD*%
D22*
%TO.C,C13*%
X223000000Y-106085000D03*
X223000000Y-104415000D03*
%TD*%
D14*
%TO.C,R100*%
X224480000Y-161750000D03*
X223520000Y-161750000D03*
%TD*%
D24*
%TO.C,C124*%
X179250000Y-148580000D03*
X179250000Y-151420000D03*
%TD*%
D19*
%TO.C,R19*%
X242000000Y-129270000D03*
X242000000Y-130230000D03*
%TD*%
D23*
%TO.C,C224*%
X219750000Y-132980000D03*
X219750000Y-132020000D03*
%TD*%
D14*
%TO.C,R143*%
X233230000Y-187750000D03*
X232270000Y-187750000D03*
%TD*%
%TO.C,R109*%
X219480000Y-176250000D03*
X218520000Y-176250000D03*
%TD*%
D19*
%TO.C,R288*%
X118750000Y-183770000D03*
X118750000Y-184730000D03*
%TD*%
%TO.C,R45*%
X223500000Y-111270000D03*
X223500000Y-112230000D03*
%TD*%
D34*
%TO.C,R314*%
X121055000Y-167610000D03*
X118405000Y-167610000D03*
%TD*%
D19*
%TO.C,R289*%
X113500000Y-183520000D03*
X113500000Y-184480000D03*
%TD*%
D15*
%TO.C,R90*%
X242270000Y-187000000D03*
X243230000Y-187000000D03*
%TD*%
%TO.C,C59*%
X236520000Y-178000000D03*
X237480000Y-178000000D03*
%TD*%
%TO.C,R186*%
X109520000Y-189250000D03*
X110480000Y-189250000D03*
%TD*%
D14*
%TO.C,R4*%
X236980000Y-128000000D03*
X236020000Y-128000000D03*
%TD*%
%TO.C,R118*%
X220480000Y-183750000D03*
X219520000Y-183750000D03*
%TD*%
D23*
%TO.C,R254*%
X116000000Y-116230000D03*
X116000000Y-115270000D03*
%TD*%
%TO.C,C85*%
X228750000Y-184730000D03*
X228750000Y-183770000D03*
%TD*%
D31*
%TO.C,C245*%
X126000000Y-170670000D03*
X126000000Y-167830000D03*
%TD*%
D14*
%TO.C,R104*%
X221730000Y-169250000D03*
X220770000Y-169250000D03*
%TD*%
%TO.C,R123*%
X218480000Y-181250000D03*
X217520000Y-181250000D03*
%TD*%
D23*
%TO.C,R252*%
X112250000Y-116230000D03*
X112250000Y-115270000D03*
%TD*%
D35*
%TO.C,U23*%
X213325000Y-148095000D03*
X213325000Y-149365000D03*
X213325000Y-150635000D03*
X213325000Y-151905000D03*
X218175000Y-151905000D03*
X218175000Y-150635000D03*
X218175000Y-149365000D03*
X218175000Y-148095000D03*
%TD*%
D36*
%TO.C,U64*%
X117250000Y-110250000D03*
X117250000Y-110750000D03*
X117250000Y-111250000D03*
X117250000Y-111750000D03*
X117250000Y-112250000D03*
X117250000Y-112750000D03*
X117250000Y-113250000D03*
X117250000Y-113750000D03*
D37*
X118000000Y-114500000D03*
X118500000Y-114500000D03*
X119000000Y-114500000D03*
X119500000Y-114500000D03*
X120000000Y-114500000D03*
X120500000Y-114500000D03*
X121000000Y-114500000D03*
X121500000Y-114500000D03*
D36*
X122250000Y-113750000D03*
X122250000Y-113250000D03*
X122250000Y-112750000D03*
X122250000Y-112250000D03*
X122250000Y-111750000D03*
X122250000Y-111250000D03*
X122250000Y-110750000D03*
X122250000Y-110250000D03*
D37*
X121500000Y-109500000D03*
X121000000Y-109500000D03*
X120500000Y-109500000D03*
X120000000Y-109500000D03*
X119500000Y-109500000D03*
X119000000Y-109500000D03*
X118500000Y-109500000D03*
X118000000Y-109500000D03*
D38*
X118750000Y-111000000D03*
X118750000Y-112000000D03*
X118750000Y-113000000D03*
X119750000Y-111000000D03*
X119750000Y-112000000D03*
X119750000Y-113000000D03*
X120750000Y-111000000D03*
X120750000Y-112000000D03*
X120750000Y-113000000D03*
%TD*%
D14*
%TO.C,R110*%
X229766000Y-182220000D03*
X228806000Y-182220000D03*
%TD*%
D15*
%TO.C,R68*%
X244520000Y-159000000D03*
X245480000Y-159000000D03*
%TD*%
D19*
%TO.C,C100*%
X237250000Y-133770000D03*
X237250000Y-134730000D03*
%TD*%
D21*
%TO.C,D27*%
X108405000Y-185200000D03*
X108405000Y-186800000D03*
X109355000Y-186800000D03*
X109355000Y-185200000D03*
%TD*%
D15*
%TO.C,R59*%
X244520000Y-153000000D03*
X245480000Y-153000000D03*
%TD*%
D14*
%TO.C,R141*%
X223480000Y-158750000D03*
X222520000Y-158750000D03*
%TD*%
D26*
%TO.C,L4*%
X224250000Y-187885000D03*
X224250000Y-189615000D03*
%TD*%
D31*
%TO.C,C204*%
X150750000Y-167170000D03*
X150750000Y-164330000D03*
%TD*%
D15*
%TO.C,R145*%
X235770000Y-192750000D03*
X236730000Y-192750000D03*
%TD*%
D30*
%TO.C,L6*%
X144300000Y-124750000D03*
X133200000Y-124750000D03*
%TD*%
D23*
%TO.C,R152*%
X245650000Y-196660000D03*
X245650000Y-195700000D03*
%TD*%
D15*
%TO.C,C47*%
X234770000Y-168000000D03*
X235730000Y-168000000D03*
%TD*%
D14*
%TO.C,R312*%
X177980000Y-190250000D03*
X177020000Y-190250000D03*
%TD*%
D39*
%TO.C,U46*%
X108980000Y-182150000D03*
X111520000Y-182150000D03*
X111520000Y-175850000D03*
X108980000Y-175850000D03*
%TD*%
D40*
%TO.C,P2*%
X251425000Y-121070000D03*
X257075000Y-121070000D03*
X251425000Y-123610000D03*
X257075000Y-123610000D03*
X251425000Y-126150000D03*
X257075000Y-126150000D03*
X251425000Y-128690000D03*
X257075000Y-128690000D03*
X251425000Y-131230000D03*
X257075000Y-131230000D03*
X251425000Y-133770000D03*
X257075000Y-133770000D03*
X251425000Y-136310000D03*
X257075000Y-136310000D03*
X251425000Y-138850000D03*
X257075000Y-138850000D03*
X251425000Y-141390000D03*
X257075000Y-141390000D03*
X251425000Y-143930000D03*
X257075000Y-143930000D03*
%TD*%
D26*
%TO.C,L1*%
X217750000Y-186385000D03*
X217750000Y-188115000D03*
%TD*%
D15*
%TO.C,R150*%
X227770000Y-189250000D03*
X228730000Y-189250000D03*
%TD*%
D14*
%TO.C,R113*%
X221730000Y-164750000D03*
X220770000Y-164750000D03*
%TD*%
D24*
%TO.C,C188*%
X144000000Y-132830000D03*
X144000000Y-135670000D03*
%TD*%
D15*
%TO.C,C3*%
X237770000Y-120250000D03*
X238730000Y-120250000D03*
%TD*%
%TO.C,C71*%
X220520000Y-194000000D03*
X221480000Y-194000000D03*
%TD*%
D23*
%TO.C,C15*%
X221250000Y-105730000D03*
X221250000Y-104770000D03*
%TD*%
D15*
%TO.C,R55*%
X242270000Y-153000000D03*
X243230000Y-153000000D03*
%TD*%
D41*
%TO.C,U26*%
X224300000Y-130250000D03*
X224300000Y-129750000D03*
X224300000Y-129250000D03*
X224300000Y-128750000D03*
X221200000Y-128750000D03*
X221200000Y-129250000D03*
X221200000Y-129750000D03*
X221200000Y-130250000D03*
%TD*%
D15*
%TO.C,R57*%
X242270000Y-154500000D03*
X243230000Y-154500000D03*
%TD*%
D30*
%TO.C,L8*%
X144300000Y-175250000D03*
X133200000Y-175250000D03*
%TD*%
D14*
%TO.C,R34*%
X234730000Y-114750000D03*
X233770000Y-114750000D03*
%TD*%
D15*
%TO.C,R116*%
X220820000Y-173750000D03*
X221780000Y-173750000D03*
%TD*%
D19*
%TO.C,R183*%
X109700000Y-110020000D03*
X109700000Y-110980000D03*
%TD*%
D15*
%TO.C,R6*%
X227770000Y-136500000D03*
X228730000Y-136500000D03*
%TD*%
%TO.C,C46*%
X223520000Y-173500000D03*
X224480000Y-173500000D03*
%TD*%
%TO.C,R125*%
X233520000Y-196500000D03*
X234480000Y-196500000D03*
%TD*%
D24*
%TO.C,C119*%
X168750000Y-148580000D03*
X168750000Y-151420000D03*
%TD*%
D31*
%TO.C,C201*%
X140500000Y-167170000D03*
X140500000Y-164330000D03*
%TD*%
D15*
%TO.C,C22*%
X220520000Y-192750000D03*
X221480000Y-192750000D03*
%TD*%
D42*
%TO.C,T1*%
X178590000Y-124625000D03*
X178590000Y-127420000D03*
X178590000Y-130215000D03*
X178590000Y-134785000D03*
X178590000Y-137580000D03*
X178590000Y-140375000D03*
D43*
X198910000Y-138850000D03*
X198910000Y-135675000D03*
X198910000Y-132500000D03*
X198910000Y-129325000D03*
X198910000Y-126150000D03*
%TD*%
D15*
%TO.C,C86*%
X230020000Y-194000000D03*
X230980000Y-194000000D03*
%TD*%
D28*
%TO.C,D29*%
X113940000Y-142250000D03*
X109560000Y-142250000D03*
%TD*%
D15*
%TO.C,R156*%
X228520000Y-191750000D03*
X229480000Y-191750000D03*
%TD*%
D23*
%TO.C,C110*%
X235250000Y-137230000D03*
X235250000Y-136270000D03*
%TD*%
D44*
%TO.C,C12*%
X233000000Y-107915000D03*
X233000000Y-109585000D03*
%TD*%
D15*
%TO.C,C5*%
X220270000Y-114750000D03*
X221230000Y-114750000D03*
%TD*%
%TO.C,R139*%
X220270000Y-157250000D03*
X221230000Y-157250000D03*
%TD*%
D45*
%TO.C,U40*%
X123790000Y-118190000D03*
X121250000Y-118190000D03*
X118710000Y-118190000D03*
X118710000Y-125810000D03*
X121250000Y-125810000D03*
X123790000Y-125810000D03*
%TD*%
D19*
%TO.C,R18*%
X237500000Y-129270000D03*
X237500000Y-130230000D03*
%TD*%
D24*
%TO.C,C121*%
X129500000Y-148580000D03*
X129500000Y-151420000D03*
%TD*%
D46*
%TO.C,U10*%
X232650000Y-152775000D03*
X232650000Y-153425000D03*
X232650000Y-154075000D03*
X232650000Y-154725000D03*
D47*
X233525000Y-155600000D03*
X234175000Y-155600000D03*
X234825000Y-155600000D03*
X235475000Y-155600000D03*
D46*
X236350000Y-154725000D03*
X236350000Y-154075000D03*
X236350000Y-153425000D03*
X236350000Y-152775000D03*
D47*
X235475000Y-151900000D03*
X234825000Y-151900000D03*
X234175000Y-151900000D03*
X233525000Y-151900000D03*
D48*
X234000000Y-153250000D03*
X234000000Y-154250000D03*
X235000000Y-153250000D03*
X235000000Y-154250000D03*
%TD*%
D19*
%TO.C,C23*%
X221310000Y-108270000D03*
X221310000Y-109230000D03*
%TD*%
%TO.C,C64*%
X224500000Y-182520000D03*
X224500000Y-183480000D03*
%TD*%
%TO.C,R176*%
X104500000Y-189020000D03*
X104500000Y-189980000D03*
%TD*%
D14*
%TO.C,R27*%
X227980000Y-122000000D03*
X227020000Y-122000000D03*
%TD*%
D49*
%TO.C,D10*%
X157750000Y-152190000D03*
X157750000Y-147810000D03*
%TD*%
D50*
%TO.C,U5*%
X230550001Y-105350001D03*
D51*
X230100000Y-105350001D03*
X229650001Y-105350001D03*
X229199999Y-105350001D03*
X228750000Y-105350001D03*
X228300001Y-105350001D03*
D52*
X227700000Y-105350000D03*
D53*
X225850000Y-105350000D03*
D51*
X228300001Y-108649999D03*
X228750000Y-108649999D03*
X229199999Y-108649999D03*
X229650001Y-108649999D03*
X230100000Y-108649999D03*
D54*
X230550000Y-108649999D03*
D55*
X230271000Y-107275001D03*
X230271000Y-106724999D03*
%TD*%
D14*
%TO.C,R103*%
X221730000Y-170750000D03*
X220770000Y-170750000D03*
%TD*%
D56*
%TO.C,U52*%
X180055000Y-195900000D03*
X181325000Y-195900000D03*
X182595000Y-195900000D03*
X183865000Y-195900000D03*
X185135000Y-195900000D03*
X186405000Y-195900000D03*
X187675000Y-195900000D03*
X188945000Y-195900000D03*
X188945000Y-186600000D03*
X187675000Y-186600000D03*
X186405000Y-186600000D03*
X185135000Y-186600000D03*
X183865000Y-186600000D03*
X182595000Y-186600000D03*
X181325000Y-186600000D03*
X180055000Y-186600000D03*
%TD*%
D14*
%TO.C,R50*%
X245480000Y-168000000D03*
X244520000Y-168000000D03*
%TD*%
D23*
%TO.C,C223*%
X219750000Y-135730000D03*
X219750000Y-134770000D03*
%TD*%
D15*
%TO.C,R29*%
X220270000Y-124500000D03*
X221230000Y-124500000D03*
%TD*%
%TO.C,C73*%
X226520000Y-196500000D03*
X227480000Y-196500000D03*
%TD*%
D23*
%TO.C,R179*%
X100750000Y-190480000D03*
X100750000Y-189520000D03*
%TD*%
D15*
%TO.C,R126*%
X235770000Y-196500000D03*
X236730000Y-196500000D03*
%TD*%
D32*
%TO.C,D16*%
X106815000Y-114800000D03*
X106815000Y-113200000D03*
X105865000Y-113200000D03*
X105865000Y-114800000D03*
%TD*%
D57*
%TO.C,L13*%
X110750000Y-148500000D03*
X117250000Y-148500000D03*
X110750000Y-151500000D03*
X117250000Y-151500000D03*
%TD*%
D15*
%TO.C,C38*%
X223520000Y-176600000D03*
X224480000Y-176600000D03*
%TD*%
D19*
%TO.C,R173*%
X104100000Y-110020000D03*
X104100000Y-110980000D03*
%TD*%
D14*
%TO.C,R54*%
X245480000Y-169500000D03*
X244520000Y-169500000D03*
%TD*%
D35*
%TO.C,U63*%
X191075000Y-116095000D03*
X191075000Y-117365000D03*
X191075000Y-118635000D03*
X191075000Y-119905000D03*
X195925000Y-119905000D03*
X195925000Y-118635000D03*
X195925000Y-117365000D03*
X195925000Y-116095000D03*
%TD*%
D14*
%TO.C,R76*%
X227230000Y-161750000D03*
X226270000Y-161750000D03*
%TD*%
D58*
%TO.C,U12*%
X227200000Y-151500000D03*
X227200000Y-152000000D03*
X227200000Y-152500000D03*
X227200000Y-153000000D03*
X230300000Y-153000000D03*
X230300000Y-152500000D03*
X230300000Y-152000000D03*
X230300000Y-151500000D03*
%TD*%
D24*
%TO.C,C190*%
X150750000Y-132830000D03*
X150750000Y-135670000D03*
%TD*%
D14*
%TO.C,R48*%
X227230000Y-160250000D03*
X226270000Y-160250000D03*
%TD*%
D15*
%TO.C,C7*%
X254730000Y-118500000D03*
X253770000Y-118500000D03*
%TD*%
D23*
%TO.C,R175*%
X103250000Y-190480000D03*
X103250000Y-189520000D03*
%TD*%
D14*
%TO.C,R15*%
X226730000Y-133500000D03*
X225770000Y-133500000D03*
%TD*%
D15*
%TO.C,R89*%
X244520000Y-187000000D03*
X245480000Y-187000000D03*
%TD*%
D14*
%TO.C,R148*%
X233230000Y-186500000D03*
X232270000Y-186500000D03*
%TD*%
D19*
%TO.C,R17*%
X240500000Y-129270000D03*
X240500000Y-130230000D03*
%TD*%
D15*
%TO.C,R46*%
X242270000Y-150000000D03*
X243230000Y-150000000D03*
%TD*%
D14*
%TO.C,R159*%
X236230000Y-189000000D03*
X235270000Y-189000000D03*
%TD*%
%TO.C,R3*%
X236980000Y-126750000D03*
X236020000Y-126750000D03*
%TD*%
D15*
%TO.C,R66*%
X242270000Y-159000000D03*
X243230000Y-159000000D03*
%TD*%
D14*
%TO.C,R13*%
X226730000Y-136500000D03*
X225770000Y-136500000D03*
%TD*%
%TO.C,C97*%
X230980000Y-130500000D03*
X230020000Y-130500000D03*
%TD*%
D15*
%TO.C,R10*%
X227770000Y-133500000D03*
X228730000Y-133500000D03*
%TD*%
D19*
%TO.C,C105*%
X233000000Y-136770000D03*
X233000000Y-137730000D03*
%TD*%
D14*
%TO.C,R111*%
X219480000Y-175000000D03*
X218520000Y-175000000D03*
%TD*%
D15*
%TO.C,R147*%
X220520000Y-195250000D03*
X221480000Y-195250000D03*
%TD*%
D23*
%TO.C,R42*%
X231000000Y-112230000D03*
X231000000Y-111270000D03*
%TD*%
D46*
%TO.C,U2*%
X221150000Y-117275000D03*
X221150000Y-117925000D03*
X221150000Y-118575000D03*
X221150000Y-119225000D03*
D47*
X222025000Y-120100000D03*
X222675000Y-120100000D03*
X223325000Y-120100000D03*
X223975000Y-120100000D03*
D46*
X224850000Y-119225000D03*
X224850000Y-118575000D03*
X224850000Y-117925000D03*
X224850000Y-117275000D03*
D47*
X223975000Y-116400000D03*
X223325000Y-116400000D03*
X222675000Y-116400000D03*
X222025000Y-116400000D03*
D48*
X222500000Y-117750000D03*
X222500000Y-118750000D03*
X223500000Y-117750000D03*
X223500000Y-118750000D03*
%TD*%
D15*
%TO.C,R51*%
X244520000Y-150000000D03*
X245480000Y-150000000D03*
%TD*%
D59*
%TO.C,U14*%
X244350000Y-196155000D03*
X244350000Y-194885000D03*
X244350000Y-193615000D03*
X244350000Y-192345000D03*
X238650000Y-192345000D03*
X238650000Y-193615000D03*
X238650000Y-194885000D03*
X238650000Y-196155000D03*
%TD*%
D14*
%TO.C,C133*%
X188730000Y-116500000D03*
X187770000Y-116500000D03*
%TD*%
D15*
%TO.C,R133*%
X220270000Y-160250000D03*
X221230000Y-160250000D03*
%TD*%
D19*
%TO.C,C39*%
X116500000Y-186020000D03*
X116500000Y-186980000D03*
%TD*%
D15*
%TO.C,R91*%
X244520000Y-188500000D03*
X245480000Y-188500000D03*
%TD*%
D36*
%TO.C,U65*%
X118500000Y-187250000D03*
X118500000Y-187750000D03*
X118500000Y-188250000D03*
X118500000Y-188750000D03*
X118500000Y-189250000D03*
X118500000Y-189750000D03*
X118500000Y-190250000D03*
X118500000Y-190750000D03*
D37*
X119250000Y-191500000D03*
X119750000Y-191500000D03*
X120250000Y-191500000D03*
X120750000Y-191500000D03*
X121250000Y-191500000D03*
X121750000Y-191500000D03*
X122250000Y-191500000D03*
X122750000Y-191500000D03*
D36*
X123500000Y-190750000D03*
X123500000Y-190250000D03*
X123500000Y-189750000D03*
X123500000Y-189250000D03*
X123500000Y-188750000D03*
X123500000Y-188250000D03*
X123500000Y-187750000D03*
X123500000Y-187250000D03*
D37*
X122750000Y-186500000D03*
X122250000Y-186500000D03*
X121750000Y-186500000D03*
X121250000Y-186500000D03*
X120750000Y-186500000D03*
X120250000Y-186500000D03*
X119750000Y-186500000D03*
X119250000Y-186500000D03*
D38*
X120000000Y-188000000D03*
X120000000Y-189000000D03*
X120000000Y-190000000D03*
X121000000Y-188000000D03*
X121000000Y-189000000D03*
X121000000Y-190000000D03*
X122000000Y-188000000D03*
X122000000Y-189000000D03*
X122000000Y-190000000D03*
%TD*%
D60*
%TO.C,U41*%
X116020000Y-117850000D03*
X113480000Y-117850000D03*
X113480000Y-124150000D03*
X116020000Y-124150000D03*
%TD*%
D19*
%TO.C,C107*%
X242000000Y-140770000D03*
X242000000Y-141730000D03*
%TD*%
D23*
%TO.C,R160*%
X234500000Y-141730000D03*
X234500000Y-140770000D03*
%TD*%
D15*
%TO.C,R30*%
X220270000Y-123250000D03*
X221230000Y-123250000D03*
%TD*%
%TO.C,R81*%
X242270000Y-179500000D03*
X243230000Y-179500000D03*
%TD*%
D14*
%TO.C,R187*%
X177730000Y-111500000D03*
X176770000Y-111500000D03*
%TD*%
D15*
%TO.C,R32*%
X236020000Y-113500000D03*
X236980000Y-113500000D03*
%TD*%
D14*
%TO.C,R122*%
X218480000Y-182500000D03*
X217520000Y-182500000D03*
%TD*%
%TO.C,R74*%
X227230000Y-166250000D03*
X226270000Y-166250000D03*
%TD*%
D46*
%TO.C,U3*%
X232650000Y-117275000D03*
X232650000Y-117925000D03*
X232650000Y-118575000D03*
X232650000Y-119225000D03*
D47*
X233525000Y-120100000D03*
X234175000Y-120100000D03*
X234825000Y-120100000D03*
X235475000Y-120100000D03*
D46*
X236350000Y-119225000D03*
X236350000Y-118575000D03*
X236350000Y-117925000D03*
X236350000Y-117275000D03*
D47*
X235475000Y-116400000D03*
X234825000Y-116400000D03*
X234175000Y-116400000D03*
X233525000Y-116400000D03*
D48*
X234000000Y-117750000D03*
X234000000Y-118750000D03*
X235000000Y-117750000D03*
X235000000Y-118750000D03*
%TD*%
D14*
%TO.C,C84*%
X235480000Y-190250000D03*
X234520000Y-190250000D03*
%TD*%
D15*
%TO.C,C58*%
X226270000Y-164750000D03*
X227230000Y-164750000D03*
%TD*%
D31*
%TO.C,C205*%
X154250000Y-167170000D03*
X154250000Y-164330000D03*
%TD*%
D39*
%TO.C,U48*%
X113480000Y-182150000D03*
X116020000Y-182150000D03*
X116020000Y-175850000D03*
X113480000Y-175850000D03*
%TD*%
D23*
%TO.C,R41*%
X232250000Y-112230000D03*
X232250000Y-111270000D03*
%TD*%
D24*
%TO.C,C123*%
X172250000Y-148580000D03*
X172250000Y-151420000D03*
%TD*%
D61*
%TO.C,L24*%
X176385000Y-196250000D03*
X178115000Y-196250000D03*
%TD*%
D14*
%TO.C,C81*%
X231036000Y-184760000D03*
X230076000Y-184760000D03*
%TD*%
%TO.C,R121*%
X218500000Y-183750000D03*
X217540000Y-183750000D03*
%TD*%
%TO.C,R60*%
X243230000Y-147000000D03*
X242270000Y-147000000D03*
%TD*%
D19*
%TO.C,C65*%
X222290000Y-187440000D03*
X222290000Y-188400000D03*
%TD*%
D15*
%TO.C,R166*%
X230020000Y-136500000D03*
X230980000Y-136500000D03*
%TD*%
D23*
%TO.C,R40*%
X226000000Y-112230000D03*
X226000000Y-111270000D03*
%TD*%
D14*
%TO.C,R153*%
X238990000Y-190770000D03*
X238030000Y-190770000D03*
%TD*%
%TO.C,R14*%
X226730000Y-135000000D03*
X225770000Y-135000000D03*
%TD*%
D15*
%TO.C,R5*%
X227770000Y-138000000D03*
X228730000Y-138000000D03*
%TD*%
%TO.C,R86*%
X242270000Y-184000000D03*
X243230000Y-184000000D03*
%TD*%
D28*
%TO.C,D24*%
X113940000Y-167750000D03*
X109560000Y-167750000D03*
%TD*%
D15*
%TO.C,R95*%
X244520000Y-175000000D03*
X245480000Y-175000000D03*
%TD*%
D19*
%TO.C,R182*%
X107000000Y-189020000D03*
X107000000Y-189980000D03*
%TD*%
D23*
%TO.C,R22*%
X100800000Y-110980000D03*
X100800000Y-110020000D03*
%TD*%
D15*
%TO.C,R35*%
X220270000Y-122000000D03*
X221230000Y-122000000D03*
%TD*%
%TO.C,R130*%
X236270000Y-150250000D03*
X237230000Y-150250000D03*
%TD*%
D62*
%TO.C,L14*%
X136745000Y-155650000D03*
X153255000Y-155650000D03*
X136745000Y-144350000D03*
X153255000Y-144350000D03*
%TD*%
D15*
%TO.C,R140*%
X222520000Y-157250000D03*
X223480000Y-157250000D03*
%TD*%
D19*
%TO.C,R20*%
X236000000Y-129270000D03*
X236000000Y-130230000D03*
%TD*%
D41*
%TO.C,U50*%
X224300000Y-133000000D03*
X224300000Y-132500000D03*
X224300000Y-132000000D03*
X224300000Y-131500000D03*
X221200000Y-131500000D03*
X221200000Y-132000000D03*
X221200000Y-132500000D03*
X221200000Y-133000000D03*
%TD*%
D15*
%TO.C,C44*%
X226140000Y-173520000D03*
X227100000Y-173520000D03*
%TD*%
D23*
%TO.C,R185*%
X108250000Y-189980000D03*
X108250000Y-189020000D03*
%TD*%
D14*
%TO.C,C104*%
X226730000Y-139500000D03*
X225770000Y-139500000D03*
%TD*%
D15*
%TO.C,R38*%
X224770000Y-122000000D03*
X225730000Y-122000000D03*
%TD*%
D14*
%TO.C,C219*%
X174730000Y-196250000D03*
X173770000Y-196250000D03*
%TD*%
%TO.C,C50*%
X232730000Y-147750000D03*
X231770000Y-147750000D03*
%TD*%
D15*
%TO.C,C53*%
X220770000Y-163250000D03*
X221730000Y-163250000D03*
%TD*%
D25*
%TO.C,L9*%
X236000000Y-181615000D03*
X236000000Y-179885000D03*
%TD*%
D15*
%TO.C,R61*%
X244520000Y-154500000D03*
X245480000Y-154500000D03*
%TD*%
%TO.C,R47*%
X244550000Y-148500000D03*
X245510000Y-148500000D03*
%TD*%
D23*
%TO.C,R253*%
X123750000Y-116230000D03*
X123750000Y-115270000D03*
%TD*%
D14*
%TO.C,C52*%
X232730000Y-182250000D03*
X231770000Y-182250000D03*
%TD*%
D15*
%TO.C,C19*%
X240270000Y-190750000D03*
X241230000Y-190750000D03*
%TD*%
%TO.C,R8*%
X238270000Y-126750000D03*
X239230000Y-126750000D03*
%TD*%
D41*
%TO.C,U51*%
X224300000Y-135750000D03*
X224300000Y-135250000D03*
X224300000Y-134750000D03*
X224300000Y-134250000D03*
X221200000Y-134250000D03*
X221200000Y-134750000D03*
X221200000Y-135250000D03*
X221200000Y-135750000D03*
%TD*%
D15*
%TO.C,C77*%
X222540000Y-150250000D03*
X223500000Y-150250000D03*
%TD*%
D49*
%TO.C,D9*%
X122000000Y-152190000D03*
X122000000Y-147810000D03*
%TD*%
D15*
%TO.C,R9*%
X238270000Y-128000000D03*
X239230000Y-128000000D03*
%TD*%
%TO.C,C6*%
X229520000Y-122000000D03*
X230480000Y-122000000D03*
%TD*%
D44*
%TO.C,C11*%
X235250000Y-107915000D03*
X235250000Y-109585000D03*
%TD*%
D14*
%TO.C,C61*%
X232730000Y-181000000D03*
X231770000Y-181000000D03*
%TD*%
D19*
%TO.C,R172*%
X239000000Y-129270000D03*
X239000000Y-130230000D03*
%TD*%
D15*
%TO.C,R36*%
X222520000Y-123250000D03*
X223480000Y-123250000D03*
%TD*%
D14*
%TO.C,C30*%
X234980000Y-164750000D03*
X234020000Y-164750000D03*
%TD*%
%TO.C,R117*%
X231036000Y-183490000D03*
X230076000Y-183490000D03*
%TD*%
%TO.C,C29*%
X227230000Y-167750000D03*
X226270000Y-167750000D03*
%TD*%
D15*
%TO.C,C48*%
X237290000Y-170000000D03*
X238250000Y-170000000D03*
%TD*%
D23*
%TO.C,R181*%
X105750000Y-189980000D03*
X105750000Y-189020000D03*
%TD*%
D21*
%TO.C,D20*%
X105865000Y-185200000D03*
X105865000Y-186800000D03*
X106815000Y-186800000D03*
X106815000Y-185200000D03*
%TD*%
D15*
%TO.C,C57*%
X220770000Y-172250000D03*
X221730000Y-172250000D03*
%TD*%
D23*
%TO.C,C16*%
X227250000Y-112230000D03*
X227250000Y-111270000D03*
%TD*%
D15*
%TO.C,C37*%
X223520000Y-175000000D03*
X224480000Y-175000000D03*
%TD*%
%TO.C,R99*%
X244520000Y-165000000D03*
X245480000Y-165000000D03*
%TD*%
%TO.C,R80*%
X244520000Y-178000000D03*
X245480000Y-178000000D03*
%TD*%
%TO.C,R88*%
X242270000Y-185500000D03*
X243230000Y-185500000D03*
%TD*%
%TO.C,R77*%
X242270000Y-178000000D03*
X243230000Y-178000000D03*
%TD*%
D23*
%TO.C,R184*%
X108600000Y-110980000D03*
X108600000Y-110020000D03*
%TD*%
D63*
%TO.C,U27*%
X188945000Y-104100000D03*
X187675000Y-104100000D03*
X186405000Y-104100000D03*
X185135000Y-104100000D03*
X183865000Y-104100000D03*
X182595000Y-104100000D03*
X181325000Y-104100000D03*
X180055000Y-104100000D03*
X180055000Y-113400000D03*
X181325000Y-113400000D03*
X182595000Y-113400000D03*
X183865000Y-113400000D03*
X185135000Y-113400000D03*
X186405000Y-113400000D03*
X187675000Y-113400000D03*
X188945000Y-113400000D03*
%TD*%
D15*
%TO.C,R70*%
X244520000Y-162000000D03*
X245480000Y-162000000D03*
%TD*%
%TO.C,C79*%
X223760000Y-192250000D03*
X224720000Y-192250000D03*
%TD*%
%TO.C,R49*%
X242270000Y-151500000D03*
X243230000Y-151500000D03*
%TD*%
%TO.C,C80*%
X233520000Y-195250000D03*
X234480000Y-195250000D03*
%TD*%
%TO.C,C83*%
X227770000Y-188000000D03*
X228730000Y-188000000D03*
%TD*%
%TO.C,R114*%
X223520000Y-166250000D03*
X224480000Y-166250000D03*
%TD*%
D24*
%TO.C,C116*%
X126000000Y-148580000D03*
X126000000Y-151420000D03*
%TD*%
D16*
%TO.C,U4*%
X229075000Y-120125000D03*
X229075000Y-119375000D03*
X228425000Y-120125000D03*
X228425000Y-119375000D03*
D64*
X230250000Y-120500000D03*
X230250000Y-120000000D03*
X230250000Y-119500000D03*
X230250000Y-119000000D03*
X227250000Y-119000000D03*
X227250000Y-119500000D03*
X227250000Y-120000000D03*
X227250000Y-120500000D03*
%TD*%
D15*
%TO.C,R106*%
X220770000Y-166250000D03*
X221730000Y-166250000D03*
%TD*%
D19*
%TO.C,C99*%
X235250000Y-133770000D03*
X235250000Y-134730000D03*
%TD*%
D15*
%TO.C,C60*%
X231520000Y-165000000D03*
X232480000Y-165000000D03*
%TD*%
%TO.C,C89*%
X230076000Y-186030000D03*
X231036000Y-186030000D03*
%TD*%
D14*
%TO.C,R72*%
X224480000Y-169250000D03*
X223520000Y-169250000D03*
%TD*%
D23*
%TO.C,C54*%
X219030000Y-173750000D03*
X219030000Y-172790000D03*
%TD*%
D19*
%TO.C,R21*%
X101900000Y-110020000D03*
X101900000Y-110980000D03*
%TD*%
D15*
%TO.C,C56*%
X231770000Y-178000000D03*
X232730000Y-178000000D03*
%TD*%
D29*
%TO.C,R24*%
X213480000Y-103750000D03*
X210520000Y-103750000D03*
%TD*%
D15*
%TO.C,R26*%
X233770000Y-113500000D03*
X234730000Y-113500000D03*
%TD*%
D14*
%TO.C,R62*%
X243230000Y-168000000D03*
X242270000Y-168000000D03*
%TD*%
D15*
%TO.C,R31*%
X227020000Y-114750000D03*
X227980000Y-114750000D03*
%TD*%
%TO.C,R84*%
X242270000Y-182500000D03*
X243230000Y-182500000D03*
%TD*%
%TO.C,R341*%
X235770000Y-191500000D03*
X236730000Y-191500000D03*
%TD*%
%TO.C,R134*%
X220270000Y-158750000D03*
X221230000Y-158750000D03*
%TD*%
D58*
%TO.C,U1*%
X227200000Y-116000000D03*
X227200000Y-116500000D03*
X227200000Y-117000000D03*
X227200000Y-117500000D03*
X230300000Y-117500000D03*
X230300000Y-117000000D03*
X230300000Y-116500000D03*
X230300000Y-116000000D03*
%TD*%
D19*
%TO.C,R287*%
X112250000Y-183520000D03*
X112250000Y-184480000D03*
%TD*%
D65*
%TO.C,J1*%
X244775000Y-144100000D03*
X248225000Y-141560000D03*
X244775000Y-139020000D03*
X248225000Y-136480000D03*
X244775000Y-133940000D03*
X248225000Y-131400000D03*
%TD*%
D23*
%TO.C,R164*%
X237500000Y-144230000D03*
X237500000Y-143270000D03*
%TD*%
D15*
%TO.C,R7*%
X227770000Y-135000000D03*
X228730000Y-135000000D03*
%TD*%
D23*
%TO.C,C24*%
X222200000Y-112230000D03*
X222200000Y-111270000D03*
%TD*%
%TO.C,C18*%
X245650000Y-192800000D03*
X245650000Y-191840000D03*
%TD*%
D14*
%TO.C,R16*%
X226730000Y-132000000D03*
X225770000Y-132000000D03*
%TD*%
D16*
%TO.C,U7*%
X229075000Y-155625000D03*
X229075000Y-154875000D03*
X228425000Y-155625000D03*
X228425000Y-154875000D03*
D64*
X230250000Y-156000000D03*
X230250000Y-155500000D03*
X230250000Y-155000000D03*
X230250000Y-154500000D03*
X227250000Y-154500000D03*
X227250000Y-155000000D03*
X227250000Y-155500000D03*
X227250000Y-156000000D03*
%TD*%
D15*
%TO.C,R79*%
X244520000Y-179500000D03*
X245480000Y-179500000D03*
%TD*%
D14*
%TO.C,R124*%
X230980000Y-196480000D03*
X230020000Y-196480000D03*
%TD*%
D15*
%TO.C,C31*%
X237270000Y-171400000D03*
X238230000Y-171400000D03*
%TD*%
D14*
%TO.C,C98*%
X230980000Y-129250000D03*
X230020000Y-129250000D03*
%TD*%
D66*
%TO.C,C2*%
X119750000Y-106480000D03*
X119750000Y-103520000D03*
%TD*%
D42*
%TO.C,T2*%
X178590000Y-159625000D03*
X178590000Y-162420000D03*
X178590000Y-165215000D03*
X178590000Y-169785000D03*
X178590000Y-172580000D03*
X178590000Y-175375000D03*
D43*
X198910000Y-173850000D03*
X198910000Y-170675000D03*
X198910000Y-167500000D03*
X198910000Y-164325000D03*
X198910000Y-161150000D03*
%TD*%
D67*
%TO.C,X2*%
X235035000Y-184820000D03*
X235035000Y-187180000D03*
X236965000Y-187180000D03*
X236965000Y-184820000D03*
%TD*%
D15*
%TO.C,R11*%
X227770000Y-132000000D03*
X228730000Y-132000000D03*
%TD*%
D14*
%TO.C,C95*%
X236480000Y-183250000D03*
X235520000Y-183250000D03*
%TD*%
D18*
%TO.C,R23*%
X175020000Y-103750000D03*
X177980000Y-103750000D03*
%TD*%
D23*
%TO.C,R154*%
X245660000Y-194750000D03*
X245660000Y-193790000D03*
%TD*%
D24*
%TO.C,C122*%
X165250000Y-148580000D03*
X165250000Y-151420000D03*
%TD*%
D15*
%TO.C,R151*%
X238020000Y-189500000D03*
X238980000Y-189500000D03*
%TD*%
%TO.C,R73*%
X242270000Y-176500000D03*
X243230000Y-176500000D03*
%TD*%
D14*
%TO.C,C87*%
X234230000Y-191500000D03*
X233270000Y-191500000D03*
%TD*%
%TO.C,C78*%
X232730000Y-150250000D03*
X231770000Y-150250000D03*
%TD*%
D15*
%TO.C,R129*%
X236270000Y-149000000D03*
X237230000Y-149000000D03*
%TD*%
D68*
%TO.C,U15*%
X228200000Y-141500000D03*
X226300000Y-141500000D03*
X227250000Y-143500000D03*
%TD*%
D44*
%TO.C,C14*%
X223000000Y-107915000D03*
X223000000Y-109585000D03*
%TD*%
D14*
%TO.C,R128*%
X237230000Y-147750000D03*
X236270000Y-147750000D03*
%TD*%
D15*
%TO.C,R96*%
X244520000Y-182500000D03*
X245480000Y-182500000D03*
%TD*%
D23*
%TO.C,C146*%
X219750000Y-130230000D03*
X219750000Y-129270000D03*
%TD*%
D46*
%TO.C,U9*%
X221150000Y-152775000D03*
X221150000Y-153425000D03*
X221150000Y-154075000D03*
X221150000Y-154725000D03*
D47*
X222025000Y-155600000D03*
X222675000Y-155600000D03*
X223325000Y-155600000D03*
X223975000Y-155600000D03*
D46*
X224850000Y-154725000D03*
X224850000Y-154075000D03*
X224850000Y-153425000D03*
X224850000Y-152775000D03*
D47*
X223975000Y-151900000D03*
X223325000Y-151900000D03*
X222675000Y-151900000D03*
X222025000Y-151900000D03*
D48*
X222500000Y-153250000D03*
X222500000Y-154250000D03*
X223500000Y-153250000D03*
X223500000Y-154250000D03*
%TD*%
D15*
%TO.C,R33*%
X231520000Y-113500000D03*
X232480000Y-113500000D03*
%TD*%
%TO.C,R108*%
X224770000Y-158750000D03*
X225730000Y-158750000D03*
%TD*%
D14*
%TO.C,C49*%
X245480000Y-173750000D03*
X244520000Y-173750000D03*
%TD*%
D15*
%TO.C,C74*%
X226520000Y-195250000D03*
X227480000Y-195250000D03*
%TD*%
D23*
%TO.C,R162*%
X237500000Y-141730000D03*
X237500000Y-140770000D03*
%TD*%
D15*
%TO.C,C72*%
X220520000Y-196500000D03*
X221480000Y-196500000D03*
%TD*%
D60*
%TO.C,U39*%
X111520000Y-117850000D03*
X108980000Y-117850000D03*
X108980000Y-124150000D03*
X111520000Y-124150000D03*
%TD*%
D15*
%TO.C,R28*%
X222520000Y-114750000D03*
X223480000Y-114750000D03*
%TD*%
D24*
%TO.C,C118*%
X161750000Y-148580000D03*
X161750000Y-151420000D03*
%TD*%
D15*
%TO.C,R75*%
X244520000Y-176500000D03*
X245480000Y-176500000D03*
%TD*%
%TO.C,R87*%
X244520000Y-185500000D03*
X245480000Y-185500000D03*
%TD*%
D41*
%TO.C,U25*%
X224300000Y-127500000D03*
X224300000Y-127000000D03*
X224300000Y-126500000D03*
X224300000Y-126000000D03*
X221200000Y-126000000D03*
X221200000Y-126500000D03*
X221200000Y-127000000D03*
X221200000Y-127500000D03*
%TD*%
D15*
%TO.C,R149*%
X227770000Y-190750000D03*
X228730000Y-190750000D03*
%TD*%
%TO.C,R127*%
X234020000Y-149000000D03*
X234980000Y-149000000D03*
%TD*%
%TO.C,C76*%
X227270000Y-157250000D03*
X228230000Y-157250000D03*
%TD*%
D24*
%TO.C,C120*%
X175750000Y-148580000D03*
X175750000Y-151420000D03*
%TD*%
D14*
%TO.C,R227*%
X177980000Y-188750000D03*
X177020000Y-188750000D03*
%TD*%
%TO.C,R56*%
X245480000Y-166500000D03*
X244520000Y-166500000D03*
%TD*%
D15*
%TO.C,C101*%
X230020000Y-141250000D03*
X230980000Y-141250000D03*
%TD*%
D35*
%TO.C,U66*%
X191075000Y-180095000D03*
X191075000Y-181365000D03*
X191075000Y-182635000D03*
X191075000Y-183905000D03*
X195925000Y-183905000D03*
X195925000Y-182635000D03*
X195925000Y-181365000D03*
X195925000Y-180095000D03*
%TD*%
D15*
%TO.C,R85*%
X244520000Y-184000000D03*
X245480000Y-184000000D03*
%TD*%
D32*
%TO.C,D26*%
X109355000Y-114800000D03*
X109355000Y-113200000D03*
X108405000Y-113200000D03*
X108405000Y-114800000D03*
%TD*%
D14*
%TO.C,C35*%
X232730000Y-179500000D03*
X231770000Y-179500000D03*
%TD*%
D19*
%TO.C,R165*%
X240500000Y-140770000D03*
X240500000Y-141730000D03*
%TD*%
D21*
%TO.C,D19*%
X100785000Y-185200000D03*
X100785000Y-186800000D03*
X101735000Y-186800000D03*
X101735000Y-185200000D03*
%TD*%
D14*
%TO.C,C88*%
X226710000Y-184750000D03*
X225750000Y-184750000D03*
%TD*%
D15*
%TO.C,R71*%
X242270000Y-175000000D03*
X243230000Y-175000000D03*
%TD*%
D23*
%TO.C,C40*%
X115230000Y-186950000D03*
X115230000Y-185990000D03*
%TD*%
D19*
%TO.C,R163*%
X239000000Y-140770000D03*
X239000000Y-141730000D03*
%TD*%
D14*
%TO.C,R119*%
X220480000Y-182500000D03*
X219520000Y-182500000D03*
%TD*%
D15*
%TO.C,R37*%
X222520000Y-122000000D03*
X223480000Y-122000000D03*
%TD*%
M02*
