%TF.GenerationSoftware,KiCad,Pcbnew,8.0.4*%
%TF.CreationDate,2024-09-04T12:40:56+02:00*%
%TF.ProjectId,cq2,6371322e-6b69-4636-9164-5f7063625858,0.00*%
%TF.SameCoordinates,Original*%
%TF.FileFunction,Legend,Top*%
%TF.FilePolarity,Positive*%
%FSLAX46Y46*%
G04 Gerber Fmt 4.6, Leading zero omitted, Abs format (unit mm)*
G04 Created by KiCad (PCBNEW 8.0.4) date 2024-09-04 12:40:56*
%MOMM*%
%LPD*%
G01*
G04 APERTURE LIST*
%ADD10C,0.100000*%
%ADD11C,0.150000*%
%ADD12C,0.300000*%
%ADD13C,0.400000*%
%ADD14C,0.200000*%
G04 APERTURE END LIST*
D10*
D11*
X299989000Y-253002200D02*
X407989000Y-253002200D01*
X407989000Y-285002200D01*
X299989000Y-285002200D01*
X299989000Y-253002200D01*
D10*
D11*
X10000000Y-10000000D02*
X409989000Y-10000000D01*
X409989000Y-287002200D01*
X10000000Y-287002200D01*
X10000000Y-10000000D01*
D10*
D11*
X12000000Y-12000000D02*
X407989000Y-12000000D01*
X407989000Y-285002200D01*
X12000000Y-285002200D01*
X12000000Y-12000000D01*
D10*
D11*
X60000000Y-12000000D02*
X60000000Y-10000000D01*
D10*
D11*
X110000000Y-12000000D02*
X110000000Y-10000000D01*
D10*
D11*
X160000000Y-12000000D02*
X160000000Y-10000000D01*
D10*
D11*
X210000000Y-12000000D02*
X210000000Y-10000000D01*
D10*
D11*
X260000000Y-12000000D02*
X260000000Y-10000000D01*
D10*
D11*
X310000000Y-12000000D02*
X310000000Y-10000000D01*
D10*
D11*
X360000000Y-12000000D02*
X360000000Y-10000000D01*
D10*
D11*
X36089160Y-11593604D02*
X35346303Y-11593604D01*
X35717731Y-11593604D02*
X35717731Y-10293604D01*
X35717731Y-10293604D02*
X35593922Y-10479319D01*
X35593922Y-10479319D02*
X35470112Y-10603128D01*
X35470112Y-10603128D02*
X35346303Y-10665033D01*
D10*
D11*
X85346303Y-10417414D02*
X85408207Y-10355509D01*
X85408207Y-10355509D02*
X85532017Y-10293604D01*
X85532017Y-10293604D02*
X85841541Y-10293604D01*
X85841541Y-10293604D02*
X85965350Y-10355509D01*
X85965350Y-10355509D02*
X86027255Y-10417414D01*
X86027255Y-10417414D02*
X86089160Y-10541223D01*
X86089160Y-10541223D02*
X86089160Y-10665033D01*
X86089160Y-10665033D02*
X86027255Y-10850747D01*
X86027255Y-10850747D02*
X85284398Y-11593604D01*
X85284398Y-11593604D02*
X86089160Y-11593604D01*
D10*
D11*
X135284398Y-10293604D02*
X136089160Y-10293604D01*
X136089160Y-10293604D02*
X135655826Y-10788842D01*
X135655826Y-10788842D02*
X135841541Y-10788842D01*
X135841541Y-10788842D02*
X135965350Y-10850747D01*
X135965350Y-10850747D02*
X136027255Y-10912652D01*
X136027255Y-10912652D02*
X136089160Y-11036461D01*
X136089160Y-11036461D02*
X136089160Y-11345985D01*
X136089160Y-11345985D02*
X136027255Y-11469795D01*
X136027255Y-11469795D02*
X135965350Y-11531700D01*
X135965350Y-11531700D02*
X135841541Y-11593604D01*
X135841541Y-11593604D02*
X135470112Y-11593604D01*
X135470112Y-11593604D02*
X135346303Y-11531700D01*
X135346303Y-11531700D02*
X135284398Y-11469795D01*
D10*
D11*
X185965350Y-10726938D02*
X185965350Y-11593604D01*
X185655826Y-10231700D02*
X185346303Y-11160271D01*
X185346303Y-11160271D02*
X186151064Y-11160271D01*
D10*
D11*
X236027255Y-10293604D02*
X235408207Y-10293604D01*
X235408207Y-10293604D02*
X235346303Y-10912652D01*
X235346303Y-10912652D02*
X235408207Y-10850747D01*
X235408207Y-10850747D02*
X235532017Y-10788842D01*
X235532017Y-10788842D02*
X235841541Y-10788842D01*
X235841541Y-10788842D02*
X235965350Y-10850747D01*
X235965350Y-10850747D02*
X236027255Y-10912652D01*
X236027255Y-10912652D02*
X236089160Y-11036461D01*
X236089160Y-11036461D02*
X236089160Y-11345985D01*
X236089160Y-11345985D02*
X236027255Y-11469795D01*
X236027255Y-11469795D02*
X235965350Y-11531700D01*
X235965350Y-11531700D02*
X235841541Y-11593604D01*
X235841541Y-11593604D02*
X235532017Y-11593604D01*
X235532017Y-11593604D02*
X235408207Y-11531700D01*
X235408207Y-11531700D02*
X235346303Y-11469795D01*
D10*
D11*
X285965350Y-10293604D02*
X285717731Y-10293604D01*
X285717731Y-10293604D02*
X285593922Y-10355509D01*
X285593922Y-10355509D02*
X285532017Y-10417414D01*
X285532017Y-10417414D02*
X285408207Y-10603128D01*
X285408207Y-10603128D02*
X285346303Y-10850747D01*
X285346303Y-10850747D02*
X285346303Y-11345985D01*
X285346303Y-11345985D02*
X285408207Y-11469795D01*
X285408207Y-11469795D02*
X285470112Y-11531700D01*
X285470112Y-11531700D02*
X285593922Y-11593604D01*
X285593922Y-11593604D02*
X285841541Y-11593604D01*
X285841541Y-11593604D02*
X285965350Y-11531700D01*
X285965350Y-11531700D02*
X286027255Y-11469795D01*
X286027255Y-11469795D02*
X286089160Y-11345985D01*
X286089160Y-11345985D02*
X286089160Y-11036461D01*
X286089160Y-11036461D02*
X286027255Y-10912652D01*
X286027255Y-10912652D02*
X285965350Y-10850747D01*
X285965350Y-10850747D02*
X285841541Y-10788842D01*
X285841541Y-10788842D02*
X285593922Y-10788842D01*
X285593922Y-10788842D02*
X285470112Y-10850747D01*
X285470112Y-10850747D02*
X285408207Y-10912652D01*
X285408207Y-10912652D02*
X285346303Y-11036461D01*
D10*
D11*
X335284398Y-10293604D02*
X336151064Y-10293604D01*
X336151064Y-10293604D02*
X335593922Y-11593604D01*
D10*
D11*
X385593922Y-10850747D02*
X385470112Y-10788842D01*
X385470112Y-10788842D02*
X385408207Y-10726938D01*
X385408207Y-10726938D02*
X385346303Y-10603128D01*
X385346303Y-10603128D02*
X385346303Y-10541223D01*
X385346303Y-10541223D02*
X385408207Y-10417414D01*
X385408207Y-10417414D02*
X385470112Y-10355509D01*
X385470112Y-10355509D02*
X385593922Y-10293604D01*
X385593922Y-10293604D02*
X385841541Y-10293604D01*
X385841541Y-10293604D02*
X385965350Y-10355509D01*
X385965350Y-10355509D02*
X386027255Y-10417414D01*
X386027255Y-10417414D02*
X386089160Y-10541223D01*
X386089160Y-10541223D02*
X386089160Y-10603128D01*
X386089160Y-10603128D02*
X386027255Y-10726938D01*
X386027255Y-10726938D02*
X385965350Y-10788842D01*
X385965350Y-10788842D02*
X385841541Y-10850747D01*
X385841541Y-10850747D02*
X385593922Y-10850747D01*
X385593922Y-10850747D02*
X385470112Y-10912652D01*
X385470112Y-10912652D02*
X385408207Y-10974557D01*
X385408207Y-10974557D02*
X385346303Y-11098366D01*
X385346303Y-11098366D02*
X385346303Y-11345985D01*
X385346303Y-11345985D02*
X385408207Y-11469795D01*
X385408207Y-11469795D02*
X385470112Y-11531700D01*
X385470112Y-11531700D02*
X385593922Y-11593604D01*
X385593922Y-11593604D02*
X385841541Y-11593604D01*
X385841541Y-11593604D02*
X385965350Y-11531700D01*
X385965350Y-11531700D02*
X386027255Y-11469795D01*
X386027255Y-11469795D02*
X386089160Y-11345985D01*
X386089160Y-11345985D02*
X386089160Y-11098366D01*
X386089160Y-11098366D02*
X386027255Y-10974557D01*
X386027255Y-10974557D02*
X385965350Y-10912652D01*
X385965350Y-10912652D02*
X385841541Y-10850747D01*
D10*
D11*
X60000000Y-285002200D02*
X60000000Y-287002200D01*
D10*
D11*
X110000000Y-285002200D02*
X110000000Y-287002200D01*
D10*
D11*
X160000000Y-285002200D02*
X160000000Y-287002200D01*
D10*
D11*
X210000000Y-285002200D02*
X210000000Y-287002200D01*
D10*
D11*
X260000000Y-285002200D02*
X260000000Y-287002200D01*
D10*
D11*
X310000000Y-285002200D02*
X310000000Y-287002200D01*
D10*
D11*
X360000000Y-285002200D02*
X360000000Y-287002200D01*
D10*
D11*
X36089160Y-286595804D02*
X35346303Y-286595804D01*
X35717731Y-286595804D02*
X35717731Y-285295804D01*
X35717731Y-285295804D02*
X35593922Y-285481519D01*
X35593922Y-285481519D02*
X35470112Y-285605328D01*
X35470112Y-285605328D02*
X35346303Y-285667233D01*
D10*
D11*
X85346303Y-285419614D02*
X85408207Y-285357709D01*
X85408207Y-285357709D02*
X85532017Y-285295804D01*
X85532017Y-285295804D02*
X85841541Y-285295804D01*
X85841541Y-285295804D02*
X85965350Y-285357709D01*
X85965350Y-285357709D02*
X86027255Y-285419614D01*
X86027255Y-285419614D02*
X86089160Y-285543423D01*
X86089160Y-285543423D02*
X86089160Y-285667233D01*
X86089160Y-285667233D02*
X86027255Y-285852947D01*
X86027255Y-285852947D02*
X85284398Y-286595804D01*
X85284398Y-286595804D02*
X86089160Y-286595804D01*
D10*
D11*
X135284398Y-285295804D02*
X136089160Y-285295804D01*
X136089160Y-285295804D02*
X135655826Y-285791042D01*
X135655826Y-285791042D02*
X135841541Y-285791042D01*
X135841541Y-285791042D02*
X135965350Y-285852947D01*
X135965350Y-285852947D02*
X136027255Y-285914852D01*
X136027255Y-285914852D02*
X136089160Y-286038661D01*
X136089160Y-286038661D02*
X136089160Y-286348185D01*
X136089160Y-286348185D02*
X136027255Y-286471995D01*
X136027255Y-286471995D02*
X135965350Y-286533900D01*
X135965350Y-286533900D02*
X135841541Y-286595804D01*
X135841541Y-286595804D02*
X135470112Y-286595804D01*
X135470112Y-286595804D02*
X135346303Y-286533900D01*
X135346303Y-286533900D02*
X135284398Y-286471995D01*
D10*
D11*
X185965350Y-285729138D02*
X185965350Y-286595804D01*
X185655826Y-285233900D02*
X185346303Y-286162471D01*
X185346303Y-286162471D02*
X186151064Y-286162471D01*
D10*
D11*
X236027255Y-285295804D02*
X235408207Y-285295804D01*
X235408207Y-285295804D02*
X235346303Y-285914852D01*
X235346303Y-285914852D02*
X235408207Y-285852947D01*
X235408207Y-285852947D02*
X235532017Y-285791042D01*
X235532017Y-285791042D02*
X235841541Y-285791042D01*
X235841541Y-285791042D02*
X235965350Y-285852947D01*
X235965350Y-285852947D02*
X236027255Y-285914852D01*
X236027255Y-285914852D02*
X236089160Y-286038661D01*
X236089160Y-286038661D02*
X236089160Y-286348185D01*
X236089160Y-286348185D02*
X236027255Y-286471995D01*
X236027255Y-286471995D02*
X235965350Y-286533900D01*
X235965350Y-286533900D02*
X235841541Y-286595804D01*
X235841541Y-286595804D02*
X235532017Y-286595804D01*
X235532017Y-286595804D02*
X235408207Y-286533900D01*
X235408207Y-286533900D02*
X235346303Y-286471995D01*
D10*
D11*
X285965350Y-285295804D02*
X285717731Y-285295804D01*
X285717731Y-285295804D02*
X285593922Y-285357709D01*
X285593922Y-285357709D02*
X285532017Y-285419614D01*
X285532017Y-285419614D02*
X285408207Y-285605328D01*
X285408207Y-285605328D02*
X285346303Y-285852947D01*
X285346303Y-285852947D02*
X285346303Y-286348185D01*
X285346303Y-286348185D02*
X285408207Y-286471995D01*
X285408207Y-286471995D02*
X285470112Y-286533900D01*
X285470112Y-286533900D02*
X285593922Y-286595804D01*
X285593922Y-286595804D02*
X285841541Y-286595804D01*
X285841541Y-286595804D02*
X285965350Y-286533900D01*
X285965350Y-286533900D02*
X286027255Y-286471995D01*
X286027255Y-286471995D02*
X286089160Y-286348185D01*
X286089160Y-286348185D02*
X286089160Y-286038661D01*
X286089160Y-286038661D02*
X286027255Y-285914852D01*
X286027255Y-285914852D02*
X285965350Y-285852947D01*
X285965350Y-285852947D02*
X285841541Y-285791042D01*
X285841541Y-285791042D02*
X285593922Y-285791042D01*
X285593922Y-285791042D02*
X285470112Y-285852947D01*
X285470112Y-285852947D02*
X285408207Y-285914852D01*
X285408207Y-285914852D02*
X285346303Y-286038661D01*
D10*
D11*
X335284398Y-285295804D02*
X336151064Y-285295804D01*
X336151064Y-285295804D02*
X335593922Y-286595804D01*
D10*
D11*
X385593922Y-285852947D02*
X385470112Y-285791042D01*
X385470112Y-285791042D02*
X385408207Y-285729138D01*
X385408207Y-285729138D02*
X385346303Y-285605328D01*
X385346303Y-285605328D02*
X385346303Y-285543423D01*
X385346303Y-285543423D02*
X385408207Y-285419614D01*
X385408207Y-285419614D02*
X385470112Y-285357709D01*
X385470112Y-285357709D02*
X385593922Y-285295804D01*
X385593922Y-285295804D02*
X385841541Y-285295804D01*
X385841541Y-285295804D02*
X385965350Y-285357709D01*
X385965350Y-285357709D02*
X386027255Y-285419614D01*
X386027255Y-285419614D02*
X386089160Y-285543423D01*
X386089160Y-285543423D02*
X386089160Y-285605328D01*
X386089160Y-285605328D02*
X386027255Y-285729138D01*
X386027255Y-285729138D02*
X385965350Y-285791042D01*
X385965350Y-285791042D02*
X385841541Y-285852947D01*
X385841541Y-285852947D02*
X385593922Y-285852947D01*
X385593922Y-285852947D02*
X385470112Y-285914852D01*
X385470112Y-285914852D02*
X385408207Y-285976757D01*
X385408207Y-285976757D02*
X385346303Y-286100566D01*
X385346303Y-286100566D02*
X385346303Y-286348185D01*
X385346303Y-286348185D02*
X385408207Y-286471995D01*
X385408207Y-286471995D02*
X385470112Y-286533900D01*
X385470112Y-286533900D02*
X385593922Y-286595804D01*
X385593922Y-286595804D02*
X385841541Y-286595804D01*
X385841541Y-286595804D02*
X385965350Y-286533900D01*
X385965350Y-286533900D02*
X386027255Y-286471995D01*
X386027255Y-286471995D02*
X386089160Y-286348185D01*
X386089160Y-286348185D02*
X386089160Y-286100566D01*
X386089160Y-286100566D02*
X386027255Y-285976757D01*
X386027255Y-285976757D02*
X385965350Y-285914852D01*
X385965350Y-285914852D02*
X385841541Y-285852947D01*
D10*
D11*
X10000000Y-60000000D02*
X12000000Y-60000000D01*
D10*
D11*
X10000000Y-110000000D02*
X12000000Y-110000000D01*
D10*
D11*
X10000000Y-160000000D02*
X12000000Y-160000000D01*
D10*
D11*
X10000000Y-210000000D02*
X12000000Y-210000000D01*
D10*
D11*
X10000000Y-260000000D02*
X12000000Y-260000000D01*
D10*
D11*
X10690476Y-35222176D02*
X11309523Y-35222176D01*
X10566666Y-35593604D02*
X10999999Y-34293604D01*
X10999999Y-34293604D02*
X11433333Y-35593604D01*
D10*
D11*
X11092857Y-84912652D02*
X11278571Y-84974557D01*
X11278571Y-84974557D02*
X11340476Y-85036461D01*
X11340476Y-85036461D02*
X11402380Y-85160271D01*
X11402380Y-85160271D02*
X11402380Y-85345985D01*
X11402380Y-85345985D02*
X11340476Y-85469795D01*
X11340476Y-85469795D02*
X11278571Y-85531700D01*
X11278571Y-85531700D02*
X11154761Y-85593604D01*
X11154761Y-85593604D02*
X10659523Y-85593604D01*
X10659523Y-85593604D02*
X10659523Y-84293604D01*
X10659523Y-84293604D02*
X11092857Y-84293604D01*
X11092857Y-84293604D02*
X11216666Y-84355509D01*
X11216666Y-84355509D02*
X11278571Y-84417414D01*
X11278571Y-84417414D02*
X11340476Y-84541223D01*
X11340476Y-84541223D02*
X11340476Y-84665033D01*
X11340476Y-84665033D02*
X11278571Y-84788842D01*
X11278571Y-84788842D02*
X11216666Y-84850747D01*
X11216666Y-84850747D02*
X11092857Y-84912652D01*
X11092857Y-84912652D02*
X10659523Y-84912652D01*
D10*
D11*
X11402380Y-135469795D02*
X11340476Y-135531700D01*
X11340476Y-135531700D02*
X11154761Y-135593604D01*
X11154761Y-135593604D02*
X11030952Y-135593604D01*
X11030952Y-135593604D02*
X10845238Y-135531700D01*
X10845238Y-135531700D02*
X10721428Y-135407890D01*
X10721428Y-135407890D02*
X10659523Y-135284080D01*
X10659523Y-135284080D02*
X10597619Y-135036461D01*
X10597619Y-135036461D02*
X10597619Y-134850747D01*
X10597619Y-134850747D02*
X10659523Y-134603128D01*
X10659523Y-134603128D02*
X10721428Y-134479319D01*
X10721428Y-134479319D02*
X10845238Y-134355509D01*
X10845238Y-134355509D02*
X11030952Y-134293604D01*
X11030952Y-134293604D02*
X11154761Y-134293604D01*
X11154761Y-134293604D02*
X11340476Y-134355509D01*
X11340476Y-134355509D02*
X11402380Y-134417414D01*
D10*
D11*
X10659523Y-185593604D02*
X10659523Y-184293604D01*
X10659523Y-184293604D02*
X10969047Y-184293604D01*
X10969047Y-184293604D02*
X11154761Y-184355509D01*
X11154761Y-184355509D02*
X11278571Y-184479319D01*
X11278571Y-184479319D02*
X11340476Y-184603128D01*
X11340476Y-184603128D02*
X11402380Y-184850747D01*
X11402380Y-184850747D02*
X11402380Y-185036461D01*
X11402380Y-185036461D02*
X11340476Y-185284080D01*
X11340476Y-185284080D02*
X11278571Y-185407890D01*
X11278571Y-185407890D02*
X11154761Y-185531700D01*
X11154761Y-185531700D02*
X10969047Y-185593604D01*
X10969047Y-185593604D02*
X10659523Y-185593604D01*
D10*
D11*
X10721428Y-234912652D02*
X11154762Y-234912652D01*
X11340476Y-235593604D02*
X10721428Y-235593604D01*
X10721428Y-235593604D02*
X10721428Y-234293604D01*
X10721428Y-234293604D02*
X11340476Y-234293604D01*
D10*
D11*
X11185714Y-284912652D02*
X10752380Y-284912652D01*
X10752380Y-285593604D02*
X10752380Y-284293604D01*
X10752380Y-284293604D02*
X11371428Y-284293604D01*
D10*
D11*
X409989000Y-60000000D02*
X407989000Y-60000000D01*
D10*
D11*
X409989000Y-110000000D02*
X407989000Y-110000000D01*
D10*
D11*
X409989000Y-160000000D02*
X407989000Y-160000000D01*
D10*
D11*
X409989000Y-210000000D02*
X407989000Y-210000000D01*
D10*
D11*
X409989000Y-260000000D02*
X407989000Y-260000000D01*
D10*
D11*
X408679476Y-35222176D02*
X409298523Y-35222176D01*
X408555666Y-35593604D02*
X408988999Y-34293604D01*
X408988999Y-34293604D02*
X409422333Y-35593604D01*
D10*
D11*
X409081857Y-84912652D02*
X409267571Y-84974557D01*
X409267571Y-84974557D02*
X409329476Y-85036461D01*
X409329476Y-85036461D02*
X409391380Y-85160271D01*
X409391380Y-85160271D02*
X409391380Y-85345985D01*
X409391380Y-85345985D02*
X409329476Y-85469795D01*
X409329476Y-85469795D02*
X409267571Y-85531700D01*
X409267571Y-85531700D02*
X409143761Y-85593604D01*
X409143761Y-85593604D02*
X408648523Y-85593604D01*
X408648523Y-85593604D02*
X408648523Y-84293604D01*
X408648523Y-84293604D02*
X409081857Y-84293604D01*
X409081857Y-84293604D02*
X409205666Y-84355509D01*
X409205666Y-84355509D02*
X409267571Y-84417414D01*
X409267571Y-84417414D02*
X409329476Y-84541223D01*
X409329476Y-84541223D02*
X409329476Y-84665033D01*
X409329476Y-84665033D02*
X409267571Y-84788842D01*
X409267571Y-84788842D02*
X409205666Y-84850747D01*
X409205666Y-84850747D02*
X409081857Y-84912652D01*
X409081857Y-84912652D02*
X408648523Y-84912652D01*
D10*
D11*
X409391380Y-135469795D02*
X409329476Y-135531700D01*
X409329476Y-135531700D02*
X409143761Y-135593604D01*
X409143761Y-135593604D02*
X409019952Y-135593604D01*
X409019952Y-135593604D02*
X408834238Y-135531700D01*
X408834238Y-135531700D02*
X408710428Y-135407890D01*
X408710428Y-135407890D02*
X408648523Y-135284080D01*
X408648523Y-135284080D02*
X408586619Y-135036461D01*
X408586619Y-135036461D02*
X408586619Y-134850747D01*
X408586619Y-134850747D02*
X408648523Y-134603128D01*
X408648523Y-134603128D02*
X408710428Y-134479319D01*
X408710428Y-134479319D02*
X408834238Y-134355509D01*
X408834238Y-134355509D02*
X409019952Y-134293604D01*
X409019952Y-134293604D02*
X409143761Y-134293604D01*
X409143761Y-134293604D02*
X409329476Y-134355509D01*
X409329476Y-134355509D02*
X409391380Y-134417414D01*
D10*
D11*
X408648523Y-185593604D02*
X408648523Y-184293604D01*
X408648523Y-184293604D02*
X408958047Y-184293604D01*
X408958047Y-184293604D02*
X409143761Y-184355509D01*
X409143761Y-184355509D02*
X409267571Y-184479319D01*
X409267571Y-184479319D02*
X409329476Y-184603128D01*
X409329476Y-184603128D02*
X409391380Y-184850747D01*
X409391380Y-184850747D02*
X409391380Y-185036461D01*
X409391380Y-185036461D02*
X409329476Y-185284080D01*
X409329476Y-185284080D02*
X409267571Y-185407890D01*
X409267571Y-185407890D02*
X409143761Y-185531700D01*
X409143761Y-185531700D02*
X408958047Y-185593604D01*
X408958047Y-185593604D02*
X408648523Y-185593604D01*
D10*
D11*
X408710428Y-234912652D02*
X409143762Y-234912652D01*
X409329476Y-235593604D02*
X408710428Y-235593604D01*
X408710428Y-235593604D02*
X408710428Y-234293604D01*
X408710428Y-234293604D02*
X409329476Y-234293604D01*
D10*
D11*
X409174714Y-284912652D02*
X408741380Y-284912652D01*
X408741380Y-285593604D02*
X408741380Y-284293604D01*
X408741380Y-284293604D02*
X409360428Y-284293604D01*
D10*
D11*
X323444826Y-280788328D02*
X323444826Y-279288328D01*
X323444826Y-279288328D02*
X323801969Y-279288328D01*
X323801969Y-279288328D02*
X324016255Y-279359757D01*
X324016255Y-279359757D02*
X324159112Y-279502614D01*
X324159112Y-279502614D02*
X324230541Y-279645471D01*
X324230541Y-279645471D02*
X324301969Y-279931185D01*
X324301969Y-279931185D02*
X324301969Y-280145471D01*
X324301969Y-280145471D02*
X324230541Y-280431185D01*
X324230541Y-280431185D02*
X324159112Y-280574042D01*
X324159112Y-280574042D02*
X324016255Y-280716900D01*
X324016255Y-280716900D02*
X323801969Y-280788328D01*
X323801969Y-280788328D02*
X323444826Y-280788328D01*
X325587684Y-280788328D02*
X325587684Y-280002614D01*
X325587684Y-280002614D02*
X325516255Y-279859757D01*
X325516255Y-279859757D02*
X325373398Y-279788328D01*
X325373398Y-279788328D02*
X325087684Y-279788328D01*
X325087684Y-279788328D02*
X324944826Y-279859757D01*
X325587684Y-280716900D02*
X325444826Y-280788328D01*
X325444826Y-280788328D02*
X325087684Y-280788328D01*
X325087684Y-280788328D02*
X324944826Y-280716900D01*
X324944826Y-280716900D02*
X324873398Y-280574042D01*
X324873398Y-280574042D02*
X324873398Y-280431185D01*
X324873398Y-280431185D02*
X324944826Y-280288328D01*
X324944826Y-280288328D02*
X325087684Y-280216900D01*
X325087684Y-280216900D02*
X325444826Y-280216900D01*
X325444826Y-280216900D02*
X325587684Y-280145471D01*
X326087684Y-279788328D02*
X326659112Y-279788328D01*
X326301969Y-279288328D02*
X326301969Y-280574042D01*
X326301969Y-280574042D02*
X326373398Y-280716900D01*
X326373398Y-280716900D02*
X326516255Y-280788328D01*
X326516255Y-280788328D02*
X326659112Y-280788328D01*
X327730541Y-280716900D02*
X327587684Y-280788328D01*
X327587684Y-280788328D02*
X327301970Y-280788328D01*
X327301970Y-280788328D02*
X327159112Y-280716900D01*
X327159112Y-280716900D02*
X327087684Y-280574042D01*
X327087684Y-280574042D02*
X327087684Y-280002614D01*
X327087684Y-280002614D02*
X327159112Y-279859757D01*
X327159112Y-279859757D02*
X327301970Y-279788328D01*
X327301970Y-279788328D02*
X327587684Y-279788328D01*
X327587684Y-279788328D02*
X327730541Y-279859757D01*
X327730541Y-279859757D02*
X327801970Y-280002614D01*
X327801970Y-280002614D02*
X327801970Y-280145471D01*
X327801970Y-280145471D02*
X327087684Y-280288328D01*
X328444826Y-280645471D02*
X328516255Y-280716900D01*
X328516255Y-280716900D02*
X328444826Y-280788328D01*
X328444826Y-280788328D02*
X328373398Y-280716900D01*
X328373398Y-280716900D02*
X328444826Y-280645471D01*
X328444826Y-280645471D02*
X328444826Y-280788328D01*
X328444826Y-279859757D02*
X328516255Y-279931185D01*
X328516255Y-279931185D02*
X328444826Y-280002614D01*
X328444826Y-280002614D02*
X328373398Y-279931185D01*
X328373398Y-279931185D02*
X328444826Y-279859757D01*
X328444826Y-279859757D02*
X328444826Y-280002614D01*
X330230541Y-279431185D02*
X330301969Y-279359757D01*
X330301969Y-279359757D02*
X330444827Y-279288328D01*
X330444827Y-279288328D02*
X330801969Y-279288328D01*
X330801969Y-279288328D02*
X330944827Y-279359757D01*
X330944827Y-279359757D02*
X331016255Y-279431185D01*
X331016255Y-279431185D02*
X331087684Y-279574042D01*
X331087684Y-279574042D02*
X331087684Y-279716900D01*
X331087684Y-279716900D02*
X331016255Y-279931185D01*
X331016255Y-279931185D02*
X330159112Y-280788328D01*
X330159112Y-280788328D02*
X331087684Y-280788328D01*
X332016255Y-279288328D02*
X332159112Y-279288328D01*
X332159112Y-279288328D02*
X332301969Y-279359757D01*
X332301969Y-279359757D02*
X332373398Y-279431185D01*
X332373398Y-279431185D02*
X332444826Y-279574042D01*
X332444826Y-279574042D02*
X332516255Y-279859757D01*
X332516255Y-279859757D02*
X332516255Y-280216900D01*
X332516255Y-280216900D02*
X332444826Y-280502614D01*
X332444826Y-280502614D02*
X332373398Y-280645471D01*
X332373398Y-280645471D02*
X332301969Y-280716900D01*
X332301969Y-280716900D02*
X332159112Y-280788328D01*
X332159112Y-280788328D02*
X332016255Y-280788328D01*
X332016255Y-280788328D02*
X331873398Y-280716900D01*
X331873398Y-280716900D02*
X331801969Y-280645471D01*
X331801969Y-280645471D02*
X331730540Y-280502614D01*
X331730540Y-280502614D02*
X331659112Y-280216900D01*
X331659112Y-280216900D02*
X331659112Y-279859757D01*
X331659112Y-279859757D02*
X331730540Y-279574042D01*
X331730540Y-279574042D02*
X331801969Y-279431185D01*
X331801969Y-279431185D02*
X331873398Y-279359757D01*
X331873398Y-279359757D02*
X332016255Y-279288328D01*
X333087683Y-279431185D02*
X333159111Y-279359757D01*
X333159111Y-279359757D02*
X333301969Y-279288328D01*
X333301969Y-279288328D02*
X333659111Y-279288328D01*
X333659111Y-279288328D02*
X333801969Y-279359757D01*
X333801969Y-279359757D02*
X333873397Y-279431185D01*
X333873397Y-279431185D02*
X333944826Y-279574042D01*
X333944826Y-279574042D02*
X333944826Y-279716900D01*
X333944826Y-279716900D02*
X333873397Y-279931185D01*
X333873397Y-279931185D02*
X333016254Y-280788328D01*
X333016254Y-280788328D02*
X333944826Y-280788328D01*
X335230540Y-279788328D02*
X335230540Y-280788328D01*
X334873397Y-279216900D02*
X334516254Y-280288328D01*
X334516254Y-280288328D02*
X335444825Y-280288328D01*
X336016253Y-280216900D02*
X337159111Y-280216900D01*
X338159111Y-279288328D02*
X338301968Y-279288328D01*
X338301968Y-279288328D02*
X338444825Y-279359757D01*
X338444825Y-279359757D02*
X338516254Y-279431185D01*
X338516254Y-279431185D02*
X338587682Y-279574042D01*
X338587682Y-279574042D02*
X338659111Y-279859757D01*
X338659111Y-279859757D02*
X338659111Y-280216900D01*
X338659111Y-280216900D02*
X338587682Y-280502614D01*
X338587682Y-280502614D02*
X338516254Y-280645471D01*
X338516254Y-280645471D02*
X338444825Y-280716900D01*
X338444825Y-280716900D02*
X338301968Y-280788328D01*
X338301968Y-280788328D02*
X338159111Y-280788328D01*
X338159111Y-280788328D02*
X338016254Y-280716900D01*
X338016254Y-280716900D02*
X337944825Y-280645471D01*
X337944825Y-280645471D02*
X337873396Y-280502614D01*
X337873396Y-280502614D02*
X337801968Y-280216900D01*
X337801968Y-280216900D02*
X337801968Y-279859757D01*
X337801968Y-279859757D02*
X337873396Y-279574042D01*
X337873396Y-279574042D02*
X337944825Y-279431185D01*
X337944825Y-279431185D02*
X338016254Y-279359757D01*
X338016254Y-279359757D02*
X338159111Y-279288328D01*
X339516253Y-279931185D02*
X339373396Y-279859757D01*
X339373396Y-279859757D02*
X339301967Y-279788328D01*
X339301967Y-279788328D02*
X339230539Y-279645471D01*
X339230539Y-279645471D02*
X339230539Y-279574042D01*
X339230539Y-279574042D02*
X339301967Y-279431185D01*
X339301967Y-279431185D02*
X339373396Y-279359757D01*
X339373396Y-279359757D02*
X339516253Y-279288328D01*
X339516253Y-279288328D02*
X339801967Y-279288328D01*
X339801967Y-279288328D02*
X339944825Y-279359757D01*
X339944825Y-279359757D02*
X340016253Y-279431185D01*
X340016253Y-279431185D02*
X340087682Y-279574042D01*
X340087682Y-279574042D02*
X340087682Y-279645471D01*
X340087682Y-279645471D02*
X340016253Y-279788328D01*
X340016253Y-279788328D02*
X339944825Y-279859757D01*
X339944825Y-279859757D02*
X339801967Y-279931185D01*
X339801967Y-279931185D02*
X339516253Y-279931185D01*
X339516253Y-279931185D02*
X339373396Y-280002614D01*
X339373396Y-280002614D02*
X339301967Y-280074042D01*
X339301967Y-280074042D02*
X339230539Y-280216900D01*
X339230539Y-280216900D02*
X339230539Y-280502614D01*
X339230539Y-280502614D02*
X339301967Y-280645471D01*
X339301967Y-280645471D02*
X339373396Y-280716900D01*
X339373396Y-280716900D02*
X339516253Y-280788328D01*
X339516253Y-280788328D02*
X339801967Y-280788328D01*
X339801967Y-280788328D02*
X339944825Y-280716900D01*
X339944825Y-280716900D02*
X340016253Y-280645471D01*
X340016253Y-280645471D02*
X340087682Y-280502614D01*
X340087682Y-280502614D02*
X340087682Y-280216900D01*
X340087682Y-280216900D02*
X340016253Y-280074042D01*
X340016253Y-280074042D02*
X339944825Y-280002614D01*
X339944825Y-280002614D02*
X339801967Y-279931185D01*
X340730538Y-280216900D02*
X341873396Y-280216900D01*
X342873396Y-279288328D02*
X343016253Y-279288328D01*
X343016253Y-279288328D02*
X343159110Y-279359757D01*
X343159110Y-279359757D02*
X343230539Y-279431185D01*
X343230539Y-279431185D02*
X343301967Y-279574042D01*
X343301967Y-279574042D02*
X343373396Y-279859757D01*
X343373396Y-279859757D02*
X343373396Y-280216900D01*
X343373396Y-280216900D02*
X343301967Y-280502614D01*
X343301967Y-280502614D02*
X343230539Y-280645471D01*
X343230539Y-280645471D02*
X343159110Y-280716900D01*
X343159110Y-280716900D02*
X343016253Y-280788328D01*
X343016253Y-280788328D02*
X342873396Y-280788328D01*
X342873396Y-280788328D02*
X342730539Y-280716900D01*
X342730539Y-280716900D02*
X342659110Y-280645471D01*
X342659110Y-280645471D02*
X342587681Y-280502614D01*
X342587681Y-280502614D02*
X342516253Y-280216900D01*
X342516253Y-280216900D02*
X342516253Y-279859757D01*
X342516253Y-279859757D02*
X342587681Y-279574042D01*
X342587681Y-279574042D02*
X342659110Y-279431185D01*
X342659110Y-279431185D02*
X342730539Y-279359757D01*
X342730539Y-279359757D02*
X342873396Y-279288328D01*
X343873395Y-279288328D02*
X344801967Y-279288328D01*
X344801967Y-279288328D02*
X344301967Y-279859757D01*
X344301967Y-279859757D02*
X344516252Y-279859757D01*
X344516252Y-279859757D02*
X344659110Y-279931185D01*
X344659110Y-279931185D02*
X344730538Y-280002614D01*
X344730538Y-280002614D02*
X344801967Y-280145471D01*
X344801967Y-280145471D02*
X344801967Y-280502614D01*
X344801967Y-280502614D02*
X344730538Y-280645471D01*
X344730538Y-280645471D02*
X344659110Y-280716900D01*
X344659110Y-280716900D02*
X344516252Y-280788328D01*
X344516252Y-280788328D02*
X344087681Y-280788328D01*
X344087681Y-280788328D02*
X343944824Y-280716900D01*
X343944824Y-280716900D02*
X343873395Y-280645471D01*
D10*
D11*
X299989000Y-281502200D02*
X407989000Y-281502200D01*
D10*
D11*
X301444826Y-283588328D02*
X301444826Y-282088328D01*
X302301969Y-283588328D02*
X301659112Y-282731185D01*
X302301969Y-282088328D02*
X301444826Y-282945471D01*
X302944826Y-283588328D02*
X302944826Y-282588328D01*
X302944826Y-282088328D02*
X302873398Y-282159757D01*
X302873398Y-282159757D02*
X302944826Y-282231185D01*
X302944826Y-282231185D02*
X303016255Y-282159757D01*
X303016255Y-282159757D02*
X302944826Y-282088328D01*
X302944826Y-282088328D02*
X302944826Y-282231185D01*
X304516255Y-283445471D02*
X304444827Y-283516900D01*
X304444827Y-283516900D02*
X304230541Y-283588328D01*
X304230541Y-283588328D02*
X304087684Y-283588328D01*
X304087684Y-283588328D02*
X303873398Y-283516900D01*
X303873398Y-283516900D02*
X303730541Y-283374042D01*
X303730541Y-283374042D02*
X303659112Y-283231185D01*
X303659112Y-283231185D02*
X303587684Y-282945471D01*
X303587684Y-282945471D02*
X303587684Y-282731185D01*
X303587684Y-282731185D02*
X303659112Y-282445471D01*
X303659112Y-282445471D02*
X303730541Y-282302614D01*
X303730541Y-282302614D02*
X303873398Y-282159757D01*
X303873398Y-282159757D02*
X304087684Y-282088328D01*
X304087684Y-282088328D02*
X304230541Y-282088328D01*
X304230541Y-282088328D02*
X304444827Y-282159757D01*
X304444827Y-282159757D02*
X304516255Y-282231185D01*
X305801970Y-283588328D02*
X305801970Y-282802614D01*
X305801970Y-282802614D02*
X305730541Y-282659757D01*
X305730541Y-282659757D02*
X305587684Y-282588328D01*
X305587684Y-282588328D02*
X305301970Y-282588328D01*
X305301970Y-282588328D02*
X305159112Y-282659757D01*
X305801970Y-283516900D02*
X305659112Y-283588328D01*
X305659112Y-283588328D02*
X305301970Y-283588328D01*
X305301970Y-283588328D02*
X305159112Y-283516900D01*
X305159112Y-283516900D02*
X305087684Y-283374042D01*
X305087684Y-283374042D02*
X305087684Y-283231185D01*
X305087684Y-283231185D02*
X305159112Y-283088328D01*
X305159112Y-283088328D02*
X305301970Y-283016900D01*
X305301970Y-283016900D02*
X305659112Y-283016900D01*
X305659112Y-283016900D02*
X305801970Y-282945471D01*
X307159113Y-283588328D02*
X307159113Y-282088328D01*
X307159113Y-283516900D02*
X307016255Y-283588328D01*
X307016255Y-283588328D02*
X306730541Y-283588328D01*
X306730541Y-283588328D02*
X306587684Y-283516900D01*
X306587684Y-283516900D02*
X306516255Y-283445471D01*
X306516255Y-283445471D02*
X306444827Y-283302614D01*
X306444827Y-283302614D02*
X306444827Y-282874042D01*
X306444827Y-282874042D02*
X306516255Y-282731185D01*
X306516255Y-282731185D02*
X306587684Y-282659757D01*
X306587684Y-282659757D02*
X306730541Y-282588328D01*
X306730541Y-282588328D02*
X307016255Y-282588328D01*
X307016255Y-282588328D02*
X307159113Y-282659757D01*
X309016255Y-282802614D02*
X309516255Y-282802614D01*
X309730541Y-283588328D02*
X309016255Y-283588328D01*
X309016255Y-283588328D02*
X309016255Y-282088328D01*
X309016255Y-282088328D02*
X309730541Y-282088328D01*
X310373398Y-283445471D02*
X310444827Y-283516900D01*
X310444827Y-283516900D02*
X310373398Y-283588328D01*
X310373398Y-283588328D02*
X310301970Y-283516900D01*
X310301970Y-283516900D02*
X310373398Y-283445471D01*
X310373398Y-283445471D02*
X310373398Y-283588328D01*
X311087684Y-283588328D02*
X311087684Y-282088328D01*
X311087684Y-282088328D02*
X311444827Y-282088328D01*
X311444827Y-282088328D02*
X311659113Y-282159757D01*
X311659113Y-282159757D02*
X311801970Y-282302614D01*
X311801970Y-282302614D02*
X311873399Y-282445471D01*
X311873399Y-282445471D02*
X311944827Y-282731185D01*
X311944827Y-282731185D02*
X311944827Y-282945471D01*
X311944827Y-282945471D02*
X311873399Y-283231185D01*
X311873399Y-283231185D02*
X311801970Y-283374042D01*
X311801970Y-283374042D02*
X311659113Y-283516900D01*
X311659113Y-283516900D02*
X311444827Y-283588328D01*
X311444827Y-283588328D02*
X311087684Y-283588328D01*
X312587684Y-283445471D02*
X312659113Y-283516900D01*
X312659113Y-283516900D02*
X312587684Y-283588328D01*
X312587684Y-283588328D02*
X312516256Y-283516900D01*
X312516256Y-283516900D02*
X312587684Y-283445471D01*
X312587684Y-283445471D02*
X312587684Y-283588328D01*
X313230542Y-283159757D02*
X313944828Y-283159757D01*
X313087685Y-283588328D02*
X313587685Y-282088328D01*
X313587685Y-282088328D02*
X314087685Y-283588328D01*
X314587684Y-283445471D02*
X314659113Y-283516900D01*
X314659113Y-283516900D02*
X314587684Y-283588328D01*
X314587684Y-283588328D02*
X314516256Y-283516900D01*
X314516256Y-283516900D02*
X314587684Y-283445471D01*
X314587684Y-283445471D02*
X314587684Y-283588328D01*
X316659113Y-282731185D02*
X316516256Y-282659757D01*
X316516256Y-282659757D02*
X316444827Y-282588328D01*
X316444827Y-282588328D02*
X316373399Y-282445471D01*
X316373399Y-282445471D02*
X316373399Y-282374042D01*
X316373399Y-282374042D02*
X316444827Y-282231185D01*
X316444827Y-282231185D02*
X316516256Y-282159757D01*
X316516256Y-282159757D02*
X316659113Y-282088328D01*
X316659113Y-282088328D02*
X316944827Y-282088328D01*
X316944827Y-282088328D02*
X317087685Y-282159757D01*
X317087685Y-282159757D02*
X317159113Y-282231185D01*
X317159113Y-282231185D02*
X317230542Y-282374042D01*
X317230542Y-282374042D02*
X317230542Y-282445471D01*
X317230542Y-282445471D02*
X317159113Y-282588328D01*
X317159113Y-282588328D02*
X317087685Y-282659757D01*
X317087685Y-282659757D02*
X316944827Y-282731185D01*
X316944827Y-282731185D02*
X316659113Y-282731185D01*
X316659113Y-282731185D02*
X316516256Y-282802614D01*
X316516256Y-282802614D02*
X316444827Y-282874042D01*
X316444827Y-282874042D02*
X316373399Y-283016900D01*
X316373399Y-283016900D02*
X316373399Y-283302614D01*
X316373399Y-283302614D02*
X316444827Y-283445471D01*
X316444827Y-283445471D02*
X316516256Y-283516900D01*
X316516256Y-283516900D02*
X316659113Y-283588328D01*
X316659113Y-283588328D02*
X316944827Y-283588328D01*
X316944827Y-283588328D02*
X317087685Y-283516900D01*
X317087685Y-283516900D02*
X317159113Y-283445471D01*
X317159113Y-283445471D02*
X317230542Y-283302614D01*
X317230542Y-283302614D02*
X317230542Y-283016900D01*
X317230542Y-283016900D02*
X317159113Y-282874042D01*
X317159113Y-282874042D02*
X317087685Y-282802614D01*
X317087685Y-282802614D02*
X316944827Y-282731185D01*
X317873398Y-283445471D02*
X317944827Y-283516900D01*
X317944827Y-283516900D02*
X317873398Y-283588328D01*
X317873398Y-283588328D02*
X317801970Y-283516900D01*
X317801970Y-283516900D02*
X317873398Y-283445471D01*
X317873398Y-283445471D02*
X317873398Y-283588328D01*
X318873399Y-282088328D02*
X319016256Y-282088328D01*
X319016256Y-282088328D02*
X319159113Y-282159757D01*
X319159113Y-282159757D02*
X319230542Y-282231185D01*
X319230542Y-282231185D02*
X319301970Y-282374042D01*
X319301970Y-282374042D02*
X319373399Y-282659757D01*
X319373399Y-282659757D02*
X319373399Y-283016900D01*
X319373399Y-283016900D02*
X319301970Y-283302614D01*
X319301970Y-283302614D02*
X319230542Y-283445471D01*
X319230542Y-283445471D02*
X319159113Y-283516900D01*
X319159113Y-283516900D02*
X319016256Y-283588328D01*
X319016256Y-283588328D02*
X318873399Y-283588328D01*
X318873399Y-283588328D02*
X318730542Y-283516900D01*
X318730542Y-283516900D02*
X318659113Y-283445471D01*
X318659113Y-283445471D02*
X318587684Y-283302614D01*
X318587684Y-283302614D02*
X318516256Y-283016900D01*
X318516256Y-283016900D02*
X318516256Y-282659757D01*
X318516256Y-282659757D02*
X318587684Y-282374042D01*
X318587684Y-282374042D02*
X318659113Y-282231185D01*
X318659113Y-282231185D02*
X318730542Y-282159757D01*
X318730542Y-282159757D02*
X318873399Y-282088328D01*
X320016255Y-283445471D02*
X320087684Y-283516900D01*
X320087684Y-283516900D02*
X320016255Y-283588328D01*
X320016255Y-283588328D02*
X319944827Y-283516900D01*
X319944827Y-283516900D02*
X320016255Y-283445471D01*
X320016255Y-283445471D02*
X320016255Y-283588328D01*
X321373399Y-282588328D02*
X321373399Y-283588328D01*
X321016256Y-282016900D02*
X320659113Y-283088328D01*
X320659113Y-283088328D02*
X321587684Y-283088328D01*
D10*
D11*
X299989000Y-278502200D02*
X407989000Y-278502200D01*
D10*
D12*
X387400653Y-280780528D02*
X386900653Y-280066242D01*
X386543510Y-280780528D02*
X386543510Y-279280528D01*
X386543510Y-279280528D02*
X387114939Y-279280528D01*
X387114939Y-279280528D02*
X387257796Y-279351957D01*
X387257796Y-279351957D02*
X387329225Y-279423385D01*
X387329225Y-279423385D02*
X387400653Y-279566242D01*
X387400653Y-279566242D02*
X387400653Y-279780528D01*
X387400653Y-279780528D02*
X387329225Y-279923385D01*
X387329225Y-279923385D02*
X387257796Y-279994814D01*
X387257796Y-279994814D02*
X387114939Y-280066242D01*
X387114939Y-280066242D02*
X386543510Y-280066242D01*
X388614939Y-280709100D02*
X388472082Y-280780528D01*
X388472082Y-280780528D02*
X388186368Y-280780528D01*
X388186368Y-280780528D02*
X388043510Y-280709100D01*
X388043510Y-280709100D02*
X387972082Y-280566242D01*
X387972082Y-280566242D02*
X387972082Y-279994814D01*
X387972082Y-279994814D02*
X388043510Y-279851957D01*
X388043510Y-279851957D02*
X388186368Y-279780528D01*
X388186368Y-279780528D02*
X388472082Y-279780528D01*
X388472082Y-279780528D02*
X388614939Y-279851957D01*
X388614939Y-279851957D02*
X388686368Y-279994814D01*
X388686368Y-279994814D02*
X388686368Y-280137671D01*
X388686368Y-280137671D02*
X387972082Y-280280528D01*
X389186367Y-279780528D02*
X389543510Y-280780528D01*
X389543510Y-280780528D02*
X389900653Y-279780528D01*
X390472081Y-280637671D02*
X390543510Y-280709100D01*
X390543510Y-280709100D02*
X390472081Y-280780528D01*
X390472081Y-280780528D02*
X390400653Y-280709100D01*
X390400653Y-280709100D02*
X390472081Y-280637671D01*
X390472081Y-280637671D02*
X390472081Y-280780528D01*
X390472081Y-279851957D02*
X390543510Y-279923385D01*
X390543510Y-279923385D02*
X390472081Y-279994814D01*
X390472081Y-279994814D02*
X390400653Y-279923385D01*
X390400653Y-279923385D02*
X390472081Y-279851957D01*
X390472081Y-279851957D02*
X390472081Y-279994814D01*
X392614939Y-279280528D02*
X392757796Y-279280528D01*
X392757796Y-279280528D02*
X392900653Y-279351957D01*
X392900653Y-279351957D02*
X392972082Y-279423385D01*
X392972082Y-279423385D02*
X393043510Y-279566242D01*
X393043510Y-279566242D02*
X393114939Y-279851957D01*
X393114939Y-279851957D02*
X393114939Y-280209100D01*
X393114939Y-280209100D02*
X393043510Y-280494814D01*
X393043510Y-280494814D02*
X392972082Y-280637671D01*
X392972082Y-280637671D02*
X392900653Y-280709100D01*
X392900653Y-280709100D02*
X392757796Y-280780528D01*
X392757796Y-280780528D02*
X392614939Y-280780528D01*
X392614939Y-280780528D02*
X392472082Y-280709100D01*
X392472082Y-280709100D02*
X392400653Y-280637671D01*
X392400653Y-280637671D02*
X392329224Y-280494814D01*
X392329224Y-280494814D02*
X392257796Y-280209100D01*
X392257796Y-280209100D02*
X392257796Y-279851957D01*
X392257796Y-279851957D02*
X392329224Y-279566242D01*
X392329224Y-279566242D02*
X392400653Y-279423385D01*
X392400653Y-279423385D02*
X392472082Y-279351957D01*
X392472082Y-279351957D02*
X392614939Y-279280528D01*
X393757795Y-280637671D02*
X393829224Y-280709100D01*
X393829224Y-280709100D02*
X393757795Y-280780528D01*
X393757795Y-280780528D02*
X393686367Y-280709100D01*
X393686367Y-280709100D02*
X393757795Y-280637671D01*
X393757795Y-280637671D02*
X393757795Y-280780528D01*
X394757796Y-279280528D02*
X394900653Y-279280528D01*
X394900653Y-279280528D02*
X395043510Y-279351957D01*
X395043510Y-279351957D02*
X395114939Y-279423385D01*
X395114939Y-279423385D02*
X395186367Y-279566242D01*
X395186367Y-279566242D02*
X395257796Y-279851957D01*
X395257796Y-279851957D02*
X395257796Y-280209100D01*
X395257796Y-280209100D02*
X395186367Y-280494814D01*
X395186367Y-280494814D02*
X395114939Y-280637671D01*
X395114939Y-280637671D02*
X395043510Y-280709100D01*
X395043510Y-280709100D02*
X394900653Y-280780528D01*
X394900653Y-280780528D02*
X394757796Y-280780528D01*
X394757796Y-280780528D02*
X394614939Y-280709100D01*
X394614939Y-280709100D02*
X394543510Y-280637671D01*
X394543510Y-280637671D02*
X394472081Y-280494814D01*
X394472081Y-280494814D02*
X394400653Y-280209100D01*
X394400653Y-280209100D02*
X394400653Y-279851957D01*
X394400653Y-279851957D02*
X394472081Y-279566242D01*
X394472081Y-279566242D02*
X394543510Y-279423385D01*
X394543510Y-279423385D02*
X394614939Y-279351957D01*
X394614939Y-279351957D02*
X394757796Y-279280528D01*
X396186367Y-279280528D02*
X396329224Y-279280528D01*
X396329224Y-279280528D02*
X396472081Y-279351957D01*
X396472081Y-279351957D02*
X396543510Y-279423385D01*
X396543510Y-279423385D02*
X396614938Y-279566242D01*
X396614938Y-279566242D02*
X396686367Y-279851957D01*
X396686367Y-279851957D02*
X396686367Y-280209100D01*
X396686367Y-280209100D02*
X396614938Y-280494814D01*
X396614938Y-280494814D02*
X396543510Y-280637671D01*
X396543510Y-280637671D02*
X396472081Y-280709100D01*
X396472081Y-280709100D02*
X396329224Y-280780528D01*
X396329224Y-280780528D02*
X396186367Y-280780528D01*
X396186367Y-280780528D02*
X396043510Y-280709100D01*
X396043510Y-280709100D02*
X395972081Y-280637671D01*
X395972081Y-280637671D02*
X395900652Y-280494814D01*
X395900652Y-280494814D02*
X395829224Y-280209100D01*
X395829224Y-280209100D02*
X395829224Y-279851957D01*
X395829224Y-279851957D02*
X395900652Y-279566242D01*
X395900652Y-279566242D02*
X395972081Y-279423385D01*
X395972081Y-279423385D02*
X396043510Y-279351957D01*
X396043510Y-279351957D02*
X396186367Y-279280528D01*
D10*
D11*
X301373398Y-280716900D02*
X301587684Y-280788328D01*
X301587684Y-280788328D02*
X301944826Y-280788328D01*
X301944826Y-280788328D02*
X302087684Y-280716900D01*
X302087684Y-280716900D02*
X302159112Y-280645471D01*
X302159112Y-280645471D02*
X302230541Y-280502614D01*
X302230541Y-280502614D02*
X302230541Y-280359757D01*
X302230541Y-280359757D02*
X302159112Y-280216900D01*
X302159112Y-280216900D02*
X302087684Y-280145471D01*
X302087684Y-280145471D02*
X301944826Y-280074042D01*
X301944826Y-280074042D02*
X301659112Y-280002614D01*
X301659112Y-280002614D02*
X301516255Y-279931185D01*
X301516255Y-279931185D02*
X301444826Y-279859757D01*
X301444826Y-279859757D02*
X301373398Y-279716900D01*
X301373398Y-279716900D02*
X301373398Y-279574042D01*
X301373398Y-279574042D02*
X301444826Y-279431185D01*
X301444826Y-279431185D02*
X301516255Y-279359757D01*
X301516255Y-279359757D02*
X301659112Y-279288328D01*
X301659112Y-279288328D02*
X302016255Y-279288328D01*
X302016255Y-279288328D02*
X302230541Y-279359757D01*
X302873397Y-280788328D02*
X302873397Y-279788328D01*
X302873397Y-279288328D02*
X302801969Y-279359757D01*
X302801969Y-279359757D02*
X302873397Y-279431185D01*
X302873397Y-279431185D02*
X302944826Y-279359757D01*
X302944826Y-279359757D02*
X302873397Y-279288328D01*
X302873397Y-279288328D02*
X302873397Y-279431185D01*
X303444826Y-279788328D02*
X304230541Y-279788328D01*
X304230541Y-279788328D02*
X303444826Y-280788328D01*
X303444826Y-280788328D02*
X304230541Y-280788328D01*
X305373398Y-280716900D02*
X305230541Y-280788328D01*
X305230541Y-280788328D02*
X304944827Y-280788328D01*
X304944827Y-280788328D02*
X304801969Y-280716900D01*
X304801969Y-280716900D02*
X304730541Y-280574042D01*
X304730541Y-280574042D02*
X304730541Y-280002614D01*
X304730541Y-280002614D02*
X304801969Y-279859757D01*
X304801969Y-279859757D02*
X304944827Y-279788328D01*
X304944827Y-279788328D02*
X305230541Y-279788328D01*
X305230541Y-279788328D02*
X305373398Y-279859757D01*
X305373398Y-279859757D02*
X305444827Y-280002614D01*
X305444827Y-280002614D02*
X305444827Y-280145471D01*
X305444827Y-280145471D02*
X304730541Y-280288328D01*
X306087683Y-280645471D02*
X306159112Y-280716900D01*
X306159112Y-280716900D02*
X306087683Y-280788328D01*
X306087683Y-280788328D02*
X306016255Y-280716900D01*
X306016255Y-280716900D02*
X306087683Y-280645471D01*
X306087683Y-280645471D02*
X306087683Y-280788328D01*
X306087683Y-279859757D02*
X306159112Y-279931185D01*
X306159112Y-279931185D02*
X306087683Y-280002614D01*
X306087683Y-280002614D02*
X306016255Y-279931185D01*
X306016255Y-279931185D02*
X306087683Y-279859757D01*
X306087683Y-279859757D02*
X306087683Y-280002614D01*
X307873398Y-280359757D02*
X308587684Y-280359757D01*
X307730541Y-280788328D02*
X308230541Y-279288328D01*
X308230541Y-279288328D02*
X308730541Y-280788328D01*
X309087683Y-279288328D02*
X310016255Y-279288328D01*
X310016255Y-279288328D02*
X309516255Y-279859757D01*
X309516255Y-279859757D02*
X309730540Y-279859757D01*
X309730540Y-279859757D02*
X309873398Y-279931185D01*
X309873398Y-279931185D02*
X309944826Y-280002614D01*
X309944826Y-280002614D02*
X310016255Y-280145471D01*
X310016255Y-280145471D02*
X310016255Y-280502614D01*
X310016255Y-280502614D02*
X309944826Y-280645471D01*
X309944826Y-280645471D02*
X309873398Y-280716900D01*
X309873398Y-280716900D02*
X309730540Y-280788328D01*
X309730540Y-280788328D02*
X309301969Y-280788328D01*
X309301969Y-280788328D02*
X309159112Y-280716900D01*
X309159112Y-280716900D02*
X309087683Y-280645471D01*
D10*
D11*
X386444826Y-283588328D02*
X386444826Y-282088328D01*
X387801970Y-283588328D02*
X387801970Y-282088328D01*
X387801970Y-283516900D02*
X387659112Y-283588328D01*
X387659112Y-283588328D02*
X387373398Y-283588328D01*
X387373398Y-283588328D02*
X387230541Y-283516900D01*
X387230541Y-283516900D02*
X387159112Y-283445471D01*
X387159112Y-283445471D02*
X387087684Y-283302614D01*
X387087684Y-283302614D02*
X387087684Y-282874042D01*
X387087684Y-282874042D02*
X387159112Y-282731185D01*
X387159112Y-282731185D02*
X387230541Y-282659757D01*
X387230541Y-282659757D02*
X387373398Y-282588328D01*
X387373398Y-282588328D02*
X387659112Y-282588328D01*
X387659112Y-282588328D02*
X387801970Y-282659757D01*
X388516255Y-283445471D02*
X388587684Y-283516900D01*
X388587684Y-283516900D02*
X388516255Y-283588328D01*
X388516255Y-283588328D02*
X388444827Y-283516900D01*
X388444827Y-283516900D02*
X388516255Y-283445471D01*
X388516255Y-283445471D02*
X388516255Y-283588328D01*
X388516255Y-282659757D02*
X388587684Y-282731185D01*
X388587684Y-282731185D02*
X388516255Y-282802614D01*
X388516255Y-282802614D02*
X388444827Y-282731185D01*
X388444827Y-282731185D02*
X388516255Y-282659757D01*
X388516255Y-282659757D02*
X388516255Y-282802614D01*
X391159113Y-283588328D02*
X390301970Y-283588328D01*
X390730541Y-283588328D02*
X390730541Y-282088328D01*
X390730541Y-282088328D02*
X390587684Y-282302614D01*
X390587684Y-282302614D02*
X390444827Y-282445471D01*
X390444827Y-282445471D02*
X390301970Y-282516900D01*
X392873398Y-282016900D02*
X391587684Y-283945471D01*
X394159113Y-283588328D02*
X393301970Y-283588328D01*
X393730541Y-283588328D02*
X393730541Y-282088328D01*
X393730541Y-282088328D02*
X393587684Y-282302614D01*
X393587684Y-282302614D02*
X393444827Y-282445471D01*
X393444827Y-282445471D02*
X393301970Y-282516900D01*
D10*
D11*
X299989000Y-274502200D02*
X407989000Y-274502200D01*
D10*
D13*
X301680728Y-275206638D02*
X302823585Y-275206638D01*
X302002157Y-277206638D02*
X302252157Y-275206638D01*
X303240252Y-277206638D02*
X303406919Y-275873304D01*
X303490252Y-275206638D02*
X303383109Y-275301876D01*
X303383109Y-275301876D02*
X303466443Y-275397114D01*
X303466443Y-275397114D02*
X303573586Y-275301876D01*
X303573586Y-275301876D02*
X303490252Y-275206638D01*
X303490252Y-275206638D02*
X303466443Y-275397114D01*
X304073586Y-275873304D02*
X304835490Y-275873304D01*
X304442633Y-275206638D02*
X304228348Y-276920923D01*
X304228348Y-276920923D02*
X304299776Y-277111400D01*
X304299776Y-277111400D02*
X304478348Y-277206638D01*
X304478348Y-277206638D02*
X304668824Y-277206638D01*
X305621205Y-277206638D02*
X305442633Y-277111400D01*
X305442633Y-277111400D02*
X305371205Y-276920923D01*
X305371205Y-276920923D02*
X305585490Y-275206638D01*
X307156919Y-277111400D02*
X306954538Y-277206638D01*
X306954538Y-277206638D02*
X306573585Y-277206638D01*
X306573585Y-277206638D02*
X306395014Y-277111400D01*
X306395014Y-277111400D02*
X306323585Y-276920923D01*
X306323585Y-276920923D02*
X306418824Y-276159019D01*
X306418824Y-276159019D02*
X306537871Y-275968542D01*
X306537871Y-275968542D02*
X306740252Y-275873304D01*
X306740252Y-275873304D02*
X307121204Y-275873304D01*
X307121204Y-275873304D02*
X307299776Y-275968542D01*
X307299776Y-275968542D02*
X307371204Y-276159019D01*
X307371204Y-276159019D02*
X307347395Y-276349495D01*
X307347395Y-276349495D02*
X306371204Y-276539971D01*
X308121205Y-277016161D02*
X308204538Y-277111400D01*
X308204538Y-277111400D02*
X308097395Y-277206638D01*
X308097395Y-277206638D02*
X308014062Y-277111400D01*
X308014062Y-277111400D02*
X308121205Y-277016161D01*
X308121205Y-277016161D02*
X308097395Y-277206638D01*
X308252157Y-275968542D02*
X308335490Y-276063780D01*
X308335490Y-276063780D02*
X308228348Y-276159019D01*
X308228348Y-276159019D02*
X308145014Y-276063780D01*
X308145014Y-276063780D02*
X308252157Y-275968542D01*
X308252157Y-275968542D02*
X308228348Y-276159019D01*
X311740253Y-277016161D02*
X311633110Y-277111400D01*
X311633110Y-277111400D02*
X311335491Y-277206638D01*
X311335491Y-277206638D02*
X311145015Y-277206638D01*
X311145015Y-277206638D02*
X310871205Y-277111400D01*
X310871205Y-277111400D02*
X310704539Y-276920923D01*
X310704539Y-276920923D02*
X310633110Y-276730447D01*
X310633110Y-276730447D02*
X310585491Y-276349495D01*
X310585491Y-276349495D02*
X310621205Y-276063780D01*
X310621205Y-276063780D02*
X310764062Y-275682828D01*
X310764062Y-275682828D02*
X310883110Y-275492352D01*
X310883110Y-275492352D02*
X311097396Y-275301876D01*
X311097396Y-275301876D02*
X311395015Y-275206638D01*
X311395015Y-275206638D02*
X311585491Y-275206638D01*
X311585491Y-275206638D02*
X311859301Y-275301876D01*
X311859301Y-275301876D02*
X311942634Y-275397114D01*
X313883110Y-277397114D02*
X313704539Y-277301876D01*
X313704539Y-277301876D02*
X313537872Y-277111400D01*
X313537872Y-277111400D02*
X313287872Y-276825685D01*
X313287872Y-276825685D02*
X313109301Y-276730447D01*
X313109301Y-276730447D02*
X312918824Y-276730447D01*
X312954539Y-277206638D02*
X312775967Y-277111400D01*
X312775967Y-277111400D02*
X312609301Y-276920923D01*
X312609301Y-276920923D02*
X312561681Y-276539971D01*
X312561681Y-276539971D02*
X312645015Y-275873304D01*
X312645015Y-275873304D02*
X312787872Y-275492352D01*
X312787872Y-275492352D02*
X313002158Y-275301876D01*
X313002158Y-275301876D02*
X313204539Y-275206638D01*
X313204539Y-275206638D02*
X313585491Y-275206638D01*
X313585491Y-275206638D02*
X313764062Y-275301876D01*
X313764062Y-275301876D02*
X313930729Y-275492352D01*
X313930729Y-275492352D02*
X313978348Y-275873304D01*
X313978348Y-275873304D02*
X313895015Y-276539971D01*
X313895015Y-276539971D02*
X313752158Y-276920923D01*
X313752158Y-276920923D02*
X313537872Y-277111400D01*
X313537872Y-277111400D02*
X313335491Y-277206638D01*
X313335491Y-277206638D02*
X312954539Y-277206638D01*
X314799777Y-275397114D02*
X314906919Y-275301876D01*
X314906919Y-275301876D02*
X315109300Y-275206638D01*
X315109300Y-275206638D02*
X315585491Y-275206638D01*
X315585491Y-275206638D02*
X315764062Y-275301876D01*
X315764062Y-275301876D02*
X315847396Y-275397114D01*
X315847396Y-275397114D02*
X315918824Y-275587590D01*
X315918824Y-275587590D02*
X315895015Y-275778066D01*
X315895015Y-275778066D02*
X315764062Y-276063780D01*
X315764062Y-276063780D02*
X314478348Y-277206638D01*
X314478348Y-277206638D02*
X315716443Y-277206638D01*
D10*
D11*
X301944826Y-272602614D02*
X301444826Y-272602614D01*
X301444826Y-273388328D02*
X301444826Y-271888328D01*
X301444826Y-271888328D02*
X302159112Y-271888328D01*
X302730540Y-273388328D02*
X302730540Y-272388328D01*
X302730540Y-271888328D02*
X302659112Y-271959757D01*
X302659112Y-271959757D02*
X302730540Y-272031185D01*
X302730540Y-272031185D02*
X302801969Y-271959757D01*
X302801969Y-271959757D02*
X302730540Y-271888328D01*
X302730540Y-271888328D02*
X302730540Y-272031185D01*
X303659112Y-273388328D02*
X303516255Y-273316900D01*
X303516255Y-273316900D02*
X303444826Y-273174042D01*
X303444826Y-273174042D02*
X303444826Y-271888328D01*
X304801969Y-273316900D02*
X304659112Y-273388328D01*
X304659112Y-273388328D02*
X304373398Y-273388328D01*
X304373398Y-273388328D02*
X304230540Y-273316900D01*
X304230540Y-273316900D02*
X304159112Y-273174042D01*
X304159112Y-273174042D02*
X304159112Y-272602614D01*
X304159112Y-272602614D02*
X304230540Y-272459757D01*
X304230540Y-272459757D02*
X304373398Y-272388328D01*
X304373398Y-272388328D02*
X304659112Y-272388328D01*
X304659112Y-272388328D02*
X304801969Y-272459757D01*
X304801969Y-272459757D02*
X304873398Y-272602614D01*
X304873398Y-272602614D02*
X304873398Y-272745471D01*
X304873398Y-272745471D02*
X304159112Y-272888328D01*
X305516254Y-273245471D02*
X305587683Y-273316900D01*
X305587683Y-273316900D02*
X305516254Y-273388328D01*
X305516254Y-273388328D02*
X305444826Y-273316900D01*
X305444826Y-273316900D02*
X305516254Y-273245471D01*
X305516254Y-273245471D02*
X305516254Y-273388328D01*
X305516254Y-272459757D02*
X305587683Y-272531185D01*
X305587683Y-272531185D02*
X305516254Y-272602614D01*
X305516254Y-272602614D02*
X305444826Y-272531185D01*
X305444826Y-272531185D02*
X305516254Y-272459757D01*
X305516254Y-272459757D02*
X305516254Y-272602614D01*
X308016255Y-273316900D02*
X307873397Y-273388328D01*
X307873397Y-273388328D02*
X307587683Y-273388328D01*
X307587683Y-273388328D02*
X307444826Y-273316900D01*
X307444826Y-273316900D02*
X307373397Y-273245471D01*
X307373397Y-273245471D02*
X307301969Y-273102614D01*
X307301969Y-273102614D02*
X307301969Y-272674042D01*
X307301969Y-272674042D02*
X307373397Y-272531185D01*
X307373397Y-272531185D02*
X307444826Y-272459757D01*
X307444826Y-272459757D02*
X307587683Y-272388328D01*
X307587683Y-272388328D02*
X307873397Y-272388328D01*
X307873397Y-272388328D02*
X308016255Y-272459757D01*
X309301969Y-272388328D02*
X309301969Y-273888328D01*
X309301969Y-273316900D02*
X309159111Y-273388328D01*
X309159111Y-273388328D02*
X308873397Y-273388328D01*
X308873397Y-273388328D02*
X308730540Y-273316900D01*
X308730540Y-273316900D02*
X308659111Y-273245471D01*
X308659111Y-273245471D02*
X308587683Y-273102614D01*
X308587683Y-273102614D02*
X308587683Y-272674042D01*
X308587683Y-272674042D02*
X308659111Y-272531185D01*
X308659111Y-272531185D02*
X308730540Y-272459757D01*
X308730540Y-272459757D02*
X308873397Y-272388328D01*
X308873397Y-272388328D02*
X309159111Y-272388328D01*
X309159111Y-272388328D02*
X309301969Y-272459757D01*
X309944826Y-272031185D02*
X310016254Y-271959757D01*
X310016254Y-271959757D02*
X310159112Y-271888328D01*
X310159112Y-271888328D02*
X310516254Y-271888328D01*
X310516254Y-271888328D02*
X310659112Y-271959757D01*
X310659112Y-271959757D02*
X310730540Y-272031185D01*
X310730540Y-272031185D02*
X310801969Y-272174042D01*
X310801969Y-272174042D02*
X310801969Y-272316900D01*
X310801969Y-272316900D02*
X310730540Y-272531185D01*
X310730540Y-272531185D02*
X309873397Y-273388328D01*
X309873397Y-273388328D02*
X310801969Y-273388328D01*
X311444825Y-273245471D02*
X311516254Y-273316900D01*
X311516254Y-273316900D02*
X311444825Y-273388328D01*
X311444825Y-273388328D02*
X311373397Y-273316900D01*
X311373397Y-273316900D02*
X311444825Y-273245471D01*
X311444825Y-273245471D02*
X311444825Y-273388328D01*
X312159111Y-273388328D02*
X312159111Y-271888328D01*
X312301969Y-272816900D02*
X312730540Y-273388328D01*
X312730540Y-272388328D02*
X312159111Y-272959757D01*
X313373397Y-273388328D02*
X313373397Y-272388328D01*
X313373397Y-271888328D02*
X313301969Y-271959757D01*
X313301969Y-271959757D02*
X313373397Y-272031185D01*
X313373397Y-272031185D02*
X313444826Y-271959757D01*
X313444826Y-271959757D02*
X313373397Y-271888328D01*
X313373397Y-271888328D02*
X313373397Y-272031185D01*
X314730541Y-273316900D02*
X314587683Y-273388328D01*
X314587683Y-273388328D02*
X314301969Y-273388328D01*
X314301969Y-273388328D02*
X314159112Y-273316900D01*
X314159112Y-273316900D02*
X314087683Y-273245471D01*
X314087683Y-273245471D02*
X314016255Y-273102614D01*
X314016255Y-273102614D02*
X314016255Y-272674042D01*
X314016255Y-272674042D02*
X314087683Y-272531185D01*
X314087683Y-272531185D02*
X314159112Y-272459757D01*
X314159112Y-272459757D02*
X314301969Y-272388328D01*
X314301969Y-272388328D02*
X314587683Y-272388328D01*
X314587683Y-272388328D02*
X314730541Y-272459757D01*
X316016255Y-273388328D02*
X316016255Y-272602614D01*
X316016255Y-272602614D02*
X315944826Y-272459757D01*
X315944826Y-272459757D02*
X315801969Y-272388328D01*
X315801969Y-272388328D02*
X315516255Y-272388328D01*
X315516255Y-272388328D02*
X315373397Y-272459757D01*
X316016255Y-273316900D02*
X315873397Y-273388328D01*
X315873397Y-273388328D02*
X315516255Y-273388328D01*
X315516255Y-273388328D02*
X315373397Y-273316900D01*
X315373397Y-273316900D02*
X315301969Y-273174042D01*
X315301969Y-273174042D02*
X315301969Y-273031185D01*
X315301969Y-273031185D02*
X315373397Y-272888328D01*
X315373397Y-272888328D02*
X315516255Y-272816900D01*
X315516255Y-272816900D02*
X315873397Y-272816900D01*
X315873397Y-272816900D02*
X316016255Y-272745471D01*
X317373398Y-273388328D02*
X317373398Y-271888328D01*
X317373398Y-273316900D02*
X317230540Y-273388328D01*
X317230540Y-273388328D02*
X316944826Y-273388328D01*
X316944826Y-273388328D02*
X316801969Y-273316900D01*
X316801969Y-273316900D02*
X316730540Y-273245471D01*
X316730540Y-273245471D02*
X316659112Y-273102614D01*
X316659112Y-273102614D02*
X316659112Y-272674042D01*
X316659112Y-272674042D02*
X316730540Y-272531185D01*
X316730540Y-272531185D02*
X316801969Y-272459757D01*
X316801969Y-272459757D02*
X316944826Y-272388328D01*
X316944826Y-272388328D02*
X317230540Y-272388328D01*
X317230540Y-272388328D02*
X317373398Y-272459757D01*
X317730541Y-273531185D02*
X318873398Y-273531185D01*
X319230540Y-272388328D02*
X319230540Y-273888328D01*
X319230540Y-272459757D02*
X319373398Y-272388328D01*
X319373398Y-272388328D02*
X319659112Y-272388328D01*
X319659112Y-272388328D02*
X319801969Y-272459757D01*
X319801969Y-272459757D02*
X319873398Y-272531185D01*
X319873398Y-272531185D02*
X319944826Y-272674042D01*
X319944826Y-272674042D02*
X319944826Y-273102614D01*
X319944826Y-273102614D02*
X319873398Y-273245471D01*
X319873398Y-273245471D02*
X319801969Y-273316900D01*
X319801969Y-273316900D02*
X319659112Y-273388328D01*
X319659112Y-273388328D02*
X319373398Y-273388328D01*
X319373398Y-273388328D02*
X319230540Y-273316900D01*
X321230541Y-273316900D02*
X321087683Y-273388328D01*
X321087683Y-273388328D02*
X320801969Y-273388328D01*
X320801969Y-273388328D02*
X320659112Y-273316900D01*
X320659112Y-273316900D02*
X320587683Y-273245471D01*
X320587683Y-273245471D02*
X320516255Y-273102614D01*
X320516255Y-273102614D02*
X320516255Y-272674042D01*
X320516255Y-272674042D02*
X320587683Y-272531185D01*
X320587683Y-272531185D02*
X320659112Y-272459757D01*
X320659112Y-272459757D02*
X320801969Y-272388328D01*
X320801969Y-272388328D02*
X321087683Y-272388328D01*
X321087683Y-272388328D02*
X321230541Y-272459757D01*
X321873397Y-273388328D02*
X321873397Y-271888328D01*
X321873397Y-272459757D02*
X322016255Y-272388328D01*
X322016255Y-272388328D02*
X322301969Y-272388328D01*
X322301969Y-272388328D02*
X322444826Y-272459757D01*
X322444826Y-272459757D02*
X322516255Y-272531185D01*
X322516255Y-272531185D02*
X322587683Y-272674042D01*
X322587683Y-272674042D02*
X322587683Y-273102614D01*
X322587683Y-273102614D02*
X322516255Y-273245471D01*
X322516255Y-273245471D02*
X322444826Y-273316900D01*
X322444826Y-273316900D02*
X322301969Y-273388328D01*
X322301969Y-273388328D02*
X322016255Y-273388328D01*
X322016255Y-273388328D02*
X321873397Y-273316900D01*
D10*
D11*
X299989000Y-268502200D02*
X407989000Y-268502200D01*
D10*
D11*
X301373398Y-270616900D02*
X301587684Y-270688328D01*
X301587684Y-270688328D02*
X301944826Y-270688328D01*
X301944826Y-270688328D02*
X302087684Y-270616900D01*
X302087684Y-270616900D02*
X302159112Y-270545471D01*
X302159112Y-270545471D02*
X302230541Y-270402614D01*
X302230541Y-270402614D02*
X302230541Y-270259757D01*
X302230541Y-270259757D02*
X302159112Y-270116900D01*
X302159112Y-270116900D02*
X302087684Y-270045471D01*
X302087684Y-270045471D02*
X301944826Y-269974042D01*
X301944826Y-269974042D02*
X301659112Y-269902614D01*
X301659112Y-269902614D02*
X301516255Y-269831185D01*
X301516255Y-269831185D02*
X301444826Y-269759757D01*
X301444826Y-269759757D02*
X301373398Y-269616900D01*
X301373398Y-269616900D02*
X301373398Y-269474042D01*
X301373398Y-269474042D02*
X301444826Y-269331185D01*
X301444826Y-269331185D02*
X301516255Y-269259757D01*
X301516255Y-269259757D02*
X301659112Y-269188328D01*
X301659112Y-269188328D02*
X302016255Y-269188328D01*
X302016255Y-269188328D02*
X302230541Y-269259757D01*
X302873397Y-270688328D02*
X302873397Y-269188328D01*
X303516255Y-270688328D02*
X303516255Y-269902614D01*
X303516255Y-269902614D02*
X303444826Y-269759757D01*
X303444826Y-269759757D02*
X303301969Y-269688328D01*
X303301969Y-269688328D02*
X303087683Y-269688328D01*
X303087683Y-269688328D02*
X302944826Y-269759757D01*
X302944826Y-269759757D02*
X302873397Y-269831185D01*
X304801969Y-270616900D02*
X304659112Y-270688328D01*
X304659112Y-270688328D02*
X304373398Y-270688328D01*
X304373398Y-270688328D02*
X304230540Y-270616900D01*
X304230540Y-270616900D02*
X304159112Y-270474042D01*
X304159112Y-270474042D02*
X304159112Y-269902614D01*
X304159112Y-269902614D02*
X304230540Y-269759757D01*
X304230540Y-269759757D02*
X304373398Y-269688328D01*
X304373398Y-269688328D02*
X304659112Y-269688328D01*
X304659112Y-269688328D02*
X304801969Y-269759757D01*
X304801969Y-269759757D02*
X304873398Y-269902614D01*
X304873398Y-269902614D02*
X304873398Y-270045471D01*
X304873398Y-270045471D02*
X304159112Y-270188328D01*
X306087683Y-270616900D02*
X305944826Y-270688328D01*
X305944826Y-270688328D02*
X305659112Y-270688328D01*
X305659112Y-270688328D02*
X305516254Y-270616900D01*
X305516254Y-270616900D02*
X305444826Y-270474042D01*
X305444826Y-270474042D02*
X305444826Y-269902614D01*
X305444826Y-269902614D02*
X305516254Y-269759757D01*
X305516254Y-269759757D02*
X305659112Y-269688328D01*
X305659112Y-269688328D02*
X305944826Y-269688328D01*
X305944826Y-269688328D02*
X306087683Y-269759757D01*
X306087683Y-269759757D02*
X306159112Y-269902614D01*
X306159112Y-269902614D02*
X306159112Y-270045471D01*
X306159112Y-270045471D02*
X305444826Y-270188328D01*
X306587683Y-269688328D02*
X307159111Y-269688328D01*
X306801968Y-269188328D02*
X306801968Y-270474042D01*
X306801968Y-270474042D02*
X306873397Y-270616900D01*
X306873397Y-270616900D02*
X307016254Y-270688328D01*
X307016254Y-270688328D02*
X307159111Y-270688328D01*
X307659111Y-270545471D02*
X307730540Y-270616900D01*
X307730540Y-270616900D02*
X307659111Y-270688328D01*
X307659111Y-270688328D02*
X307587683Y-270616900D01*
X307587683Y-270616900D02*
X307659111Y-270545471D01*
X307659111Y-270545471D02*
X307659111Y-270688328D01*
X307659111Y-269759757D02*
X307730540Y-269831185D01*
X307730540Y-269831185D02*
X307659111Y-269902614D01*
X307659111Y-269902614D02*
X307587683Y-269831185D01*
X307587683Y-269831185D02*
X307659111Y-269759757D01*
X307659111Y-269759757D02*
X307659111Y-269902614D01*
D10*
D11*
X302301969Y-264545471D02*
X302230541Y-264616900D01*
X302230541Y-264616900D02*
X302016255Y-264688328D01*
X302016255Y-264688328D02*
X301873398Y-264688328D01*
X301873398Y-264688328D02*
X301659112Y-264616900D01*
X301659112Y-264616900D02*
X301516255Y-264474042D01*
X301516255Y-264474042D02*
X301444826Y-264331185D01*
X301444826Y-264331185D02*
X301373398Y-264045471D01*
X301373398Y-264045471D02*
X301373398Y-263831185D01*
X301373398Y-263831185D02*
X301444826Y-263545471D01*
X301444826Y-263545471D02*
X301516255Y-263402614D01*
X301516255Y-263402614D02*
X301659112Y-263259757D01*
X301659112Y-263259757D02*
X301873398Y-263188328D01*
X301873398Y-263188328D02*
X302016255Y-263188328D01*
X302016255Y-263188328D02*
X302230541Y-263259757D01*
X302230541Y-263259757D02*
X302301969Y-263331185D01*
X302944826Y-264688328D02*
X302944826Y-263188328D01*
X302944826Y-263188328D02*
X303516255Y-263188328D01*
X303516255Y-263188328D02*
X303659112Y-263259757D01*
X303659112Y-263259757D02*
X303730541Y-263331185D01*
X303730541Y-263331185D02*
X303801969Y-263474042D01*
X303801969Y-263474042D02*
X303801969Y-263688328D01*
X303801969Y-263688328D02*
X303730541Y-263831185D01*
X303730541Y-263831185D02*
X303659112Y-263902614D01*
X303659112Y-263902614D02*
X303516255Y-263974042D01*
X303516255Y-263974042D02*
X302944826Y-263974042D01*
X305301969Y-264545471D02*
X305230541Y-264616900D01*
X305230541Y-264616900D02*
X305016255Y-264688328D01*
X305016255Y-264688328D02*
X304873398Y-264688328D01*
X304873398Y-264688328D02*
X304659112Y-264616900D01*
X304659112Y-264616900D02*
X304516255Y-264474042D01*
X304516255Y-264474042D02*
X304444826Y-264331185D01*
X304444826Y-264331185D02*
X304373398Y-264045471D01*
X304373398Y-264045471D02*
X304373398Y-263831185D01*
X304373398Y-263831185D02*
X304444826Y-263545471D01*
X304444826Y-263545471D02*
X304516255Y-263402614D01*
X304516255Y-263402614D02*
X304659112Y-263259757D01*
X304659112Y-263259757D02*
X304873398Y-263188328D01*
X304873398Y-263188328D02*
X305016255Y-263188328D01*
X305016255Y-263188328D02*
X305230541Y-263259757D01*
X305230541Y-263259757D02*
X305301969Y-263331185D01*
X305944826Y-264688328D02*
X305944826Y-263188328D01*
X307730541Y-263116900D02*
X306444827Y-265045471D01*
X308159113Y-264616900D02*
X308373399Y-264688328D01*
X308373399Y-264688328D02*
X308730541Y-264688328D01*
X308730541Y-264688328D02*
X308873399Y-264616900D01*
X308873399Y-264616900D02*
X308944827Y-264545471D01*
X308944827Y-264545471D02*
X309016256Y-264402614D01*
X309016256Y-264402614D02*
X309016256Y-264259757D01*
X309016256Y-264259757D02*
X308944827Y-264116900D01*
X308944827Y-264116900D02*
X308873399Y-264045471D01*
X308873399Y-264045471D02*
X308730541Y-263974042D01*
X308730541Y-263974042D02*
X308444827Y-263902614D01*
X308444827Y-263902614D02*
X308301970Y-263831185D01*
X308301970Y-263831185D02*
X308230541Y-263759757D01*
X308230541Y-263759757D02*
X308159113Y-263616900D01*
X308159113Y-263616900D02*
X308159113Y-263474042D01*
X308159113Y-263474042D02*
X308230541Y-263331185D01*
X308230541Y-263331185D02*
X308301970Y-263259757D01*
X308301970Y-263259757D02*
X308444827Y-263188328D01*
X308444827Y-263188328D02*
X308801970Y-263188328D01*
X308801970Y-263188328D02*
X309016256Y-263259757D01*
X310801969Y-264688328D02*
X310801969Y-263188328D01*
X310801969Y-263188328D02*
X311373398Y-263188328D01*
X311373398Y-263188328D02*
X311516255Y-263259757D01*
X311516255Y-263259757D02*
X311587684Y-263331185D01*
X311587684Y-263331185D02*
X311659112Y-263474042D01*
X311659112Y-263474042D02*
X311659112Y-263688328D01*
X311659112Y-263688328D02*
X311587684Y-263831185D01*
X311587684Y-263831185D02*
X311516255Y-263902614D01*
X311516255Y-263902614D02*
X311373398Y-263974042D01*
X311373398Y-263974042D02*
X310801969Y-263974042D01*
X312301969Y-264688328D02*
X312301969Y-263688328D01*
X312301969Y-263974042D02*
X312373398Y-263831185D01*
X312373398Y-263831185D02*
X312444827Y-263759757D01*
X312444827Y-263759757D02*
X312587684Y-263688328D01*
X312587684Y-263688328D02*
X312730541Y-263688328D01*
X313444826Y-264688328D02*
X313301969Y-264616900D01*
X313301969Y-264616900D02*
X313230540Y-264545471D01*
X313230540Y-264545471D02*
X313159112Y-264402614D01*
X313159112Y-264402614D02*
X313159112Y-263974042D01*
X313159112Y-263974042D02*
X313230540Y-263831185D01*
X313230540Y-263831185D02*
X313301969Y-263759757D01*
X313301969Y-263759757D02*
X313444826Y-263688328D01*
X313444826Y-263688328D02*
X313659112Y-263688328D01*
X313659112Y-263688328D02*
X313801969Y-263759757D01*
X313801969Y-263759757D02*
X313873398Y-263831185D01*
X313873398Y-263831185D02*
X313944826Y-263974042D01*
X313944826Y-263974042D02*
X313944826Y-264402614D01*
X313944826Y-264402614D02*
X313873398Y-264545471D01*
X313873398Y-264545471D02*
X313801969Y-264616900D01*
X313801969Y-264616900D02*
X313659112Y-264688328D01*
X313659112Y-264688328D02*
X313444826Y-264688328D01*
X315230541Y-263688328D02*
X315230541Y-264902614D01*
X315230541Y-264902614D02*
X315159112Y-265045471D01*
X315159112Y-265045471D02*
X315087683Y-265116900D01*
X315087683Y-265116900D02*
X314944826Y-265188328D01*
X314944826Y-265188328D02*
X314730541Y-265188328D01*
X314730541Y-265188328D02*
X314587683Y-265116900D01*
X315230541Y-264616900D02*
X315087683Y-264688328D01*
X315087683Y-264688328D02*
X314801969Y-264688328D01*
X314801969Y-264688328D02*
X314659112Y-264616900D01*
X314659112Y-264616900D02*
X314587683Y-264545471D01*
X314587683Y-264545471D02*
X314516255Y-264402614D01*
X314516255Y-264402614D02*
X314516255Y-263974042D01*
X314516255Y-263974042D02*
X314587683Y-263831185D01*
X314587683Y-263831185D02*
X314659112Y-263759757D01*
X314659112Y-263759757D02*
X314801969Y-263688328D01*
X314801969Y-263688328D02*
X315087683Y-263688328D01*
X315087683Y-263688328D02*
X315230541Y-263759757D01*
X315944826Y-264688328D02*
X315944826Y-263688328D01*
X315944826Y-263974042D02*
X316016255Y-263831185D01*
X316016255Y-263831185D02*
X316087684Y-263759757D01*
X316087684Y-263759757D02*
X316230541Y-263688328D01*
X316230541Y-263688328D02*
X316373398Y-263688328D01*
X317516255Y-264688328D02*
X317516255Y-263902614D01*
X317516255Y-263902614D02*
X317444826Y-263759757D01*
X317444826Y-263759757D02*
X317301969Y-263688328D01*
X317301969Y-263688328D02*
X317016255Y-263688328D01*
X317016255Y-263688328D02*
X316873397Y-263759757D01*
X317516255Y-264616900D02*
X317373397Y-264688328D01*
X317373397Y-264688328D02*
X317016255Y-264688328D01*
X317016255Y-264688328D02*
X316873397Y-264616900D01*
X316873397Y-264616900D02*
X316801969Y-264474042D01*
X316801969Y-264474042D02*
X316801969Y-264331185D01*
X316801969Y-264331185D02*
X316873397Y-264188328D01*
X316873397Y-264188328D02*
X317016255Y-264116900D01*
X317016255Y-264116900D02*
X317373397Y-264116900D01*
X317373397Y-264116900D02*
X317516255Y-264045471D01*
X318230540Y-264688328D02*
X318230540Y-263688328D01*
X318230540Y-263831185D02*
X318301969Y-263759757D01*
X318301969Y-263759757D02*
X318444826Y-263688328D01*
X318444826Y-263688328D02*
X318659112Y-263688328D01*
X318659112Y-263688328D02*
X318801969Y-263759757D01*
X318801969Y-263759757D02*
X318873398Y-263902614D01*
X318873398Y-263902614D02*
X318873398Y-264688328D01*
X318873398Y-263902614D02*
X318944826Y-263759757D01*
X318944826Y-263759757D02*
X319087683Y-263688328D01*
X319087683Y-263688328D02*
X319301969Y-263688328D01*
X319301969Y-263688328D02*
X319444826Y-263759757D01*
X319444826Y-263759757D02*
X319516255Y-263902614D01*
X319516255Y-263902614D02*
X319516255Y-264688328D01*
X320230540Y-264688328D02*
X320230540Y-263688328D01*
X320230540Y-263831185D02*
X320301969Y-263759757D01*
X320301969Y-263759757D02*
X320444826Y-263688328D01*
X320444826Y-263688328D02*
X320659112Y-263688328D01*
X320659112Y-263688328D02*
X320801969Y-263759757D01*
X320801969Y-263759757D02*
X320873398Y-263902614D01*
X320873398Y-263902614D02*
X320873398Y-264688328D01*
X320873398Y-263902614D02*
X320944826Y-263759757D01*
X320944826Y-263759757D02*
X321087683Y-263688328D01*
X321087683Y-263688328D02*
X321301969Y-263688328D01*
X321301969Y-263688328D02*
X321444826Y-263759757D01*
X321444826Y-263759757D02*
X321516255Y-263902614D01*
X321516255Y-263902614D02*
X321516255Y-264688328D01*
X322873398Y-264688328D02*
X322873398Y-263902614D01*
X322873398Y-263902614D02*
X322801969Y-263759757D01*
X322801969Y-263759757D02*
X322659112Y-263688328D01*
X322659112Y-263688328D02*
X322373398Y-263688328D01*
X322373398Y-263688328D02*
X322230540Y-263759757D01*
X322873398Y-264616900D02*
X322730540Y-264688328D01*
X322730540Y-264688328D02*
X322373398Y-264688328D01*
X322373398Y-264688328D02*
X322230540Y-264616900D01*
X322230540Y-264616900D02*
X322159112Y-264474042D01*
X322159112Y-264474042D02*
X322159112Y-264331185D01*
X322159112Y-264331185D02*
X322230540Y-264188328D01*
X322230540Y-264188328D02*
X322373398Y-264116900D01*
X322373398Y-264116900D02*
X322730540Y-264116900D01*
X322730540Y-264116900D02*
X322873398Y-264045471D01*
X323587683Y-264688328D02*
X323587683Y-263188328D01*
X323587683Y-263759757D02*
X323730541Y-263688328D01*
X323730541Y-263688328D02*
X324016255Y-263688328D01*
X324016255Y-263688328D02*
X324159112Y-263759757D01*
X324159112Y-263759757D02*
X324230541Y-263831185D01*
X324230541Y-263831185D02*
X324301969Y-263974042D01*
X324301969Y-263974042D02*
X324301969Y-264402614D01*
X324301969Y-264402614D02*
X324230541Y-264545471D01*
X324230541Y-264545471D02*
X324159112Y-264616900D01*
X324159112Y-264616900D02*
X324016255Y-264688328D01*
X324016255Y-264688328D02*
X323730541Y-264688328D01*
X323730541Y-264688328D02*
X323587683Y-264616900D01*
X325159112Y-264688328D02*
X325016255Y-264616900D01*
X325016255Y-264616900D02*
X324944826Y-264474042D01*
X324944826Y-264474042D02*
X324944826Y-263188328D01*
X326301969Y-264616900D02*
X326159112Y-264688328D01*
X326159112Y-264688328D02*
X325873398Y-264688328D01*
X325873398Y-264688328D02*
X325730540Y-264616900D01*
X325730540Y-264616900D02*
X325659112Y-264474042D01*
X325659112Y-264474042D02*
X325659112Y-263902614D01*
X325659112Y-263902614D02*
X325730540Y-263759757D01*
X325730540Y-263759757D02*
X325873398Y-263688328D01*
X325873398Y-263688328D02*
X326159112Y-263688328D01*
X326159112Y-263688328D02*
X326301969Y-263759757D01*
X326301969Y-263759757D02*
X326373398Y-263902614D01*
X326373398Y-263902614D02*
X326373398Y-264045471D01*
X326373398Y-264045471D02*
X325659112Y-264188328D01*
X328159111Y-264688328D02*
X328159111Y-263188328D01*
X328159111Y-263188328D02*
X328516254Y-263188328D01*
X328516254Y-263188328D02*
X328730540Y-263259757D01*
X328730540Y-263259757D02*
X328873397Y-263402614D01*
X328873397Y-263402614D02*
X328944826Y-263545471D01*
X328944826Y-263545471D02*
X329016254Y-263831185D01*
X329016254Y-263831185D02*
X329016254Y-264045471D01*
X329016254Y-264045471D02*
X328944826Y-264331185D01*
X328944826Y-264331185D02*
X328873397Y-264474042D01*
X328873397Y-264474042D02*
X328730540Y-264616900D01*
X328730540Y-264616900D02*
X328516254Y-264688328D01*
X328516254Y-264688328D02*
X328159111Y-264688328D01*
X330301969Y-263688328D02*
X330301969Y-264688328D01*
X329659111Y-263688328D02*
X329659111Y-264474042D01*
X329659111Y-264474042D02*
X329730540Y-264616900D01*
X329730540Y-264616900D02*
X329873397Y-264688328D01*
X329873397Y-264688328D02*
X330087683Y-264688328D01*
X330087683Y-264688328D02*
X330230540Y-264616900D01*
X330230540Y-264616900D02*
X330301969Y-264545471D01*
X331659112Y-264688328D02*
X331659112Y-263902614D01*
X331659112Y-263902614D02*
X331587683Y-263759757D01*
X331587683Y-263759757D02*
X331444826Y-263688328D01*
X331444826Y-263688328D02*
X331159112Y-263688328D01*
X331159112Y-263688328D02*
X331016254Y-263759757D01*
X331659112Y-264616900D02*
X331516254Y-264688328D01*
X331516254Y-264688328D02*
X331159112Y-264688328D01*
X331159112Y-264688328D02*
X331016254Y-264616900D01*
X331016254Y-264616900D02*
X330944826Y-264474042D01*
X330944826Y-264474042D02*
X330944826Y-264331185D01*
X330944826Y-264331185D02*
X331016254Y-264188328D01*
X331016254Y-264188328D02*
X331159112Y-264116900D01*
X331159112Y-264116900D02*
X331516254Y-264116900D01*
X331516254Y-264116900D02*
X331659112Y-264045471D01*
X332587683Y-264688328D02*
X332444826Y-264616900D01*
X332444826Y-264616900D02*
X332373397Y-264474042D01*
X332373397Y-264474042D02*
X332373397Y-263188328D01*
X334301968Y-264688328D02*
X334301968Y-263188328D01*
X334301968Y-263188328D02*
X334873397Y-263188328D01*
X334873397Y-263188328D02*
X335016254Y-263259757D01*
X335016254Y-263259757D02*
X335087683Y-263331185D01*
X335087683Y-263331185D02*
X335159111Y-263474042D01*
X335159111Y-263474042D02*
X335159111Y-263688328D01*
X335159111Y-263688328D02*
X335087683Y-263831185D01*
X335087683Y-263831185D02*
X335016254Y-263902614D01*
X335016254Y-263902614D02*
X334873397Y-263974042D01*
X334873397Y-263974042D02*
X334301968Y-263974042D01*
X335730540Y-264616900D02*
X335944826Y-264688328D01*
X335944826Y-264688328D02*
X336301968Y-264688328D01*
X336301968Y-264688328D02*
X336444826Y-264616900D01*
X336444826Y-264616900D02*
X336516254Y-264545471D01*
X336516254Y-264545471D02*
X336587683Y-264402614D01*
X336587683Y-264402614D02*
X336587683Y-264259757D01*
X336587683Y-264259757D02*
X336516254Y-264116900D01*
X336516254Y-264116900D02*
X336444826Y-264045471D01*
X336444826Y-264045471D02*
X336301968Y-263974042D01*
X336301968Y-263974042D02*
X336016254Y-263902614D01*
X336016254Y-263902614D02*
X335873397Y-263831185D01*
X335873397Y-263831185D02*
X335801968Y-263759757D01*
X335801968Y-263759757D02*
X335730540Y-263616900D01*
X335730540Y-263616900D02*
X335730540Y-263474042D01*
X335730540Y-263474042D02*
X335801968Y-263331185D01*
X335801968Y-263331185D02*
X335873397Y-263259757D01*
X335873397Y-263259757D02*
X336016254Y-263188328D01*
X336016254Y-263188328D02*
X336373397Y-263188328D01*
X336373397Y-263188328D02*
X336587683Y-263259757D01*
X337230539Y-263188328D02*
X337230539Y-264402614D01*
X337230539Y-264402614D02*
X337301968Y-264545471D01*
X337301968Y-264545471D02*
X337373397Y-264616900D01*
X337373397Y-264616900D02*
X337516254Y-264688328D01*
X337516254Y-264688328D02*
X337801968Y-264688328D01*
X337801968Y-264688328D02*
X337944825Y-264616900D01*
X337944825Y-264616900D02*
X338016254Y-264545471D01*
X338016254Y-264545471D02*
X338087682Y-264402614D01*
X338087682Y-264402614D02*
X338087682Y-263188328D01*
D10*
D11*
X301444826Y-261688328D02*
X301444826Y-260188328D01*
X301444826Y-260188328D02*
X301944826Y-261259757D01*
X301944826Y-261259757D02*
X302444826Y-260188328D01*
X302444826Y-260188328D02*
X302444826Y-261688328D01*
X303801970Y-261688328D02*
X303801970Y-260902614D01*
X303801970Y-260902614D02*
X303730541Y-260759757D01*
X303730541Y-260759757D02*
X303587684Y-260688328D01*
X303587684Y-260688328D02*
X303301970Y-260688328D01*
X303301970Y-260688328D02*
X303159112Y-260759757D01*
X303801970Y-261616900D02*
X303659112Y-261688328D01*
X303659112Y-261688328D02*
X303301970Y-261688328D01*
X303301970Y-261688328D02*
X303159112Y-261616900D01*
X303159112Y-261616900D02*
X303087684Y-261474042D01*
X303087684Y-261474042D02*
X303087684Y-261331185D01*
X303087684Y-261331185D02*
X303159112Y-261188328D01*
X303159112Y-261188328D02*
X303301970Y-261116900D01*
X303301970Y-261116900D02*
X303659112Y-261116900D01*
X303659112Y-261116900D02*
X303801970Y-261045471D01*
X304516255Y-260688328D02*
X304516255Y-261688328D01*
X304516255Y-260831185D02*
X304587684Y-260759757D01*
X304587684Y-260759757D02*
X304730541Y-260688328D01*
X304730541Y-260688328D02*
X304944827Y-260688328D01*
X304944827Y-260688328D02*
X305087684Y-260759757D01*
X305087684Y-260759757D02*
X305159113Y-260902614D01*
X305159113Y-260902614D02*
X305159113Y-261688328D01*
X305659113Y-260688328D02*
X306230541Y-260688328D01*
X305873398Y-261688328D02*
X305873398Y-260402614D01*
X305873398Y-260402614D02*
X305944827Y-260259757D01*
X305944827Y-260259757D02*
X306087684Y-260188328D01*
X306087684Y-260188328D02*
X306230541Y-260188328D01*
X306730541Y-261688328D02*
X306730541Y-260688328D01*
X306730541Y-260974042D02*
X306801970Y-260831185D01*
X306801970Y-260831185D02*
X306873399Y-260759757D01*
X306873399Y-260759757D02*
X307016256Y-260688328D01*
X307016256Y-260688328D02*
X307159113Y-260688328D01*
X308230541Y-261616900D02*
X308087684Y-261688328D01*
X308087684Y-261688328D02*
X307801970Y-261688328D01*
X307801970Y-261688328D02*
X307659112Y-261616900D01*
X307659112Y-261616900D02*
X307587684Y-261474042D01*
X307587684Y-261474042D02*
X307587684Y-260902614D01*
X307587684Y-260902614D02*
X307659112Y-260759757D01*
X307659112Y-260759757D02*
X307801970Y-260688328D01*
X307801970Y-260688328D02*
X308087684Y-260688328D01*
X308087684Y-260688328D02*
X308230541Y-260759757D01*
X308230541Y-260759757D02*
X308301970Y-260902614D01*
X308301970Y-260902614D02*
X308301970Y-261045471D01*
X308301970Y-261045471D02*
X307587684Y-261188328D01*
X309587684Y-261688328D02*
X309587684Y-260188328D01*
X309587684Y-261616900D02*
X309444826Y-261688328D01*
X309444826Y-261688328D02*
X309159112Y-261688328D01*
X309159112Y-261688328D02*
X309016255Y-261616900D01*
X309016255Y-261616900D02*
X308944826Y-261545471D01*
X308944826Y-261545471D02*
X308873398Y-261402614D01*
X308873398Y-261402614D02*
X308873398Y-260974042D01*
X308873398Y-260974042D02*
X308944826Y-260831185D01*
X308944826Y-260831185D02*
X309016255Y-260759757D01*
X309016255Y-260759757D02*
X309159112Y-260688328D01*
X309159112Y-260688328D02*
X309444826Y-260688328D01*
X309444826Y-260688328D02*
X309587684Y-260759757D01*
X311373398Y-261616900D02*
X311587684Y-261688328D01*
X311587684Y-261688328D02*
X311944826Y-261688328D01*
X311944826Y-261688328D02*
X312087684Y-261616900D01*
X312087684Y-261616900D02*
X312159112Y-261545471D01*
X312159112Y-261545471D02*
X312230541Y-261402614D01*
X312230541Y-261402614D02*
X312230541Y-261259757D01*
X312230541Y-261259757D02*
X312159112Y-261116900D01*
X312159112Y-261116900D02*
X312087684Y-261045471D01*
X312087684Y-261045471D02*
X311944826Y-260974042D01*
X311944826Y-260974042D02*
X311659112Y-260902614D01*
X311659112Y-260902614D02*
X311516255Y-260831185D01*
X311516255Y-260831185D02*
X311444826Y-260759757D01*
X311444826Y-260759757D02*
X311373398Y-260616900D01*
X311373398Y-260616900D02*
X311373398Y-260474042D01*
X311373398Y-260474042D02*
X311444826Y-260331185D01*
X311444826Y-260331185D02*
X311516255Y-260259757D01*
X311516255Y-260259757D02*
X311659112Y-260188328D01*
X311659112Y-260188328D02*
X312016255Y-260188328D01*
X312016255Y-260188328D02*
X312230541Y-260259757D01*
X313516255Y-261616900D02*
X313373397Y-261688328D01*
X313373397Y-261688328D02*
X313087683Y-261688328D01*
X313087683Y-261688328D02*
X312944826Y-261616900D01*
X312944826Y-261616900D02*
X312873397Y-261545471D01*
X312873397Y-261545471D02*
X312801969Y-261402614D01*
X312801969Y-261402614D02*
X312801969Y-260974042D01*
X312801969Y-260974042D02*
X312873397Y-260831185D01*
X312873397Y-260831185D02*
X312944826Y-260759757D01*
X312944826Y-260759757D02*
X313087683Y-260688328D01*
X313087683Y-260688328D02*
X313373397Y-260688328D01*
X313373397Y-260688328D02*
X313516255Y-260759757D01*
X314159111Y-261688328D02*
X314159111Y-260188328D01*
X314801969Y-261688328D02*
X314801969Y-260902614D01*
X314801969Y-260902614D02*
X314730540Y-260759757D01*
X314730540Y-260759757D02*
X314587683Y-260688328D01*
X314587683Y-260688328D02*
X314373397Y-260688328D01*
X314373397Y-260688328D02*
X314230540Y-260759757D01*
X314230540Y-260759757D02*
X314159111Y-260831185D01*
X315516254Y-261688328D02*
X315516254Y-260688328D01*
X315516254Y-260831185D02*
X315587683Y-260759757D01*
X315587683Y-260759757D02*
X315730540Y-260688328D01*
X315730540Y-260688328D02*
X315944826Y-260688328D01*
X315944826Y-260688328D02*
X316087683Y-260759757D01*
X316087683Y-260759757D02*
X316159112Y-260902614D01*
X316159112Y-260902614D02*
X316159112Y-261688328D01*
X316159112Y-260902614D02*
X316230540Y-260759757D01*
X316230540Y-260759757D02*
X316373397Y-260688328D01*
X316373397Y-260688328D02*
X316587683Y-260688328D01*
X316587683Y-260688328D02*
X316730540Y-260759757D01*
X316730540Y-260759757D02*
X316801969Y-260902614D01*
X316801969Y-260902614D02*
X316801969Y-261688328D01*
X317516254Y-261688328D02*
X317516254Y-260688328D01*
X317516254Y-260188328D02*
X317444826Y-260259757D01*
X317444826Y-260259757D02*
X317516254Y-260331185D01*
X317516254Y-260331185D02*
X317587683Y-260259757D01*
X317587683Y-260259757D02*
X317516254Y-260188328D01*
X317516254Y-260188328D02*
X317516254Y-260331185D01*
X318016255Y-260688328D02*
X318587683Y-260688328D01*
X318230540Y-260188328D02*
X318230540Y-261474042D01*
X318230540Y-261474042D02*
X318301969Y-261616900D01*
X318301969Y-261616900D02*
X318444826Y-261688328D01*
X318444826Y-261688328D02*
X318587683Y-261688328D01*
X318944826Y-260688328D02*
X319730541Y-260688328D01*
X319730541Y-260688328D02*
X318944826Y-261688328D01*
X318944826Y-261688328D02*
X319730541Y-261688328D01*
D10*
D11*
X301230541Y-257188328D02*
X301730541Y-258688328D01*
X301730541Y-258688328D02*
X302230541Y-257188328D01*
X302944826Y-258688328D02*
X302801969Y-258616900D01*
X302801969Y-258616900D02*
X302730540Y-258545471D01*
X302730540Y-258545471D02*
X302659112Y-258402614D01*
X302659112Y-258402614D02*
X302659112Y-257974042D01*
X302659112Y-257974042D02*
X302730540Y-257831185D01*
X302730540Y-257831185D02*
X302801969Y-257759757D01*
X302801969Y-257759757D02*
X302944826Y-257688328D01*
X302944826Y-257688328D02*
X303159112Y-257688328D01*
X303159112Y-257688328D02*
X303301969Y-257759757D01*
X303301969Y-257759757D02*
X303373398Y-257831185D01*
X303373398Y-257831185D02*
X303444826Y-257974042D01*
X303444826Y-257974042D02*
X303444826Y-258402614D01*
X303444826Y-258402614D02*
X303373398Y-258545471D01*
X303373398Y-258545471D02*
X303301969Y-258616900D01*
X303301969Y-258616900D02*
X303159112Y-258688328D01*
X303159112Y-258688328D02*
X302944826Y-258688328D01*
X304301969Y-258688328D02*
X304159112Y-258616900D01*
X304159112Y-258616900D02*
X304087683Y-258474042D01*
X304087683Y-258474042D02*
X304087683Y-257188328D01*
X304873397Y-258688328D02*
X304873397Y-257188328D01*
X305016255Y-258116900D02*
X305444826Y-258688328D01*
X305444826Y-257688328D02*
X304873397Y-258259757D01*
X306659112Y-258616900D02*
X306516255Y-258688328D01*
X306516255Y-258688328D02*
X306230541Y-258688328D01*
X306230541Y-258688328D02*
X306087683Y-258616900D01*
X306087683Y-258616900D02*
X306016255Y-258474042D01*
X306016255Y-258474042D02*
X306016255Y-257902614D01*
X306016255Y-257902614D02*
X306087683Y-257759757D01*
X306087683Y-257759757D02*
X306230541Y-257688328D01*
X306230541Y-257688328D02*
X306516255Y-257688328D01*
X306516255Y-257688328D02*
X306659112Y-257759757D01*
X306659112Y-257759757D02*
X306730541Y-257902614D01*
X306730541Y-257902614D02*
X306730541Y-258045471D01*
X306730541Y-258045471D02*
X306016255Y-258188328D01*
X307373397Y-258688328D02*
X307373397Y-257688328D01*
X307373397Y-257974042D02*
X307444826Y-257831185D01*
X307444826Y-257831185D02*
X307516255Y-257759757D01*
X307516255Y-257759757D02*
X307659112Y-257688328D01*
X307659112Y-257688328D02*
X307801969Y-257688328D01*
X310159111Y-258688328D02*
X309444825Y-258688328D01*
X309444825Y-258688328D02*
X309444825Y-257188328D01*
X311301969Y-257688328D02*
X311301969Y-258688328D01*
X310659111Y-257688328D02*
X310659111Y-258474042D01*
X310659111Y-258474042D02*
X310730540Y-258616900D01*
X310730540Y-258616900D02*
X310873397Y-258688328D01*
X310873397Y-258688328D02*
X311087683Y-258688328D01*
X311087683Y-258688328D02*
X311230540Y-258616900D01*
X311230540Y-258616900D02*
X311301969Y-258545471D01*
X311873397Y-257688328D02*
X312230540Y-258688328D01*
X312587683Y-257688328D02*
X312230540Y-258688328D01*
X312230540Y-258688328D02*
X312087683Y-259045471D01*
X312087683Y-259045471D02*
X312016254Y-259116900D01*
X312016254Y-259116900D02*
X311873397Y-259188328D01*
X313087683Y-258616900D02*
X313230540Y-258688328D01*
X313230540Y-258688328D02*
X313516254Y-258688328D01*
X313516254Y-258688328D02*
X313659111Y-258616900D01*
X313659111Y-258616900D02*
X313730540Y-258474042D01*
X313730540Y-258474042D02*
X313730540Y-258402614D01*
X313730540Y-258402614D02*
X313659111Y-258259757D01*
X313659111Y-258259757D02*
X313516254Y-258188328D01*
X313516254Y-258188328D02*
X313301969Y-258188328D01*
X313301969Y-258188328D02*
X313159111Y-258116900D01*
X313159111Y-258116900D02*
X313087683Y-257974042D01*
X313087683Y-257974042D02*
X313087683Y-257902614D01*
X313087683Y-257902614D02*
X313159111Y-257759757D01*
X313159111Y-257759757D02*
X313301969Y-257688328D01*
X313301969Y-257688328D02*
X313516254Y-257688328D01*
X313516254Y-257688328D02*
X313659111Y-257759757D01*
X314159112Y-257688328D02*
X314730540Y-257688328D01*
X314373397Y-257188328D02*
X314373397Y-258474042D01*
X314373397Y-258474042D02*
X314444826Y-258616900D01*
X314444826Y-258616900D02*
X314587683Y-258688328D01*
X314587683Y-258688328D02*
X314730540Y-258688328D01*
X315801969Y-258616900D02*
X315659112Y-258688328D01*
X315659112Y-258688328D02*
X315373398Y-258688328D01*
X315373398Y-258688328D02*
X315230540Y-258616900D01*
X315230540Y-258616900D02*
X315159112Y-258474042D01*
X315159112Y-258474042D02*
X315159112Y-257902614D01*
X315159112Y-257902614D02*
X315230540Y-257759757D01*
X315230540Y-257759757D02*
X315373398Y-257688328D01*
X315373398Y-257688328D02*
X315659112Y-257688328D01*
X315659112Y-257688328D02*
X315801969Y-257759757D01*
X315801969Y-257759757D02*
X315873398Y-257902614D01*
X315873398Y-257902614D02*
X315873398Y-258045471D01*
X315873398Y-258045471D02*
X315159112Y-258188328D01*
X316516254Y-258688328D02*
X316516254Y-257688328D01*
X316516254Y-257974042D02*
X316587683Y-257831185D01*
X316587683Y-257831185D02*
X316659112Y-257759757D01*
X316659112Y-257759757D02*
X316801969Y-257688328D01*
X316801969Y-257688328D02*
X316944826Y-257688328D01*
X317444825Y-258688328D02*
X317444825Y-257188328D01*
X317444825Y-257759757D02*
X317587683Y-257688328D01*
X317587683Y-257688328D02*
X317873397Y-257688328D01*
X317873397Y-257688328D02*
X318016254Y-257759757D01*
X318016254Y-257759757D02*
X318087683Y-257831185D01*
X318087683Y-257831185D02*
X318159111Y-257974042D01*
X318159111Y-257974042D02*
X318159111Y-258402614D01*
X318159111Y-258402614D02*
X318087683Y-258545471D01*
X318087683Y-258545471D02*
X318016254Y-258616900D01*
X318016254Y-258616900D02*
X317873397Y-258688328D01*
X317873397Y-258688328D02*
X317587683Y-258688328D01*
X317587683Y-258688328D02*
X317444825Y-258616900D01*
X319444826Y-257688328D02*
X319444826Y-258688328D01*
X318801968Y-257688328D02*
X318801968Y-258474042D01*
X318801968Y-258474042D02*
X318873397Y-258616900D01*
X318873397Y-258616900D02*
X319016254Y-258688328D01*
X319016254Y-258688328D02*
X319230540Y-258688328D01*
X319230540Y-258688328D02*
X319373397Y-258616900D01*
X319373397Y-258616900D02*
X319444826Y-258545471D01*
X320159111Y-258688328D02*
X320159111Y-257688328D01*
X320159111Y-257974042D02*
X320230540Y-257831185D01*
X320230540Y-257831185D02*
X320301969Y-257759757D01*
X320301969Y-257759757D02*
X320444826Y-257688328D01*
X320444826Y-257688328D02*
X320587683Y-257688328D01*
X321730540Y-257688328D02*
X321730540Y-258902614D01*
X321730540Y-258902614D02*
X321659111Y-259045471D01*
X321659111Y-259045471D02*
X321587682Y-259116900D01*
X321587682Y-259116900D02*
X321444825Y-259188328D01*
X321444825Y-259188328D02*
X321230540Y-259188328D01*
X321230540Y-259188328D02*
X321087682Y-259116900D01*
X321730540Y-258616900D02*
X321587682Y-258688328D01*
X321587682Y-258688328D02*
X321301968Y-258688328D01*
X321301968Y-258688328D02*
X321159111Y-258616900D01*
X321159111Y-258616900D02*
X321087682Y-258545471D01*
X321087682Y-258545471D02*
X321016254Y-258402614D01*
X321016254Y-258402614D02*
X321016254Y-257974042D01*
X321016254Y-257974042D02*
X321087682Y-257831185D01*
X321087682Y-257831185D02*
X321159111Y-257759757D01*
X321159111Y-257759757D02*
X321301968Y-257688328D01*
X321301968Y-257688328D02*
X321587682Y-257688328D01*
X321587682Y-257688328D02*
X321730540Y-257759757D01*
D10*
D11*
X301373398Y-254331185D02*
X301444826Y-254259757D01*
X301444826Y-254259757D02*
X301587684Y-254188328D01*
X301587684Y-254188328D02*
X301944826Y-254188328D01*
X301944826Y-254188328D02*
X302087684Y-254259757D01*
X302087684Y-254259757D02*
X302159112Y-254331185D01*
X302159112Y-254331185D02*
X302230541Y-254474042D01*
X302230541Y-254474042D02*
X302230541Y-254616900D01*
X302230541Y-254616900D02*
X302159112Y-254831185D01*
X302159112Y-254831185D02*
X301301969Y-255688328D01*
X301301969Y-255688328D02*
X302230541Y-255688328D01*
X303159112Y-254188328D02*
X303301969Y-254188328D01*
X303301969Y-254188328D02*
X303444826Y-254259757D01*
X303444826Y-254259757D02*
X303516255Y-254331185D01*
X303516255Y-254331185D02*
X303587683Y-254474042D01*
X303587683Y-254474042D02*
X303659112Y-254759757D01*
X303659112Y-254759757D02*
X303659112Y-255116900D01*
X303659112Y-255116900D02*
X303587683Y-255402614D01*
X303587683Y-255402614D02*
X303516255Y-255545471D01*
X303516255Y-255545471D02*
X303444826Y-255616900D01*
X303444826Y-255616900D02*
X303301969Y-255688328D01*
X303301969Y-255688328D02*
X303159112Y-255688328D01*
X303159112Y-255688328D02*
X303016255Y-255616900D01*
X303016255Y-255616900D02*
X302944826Y-255545471D01*
X302944826Y-255545471D02*
X302873397Y-255402614D01*
X302873397Y-255402614D02*
X302801969Y-255116900D01*
X302801969Y-255116900D02*
X302801969Y-254759757D01*
X302801969Y-254759757D02*
X302873397Y-254474042D01*
X302873397Y-254474042D02*
X302944826Y-254331185D01*
X302944826Y-254331185D02*
X303016255Y-254259757D01*
X303016255Y-254259757D02*
X303159112Y-254188328D01*
X304230540Y-254331185D02*
X304301968Y-254259757D01*
X304301968Y-254259757D02*
X304444826Y-254188328D01*
X304444826Y-254188328D02*
X304801968Y-254188328D01*
X304801968Y-254188328D02*
X304944826Y-254259757D01*
X304944826Y-254259757D02*
X305016254Y-254331185D01*
X305016254Y-254331185D02*
X305087683Y-254474042D01*
X305087683Y-254474042D02*
X305087683Y-254616900D01*
X305087683Y-254616900D02*
X305016254Y-254831185D01*
X305016254Y-254831185D02*
X304159111Y-255688328D01*
X304159111Y-255688328D02*
X305087683Y-255688328D01*
X306373397Y-254688328D02*
X306373397Y-255688328D01*
X306016254Y-254116900D02*
X305659111Y-255188328D01*
X305659111Y-255188328D02*
X306587682Y-255188328D01*
X307159110Y-255116900D02*
X308301968Y-255116900D01*
X309301968Y-254188328D02*
X309444825Y-254188328D01*
X309444825Y-254188328D02*
X309587682Y-254259757D01*
X309587682Y-254259757D02*
X309659111Y-254331185D01*
X309659111Y-254331185D02*
X309730539Y-254474042D01*
X309730539Y-254474042D02*
X309801968Y-254759757D01*
X309801968Y-254759757D02*
X309801968Y-255116900D01*
X309801968Y-255116900D02*
X309730539Y-255402614D01*
X309730539Y-255402614D02*
X309659111Y-255545471D01*
X309659111Y-255545471D02*
X309587682Y-255616900D01*
X309587682Y-255616900D02*
X309444825Y-255688328D01*
X309444825Y-255688328D02*
X309301968Y-255688328D01*
X309301968Y-255688328D02*
X309159111Y-255616900D01*
X309159111Y-255616900D02*
X309087682Y-255545471D01*
X309087682Y-255545471D02*
X309016253Y-255402614D01*
X309016253Y-255402614D02*
X308944825Y-255116900D01*
X308944825Y-255116900D02*
X308944825Y-254759757D01*
X308944825Y-254759757D02*
X309016253Y-254474042D01*
X309016253Y-254474042D02*
X309087682Y-254331185D01*
X309087682Y-254331185D02*
X309159111Y-254259757D01*
X309159111Y-254259757D02*
X309301968Y-254188328D01*
X310301967Y-254188328D02*
X311301967Y-254188328D01*
X311301967Y-254188328D02*
X310659110Y-255688328D01*
X311873395Y-255116900D02*
X313016253Y-255116900D01*
X314516253Y-255688328D02*
X313659110Y-255688328D01*
X314087681Y-255688328D02*
X314087681Y-254188328D01*
X314087681Y-254188328D02*
X313944824Y-254402614D01*
X313944824Y-254402614D02*
X313801967Y-254545471D01*
X313801967Y-254545471D02*
X313659110Y-254616900D01*
X315873395Y-254188328D02*
X315159109Y-254188328D01*
X315159109Y-254188328D02*
X315087681Y-254902614D01*
X315087681Y-254902614D02*
X315159109Y-254831185D01*
X315159109Y-254831185D02*
X315301967Y-254759757D01*
X315301967Y-254759757D02*
X315659109Y-254759757D01*
X315659109Y-254759757D02*
X315801967Y-254831185D01*
X315801967Y-254831185D02*
X315873395Y-254902614D01*
X315873395Y-254902614D02*
X315944824Y-255045471D01*
X315944824Y-255045471D02*
X315944824Y-255402614D01*
X315944824Y-255402614D02*
X315873395Y-255545471D01*
X315873395Y-255545471D02*
X315801967Y-255616900D01*
X315801967Y-255616900D02*
X315659109Y-255688328D01*
X315659109Y-255688328D02*
X315301967Y-255688328D01*
X315301967Y-255688328D02*
X315159109Y-255616900D01*
X315159109Y-255616900D02*
X315087681Y-255545471D01*
D10*
D11*
X319989000Y-278502200D02*
X319989000Y-281502200D01*
D10*
D11*
X383989000Y-278502200D02*
X383989000Y-285002200D01*
D14*
X308205863Y-269271861D02*
X307789197Y-269271861D01*
X307789197Y-269926623D02*
X307789197Y-268676623D01*
X307789197Y-268676623D02*
X308384435Y-268676623D01*
X308860626Y-269807576D02*
X308920149Y-269867100D01*
X308920149Y-269867100D02*
X308860626Y-269926623D01*
X308860626Y-269926623D02*
X308801102Y-269867100D01*
X308801102Y-269867100D02*
X308860626Y-269807576D01*
X308860626Y-269807576D02*
X308860626Y-269926623D01*
X309396340Y-269867100D02*
X309574911Y-269926623D01*
X309574911Y-269926623D02*
X309872530Y-269926623D01*
X309872530Y-269926623D02*
X309991578Y-269867100D01*
X309991578Y-269867100D02*
X310051102Y-269807576D01*
X310051102Y-269807576D02*
X310110625Y-269688528D01*
X310110625Y-269688528D02*
X310110625Y-269569480D01*
X310110625Y-269569480D02*
X310051102Y-269450433D01*
X310051102Y-269450433D02*
X309991578Y-269390909D01*
X309991578Y-269390909D02*
X309872530Y-269331385D01*
X309872530Y-269331385D02*
X309634435Y-269271861D01*
X309634435Y-269271861D02*
X309515387Y-269212338D01*
X309515387Y-269212338D02*
X309455864Y-269152814D01*
X309455864Y-269152814D02*
X309396340Y-269033766D01*
X309396340Y-269033766D02*
X309396340Y-268914719D01*
X309396340Y-268914719D02*
X309455864Y-268795671D01*
X309455864Y-268795671D02*
X309515387Y-268736147D01*
X309515387Y-268736147D02*
X309634435Y-268676623D01*
X309634435Y-268676623D02*
X309932054Y-268676623D01*
X309932054Y-268676623D02*
X310110625Y-268736147D01*
X310646340Y-269926623D02*
X310646340Y-269093290D01*
X310646340Y-268676623D02*
X310586816Y-268736147D01*
X310586816Y-268736147D02*
X310646340Y-268795671D01*
X310646340Y-268795671D02*
X310705863Y-268736147D01*
X310705863Y-268736147D02*
X310646340Y-268676623D01*
X310646340Y-268676623D02*
X310646340Y-268795671D01*
X311420149Y-269926623D02*
X311301101Y-269867100D01*
X311301101Y-269867100D02*
X311241578Y-269748052D01*
X311241578Y-269748052D02*
X311241578Y-268676623D01*
X311896340Y-269926623D02*
X311896340Y-268676623D01*
X312015387Y-269450433D02*
X312372530Y-269926623D01*
X312372530Y-269093290D02*
X311896340Y-269569480D01*
X312848721Y-269867100D02*
X312967768Y-269926623D01*
X312967768Y-269926623D02*
X313205864Y-269926623D01*
X313205864Y-269926623D02*
X313324911Y-269867100D01*
X313324911Y-269867100D02*
X313384435Y-269748052D01*
X313384435Y-269748052D02*
X313384435Y-269688528D01*
X313384435Y-269688528D02*
X313324911Y-269569480D01*
X313324911Y-269569480D02*
X313205864Y-269509957D01*
X313205864Y-269509957D02*
X313027292Y-269509957D01*
X313027292Y-269509957D02*
X312908245Y-269450433D01*
X312908245Y-269450433D02*
X312848721Y-269331385D01*
X312848721Y-269331385D02*
X312848721Y-269271861D01*
X312848721Y-269271861D02*
X312908245Y-269152814D01*
X312908245Y-269152814D02*
X313027292Y-269093290D01*
X313027292Y-269093290D02*
X313205864Y-269093290D01*
X313205864Y-269093290D02*
X313324911Y-269152814D01*
X314455864Y-269867100D02*
X314336816Y-269926623D01*
X314336816Y-269926623D02*
X314098721Y-269926623D01*
X314098721Y-269926623D02*
X313979673Y-269867100D01*
X313979673Y-269867100D02*
X313920150Y-269807576D01*
X313920150Y-269807576D02*
X313860626Y-269688528D01*
X313860626Y-269688528D02*
X313860626Y-269331385D01*
X313860626Y-269331385D02*
X313920150Y-269212338D01*
X313920150Y-269212338D02*
X313979673Y-269152814D01*
X313979673Y-269152814D02*
X314098721Y-269093290D01*
X314098721Y-269093290D02*
X314336816Y-269093290D01*
X314336816Y-269093290D02*
X314455864Y-269152814D01*
X314991579Y-269926623D02*
X314991579Y-269093290D01*
X314991579Y-269331385D02*
X315051102Y-269212338D01*
X315051102Y-269212338D02*
X315110626Y-269152814D01*
X315110626Y-269152814D02*
X315229674Y-269093290D01*
X315229674Y-269093290D02*
X315348721Y-269093290D01*
X316241579Y-269867100D02*
X316122531Y-269926623D01*
X316122531Y-269926623D02*
X315884436Y-269926623D01*
X315884436Y-269926623D02*
X315765389Y-269867100D01*
X315765389Y-269867100D02*
X315705865Y-269748052D01*
X315705865Y-269748052D02*
X315705865Y-269271861D01*
X315705865Y-269271861D02*
X315765389Y-269152814D01*
X315765389Y-269152814D02*
X315884436Y-269093290D01*
X315884436Y-269093290D02*
X316122531Y-269093290D01*
X316122531Y-269093290D02*
X316241579Y-269152814D01*
X316241579Y-269152814D02*
X316301103Y-269271861D01*
X316301103Y-269271861D02*
X316301103Y-269390909D01*
X316301103Y-269390909D02*
X315705865Y-269509957D01*
X317313008Y-269867100D02*
X317193960Y-269926623D01*
X317193960Y-269926623D02*
X316955865Y-269926623D01*
X316955865Y-269926623D02*
X316836818Y-269867100D01*
X316836818Y-269867100D02*
X316777294Y-269748052D01*
X316777294Y-269748052D02*
X316777294Y-269271861D01*
X316777294Y-269271861D02*
X316836818Y-269152814D01*
X316836818Y-269152814D02*
X316955865Y-269093290D01*
X316955865Y-269093290D02*
X317193960Y-269093290D01*
X317193960Y-269093290D02*
X317313008Y-269152814D01*
X317313008Y-269152814D02*
X317372532Y-269271861D01*
X317372532Y-269271861D02*
X317372532Y-269390909D01*
X317372532Y-269390909D02*
X316777294Y-269509957D01*
X317908247Y-269093290D02*
X317908247Y-269926623D01*
X317908247Y-269212338D02*
X317967770Y-269152814D01*
X317967770Y-269152814D02*
X318086818Y-269093290D01*
X318086818Y-269093290D02*
X318265389Y-269093290D01*
X318265389Y-269093290D02*
X318384437Y-269152814D01*
X318384437Y-269152814D02*
X318443961Y-269271861D01*
X318443961Y-269271861D02*
X318443961Y-269926623D01*
D10*
%TO.C,T1*%
X176700000Y-124245000D02*
X176700000Y-124245000D01*
X176800000Y-124245000D02*
X176800000Y-124245000D01*
X176700000Y-124245000D02*
G75*
G02*
X176800000Y-124245000I50000J0D01*
G01*
X176800000Y-124245000D02*
G75*
G02*
X176700000Y-124245000I-50000J0D01*
G01*
%TO.C,T2*%
X176700000Y-159245000D02*
X176700000Y-159245000D01*
X176800000Y-159245000D02*
X176800000Y-159245000D01*
X176700000Y-159245000D02*
G75*
G02*
X176800000Y-159245000I50000J0D01*
G01*
X176800000Y-159245000D02*
G75*
G02*
X176700000Y-159245000I-50000J0D01*
G01*
%TD*%
M02*
