M48
; DRILL file {KiCad 8.0.4} date 2024-09-04T12:40:47+0200
; FORMAT={-:-/ absolute / inch / decimal}
; #@! TF.CreationDate,2024-09-04T12:40:47+02:00
; #@! TF.GenerationSoftware,Kicad,Pcbnew,8.0.4
; #@! TF.FileFunction,Plated,1,4,PTH
FMAT,2
INCH
; #@! TA.AperFunction,Plated,PTH,ViaDrill
T1C0.0118
; #@! TA.AperFunction,Plated,PTH,ComponentDrill
T2C0.0118
; #@! TA.AperFunction,Plated,PTH,ComponentDrill
T3C0.0197
; #@! TA.AperFunction,Plated,PTH,ComponentDrill
T4C0.0217
; #@! TA.AperFunction,Plated,PTH,ComponentDrill
T5C0.0264
; #@! TA.AperFunction,Plated,PTH,ComponentDrill
T6C0.0551
; #@! TA.AperFunction,Plated,PTH,ComponentDrill
T7C0.1024
; #@! TA.AperFunction,Plated,PTH,ComponentDrill
T8C0.1063
%
G90
G05
T1
X3.9561Y-7.4016
X3.9685Y-4.5551
X3.9862Y-7.4016
X4.0059Y-7.2539
X4.0354Y-4.5079
X4.0945Y-7.4213
X4.1043Y-7.2539
X4.1339Y-4.5
X4.1437Y-7.4213
X4.1634Y-7.2539
X4.2359Y-7.4135
X4.2362Y-4.4961
X4.311Y-7.2539
X4.3346Y-4.4961
X4.3898Y-4.8425
X4.3996Y-7.2835
X4.3996Y-7.3327
X4.439Y-7.2933
X4.439Y-7.3425
X4.446Y-7.3825
X4.4685Y-7.2638
X4.498Y-4.5669
X4.5276Y-7.2047
X4.5472Y-4.9803
X4.5472Y-5.0098
X4.5472Y-5.0394
X4.5472Y-5.1772
X4.5472Y-5.2067
X4.5472Y-5.2362
X4.5472Y-6.1811
X4.5472Y-6.2106
X4.5472Y-6.2402
X4.5472Y-6.5748
X4.5472Y-6.6043
X4.5472Y-6.6339
X4.5472Y-6.7717
X4.5472Y-6.8012
X4.5472Y-6.8307
X4.5496Y-5.5709
X4.5496Y-5.6004
X4.5496Y-5.6299
X4.6063Y-4.8819
X4.6063Y-7.2047
X4.6275Y-6.5202
X4.6275Y-6.5497
X4.6275Y-6.6481
X4.6275Y-6.6777
X4.6294Y-5.1343
X4.6294Y-5.1638
X4.6294Y-5.2622
X4.6294Y-5.2917
X4.6358Y-4.2756
X4.657Y-6.5202
X4.657Y-6.5497
X4.657Y-6.6481
X4.657Y-6.6777
X4.659Y-5.1343
X4.659Y-5.1638
X4.659Y-5.2622
X4.659Y-5.2917
X4.6654Y-7.2638
X4.6752Y-4.5669
X4.6865Y-6.5202
X4.6865Y-6.5497
X4.6865Y-6.6481
X4.6865Y-6.6777
X4.6885Y-5.1343
X4.6885Y-5.1638
X4.6885Y-5.2622
X4.6885Y-5.2917
X4.6949Y-7.7354
X4.7032Y-7.3067
X4.7047Y-7.2638
X4.7141Y-6.7126
X4.716Y-5.2549
X4.7204Y-5.1723
X4.7441Y-7.2638
X4.7475Y-5.1343
X4.7475Y-5.1638
X4.7475Y-5.2622
X4.7475Y-5.2917
X4.751Y-4.2762
X4.7771Y-5.1343
X4.7771Y-5.1638
X4.7771Y-5.2622
X4.7771Y-5.2917
X4.7888Y-7.2858
X4.8042Y-5.1343
X4.8042Y-5.1638
X4.8042Y-5.2622
X4.8042Y-5.2917
X4.813Y-7.2343
X4.8224Y-7.3109
X4.8228Y-7.2638
X4.8327Y-4.0551
X4.8439Y-7.2278
X4.8504Y-6.7795
X4.8504Y-6.8031
X4.856Y-7.3331
X4.872Y-4.5079
X4.874Y-4.119
X4.874Y-6.7795
X4.874Y-6.8031
X4.896Y-4.0923
X4.8969Y-7.3921
X4.8976Y-6.7795
X4.8976Y-6.8031
X4.9256Y-4.1311
X4.9544Y-4.0795
X4.9685Y-6.8055
X4.9705Y-4.9016
X4.9705Y-5.0098
X4.9705Y-6.8996
X5.0098Y-4.3209
X5.0197Y-4.685
X5.0197Y-7.4213
X5.0291Y-7.2441
X5.0294Y-7.1226
X5.0295Y-7.372
X5.0295Y-4.0846
X5.0295Y-4.5177
X5.0319Y-4.5866
X5.0319Y-4.6355
X5.0791Y-7.2146
X5.0886Y-7.313
X5.0886Y-7.4996
X5.0984Y-7.2441
X5.0984Y-7.2835
X5.128Y-4.2618
X5.1378Y-4.4783
X5.1476Y-4.626
X5.1476Y-7.3327
X5.1673Y-4.2618
X5.185Y-7.5787
X5.1892Y-5.3762
X5.1892Y-5.4018
X5.1892Y-5.4274
X5.1892Y-5.453
X5.1892Y-5.4785
X5.1895Y-6.2833
X5.1895Y-6.3089
X5.1895Y-6.3344
X5.1895Y-6.36
X5.1895Y-6.3856
X5.2031Y-7.2449
X5.2067Y-4.5669
X5.2067Y-4.6063
X5.2067Y-7.2835
X5.2187Y-5.3762
X5.2187Y-5.4018
X5.2187Y-5.4274
X5.2187Y-5.453
X5.2187Y-5.4785
X5.219Y-6.2833
X5.219Y-6.3089
X5.219Y-6.3344
X5.219Y-6.36
X5.219Y-6.3856
X5.2657Y-7.372
X5.2756Y-4.3012
X5.3445Y-4.5669
X5.3445Y-7.2441
X5.3445Y-7.2835
X5.3469Y-4.6008
X5.3839Y-7.4803
X5.3937Y-4.3951
X5.3937Y-4.4488
X5.3937Y-7.5492
X5.4488Y-7.2827
X5.4506Y-4.6073
X5.4528Y-4.5669
X5.4528Y-7.2441
X5.4921Y-7.3031
X5.528Y-3.989
X5.5315Y-7.8248
X5.561Y-7.4606
X5.5906Y-4.5669
X5.5906Y-7.2835
X5.5945Y-4.6008
X5.6201Y-7.2146
X5.6374Y-4.4272
X5.6693Y-4.5079
X5.6988Y-4.5669
X5.6988Y-4.6063
X5.6988Y-7.2441
X5.6988Y-7.2835
X5.6988Y-7.3327
X5.7426Y-4.4215
X5.8366Y-4.5669
X5.8366Y-4.5965
X5.8366Y-7.2736
X5.8661Y-7.2146
X5.9154Y-7.313
X5.9428Y-4.6073
X5.9449Y-4.5669
X5.9449Y-7.2441
X6.0531Y-4.5177
X6.0827Y-4.5669
X6.0827Y-4.6161
X6.0827Y-7.2146
X6.0925Y-7.2736
X6.122Y-7.2146
X6.1407Y-7.3072
X6.1417Y-4.626
X6.1516Y-4.5669
X6.1591Y-7.376
X6.1597Y-4.4224
X6.1646Y-7.2878
X6.2028Y-7.476
X6.2303Y-4.5472
X6.2402Y-4.6555
X6.2598Y-4.8031
X6.2598Y-5.0197
X6.2598Y-6.7913
X6.2598Y-7.0079
X6.2894Y-4.7933
X6.2894Y-5.0295
X6.2894Y-6.0236
X6.2894Y-6.7815
X6.2894Y-7.0177
X6.2992Y-4.6063
X6.2992Y-7.3327
X6.2992Y-7.372
X6.3047Y-4.5729
X6.3189Y-4.7933
X6.3189Y-5.0295
X6.3189Y-6.7815
X6.3189Y-7.0177
X6.3287Y-6.0236
X6.3484Y-4.4193
X6.3484Y-4.7933
X6.3484Y-5.0295
X6.3484Y-6.7815
X6.3484Y-7.0177
X6.3681Y-6.0236
X6.372Y-7.2106
X6.378Y-4.8031
X6.378Y-5.0197
X6.378Y-6.7913
X6.378Y-7.0079
X6.378Y-7.4016
X6.3976Y-4.5276
X6.3976Y-4.8228
X6.3976Y-4.8524
X6.3976Y-4.8819
X6.3976Y-4.9114
X6.3976Y-4.9409
X6.3976Y-4.9705
X6.3976Y-5.0
X6.3976Y-6.811
X6.3976Y-6.8406
X6.3976Y-6.8701
X6.3976Y-6.8996
X6.3976Y-6.9291
X6.3976Y-6.9587
X6.3976Y-6.9882
X6.402Y-7.2671
X6.4039Y-7.2321
X6.4054Y-4.6073
X6.4075Y-4.5669
X6.4075Y-6.0236
X6.4272Y-4.4134
X6.4272Y-7.4016
X6.4469Y-6.0236
X6.4862Y-6.0236
X6.4862Y-7.3512
X6.4961Y-4.5118
X6.5256Y-6.0236
X6.5453Y-4.4094
X6.5453Y-4.5669
X6.5453Y-7.2835
X6.5453Y-7.4016
X6.5496Y-4.6079
X6.565Y-6.0236
X6.5748Y-7.2146
X6.5846Y-4.5374
X6.6043Y-4.4685
X6.6043Y-4.498
X6.6043Y-6.0236
X6.6043Y-7.2539
X6.6043Y-7.2835
X6.6043Y-7.313
X6.6043Y-7.372
X6.624Y-4.2618
X6.6339Y-4.5866
X6.6344Y-7.5942
X6.6437Y-6.0236
X6.6437Y-7.372
X6.6634Y-4.2618
X6.6732Y-4.3701
X6.6732Y-4.5866
X6.6831Y-6.0236
X6.6929Y-4.2717
X6.6953Y-7.4924
X6.7028Y-4.439
X6.7126Y-4.3799
X6.7224Y-6.0236
X6.7267Y-7.4898
X6.7473Y-7.5098
X6.7477Y-4.3195
X6.7618Y-4.5079
X6.7618Y-4.5866
X6.7618Y-6.0236
X6.7618Y-7.5787
X6.7668Y-7.1165
X6.7717Y-4.252
X6.7717Y-4.3799
X6.7737Y-4.2947
X6.7774Y-4.348
X6.7797Y-4.4566
X6.7798Y-4.6952
X6.7815Y-4.9705
X6.7837Y-4.6093
X6.8012Y-6.0236
X6.8012Y-7.372
X6.8077Y-7.3075
X6.811Y-7.4902
X6.8198Y-4.6152
X6.8335Y-4.0524
X6.8406Y-6.0236
X6.8406Y-7.7559
X6.8496Y-7.4409
X6.8602Y-7.313
X6.8602Y-7.3819
X6.865Y-7.1557
X6.868Y-7.2254
X6.8701Y-4.2421
X6.8701Y-7.5197
X6.8799Y-6.0236
X6.8799Y-7.7559
X6.8898Y-4.3799
X6.9193Y-6.0236
X6.9291Y-7.372
X6.9429Y-7.4209
X6.9439Y-4.4685
X6.9489Y-4.6256
X6.9587Y-6.0236
X6.9587Y-7.2835
X6.9617Y-6.6869
X6.9685Y-4.2323
X6.9783Y-5.0
X6.9783Y-5.0394
X6.9783Y-5.4035
X6.9783Y-5.4429
X6.9783Y-6.378
X6.9783Y-6.4173
X6.9783Y-6.7815
X6.9783Y-6.8209
X6.9873Y-4.4681
X6.9882Y-4.2913
X6.998Y-4.9705
X6.998Y-5.374
X6.998Y-6.0236
X6.998Y-6.3484
X6.998Y-6.752
X7.0079Y-4.5768
X7.0079Y-4.6161
X7.0079Y-5.0689
X7.0079Y-5.4724
X7.0079Y-6.4469
X7.0079Y-6.8504
X7.0079Y-7.185
X7.0079Y-7.2244
X7.0177Y-7.5197
X7.0276Y-4.3701
X7.0374Y-6.0236
X7.0374Y-7.4114
X7.0472Y-4.0551
X7.056Y-4.6807
X7.0571Y-4.9705
X7.0571Y-5.0689
X7.0571Y-5.4724
X7.0571Y-6.3484
X7.0571Y-6.4469
X7.0571Y-6.8504
X7.0579Y-4.4638
X7.0604Y-4.6315
X7.0612Y-7.3907
X7.063Y-5.374
X7.063Y-6.752
X7.0669Y-7.2835
X7.0669Y-7.4583
X7.0691Y-4.355
X7.0768Y-6.0236
X7.0768Y-7.1654
X7.0768Y-7.6575
X7.0866Y-5.0
X7.0866Y-5.0394
X7.0866Y-5.4035
X7.0866Y-5.4429
X7.0866Y-6.378
X7.0866Y-6.4173
X7.0866Y-6.7815
X7.0866Y-6.8209
X7.089Y-4.4079
X7.0965Y-7.4236
X7.098Y-4.6819
X7.1059Y-4.5654
X7.1063Y-7.185
X7.1075Y-4.652
X7.1157Y-7.1419
X7.1161Y-6.0236
X7.118Y-7.6618
X7.122Y-5.7874
X7.1281Y-7.2796
X7.1299Y-4.5807
X7.1358Y-5.8169
X7.1358Y-5.8661
X7.1358Y-7.0965
X7.1374Y-4.4067
X7.1374Y-4.6945
X7.1417Y-7.2165
X7.1457Y-7.1555
X7.1555Y-7.4016
X7.1654Y-5.7972
X7.1654Y-5.8465
X7.1654Y-5.8957
X7.1744Y-4.5768
X7.1744Y-7.1555
X7.185Y-7.2736
X7.1949Y-4.1732
X7.1949Y-4.6949
X7.1949Y-4.7441
X7.2047Y-7.5591
X7.2244Y-5.9449
X7.2421Y-7.2382
X7.2496Y-4.2406
X7.2526Y-7.6526
X7.2622Y-4.1516
X7.2791Y-7.6055
X7.2909Y-4.1579
X7.313Y-7.0965
X7.3172Y-4.695
X7.3189Y-7.2382
X7.3235Y-7.6428
X7.3327Y-4.5669
X7.3425Y-4.1634
X7.3425Y-7.0965
X7.3642Y-7.2933
X7.3703Y-4.5648
X7.372Y-4.6161
X7.372Y-7.1949
X7.3917Y-4.1634
X7.4024Y-7.0965
X7.4213Y-4.6457
X7.4281Y-6.1319
X7.4311Y-7.0965
X7.4409Y-4.1634
X7.4508Y-4.6457
X7.4606Y-4.6949
X7.4621Y-4.5861
X7.4642Y-4.6161
X7.4705Y-4.065
X7.4705Y-7.1043
X7.4705Y-7.7165
X7.4744Y-7.3445
X7.4856Y-7.7514
X7.5098Y-4.5276
X7.5394Y-6.1024
X7.5689Y-4.0551
X7.5984Y-7.7559
X7.6378Y-4.0551
X7.6669Y-4.5992
X7.6748Y-4.5374
X7.687Y-7.3031
X7.687Y-7.7559
X7.7067Y-6.5354
X7.7362Y-4.5177
X7.7461Y-7.3031
X7.7508Y-7.7587
X7.7512Y-4.4231
X7.7567Y-4.3414
X7.7756Y-6.5354
X7.7854Y-6.398
X7.7953Y-4.6949
X7.8047Y-4.6004
X7.815Y-5.748
X7.8343Y-4.6064
X7.8346Y-7.2736
X7.8346Y-7.5669
X7.8445Y-7.3425
X7.8543Y-4.3429
X7.8543Y-4.6358
X7.8728Y-7.2109
X7.874Y-7.2628
X7.876Y-5.9744
X7.876Y-6.0236
X7.876Y-6.0728
X7.8937Y-7.5669
X7.9008Y-5.4161
X7.9079Y-4.5604
X7.9134Y-4.3602
X7.9232Y-7.1378
X7.9528Y-4.6949
X7.9528Y-7.2146
X7.9528Y-7.5669
X7.9724Y-4.7343
X7.9724Y-6.1516
X7.9742Y-7.1021
X7.9823Y-7.2047
X7.9823Y-7.5098
X8.002Y-4.7343
X8.002Y-6.1516
X8.0038Y-4.2521
X8.0118Y-7.4705
X8.0118Y-7.5669
X8.0315Y-4.5965
X8.0315Y-4.6457
X8.0315Y-4.7343
X8.0315Y-6.1516
X8.0413Y-7.1654
X8.0413Y-7.4803
X8.0472Y-5.6543
X8.0472Y-7.0717
X8.048Y-5.6776
X8.048Y-7.0949
X8.0512Y-4.2539
X8.061Y-4.7343
X8.061Y-6.1516
X8.0709Y-7.1622
X8.0709Y-7.2539
X8.0709Y-7.5669
X8.0807Y-5.7776
X8.0906Y-4.7343
X8.0906Y-6.1516
X8.0909Y-4.6204
X8.0937Y-5.7201
X8.0957Y-5.6539
X8.0957Y-7.0713
X8.0966Y-7.0941
X8.0969Y-5.6783
X8.1004Y-4.2539
X8.1004Y-7.4311
X8.1201Y-4.7343
X8.1201Y-6.1516
X8.1299Y-7.2315
X8.1457Y-5.6547
X8.1457Y-7.072
X8.1474Y-4.2563
X8.1638Y-7.1457
X8.1866Y-5.6547
X8.1866Y-7.072
X8.1874Y-5.6106
X8.1874Y-7.028
X8.1894Y-7.2303
X8.1929Y-4.4835
X8.1988Y-7.8051
X8.2008Y-5.9941
X8.2008Y-6.0531
X8.2012Y-5.7748
X8.2016Y-6.0917
X8.2087Y-4.3307
X8.2177Y-7.4795
X8.2189Y-7.2937
X8.2303Y-5.689
X8.2382Y-3.9941
X8.248Y-4.6457
X8.248Y-7.2295
X8.2915Y-7.4057
X8.2972Y-4.4882
X8.3091Y-6.0531
X8.3091Y-6.0925
X8.3268Y-4.6752
X8.3346Y-5.2388
X8.336Y-5.8097
X8.3366Y-5.935
X8.3366Y-7.2736
X8.339Y-5.1561
X8.3563Y-5.6988
X8.3583Y-5.7874
X8.3661Y-5.1181
X8.3661Y-5.1476
X8.3661Y-5.2461
X8.3661Y-5.2756
X8.3661Y-6.5354
X8.3661Y-6.565
X8.3661Y-6.6634
X8.3661Y-6.6929
X8.3957Y-5.1181
X8.3957Y-5.1476
X8.3957Y-5.2461
X8.3957Y-5.2756
X8.3957Y-5.7972
X8.3957Y-6.5354
X8.3957Y-6.565
X8.3957Y-6.6634
X8.3957Y-6.6929
X8.4142Y-6.0921
X8.4228Y-5.1181
X8.4228Y-5.1476
X8.4228Y-5.2461
X8.4228Y-5.2756
X8.4228Y-6.5354
X8.4228Y-6.565
X8.4228Y-6.6634
X8.4228Y-6.6929
X8.4252Y-4.626
X8.4736Y-7.7953
X8.5434Y-5.1632
X8.5535Y-5.4992
X8.5551Y-4.932
X8.5882Y-5.0787
X8.5889Y-5.0422
X8.5925Y-7.4803
X8.6024Y-4.9508
X8.6024Y-5.6102
X8.6205Y-5.1886
X8.622Y-5.2953
X8.6236Y-5.089
X8.624Y-4.9874
X8.6311Y-4.9512
X8.6319Y-7.313
X8.6319Y-7.3917
X8.6331Y-5.8047
X8.6417Y-4.0453
X8.6516Y-7.5295
X8.6557Y-5.9547
X8.6614Y-7.0472
X8.6713Y-6.4961
X8.6713Y-6.939
X8.6713Y-7.126
X8.6722Y-4.6171
X8.6758Y-4.4853
X8.6765Y-6.8927
X8.6768Y-7.5951
X8.6776Y-7.5669
X8.6787Y-5.2413
X8.6789Y-6.7923
X8.6791Y-5.0202
X8.6795Y-6.8304
X8.6803Y-5.1358
X8.6806Y-6.7424
X8.6811Y-6.5256
X8.6811Y-6.5748
X8.6811Y-6.6142
X8.6811Y-6.6634
X8.6811Y-6.9882
X8.6811Y-7.0177
X8.6811Y-5.3642
X8.6826Y-6.8618
X8.6851Y-5.8907
X8.6909Y-6.2205
X8.6941Y-4.7638
X8.7004Y-7.6433
X8.7008Y-7.2835
X8.7044Y-5.6496
X8.7106Y-4.3307
X8.7106Y-4.5472
X8.7106Y-4.5768
X8.7106Y-5.9843
X8.7106Y-6.1614
X8.7126Y-4.0984
X8.7126Y-4.189
X8.7126Y-4.2362
X8.7205Y-4.3701
X8.7205Y-4.4094
X8.7205Y-7.4311
X8.7205Y-7.6772
X8.7252Y-7.5768
X8.726Y-7.5951
X8.7277Y-7.3097
X8.7303Y-7.3622
X8.7303Y-7.4606
X8.7305Y-6.4175
X8.7322Y-5.2619
X8.7342Y-7.5152
X8.7358Y-5.1583
X8.7375Y-4.9581
X8.7402Y-5.9449
X8.7402Y-6.2303
X8.7447Y-5.1896
X8.7452Y-4.9886
X8.7469Y-5.0744
X8.7504Y-7.6437
X8.7521Y-5.2181
X8.7524Y-5.3138
X8.7543Y-5.1039
X8.7559Y-5.2827
X8.7598Y-4.0742
X8.7598Y-4.3504
X8.7598Y-4.5472
X8.7598Y-4.8832
X8.7632Y-4.7638
X8.7638Y-4.2126
X8.7697Y-5.9449
X8.773Y-7.188
X8.7738Y-4.3986
X8.7742Y-4.9816
X8.7752Y-7.1332
X8.776Y-7.5965
X8.7768Y-7.5681
X8.7795Y-6.1614
X8.7795Y-6.2205
X8.7795Y-6.8406
X8.7795Y-6.8701
X8.7795Y-6.939
X8.7821Y-6.4932
X8.7821Y-5.1305
X8.7835Y-5.8898
X8.7887Y-6.6498
X8.7894Y-5.3445
X8.7894Y-6.5551
X8.7894Y-6.5846
X8.7894Y-6.8012
X8.7914Y-6.7492
X8.7923Y-5.2006
X8.7941Y-4.9563
X8.7953Y-4.2126
X8.7953Y-5.0173
X8.7959Y-6.7128
X8.7969Y-5.3051
X8.7992Y-4.0742
X8.7992Y-4.3504
X8.7993Y-6.5218
X8.8Y-5.0866
X8.8091Y-6.7796
X8.8091Y-6.8406
X8.8098Y-7.6957
X8.8128Y-4.7751
X8.8189Y-6.9587
X8.8189Y-7.5295
X8.8193Y-7.1842
X8.8228Y-4.2126
X8.8232Y-4.4016
X8.8246Y-6.3443
X8.8268Y-4.1299
X8.8268Y-4.1693
X8.8268Y-4.2559
X8.8268Y-4.2953
X8.8287Y-6.2795
X8.8307Y-5.1567
X8.832Y-6.4764
X8.8378Y-5.2591
X8.8489Y-7.5291
X8.8526Y-6.9575
X8.8587Y-5.4929
X8.861Y-6.7378
X8.8614Y-5.2854
X8.8622Y-4.9591
X8.8654Y-5.8913
X8.8681Y-5.0713
X8.8681Y-7.0768
X8.8705Y-5.115
X8.878Y-6.1614
X8.878Y-6.4665
X8.8795Y-7.5654
X8.8854Y-6.6157
X8.887Y-6.5343
X8.887Y-6.661
X8.8878Y-4.8327
X8.8878Y-6.565
X8.8878Y-6.9488
X8.8878Y-7.185
X8.9013Y-7.5216
X8.9052Y-5.1728
X8.9075Y-4.7244
X8.9075Y-5.2854
X8.9075Y-5.3445
X8.9075Y-5.4035
X8.9075Y-5.9646
X8.9079Y-7.5654
X8.9094Y-4.6102
X8.9114Y-6.0181
X8.9143Y-7.0727
X8.9144Y-6.9795
X8.917Y-7.1842
X8.9173Y-5.8465
X8.9173Y-5.8858
X8.9217Y-4.4016
X8.937Y-4.0906
X8.937Y-5.9252
X8.937Y-6.9685
X8.9409Y-4.4882
X8.9469Y-6.1614
X8.9534Y-5.2268
X8.9551Y-7.5512
X8.9567Y-6.4665
X8.9567Y-7.0768
X8.9567Y-7.6772
X8.9575Y-7.587
X8.9665Y-6.9685
X8.9665Y-7.7362
X8.9681Y-4.7673
X8.9764Y-4.5669
X8.9767Y-6.0374
X8.9854Y-6.1614
X8.9862Y-4.626
X8.9862Y-5.9941
X8.9862Y-6.9488
X8.9905Y-4.102
X8.9961Y-6.4665
X8.999Y-7.1623
X9.0059Y-5.8268
X9.0083Y-5.9252
X9.0085Y-6.9711
X9.0091Y-5.5303
X9.0118Y-4.0748
X9.0122Y-6.0644
X9.0157Y-6.5748
X9.0157Y-7.6575
X9.0157Y-7.7362
X9.0207Y-4.3998
X9.0248Y-4.5449
X9.0256Y-5.0886
X9.0256Y-5.1378
X9.0256Y-5.2165
X9.0256Y-5.3346
X9.0256Y-5.3937
X9.0264Y-6.0139
X9.0276Y-5.7299
X9.0278Y-5.455
X9.0278Y-7.1623
X9.0278Y-5.2778
X9.0311Y-5.5831
X9.0368Y-6.9629
X9.0382Y-4.7713
X9.0394Y-4.1043
X9.0417Y-6.0673
X9.0453Y-6.4665
X9.0551Y-7.0728
X9.0557Y-4.9864
X9.0642Y-7.4024
X9.065Y-6.5748
X9.065Y-6.9193
X9.065Y-6.9488
X9.065Y-7.2047
X9.065Y-7.2835
X9.065Y-7.4606
X9.065Y-7.6575
X9.065Y-7.7362
X9.0654Y-7.3425
X9.0669Y-4.0748
X9.0673Y-4.5435
X9.0674Y-5.35
X9.0709Y-6.9809
X9.0748Y-4.7736
X9.0748Y-5.4
X9.0778Y-7.1671
X9.0794Y-5.0101
X9.0846Y-4.4685
X9.0898Y-7.3577
X9.0898Y-7.3864
X9.0919Y-4.6825
X9.0919Y-4.727
X9.0945Y-4.1043
X9.0945Y-5.8169
X9.0945Y-6.4862
X9.0945Y-7.4409
X9.095Y-5.335
X9.1043Y-4.626
X9.1043Y-6.9488
X9.1043Y-7.4114
X9.1065Y-7.1671
X9.1142Y-4.7047
X9.1142Y-7.6083
X9.1166Y-6.0217
X9.119Y-5.5118
X9.1193Y-5.4165
X9.1197Y-5.2819
X9.1214Y-5.3709
X9.1217Y-5.122
X9.1218Y-5.3127
X9.1218Y-5.2023
X9.122Y-4.3465
X9.1222Y-6.073
X9.124Y-5.0886
X9.124Y-5.5559
X9.124Y-5.9449
X9.126Y-4.1654
X9.1299Y-4.2126
X9.1327Y-5.2445
X9.1339Y-6.9488
X9.1339Y-7.2986
X9.1339Y-7.3274
X9.1339Y-7.4661
X9.1339Y-7.5689
X9.1372Y-5.3986
X9.1374Y-5.4453
X9.1436Y-5.4957
X9.1437Y-5.5807
X9.1439Y-4.5434
X9.1465Y-5.1079
X9.1494Y-5.1413
X9.1496Y-6.9787
X9.1535Y-4.0748
X9.1535Y-4.3504
X9.1535Y-6.4665
X9.1539Y-5.0394
X9.1551Y-5.9576
X9.1713Y-4.56
X9.1732Y-7.4661
X9.1785Y-6.9662
X9.1787Y-5.4709
X9.1826Y-5.5189
X9.1831Y-6.8504
X9.1835Y-5.898
X9.185Y-4.2126
X9.1874Y-4.8586
X9.1892Y-5.8071
X9.1929Y-4.0748
X9.1929Y-4.3504
X9.1929Y-6.565
X9.1929Y-6.5945
X9.1929Y-6.6929
X9.1929Y-6.7421
X9.1929Y-7.313
X9.2028Y-5.4232
X9.2028Y-6.4665
X9.2028Y-6.8209
X9.2036Y-4.546
X9.204Y-7.0686
X9.2057Y-5.1598
X9.2102Y-6.961
X9.2126Y-7.7461
X9.2131Y-4.8768
X9.214Y-5.5159
X9.2209Y-4.7671
X9.2224Y-5.8268
X9.2299Y-6.1616
X9.2323Y-5.9449
X9.2323Y-7.2146
X9.2369Y-5.1598
X9.2375Y-4.9147
X9.2378Y-5.0602
X9.2398Y-4.5472
X9.2402Y-4.2126
X9.2421Y-4.0748
X9.2421Y-4.3504
X9.2441Y-5.5066
X9.2446Y-6.5681
X9.2487Y-7.6028
X9.252Y-6.4665
X9.2618Y-5.561
X9.2673Y-5.1093
X9.2679Y-4.9231
X9.2708Y-4.9524
X9.2717Y-5.4303
X9.2717Y-6.9685
X9.2717Y-7.4409
X9.2755Y-5.5076
X9.2801Y-5.1547
X9.2815Y-4.0748
X9.2815Y-4.3504
X9.2815Y-5.239
X9.2817Y-6.7655
X9.2913Y-6.8406
X9.2953Y-4.2126
X9.2992Y-6.7417
X9.3012Y-5.9843
X9.3012Y-6.4764
X9.3012Y-6.5354
X9.3012Y-6.6142
X9.3012Y-6.6929
X9.3012Y-6.8701
X9.3012Y-6.9291
X9.3012Y-7.0768
X9.3012Y-7.1063
X9.3012Y-7.5787
X9.3012Y-7.628
X9.3012Y-7.6772
X9.3012Y-7.7264
X9.3042Y-4.9341
X9.3047Y-5.7319
X9.3093Y-4.4925
X9.3134Y-7.234
X9.3134Y-5.5035
X9.3189Y-5.1106
X9.3209Y-5.0787
X9.3268Y-4.2362
X9.3299Y-5.1669
X9.3307Y-4.3307
X9.3371Y-6.0005
X9.3386Y-4.6503
X9.3406Y-4.4193
X9.3406Y-5.4303
X9.3406Y-7.2736
X9.3409Y-7.3281
X9.3412Y-7.4426
X9.35Y-5.5106
X9.3543Y-5.0
X9.3543Y-5.0295
X9.3602Y-4.5079
X9.3602Y-7.1358
X9.3614Y-4.0862
X9.3622Y-4.7606
X9.3642Y-6.9827
X9.3701Y-5.8661
X9.3701Y-7.4213
X9.378Y-5.5276
X9.3878Y-5.2283
X9.3996Y-7.3524
X9.3996Y-7.4902
X9.4Y-4.7642
X9.4037Y-5.4028
X9.4114Y-5.6091
X9.4658Y-5.9585
X9.4685Y-5.0004
X9.4685Y-5.0291
X9.4697Y-5.6118
X9.481Y-6.3488
X9.4976Y-5.5319
X9.498Y-5.0886
X9.498Y-6.378
X9.5003Y-6.304
X9.501Y-6.2435
X9.5018Y-7.1518
X9.5018Y-7.2047
X9.5033Y-5.9888
X9.5038Y-5.8461
X9.5039Y-5.1457
X9.5058Y-6.1494
X9.5079Y-5.8016
X9.5079Y-6.0236
X9.5079Y-6.0827
X9.5079Y-7.2638
X9.5081Y-5.9018
X9.5099Y-7.0869
X9.5109Y-6.7729
X9.5112Y-6.7261
X9.5116Y-6.4303
X9.5116Y-6.4923
X9.5116Y-6.547
X9.5116Y-6.6077
X9.5126Y-7.0071
X9.5177Y-6.6929
X9.5177Y-7.313
X9.5193Y-6.2188
X9.5245Y-6.9383
X9.526Y-5.6067
X9.5276Y-5.0591
X9.5276Y-6.8209
X9.5276Y-6.8799
X9.5472Y-6.6437
X9.5571Y-6.4075
X9.5591Y-6.2937
X9.5646Y-6.9386
X9.5768Y-5.2657
X9.5768Y-5.4134
X9.5866Y-5.2264
X9.5866Y-6.8209
X9.5874Y-4.9386
X9.5939Y-6.7652
X9.5955Y-6.1072
X9.5965Y-7.2244
X9.5965Y-7.5787
X9.5965Y-7.628
X9.5965Y-7.6772
X9.5965Y-7.7264
X9.597Y-6.2829
X9.5972Y-6.2237
X9.5984Y-6.5767
X9.5988Y-7.0655
X9.5994Y-6.1624
X9.6024Y-5.9252
X9.6024Y-6.0433
X9.6038Y-6.5461
X9.6038Y-6.9004
X9.6038Y-7.1366
X9.6039Y-7.3415
X9.6039Y-5.8488
X9.604Y-6.6944
X9.604Y-7.1078
X9.605Y-7.1878
X9.6063Y-6.5157
X9.6067Y-6.6343
X9.6074Y-6.3474
X9.6358Y-5.3642
X9.6457Y-6.998
X9.6599Y-5.5641
X9.664Y-5.3303
X9.6654Y-7.5295
X9.6882Y-7.3394
X9.6894Y-6.0398
X9.6898Y-5.9697
X9.6908Y-5.9084
X9.6909Y-5.3405
X9.6925Y-6.3189
X9.6949Y-5.2854
X9.6949Y-5.8465
X9.6949Y-6.1417
X9.6949Y-6.2008
X9.6949Y-6.378
X9.6949Y-6.6179
X9.6949Y-6.7224
X9.6949Y-6.9193
X9.6949Y-6.9685
X9.6949Y-7.201
X9.6949Y-7.4409
X9.6949Y-7.5787
X9.6949Y-7.628
X9.6949Y-7.6772
X9.6949Y-7.7264
X9.696Y-7.5025
X9.6969Y-6.0827
X9.7145Y-5.5814
X9.721Y-5.1401
X9.7583Y-5.4661
X9.7764Y-5.0909
X9.8307Y-5.4347
X9.8346Y-5.135
X9.8622Y-5.502
X9.8965Y-4.7189
X9.9016Y-5.7087
X9.9114Y-5.5315
X9.9657Y-4.6661
X9.9803Y-5.2953
X10.0031Y-5.0831
X10.0394Y-5.5512
X10.0579Y-4.665
X10.0591Y-5.502
X10.1197Y-5.7098
X10.1209Y-4.7161
T2
X4.6949Y-4.3898
X4.6949Y-4.4291
X4.7343Y-4.3898
X4.7343Y-4.4291
X4.7441Y-7.4213
X4.7441Y-7.4606
X4.7835Y-7.4213
X4.7835Y-7.4606
X4.9882Y-5.374
X4.9882Y-5.4252
X4.9882Y-5.4764
X4.9882Y-5.5315
X4.9882Y-6.2795
X4.9882Y-6.3307
X4.9882Y-6.3819
X4.9882Y-6.437
X5.0335Y-5.374
X5.0335Y-5.4252
X5.0335Y-5.4764
X5.0335Y-5.5315
X5.0335Y-6.2795
X5.0335Y-6.3307
X5.0335Y-6.3819
X5.0335Y-6.437
X5.0787Y-5.374
X5.0787Y-5.4291
X5.0787Y-5.4764
X5.0787Y-5.5315
X5.0787Y-6.2795
X5.0787Y-6.3346
X5.0787Y-6.3819
X5.0787Y-6.437
X6.5128Y-4.7969
X6.5128Y-4.85
X6.5128Y-4.9031
X6.5128Y-4.9563
X6.5128Y-5.0094
X6.5128Y-6.8016
X6.5128Y-6.8547
X6.5128Y-6.9079
X6.5128Y-6.961
X6.5128Y-7.0142
X6.5197Y-5.4213
X6.5197Y-5.4744
X6.5197Y-5.5276
X6.5197Y-5.5807
X6.5197Y-5.6339
X6.5197Y-6.1772
X6.5197Y-6.2303
X6.5197Y-6.2835
X6.5197Y-6.3366
X6.5197Y-6.3898
X6.5659Y-4.7969
X6.5659Y-4.85
X6.5659Y-4.9031
X6.5659Y-4.9563
X6.5659Y-5.0094
X6.5659Y-6.8016
X6.5659Y-6.8547
X6.5659Y-6.9079
X6.5659Y-6.961
X6.5659Y-7.0142
X6.5728Y-5.4213
X6.5728Y-5.4744
X6.5728Y-5.5276
X6.5728Y-5.5807
X6.5728Y-5.6339
X6.5728Y-6.1772
X6.5728Y-6.2303
X6.5728Y-6.2835
X6.5728Y-6.3366
X6.5728Y-6.3898
X6.6191Y-4.7969
X6.6191Y-4.85
X6.6191Y-4.9031
X6.6191Y-4.9563
X6.6191Y-5.0094
X6.6191Y-6.8016
X6.6191Y-6.8547
X6.6191Y-6.9079
X6.6191Y-6.961
X6.6191Y-7.0142
X6.626Y-5.4213
X6.626Y-5.4744
X6.626Y-5.5276
X6.626Y-5.5807
X6.626Y-5.6339
X6.626Y-6.1772
X6.626Y-6.2303
X6.626Y-6.2835
X6.626Y-6.3366
X6.626Y-6.3898
X6.6722Y-4.7969
X6.6722Y-4.85
X6.6722Y-4.9031
X6.6722Y-4.9563
X6.6722Y-5.0094
X6.6722Y-6.8016
X6.6722Y-6.8547
X6.6722Y-6.9079
X6.6722Y-6.961
X6.6722Y-7.0142
X6.6791Y-5.4213
X6.6791Y-5.4744
X6.6791Y-5.5276
X6.6791Y-5.5807
X6.6791Y-5.6339
X6.6791Y-6.1772
X6.6791Y-6.2303
X6.6791Y-6.2835
X6.6791Y-6.3366
X6.6791Y-6.3898
X6.7254Y-4.7969
X6.7254Y-4.85
X6.7254Y-4.9031
X6.7254Y-4.9563
X6.7254Y-5.0094
X6.7254Y-6.8016
X6.7254Y-6.8547
X6.7254Y-6.9079
X6.7254Y-6.961
X6.7254Y-7.0142
X6.7323Y-5.4213
X6.7323Y-5.4744
X6.7323Y-5.5276
X6.7323Y-5.5807
X6.7323Y-5.6339
X6.7323Y-6.1772
X6.7323Y-6.2303
X6.7323Y-6.2835
X6.7323Y-6.3366
X6.7323Y-6.3898
X7.2441Y-4.6358
X7.25Y-7.1654
X7.2835Y-4.6358
X7.2894Y-7.1654
X7.3031Y-5.7402
X7.3031Y-5.7953
X7.3031Y-5.8425
X7.3031Y-5.8976
X7.3228Y-4.6358
X7.3287Y-7.1654
X7.3484Y-5.7402
X7.3484Y-5.7953
X7.3484Y-5.8465
X7.3484Y-5.8976
X7.3937Y-5.7402
X7.3937Y-5.7953
X7.3937Y-5.8465
X7.3937Y-5.8976
X7.9114Y-7.3169
X7.9114Y-7.3681
X7.9469Y-7.2815
X7.9469Y-7.3169
X7.9469Y-7.3681
X7.9469Y-7.4035
X7.9902Y-4.4429
X7.9902Y-4.4941
X7.9921Y-4.8524
X7.9921Y-4.8976
X7.9921Y-4.9429
X7.9921Y-5.4508
X7.9921Y-5.4961
X7.9921Y-5.5413
X7.9921Y-6.2697
X7.9921Y-6.315
X7.9921Y-6.3602
X7.9921Y-6.8681
X7.9921Y-6.9134
X7.9921Y-6.9587
X7.998Y-7.2815
X7.998Y-7.3169
X7.998Y-7.3681
X7.998Y-7.4035
X8.002Y-5.9154
X8.002Y-5.9705
X8.002Y-6.0177
X8.002Y-6.0728
X8.0256Y-4.4075
X8.0256Y-4.4429
X8.0256Y-4.4941
X8.0256Y-4.5295
X8.0335Y-7.3169
X8.0335Y-7.3681
X8.0433Y-4.8976
X8.0433Y-4.9429
X8.0433Y-6.315
X8.0433Y-6.3602
X8.0472Y-4.8524
X8.0472Y-5.4508
X8.0472Y-5.4961
X8.0472Y-5.5413
X8.0472Y-5.9154
X8.0472Y-5.9705
X8.0472Y-6.0217
X8.0472Y-6.0728
X8.0472Y-6.2697
X8.0472Y-6.8681
X8.0472Y-6.9134
X8.0472Y-6.9587
X8.0768Y-4.4075
X8.0768Y-4.4429
X8.0768Y-4.4941
X8.0768Y-4.5295
X8.0925Y-5.9154
X8.0925Y-5.9705
X8.0925Y-6.0217
X8.0925Y-6.0728
X8.0945Y-4.8524
X8.0945Y-4.8976
X8.0945Y-4.9429
X8.0945Y-5.5413
X8.0945Y-6.2697
X8.0945Y-6.315
X8.0945Y-6.3602
X8.0945Y-6.9587
X8.0984Y-5.4508
X8.0984Y-5.4961
X8.0984Y-6.8681
X8.0984Y-6.9134
X8.1122Y-4.4429
X8.1122Y-4.4941
X8.1496Y-4.8524
X8.1496Y-4.8976
X8.1496Y-4.9429
X8.1496Y-5.4508
X8.1496Y-5.4961
X8.1496Y-5.5413
X8.1496Y-6.2697
X8.1496Y-6.315
X8.1496Y-6.3602
X8.1496Y-6.8681
X8.1496Y-6.9134
X8.1496Y-6.9587
X8.2283Y-4.8406
X8.2283Y-4.8858
X8.2283Y-4.9311
X8.2283Y-5.4626
X8.2283Y-5.5079
X8.2283Y-5.5531
X8.2283Y-6.2579
X8.2283Y-6.3031
X8.2283Y-6.3484
X8.2283Y-6.8799
X8.2283Y-6.9252
X8.2283Y-6.9705
X8.2795Y-5.5079
X8.2795Y-5.5531
X8.2795Y-6.9252
X8.2795Y-6.9705
X8.2835Y-4.8406
X8.2835Y-4.8858
X8.2835Y-4.9311
X8.2835Y-5.4626
X8.2835Y-6.2579
X8.2835Y-6.3031
X8.2835Y-6.3484
X8.2835Y-6.8799
X8.3307Y-4.9311
X8.3307Y-5.4626
X8.3307Y-5.5079
X8.3307Y-5.5531
X8.3307Y-6.3484
X8.3307Y-6.8799
X8.3307Y-6.9252
X8.3307Y-6.9705
X8.3346Y-4.8406
X8.3346Y-4.8858
X8.3346Y-6.2579
X8.3346Y-6.3031
X8.3858Y-4.8406
X8.3858Y-4.8858
X8.3858Y-4.9311
X8.3858Y-5.4626
X8.3858Y-5.5079
X8.3858Y-5.5531
X8.3858Y-6.2579
X8.3858Y-6.3031
X8.3858Y-6.3484
X8.3858Y-6.8799
X8.3858Y-6.9252
X8.3858Y-6.9705
X8.8248Y-7.626
X8.8248Y-7.6496
X8.8386Y-7.2933
X8.8386Y-7.3524
X8.8386Y-7.4114
X8.8681Y-7.6378
X8.8976Y-7.2933
X8.8976Y-7.3524
X8.8976Y-7.4114
X8.9114Y-7.626
X8.9114Y-7.6496
X8.9213Y-6.6024
X8.9213Y-6.6614
X8.9213Y-6.7205
X8.9213Y-6.7795
X8.9213Y-6.8386
X8.9567Y-7.2933
X8.9567Y-7.3524
X8.9567Y-7.4114
X8.9803Y-6.6024
X8.9803Y-6.6614
X8.9803Y-6.7205
X8.9803Y-6.7795
X8.9803Y-6.8386
X9.0394Y-6.6024
X9.0394Y-6.6614
X9.0394Y-6.7205
X9.0394Y-6.7795
X9.0394Y-6.8386
X9.0984Y-6.6024
X9.0984Y-6.6614
X9.0984Y-6.7205
X9.0984Y-6.7795
X9.0984Y-6.8386
X9.1575Y-6.6024
X9.1575Y-6.6614
X9.1575Y-6.7205
X9.1575Y-6.7795
X9.1575Y-6.8386
X9.2412Y-7.3156
X9.2421Y-5.3346
X9.2421Y-7.2697
X9.2717Y-5.3346
X9.2854Y-7.2697
X9.2854Y-7.3169
X9.3012Y-5.2756
X9.3012Y-5.3051
X9.3012Y-5.3346
X9.3012Y-5.3642
X9.3012Y-5.3937
X9.3307Y-5.3346
X9.3602Y-5.3346
X9.9508Y-5.7087
X9.9508Y-5.7087
T3
X3.9978Y-4.1555
X4.0039Y-7.625
X4.0039Y-7.686
X4.0212Y-4.0991
X4.0212Y-4.2119
X4.047Y-7.5819
X4.047Y-7.7292
X4.0776Y-4.0758
X4.0776Y-4.2352
X4.1081Y-7.5819
X4.1081Y-7.7292
X4.1339Y-4.0991
X4.1339Y-4.2119
X4.1512Y-7.625
X4.1512Y-7.686
X4.1573Y-4.1555
X4.4478Y-4.1732
X4.4478Y-7.6378
X4.4712Y-4.1169
X4.4712Y-4.2296
X4.4712Y-7.5814
X4.4712Y-7.6942
X4.5276Y-4.0935
X4.5276Y-4.253
X4.5276Y-7.5581
X4.5276Y-7.7175
X4.5839Y-4.1169
X4.5839Y-4.2296
X4.5839Y-7.5814
X4.5839Y-7.6942
X4.6073Y-4.1732
X4.6073Y-7.6378
X4.6152Y-5.4528
X4.6152Y-6.3583
X4.6385Y-5.3964
X4.6385Y-5.5091
X4.6385Y-6.3019
X4.6385Y-6.4146
X4.6949Y-5.373
X4.6949Y-5.5325
X4.6949Y-6.2785
X4.6949Y-6.438
X4.7513Y-5.3964
X4.7513Y-5.5091
X4.7513Y-6.3019
X4.7513Y-6.4146
X4.7746Y-5.4528
X4.7746Y-6.3583
X6.7313Y-5.2165
X6.7313Y-6.5945
X6.7546Y-5.1602
X6.7546Y-5.2729
X6.7546Y-6.5381
X6.7546Y-6.6509
X6.811Y-5.1368
X6.811Y-5.2963
X6.811Y-6.5148
X6.811Y-6.6742
X6.8674Y-5.1602
X6.8674Y-5.2729
X6.8674Y-6.5381
X6.8674Y-6.6509
X6.8907Y-5.2165
X6.8907Y-6.5945
X7.5974Y-5.9055
X7.6208Y-5.8491
X7.6208Y-5.9619
X7.6772Y-5.8258
X7.6772Y-5.9852
X7.7335Y-5.8491
X7.7335Y-5.9619
X7.7569Y-5.9055
X7.9911Y-5.1969
X7.9911Y-6.6142
X8.0145Y-5.1405
X8.0145Y-5.2532
X8.0145Y-6.5578
X8.0145Y-6.6705
X8.0709Y-5.1171
X8.0709Y-5.2766
X8.0709Y-6.5344
X8.0709Y-6.6939
X8.1272Y-5.1405
X8.1272Y-5.2532
X8.1272Y-6.5578
X8.1272Y-6.6705
X8.1506Y-5.1969
X8.1506Y-6.6142
X8.4636Y-4.1732
X8.4636Y-7.6378
X8.4869Y-4.1169
X8.4869Y-4.2296
X8.4869Y-7.5814
X8.4869Y-7.6942
X8.5433Y-4.0935
X8.5433Y-4.253
X8.5433Y-7.5581
X8.5433Y-7.7175
X8.5997Y-4.1169
X8.5997Y-4.2296
X8.5997Y-7.5814
X8.5997Y-7.6942
X8.623Y-4.1732
X8.623Y-7.6378
T4
X9.5472Y-4.1929
X9.5472Y-4.3504
X9.5472Y-4.5079
X9.5512Y-4.1142
X9.5512Y-4.2717
X9.5512Y-4.4291
X9.6024Y-4.1929
X9.6024Y-4.3504
X9.6024Y-4.5079
X9.6063Y-4.1142
X9.6063Y-4.2717
X9.6063Y-4.4291
X9.6575Y-4.1929
X9.6575Y-4.3504
X9.6575Y-4.5079
X9.6614Y-4.1142
X9.6614Y-4.2717
X9.6614Y-4.4291
X9.7126Y-4.1929
X9.7126Y-4.3504
X9.7126Y-4.5079
X9.7165Y-4.1142
X9.7165Y-4.2717
X9.7165Y-4.4291
X9.7677Y-4.1929
X9.7677Y-4.3504
X9.7677Y-4.5079
X9.7717Y-4.1142
X9.7717Y-4.2717
X9.7717Y-4.4291
X9.8228Y-4.1929
X9.8228Y-4.3504
X9.8228Y-4.5079
X9.8268Y-4.1142
X9.8268Y-4.2717
X9.8268Y-4.4291
X9.878Y-4.1929
X9.878Y-4.3504
X9.878Y-4.5079
X9.8819Y-4.1142
X9.8819Y-4.2717
X9.8819Y-4.4291
X9.9331Y-4.1929
X9.9331Y-4.3504
X9.9331Y-4.5079
X9.937Y-4.1142
X9.937Y-4.2717
X9.937Y-4.4291
X9.9882Y-4.1929
X9.9882Y-4.3504
X9.9882Y-4.5079
X9.9921Y-4.1142
X9.9921Y-4.2717
X9.9921Y-4.4291
X10.0433Y-4.1929
X10.0433Y-4.3504
X10.0433Y-4.5079
X10.0472Y-4.1142
X10.0472Y-4.2717
X10.0472Y-4.4291
X10.0984Y-4.1929
X10.0984Y-4.3504
X10.0984Y-4.5079
X10.1024Y-4.1142
X10.1024Y-4.2717
X10.1024Y-4.4291
X10.1535Y-4.1929
X10.1535Y-4.3504
X10.1535Y-4.5079
X10.1575Y-4.1142
X10.1575Y-4.2717
X10.1575Y-4.4291
T5
X9.7835Y-5.8268
X9.7835Y-5.9055
X9.7835Y-5.9843
X9.7835Y-6.063
X9.7835Y-6.1417
X9.7835Y-6.2205
X9.7835Y-6.2992
X9.7835Y-6.378
X9.7835Y-6.4567
X9.7835Y-6.5354
X9.7835Y-6.6142
X9.7835Y-6.6929
X9.7835Y-6.7717
X9.7835Y-6.8504
X9.7835Y-6.9291
X9.7835Y-7.0079
X9.7835Y-7.0866
X9.7835Y-7.1654
X9.7835Y-7.2441
X9.7835Y-7.3228
X9.7835Y-7.4016
X9.7835Y-7.4803
X9.7835Y-7.5591
X9.7835Y-7.6378
X9.7835Y-7.7165
X9.8622Y-5.8268
X9.8622Y-5.9055
X9.8622Y-5.9843
X9.8622Y-6.063
X9.8622Y-6.1417
X9.8622Y-6.2205
X9.8622Y-6.2992
X9.8622Y-6.378
X9.8622Y-6.4567
X9.8622Y-6.5354
X9.8622Y-6.6142
X9.8622Y-6.9291
X9.8622Y-7.0079
X9.8622Y-7.0866
X9.8622Y-7.1654
X9.8622Y-7.2441
X9.8622Y-7.3228
X9.8622Y-7.4016
X9.8622Y-7.4803
X9.8622Y-7.5591
X9.8622Y-7.6378
X9.8622Y-7.7165
X9.9409Y-5.8268
X9.9409Y-5.9055
X9.9409Y-5.9843
X9.9409Y-6.063
X9.9409Y-6.1417
X9.9409Y-6.2205
X9.9409Y-6.2992
X9.9409Y-6.378
X9.9409Y-6.4567
X9.9409Y-6.5354
X9.9409Y-6.6142
X9.9409Y-6.9291
X9.9409Y-7.0079
X9.9409Y-7.0866
X9.9409Y-7.1654
X9.9409Y-7.2441
X9.9409Y-7.3228
X9.9409Y-7.4016
X9.9409Y-7.4803
X9.9409Y-7.5591
X9.9409Y-7.6378
X9.9409Y-7.7165
X10.0197Y-5.8268
X10.0197Y-5.9055
X10.0197Y-5.9843
X10.0197Y-6.063
X10.0197Y-6.1417
X10.0197Y-6.2205
X10.0197Y-6.2992
X10.0197Y-6.378
X10.0197Y-6.4567
X10.0197Y-6.5354
X10.0197Y-6.6142
X10.0197Y-6.9291
X10.0197Y-7.0079
X10.0197Y-7.0866
X10.0197Y-7.1654
X10.0197Y-7.2441
X10.0197Y-7.3228
X10.0197Y-7.4016
X10.0197Y-7.4803
X10.0197Y-7.5591
X10.0197Y-7.6378
X10.0197Y-7.7165
X10.0984Y-5.8268
X10.0984Y-5.9055
X10.0984Y-5.9843
X10.0984Y-6.063
X10.0984Y-6.1417
X10.0984Y-6.2205
X10.0984Y-6.2992
X10.0984Y-6.378
X10.0984Y-6.4567
X10.0984Y-6.5354
X10.0984Y-6.6142
X10.0984Y-6.9291
X10.0984Y-7.0079
X10.0984Y-7.0866
X10.0984Y-7.1654
X10.0984Y-7.2441
X10.0984Y-7.3228
X10.0984Y-7.4016
X10.0984Y-7.4803
X10.0984Y-7.5591
X10.0984Y-7.6378
X10.0984Y-7.7165
X10.1772Y-5.8268
X10.1772Y-5.9055
X10.1772Y-5.9843
X10.1772Y-6.063
X10.1772Y-6.1417
X10.1772Y-6.2205
X10.1772Y-6.2992
X10.1772Y-6.378
X10.1772Y-6.4567
X10.1772Y-6.5354
X10.1772Y-6.6142
X10.1772Y-6.9291
X10.1772Y-7.0079
X10.1772Y-7.0866
X10.1772Y-7.1654
X10.1772Y-7.2441
X10.1772Y-7.3228
X10.1772Y-7.4016
X10.1772Y-7.4803
X10.1772Y-7.5591
X10.1772Y-7.6378
X10.1772Y-7.7165
T6
X4.1339Y-5.0055
X4.1339Y-5.2055
X4.1339Y-5.4055
X4.1339Y-5.6055
X4.1339Y-5.8055
X4.1339Y-6.0055
X4.1339Y-6.2055
X4.1339Y-6.4055
X4.1339Y-6.6055
X4.1339Y-6.8055
T7
X4.2126Y-7.6555
T8
X4.0776Y-4.1555
X4.0776Y-7.6555
X4.5276Y-4.1732
X4.5276Y-7.6378
X4.6949Y-5.4528
X4.6949Y-6.3583
X6.811Y-5.2165
X6.811Y-6.5945
X7.6772Y-5.9055
X8.0709Y-5.1969
X8.0709Y-6.6142
X8.5433Y-4.1732
X8.5433Y-7.6378
M30
